<svg xmlns="http://www.w3.org/2000/svg" width="113" height="113" viewBox="0 0 113 113">
  <g id="Grupo_17346" data-name="Grupo 17346" transform="translate(-378 -7394)">
    <g id="Grupo_17345" data-name="Grupo 17345" transform="translate(0 403)">
      <g id="Grupo_17343" data-name="Grupo 17343" transform="translate(0 560)">
        <g id="Grupo_17342" data-name="Grupo 17342">
          <g id="Grupo_17335" data-name="Grupo 17335" transform="translate(0 1019)">
            <rect id="Rectángulo_4354" data-name="Rectángulo 4354" width="113" height="113" transform="translate(378 5412)" fill="none"/>
          </g>
        </g>
      </g>
    </g>
    <g id="filled_outline" data-name="filled outline" transform="translate(-402.712 5819.757)">
      <path id="Trazado_27510" data-name="Trazado 27510" d="M886.15,1683.722h-1.281v-14.1h5.125v10.252a3.845,3.845,0,0,1-3.844,3.844Z" transform="translate(-20.679 -19.717)" fill="#812622"/>
      <path id="Trazado_27511" data-name="Trazado 27511" d="M819.523,1593.963H869.5a3.844,3.844,0,0,1,3.844,3.844v52.54a3.845,3.845,0,0,1-3.844,3.845H819.523v-60.229Z" transform="translate(-4.029 -0.438)" fill="#932c27"/>
      <path id="Trazado_27512" data-name="Trazado 27512" d="M852.2,1611.159h5.125v20.824H852.2Z" transform="translate(-12.354 -4.82)" fill="#ee9d0d"/>
      <path id="Trazado_27513" data-name="Trazado 27513" d="M857.322,1611.159v2l-2.563-.881-2.563.881v-2Z" transform="translate(-12.354 -4.82)" fill="#a86e09"/>
      <path id="Trazado_27514" data-name="Trazado 27514" d="M857.322,1611.159v2l-2.563-.881-2.563.881v-2Z" transform="translate(-12.354 -4.82)" fill="#a86e09"/>
      <g id="Grupo_17330" data-name="Grupo 17330" transform="translate(827.028 1632.289)">
        <path id="Trazado_27515" data-name="Trazado 27515" d="M862.382,1651.107h-20.5l1.282-5.126H861.1Z" transform="translate(-836.753 -1645.981)" fill="#ee9d0d"/>
        <path id="Trazado_27516" data-name="Trazado 27516" d="M862.382,1652.312h-20.5l.4-1.6h19.7Z" transform="translate(-836.753 -1647.186)" fill="#ee9d0d"/>
        <path id="Trazado_27517" data-name="Trazado 27517" d="M865.755,1657.985H835l1.281-5.125h28.193Z" transform="translate(-835 -1647.734)" fill="#ee9d0d"/>
      </g>
      <path id="Trazado_27518" data-name="Trazado 27518" d="M816.018,1654.192l-10.252,5.125v-56.384a8.971,8.971,0,0,1,8.971-8.97h1.281Z" transform="translate(-0.523 -0.438)" fill="#812622"/>
      <path id="Trazado_27519" data-name="Trazado 27519" d="M810.559,1674.785h54.07v10.252h-54.07a5.126,5.126,0,1,1,0-10.252Z" transform="translate(-0.438 -21.032)" fill="#dcdbd6"/>
      <g id="Grupo_17331" data-name="Grupo 17331" transform="translate(816.776 1601.213)">
        <path id="Trazado_27520" data-name="Trazado 27520" d="M828.932,1690.633l-3.844-2.563-3.844,2.563v-8.97h7.689Z" transform="translate(-821.243 -1623.997)" fill="#ee9d0d"/>
        <path id="Trazado_27521" data-name="Trazado 27521" d="M865.755,1614.692l-15.378-5.286L835,1614.692v-5.125l15.377-5.286,15.378,5.286Z" transform="translate(-824.748 -1604.28)" fill="#ee9d0d"/>
        <path id="Trazado_27522" data-name="Trazado 27522" d="M835.607,1616.131l2.562-.881a2.722,2.722,0,0,0-1.8-4.506l-1.364.469v4.724Z" transform="translate(-824.748 -1605.927)" fill="#ee9d0d"/>
        <path id="Trazado_27523" data-name="Trazado 27523" d="M874.956,1615.937v-4.724l-1.365-.469a2.722,2.722,0,0,0-1.8,4.506l2.561.881Z" transform="translate(-833.949 -1605.927)" fill="#ee9d0d"/>
      </g>
      <path id="Trazado_27524" data-name="Trazado 27524" d="M838.845,1613.456a2.7,2.7,0,0,1-.676,1.794l-2.562.881a2.592,2.592,0,0,1-.607-.194v-4.724l1.364-.469A2.721,2.721,0,0,1,838.845,1613.456Z" transform="translate(-7.972 -4.714)" fill="#a86e09"/>
      <path id="Trazado_27525" data-name="Trazado 27525" d="M874.956,1611.214v4.724a2.6,2.6,0,0,1-.607.194l-2.561-.881a2.722,2.722,0,0,1,1.8-4.506Z" transform="translate(-17.173 -4.714)" fill="#a86e09"/>
      <path id="Trazado_27526" data-name="Trazado 27526" d="M852.2,1636.953h5.125v2.563H852.2Z" transform="translate(-12.354 -11.392)" fill="#a86e09"/>
      <path id="Trazado_27527" data-name="Trazado 27527" d="M859.009,1644.229H848.757l1.281-5.125h7.689Z" transform="translate(-11.477 -11.94)" fill="#ee9d0d"/>
      <path id="Trazado_27528" data-name="Trazado 27528" d="M859.009,1645.433H848.757l.4-1.6h9.451Z" transform="translate(-11.477 -13.145)" fill="#ee9d0d"/>
      <path id="Trazado_27529" data-name="Trazado 27529" d="M859.009,1645.433H848.757l.4-1.6h9.451Z" transform="translate(-11.477 -13.145)" fill="#a86e09"/>
      <path id="Trazado_27530" data-name="Trazado 27530" d="M862.382,1652.312h-20.5l.4-1.6h19.7Z" transform="translate(-9.725 -14.897)" fill="#a86e09"/>
      <path id="Trazado_27531" data-name="Trazado 27531" d="M865.755,1659.19H835l.4-1.6h29.954Z" transform="translate(-7.972 -16.65)" fill="#a86e09"/>
      <path id="Trazado_27532" data-name="Trazado 27532" d="M867.672,1630.505h12.815v2.242a2.883,2.883,0,0,1-2.883,2.883h-7.048a2.884,2.884,0,0,1-2.884-2.883v-2.242Z" transform="translate(-16.297 -9.749)" fill="#ee9d0d"/>
      <path id="Trazado_27533" data-name="Trazado 27533" d="M826.4,1630.72h12.815v2.082a2.883,2.883,0,0,1-2.883,2.883h-7.048a2.883,2.883,0,0,1-2.883-2.883v-2.082Z" transform="translate(-5.781 -9.804)" fill="#ee9d0d"/>
      <circle id="Elipse_1031" data-name="Elipse 1031" cx="2.723" cy="2.723" r="2.723" transform="translate(824.305 1606.339)" fill="#f7a014"/>
      <circle id="Elipse_1032" data-name="Elipse 1032" cx="2.723" cy="2.723" r="2.723" transform="translate(855.06 1606.339)" fill="#f7a014"/>
      <path id="Trazado_27534" data-name="Trazado 27534" d="M865.471,1592.243H814.213a10.263,10.263,0,0,0-10.252,10.252v54.462a1.176,1.176,0,0,0,.007.136,6.4,6.4,0,0,0,6.152,8.193h5.374v2.563a1.281,1.281,0,0,0,1.993,1.066l3.134-2.089,3.134,2.089a1.281,1.281,0,0,0,1.992-1.066v-2.563h39.725a5.132,5.132,0,0,0,5.126-5.125v-62.792A5.132,5.132,0,0,0,865.471,1592.243Zm2.563,5.126v52.54a2.565,2.565,0,0,1-2.563,2.563h-48.7v-57.666h48.7A2.566,2.566,0,0,1,868.034,1597.369Zm-53.821-2.563v57.666h-4.093a6.369,6.369,0,0,0-3.6,1.107v-51.084A7.7,7.7,0,0,1,814.213,1594.806Zm-4.093,67.918a3.844,3.844,0,1,1,0-7.689h52.788v2.563h-52.54a1.281,1.281,0,1,0,0,2.563h5.125v2.563Zm13.063,2.731-1.853-1.234a1.278,1.278,0,0,0-1.421,0l-1.852,1.234v-5.294h5.125Zm2.563-5.294h37.162v2.563H825.746Zm39.725,2.563v-7.689a5.091,5.091,0,0,0,2.563-.689v5.816A2.566,2.566,0,0,1,865.471,1662.724Z" transform="translate(0 0)" fill="#00223d"/>
      <path id="Trazado_27535" data-name="Trazado 27535" d="M828.847,1629.792H835.9a4.169,4.169,0,0,0,4.164-4.165v-2.082a1.275,1.275,0,0,0-.467-.99l-5.94-4.9v-2.171a4.024,4.024,0,0,0,1.353-.78l8.9-3.059v16.865a1.281,1.281,0,0,0-1.243.971l-1.039,4.155h-2.844a1.281,1.281,0,0,0-1.243.97l-1.039,4.155h-2.844a1.281,1.281,0,0,0-1.243.971l-1.281,5.125a1.283,1.283,0,0,0,1.243,1.592h30.755a1.282,1.282,0,0,0,1.243-1.592l-1.282-5.125a1.281,1.281,0,0,0-1.243-.971H859l-1.039-4.155a1.282,1.282,0,0,0-1.244-.97h-2.844l-1.039-4.155a1.281,1.281,0,0,0-1.243-.971v-16.865l8.9,3.059a3.99,3.99,0,0,0,1.353.78v2.01l-5.94,4.9a1.278,1.278,0,0,0-.467.99v2.242a4.169,4.169,0,0,0,4.165,4.165h7.048a4.169,4.169,0,0,0,4.164-4.165v-2.242a1.275,1.275,0,0,0-.467-.99l-5.94-4.9v-2.01a4,4,0,0,0-1.052-7.79l-15.2-5.067a1.281,1.281,0,0,0-.822,0l-14.73,5.063c-.077,0-.154-.007-.231-.007a4,4,0,0,0-1.282,7.8v2.171l-5.94,4.9a1.28,1.28,0,0,0-.467.99v2.082a4.17,4.17,0,0,0,4.165,4.165Zm3.524-9.872,2.84,2.344H829.53Zm5.125,5.708a1.6,1.6,0,0,1-1.6,1.6h-7.048a1.6,1.6,0,0,1-1.6-1.6v-.8H837.5Zm23.988,18.26H834.012l.641-2.563h26.191Zm-5.125-5.125H839.138l.64-2.563h15.94Zm-12.1-5.125.641-2.563h5.687l.641,2.563Zm4.766-5.126h-2.563v-17.747l1.281-.44,1.282.44Zm14.1-8.751,2.84,2.344h-5.681Zm5.125,5.868a1.6,1.6,0,0,1-1.6,1.6H859.6a1.6,1.6,0,0,1-1.6-1.6v-.961h10.252Zm-5.125-12.494a1.442,1.442,0,1,1,1.441-1.442A1.442,1.442,0,0,1,863.126,1613.133Zm-15.371-7.938,12.192,4.064a3.985,3.985,0,0,0-.822,2.265l-10.96-3.768a1.277,1.277,0,0,0-.833,0l-10.96,3.768a3.979,3.979,0,0,0-.744-2.16Zm-15.384,5.055a1.442,1.442,0,1,1-1.442,1.441h0A1.443,1.443,0,0,1,832.371,1610.25Z" transform="translate(-5.343 -2.629)" fill="#00223d"/>
      <path id="Trazado_27536" data-name="Trazado 27536" d="M843.126,1664.467H838a1.281,1.281,0,1,0,0,2.563h5.125a1.281,1.281,0,1,0,0-2.563Z" transform="translate(-8.41 -18.403)" fill="#00223d"/>
      <path id="Trazado_27537" data-name="Trazado 27537" d="M865.854,1664.467h-14.1a1.281,1.281,0,1,0,0,2.563h14.1a1.281,1.281,0,0,0,0-2.563Z" transform="translate(-11.915 -18.403)" fill="#00223d"/>
    </g>
  </g>
</svg>
