<svg xmlns="http://www.w3.org/2000/svg" width="113" height="113" viewBox="0 0 113 113">
  <g id="Grupo_17344" data-name="Grupo 17344" transform="translate(-378 -6991)">
    <g id="Grupo_17343" data-name="Grupo 17343" transform="translate(0 560)">
      <g id="Grupo_17342" data-name="Grupo 17342">
        <g id="Grupo_17335" data-name="Grupo 17335" transform="translate(0 1019)">
          <rect id="Rectángulo_4354" data-name="Rectángulo 4354" width="113" height="113" transform="translate(378 5412)" fill="none"/>
        </g>
      </g>
    </g>
    <g id="Grupo_17327" data-name="Grupo 17327" transform="translate(392 7005)">
      <path id="Trazado_27506" data-name="Trazado 27506" d="M-315.125,1229.481l-21.079,21.08,36.04,36.04,39-39,.518-24.545-12.014-12.013-24.545.517Zm42.172,4.527a7.536,7.536,0,0,1-10.658,0,7.537,7.537,0,0,1,0-10.659,7.536,7.536,0,0,1,10.658,0A7.536,7.536,0,0,1-272.953,1234.008Z" transform="translate(337.86 -1203.755)" fill="#36d28f"/>
      <path id="Trazado_27507" data-name="Trazado 27507" d="M-256.074,1199.135c-1.687-1.688-4.56-1.805-8.088-.333a29.551,29.551,0,0,0-8.24,5.525c-.146-.145-.288-.292-.435-.434a1.7,1.7,0,0,0-1.211-.489l-24.545.518a1.661,1.661,0,0,0-1.137.484l-8.492,8.492a1.657,1.657,0,0,0,0,2.344,1.657,1.657,0,0,0,2.343,0l8.021-8.021,23.053-.487a31.454,31.454,0,0,0-4.815,6.776,9.166,9.166,0,0,0-6.521,2.688,9.136,9.136,0,0,0-2.693,6.5,9.132,9.132,0,0,0,2.693,6.5,9.132,9.132,0,0,0,6.5,2.693,9.134,9.134,0,0,0,6.5-2.693,9.135,9.135,0,0,0,2.692-6.5,9.33,9.33,0,0,0-.081-1.213l0-.018a9.127,9.127,0,0,0-2.609-5.271,9.163,9.163,0,0,0-3.076-2.03,29.23,29.23,0,0,1,3.813-5.152l8.729,8.729-.489,23.172-37.361,37.36-33.7-33.7,19.908-19.907a1.658,1.658,0,0,0,0-2.344,1.658,1.658,0,0,0-2.344,0l-21.079,21.08a1.658,1.658,0,0,0-.485,1.172,1.658,1.658,0,0,0,.485,1.172l36.041,36.04a1.65,1.65,0,0,0,1.172.485,1.652,1.652,0,0,0,1.172-.485l39-39a1.657,1.657,0,0,0,.485-1.137l.519-24.545a1.661,1.661,0,0,0-.486-1.206l-.438-.438a29.536,29.536,0,0,0,5.525-8.24C-254.268,1203.7-254.386,1200.822-256.074,1199.135Zm-23.565,29.445a5.842,5.842,0,0,1-4.158-1.722,5.843,5.843,0,0,1-1.722-4.158,5.843,5.843,0,0,1,1.722-4.158,5.846,5.846,0,0,1,2.828-1.567c-.66,2.582-.315,4.68,1.03,6.025a4.969,4.969,0,0,0,3.647,1.36,9.655,9.655,0,0,0,2.381-.33,5.845,5.845,0,0,1-1.57,2.827A5.843,5.843,0,0,1-279.639,1228.58Zm5.512-7.934c-1.908.622-3.047.433-3.468.01-.53-.53-.512-1.839.011-3.464a5.855,5.855,0,0,1,2.1,1.349A5.866,5.866,0,0,1-274.127,1220.646Zm15.327-14.7a26.028,26.028,0,0,1-4.812,7.171l-6.444-6.445a26.024,26.024,0,0,1,7.171-4.813c2.079-.868,3.833-1.018,4.468-.382S-257.931,1203.868-258.8,1205.947Z" transform="translate(339.218 -1197.777)" fill="#00223d"/>
      <path id="Trazado_27508" data-name="Trazado 27508" d="M-293.205,1271.1a9,9,0,0,0-2.654,6.408,9,9,0,0,0,1.353,4.766l-1.637,1.637a1.657,1.657,0,0,0,0,2.344,1.652,1.652,0,0,0,1.172.485,1.654,1.654,0,0,0,1.172-.485l1.528-1.528a9.09,9.09,0,0,0,5.478,1.842c.143,0,.286,0,.43-.01a8.029,8.029,0,0,0,6.259-3.435,7.681,7.681,0,0,0,1.03-6.754,10.052,10.052,0,0,0-1.7-3.141l6.738-6.738a5.726,5.726,0,0,1,.487,2.32,5.712,5.712,0,0,1-1.683,4.064,1.657,1.657,0,0,0,0,2.343,1.658,1.658,0,0,0,2.343,0,9,9,0,0,0,2.654-6.407,9,9,0,0,0-1.353-4.767l1.637-1.638a1.658,1.658,0,0,0,0-2.343,1.659,1.659,0,0,0-2.344,0l-1.529,1.529a9.078,9.078,0,0,0-5.907-1.833,8.029,8.029,0,0,0-6.259,3.436,7.683,7.683,0,0,0-1.03,6.753,10.029,10.029,0,0,0,1.7,3.141l-6.738,6.739a5.73,5.73,0,0,1-.488-2.32,5.709,5.709,0,0,1,1.684-4.064,1.658,1.658,0,0,0,0-2.343A1.656,1.656,0,0,0-293.205,1271.1Zm10.971,6.269a4.389,4.389,0,0,1-.588,3.86,4.741,4.741,0,0,1-3.7,2.02,5.755,5.755,0,0,1-3.372-.9l6.751-6.75A6.469,6.469,0,0,1-282.235,1277.366Zm-1.625-8.421a4.391,4.391,0,0,1,.589-3.86,4.739,4.739,0,0,1,3.7-2.019,5.763,5.763,0,0,1,3.372.9l-6.751,6.75A6.472,6.472,0,0,1-283.86,1268.945Z" transform="translate(320.023 -1225.63)" fill="#00223d"/>
      <path id="Trazado_27509" data-name="Trazado 27509" d="M-292.125,1235.3a1.673,1.673,0,0,0,1.634,1.021,1.673,1.673,0,0,0,1.464-1.122,1.668,1.668,0,0,0-.517-1.812,1.67,1.67,0,0,0-1.948-.113A1.675,1.675,0,0,0-292.125,1235.3Z" transform="translate(318.048 -1213.658)" fill="#00223d"/>
    </g>
  </g>
</svg>
