<svg xmlns="http://www.w3.org/2000/svg" width="113" height="113" viewBox="0 0 113 113">
  <g id="Grupo_17338" data-name="Grupo 17338" transform="translate(-378 -6173)">
    <g id="Clipboard-Management-Project-Setting-List" transform="translate(393 6188)">
      <path id="Trazado_27363" data-name="Trazado 27363" d="M589.083,1232.23v57.734a5.5,5.5,0,0,1-5.5,5.5H536.848a5.5,5.5,0,0,1-3.3-1.1,5.184,5.184,0,0,1-1-.976,5.534,5.534,0,0,1-1.2-3.423V1232.23a5.5,5.5,0,0,1,5.5-5.5h46.737A5.5,5.5,0,0,1,589.083,1232.23Z" transform="translate(-514.855 -1214.36)" fill="#a97c50"/>
      <path id="Trazado_27364" data-name="Trazado 27364" d="M587.223,1237.243V1282.6h-8.248a2.757,2.757,0,0,0-2.749,2.749v8.248H541.861a1.375,1.375,0,0,1-1.375-1.375v-54.984a1.375,1.375,0,0,1,1.375-1.375h43.987A1.375,1.375,0,0,1,587.223,1237.243Z" transform="translate(-518.492 -1217.998)" fill="#e6e7e8"/>
      <path id="Trazado_27365" data-name="Trazado 27365" d="M584.961,1289.018l-.976,4.866-2.914,2.915a2.751,2.751,0,0,0,3.888,3.892l0,0,2.914-2.914,4.866-.976.962-.976,9.361-9.361v-15.533Z" transform="translate(-534.334 -1231.958)" fill="#d8d7da"/>
      <path id="Trazado_27366" data-name="Trazado 27366" d="M623.641,1261.792l-5.5,5.5v15.536l5.5-5.5Z" transform="translate(-549.412 -1228.32)" fill="#8b5e3c"/>
      <path id="Trazado_27367" data-name="Trazado 27367" d="M553.792,1307.381a13.472,13.472,0,0,1-1.5,3.6l1.966,2.625h-12.4a1.374,1.374,0,0,1-1.375-1.375v-26.118h2.749l.646,4.564a13.463,13.463,0,0,1,3.6,1.5l3.7-2.777,3.89,3.89-2.777,3.7a13.467,13.467,0,0,1,1.5,3.6l4.564.646v5.5Z" transform="translate(-518.492 -1238.005)" fill="#d8d7da"/>
      <path id="Trazado_27368" data-name="Trazado 27368" d="M630.35,1254.986a5.476,5.476,0,0,0-3.877-1.622,5.253,5.253,0,0,0-1.842.33,5.383,5.383,0,0,0-2.048,1.292l-1.952,1.938,4,4,3.78,3.78,1.938-1.952a5.468,5.468,0,0,0,.034-7.733Z" transform="translate(-550.403 -1224.964)" fill="#e6e7e8"/>
      <path id="Trazado_27369" data-name="Trazado 27369" d="M622.7,1263.28l-4-4-1.5,1.5v.014l-1.416,1.4,1.416,1.416,2.474,2.474,3.024,3.024.866.866,2.914-2.914Z" transform="translate(-548.475 -1227.32)" fill="#ffa733"/>
      <path id="Trazado_27370" data-name="Trazado 27370" d="M610.867,1313.524l-11,11v-8.248a2.758,2.758,0,0,1,2.749-2.749Z" transform="translate(-542.136 -1248.917)" fill="#d1d3d4"/>
      <path id="Trazado_27371" data-name="Trazado 27371" d="M610.867,1313.524v9.622a1.374,1.374,0,0,1-1.375,1.375H599.87Z" transform="translate(-542.136 -1248.917)" fill="#e6e7e8"/>
      <path id="Trazado_27372" data-name="Trazado 27372" d="M583.307,1308.392l-2.914,2.914a2.751,2.751,0,0,1-3.89-3.89l2.914-2.915Z" transform="translate(-532.515 -1245.325)" fill="#787680"/>
      <path id="Trazado_27373" data-name="Trazado 27373" d="M591.591,1302.585l-.962.976-4.866.975-3.89-3.89.976-4.866.976-.962,3.877,3.89h.014Z" transform="translate(-534.971 -1241.47)" fill="#898890"/>
      <path id="Trazado_27374" data-name="Trazado 27374" d="M604.992,1265.537l-1.416-1.416L585.115,1282.6l3.877,3.891h.014l15.987-16,2.474-2.474Z" transform="translate(-536.262 -1229.247)" fill="#00ccb3"/>
      <path id="Trazado_27375" data-name="Trazado 27375" d="M613.064,1273.609l-3.024-3.024-2.474,2.474-15.987,16,3.876,3.876,12.11-12.11,5.5-5.5.866-.852Z" transform="translate(-538.835 -1231.821)" fill="#00b39d"/>
      <path id="Trazado_27376" data-name="Trazado 27376" d="M564.19,1261.073a5.5,5.5,0,1,1-4.508-2.365A5.5,5.5,0,0,1,564.19,1261.073Z" transform="translate(-523.942 -1227.092)" fill="#ff5023"/>
      <path id="Trazado_27377" data-name="Trazado 27377" d="M554.19,1238.152h30.241v4.124H554.19Z" transform="translate(-523.949 -1218.908)" fill="#ffa733"/>
      <path id="Trazado_27378" data-name="Trazado 27378" d="M582.562,1219.457a5.5,5.5,0,0,0-3.629-1.375h-4.124v-4.124a5.5,5.5,0,1,0-11,0v4.124h-4.124a5.511,5.511,0,0,0-5.5,5.5v2.749h30.241v-2.749A5.478,5.478,0,0,0,582.562,1219.457Z" transform="translate(-523.949 -1207.085)" fill="#ff9811"/>
      <path id="Trazado_27379" data-name="Trazado 27379" d="M551.433,1314.681l-1.677,1.677-2.214,2.213-2.941-2.213-.757-.563a11.153,11.153,0,0,1-1.058.563,13.009,13.009,0,0,1-2.543.935l-.261,1.815h-3.134a5.5,5.5,0,0,1-3.3-1.1l-.1-.715c-.3-.082-.618-.165-.907-.261a5.534,5.534,0,0,1-1.2-3.423v-22.186a12.324,12.324,0,0,1,2.1-.742l.646-4.564h2.749v26.118a1.374,1.374,0,0,0,1.375,1.375h12.4Z" transform="translate(-514.855 -1238.005)" fill="#8b5e3c"/>
      <path id="Trazado_27380" data-name="Trazado 27380" d="M537.4,1302.813a13.465,13.465,0,0,1-1.5,3.6l2.777,3.7L537,1311.789,534.79,1314l-2.941-2.213-.756-.563a11.232,11.232,0,0,1-1.058.563,13.035,13.035,0,0,1-2.543.935l-.646,4.564h-5.5l-.646-4.564a13.478,13.478,0,0,1-3.6-1.5L513.4,1314l-3.89-3.89,2.776-3.7a13.485,13.485,0,0,1-1.5-3.6l-4.564-.646v-5.5l4.564-.646a13.477,13.477,0,0,1,1.5-3.6l-2.776-3.7,3.89-3.89,3.7,2.777a13.479,13.479,0,0,1,3.6-1.5l.646-4.564h5.5l.646,4.564a13.462,13.462,0,0,1,3.6,1.5l3.7-2.777,3.89,3.89-2.777,3.7a13.457,13.457,0,0,1,1.5,3.6l4.564.646v5.5Z" transform="translate(-504.851 -1236.186)" fill="#ff9811"/>
      <path id="Trazado_27381" data-name="Trazado 27381" d="M534.119,1300.384a6.987,6.987,0,0,0-5.5,0,6.888,6.888,0,0,0,0,12.619,6.989,6.989,0,0,0,5.5,0,6.888,6.888,0,0,0,0-12.619Z" transform="translate(-512.125 -1243.461)" fill="#ffd422"/>
      <path id="Trazado_27382" data-name="Trazado 27382" d="M594.075,1314.518a4.124,4.124,0,0,1-4.124,4.124H547.338v2.749h42.613a6.881,6.881,0,0,0,6.873-6.873V1288.4h-2.749Z" transform="translate(-521.22 -1238.914)" fill="#00223d"/>
      <path id="Trazado_27383" data-name="Trazado 27383" d="M531.815,1224.046a4.124,4.124,0,0,1,4.124-4.124h7.456a6.8,6.8,0,0,0-.583,2.749h-5.5a2.749,2.749,0,0,0-2.749,2.749v21.994h2.749v-21.994h5.5v4.124a1.375,1.375,0,0,0,1.375,1.375h30.241a1.375,1.375,0,0,0,1.375-1.375v-4.124h5.5v8.248h2.749v-8.248a2.749,2.749,0,0,0-2.749-2.749h-5.5a6.8,6.8,0,0,0-.583-2.749h7.456a4.124,4.124,0,0,1,4.124,4.124v6.873h2.749v-6.873a6.881,6.881,0,0,0-6.873-6.873h-9.665a6.81,6.81,0,0,0-4.081-1.375H566.18v-2.749a6.873,6.873,0,0,0-13.746,0v2.749h-2.749a6.809,6.809,0,0,0-4.081,1.375h-9.665a6.881,6.881,0,0,0-6.873,6.873v23.368h2.749Zm13.746-1.375a4.124,4.124,0,0,1,4.124-4.124h4.124a1.374,1.374,0,0,0,1.375-1.375v-4.124a4.124,4.124,0,0,1,8.248,0v4.124a1.374,1.374,0,0,0,1.375,1.375h4.124a4.124,4.124,0,0,1,4.124,4.124v1.375H545.561Zm0,4.124h27.492v1.375H545.561Z" transform="translate(-513.945 -1206.176)" fill="#00223d"/>
      <path id="Trazado_27384" data-name="Trazado 27384" d="M567.894,1319.53h28.867a2.749,2.749,0,0,0,2.749-2.749v-19.244h-2.749v8.248h-6.873a4.124,4.124,0,0,0-4.124,4.124v6.873h-17.87Zm28.867-2.749h-6.3l6.3-6.3Zm-8.248-6.873a1.375,1.375,0,0,1,1.375-1.375h4.929l-6.3,6.3Z" transform="translate(-529.405 -1242.552)" fill="#00223d"/>
      <path id="Trazado_27385" data-name="Trazado 27385" d="M577.03,1215.312h2.749v2.749H577.03Z" transform="translate(-533.043 -1209.814)"/>
      <path id="Trazado_27386" data-name="Trazado 27386" d="M612.524,1253.108a6.881,6.881,0,0,0-9.72,0l-24.3,24.3a1.372,1.372,0,0,0-.377.7l-.891,4.452-2.622,2.622a4.124,4.124,0,0,0,5.832,5.833l2.622-2.622,4.452-.891a1.377,1.377,0,0,0,.7-.376l24.3-24.3a6.881,6.881,0,0,0,0-9.719Zm-13.609,7.775,1.945,1.944-16.524,16.525-1.943-1.943Zm-20.41,28.189a1.375,1.375,0,1,1-1.945-1.945l1.943-1.944,1.945,1.945Zm4.338-3.437L580,1282.788l.649-3.24,5.438,5.438Zm5.38-2.4-1.943-1.943,16.525-16.524,1.945,1.943Zm18.469-18.468-5.832-5.832.972-.972,5.833,5.832Zm3.887-3.887-.971.972-5.832-5.832.971-.972a4.124,4.124,0,0,1,5.832,5.833Z" transform="translate(-531.6 -1224.062)" fill="#00223d"/>
      <path id="Trazado_27387" data-name="Trazado 27387" d="M533.053,1314.188a1.376,1.376,0,0,0,1.8-.128l3.887-3.887a1.375,1.375,0,0,0,.128-1.8l-2.232-2.977a15.146,15.146,0,0,0,.932-2.253l3.686-.527a1.374,1.374,0,0,0,1.18-1.361v-5.5a1.375,1.375,0,0,0-1.18-1.361l-3.686-.526a15.177,15.177,0,0,0-.932-2.253l2.232-2.977a1.375,1.375,0,0,0-.128-1.8l-3.887-3.887a1.376,1.376,0,0,0-1.8-.128l-2.977,2.232a15.1,15.1,0,0,0-2.253-.932l-.527-3.687a1.374,1.374,0,0,0-1.361-1.179h-5.5a1.374,1.374,0,0,0-1.361,1.179l-.527,3.687a15.055,15.055,0,0,0-2.253.932l-2.978-2.232a1.375,1.375,0,0,0-1.8.128l-3.887,3.887a1.375,1.375,0,0,0-.128,1.8l2.232,2.977a15.041,15.041,0,0,0-.932,2.253l-3.686.526a1.375,1.375,0,0,0-1.18,1.361v5.5a1.374,1.374,0,0,0,1.18,1.361l3.686.527a15.011,15.011,0,0,0,.932,2.253l-2.232,2.977a1.374,1.374,0,0,0,.128,1.8l3.887,3.887a1.375,1.375,0,0,0,1.8.128l2.978-2.233a14.982,14.982,0,0,0,2.253.932l.527,3.687a1.375,1.375,0,0,0,1.361,1.179h5.5a1.375,1.375,0,0,0,1.361-1.179l.527-3.687a15.031,15.031,0,0,0,2.253-.932Zm-6.8-3.712a1.373,1.373,0,0,0-1.021,1.138l-.484,3.39h-3.115l-.484-3.385a1.373,1.373,0,0,0-1.021-1.138,12.222,12.222,0,0,1-3.239-1.34,1.373,1.373,0,0,0-1.527.083l-2.736,2.05-2.2-2.2,2.049-2.73a1.373,1.373,0,0,0,.082-1.527,12.249,12.249,0,0,1-1.34-3.239,1.377,1.377,0,0,0-1.139-1.021l-3.385-.49v-3.115l3.385-.483a1.376,1.376,0,0,0,1.139-1.022,12.252,12.252,0,0,1,1.34-3.239,1.373,1.373,0,0,0-.082-1.527l-2.051-2.735,2.2-2.2,2.735,2.051a1.375,1.375,0,0,0,1.527.083,12.227,12.227,0,0,1,3.239-1.34,1.375,1.375,0,0,0,1.021-1.138l.485-3.387h3.115l.484,3.386a1.374,1.374,0,0,0,1.021,1.138,12.235,12.235,0,0,1,3.238,1.34,1.375,1.375,0,0,0,1.527-.082l2.735-2.051,2.2,2.2-2.051,2.736a1.375,1.375,0,0,0-.082,1.527,12.232,12.232,0,0,1,1.34,3.239,1.374,1.374,0,0,0,1.138,1.021l3.387.485v3.115l-3.386.484a1.376,1.376,0,0,0-1.138,1.021,12.223,12.223,0,0,1-1.34,3.239,1.376,1.376,0,0,0,.083,1.527l2.051,2.735-2.2,2.2-2.73-2.049a1.374,1.374,0,0,0-1.527-.083,12.225,12.225,0,0,1-3.245,1.34Z" transform="translate(-503.942 -1235.277)" fill="#00223d"/>
      <path id="Trazado_27388" data-name="Trazado 27388" d="M530.462,1297.536a8.248,8.248,0,1,0,8.248,8.248A8.248,8.248,0,0,0,530.462,1297.536Zm0,13.746a5.5,5.5,0,1,1,5.5-5.5A5.5,5.5,0,0,1,530.462,1311.282Z" transform="translate(-511.217 -1242.552)" fill="#00223d"/>
      <path id="Trazado_27389" data-name="Trazado 27389" d="M558.779,1259.173a4.149,4.149,0,0,1,1.032.131l.687-2.664a6.964,6.964,0,0,0-1.719-.216,6.873,6.873,0,1,0,6.656,8.59l-2.661-.687a4.124,4.124,0,1,1-3.994-5.154Z" transform="translate(-523.04 -1226.183)" fill="#00223d"/>
      <path id="Trazado_27390" data-name="Trazado 27390" d="M561.7,1263.967l6.872-6.872,1.943,1.944-6.872,6.872Z" transform="translate(-526.938 -1226.45)" fill="#00223d"/>
      <path id="Trazado_27391" data-name="Trazado 27391" d="M579.314,1260.992h2.749v2.749h-2.749Z" transform="translate(-533.952 -1228.001)" fill="#00223d"/>
      <path id="Trazado_27392" data-name="Trazado 27392" d="M588.45,1260.992h5.5v2.749h-5.5Z" transform="translate(-537.59 -1228.001)" fill="#00223d"/>
      <path id="Trazado_27393" data-name="Trazado 27393" d="M579.314,1270.128h8.248v2.749h-8.248Z" transform="translate(-533.952 -1231.639)" fill="#00223d"/>
    </g>
    <g id="Grupo_17334" data-name="Grupo 17334" transform="translate(0 761)">
      <rect id="Rectángulo_4354" data-name="Rectángulo 4354" width="113" height="113" transform="translate(378 5412)" fill="none"/>
    </g>
  </g>
</svg>
