<svg xmlns="http://www.w3.org/2000/svg" width="113" height="113" viewBox="0 0 113 113">
  <g id="Grupo_17503" data-name="Grupo 17503" transform="translate(-745 -1358)">
    <g id="Grupo_17490" data-name="Grupo 17490" transform="translate(759 1372)">
      <path id="Trazado_27825" data-name="Trazado 27825" d="M445.952,571.5l-21,21,35.908,35.907,38.86-38.859.516-24.455-11.969-11.969-24.455.516Zm42.017,4.51a7.509,7.509,0,1,1,0-10.619A7.509,7.509,0,0,1,487.969,576.013Z" transform="translate(-423.301 -545.871)" fill="#36d28f"/>
      <path id="Trazado_27826" data-name="Trazado 27826" d="M504.774,541.219c-1.681-1.681-4.542-1.8-8.059-.331a29.447,29.447,0,0,0-8.21,5.5c-.145-.144-.286-.291-.433-.433a1.7,1.7,0,0,0-1.206-.487l-24.455.515a1.653,1.653,0,0,0-1.132.483l-8.461,8.461a1.651,1.651,0,1,0,2.335,2.335l7.992-7.991,22.968-.485a31.376,31.376,0,0,0-4.8,6.752,9.156,9.156,0,1,0,9.139,9.155,9.317,9.317,0,0,0-.08-1.208l0-.017a9.153,9.153,0,0,0-5.664-7.274,29.1,29.1,0,0,1,3.8-5.133l8.7,8.7-.487,23.087-37.224,37.223L425.922,586.5l19.834-19.834a1.651,1.651,0,0,0-2.335-2.335l-21,21a1.65,1.65,0,0,0,0,2.334l35.908,35.908a1.651,1.651,0,0,0,2.335,0l38.86-38.86a1.657,1.657,0,0,0,.483-1.133l.516-24.454a1.652,1.652,0,0,0-.484-1.2l-.437-.437a29.449,29.449,0,0,0,5.5-8.21C506.574,545.763,506.456,542.9,504.774,541.219ZM481.3,570.556a5.856,5.856,0,0,1-1.325-11.562c-.657,2.572-.314,4.663,1.027,6a4.95,4.95,0,0,0,3.633,1.354,9.626,9.626,0,0,0,2.372-.328,5.86,5.86,0,0,1-5.707,4.533Zm5.492-7.9c-1.9.619-3.036.431-3.456.01-.528-.528-.51-1.832.011-3.452a5.858,5.858,0,0,1,3.445,3.441Zm15.271-14.645a25.953,25.953,0,0,1-4.8,7.145l-6.421-6.422a25.933,25.933,0,0,1,7.145-4.795c2.071-.865,3.819-1.015,4.452-.381S502.924,545.935,502.059,548.006Z" transform="translate(-421.936 -539.867)" fill="#00223d"/>
      <path id="Trazado_27827" data-name="Trazado 27827" d="M467.936,613.144a9.03,9.03,0,0,0-1.3,11.133l-1.631,1.632a1.651,1.651,0,1,0,2.335,2.335l1.523-1.523a9.056,9.056,0,0,0,5.458,1.836c.142,0,.285,0,.427-.01a8,8,0,0,0,6.237-3.423,7.653,7.653,0,0,0,1.026-6.728,9.992,9.992,0,0,0-1.693-3.129l6.713-6.714a5.732,5.732,0,0,1-1.192,6.36,1.651,1.651,0,0,0,2.335,2.335,9.032,9.032,0,0,0,1.3-11.133l1.631-1.631a1.651,1.651,0,0,0-2.335-2.335l-1.524,1.524a9.047,9.047,0,0,0-5.886-1.826,8,8,0,0,0-6.236,3.423A7.653,7.653,0,0,0,474.1,612a10.013,10.013,0,0,0,1.693,3.129l-6.713,6.713a5.732,5.732,0,0,1,1.192-6.36,1.651,1.651,0,0,0-2.335-2.335Zm10.931,6.246a4.374,4.374,0,0,1-.587,3.846,4.721,4.721,0,0,1-3.685,2.012,5.735,5.735,0,0,1-3.36-.9l6.726-6.726A6.451,6.451,0,0,1,478.867,619.39ZM477.248,611a4.375,4.375,0,0,1,.587-3.846,4.721,4.721,0,0,1,3.684-2.012,5.745,5.745,0,0,1,3.359.9l-6.725,6.726A6.441,6.441,0,0,1,477.248,611Z" transform="translate(-441.217 -567.844)" fill="#00223d"/>
      <path id="Trazado_27828" data-name="Trazado 27828" d="M469.029,577.38a1.649,1.649,0,1,0,.63-2.019A1.667,1.667,0,0,0,469.029,577.38Z" transform="translate(-443.201 -555.819)" fill="#00223d"/>
    </g>
    <rect id="Rectángulo_4367" data-name="Rectángulo 4367" width="113" height="113" transform="translate(745 1358)" fill="none"/>
  </g>
</svg>
