<svg xmlns="http://www.w3.org/2000/svg" width="113" height="113" viewBox="0 0 113 113">
  <g id="Grupo_17252" data-name="Grupo 17252" transform="translate(-284 -2668)">
    <rect id="Rectángulo_4346" data-name="Rectángulo 4346" width="113" height="113" transform="translate(284 2668)" fill="none"/>
    <g id="Grupo_17251" data-name="Grupo 17251" transform="translate(979.542 1108.944)">
      <path id="Trazado_27265" data-name="Trazado 27265" d="M-660.559,1634.628l10.344,17.916-14.93,8.62a10.342,10.342,0,0,1-14.13-3.786,10.343,10.343,0,0,1,3.786-14.13Z" transform="translate(-1.156 -24.318)" fill="#2bbdc4"/>
      <path id="Trazado_27266" data-name="Trazado 27266" d="M-583.862,1619.831a3.448,3.448,0,0,1-2.9,5.17l-1.94.381-.043-.219-22.193-38.439-.145-.114,1.241-1.581a3.447,3.447,0,0,1,5.928.071C-569.471,1644.754-612.924,1569.493-583.862,1619.831Z" transform="translate(-29.09 -3.742)" fill="#2bbdc4"/>
      <path id="Trazado_27267" data-name="Trazado 27267" d="M-636.3,1686.748a5.171,5.171,0,0,1-1.893,7.064,5.174,5.174,0,0,1-7.065-1.893l-9.482-16.425,8.957-5.172C-645.7,1670.465-636.311,1686.722-636.3,1686.748Z" transform="translate(-11.565 -38.649)" fill="#495d85"/>
      <path id="Trazado_27268" data-name="Trazado 27268" d="M-579.889,1605.433l3.448,5.972-4.248,6.434-6.9-11.944Z" transform="translate(-38.524 -12.597)" fill="#e9eef0"/>
      <path id="Trazado_27269" data-name="Trazado 27269" d="M-603.2,1627.332l.043.219-33.578,6.585-10.344-17.916,21.541-27.442.145.114Z" transform="translate(-14.641 -5.911)" fill="#adf3ff"/>
      <path id="Trazado_27270" data-name="Trazado 27270" d="M-645.825,1660.681a1.724,1.724,0,0,0,.631-2.354,1.726,1.726,0,0,0-2.355-.632,1.725,1.725,0,0,0-.631,2.355A1.724,1.724,0,0,0-645.825,1660.681Z" transform="translate(-14.104 -33.487)" fill="#00223d"/>
      <path id="Trazado_27271" data-name="Trazado 27271" d="M-666.994,1641.678l8.682,15.038a6.905,6.905,0,0,0,9.421,2.525,6.893,6.893,0,0,0,2.523-9.42l-5.172-8.959,4.479-2.586a1.724,1.724,0,0,0,.631-2.355l-2.241-3.883,33.02-6.477a5.171,5.171,0,0,0,4.192-7.749l-5.73-9.924,3.662-5.546a1.723,1.723,0,0,0,.054-1.812l-3.448-5.972a1.727,1.727,0,0,0-1.6-.859l-6.633.4-6.361-11.017a5.128,5.128,0,0,0-4.414-2.586h-.066a5.127,5.127,0,0,0-4.354,2.385l-22.521,28.69-14.641,8.453a12.073,12.073,0,0,0-4.417,16.484A12.083,12.083,0,0,0-666.994,1641.678Zm17.64,9.868a3.446,3.446,0,0,1-1.263,4.709,3.452,3.452,0,0,1-4.709-1.262l-8.62-14.932,5.972-3.448C-648,1653.9-649.514,1651.27-649.354,1651.546Zm-3.911-13.67-1.724-2.986,2.986-1.724,1.724,2.986Zm33.89-40.67,2.383,4.127-2.125,3.218-4.107-7.113Zm-18.087-12.436a1.687,1.687,0,0,1,1.495-.827,1.7,1.7,0,0,1,1.47.861l20.052,34.732a1.723,1.723,0,0,1-1.45,2.584,6.362,6.362,0,0,0-.946.161l-21.211-36.739C-637.607,1584.97-637.55,1584.915-637.462,1584.77Zm-2.885,3.695,19.928,34.518-30.076,5.9-9.145-15.839Zm-38.591,46.318a8.613,8.613,0,0,1-1.157-4.3,8.651,8.651,0,0,1,4.312-7.474l13.437-7.758,8.62,14.93-13.437,7.758A8.63,8.63,0,0,1-678.938,1634.783Z" transform="translate(0 -2.585)" fill="#00223d"/>
      <path id="Trazado_27272" data-name="Trazado 27272" d="M-660.334,1664.087a1.724,1.724,0,0,0-2.355-.631l-2.986,1.724a1.726,1.726,0,0,1-2.355-.631,1.724,1.724,0,0,0-2.355-.631,1.725,1.725,0,0,0-.631,2.355,5.179,5.179,0,0,0,7.065,1.893l2.986-1.724A1.724,1.724,0,0,0-660.334,1664.087Z" transform="translate(-4.936 -35.799)" fill="#00223d"/>
      <path id="Trazado_27273" data-name="Trazado 27273" d="M-547.385,1586.511l-9.606,5.345a1.724,1.724,0,0,0-.669,2.345,1.724,1.724,0,0,0,2.345.668l9.606-5.345a1.723,1.723,0,0,0,.668-2.345A1.722,1.722,0,0,0-547.385,1586.511Z" transform="translate(-50.451 -4.913)" fill="#00223d"/>
      <path id="Trazado_27274" data-name="Trazado 27274" d="M-547.955,1615.252l-6.661-1.785a1.724,1.724,0,0,0-2.112,1.219,1.724,1.724,0,0,0,1.22,2.111l6.662,1.785a1.724,1.724,0,0,0,2.111-1.219A1.723,1.723,0,0,0-547.955,1615.252Z" transform="translate(-50.889 -15.799)" fill="#00223d"/>
      <path id="Trazado_27275" data-name="Trazado 27275" d="M-571.235,1575.334l-1.787,6.662a1.724,1.724,0,0,0,1.219,2.112,1.725,1.725,0,0,0,2.112-1.219l1.786-6.661a1.725,1.725,0,0,0-1.219-2.112A1.724,1.724,0,0,0-571.235,1575.334Z" transform="translate(-44.348)" fill="#00223d"/>
    </g>
  </g>
</svg>
