<svg xmlns="http://www.w3.org/2000/svg" width="113" height="113" viewBox="0 0 113 113">
  <g id="Grupo_17504" data-name="Grupo 17504" transform="translate(-972 -1358)">
    <g id="Grupo_17491" data-name="Grupo 17491" transform="translate(991 1370)">
      <path id="Trazado_27829" data-name="Trazado 27829" d="M1847.276,196.833H1824.7a1.5,1.5,0,0,1-1.5-1.5v-8.277a12.792,12.792,0,1,1,25.583,0v8.277A1.5,1.5,0,0,1,1847.276,196.833Zm-21.069-3.01h19.564v-6.772a9.782,9.782,0,1,0-19.564,0Z" transform="translate(-1798.365 -174.259)" fill="#00223d"/>
      <path id="Trazado_27830" data-name="Trazado 27830" d="M1863.92,208.222H1797.7l4.515-7.524h57.188Z" transform="translate(-1793.188 -179.628)" fill="#8c6b3b"/>
      <path id="Trazado_27831" data-name="Trazado 27831" d="M1863.536,209.344h-66.217a1.506,1.506,0,0,1-1.291-2.28l4.515-7.525a1.5,1.5,0,0,1,1.291-.731h57.188a1.5,1.5,0,0,1,1.291.731l4.515,7.525a1.506,1.506,0,0,1-1.291,2.28Zm-63.559-3.01h60.9l-2.709-4.515h-55.483Z" transform="translate(-1792.804 -179.244)" fill="#00223d"/>
      <rect id="Rectángulo_4363" data-name="Rectángulo 4363" width="22.573" height="21.068" transform="translate(37.589 31.912) rotate(-76.838)" fill="#83d816"/>
      <path id="Trazado_27832" data-name="Trazado 27832" d="M1859.336,214.629a1.514,1.514,0,0,1-.345-.04l-20.516-4.8a1.5,1.5,0,0,1-1.122-1.808l5.142-21.98a1.5,1.5,0,0,1,1.808-1.123l20.516,4.8a1.5,1.5,0,0,1,1.122,1.808l-5.142,21.98A1.5,1.5,0,0,1,1859.336,214.629Zm-18.71-7.426,17.585,4.113,4.456-19.048-17.585-4.114Z" transform="translate(-1801.231 -176.408)" fill="#00223d"/>
      <rect id="Rectángulo_4364" data-name="Rectángulo 4364" width="25.347" height="27.158" transform="translate(10.384 9.052) rotate(-6.742)" fill="#2a8ee6"/>
      <path id="Trazado_27833" data-name="Trazado 27833" d="M1807.87,212.953a1.506,1.506,0,0,1-1.493-1.329l-3.187-26.968a1.505,1.505,0,0,1,1.317-1.671l25.171-2.975a1.505,1.505,0,0,1,1.671,1.318l3.187,26.969a1.5,1.5,0,0,1-1.317,1.671l-25.171,2.975A1.709,1.709,0,0,1,1807.87,212.953Zm-1.515-27.157,2.834,23.98,22.183-2.62-2.834-23.981Z" transform="translate(-1794.3 -175.425)" fill="#00223d"/>
      <rect id="Rectángulo_4365" data-name="Rectángulo 4365" width="24.938" height="26.244" transform="translate(21.628 21.782) rotate(-13.521)" fill="#ed5481"/>
      <path id="Trazado_27834" data-name="Trazado 27834" d="M1824.926,226.744a1.506,1.506,0,0,1-1.463-1.152l-6.136-25.516a1.505,1.505,0,0,1,1.112-1.815l24.244-5.83a1.5,1.5,0,0,1,1.815,1.111l6.135,25.516a1.5,1.5,0,0,1-1.111,1.815l-24.245,5.83A1.488,1.488,0,0,1,1824.926,226.744Zm-4.32-25.908,5.432,22.59,21.317-5.126-5.431-22.59Z" transform="translate(-1797.165 -177.941)" fill="#00223d"/>
      <path id="Trazado_27835" data-name="Trazado 27835" d="M1866.163,268.832h-72.237l3.01-58.693h66.218Z" transform="translate(-1792.421 -181.545)" fill="#fbad4a"/>
      <path id="Trazado_27836" data-name="Trazado 27836" d="M1865.779,269.953h-72.237a1.5,1.5,0,0,1-1.5-1.582l3.01-58.692a1.506,1.506,0,0,1,1.5-1.428h66.218a1.505,1.505,0,0,1,1.5,1.428l3.01,58.692a1.5,1.5,0,0,1-1.5,1.582Zm-70.654-3.01h69.07l-2.856-55.682h-63.357Z" transform="translate(-1792.038 -181.162)" fill="#00223d"/>
      <ellipse id="Elipse_1059" data-name="Elipse 1059" cx="3.01" cy="3.01" rx="3.01" ry="3.01" transform="translate(45.901 34.614)" fill="#8c6b3b"/>
      <path id="Trazado_27837" data-name="Trazado 27837" d="M1852.261,224.834a4.515,4.515,0,1,1,4.515-4.515A4.52,4.52,0,0,1,1852.261,224.834Zm0-6.02a1.505,1.505,0,1,0,1.5,1.5A1.506,1.506,0,0,0,1852.261,218.814Z" transform="translate(-1803.35 -182.695)" fill="#00223d"/>
      <ellipse id="Elipse_1060" data-name="Elipse 1060" cx="3.01" cy="3.01" rx="3.01" ry="3.01" transform="translate(23.327 34.614)" fill="#8c6b3b"/>
      <path id="Trazado_27838" data-name="Trazado 27838" d="M1823.935,224.834a4.515,4.515,0,1,1,4.515-4.515A4.52,4.52,0,0,1,1823.935,224.834Zm0-6.02a1.505,1.505,0,1,0,1.5,1.5A1.506,1.506,0,0,0,1823.935,218.814Z" transform="translate(-1797.598 -182.695)" fill="#00223d"/>
      <path id="Trazado_27839" data-name="Trazado 27839" d="M1835.989,244.043a12.806,12.806,0,0,1-12.792-12.792v-8.277a1.5,1.5,0,0,1,3.009,0v8.277a9.782,9.782,0,0,0,19.565,0v-7.7a1.477,1.477,0,0,1-.116-.58,1.505,1.505,0,0,1,1.5-1.5h.116a1.505,1.505,0,0,1,1.5,1.5v8.277A12.806,12.806,0,0,1,1835.989,244.043Z" transform="translate(-1798.365 -183.846)" fill="#00223d"/>
    </g>
    <rect id="Rectángulo_4368" data-name="Rectángulo 4368" width="113" height="113" transform="translate(972 1358)" fill="none"/>
  </g>
</svg>
