<svg xmlns="http://www.w3.org/2000/svg" width="113" height="113" viewBox="0 0 113 113">
  <g id="Grupo_17551" data-name="Grupo 17551" transform="translate(-715 3925)">
    <rect id="Rectángulo_4373" data-name="Rectángulo 4373" width="113" height="113" transform="translate(715 -3925)" fill="none"/>
    <g id="Grupo_17546" data-name="Grupo 17546" transform="translate(732 -3908)">
      <g id="Grupo_17544" data-name="Grupo 17544" transform="translate(1.827 1.914)">
        <ellipse id="Elipse_1073" data-name="Elipse 1073" cx="37.429" cy="37.429" rx="37.429" ry="37.429" transform="translate(0.078)" fill="#f6e06e"/>
        <path id="Trazado_27942" data-name="Trazado 27942" d="M1684.491,185.508c-.827,0-1.647.029-2.46.082a32.7,32.7,0,1,1-34.933,34.933c-.053.814-.082,1.634-.082,2.461a37.476,37.476,0,1,0,37.476-37.476Z" transform="translate(-1647.015 -184.375)" fill="#dda86a"/>
        <path id="Trazado_27943" data-name="Trazado 27943" d="M1712.673,230.835a25.421,25.421,0,1,1-50.841,0Z" transform="translate(-1649.735 -192.696)" fill="#d789b9"/>
        <path id="Trazado_27944" data-name="Trazado 27944" d="M1670.876,236.553c6.281-2.792,39.815-.7,39.815-.7,0,1.394.514-1.55.514-5.209h-51.148c-.091,6.744,6.414,17.959,15.61,23.23,2.788,1.6,9.669,2.5,10.766,2.355-9.976-.68-21.837-16.887-15.556-19.679Z" transform="translate(-1649.409 -192.662)" fill="#c668b9"/>
        <path id="Trazado_27945" data-name="Trazado 27945" d="M1706.091,251.973c-2.427-5.408-9.089-9.292-16.928-9.292s-14.5,3.884-16.928,9.292c0,0,8.54,6.458,16.928,6.458s16.928-6.458,16.928-6.458Z" transform="translate(-1651.645 -194.871)" fill="#e8c2d8"/>
      </g>
      <g id="Grupo_17545" data-name="Grupo 17545" transform="translate(0)">
        <path id="Trazado_27946" data-name="Trazado 27946" d="M1684.122,260.464a39.344,39.344,0,1,1,39.345-39.345,39.389,39.389,0,0,1-39.345,39.345Zm0-74.869a35.524,35.524,0,1,0,35.524,35.524,35.564,35.564,0,0,0-35.524-35.524Z" transform="translate(-1644.777 -181.775)" fill="#00223d"/>
        <path id="Trazado_27947" data-name="Trazado 27947" d="M1678.451,216.695a1.911,1.911,0,0,1-1.91-1.91,5.316,5.316,0,0,0-10.633,0,1.91,1.91,0,1,1-3.82,0,9.137,9.137,0,0,1,18.273,0A1.911,1.911,0,0,1,1678.451,216.695Z" transform="translate(-1647.955 -186.158)" fill="#00223d"/>
        <path id="Trazado_27948" data-name="Trazado 27948" d="M1717.833,216.695a1.911,1.911,0,0,1-1.91-1.91,5.316,5.316,0,1,0-10.632,0,1.91,1.91,0,1,1-3.821,0,9.137,9.137,0,0,1,18.274,0,1.911,1.911,0,0,1-1.911,1.91Z" transform="translate(-1655.186 -186.158)" fill="#00223d"/>
        <path id="Trazado_27949" data-name="Trazado 27949" d="M1712.245,228.5H1661.4a1.91,1.91,0,0,0-1.91,1.91,27.331,27.331,0,1,0,54.661,0A1.909,1.909,0,0,0,1712.245,228.5Zm-39.931,20.395c2.607-4.178,8.23-6.9,14.51-6.9s11.9,2.725,14.511,6.9a23.46,23.46,0,0,1-29.021,0Zm31.853-2.63c-3.442-4.925-10.063-8.094-17.343-8.094s-13.9,3.168-17.344,8.094a23.435,23.435,0,0,1-6.09-13.945h46.868A23.428,23.428,0,0,1,1704.167,246.261Z" transform="translate(-1647.479 -190.353)" fill="#00223d"/>
      </g>
    </g>
  </g>
</svg>
