<svg xmlns="http://www.w3.org/2000/svg" width="113" height="113" viewBox="0 0 113 113">
  <g id="Grupo_17498" data-name="Grupo 17498" transform="translate(-294 -2267)">
    <rect id="Rectángulo_4341" data-name="Rectángulo 4341" width="113" height="113" transform="translate(294 2267)" fill="none"/>
    <g id="Grupo_17228" data-name="Grupo 17228" transform="translate(-143.92 695.975)">
      <path id="Trazado_27159" data-name="Trazado 27159" d="M547.555,1650.115l-7.46-2.935h-26.48l-7.46,2.935a7.221,7.221,0,0,0-4.572,7.009l1,24.924h48.548l1-24.924A7.221,7.221,0,0,0,547.555,1650.115Z" transform="translate(-15.27 -17.191)" fill="#dbd9dc"/>
      <rect id="Rectángulo_4342" data-name="Rectángulo 4342" width="16.852" height="14.443" transform="translate(503.16 1620.323)" fill="#b48764"/>
      <path id="Trazado_27160" data-name="Trazado 27160" d="M531.4,1590.776a15.57,15.57,0,0,0-9.428,3.611s-5.015,0-5.015,6.018a44.967,44.967,0,0,0,1.2,9.592h27.684C548.253,1596.756,542.536,1590.174,531.4,1590.776Z" transform="translate(-19.816 -0.506)" fill="#5c414b"/>
      <path id="Trazado_27161" data-name="Trazado 27161" d="M524.18,1606.56c-4.422-5.528-2.206-10.642-2.206-10.642s-5.015,0-5.015,6.018a44.957,44.957,0,0,0,1.2,9.591h6.018Z" transform="translate(-19.816 -2.038)" fill="#503441"/>
      <path id="Trazado_27162" data-name="Trazado 27162" d="M544.137,1614.156h-1.2l-2.361-2.853c-10.832,2.257-16.509-2.422-16.509-2.422-.592,3.746-4.22,6.567-4.22,6.567l-2.227-1.293h0a2.348,2.348,0,0,0-.4.043,2.543,2.543,0,0,0-1.963,2.539v.872a2.528,2.528,0,0,0,1.925,2.514,2.368,2.368,0,0,0,.668.042,1.164,1.164,0,0,1,1.224.962,12.023,12.023,0,0,0,23.657.016,1.168,1.168,0,0,1,1.165-.971h.248a2.408,2.408,0,0,0,2.408-2.408v-1.2A2.408,2.408,0,0,0,544.137,1614.156Z" transform="translate(-19.311 -5.869)" fill="#c39772"/>
      <path id="Trazado_27163" data-name="Trazado 27163" d="M563.5,1660.776l5.237-5.237a7.19,7.19,0,0,1,1.069,4.056l-1,24.924h-7.423v-18.636A7.222,7.222,0,0,1,563.5,1660.776Z" transform="translate(-32.949 -19.661)" fill="#edebed"/>
      <path id="Trazado_27164" data-name="Trazado 27164" d="M538.1,1654.04h-4.839l-1.21,30.036h7.258Z" transform="translate(-24.278 -19.218)" fill="#5d5360"/>
      <path id="Trazado_27165" data-name="Trazado 27165" d="M538.763,1660.582l-.263-6.543h-4.839l-.263,6.543Z" transform="translate(-24.676 -19.218)" fill="#4b3f4e"/>
      <g id="Grupo_17225" data-name="Grupo 17225" transform="translate(498.346 1626.379)">
        <path id="Trazado_27166" data-name="Trazado 27166" d="M531.907,1650.479l-9.629-8.426-3.611,3.611,5.593,8.389a2.407,2.407,0,0,0,3.705.367Z" transform="translate(-518.667 -1642.054)" fill="#edebed"/>
        <path id="Trazado_27167" data-name="Trazado 27167" d="M537.463,1650.479l9.629-8.426,3.611,3.611-5.593,8.389a2.407,2.407,0,0,1-3.705.367Z" transform="translate(-524.223 -1642.054)" fill="#edebed"/>
      </g>
      <path id="Trazado_27168" data-name="Trazado 27168" d="M533.283,1631.369a12.04,12.04,0,0,1-9.609-11.791v-8.641a13.3,13.3,0,0,1-3.832,5.119l-2.227-1.293h0a2.345,2.345,0,0,0-.4.042,2.544,2.544,0,0,0-1.963,2.54v.871a2.529,2.529,0,0,0,1.924,2.515,2.411,2.411,0,0,0,.669.042,1.163,1.163,0,0,1,1.224.962,11.988,11.988,0,0,0,14.216,9.632Z" transform="translate(-19.311 -6.477)" fill="#b48764"/>
      <path id="Trazado_27169" data-name="Trazado 27169" d="M490.774,1660.214l-6.494-2.834H462.6l-6.494,2.834a7.221,7.221,0,0,0-4.326,6.924l.759,17.925h41.8l.76-17.925A7.222,7.222,0,0,0,490.774,1660.214Z" transform="translate(-0.548 -20.205)" fill="#5d5360"/>
      <rect id="Rectángulo_4343" data-name="Rectángulo 4343" width="12.036" height="12.036" transform="translate(466.874 1628.748)" fill="#fad7a5"/>
      <circle id="Elipse_1019" data-name="Elipse 1019" cx="7.222" cy="7.222" r="7.222" transform="translate(465.67 1590.232)" fill="#deaf73"/>
      <ellipse id="Elipse_1020" data-name="Elipse 1020" cx="14.443" cy="13.842" rx="14.443" ry="13.842" transform="translate(458.449 1596.25)" fill="#d59f63"/>
      <path id="Trazado_27170" data-name="Trazado 27170" d="M471.657,1616.64c-4.815-4.815-5.534-8.965-5.421-11.57a13.514,13.514,0,0,0-4.208,9.765,13.3,13.3,0,0,0,2.069,7.129Z" transform="translate(-3.579 -4.743)" fill="#cd915a"/>
      <path id="Trazado_27171" data-name="Trazado 27171" d="M489.69,1622.738a6.585,6.585,0,0,0-.69-.05,2.407,2.407,0,0,1-1.7-.705l-1.657-1.257a23.32,23.32,0,0,1-16.239-3.34c-.748,2.188-2.072,3.858-4.434,6.046l-2.282-.745h0a2.457,2.457,0,0,0-.4.043,2.545,2.545,0,0,0-1.96,2.539v.872a2.527,2.527,0,0,0,1.924,2.514,2.376,2.376,0,0,0,.671.042,1.163,1.163,0,0,1,1.224.962,12.022,12.022,0,0,0,23.653.032,1.18,1.18,0,0,1,1.23-.988,2.43,2.43,0,0,0,.783-.057,2.494,2.494,0,0,0,1.824-2.519c-.013-.546-.013-1.081-.013-1.081A2.512,2.512,0,0,0,489.69,1622.738Z" transform="translate(-3.074 -8.384)" fill="#ffe1b4"/>
      <g id="Grupo_17226" data-name="Grupo 17226" transform="translate(451.227 1641.589)">
        <path id="Trazado_27172" data-name="Trazado 27172" d="M458.248,1668.925l-4.4-5.278a7.206,7.206,0,0,0-2.068,5.344l.76,17.925H460.2v-12.6A8.428,8.428,0,0,0,458.248,1668.925Z" transform="translate(-451.775 -1663.647)" fill="#6f6571"/>
        <path id="Trazado_27173" data-name="Trazado 27173" d="M503.282,1668.925l4.4-5.278a7.205,7.205,0,0,1,2.068,5.344l-.76,17.925h-7.659v-12.6A8.428,8.428,0,0,1,503.282,1668.925Z" transform="translate(-466.423 -1663.647)" fill="#6f6571"/>
      </g>
      <path id="Trazado_27174" data-name="Trazado 27174" d="M468.744,1628.141v-8.6a17.379,17.379,0,0,1-3.776,4.525l-2.282-.745h0a2.38,2.38,0,0,0-.4.043,2.544,2.544,0,0,0-1.96,2.539v.872a2.529,2.529,0,0,0,1.924,2.514,2.376,2.376,0,0,0,.671.042,1.162,1.162,0,0,1,1.224.962,11.992,11.992,0,0,0,14.216,9.633A12.04,12.04,0,0,1,468.744,1628.141Z" transform="translate(-3.074 -9.022)" fill="#fad7a5"/>
      <g id="Grupo_17227" data-name="Grupo 17227" transform="translate(461.668 1633.406)">
        <path id="Trazado_27175" data-name="Trazado 27175" d="M477.485,1659.288l-7.258-7.258-3.629,3.629,4.476,7.265a1.21,1.21,0,0,0,1.815.285Z" transform="translate(-466.598 -1652.03)" fill="#6f6571"/>
        <path id="Trazado_27176" data-name="Trazado 27176" d="M482.054,1659.288l7.258-7.258,3.629,3.629-4.477,7.265a1.21,1.21,0,0,1-1.815.285Z" transform="translate(-471.167 -1652.03)" fill="#6f6571"/>
      </g>
      <path id="Trazado_27177" data-name="Trazado 27177" d="M524.452,1669.7h-4.839a1.293,1.293,0,1,0,0,2.586h4.839a1.293,1.293,0,1,0,0-2.586Z" transform="translate(-20.219 -23.847)" fill="#00223d"/>
      <path id="Trazado_27178" data-name="Trazado 27178" d="M548.682,1632.01l-7.041-2.716-3.59-3.59a1.289,1.289,0,0,0-.831-.375v-2.856a13.333,13.333,0,0,0,3.382-6.662,3.68,3.68,0,0,0,.907-.072,3.827,3.827,0,0,0,2.969-3.8V1611a3.873,3.873,0,0,0-1.139-2.75c1.142-6.21.2-11.271-2.732-14.657-2.837-3.276-7.408-4.842-13.218-4.528a17.317,17.317,0,0,0-9.931,3.664,6.818,6.818,0,0,0-2.661.9c-1.436.861-3.147,2.672-3.147,6.4a32.314,32.314,0,0,0,.9,7.511,3.833,3.833,0,0,0-2.106,3.47v.928a3.827,3.827,0,0,0,2.969,3.8,3.683,3.683,0,0,0,.907.072,13.339,13.339,0,0,0,3.382,6.662v2.856a1.289,1.289,0,0,0-.83.375l-3.59,3.59-7.041,2.716a8.507,8.507,0,0,0-1.729.905,1.293,1.293,0,1,0,1.453,2.139,5.977,5.977,0,0,1,1.207-.631l6.534-2.521,5,7.495a3.7,3.7,0,0,0,2.723,1.635c.123.012.247.018.37.018a3.688,3.688,0,0,0,1.819-.482l-1.072,24.32a1.293,1.293,0,0,0,1.235,1.349h.058a1.293,1.293,0,0,0,1.29-1.236l1-22.574H528.8l1,22.574a1.293,1.293,0,0,0,1.29,1.236h.058a1.294,1.294,0,0,0,1.236-1.349l-1.073-24.32a3.691,3.691,0,0,0,1.82.482c.123,0,.246-.006.37-.018a3.7,3.7,0,0,0,2.723-1.635l5-7.495,6.535,2.521a5.941,5.941,0,0,1,2.325,1.621l-4.47,4.47a8.5,8.5,0,0,0-2.5,6.047v18.384a1.293,1.293,0,1,0,2.586,0V1646.56a5.924,5.924,0,0,1,1.748-4.218l3.924-3.924a5.964,5.964,0,0,1,.206,1.808l-1,24.666a1.293,1.293,0,0,0,1.239,1.345h.054a1.294,1.294,0,0,0,1.291-1.24l1-24.667A8.549,8.549,0,0,0,548.682,1632.01Zm-21.222,1.358-7.175-6.278v-2.474a13.384,13.384,0,0,0,14.35,0v2.474Zm-13.23-20.142a1.092,1.092,0,0,1-.3-.021,1.253,1.253,0,0,1-.9-1.262v-.928a1.226,1.226,0,0,1,.912-1.23,1.125,1.125,0,0,1,1.107.424,1.8,1.8,0,0,0,2.478.389,9.4,9.4,0,0,0,2.12-2.073,1.293,1.293,0,1,0-2.075-1.543,6.875,6.875,0,0,1-1.007,1.088,3.7,3.7,0,0,0-1.4-.749,29.719,29.719,0,0,1-.923-7.287c0-1.981.611-3.372,1.815-4.135a4.193,4.193,0,0,1,1.933-.62,1.305,1.305,0,0,0,.892-.357,14.566,14.566,0,0,1,8.654-3.274c4.982-.268,8.829.989,11.123,3.638,2.313,2.67,3.083,6.771,2.247,11.9a5.594,5.594,0,0,0-1.1.077l-1.215-2.918a1.294,1.294,0,0,0-1.521-.754c-.12.031-12.06,3.058-17.067-3.175a1.293,1.293,0,1,0-2.016,1.619c5.113,6.366,15.257,4.981,18.634,4.305l.939,2.256a2.126,2.126,0,0,0,2.456,1.259,2.794,2.794,0,0,1,.967-.07,1.219,1.219,0,0,1,.917,1.213v.943a1.253,1.253,0,0,1-.9,1.262,1.064,1.064,0,0,1-.3.02,2.519,2.519,0,0,0-2.618,2.052,10.79,10.79,0,0,1-21.224,0A2.517,2.517,0,0,0,514.23,1613.226Zm7.447,25.232a1.113,1.113,0,0,1-.826-.5l-5.033-7.55,2.024-2.024,7.727,6.762-2.985,2.984A1.11,1.11,0,0,1,521.677,1638.458Zm4.555,1.383.078-1.777,1.15-1.15,1.15,1.15.078,1.777Zm7.838-1.879a1.126,1.126,0,0,1-1.734.171l-2.985-2.984,7.727-6.761,2.024,2.024Z" transform="translate(-15.969 0)" fill="#00223d"/>
      <path id="Trazado_27179" data-name="Trazado 27179" d="M490.924,1638.786l-6.314-2.756-3.452-3.451a1.282,1.282,0,0,0-.831-.375v-2.034a13.357,13.357,0,0,0,5.8-8.694,3.678,3.678,0,0,0,1.02-.1,3.848,3.848,0,0,0,2.856-3.77v-.943a3.857,3.857,0,0,0-1.657-3.18,14.633,14.633,0,0,0,.447-3.582,15.075,15.075,0,0,0-7.26-12.784,8.562,8.562,0,0,0-17.1,0,15.077,15.077,0,0,0-7.26,12.784,14.624,14.624,0,0,0,.444,3.572,3.864,3.864,0,0,0-1.654,3.2v.928a3.848,3.848,0,0,0,2.856,3.77,3.678,3.678,0,0,0,1.02.1,13.355,13.355,0,0,0,5.8,8.694v2.034a1.282,1.282,0,0,0-.831.375l-3.452,3.451-6.313,2.756a8.6,8.6,0,0,0-5.122,8.2l.764,18.014a1.293,1.293,0,0,0,1.29,1.238h.056a1.292,1.292,0,0,0,1.238-1.346l-.764-18.014a5.952,5.952,0,0,1,.819-3.256l3.394,4.072a7.187,7.187,0,0,1,1.663,4.593v12.66a1.293,1.293,0,0,0,2.586,0v-12.66a9.78,9.78,0,0,0-2.263-6.249l-3.607-4.329a5.864,5.864,0,0,1,.981-.551l5.5-2.4,3.888,6.312a2.5,2.5,0,0,0,3.756.591l2.464-2.1v21.391a1.293,1.293,0,1,0,2.586,0v-21.39l2.463,2.1a2.5,2.5,0,0,0,3.756-.591l3.888-6.312,5.5,2.4a5.862,5.862,0,0,1,.981.551l-3.607,4.329a9.78,9.78,0,0,0-2.263,6.249v12.66a1.293,1.293,0,0,0,2.586,0v-12.66a7.191,7.191,0,0,1,1.663-4.593l3.394-4.072a5.952,5.952,0,0,1,.819,3.256l-.764,18.014a1.294,1.294,0,0,0,1.238,1.347h.056a1.292,1.292,0,0,0,1.29-1.238l.764-18.014A8.6,8.6,0,0,0,490.924,1638.786Zm-17.937-47.175a5.923,5.923,0,0,1,5.758,4.133,16.4,16.4,0,0,0-11.516,0A5.923,5.923,0,0,1,472.987,1591.611Zm-10.612,29.331a2.518,2.518,0,0,0-2.618-2.052,1.112,1.112,0,0,1-.338-.029,1.263,1.263,0,0,1-.864-1.254v-.928a1.226,1.226,0,0,1,.912-1.23,1.124,1.124,0,0,1,1.106.424,1.8,1.8,0,0,0,2.478.389,9.373,9.373,0,0,0,2.093-2.036,1.293,1.293,0,1,0-2.067-1.552,6.889,6.889,0,0,1-.987,1.061,3.7,3.7,0,0,0-1.951-.859,12.065,12.065,0,0,1-.374-2.972c0-6.958,5.932-12.618,13.223-12.618s13.223,5.661,13.223,12.618a12.021,12.021,0,0,1-.373,2.966,5.886,5.886,0,0,0-1.006.166l-.972-.8a2.478,2.478,0,0,0-1.725-.566c-1.9.112-11.634.369-16.627-5.607a1.293,1.293,0,1,0-1.984,1.658c2.463,2.947,6.075,4.94,10.736,5.923a31.668,31.668,0,0,0,7.984.609l1.517,1.247a1.291,1.291,0,0,0,1.47.12,2.847,2.847,0,0,1,1.274-.17,1.22,1.22,0,0,1,.916,1.214v.943a1.263,1.263,0,0,1-.864,1.254,1.135,1.135,0,0,1-.338.029,2.52,2.52,0,0,0-2.618,2.052,10.79,10.79,0,0,1-21.224,0Zm10.612,11.424a13.351,13.351,0,0,0,4.755-.875v2.675l-4.755,4.755-4.755-4.755v-2.675A13.348,13.348,0,0,0,472.987,1632.366Zm-5.361,11.259-3.889-6.312,1.992-1.993,5.354,5.355Zm10.722,0-3.457-2.95,5.354-5.355,1.992,1.993Z" transform="translate(0 0)" fill="#00223d"/>
      <path id="Trazado_27180" data-name="Trazado 27180" d="M473.732,1677.794H470.1a1.293,1.293,0,1,0,0,2.586h3.629a1.293,1.293,0,0,0,0-2.586Z" transform="translate(-5.584 -26.24)" fill="#00223d"/>
    </g>
  </g>
</svg>
