<svg xmlns="http://www.w3.org/2000/svg" width="113" height="113" viewBox="0 0 113 113">
  <g id="Grupo_17253" data-name="Grupo 17253" transform="translate(-729 -2679)">
    <g id="Grupo_17247" data-name="Grupo 17247" transform="translate(1440.693 1308.043)">
      <path id="Trazado_27250" data-name="Trazado 27250" d="M-687.62,1458.3l4.25-5.986-5.746-5.985,5.985-5.986v43.394h8.979V1458.3h13.467v10.474h8.978v-13.467a5.985,5.985,0,0,0-5.985-5.986h-10.475v-10.474l20.949-14.964-4.489-5.986-19.452,13.467-4.489,8.978-4.489-8.978h-5.986l-9.666,10.744a5.985,5.985,0,0,0,.209,8.23Z" transform="translate(-0.888 -13.497)" fill="#63c8cd"/>
      <path id="Trazado_27251" data-name="Trazado 27251" d="M-660.824,1439.466H-669.8l4.489,8.978Z" transform="translate(-11.225 -21.596)" fill="#ef9f35"/>
      <circle id="Elipse_1021" data-name="Elipse 1021" cx="8.978" cy="8.978" r="8.978" transform="translate(-687.012 1399.914)" fill="#63c8cd"/>
      <path id="Trazado_27252" data-name="Trazado 27252" d="M-648.237,1499.37v14.964h29.927V1499.37h-29.927Z" transform="translate(-19.323 -44.091)" fill="#ef9f35"/>
      <path id="Trazado_27253" data-name="Trazado 27253" d="M-584.659,1389.217a11.971,11.971,0,0,1-8.395,8.394.434.434,0,0,0-.306.532.434.434,0,0,0,.306.306,11.971,11.971,0,0,1,8.395,8.395.434.434,0,0,0,.532.306.435.435,0,0,0,.306-.306,11.971,11.971,0,0,1,8.394-8.395.434.434,0,0,0,.306-.532.434.434,0,0,0-.306-.306,11.972,11.972,0,0,1-8.394-8.394.434.434,0,0,0-.532-.306A.434.434,0,0,0-584.659,1389.217Z" transform="translate(-39.925 -2.606)" fill="#f7d04f"/>
      <g id="Grupo_17246" data-name="Grupo 17246" transform="translate(-699.693 1381.957)">
        <path id="Trazado_27254" data-name="Trazado 27254" d="M-689.571,1455.753a1.5,1.5,0,0,0,1.182.434,1.5,1.5,0,0,0,1.107-.628l1.765-2.5v27.069a1.5,1.5,0,0,0,1.5,1.5h8.979a1.5,1.5,0,0,0,1.5-1.5v-23.942h10.474v7.482h-4.489a1.5,1.5,0,0,0-1.5,1.5v14.964a1.5,1.5,0,0,0,1.5,1.5h29.927a1.5,1.5,0,0,0,1.5-1.5v-14.964a1.5,1.5,0,0,0-1.5-1.5H-651.1V1451.7a7.482,7.482,0,0,0-7.481-7.482h-8.979V1436l20.321-14.515a1.5,1.5,0,0,0,.613-.988,1.5,1.5,0,0,0-.284-1.122l-4.489-5.986a1.5,1.5,0,0,0-2.05-.329l-15.337,10.609a10.475,10.475,0,0,0-4.341-14.163,10.475,10.475,0,0,0-14.163,4.341,10.474,10.474,0,0,0,1.94,12.41h-1.661a1.5,1.5,0,0,0-1.107.493l-9.666,10.744a7.482,7.482,0,0,0,.3,10.3Zm4.055-10.474-2.394-2.558,2.394-2.394Zm46.387,33.354h-26.934v-11.971h26.934Zm-35.344-49.38-2.065,4.13-2.065-4.13Zm-11.043-10.474a7.482,7.482,0,0,1,7.482-7.482,7.482,7.482,0,0,1,7.482,7.482,7.482,7.482,0,0,1-7.482,7.482A7.482,7.482,0,0,1-685.516,1418.778Zm-10.055,20.725,9.232-10.25h4.384l4.085,8.155a1.5,1.5,0,0,0,2.014.65,1.5,1.5,0,0,0,.649-.65l4.325-8.634,17.956-12.435,2.708,3.606-19.707,14.081a1.5,1.5,0,0,0-.628,1.212v10.474a1.5,1.5,0,0,0,1.5,1.5h10.475a4.489,4.489,0,0,1,4.489,4.489v11.971h-5.986v-8.978a1.5,1.5,0,0,0-1.5-1.5h-13.467a1.5,1.5,0,0,0-1.5,1.5v23.942h-5.985v-41.9a1.5,1.5,0,0,0-.928-1.377,1.5,1.5,0,0,0-1.631.315l-5.986,5.985a1.5,1.5,0,0,0,0,2.1l4.893,5.1-2.529,3.531-6.7-6.674a4.489,4.489,0,0,1-.164-6.21Z" transform="translate(699.693 -1391.843)" fill="#00223d"/>
        <path id="Trazado_27255" data-name="Trazado 27255" d="M-574.875,1393.928a10.475,10.475,0,0,1-10.474-10.474,1.5,1.5,0,0,0-1.5-1.5,1.5,1.5,0,0,0-1.5,1.5,10.475,10.475,0,0,1-10.475,10.474,1.5,1.5,0,0,0-1.5,1.5,1.5,1.5,0,0,0,1.5,1.5,10.475,10.475,0,0,1,10.475,10.475,1.5,1.5,0,0,0,1.5,1.5,1.5,1.5,0,0,0,1.5-1.5,10.475,10.475,0,0,1,10.474-10.475,1.5,1.5,0,0,0,1.5-1.5A1.5,1.5,0,0,0-574.875,1393.928Zm-11.971,7.3a13.59,13.59,0,0,0-5.806-5.806,13.587,13.587,0,0,0,5.806-5.806,13.584,13.584,0,0,0,5.806,5.806A13.587,13.587,0,0,0-586.846,1401.23Z" transform="translate(662.373 -1381.957)" fill="#00223d"/>
        <path id="Trazado_27256" data-name="Trazado 27256" d="M-625.689,1445.314l4.078-2.991,1.77,2.413-4.079,2.991Z" transform="translate(671.903 -1404.626)" fill="#00223d"/>
        <path id="Trazado_27257" data-name="Trazado 27257" d="M-613.694,1431.737l14.959-10.977,1.77,2.413-14.959,10.976Z" transform="translate(667.398 -1396.528)" fill="#00223d"/>
        <path id="Trazado_27258" data-name="Trazado 27258" d="M-613.628,1414.7l8.977-5.985,1.66,2.49-8.977,5.984Z" transform="translate(667.373 -1392.005)" fill="#00223d"/>
      </g>
    </g>
    <rect id="Rectángulo_4346" data-name="Rectángulo 4346" width="113" height="113" transform="translate(729 2679)" fill="none"/>
  </g>
</svg>
