<svg xmlns="http://www.w3.org/2000/svg" width="113" height="113" viewBox="0 0 113 113">
  <g id="Grupo_17255" data-name="Grupo 17255" transform="translate(-729 -2391)">
    <rect id="Rectángulo_4344" data-name="Rectángulo 4344" width="113" height="113" transform="translate(729 2391)" fill="none"/>
    <g id="Grupo_17244" data-name="Grupo 17244" transform="translate(838.546 827.019)">
      <g id="Grupo_17242" data-name="Grupo 17242" transform="translate(-95.417 1574.679)">
        <g id="Grupo_17241" data-name="Grupo 17241" transform="translate(0)">
          <path id="Trazado_27220" data-name="Trazado 27220" d="M-27.659,1635.455h-9.979v7.471a2.6,2.6,0,0,0,2.6,2.6h4.781a2.6,2.6,0,0,0,2.6-2.6Z" transform="translate(75.063 -1595.566)" fill="#a59ca6"/>
          <path id="Trazado_27221" data-name="Trazado 27221" d="M-28.314,1643.982H-33.1a2.6,2.6,0,0,1-2.6-2.6v-.648a1.007,1.007,0,0,1,1.008-1.007h7.028v-4.274h-9.979v7.471a2.6,2.6,0,0,0,2.6,2.6h4.781a2.6,2.6,0,0,0,2.393-1.584,2.661,2.661,0,0,1-.45.041Z" transform="translate(75.063 -1595.566)" fill="#8f8390"/>
          <path id="Trazado_27222" data-name="Trazado 27222" d="M-2.742,1660.585l7.938-6.691a3.84,3.84,0,0,0,.45-5.432,3.889,3.889,0,0,0-5.461-.449l-16.5,13.907-6.209,5.38,8.691,3.417Z" transform="translate(69.927 -1599.522)" fill="#ffe0d1"/>
          <path id="Trazado_27223" data-name="Trazado 27223" d="M-19.753,1668.106l6.209-5.38,16.5-13.906a3.87,3.87,0,0,1,2.133-.893,3.9,3.9,0,0,0-4.9.089l-16.5,13.906-6.209,5.38,8.691,3.417.218-.2Z" transform="translate(69.927 -1599.523)" fill="#ffd1c2"/>
          <path id="Trazado_27224" data-name="Trazado 27224" d="M-18.913,1660.51l12.524-10.474a3.817,3.817,0,0,0,.17-5.168,3.942,3.942,0,0,0-5.5-.448l-11.16,9.332-8.324,6.448,4.962,6.3Z" transform="translate(72.877 -1598.301)" fill="#ffe0d1"/>
          <path id="Trazado_27225" data-name="Trazado 27225" d="M-28.394,1661.5l8.324-6.448,11.16-9.333a3.928,3.928,0,0,1,2.637-.91,3.944,3.944,0,0,0-5.45-.386l-11.159,9.332-8.324,6.448,4.962,6.3,1.091-.891Z" transform="translate(72.877 -1598.302)" fill="#ffd1c2"/>
          <path id="Trazado_27226" data-name="Trazado 27226" d="M-21.86,1591.975A16.937,16.937,0,0,0-38.8,1575.038a16.937,16.937,0,0,0-16.937,16.937,16.859,16.859,0,0,0,3.085,9.748l8.15,12.688v1.65a1.881,1.881,0,0,0,1.881,1.881h7.643a1.881,1.881,0,0,0,1.881-1.881v-1.65l8.15-12.688A16.855,16.855,0,0,0-21.86,1591.975Z" transform="translate(81.211 -1575.038)" fill="#fbe88c"/>
          <path id="Trazado_27227" data-name="Trazado 27227" d="M-45.506,1603.884a18.648,18.648,0,0,1-3.226-10.537,18.189,18.189,0,0,1,13.809-17.863,16.951,16.951,0,0,0-3.874-.446,16.937,16.937,0,0,0-16.937,16.937,16.859,16.859,0,0,0,3.085,9.748l8.15,12.688v1.65a1.881,1.881,0,0,0,1.881,1.881h4.84Z" transform="translate(81.211 -1575.038)" fill="#fbe372"/>
          <g id="Grupo_17239" data-name="Grupo 17239" transform="translate(0 49.96)">
            <g id="Grupo_17238" data-name="Grupo 17238">
              <g id="Grupo_17237" data-name="Grupo 17237">
                <path id="Trazado_27228" data-name="Trazado 27228" d="M-42.273,1663.113l.309.035h11.815a3.8,3.8,0,0,0,2.459-.9l12.536-10.624a3.84,3.84,0,0,1,2.488-.913,3.849,3.849,0,0,1,2.942,1.361,3.853,3.853,0,0,1-.448,5.432l-19.788,16.771a13.687,13.687,0,0,1-7.212,3.145l-22.1,2.658-8.576,10.269a1.137,1.137,0,0,1-1.218.354l-24.469-7.827a1.136,1.136,0,0,1-.544-1.787l9.445-11.921.7-1.484a20.819,20.819,0,0,1,18.811-11.9H-46.4a4.816,4.816,0,0,1,3.413,1.414,4.814,4.814,0,0,1,1.413,3.413,4.809,4.809,0,0,1-.7,2.5Z" transform="translate(94.322 -1650.709)" fill="#ffe0d1"/>
              </g>
              <path id="Trazado_27229" data-name="Trazado 27229" d="M1.056,1650.709a3.84,3.84,0,0,0-2.488.913l-12.536,10.624a3.8,3.8,0,0,1-2.459.9H-28.242l-.309-.035a4.8,4.8,0,0,0,.246-.465H-53.937v.926a4.569,4.569,0,0,0,4.569,4.57h16.693a7.58,7.58,0,0,0,5.5-2.4,1.671,1.671,0,0,1,1.219-.528h10.772a3.93,3.93,0,0,0,2.587-.978L.6,1652.723a3.967,3.967,0,0,1,2.618-.99,3.91,3.91,0,0,1,.495.032,3.848,3.848,0,0,0-2.653-1.056Z" transform="translate(80.6 -1650.709)" fill="#ffd1c2"/>
              <path id="Trazado_27230" data-name="Trazado 27230" d="M-29.191,1663.219a4.809,4.809,0,0,1-.7,2.5,4.824,4.824,0,0,1-4.232,2.321H-57.712l-.166-9.008a20.9,20.9,0,0,1,5.145-.644h18.716a4.817,4.817,0,0,1,3.413,1.414,4.814,4.814,0,0,1,1.413,3.413Z" transform="translate(81.939 -1653.32)" fill="#ffe0d1"/>
            </g>
          </g>
          <g id="Grupo_17240" data-name="Grupo 17240" transform="translate(0 55.033)">
            <path id="Trazado_27231" data-name="Trazado 27231" d="M-81.94,1675.607l.7-1.484a20.822,20.822,0,0,1,18.812-11.9H-43.71a4.822,4.822,0,0,1,2.112.485,4.821,4.821,0,0,0-1.388-2.906,4.817,4.817,0,0,0-3.413-1.414H-65.116a20.819,20.819,0,0,0-18.811,11.9l-.7,1.484-9.445,11.921a1.136,1.136,0,0,0,.544,1.787l3.006.961Z" transform="translate(94.322 -1658.392)" fill="#ffd1c2"/>
          </g>
        </g>
      </g>
      <g id="Grupo_17243" data-name="Grupo 17243" transform="translate(-97.546 1573.981)">
        <path id="Trazado_27232" data-name="Trazado 27232" d="M-81.316,1665.155a22.065,22.065,0,0,0-4.931,6.728l-.637,1.344-10.368,13.088a1.355,1.355,0,0,0,.221,1.9,1.349,1.349,0,0,0,.84.293,1.354,1.354,0,0,0,1.064-.514l10.464-13.209a1.34,1.34,0,0,0,.162-.26l.7-1.484a19.357,19.357,0,0,1,4.328-5.906,1.356,1.356,0,0,0,.069-1.916,1.355,1.355,0,0,0-1.915-.069Z" transform="translate(97.546 -1604.836)" fill="#00223d"/>
        <path id="Trazado_27233" data-name="Trazado 27233" d="M.79,1648.051a5.214,5.214,0,0,0-7.342-.606l-.7.594a5.168,5.168,0,0,0-1.136-2.369,5.215,5.215,0,0,0-7.342-.606l-.622.527a5.207,5.207,0,0,0-1.128-2.294,5.215,5.215,0,0,0-7.342-.606l-10.418,8.828a6.17,6.17,0,0,0-1.681-.234H-55.638a22.272,22.272,0,0,0-10.044,2.408,1.355,1.355,0,0,0-.594,1.822,1.355,1.355,0,0,0,1.822.594,19.545,19.545,0,0,1,8.816-2.114H-36.92a3.474,3.474,0,0,1,3.47,3.471,3.446,3.446,0,0,1-1.044,2.481,3.457,3.457,0,0,1-2.5.988h-12.11a1.355,1.355,0,0,0-1.355,1.355,1.355,1.355,0,0,0,1.355,1.355h12.191a6.128,6.128,0,0,0,4.316-1.762,6.275,6.275,0,0,0,.478-.525h11.452a5.163,5.163,0,0,0,3.335-1.223L-4.8,1649.512a2.5,2.5,0,0,1,3.522.291,2.5,2.5,0,0,1-.291,3.522L-21.356,1670.1a12.3,12.3,0,0,1-6.5,2.834l-2.442.294a1.355,1.355,0,0,0-1.184,1.507,1.355,1.355,0,0,0,1.344,1.194,1.381,1.381,0,0,0,.164-.01l2.441-.294a15,15,0,0,0,7.926-3.458L.184,1655.392a5.215,5.215,0,0,0,.606-7.342Zm-23.86-3.293a2.5,2.5,0,0,1,3.522.29,2.488,2.488,0,0,1-.066,3.306l-11.134,9.436c.006-.108.009-.217.009-.325a6.165,6.165,0,0,0-1.98-4.529Zm-4.5,13.891,13.59-11.517a2.5,2.5,0,0,1,3.522.29,2.5,2.5,0,0,1-.291,3.522l-8.339,7.125a2.45,2.45,0,0,1-1.583.58Z" transform="translate(86.972 -1596.907)" fill="#00223d"/>
        <path id="Trazado_27234" data-name="Trazado 27234" d="M-32.856,1690.615l-13.9,1.672a1.358,1.358,0,0,0-.878.477l-9.066,10.854a1.355,1.355,0,0,0,.171,1.909,1.349,1.349,0,0,0,.868.316,1.354,1.354,0,0,0,1.041-.487l8.722-10.442,13.364-1.608a1.356,1.356,0,0,0,1.184-1.507,1.357,1.357,0,0,0-1.508-1.184Z" transform="translate(83.774 -1613.606)" fill="#00223d"/>
        <path id="Trazado_27235" data-name="Trazado 27235" d="M-43.518,1612.762s-7.921-12.33-7.932-12.345A15.064,15.064,0,0,1-54.025,1594a1.355,1.355,0,0,0-1.541-1.14,1.355,1.355,0,0,0-1.14,1.541,17.777,17.777,0,0,0,3.023,7.554l7.669,11.938v1.977a2.391,2.391,0,0,0,.537,1.511v4.659a3.958,3.958,0,0,0,3.954,3.954h4.781a3.959,3.959,0,0,0,3.954-3.954v-4.659a2.391,2.391,0,0,0,.537-1.511v-1.977l7.669-11.938a17.66,17.66,0,0,0,3.221-10.2,17.776,17.776,0,0,0-7.756-14.683,18.117,18.117,0,0,0-17.05-1.729,16.528,16.528,0,0,0-9.336,9.274,20.325,20.325,0,0,0-1.045,3.538,1.355,1.355,0,0,0,1.068,1.592,1.354,1.354,0,0,0,1.592-1.068,17.506,17.506,0,0,1,.906-3.063,13.807,13.807,0,0,1,7.8-7.747,15.444,15.444,0,0,1,14.536,1.442,15.068,15.068,0,0,1,6.575,12.445,14.962,14.962,0,0,1-2.743,8.666c-.011.016-7.932,12.345-7.932,12.345a1.362,1.362,0,0,0-.215.733v2.066h-.331l.772-13.1h1.292a3.774,3.774,0,0,0,3.77-3.77v-.15a3.774,3.774,0,0,0-3.77-3.77,3.774,3.774,0,0,0-3.763,3.549l-.084,1.431h-4.1l-.084-1.431a3.774,3.774,0,0,0-3.764-3.549,3.775,3.775,0,0,0-3.77,3.77v.15a3.774,3.774,0,0,0,3.77,3.77h1.293l.772,13.1H-43.3V1613.5a1.361,1.361,0,0,0-.215-.733Zm9.233-14.284a1.061,1.061,0,0,1,1.058-1,1.061,1.061,0,0,1,1.059,1.06v.15a1.061,1.061,0,0,1-1.059,1.059H-34.36Zm-10.739,1.271a1.06,1.06,0,0,1-1.059-1.059v-.15a1.06,1.06,0,0,1,1.059-1.059,1.06,1.06,0,0,1,1.058,1l.075,1.272h-1.133Zm9.526,22.29a1.245,1.245,0,0,1-1.244,1.244h-4.781a1.245,1.245,0,0,1-1.243-1.244v-3.766H-35.5Zm-5.519-19.579h3.782l-.772,13.1h-2.237Z" transform="translate(83.675 -1573.981)" fill="#00223d"/>
        <path id="Trazado_27236" data-name="Trazado 27236" d="M5.472,1602.426a1.355,1.355,0,0,0,1.355,1.356h3.195a1.355,1.355,0,0,0,0-2.711H6.827A1.355,1.355,0,0,0,5.472,1602.426Z" transform="translate(62.544 -1583.185)" fill="#00223d"/>
        <path id="Trazado_27237" data-name="Trazado 27237" d="M3.58,1590.3a1.353,1.353,0,0,0,.471-.085l3-1.11a1.355,1.355,0,1,0-.941-2.542l-3,1.11a1.356,1.356,0,0,0,.471,2.627Z" transform="translate(63.647 -1578.228)" fill="#00223d"/>
        <path id="Trazado_27238" data-name="Trazado 27238" d="M3.11,1616.6l3,1.11a1.355,1.355,0,1,0,.941-2.542l-3-1.11a1.355,1.355,0,1,0-.941,2.542Z" transform="translate(63.647 -1587.571)" fill="#00223d"/>
        <path id="Trazado_27239" data-name="Trazado 27239" d="M-73.223,1603.782h3.195a1.355,1.355,0,0,0,1.355-1.356,1.355,1.355,0,0,0-1.355-1.355h-3.195a1.355,1.355,0,0,0-1.355,1.355A1.355,1.355,0,0,0-73.223,1603.782Z" transform="translate(89.742 -1583.185)" fill="#00223d"/>
        <path id="Trazado_27240" data-name="Trazado 27240" d="M-70.145,1589.109l3,1.111a1.356,1.356,0,0,0,.471.085,1.356,1.356,0,0,0,1.271-.885,1.355,1.355,0,0,0-.8-1.742l-3-1.11a1.356,1.356,0,0,0-1.742.8A1.356,1.356,0,0,0-70.145,1589.109Z" transform="translate(88.537 -1578.229)" fill="#00223d"/>
        <path id="Trazado_27241" data-name="Trazado 27241" d="M-65.408,1614.863a1.355,1.355,0,0,0-1.742-.8l-3,1.11a1.355,1.355,0,0,0-.8,1.742,1.355,1.355,0,0,0,1.271.885,1.358,1.358,0,0,0,.471-.085l3-1.11a1.355,1.355,0,0,0,.8-1.742Z" transform="translate(88.537 -1587.571)" fill="#00223d"/>
      </g>
    </g>
  </g>
</svg>
