<svg xmlns="http://www.w3.org/2000/svg" width="113" height="113" viewBox="0 0 113 113">
  <g id="Grupo_17336" data-name="Grupo 17336" transform="translate(-378 -5669)">
    <g id="Grupo_17332" data-name="Grupo 17332" transform="translate(0 257)">
      <rect id="Rectángulo_4354" data-name="Rectángulo 4354" width="113" height="113" transform="translate(378 5412)" fill="none"/>
    </g>
    <g id="Grupo_17317" data-name="Grupo 17317" transform="translate(396 5686)">
      <path id="Trazado_27460" data-name="Trazado 27460" d="M115.82,1306.1l-9.331,18.662H125.15Z" transform="translate(-49.339 -1246.307)" fill="#ff4c3b"/>
      <path id="Trazado_27461" data-name="Trazado 27461" d="M117.818,1286.587l-18.661-33.979,18.661-38.644,2.333,2.333,2.333-2.333v77.288Z" transform="translate(-46.672 -1212.797)" fill="#ff6c4a"/>
      <path id="Trazado_27462" data-name="Trazado 27462" d="M120.484,1213.964l-2.332,2.333-2.333-2.333-9.331,33.978,9.331,33.979,4.665,4.665Z" transform="translate(-49.339 -1212.797)" fill="#ff8c59"/>
      <path id="Trazado_27463" data-name="Trazado 27463" d="M105.487,1216.3l-2.333-2.333-2.333,2.333-2.333-2.333-14,38.644,14,38.645,9.331-9.331v-67.958Z" transform="translate(-41.339 -1212.797)" fill="#ffa951"/>
      <path id="Trazado_27464" data-name="Trazado 27464" d="M80.157,1216.3l-2.333-2.333-2.333,2.333-2.333-2.333-2.333,2.333-2.333-2.333-2.333,2.333-2.333-2.333L61.5,1216.3l-2.333-2.333L56.83,1216.3l-2.333-2.333-2.332,2.333-2.333-2.333L47.5,1216.3l-2.333-2.333-2.333,2.333-2.333-2.333v67.958l18.661,9.331H82.49v-77.288Z" transform="translate(-25.34 -1212.797)" fill="#ffcd79"/>
      <path id="Trazado_27465" data-name="Trazado 27465" d="M60.761,1251.786l-6.264-7.83v-4.665l-14-7,14,65.625h4.665a4.665,4.665,0,0,0,4.665-4.665V1260.53A14,14,0,0,0,60.761,1251.786Z" transform="translate(-25.34 -1219.464)" fill="#fff1a0"/>
      <path id="Trazado_27466" data-name="Trazado 27466" d="M44.256,1248.622l-1.4-1.751a4.663,4.663,0,0,1-1.022-2.914v-11.663l-14,7v4.665l-6.264,7.83a14,14,0,0,0-3.067,8.743v32.724a4.666,4.666,0,0,0,4.665,4.665H46.5a4.665,4.665,0,0,0,4.665-4.665Z" transform="translate(-17.34 -1219.464)" fill="#fff9d6"/>
      <path id="Trazado_27467" data-name="Trazado 27467" d="M57.164,1232.294h-9.33l4.665,7h4.665Z" transform="translate(-28.006 -1219.464)" fill="#54d8ff"/>
      <path id="Trazado_27468" data-name="Trazado 27468" d="M33.17,1232.294h14v7h-14Z" transform="translate(-22.673 -1219.464)" fill="#8de5ff"/>
      <path id="Trazado_27469" data-name="Trazado 27469" d="M59.831,1228.628H55.166v4.665h4.665a2.332,2.332,0,1,0,0-4.665Z" transform="translate(-30.673 -1218.131)" fill="#ff4c3b"/>
      <path id="Trazado_27470" data-name="Trazado 27470" d="M48.165,1230.961a2.333,2.333,0,0,0-2.333-2.333h-14a2.332,2.332,0,1,0,0,4.665h14A2.333,2.333,0,0,0,48.165,1230.961Z" transform="translate(-21.34 -1218.131)" fill="#ff6c4a"/>
      <path id="Trazado_27471" data-name="Trazado 27471" d="M46.922,1257.955H32.746l-4.863,6.079a9.366,9.366,0,0,0-2.044,5.829v32.724H53.83v-32.724a9.366,9.366,0,0,0-2.044-5.829Z" transform="translate(-20.006 -1228.797)" fill="#fff"/>
      <path id="Trazado_27472" data-name="Trazado 27472" d="M92.93,1212.219a1.167,1.167,0,0,0-1.271.253l-1.508,1.508-1.507-1.508a1.167,1.167,0,0,0-1.65,0l-1.507,1.508-1.508-1.508a1.166,1.166,0,0,0-1.649,0l-1.508,1.508-1.508-1.508a1.166,1.166,0,0,0-1.649,0l-1.508,1.508-1.508-1.508a1.166,1.166,0,0,0-1.649,0l-1.508,1.508-1.508-1.508a1.166,1.166,0,0,0-1.649,0l-1.508,1.508-1.508-1.508a1.166,1.166,0,0,0-1.649,0l-1.508,1.508-1.508-1.508a1.166,1.166,0,0,0-1.649,0l-1.508,1.508-1.508-1.508a1.166,1.166,0,0,0-1.649,0l-1.508,1.508-1.508-1.508a1.166,1.166,0,0,0-1.649,0l-1.508,1.508-1.507-1.508a1.166,1.166,0,0,0-1.649,0L43.5,1213.98l-1.508-1.508a1.166,1.166,0,0,0-1.649,0l-1.508,1.508-1.508-1.508a1.166,1.166,0,0,0-1.649,0l-1.508,1.508-1.508-1.508a1.166,1.166,0,0,0-1.991.825v8.164h-3.5a3.5,3.5,0,0,0-1.166,6.8v7.955L20,1243.724a15.214,15.214,0,0,0-3.323,9.472v32.723a5.838,5.838,0,0,0,5.832,5.832H92.484a1.166,1.166,0,0,0,1.166-1.166V1213.3a1.167,1.167,0,0,0-.72-1.078Zm-6.619,4.235,1.507-1.508,1.508,1.508a1.166,1.166,0,0,0,1.649,0l.342-.342v71.657l-7-7v-64.659l.341.342a1.167,1.167,0,0,0,1.65,0Zm-3.157,66.45,6.514,6.515H76.639Zm-6.173-66.45,1.508-1.508L80,1216.454a1.166,1.166,0,0,0,1.649,0l.342-.342v64.659l-7,7v-71.656l.342.342a1.166,1.166,0,0,0,1.649,0ZM33,1216.113l.342.342a1.166,1.166,0,0,0,1.649,0l1.508-1.508,1.508,1.508a1.166,1.166,0,0,0,1.649,0l1.508-1.508,1.508,1.508a1.166,1.166,0,0,0,1.649,0l1.507-1.508,1.508,1.508a1.166,1.166,0,0,0,1.649,0l1.508-1.508L52,1216.454a1.166,1.166,0,0,0,1.649,0l1.508-1.508,1.508,1.508a1.166,1.166,0,0,0,1.649,0l1.508-1.508,1.508,1.508a1.166,1.166,0,0,0,1.649,0l1.508-1.508L66,1216.454a1.166,1.166,0,0,0,1.649,0l1.508-1.508,1.508,1.508a1.166,1.166,0,0,0,1.649,0l.342-.342v73.306h-17.5a5.8,5.8,0,0,0,1.17-3.5V1253.2a15.218,15.218,0,0,0-3.322-9.472L47,1236.214v-7.955a3.5,3.5,0,0,0-1.166-6.8H33Zm-5.832,7.682H45.831a1.166,1.166,0,1,1,0,2.332h-14a1.166,1.166,0,1,0,0,2.333h12.83v2.333H28.336v-3.5a1.167,1.167,0,0,0-1.166-1.166,1.166,1.166,0,1,1,0-2.332ZM22.5,1289.419a3.5,3.5,0,0,1-3.5-3.5V1253.2a12.877,12.877,0,0,1,2.811-8.015l6.264-7.83a1.166,1.166,0,0,0,.256-.728v-3.5H44.665v3.5a1.166,1.166,0,0,0,.255.728l6.264,7.83A12.878,12.878,0,0,1,54,1253.2v32.723a3.5,3.5,0,0,1-3.5,3.5Z" transform="translate(-16.673 -1212.131)" fill="#00223d"/>
      <path id="Trazado_27473" data-name="Trazado 27473" d="M47.166,1256.56a1.167,1.167,0,0,0-.911-.438H32.079a1.168,1.168,0,0,0-.911.438l-4.863,6.079A10.535,10.535,0,0,0,24,1269.2v32.724a1.167,1.167,0,0,0,1.166,1.166H53.163a1.166,1.166,0,0,0,1.166-1.166V1269.2a10.532,10.532,0,0,0-2.3-6.557ZM52,1300.753H26.338V1269.2a8.192,8.192,0,0,1,1.789-5.1l4.513-5.641H45.7l4.513,5.641A8.194,8.194,0,0,1,52,1269.2v31.558Z" transform="translate(-19.34 -1228.13)" fill="#00223d"/>
    </g>
  </g>
</svg>
