<svg xmlns="http://www.w3.org/2000/svg" width="113" height="113" viewBox="0 0 113 113">
  <g id="Grupo_17550" data-name="Grupo 17550" transform="translate(-715 3797)">
    <rect id="Rectángulo_4374" data-name="Rectángulo 4374" width="113" height="113" transform="translate(715 -3797)" fill="none"/>
    <g id="Grupo_17549" data-name="Grupo 17549" transform="translate(-914.742 -3826.876)">
      <path id="Trazado_27950" data-name="Trazado 27950" d="M1685.671,82.959h11.717v8.788h-11.717Z" transform="translate(-5.086 -8.515)" fill="#f9d264"/>
      <path id="Trazado_27951" data-name="Trazado 27951" d="M1685.672,82.96h3.772v8.788h-3.772Z" transform="translate(-5.087 -8.516)" fill="#efc356"/>
      <path id="Trazado_27952" data-name="Trazado 27952" d="M1706.378,68.915l-11.718,5.859h-11.718l-11.717-5.859V39.621h35.153Z" transform="translate(-2.358 -0.33)" fill="#9bd8f9"/>
      <path id="Trazado_27953" data-name="Trazado 27953" d="M1686.715,74.774h-3.772l-11.719-5.86V39.62H1675V68.914Z" transform="translate(-2.358 -0.329)" fill="#73c3f9"/>
      <circle id="Elipse_1074" data-name="Elipse 1074" cx="26.409" cy="26.409" r="26.409" transform="translate(1660.034 80.265)" fill="#fff292"/>
      <path id="Trazado_27954" data-name="Trazado 27954" d="M1669.766,116.545a26.454,26.454,0,0,1,21.694-25.987,26.409,26.409,0,1,0,0,51.976,26.454,26.454,0,0,1-21.694-25.988Z" transform="translate(-0.301 -9.871)" fill="#f9e77d"/>
      <circle id="Elipse_1075" data-name="Elipse 1075" cx="20.506" cy="20.506" r="20.506" transform="translate(1665.938 86.169)" fill="#f9d264"/>
      <path id="Trazado_27955" data-name="Trazado 27955" d="M1678.193,136.463a26.364,26.364,0,0,1,0-35.894,20.514,20.514,0,0,0,0,35.894Z" transform="translate(-1.676 -11.842)" fill="#efc356"/>
      <g id="Grupo_17547" data-name="Grupo 17547" transform="translate(1674.727 94.957)">
        <path id="Trazado_27956" data-name="Trazado 27956" d="M1691.447,109.045l2.514,5.1a1.429,1.429,0,0,0,1.075.781l5.624.817a1.428,1.428,0,0,1,.792,2.435l-4.069,3.966a1.426,1.426,0,0,0-.41,1.264l.96,5.6a1.427,1.427,0,0,1-2.071,1.5l-5.03-2.644a1.425,1.425,0,0,0-1.329,0l-5.03,2.644a1.428,1.428,0,0,1-2.072-1.5l.96-5.6a1.426,1.426,0,0,0-.41-1.264l-4.069-3.966a1.428,1.428,0,0,1,.792-2.435l5.623-.817a1.429,1.429,0,0,0,1.075-.781l2.515-5.1A1.427,1.427,0,0,1,1691.447,109.045Z" transform="translate(-1678.449 -108.249)" fill="#fff292"/>
      </g>
      <path id="Trazado_27957" data-name="Trazado 27957" d="M1685.671,39.621h11.718V74.773h-11.718Z" transform="translate(-5.086 -0.33)" fill="#f25a74"/>
      <path id="Trazado_27958" data-name="Trazado 27958" d="M1685.672,39.62h3.772V74.774h-3.772Z" transform="translate(-5.087 -0.329)" fill="#e83d5a"/>
      <g id="Grupo_17548" data-name="Grupo 17548" transform="translate(1658.742 37.876)">
        <path id="Trazado_27959" data-name="Trazado 27959" d="M1700.494,113.933l-5.633-.824-2.514-5.1c-1.135-2.552-3.869-2.552-5.1,0l-2.524,5.1-5.624.817c-2.59.259-3.5,3-1.575,4.847l4.073,3.979-.96,5.6a2.885,2.885,0,0,0,4.124,3l5.042-2.644,5.03,2.644c2.414,1.171,4.584-.243,4.124-3l-.957-5.612,4.069-3.966c1.5-1.438.931-4.589-1.575-4.848Zm-.4,2.822-4.069,3.966a2.84,2.84,0,0,0-.817,2.515l.964,5.6s-.016.013-.023.01l-5.03-2.644a2.84,2.84,0,0,0-2.645,0l-5.032,2.649c-.006,0-.017-.009-.016-.019l.96-5.6a2.841,2.841,0,0,0-.818-2.515l-4.074-3.967c0-.006,0-.019.012-.021l5.624-.818a2.843,2.843,0,0,0,2.141-1.554l2.514-5.1c.006,0,.019,0,.018-.006l.007.011,2.514,5.1a2.842,2.842,0,0,0,2.14,1.555l5.628.814a.02.02,0,0,1,0,.024Z" transform="translate(-1662.095 -50.762)" fill="#00223d"/>
        <path id="Trazado_27960" data-name="Trazado 27960" d="M1693.717,79.817v-4.5l10.936-5.469a1.414,1.414,0,0,0,.783-1.265V57a1.415,1.415,0,1,0-2.829,0V67.711l-8.889,4.445V40.706h8.889V50.83a1.415,1.415,0,1,0,2.829,0V39.291a1.415,1.415,0,0,0-1.415-1.415h-35.155a1.415,1.415,0,0,0-1.415,1.415V68.585a1.414,1.414,0,0,0,.782,1.265l10.937,5.469v4.5a28.4,28.4,0,0,0-20.422,24.175,1.415,1.415,0,0,0,2.816.271,24.985,24.985,0,1,1,.118,5.838,1.414,1.414,0,1,0-2.8.386,27.825,27.825,0,1,0,34.837-30.671ZM1682,73.029V40.706h8.889V73.029Zm-11.718-32.323h8.889V72.155l-8.889-4.445ZM1682,79.207V75.859h8.887v3.348a27.875,27.875,0,0,0-8.887,0Z" transform="translate(-1658.742 -37.876)" fill="#00223d"/>
        <path id="Trazado_27961" data-name="Trazado 27961" d="M1684.435,95.978a21.924,21.924,0,1,0,6.587-.018,1.414,1.414,0,1,0-.414,2.8,19.091,19.091,0,1,1-5.744.016,1.415,1.415,0,0,0-.429-2.8Z" transform="translate(-1660.088 -48.844)" fill="#00223d"/>
      </g>
    </g>
  </g>
</svg>
