<svg xmlns="http://www.w3.org/2000/svg" width="350.596" height="310.719" viewBox="0 0 350.596 310.719">
  <g id="Grupo_17839" data-name="Grupo 17839" transform="translate(-272.413 2695.82)">
    <path id="Trazado_28451" data-name="Trazado 28451" d="M6.4,16.148a5.874,5.874,0,0,1-2.145-.387,5.111,5.111,0,0,1-1.727-1.094,4.93,4.93,0,0,1-1.148-1.773,6.425,6.425,0,0,1-.418-2.363,6.144,6.144,0,0,1,.727-3.039A4.881,4.881,0,0,1,3.648,5.52a5.765,5.765,0,0,1,2.789-.668,5.72,5.72,0,0,1,2.742.656,4.754,4.754,0,0,1,1.93,1.906l-1.234.664A3.516,3.516,0,0,0,8.453,6.629a4.152,4.152,0,0,0-2.016-.488,4.374,4.374,0,0,0-1.6.289A3.628,3.628,0,0,0,2.68,8.641a5.3,5.3,0,0,0-.312,1.867,5.27,5.27,0,0,0,.309,1.852,3.787,3.787,0,0,0,.859,1.379,3.734,3.734,0,0,0,1.3.844,4.48,4.48,0,0,0,1.637.293A3.749,3.749,0,0,0,9,14.02a3.594,3.594,0,0,0,1.184-2.441H6.469V10.391h5.078V16H10.4V13.938a3.851,3.851,0,0,1-1.574,1.637A4.893,4.893,0,0,1,6.4,16.148ZM15.43,9.672a2.322,2.322,0,0,1,.953-1.031,2.87,2.87,0,0,1,1.477-.406V9.508a2.53,2.53,0,0,0-1.785.57,2.382,2.382,0,0,0-.613,1.82V16H14.109V8.32h1.32Zm6.25-2.68,1.961-2.547.719.523-1.75,2.023Zm-.555,9.156a2.613,2.613,0,0,1-1.684-.527,1.894,1.894,0,0,1-.66-1.574,2.237,2.237,0,0,1,.211-1,1.77,1.77,0,0,1,.625-.7,3.749,3.749,0,0,1,.9-.434,8.341,8.341,0,0,1,1.168-.277l1.242-.2q.68-.125.68-.711a1.342,1.342,0,0,0-.48-1.145,1.958,1.958,0,0,0-1.215-.363,1.994,1.994,0,0,0-1.2.352,1.471,1.471,0,0,0-.57,1.078l-1.219-.258a2.346,2.346,0,0,1,.961-1.645,3.59,3.59,0,0,1,2.094-.551,4.247,4.247,0,0,1,1.113.137,3.025,3.025,0,0,1,.93.43,1.927,1.927,0,0,1,.664.828,3.081,3.081,0,0,1,.238,1.262v3.172a1.3,1.3,0,0,0,.176.8.759.759,0,0,0,.605.207h.125V16h-.672A1.281,1.281,0,0,1,23.7,14.961h-.062A2.935,2.935,0,0,1,21.125,16.148Zm.313-1.094a2.049,2.049,0,0,0,1.648-.742,3.056,3.056,0,0,0,.625-2.031l-2.031.391a2.734,2.734,0,0,0-1.191.426.99.99,0,0,0-.387.84.979.979,0,0,0,.371.844A1.586,1.586,0,0,0,21.438,15.055Zm6.7-8.344a4.417,4.417,0,0,1,.082-.895,2.9,2.9,0,0,1,.219-.676,1.606,1.606,0,0,1,.363-.488,2.137,2.137,0,0,1,.473-.332,2.346,2.346,0,0,1,.582-.2,5.463,5.463,0,0,1,.66-.1Q30.836,4,31.258,4V5.133h-.293q-.09,0-.281.016a1.8,1.8,0,0,0-.281.039q-.09.023-.242.078a.618.618,0,0,0-.23.133q-.078.078-.18.2a.816.816,0,0,0-.152.281,2.689,2.689,0,0,0-.086.375,2.991,2.991,0,0,0-.035.48V8.32h1.781V9.4H29.477V16H28.133V9.4H26.648V8.32h1.484Zm5.375-.2a.92.92,0,0,1-.914-.914.867.867,0,0,1,.27-.641.886.886,0,0,1,.645-.266.877.877,0,0,1,.637.266.867.867,0,0,1,.27.641.88.88,0,0,1-.27.645A.871.871,0,0,1,33.508,6.516ZM32.82,16V8.32H34.18V16Zm7.3.141a3.7,3.7,0,0,1-2.75-1.1,3.929,3.929,0,0,1-1.086-2.883,3.937,3.937,0,0,1,1.082-2.883,4,4,0,0,1,4.977-.43,3.391,3.391,0,0,1,1.293,1.867l-1.266.2a2.337,2.337,0,0,0-.867-1.2A2.361,2.361,0,0,0,40.109,9.3a2.27,2.27,0,0,0-1.777.789,3.006,3.006,0,0,0-.7,2.07,2.991,2.991,0,0,0,.7,2.066,2.275,2.275,0,0,0,1.777.785,2.361,2.361,0,0,0,1.391-.422,2.337,2.337,0,0,0,.867-1.2l1.266.211a3.4,3.4,0,0,1-1.3,1.863A3.72,3.72,0,0,1,40.117,16.141Zm8.742.008a4.048,4.048,0,0,1-1.969-.477A3.47,3.47,0,0,1,45.5,14.277a4.283,4.283,0,0,1-.512-2.121,3.912,3.912,0,0,1,1.09-2.895,4.089,4.089,0,0,1,5.559,0,3.92,3.92,0,0,1,1.086,2.895,3.923,3.923,0,0,1-1.09,2.9A3.762,3.762,0,0,1,48.859,16.148Zm-.008-1.125a2.359,2.359,0,0,0,1.816-.789,2.957,2.957,0,0,0,.723-2.078,2.945,2.945,0,0,0-.723-2.07A2.359,2.359,0,0,0,48.852,9.3a2.326,2.326,0,0,0-1.8.789,2.965,2.965,0,0,0-.715,2.07,2.976,2.976,0,0,0,.715,2.078A2.326,2.326,0,0,0,48.852,15.023Zm11.5-.266h5.477V16H58.406V14.977l4.406-4.555a5.219,5.219,0,0,0,.992-1.3,2.6,2.6,0,0,0,.273-1.133,1.9,1.9,0,0,0-.555-1.457,2.264,2.264,0,0,0-2.941.047,2.437,2.437,0,0,0-.559,1.77v.813l-1.352-.125v-.68a3.477,3.477,0,0,1,.93-2.613,3.849,3.849,0,0,1,4.871-.066,2.907,2.907,0,0,1,.934,2.281,3.459,3.459,0,0,1-.371,1.59,6.835,6.835,0,0,1-1.191,1.582Zm8.844,1.4a.877.877,0,0,1-.637-.266.908.908,0,0,1,.637-1.547.884.884,0,0,1,.641.27.887.887,0,0,1,0,1.277A.886.886,0,0,1,69.2,16.156Zm14.75-9.383H79.758V9.336h3.711v2.039H79.758V13.93h4.188V16H77.4V4.711h6.547Zm4.945,9.383a4.488,4.488,0,0,1-2.344-.562A2.378,2.378,0,0,1,85.4,13.922l1.883-.531a1.513,1.513,0,0,0,1.609,1.2,1.662,1.662,0,0,0,.82-.184.639.639,0,0,0,.32-.621.657.657,0,0,0-.133-.414,1.052,1.052,0,0,0-.41-.3,5.11,5.11,0,0,0-.547-.211q-.27-.086-.715-.207t-.742-.23a4.972,4.972,0,0,1-.707-.3,3.016,3.016,0,0,1-.586-.414,1.669,1.669,0,0,1-.437-.629,2.269,2.269,0,0,1-.152-.859,2.052,2.052,0,0,1,.871-1.8,3.892,3.892,0,0,1,2.277-.609,3.99,3.99,0,0,1,2.1.516A2.334,2.334,0,0,1,91.93,9.938l-1.742.391a1.365,1.365,0,0,0-1.43-1.016,1.566,1.566,0,0,0-.789.18.577.577,0,0,0-.312.531.609.609,0,0,0,.047.242.479.479,0,0,0,.164.2,2.393,2.393,0,0,0,.227.148,1.709,1.709,0,0,0,.32.129q.211.066.352.1l.41.105.418.109q.43.117.754.234a4.415,4.415,0,0,1,.691.328,2.481,2.481,0,0,1,.605.473,2.108,2.108,0,0,1,.395.664,2.453,2.453,0,0,1,.156.895,2.416,2.416,0,0,1-.27,1.164,2.023,2.023,0,0,1-.738.785,3.593,3.593,0,0,1-1.043.422A5.41,5.41,0,0,1,88.891,16.156ZM96.8,16a2.426,2.426,0,0,1-1.812-.652,2.537,2.537,0,0,1-.641-1.855V9.7H92.773V7.969h.508a1.325,1.325,0,0,0,1-.336,1.73,1.73,0,0,0,.32-1.2V5.375h2.031V7.969h1.656V9.7H96.633V13.25q0,1.039.93,1.039h.727V16Zm5.383-6.758a2.607,2.607,0,0,1,1.055-.965,3.218,3.218,0,0,1,1.57-.4V9.883a3.043,3.043,0,0,0-1.922.484,2.115,2.115,0,0,0-.594,1.719V16h-2.266V7.969h2.156Zm10.484,4.578a7.513,7.513,0,0,0,.2,1.961V16h-2.1l-.18-.875a2.611,2.611,0,0,1-1.125.773,4.146,4.146,0,0,1-1.453.258,3.821,3.821,0,0,1-.75-.07,2.55,2.55,0,0,1-.676-.238,2.051,2.051,0,0,1-.559-.418,1.833,1.833,0,0,1-.375-.637,2.536,2.536,0,0,1-.141-.871,2.416,2.416,0,0,1,.148-.871,2.042,2.042,0,0,1,.391-.652,2.369,2.369,0,0,1,.633-.477,4.842,4.842,0,0,1,.8-.344,9.521,9.521,0,0,1,.953-.25l1.32-.3a1.456,1.456,0,0,0,.6-.254.506.506,0,0,0,.176-.4.829.829,0,0,0-.395-.773,1.842,1.842,0,0,0-.957-.234,1.377,1.377,0,0,0-1.57,1.227l-1.992-.359A2.7,2.7,0,0,1,106.773,8.4a4.627,4.627,0,0,1,2.523-.59q3.375,0,3.375,2.9Zm-3.961.813a1.81,1.81,0,0,0,1.391-.582,2.453,2.453,0,0,0,.539-1.723l-1.906.539a2.253,2.253,0,0,0-.8.328.674.674,0,0,0-.277.578.748.748,0,0,0,.3.637A1.229,1.229,0,0,0,108.711,14.633ZM117.742,16a2.426,2.426,0,0,1-1.812-.652,2.537,2.537,0,0,1-.641-1.855V9.7h-1.578V7.969h.508a1.325,1.325,0,0,0,1-.336,1.73,1.73,0,0,0,.32-1.2V5.375h2.031V7.969h1.656V9.7H117.57V13.25q0,1.039.93,1.039h.727V16Zm10.75-4.133-.023.539h-5.953a2.079,2.079,0,0,0,.641,1.469,2.049,2.049,0,0,0,1.414.508,1.974,1.974,0,0,0,1.059-.277,1.7,1.7,0,0,0,.676-.809l2.063.3a3.506,3.506,0,0,1-1.406,1.883,4.181,4.181,0,0,1-2.375.672,4.348,4.348,0,0,1-3.129-1.105,4.034,4.034,0,0,1-1.16-3.066,4.058,4.058,0,0,1,1.164-3.066A4.219,4.219,0,0,1,124.516,7.8,4.032,4.032,0,0,1,127.4,8.82,4.015,4.015,0,0,1,128.492,11.867Zm-3.961-2.477a1.778,1.778,0,0,0-1.953,1.547h3.688a1.691,1.691,0,0,0-.555-1.148A1.758,1.758,0,0,0,124.531,9.391Zm11.2-1.422h2.141V15.4a6.008,6.008,0,0,1-.3,2,3.3,3.3,0,0,1-.871,1.371,3.631,3.631,0,0,1-1.336.77,5.632,5.632,0,0,1-1.75.25q-3.18,0-4.141-2.492l1.867-.8a2.725,2.725,0,0,0,.867,1.164,2.211,2.211,0,0,0,1.32.375q2.086,0,2.086-2.477v-.937a2.53,2.53,0,0,1-1.012.793,3.364,3.364,0,0,1-1.426.3,3.6,3.6,0,0,1-2.578-1.082,3.71,3.71,0,0,1-.793-1.262,4.664,4.664,0,0,1,0-3.254,3.561,3.561,0,0,1,.8-1.246,3.667,3.667,0,0,1,1.172-.781,3.617,3.617,0,0,1,1.418-.281,3.266,3.266,0,0,1,1.488.332,2.373,2.373,0,0,1,1,.887Zm-3.449,5.313a2.061,2.061,0,0,0,2.949-.008,2.245,2.245,0,0,0,0-3.055,2.08,2.08,0,0,0-2.961-.012,2.137,2.137,0,0,0-.59,1.543A2.115,2.115,0,0,0,132.285,13.281Zm9.074-6.516a1.263,1.263,0,0,1-.922-.379,1.244,1.244,0,0,1-.383-.918,1.229,1.229,0,0,1,.387-.91,1.267,1.267,0,0,1,.918-.379,1.3,1.3,0,0,1,1.289,1.289,1.3,1.3,0,0,1-1.289,1.3ZM140.211,16V7.969h2.266V16Zm11.18-2.18a7.514,7.514,0,0,0,.2,1.961V16h-2.1l-.18-.875a2.611,2.611,0,0,1-1.125.773,4.146,4.146,0,0,1-1.453.258,3.821,3.821,0,0,1-.75-.07,2.55,2.55,0,0,1-.676-.238,2.051,2.051,0,0,1-.559-.418,1.833,1.833,0,0,1-.375-.637,2.536,2.536,0,0,1-.141-.871,2.416,2.416,0,0,1,.148-.871,2.042,2.042,0,0,1,.391-.652,2.369,2.369,0,0,1,.633-.477,4.842,4.842,0,0,1,.8-.344,9.521,9.521,0,0,1,.953-.25l1.32-.3a1.456,1.456,0,0,0,.6-.254.506.506,0,0,0,.176-.4.829.829,0,0,0-.395-.773,1.842,1.842,0,0,0-.957-.234,1.377,1.377,0,0,0-1.57,1.227l-1.992-.359A2.7,2.7,0,0,1,145.492,8.4a4.627,4.627,0,0,1,2.523-.59q3.375,0,3.375,2.9Zm-3.961.813a1.81,1.81,0,0,0,1.391-.582,2.453,2.453,0,0,0,.539-1.723l-1.906.539a2.253,2.253,0,0,0-.8.328.674.674,0,0,0-.277.578.748.748,0,0,0,.3.637A1.229,1.229,0,0,0,147.43,14.633Zm13.133,1.523a4.488,4.488,0,0,1-2.344-.562,2.378,2.378,0,0,1-1.148-1.672l1.883-.531a1.513,1.513,0,0,0,1.609,1.2,1.662,1.662,0,0,0,.82-.184.639.639,0,0,0,.32-.621.657.657,0,0,0-.133-.414,1.052,1.052,0,0,0-.41-.3,5.11,5.11,0,0,0-.547-.211q-.27-.086-.715-.207t-.742-.23a4.972,4.972,0,0,1-.707-.3,3.016,3.016,0,0,1-.586-.414,1.669,1.669,0,0,1-.437-.629,2.269,2.269,0,0,1-.152-.859,2.052,2.052,0,0,1,.871-1.8,3.892,3.892,0,0,1,2.277-.609,3.99,3.99,0,0,1,2.1.516A2.334,2.334,0,0,1,163.6,9.938l-1.742.391a1.365,1.365,0,0,0-1.43-1.016,1.566,1.566,0,0,0-.789.18.577.577,0,0,0-.312.531.609.609,0,0,0,.047.242.479.479,0,0,0,.164.2,2.392,2.392,0,0,0,.227.148,1.709,1.709,0,0,0,.32.129q.211.066.352.1l.41.105.418.109q.43.117.754.234a4.416,4.416,0,0,1,.691.328,2.481,2.481,0,0,1,.605.473,2.108,2.108,0,0,1,.395.664,2.453,2.453,0,0,1,.156.895,2.416,2.416,0,0,1-.27,1.164,2.023,2.023,0,0,1-.738.785,3.593,3.593,0,0,1-1.043.422A5.41,5.41,0,0,1,160.563,16.156Zm12.477-4.289-.023.539h-5.953a2.079,2.079,0,0,0,.641,1.469,2.049,2.049,0,0,0,1.414.508,1.974,1.974,0,0,0,1.059-.277,1.7,1.7,0,0,0,.676-.809l2.063.3a3.506,3.506,0,0,1-1.406,1.883,4.181,4.181,0,0,1-2.375.672A4.348,4.348,0,0,1,166,15.051a4.034,4.034,0,0,1-1.16-3.066,4.058,4.058,0,0,1,1.164-3.066A4.219,4.219,0,0,1,169.063,7.8a4.032,4.032,0,0,1,2.883,1.023A4.015,4.015,0,0,1,173.039,11.867Zm-3.961-2.477a1.778,1.778,0,0,0-1.953,1.547h3.688a1.691,1.691,0,0,0-.555-1.148A1.758,1.758,0,0,0,169.078,9.391Zm11.2-1.422h2.141V15.4a6.008,6.008,0,0,1-.3,2,3.3,3.3,0,0,1-.871,1.371,3.631,3.631,0,0,1-1.336.77,5.632,5.632,0,0,1-1.75.25q-3.18,0-4.141-2.492l1.867-.8a2.725,2.725,0,0,0,.867,1.164,2.211,2.211,0,0,0,1.32.375q2.086,0,2.086-2.477v-.937a2.53,2.53,0,0,1-1.012.793,3.364,3.364,0,0,1-1.426.3,3.6,3.6,0,0,1-2.578-1.082,3.71,3.71,0,0,1-.793-1.262,4.664,4.664,0,0,1,0-3.254,3.561,3.561,0,0,1,.8-1.246,3.667,3.667,0,0,1,1.172-.781,3.617,3.617,0,0,1,1.418-.281,3.266,3.266,0,0,1,1.488.332,2.373,2.373,0,0,1,1,.887Zm-3.449,5.313a2.061,2.061,0,0,0,2.949-.008,2.245,2.245,0,0,0,0-3.055,2.08,2.08,0,0,0-2.961-.012,2.137,2.137,0,0,0-.59,1.543A2.115,2.115,0,0,0,176.832,13.281Zm14.184-8.508-1.773,2.094h-1.383l2.047-2.875Zm-.937,3.2h2.25V16H190.2l-.055-.969a3.067,3.067,0,0,1-2.555,1.125,3.131,3.131,0,0,1-2.219-.723,2.68,2.68,0,0,1-.773-2.059V7.969h2.258v4.922a1.388,1.388,0,0,0,.4,1.1,1.527,1.527,0,0,0,1.043.352,1.811,1.811,0,0,0,1.277-.457,1.963,1.963,0,0,0,.5-1.488Zm9.32-.156a3.131,3.131,0,0,1,2.219.723,2.68,2.68,0,0,1,.773,2.059V16h-2.258V11.078a1.4,1.4,0,0,0-.4-1.109,1.516,1.516,0,0,0-1.035-.352,2.115,2.115,0,0,0-.672.1,1.726,1.726,0,0,0-.562.316,1.4,1.4,0,0,0-.4.605,2.8,2.8,0,0,0-.152.93V16h-2.25V7.969h2.25v.891A3.1,3.1,0,0,1,199.4,7.813Zm14.039,0a3.906,3.906,0,0,1,1.5.289,3.754,3.754,0,0,1,1.23.813A3.676,3.676,0,0,1,217,10.238a5.246,5.246,0,0,1,0,3.523,3.676,3.676,0,0,1-.832,1.324,3.754,3.754,0,0,1-1.23.813,3.906,3.906,0,0,1-1.5.289,3.485,3.485,0,0,1-1.453-.3,2.277,2.277,0,0,1-1.008-.844v4.859h-2.25V7.969h2.133l.063,1.078a2.2,2.2,0,0,1,1-.91A3.45,3.45,0,0,1,213.438,7.813Zm-.508,6.508a2.021,2.021,0,0,0,1.52-.629A2.336,2.336,0,0,0,215.055,12a2.336,2.336,0,0,0-.605-1.691,2.15,2.15,0,0,0-3.051.012,2.336,2.336,0,0,0-.609,1.68,2.336,2.336,0,0,0,.609,1.68A2.025,2.025,0,0,0,212.93,14.32Zm8.227-5.078a2.607,2.607,0,0,1,1.055-.965,3.218,3.218,0,0,1,1.57-.4V9.883a3.042,3.042,0,0,0-1.922.484,2.115,2.115,0,0,0-.594,1.719V16H219V7.969h2.156Zm11.453,2.625-.023.539h-5.953a2.079,2.079,0,0,0,.641,1.469,2.049,2.049,0,0,0,1.414.508,1.974,1.974,0,0,0,1.059-.277,1.7,1.7,0,0,0,.676-.809l2.063.3a3.506,3.506,0,0,1-1.406,1.883,4.181,4.181,0,0,1-2.375.672,4.348,4.348,0,0,1-3.129-1.105,4.034,4.034,0,0,1-1.16-3.066,4.058,4.058,0,0,1,1.164-3.066A4.219,4.219,0,0,1,228.633,7.8a4.032,4.032,0,0,1,2.883,1.023A4.015,4.015,0,0,1,232.609,11.867Zm-3.961-2.477a1.778,1.778,0,0,0-1.953,1.547h3.688a1.691,1.691,0,0,0-.555-1.148A1.758,1.758,0,0,0,228.648,9.391Zm9.3,6.758a4.291,4.291,0,0,1-3.1-1.156,3.994,3.994,0,0,1-1.2-3.016,3.984,3.984,0,0,1,1.2-3.016,4.768,4.768,0,0,1,5.707-.375,3.453,3.453,0,0,1,1.344,2.18l-2.078.227a1.78,1.78,0,0,0-.672-1.055,2.043,2.043,0,0,0-1.219-.352,1.842,1.842,0,0,0-1.469.656,2.573,2.573,0,0,0-.562,1.734,2.576,2.576,0,0,0,.563,1.73,1.837,1.837,0,0,0,1.469.66,2.025,2.025,0,0,0,1.215-.352,1.822,1.822,0,0,0,.676-1.055l2.078.227a3.463,3.463,0,0,1-1.355,2.18A4.262,4.262,0,0,1,237.953,16.148Zm6.7-9.383a1.263,1.263,0,0,1-.922-.379,1.244,1.244,0,0,1-.383-.918,1.229,1.229,0,0,1,.387-.91,1.267,1.267,0,0,1,.918-.379,1.3,1.3,0,0,1,1.289,1.289,1.3,1.3,0,0,1-1.289,1.3ZM243.5,16V7.969h2.266V16Zm8.336.156a5.05,5.05,0,0,1-2.273-.492A3.679,3.679,0,0,1,248,14.219a4.307,4.307,0,0,1-.566-2.242,3.929,3.929,0,0,1,1.219-3.047,5.095,5.095,0,0,1,6.367,0,3.929,3.929,0,0,1,1.219,3.047,3.951,3.951,0,0,1-1.219,3.059A4.523,4.523,0,0,1,251.836,16.156Zm-.023-1.789a2.061,2.061,0,0,0,1.59-.656,2.457,2.457,0,0,0,.605-1.734,2.457,2.457,0,0,0-.605-1.734,2.061,2.061,0,0,0-1.59-.656,1.986,1.986,0,0,0-1.543.66,2.479,2.479,0,0,0-.6,1.73,2.479,2.479,0,0,0,.6,1.73A1.986,1.986,0,0,0,251.813,14.367Zm15.516-6.4h2.3L264.68,19.781H262.4l1.836-4.109-3.3-7.7h2.453L265.3,13.25Zm11.281,8.18a4.291,4.291,0,0,1-3.1-1.156,3.994,3.994,0,0,1-1.2-3.016,3.985,3.985,0,0,1,1.2-3.016,4.768,4.768,0,0,1,5.707-.375,3.453,3.453,0,0,1,1.344,2.18l-2.078.227a1.78,1.78,0,0,0-.672-1.055,2.043,2.043,0,0,0-1.219-.352,1.842,1.842,0,0,0-1.469.656,2.573,2.573,0,0,0-.562,1.734,2.576,2.576,0,0,0,.563,1.73,1.837,1.837,0,0,0,1.469.66,2.025,2.025,0,0,0,1.215-.352,1.822,1.822,0,0,0,.676-1.055l2.078.227a3.463,3.463,0,0,1-1.355,2.18A4.262,4.262,0,0,1,278.609,16.148Zm12.133-2.328a7.513,7.513,0,0,0,.2,1.961V16h-2.1l-.18-.875a2.611,2.611,0,0,1-1.125.773,4.146,4.146,0,0,1-1.453.258,3.821,3.821,0,0,1-.75-.07,2.55,2.55,0,0,1-.676-.238,2.051,2.051,0,0,1-.559-.418,1.833,1.833,0,0,1-.375-.637,2.536,2.536,0,0,1-.141-.871,2.415,2.415,0,0,1,.148-.871,2.042,2.042,0,0,1,.391-.652,2.37,2.37,0,0,1,.633-.477,4.841,4.841,0,0,1,.8-.344,9.521,9.521,0,0,1,.953-.25l1.32-.3a1.456,1.456,0,0,0,.6-.254.506.506,0,0,0,.176-.4A.829.829,0,0,0,288.2,9.6a1.842,1.842,0,0,0-.957-.234,1.377,1.377,0,0,0-1.57,1.227l-1.992-.359A2.7,2.7,0,0,1,284.844,8.4a4.627,4.627,0,0,1,2.523-.59q3.375,0,3.375,2.9Zm-3.961.813a1.81,1.81,0,0,0,1.391-.582,2.453,2.453,0,0,0,.539-1.723l-1.906.539a2.253,2.253,0,0,0-.8.328.674.674,0,0,0-.277.578.748.748,0,0,0,.3.637A1.229,1.229,0,0,0,286.781,14.633ZM292.93,16V4H295.2V16Zm5.75-9.234a1.263,1.263,0,0,1-.922-.379,1.244,1.244,0,0,1-.383-.918,1.229,1.229,0,0,1,.387-.91,1.267,1.267,0,0,1,.918-.379,1.3,1.3,0,0,1,1.289,1.289,1.3,1.3,0,0,1-1.289,1.3ZM297.531,16V7.969H299.8V16ZM307.82,4h2.25V16h-2.133l-.055-1.047a2.293,2.293,0,0,1-1.02.91,3.432,3.432,0,0,1-1.5.324,3.906,3.906,0,0,1-1.5-.289,3.613,3.613,0,0,1-2.062-2.141,4.885,4.885,0,0,1-.3-1.758,4.566,4.566,0,0,1,.531-2.238,3.64,3.64,0,0,1,1.4-1.457,3.862,3.862,0,0,1,1.934-.492,3.518,3.518,0,0,1,1.457.293,2.275,2.275,0,0,1,1,.832Zm-1.945,10.32a2,2,0,0,0,1.52-.641A2.345,2.345,0,0,0,308,12a2.35,2.35,0,0,0-.609-1.684,2,2,0,0,0-1.516-.645,2.024,2.024,0,0,0-1.527.633,2.35,2.35,0,0,0-.605,1.7,2.339,2.339,0,0,0,.605,1.688A2.024,2.024,0,0,0,305.875,14.32Zm13.109-.5a7.513,7.513,0,0,0,.2,1.961V16h-2.1l-.18-.875a2.611,2.611,0,0,1-1.125.773,4.146,4.146,0,0,1-1.453.258,3.821,3.821,0,0,1-.75-.07,2.55,2.55,0,0,1-.676-.238,2.051,2.051,0,0,1-.559-.418,1.833,1.833,0,0,1-.375-.637,2.536,2.536,0,0,1-.141-.871,2.415,2.415,0,0,1,.148-.871,2.042,2.042,0,0,1,.391-.652,2.37,2.37,0,0,1,.633-.477,4.841,4.841,0,0,1,.8-.344,9.521,9.521,0,0,1,.953-.25l1.32-.3a1.456,1.456,0,0,0,.6-.254.506.506,0,0,0,.176-.4.829.829,0,0,0-.395-.773,1.842,1.842,0,0,0-.957-.234,1.377,1.377,0,0,0-1.57,1.227l-1.992-.359A2.7,2.7,0,0,1,313.086,8.4a4.627,4.627,0,0,1,2.523-.59q3.375,0,3.375,2.9Zm-3.961.813a1.81,1.81,0,0,0,1.391-.582,2.453,2.453,0,0,0,.539-1.723l-1.906.539a2.253,2.253,0,0,0-.8.328.674.674,0,0,0-.277.578.748.748,0,0,0,.3.637A1.229,1.229,0,0,0,315.023,14.633ZM326.688,4h2.25V16H326.8l-.055-1.047a2.293,2.293,0,0,1-1.02.91,3.432,3.432,0,0,1-1.5.324,3.906,3.906,0,0,1-1.5-.289,3.613,3.613,0,0,1-2.062-2.141,4.885,4.885,0,0,1-.3-1.758,4.566,4.566,0,0,1,.531-2.238,3.64,3.64,0,0,1,1.4-1.457,3.862,3.862,0,0,1,1.934-.492,3.518,3.518,0,0,1,1.457.293,2.275,2.275,0,0,1,1,.832Zm-1.945,10.32a2,2,0,0,0,1.52-.641,2.345,2.345,0,0,0,.605-1.68,2.35,2.35,0,0,0-.609-1.684,2,2,0,0,0-1.516-.645,2.024,2.024,0,0,0-1.527.633,2.35,2.35,0,0,0-.605,1.7,2.339,2.339,0,0,0,.605,1.688A2.024,2.024,0,0,0,324.742,14.32Zm7.93,1.836a1.294,1.294,0,0,1-1.281-1.281,1.254,1.254,0,0,1,.379-.914,1.226,1.226,0,0,1,.9-.383,1.307,1.307,0,0,1,1.3,1.3,1.226,1.226,0,0,1-.383.9A1.254,1.254,0,0,1,332.672,16.156ZM7.477,29v1.273H4.656V40H3.266V30.273H.438V29Zm3.766,11.148a4.048,4.048,0,0,1-1.969-.477,3.47,3.47,0,0,1-1.387-1.395,4.283,4.283,0,0,1-.512-2.121,3.912,3.912,0,0,1,1.09-2.895,3.762,3.762,0,0,1,2.777-1.09,3.759,3.759,0,0,1,2.781,1.09,3.92,3.92,0,0,1,1.086,2.895,3.923,3.923,0,0,1-1.09,2.9A3.762,3.762,0,0,1,11.242,40.148Zm-.008-1.125a2.359,2.359,0,0,0,1.816-.789,3.338,3.338,0,0,0,0-4.148,2.359,2.359,0,0,0-1.816-.789,2.326,2.326,0,0,0-1.8.789,3.367,3.367,0,0,0,0,4.148A2.326,2.326,0,0,0,11.234,39.023Zm13.844-6.852a2.476,2.476,0,0,1,1.789.652,2.42,2.42,0,0,1,.68,1.832V40H26.2V35.008a1.735,1.735,0,0,0-.422-1.266,1.436,1.436,0,0,0-1.07-.43,1.517,1.517,0,0,0-1.172.484,2.083,2.083,0,0,0-.445,1.453V40H21.711V35.063a1.815,1.815,0,0,0-.426-1.309,1.448,1.448,0,0,0-1.09-.441,1.5,1.5,0,0,0-1.168.5,2.155,2.155,0,0,0-.449,1.488V40H17.227V32.32h1.352v.992a2.333,2.333,0,0,1,.879-.844,2.506,2.506,0,0,1,1.223-.3,2.609,2.609,0,0,1,1.313.324,2.018,2.018,0,0,1,.852.934,2.39,2.39,0,0,1,.922-.934A2.637,2.637,0,0,1,25.078,32.172Zm6.859,7.977a2.613,2.613,0,0,1-1.684-.527,1.894,1.894,0,0,1-.66-1.574,2.237,2.237,0,0,1,.211-1,1.77,1.77,0,0,1,.625-.7,3.749,3.749,0,0,1,.9-.434,8.342,8.342,0,0,1,1.168-.277l1.242-.2q.68-.125.68-.711a1.342,1.342,0,0,0-.48-1.145,1.958,1.958,0,0,0-1.215-.363,1.994,1.994,0,0,0-1.2.352,1.471,1.471,0,0,0-.57,1.078l-1.219-.258a2.346,2.346,0,0,1,.961-1.645,3.59,3.59,0,0,1,2.094-.551,4.247,4.247,0,0,1,1.113.137,3.025,3.025,0,0,1,.93.43,1.927,1.927,0,0,1,.664.828,3.081,3.081,0,0,1,.238,1.262v3.172a1.3,1.3,0,0,0,.176.8.759.759,0,0,0,.605.207h.125V40h-.672a1.281,1.281,0,0,1-1.453-1.039h-.062A2.935,2.935,0,0,1,31.938,40.148Zm.313-1.094a2.049,2.049,0,0,0,1.648-.742,3.056,3.056,0,0,0,.625-2.031l-2.031.391A2.734,2.734,0,0,0,31.3,37.1a.99.99,0,0,0-.387.84.979.979,0,0,0,.371.844A1.586,1.586,0,0,0,32.25,39.055ZM44.063,28h1.352V40h-1.3l-.031-1.492a2.826,2.826,0,0,1-1.094,1.211,3.048,3.048,0,0,1-1.625.445,3.49,3.49,0,0,1-2.535-1.082,3.7,3.7,0,0,1-.773-1.27,4.644,4.644,0,0,1-.285-1.648,4.038,4.038,0,0,1,1.043-2.883,3.367,3.367,0,0,1,2.551-1.109,3.061,3.061,0,0,1,1.605.434,2.842,2.842,0,0,1,1.1,1.176ZM41.641,38.992a2.3,2.3,0,0,0,1.785-.809,3.171,3.171,0,0,0,0-4.035,2.3,2.3,0,0,0-1.781-.812,2.35,2.35,0,0,0-1.8.785,3.236,3.236,0,0,0,0,4.086A2.35,2.35,0,0,0,41.641,38.992ZM51.4,40.148a4.048,4.048,0,0,1-1.969-.477,3.47,3.47,0,0,1-1.387-1.395,4.284,4.284,0,0,1-.512-2.121,3.912,3.912,0,0,1,1.09-2.895,4.089,4.089,0,0,1,5.559,0,3.92,3.92,0,0,1,1.086,2.895,3.923,3.923,0,0,1-1.09,2.9A3.762,3.762,0,0,1,51.4,40.148Zm-.008-1.125a2.359,2.359,0,0,0,1.816-.789,3.338,3.338,0,0,0,0-4.148,2.359,2.359,0,0,0-1.816-.789,2.326,2.326,0,0,0-1.8.789,3.367,3.367,0,0,0,0,4.148A2.326,2.326,0,0,0,51.391,39.023ZM67.211,28h1.352V40h-1.3l-.031-1.492a2.826,2.826,0,0,1-1.094,1.211,3.048,3.048,0,0,1-1.625.445,3.49,3.49,0,0,1-2.535-1.082,3.7,3.7,0,0,1-.773-1.27,4.644,4.644,0,0,1-.285-1.648,4.038,4.038,0,0,1,1.043-2.883,3.367,3.367,0,0,1,2.551-1.109,3.061,3.061,0,0,1,1.605.434,2.842,2.842,0,0,1,1.1,1.176ZM64.789,38.992a2.3,2.3,0,0,0,1.785-.809,3.171,3.171,0,0,0,0-4.035,2.3,2.3,0,0,0-1.781-.812,2.35,2.35,0,0,0-1.8.785,3.236,3.236,0,0,0,0,4.086A2.35,2.35,0,0,0,64.789,38.992Zm13.242-2.984-.016.367h-6a2.714,2.714,0,0,0,.734,1.965,2.411,2.411,0,0,0,1.75.684,2.3,2.3,0,0,0,1.273-.367,2.383,2.383,0,0,0,.875-1.016l1.219.258a3.464,3.464,0,0,1-1.312,1.648,3.581,3.581,0,0,1-2.039.6,3.71,3.71,0,0,1-2.766-1.07A3.982,3.982,0,0,1,70.7,36.156a3.962,3.962,0,0,1,1.059-2.914,3.664,3.664,0,0,1,2.723-1.07,3.467,3.467,0,0,1,2.582.984A3.889,3.889,0,0,1,78.031,36.008Zm-3.555-2.8a2.4,2.4,0,0,0-1.6.543,2.488,2.488,0,0,0-.809,1.582h4.6A2.282,2.282,0,0,0,76,33.754,2.17,2.17,0,0,0,74.477,33.211Zm13.578,6.938a5.021,5.021,0,0,1-2.871-.777,3.291,3.291,0,0,1-1.434-2.137l1.414-.336a2.319,2.319,0,0,0,.992,1.5,3.355,3.355,0,0,0,1.945.547,4.058,4.058,0,0,0,.727-.062,2.779,2.779,0,0,0,.66-.207,2.021,2.021,0,0,0,.543-.355,1.484,1.484,0,0,0,.359-.539,1.845,1.845,0,0,0,.125-.734,1.588,1.588,0,0,0-.1-.52,1.649,1.649,0,0,0-.219-.41,1.473,1.473,0,0,0-.371-.332,4.974,4.974,0,0,0-.445-.266,4.025,4.025,0,0,0-.551-.223q-.348-.117-.582-.184l-.633-.176q-.078-.023-.117-.031-.453-.117-.738-.2t-.684-.238a4.5,4.5,0,0,1-.652-.3,4.415,4.415,0,0,1-.535-.375,1.921,1.921,0,0,1-.441-.488,2.577,2.577,0,0,1-.266-.621,3.01,3.01,0,0,1,.406-2.469,2.994,2.994,0,0,1,1.32-1.031,4.793,4.793,0,0,1,1.816-.328,4.973,4.973,0,0,1,2.645.676,3.011,3.011,0,0,1,1.4,2l-1.359.344a2.069,2.069,0,0,0-.914-1.352,3.132,3.132,0,0,0-1.719-.453,3.4,3.4,0,0,0-.844.1,2.507,2.507,0,0,0-.73.313,1.517,1.517,0,0,0-.527.574,1.746,1.746,0,0,0-.2.84,1.35,1.35,0,0,0,.078.465,1.427,1.427,0,0,0,.2.371,1.39,1.39,0,0,0,.336.3,3.413,3.413,0,0,0,.41.242,4.157,4.157,0,0,0,.512.2q.32.105.547.172t.6.16a12.728,12.728,0,0,1,2.117.7,2.679,2.679,0,0,1,1.633,2.023,3.488,3.488,0,0,1,.031.477,3.074,3.074,0,0,1-.316,1.422,2.565,2.565,0,0,1-.867.984,4.146,4.146,0,0,1-1.234.551A5.661,5.661,0,0,1,88.055,40.148Zm7.953,0a2.613,2.613,0,0,1-1.684-.527,1.894,1.894,0,0,1-.66-1.574,2.237,2.237,0,0,1,.211-1,1.77,1.77,0,0,1,.625-.7,3.749,3.749,0,0,1,.9-.434,8.342,8.342,0,0,1,1.168-.277l1.242-.2q.68-.125.68-.711a1.342,1.342,0,0,0-.48-1.145,1.958,1.958,0,0,0-1.215-.363,1.994,1.994,0,0,0-1.2.352,1.471,1.471,0,0,0-.57,1.078L93.8,34.383a2.346,2.346,0,0,1,.961-1.645,3.59,3.59,0,0,1,2.094-.551,4.247,4.247,0,0,1,1.113.137,3.025,3.025,0,0,1,.93.43,1.927,1.927,0,0,1,.664.828,3.081,3.081,0,0,1,.238,1.262v3.172a1.3,1.3,0,0,0,.176.8.759.759,0,0,0,.605.207h.125V40h-.672a1.281,1.281,0,0,1-1.453-1.039h-.062A2.935,2.935,0,0,1,96.008,40.148Zm.313-1.094a2.049,2.049,0,0,0,1.648-.742,3.056,3.056,0,0,0,.625-2.031l-2.031.391a2.734,2.734,0,0,0-1.191.426.99.99,0,0,0-.387.84.979.979,0,0,0,.371.844A1.586,1.586,0,0,0,96.32,39.055Zm9.922-6.883a2.671,2.671,0,0,1,1.934.7,2.594,2.594,0,0,1,.723,1.961V40h-1.352V35.133a1.816,1.816,0,0,0-.469-1.375,1.676,1.676,0,0,0-1.2-.445,1.858,1.858,0,0,0-1.367.527,2.14,2.14,0,0,0-.539,1.566V40h-1.352V32.32h1.352V33.3A2.565,2.565,0,0,1,106.242,32.172Zm8.453,7.969a3.7,3.7,0,0,1-2.75-1.1,4.375,4.375,0,0,1,0-5.766,4,4,0,0,1,4.977-.43,3.391,3.391,0,0,1,1.293,1.867l-1.266.2a2.337,2.337,0,0,0-.867-1.2,2.361,2.361,0,0,0-1.391-.422,2.27,2.27,0,0,0-1.777.789,3.409,3.409,0,0,0,0,4.137,2.275,2.275,0,0,0,1.777.785,2.361,2.361,0,0,0,1.391-.422,2.337,2.337,0,0,0,.867-1.2l1.266.211a3.4,3.4,0,0,1-1.3,1.863A3.72,3.72,0,0,1,114.7,40.141Zm9.18-7.969a2.566,2.566,0,0,1,1.9.711,2.76,2.76,0,0,1,.711,2.039V40h-1.352V35.18a1.889,1.889,0,0,0-.469-1.414,1.67,1.67,0,0,0-1.211-.453,1.859,1.859,0,0,0-1.355.523,2.128,2.128,0,0,0-.543,1.57V40H120.2V28h1.352v5.336a2.5,2.5,0,0,1,.965-.859A2.942,2.942,0,0,1,123.875,32.172Zm11.93,3.836-.016.367h-6a2.714,2.714,0,0,0,.734,1.965,2.411,2.411,0,0,0,1.75.684,2.3,2.3,0,0,0,1.273-.367,2.383,2.383,0,0,0,.875-1.016l1.219.258a3.464,3.464,0,0,1-1.312,1.648,3.581,3.581,0,0,1-2.039.6,3.71,3.71,0,0,1-2.766-1.07,3.982,3.982,0,0,1-1.055-2.922,3.962,3.962,0,0,1,1.059-2.914,3.664,3.664,0,0,1,2.723-1.07,3.467,3.467,0,0,1,2.582.984A3.889,3.889,0,0,1,135.8,36.008Zm-3.555-2.8a2.4,2.4,0,0,0-1.6.543,2.488,2.488,0,0,0-.809,1.582h4.6a2.282,2.282,0,0,0-.672-1.582A2.17,2.17,0,0,0,132.25,33.211Zm6.508,5.7h4.094V40h-6.125l4.047-6.578h-3.812v-1.1h5.883Zm7.023,3.914H144.8l.953-4.844h1.414Zm9.922-4.094h3.82V40H154.3V29h1.4Zm6.828,1.43a.877.877,0,0,1-.637-.266.908.908,0,0,1,.637-1.547.884.884,0,0,1,.641.27.887.887,0,0,1,0,1.277A.886.886,0,0,1,162.531,40.156Zm5.375-.008A4.883,4.883,0,0,1,165.5,39.5l.609-1.187a2.949,2.949,0,0,0,1.7.539,1.725,1.725,0,0,0,1.4-.605,2.544,2.544,0,0,0,.5-1.676V29h1.4v7.813a3.341,3.341,0,0,1-.875,2.441A3.109,3.109,0,0,1,167.906,40.148Zm6.367.008a.877.877,0,0,1-.637-.266.908.908,0,0,1,.637-1.547.884.884,0,0,1,.641.27.887.887,0,0,1,0,1.277A.886.886,0,0,1,174.273,40.156ZM185.227,43.9a6.487,6.487,0,0,1-2.41-3.176,13.749,13.749,0,0,1-.879-5.137,13.8,13.8,0,0,1,.879-5.133,6.485,6.485,0,0,1,2.41-3.187l.719.891a5.481,5.481,0,0,0-2.055,2.785,12.89,12.89,0,0,0-.758,4.645,12.871,12.871,0,0,0,.754,4.645A5.442,5.442,0,0,0,185.945,43Zm3.781-5.141h5.477V40h-7.422V38.977l4.406-4.555a5.219,5.219,0,0,0,.992-1.3,2.6,2.6,0,0,0,.273-1.133,1.9,1.9,0,0,0-.555-1.457,2.264,2.264,0,0,0-2.941.047,2.437,2.437,0,0,0-.559,1.77v.813l-1.352-.125v-.68a3.477,3.477,0,0,1,.93-2.613,3.849,3.849,0,0,1,4.871-.066,2.907,2.907,0,0,1,.934,2.281,3.459,3.459,0,0,1-.371,1.59,6.835,6.835,0,0,1-1.191,1.582ZM199.8,40.148a3.064,3.064,0,0,1-2.711-1.437,7.665,7.665,0,0,1-.953-4.219,7.7,7.7,0,0,1,.941-4.211,3.294,3.294,0,0,1,5.434,0,7.677,7.677,0,0,1,.945,4.207,7.643,7.643,0,0,1-.957,4.215A3.058,3.058,0,0,1,199.8,40.148Zm0-1.25a1.861,1.861,0,0,0,1.711-1.1,7.182,7.182,0,0,0,.594-3.3,6.979,6.979,0,0,0-.605-3.3,1.88,1.88,0,0,0-3.4,0,7.014,7.014,0,0,0-.6,3.3,7.219,7.219,0,0,0,.59,3.309A1.859,1.859,0,0,0,199.8,38.9Zm7.227-.141H212.5V40h-7.422V38.977l4.406-4.555a5.219,5.219,0,0,0,.992-1.3,2.6,2.6,0,0,0,.273-1.133,1.9,1.9,0,0,0-.555-1.457,2.264,2.264,0,0,0-2.941.047,2.437,2.437,0,0,0-.559,1.77v.813l-1.352-.125v-.68a3.477,3.477,0,0,1,.93-2.613,3.849,3.849,0,0,1,4.871-.066,2.907,2.907,0,0,1,.934,2.281,3.459,3.459,0,0,1-.371,1.59,6.835,6.835,0,0,1-1.191,1.582ZM217.891,29h1.266V40H217.82V30.477l-2.641,2.289V31.32Zm5.477,14.9-.719-.9a5.442,5.442,0,0,0,2.059-2.77,12.871,12.871,0,0,0,.754-4.645,12.89,12.89,0,0,0-.758-4.645,5.481,5.481,0,0,0-2.055-2.785l.719-.891a6.485,6.485,0,0,1,2.41,3.188,13.8,13.8,0,0,1,.879,5.133,13.749,13.749,0,0,1-.879,5.137A6.487,6.487,0,0,1,223.367,43.9Z" transform="translate(277 -2429)" fill="#00223d"/>
    <g id="Grupo_17626" data-name="Grupo 17626" transform="translate(364.974 -2645.163)">
      <rect id="Rectángulo_4415" data-name="Rectángulo 4415" width="123.966" height="96.849" fill="#d2fbff"/>
      <rect id="Rectángulo_4416" data-name="Rectángulo 4416" width="123.966" height="96.849" transform="translate(0 96.849)" fill="#adf3ff"/>
      <rect id="Rectángulo_4417" data-name="Rectángulo 4417" width="123.966" height="96.849" transform="translate(123.966)" fill="#adf3ff"/>
      <rect id="Rectángulo_4418" data-name="Rectángulo 4418" width="123.966" height="96.849" transform="translate(123.966 96.849)" fill="#d2fbff"/>
    </g>
    <path id="Trazado_28144" data-name="Trazado 28144" d="M794.467,1870.258V1682.039l2.536,2.728.788-.734-4.4-4.733-4.4,4.733.788.734,2.537-2.73V1870.26l-2.537-2.73-.788.734,4.4,4.733,4.4-4.733-.788-.734Z" transform="translate(-446.625 -4324.463)" fill="#00223d"/>
    <path id="Trazado_28145" data-name="Trazado 28145" d="M812.739,1663.307h242.024l-2.728,2.536.734.788,4.733-4.4-4.733-4.4-.734.788,2.73,2.537H812.737l2.73-2.537-.734-.788-4.733,4.4,4.733,4.4.734-.788Z" transform="translate(-445.026 -4326.097)" fill="#00223d"/>
    <path id="Trazado_28452" data-name="Trazado 28452" d="M4.786,4.063a2.646,2.646,0,0,1,1.4.371,2.508,2.508,0,0,1,.939.993A2.915,2.915,0,0,1,7.452,6.8a2.712,2.712,0,0,1-.74,1.946,2.538,2.538,0,0,1-1.927.778H2.539V13H1.4V4.063ZM4.621,8.538a1.625,1.625,0,0,0,1.244-.479,1.773,1.773,0,0,0,.451-1.266,1.778,1.778,0,0,0-.451-1.26,1.614,1.614,0,0,0-1.244-.486H2.539V8.538Zm5.611-.679a1.886,1.886,0,0,1,.774-.838,2.332,2.332,0,0,1,1.2-.33V7.725a2.056,2.056,0,0,0-1.45.463,1.936,1.936,0,0,0-.5,1.479V13H9.16V6.76h1.073Zm8.646,1.9-.013.3H13.99a2.2,2.2,0,0,0,.6,1.6,1.959,1.959,0,0,0,1.422.555,1.871,1.871,0,0,0,1.035-.3,1.936,1.936,0,0,0,.711-.825l.99.209a2.815,2.815,0,0,1-1.066,1.339,2.909,2.909,0,0,1-1.657.489,3.014,3.014,0,0,1-2.247-.87,3.235,3.235,0,0,1-.857-2.374,3.219,3.219,0,0,1,.86-2.368,2.977,2.977,0,0,1,2.212-.87,2.817,2.817,0,0,1,2.1.8A3.16,3.16,0,0,1,18.878,9.756ZM15.99,7.484a1.946,1.946,0,0,0-1.3.441,2.021,2.021,0,0,0-.657,1.285h3.739a1.854,1.854,0,0,0-.546-1.285A1.763,1.763,0,0,0,15.99,7.484ZM26.978,6.64a2.011,2.011,0,0,1,1.454.53,1.966,1.966,0,0,1,.552,1.489V13h-1.1V8.944a1.41,1.41,0,0,0-.343-1.028,1.167,1.167,0,0,0-.87-.349,1.232,1.232,0,0,0-.952.394,1.692,1.692,0,0,0-.362,1.181V13H24.242V8.988A1.475,1.475,0,0,0,23.9,7.925a1.177,1.177,0,0,0-.885-.359,1.221,1.221,0,0,0-.949.4A1.751,1.751,0,0,0,21.7,9.179V13H20.6V6.76h1.1v.806a1.9,1.9,0,0,1,.714-.686A2.036,2.036,0,0,1,23.4,6.64,2.12,2.12,0,0,1,24.47,6.9a1.64,1.64,0,0,1,.692.759,1.942,1.942,0,0,1,.749-.759A2.142,2.142,0,0,1,26.978,6.64Zm4.691-1.346a.748.748,0,0,1-.743-.743.7.7,0,0,1,.219-.521.72.72,0,0,1,.524-.216.713.713,0,0,1,.517.216.7.7,0,0,1,.219.521.715.715,0,0,1-.219.524A.707.707,0,0,1,31.668,5.294ZM31.11,13V6.76h1.1V13Zm7.224-6.24h1.1V13H38.378l-.025-.825a1.948,1.948,0,0,1-.774.7,2.382,2.382,0,0,1-1.092.244,2.171,2.171,0,0,1-1.571-.565,2.107,2.107,0,0,1-.587-1.593V6.76h1.1v3.955a1.481,1.481,0,0,0,.384,1.117,1.359,1.359,0,0,0,.981.368,1.493,1.493,0,0,0,1.108-.432,1.758,1.758,0,0,0,.435-1.276Zm9.712-.121a2.011,2.011,0,0,1,1.454.53,1.966,1.966,0,0,1,.552,1.489V13h-1.1V8.944a1.41,1.41,0,0,0-.343-1.028,1.167,1.167,0,0,0-.87-.349,1.232,1.232,0,0,0-.952.394,1.692,1.692,0,0,0-.362,1.181V13H45.31V8.988a1.475,1.475,0,0,0-.346-1.063,1.177,1.177,0,0,0-.885-.359,1.221,1.221,0,0,0-.949.4,1.751,1.751,0,0,0-.365,1.209V13h-1.1V6.76h1.1v.806a1.9,1.9,0,0,1,.714-.686,2.036,2.036,0,0,1,.993-.241,2.12,2.12,0,0,1,1.066.263,1.64,1.64,0,0,1,.692.759,1.942,1.942,0,0,1,.749-.759A2.142,2.142,0,0,1,48.045,6.64Z" transform="translate(393.989 -2604.844)" fill="#00223d"/>
    <path id="Trazado_28453" data-name="Trazado 28453" d="M7.141,13l-.768-2.139H2.33L1.568,13H.381L3.675,4.063H5.034L8.328,13ZM2.691,9.858H6.018L4.354,5.205ZM9.826,13V3.25h1.111V13Zm5.338,0a1.64,1.64,0,0,1-1.219-.448,1.693,1.693,0,0,1-.444-1.247V7.636H12.226V6.76h.47a.9.9,0,0,0,.689-.219,1.078,1.078,0,0,0,.2-.733V4.678h1.022V6.76h1.435v.876H14.606v3.555a.946.946,0,0,0,.238.689.833.833,0,0,0,.625.244h.571V13Zm5.015.121a3.289,3.289,0,0,1-1.6-.387A2.819,2.819,0,0,1,17.453,11.6a3.48,3.48,0,0,1-.416-1.723,3.179,3.179,0,0,1,.885-2.352,3.057,3.057,0,0,1,2.257-.885,3.054,3.054,0,0,1,2.26.885,3.185,3.185,0,0,1,.882,2.352,3.187,3.187,0,0,1-.885,2.358A3.057,3.057,0,0,1,20.179,13.121Zm-.006-.914a1.916,1.916,0,0,0,1.476-.641,2.4,2.4,0,0,0,.587-1.688,2.393,2.393,0,0,0-.587-1.682,1.917,1.917,0,0,0-1.476-.641,1.89,1.89,0,0,0-1.463.641,2.409,2.409,0,0,0-.581,1.682,2.418,2.418,0,0,0,.581,1.688A1.89,1.89,0,0,0,20.173,12.207Z" transform="translate(350.64 -2697.519)" fill="#00223d"/>
    <path id="Trazado_28454" data-name="Trazado 28454" d="M7.141,13l-.768-2.139H2.33L1.568,13H.381L3.675,4.063H5.034L8.328,13ZM2.691,9.858H6.018L4.354,5.205ZM9.826,13V3.25h1.111V13Zm5.338,0a1.64,1.64,0,0,1-1.219-.448,1.693,1.693,0,0,1-.444-1.247V7.636H12.226V6.76h.47a.9.9,0,0,0,.689-.219,1.078,1.078,0,0,0,.2-.733V4.678h1.022V6.76h1.435v.876H14.606v3.555a.946.946,0,0,0,.238.689.833.833,0,0,0,.625.244h.571V13Zm3.828.121a2.123,2.123,0,0,1-1.368-.428,1.539,1.539,0,0,1-.536-1.279,1.818,1.818,0,0,1,.171-.816,1.438,1.438,0,0,1,.508-.568,3.046,3.046,0,0,1,.733-.352,6.777,6.777,0,0,1,.949-.225l1.009-.165q.552-.1.552-.578a1.09,1.09,0,0,0-.39-.93,1.591,1.591,0,0,0-.987-.3,1.62,1.62,0,0,0-.978.286,1.2,1.2,0,0,0-.463.876l-.99-.209A1.906,1.906,0,0,1,17.983,7.1a2.917,2.917,0,0,1,1.7-.448,3.45,3.45,0,0,1,.9.111,2.458,2.458,0,0,1,.755.349,1.566,1.566,0,0,1,.54.673,2.5,2.5,0,0,1,.194,1.025v2.577a1.054,1.054,0,0,0,.143.651.617.617,0,0,0,.492.168h.1V13h-.546a1.041,1.041,0,0,1-1.181-.844h-.051A2.385,2.385,0,0,1,18.992,13.121Zm.254-.889a1.665,1.665,0,0,0,1.339-.6,2.483,2.483,0,0,0,.508-1.65l-1.65.317a2.222,2.222,0,0,0-.968.346.8.8,0,0,0-.314.682.8.8,0,0,0,.3.686A1.289,1.289,0,0,0,19.246,12.232Z" transform="translate(302.425 -2654.917)" fill="#00223d"/>
    <path id="Trazado_28455" data-name="Trazado 28455" d="M5.643,8.334a2.4,2.4,0,0,1,1.292.778,2.21,2.21,0,0,1,.473,1.463,2.34,2.34,0,0,1-.689,1.752A2.517,2.517,0,0,1,4.881,13H1.4V4.063h2.71a2.745,2.745,0,0,1,1.914.657A2.2,2.2,0,0,1,6.754,6.43a2.26,2.26,0,0,1-.289,1.149A1.836,1.836,0,0,1,5.643,8.334ZM5.688,6.5a1.364,1.364,0,0,0-.428-1.035,1.606,1.606,0,0,0-1.152-.406H2.5v2.92H4.316A1.265,1.265,0,0,0,5.3,7.551,1.517,1.517,0,0,0,5.688,6.5Zm-1,5.491a1.578,1.578,0,0,0,1.177-.441A1.49,1.49,0,0,0,6.3,10.461a1.467,1.467,0,0,0-.454-1.108,1.719,1.719,0,0,0-1.241-.435H2.5v3.072Zm5.986,1.13a2.123,2.123,0,0,1-1.368-.428,1.539,1.539,0,0,1-.536-1.279,1.818,1.818,0,0,1,.171-.816,1.438,1.438,0,0,1,.508-.568,3.046,3.046,0,0,1,.733-.352,6.777,6.777,0,0,1,.949-.225l1.009-.165q.552-.1.552-.578a1.09,1.09,0,0,0-.39-.93,1.591,1.591,0,0,0-.987-.3,1.62,1.62,0,0,0-.978.286,1.2,1.2,0,0,0-.463.876l-.99-.209A1.906,1.906,0,0,1,9.667,7.1a2.917,2.917,0,0,1,1.7-.448,3.45,3.45,0,0,1,.9.111,2.458,2.458,0,0,1,.755.349,1.566,1.566,0,0,1,.54.673,2.5,2.5,0,0,1,.194,1.025v2.577a1.054,1.054,0,0,0,.143.651.617.617,0,0,0,.492.168h.1V13h-.546a1.041,1.041,0,0,1-1.181-.844h-.051A2.384,2.384,0,0,1,10.677,13.121Zm.254-.889a1.665,1.665,0,0,0,1.339-.6,2.483,2.483,0,0,0,.508-1.65l-1.65.317a2.222,2.222,0,0,0-.968.346.8.8,0,0,0-.314.682.8.8,0,0,0,.3.686A1.289,1.289,0,0,0,10.931,12.232Zm5.681-6.938a.748.748,0,0,1-.743-.743.7.7,0,0,1,.219-.521.72.72,0,0,1,.524-.216.713.713,0,0,1,.517.216.7.7,0,0,1,.219.521.715.715,0,0,1-.219.524A.707.707,0,0,1,16.612,5.294Zm-2,10.626v-.933a1.786,1.786,0,0,0,.9-.178.973.973,0,0,0,.419-.609,5.132,5.132,0,0,0,.121-1.289V6.76h1.111v6.151a3.629,3.629,0,0,1-.578,2.33A2.465,2.465,0,0,1,14.612,15.92Zm7.414-2.8a3.289,3.289,0,0,1-1.6-.387A2.819,2.819,0,0,1,19.3,11.6a3.48,3.48,0,0,1-.416-1.723,3.179,3.179,0,0,1,.885-2.352,3.322,3.322,0,0,1,4.516,0,3.185,3.185,0,0,1,.882,2.352,3.187,3.187,0,0,1-.885,2.358A3.057,3.057,0,0,1,22.026,13.121Zm-.006-.914a1.916,1.916,0,0,0,1.476-.641,2.4,2.4,0,0,0,.587-1.688A2.393,2.393,0,0,0,23.5,8.195a1.917,1.917,0,0,0-1.476-.641,1.89,1.89,0,0,0-1.463.641,2.409,2.409,0,0,0-.581,1.682,2.418,2.418,0,0,0,.581,1.688A1.89,1.89,0,0,0,22.02,12.207Z" transform="translate(597.84 -2697.519)" fill="#00223d"/>
    <path id="Trazado_28456" data-name="Trazado 28456" d="M5.643,8.334a2.4,2.4,0,0,1,1.292.778,2.21,2.21,0,0,1,.473,1.463,2.34,2.34,0,0,1-.689,1.752A2.517,2.517,0,0,1,4.881,13H1.4V4.063h2.71a2.745,2.745,0,0,1,1.914.657A2.2,2.2,0,0,1,6.754,6.43a2.26,2.26,0,0,1-.289,1.149A1.836,1.836,0,0,1,5.643,8.334ZM5.688,6.5a1.364,1.364,0,0,0-.428-1.035,1.606,1.606,0,0,0-1.152-.406H2.5v2.92H4.316A1.265,1.265,0,0,0,5.3,7.551,1.517,1.517,0,0,0,5.688,6.5Zm-1,5.491a1.578,1.578,0,0,0,1.177-.441A1.49,1.49,0,0,0,6.3,10.461a1.467,1.467,0,0,0-.454-1.108,1.719,1.719,0,0,0-1.241-.435H2.5v3.072Zm5.986,1.13a2.123,2.123,0,0,1-1.368-.428,1.539,1.539,0,0,1-.536-1.279,1.818,1.818,0,0,1,.171-.816,1.438,1.438,0,0,1,.508-.568,3.046,3.046,0,0,1,.733-.352,6.777,6.777,0,0,1,.949-.225l1.009-.165q.552-.1.552-.578a1.09,1.09,0,0,0-.39-.93,1.591,1.591,0,0,0-.987-.3,1.62,1.62,0,0,0-.978.286,1.2,1.2,0,0,0-.463.876l-.99-.209A1.906,1.906,0,0,1,9.667,7.1a2.917,2.917,0,0,1,1.7-.448,3.45,3.45,0,0,1,.9.111,2.458,2.458,0,0,1,.755.349,1.566,1.566,0,0,1,.54.673,2.5,2.5,0,0,1,.194,1.025v2.577a1.054,1.054,0,0,0,.143.651.617.617,0,0,0,.492.168h.1V13h-.546a1.041,1.041,0,0,1-1.181-.844h-.051A2.384,2.384,0,0,1,10.677,13.121Zm.254-.889a1.665,1.665,0,0,0,1.339-.6,2.483,2.483,0,0,0,.508-1.65l-1.65.317a2.222,2.222,0,0,0-.968.346.8.8,0,0,0-.314.682.8.8,0,0,0,.3.686A1.289,1.289,0,0,0,10.931,12.232Zm5.681-6.938a.748.748,0,0,1-.743-.743.7.7,0,0,1,.219-.521.72.72,0,0,1,.524-.216.713.713,0,0,1,.517.216.7.7,0,0,1,.219.521.715.715,0,0,1-.219.524A.707.707,0,0,1,16.612,5.294Zm-2,10.626v-.933a1.786,1.786,0,0,0,.9-.178.973.973,0,0,0,.419-.609,5.132,5.132,0,0,0,.121-1.289V6.76h1.111v6.151a3.629,3.629,0,0,1-.578,2.33A2.465,2.465,0,0,1,14.612,15.92Zm6.227-2.8a2.123,2.123,0,0,1-1.368-.428,1.539,1.539,0,0,1-.536-1.279,1.818,1.818,0,0,1,.171-.816,1.438,1.438,0,0,1,.508-.568,3.046,3.046,0,0,1,.733-.352,6.777,6.777,0,0,1,.949-.225l1.009-.165q.552-.1.552-.578a1.09,1.09,0,0,0-.39-.93,1.591,1.591,0,0,0-.987-.3,1.62,1.62,0,0,0-.978.286,1.2,1.2,0,0,0-.463.876l-.99-.209A1.906,1.906,0,0,1,19.83,7.1a2.917,2.917,0,0,1,1.7-.448,3.45,3.45,0,0,1,.9.111,2.458,2.458,0,0,1,.755.349,1.566,1.566,0,0,1,.54.673,2.5,2.5,0,0,1,.194,1.025v2.577a1.054,1.054,0,0,0,.143.651.617.617,0,0,0,.492.168h.1V13h-.546a1.041,1.041,0,0,1-1.181-.844h-.051A2.385,2.385,0,0,1,20.839,13.121Zm.254-.889a1.665,1.665,0,0,0,1.339-.6,2.483,2.483,0,0,0,.508-1.65l-1.65.317a2.222,2.222,0,0,0-.968.346.8.8,0,0,0-.314.682.8.8,0,0,0,.3.686A1.289,1.289,0,0,0,21.093,12.232Z" transform="translate(301.822 -2464.729)" fill="#00223d"/>
    <path id="Trazado_28457" data-name="Trazado 28457" d="M16.825,16.156a6.3,6.3,0,0,1-2.3-.414,5.41,5.41,0,0,1-1.832-1.156,5.212,5.212,0,0,1-1.2-1.836,6.4,6.4,0,0,1-.437-2.4,6.115,6.115,0,0,1,.75-3.066A5.106,5.106,0,0,1,13.86,5.258a6.164,6.164,0,0,1,2.965-.7,5.99,5.99,0,0,1,3.313.914,5,5,0,0,1,2.023,2.516l-2.187.8a3.092,3.092,0,0,0-1.211-1.523,3.459,3.459,0,0,0-1.937-.547,3.316,3.316,0,0,0-2.469.984,3.622,3.622,0,0,0-.969,2.656,3.627,3.627,0,0,0,.973,2.66A3.312,3.312,0,0,0,16.825,14a3.446,3.446,0,0,0,1.934-.551,3.107,3.107,0,0,0,1.215-1.527l2.188.8a5.024,5.024,0,0,1-2.023,2.52A5.971,5.971,0,0,1,16.825,16.156ZM30.372,13.82a7.513,7.513,0,0,0,.2,1.961V16h-2.1l-.18-.875a2.611,2.611,0,0,1-1.125.773,4.146,4.146,0,0,1-1.453.258,3.821,3.821,0,0,1-.75-.07,2.55,2.55,0,0,1-.676-.238,2.051,2.051,0,0,1-.559-.418,1.833,1.833,0,0,1-.375-.637,2.536,2.536,0,0,1-.141-.871,2.416,2.416,0,0,1,.148-.871,2.042,2.042,0,0,1,.391-.652,2.369,2.369,0,0,1,.633-.477,4.842,4.842,0,0,1,.8-.344,9.521,9.521,0,0,1,.953-.25l1.32-.3a1.456,1.456,0,0,0,.6-.254.506.506,0,0,0,.176-.4.829.829,0,0,0-.395-.773,1.842,1.842,0,0,0-.957-.234,1.377,1.377,0,0,0-1.57,1.227l-1.992-.359A2.7,2.7,0,0,1,24.473,8.4,4.627,4.627,0,0,1,27,7.813q3.375,0,3.375,2.9Zm-3.961.813a1.81,1.81,0,0,0,1.391-.582,2.453,2.453,0,0,0,.539-1.723l-1.906.539a2.253,2.253,0,0,0-.8.328.674.674,0,0,0-.277.578.748.748,0,0,0,.3.637A1.229,1.229,0,0,0,26.411,14.633ZM32.559,16V4h2.273V16Zm5.75-9.234a1.263,1.263,0,0,1-.922-.379A1.244,1.244,0,0,1,37,5.469a1.229,1.229,0,0,1,.387-.91,1.267,1.267,0,0,1,.918-.379A1.3,1.3,0,0,1,39.6,5.469a1.3,1.3,0,0,1-1.289,1.3ZM37.161,16V7.969h2.266V16ZM47.45,4H49.7V16H47.567l-.055-1.047a2.294,2.294,0,0,1-1.02.91,3.432,3.432,0,0,1-1.5.324,3.906,3.906,0,0,1-1.5-.289,3.613,3.613,0,0,1-2.062-2.141,4.885,4.885,0,0,1-.3-1.758,4.566,4.566,0,0,1,.531-2.238,3.64,3.64,0,0,1,1.4-1.457,3.862,3.862,0,0,1,1.934-.492,3.518,3.518,0,0,1,1.457.293,2.275,2.275,0,0,1,1,.832ZM45.5,14.32a2,2,0,0,0,1.52-.641A2.345,2.345,0,0,0,47.629,12a2.35,2.35,0,0,0-.609-1.684A2,2,0,0,0,45.5,9.672a2.024,2.024,0,0,0-1.527.633,2.35,2.35,0,0,0-.605,1.7,2.339,2.339,0,0,0,.605,1.688A2.024,2.024,0,0,0,45.5,14.32Zm13.109-.5a7.513,7.513,0,0,0,.2,1.961V16h-2.1l-.18-.875A2.611,2.611,0,0,1,55.4,15.9a4.146,4.146,0,0,1-1.453.258,3.821,3.821,0,0,1-.75-.07,2.55,2.55,0,0,1-.676-.238,2.051,2.051,0,0,1-.559-.418,1.833,1.833,0,0,1-.375-.637,2.536,2.536,0,0,1-.141-.871,2.416,2.416,0,0,1,.148-.871,2.042,2.042,0,0,1,.391-.652,2.369,2.369,0,0,1,.633-.477,4.842,4.842,0,0,1,.8-.344,9.521,9.521,0,0,1,.953-.25l1.32-.3a1.456,1.456,0,0,0,.6-.254.506.506,0,0,0,.176-.4.829.829,0,0,0-.395-.773,1.842,1.842,0,0,0-.957-.234,1.377,1.377,0,0,0-1.57,1.227l-1.992-.359A2.7,2.7,0,0,1,52.715,8.4a4.627,4.627,0,0,1,2.523-.59q3.375,0,3.375,2.9Zm-3.961.813a1.81,1.81,0,0,0,1.391-.582,2.453,2.453,0,0,0,.539-1.723l-1.906.539a2.253,2.253,0,0,0-.8.328.674.674,0,0,0-.277.578.748.748,0,0,0,.3.637A1.229,1.229,0,0,0,54.653,14.633ZM66.317,4h2.25V16H66.434l-.055-1.047a2.294,2.294,0,0,1-1.02.91,3.432,3.432,0,0,1-1.5.324,3.906,3.906,0,0,1-1.5-.289,3.613,3.613,0,0,1-2.062-2.141,4.885,4.885,0,0,1-.3-1.758,4.566,4.566,0,0,1,.531-2.238,3.64,3.64,0,0,1,1.4-1.457,3.862,3.862,0,0,1,1.934-.492,3.518,3.518,0,0,1,1.457.293,2.275,2.275,0,0,1,1,.832ZM64.372,14.32a2,2,0,0,0,1.52-.641A2.345,2.345,0,0,0,66.5,12a2.35,2.35,0,0,0-.609-1.684,2,2,0,0,0-1.516-.645,2.024,2.024,0,0,0-1.527.633,2.35,2.35,0,0,0-.605,1.7,2.339,2.339,0,0,0,.605,1.688A2.024,2.024,0,0,0,64.372,14.32Z" transform="translate(261.362 -2559.177)" fill="#00223d"/>
    <path id="Trazado_28458" data-name="Trazado 28458" d="M6.156,4.711a3.4,3.4,0,0,1,2.6,1.051,3.655,3.655,0,0,1,.984,2.6,3.565,3.565,0,0,1-.977,2.582,3.459,3.459,0,0,1-2.609,1.012H3.8V16H1.461V4.711ZM5.766,9.992a1.722,1.722,0,0,0,1.289-.441,1.679,1.679,0,0,0,.43-1.223,1.665,1.665,0,0,0-.434-1.207,1.707,1.707,0,0,0-1.285-.449H3.8v3.32Zm7.8-.75a2.607,2.607,0,0,1,1.055-.965,3.218,3.218,0,0,1,1.57-.4V9.883a3.043,3.043,0,0,0-1.922.484,2.115,2.115,0,0,0-.594,1.719V16H11.414V7.969H13.57Zm11.453,2.625L25,12.406H19.047a2.079,2.079,0,0,0,.641,1.469,2.049,2.049,0,0,0,1.414.508,1.974,1.974,0,0,0,1.059-.277,1.7,1.7,0,0,0,.676-.809l2.063.3a3.506,3.506,0,0,1-1.406,1.883,4.181,4.181,0,0,1-2.375.672,4.348,4.348,0,0,1-3.129-1.105,4.034,4.034,0,0,1-1.16-3.066,4.058,4.058,0,0,1,1.164-3.066A4.219,4.219,0,0,1,21.047,7.8,4.032,4.032,0,0,1,23.93,8.82,4.015,4.015,0,0,1,25.023,11.867ZM21.063,9.391a1.778,1.778,0,0,0-1.953,1.547H22.8a1.691,1.691,0,0,0-.555-1.148A1.758,1.758,0,0,0,21.063,9.391Zm9.3,6.758a4.291,4.291,0,0,1-3.1-1.156,3.994,3.994,0,0,1-1.2-3.016,3.984,3.984,0,0,1,1.2-3.016,4.3,4.3,0,0,1,3.105-1.148,4.279,4.279,0,0,1,2.6.773,3.453,3.453,0,0,1,1.344,2.18l-2.078.227a1.78,1.78,0,0,0-.672-1.055,2.043,2.043,0,0,0-1.219-.352,1.842,1.842,0,0,0-1.469.656,2.573,2.573,0,0,0-.562,1.734,2.576,2.576,0,0,0,.563,1.73,1.837,1.837,0,0,0,1.469.66,2.025,2.025,0,0,0,1.215-.352,1.822,1.822,0,0,0,.676-1.055l2.078.227a3.463,3.463,0,0,1-1.355,2.18A4.262,4.262,0,0,1,30.367,16.148Zm6.7-9.383a1.263,1.263,0,0,1-.922-.379,1.244,1.244,0,0,1-.383-.918,1.229,1.229,0,0,1,.387-.91,1.267,1.267,0,0,1,.918-.379,1.3,1.3,0,0,1,1.289,1.289,1.3,1.3,0,0,1-1.289,1.3ZM35.914,16V7.969H38.18V16Zm8.336.156a5.05,5.05,0,0,1-2.273-.492,3.679,3.679,0,0,1-1.559-1.445,4.307,4.307,0,0,1-.566-2.242A3.929,3.929,0,0,1,41.07,8.93a5.095,5.095,0,0,1,6.367,0,3.929,3.929,0,0,1,1.219,3.047,3.951,3.951,0,0,1-1.219,3.059A4.523,4.523,0,0,1,44.25,16.156Zm-.023-1.789a2.061,2.061,0,0,0,1.59-.656,2.457,2.457,0,0,0,.605-1.734,2.457,2.457,0,0,0-.605-1.734,2.061,2.061,0,0,0-1.59-.656,1.986,1.986,0,0,0-1.543.66,2.479,2.479,0,0,0-.6,1.73,2.479,2.479,0,0,0,.6,1.73A1.986,1.986,0,0,0,44.227,14.367Z" transform="translate(461.822 -2700)" fill="#00223d"/>
    <path id="Trazado_28459" data-name="Trazado 28459" d="M7.408,4.063h1.13V13h-1.2L2.52,5.77V13H1.4V4.063H2.59l4.818,7.2ZM13.6,13.121a3.289,3.289,0,0,1-1.6-.387A2.819,2.819,0,0,1,10.87,11.6a3.48,3.48,0,0,1-.416-1.723,3.179,3.179,0,0,1,.885-2.352A3.057,3.057,0,0,1,13.6,6.64a3.054,3.054,0,0,1,2.26.885,3.185,3.185,0,0,1,.882,2.352,3.187,3.187,0,0,1-.885,2.358A3.057,3.057,0,0,1,13.6,13.121Zm-.006-.914a1.916,1.916,0,0,0,1.476-.641,2.4,2.4,0,0,0,.587-1.688,2.393,2.393,0,0,0-.587-1.682,1.916,1.916,0,0,0-1.476-.641,1.89,1.89,0,0,0-1.463.641,2.409,2.409,0,0,0-.581,1.682,2.418,2.418,0,0,0,.581,1.688A1.89,1.89,0,0,0,13.59,12.207Zm10.835.908a3.005,3.005,0,0,1-2.234-.9,3.193,3.193,0,0,1-.882-2.342,3.2,3.2,0,0,1,.879-2.342,3.251,3.251,0,0,1,4.043-.349A2.755,2.755,0,0,1,27.282,8.7l-1.028.165a1.9,1.9,0,0,0-.7-.971,1.918,1.918,0,0,0-1.13-.343,1.845,1.845,0,0,0-1.444.641,2.442,2.442,0,0,0-.568,1.682,2.43,2.43,0,0,0,.568,1.679,1.849,1.849,0,0,0,1.444.638,1.918,1.918,0,0,0,1.13-.343,1.9,1.9,0,0,0,.7-.971l1.028.171a2.758,2.758,0,0,1-1.057,1.514A3.023,3.023,0,0,1,24.426,13.114Zm7.1.006a3.289,3.289,0,0,1-1.6-.387A2.819,2.819,0,0,1,28.8,11.6a3.48,3.48,0,0,1-.416-1.723,3.179,3.179,0,0,1,.885-2.352,3.322,3.322,0,0,1,4.516,0,3.185,3.185,0,0,1,.882,2.352,3.187,3.187,0,0,1-.885,2.358A3.057,3.057,0,0,1,31.529,13.121Zm-.006-.914A1.916,1.916,0,0,0,33,11.565a2.4,2.4,0,0,0,.587-1.688A2.393,2.393,0,0,0,33,8.195a1.916,1.916,0,0,0-1.476-.641,1.89,1.89,0,0,0-1.463.641,2.409,2.409,0,0,0-.581,1.682,2.418,2.418,0,0,0,.581,1.688A1.89,1.89,0,0,0,31.522,12.207ZM42.771,6.64a2.011,2.011,0,0,1,1.454.53,1.966,1.966,0,0,1,.552,1.489V13h-1.1V8.944a1.41,1.41,0,0,0-.343-1.028,1.167,1.167,0,0,0-.87-.349,1.232,1.232,0,0,0-.952.394,1.692,1.692,0,0,0-.362,1.181V13H40.035V8.988a1.475,1.475,0,0,0-.346-1.063,1.177,1.177,0,0,0-.885-.359,1.221,1.221,0,0,0-.949.4,1.751,1.751,0,0,0-.365,1.209V13h-1.1V6.76h1.1v.806a1.9,1.9,0,0,1,.714-.686A2.036,2.036,0,0,1,39.2,6.64a2.12,2.12,0,0,1,1.066.263,1.64,1.64,0,0,1,.692.759A1.942,1.942,0,0,1,41.7,6.9,2.142,2.142,0,0,1,42.771,6.64Zm7.427,0a2.838,2.838,0,0,1,1.13.229,2.779,2.779,0,0,1,.927.641,3,3,0,0,1,.625,1.028,3.792,3.792,0,0,1,.232,1.346,3.3,3.3,0,0,1-.841,2.355,2.732,2.732,0,0,1-2.073.9,2.47,2.47,0,0,1-1.3-.355A2.33,2.33,0,0,1,48,11.819v4.323H46.9V6.76h1.06l.025,1.212A2.284,2.284,0,0,1,48.877,7,2.493,2.493,0,0,1,50.2,6.64Zm-.216,5.542a1.9,1.9,0,0,0,1.444-.632,2.349,2.349,0,0,0,.587-1.666,2.338,2.338,0,0,0-.587-1.663,1.969,1.969,0,0,0-2.91.029,2.34,2.34,0,0,0-.6,1.635,2.349,2.349,0,0,0,.6,1.641A1.9,1.9,0,0,0,49.981,12.181ZM60.3,9.756l-.013.3H55.415a2.2,2.2,0,0,0,.6,1.6,1.959,1.959,0,0,0,1.422.555,1.871,1.871,0,0,0,1.035-.3,1.936,1.936,0,0,0,.711-.825l.99.209A2.815,2.815,0,0,1,59.1,12.632a2.909,2.909,0,0,1-1.657.489,3.014,3.014,0,0,1-2.247-.87,3.235,3.235,0,0,1-.857-2.374,3.219,3.219,0,0,1,.86-2.368,2.977,2.977,0,0,1,2.212-.87,2.817,2.817,0,0,1,2.1.8A3.16,3.16,0,0,1,60.3,9.756ZM57.415,7.484a1.946,1.946,0,0,0-1.3.441,2.021,2.021,0,0,0-.657,1.285H59.2a1.854,1.854,0,0,0-.546-1.285A1.763,1.763,0,0,0,57.415,7.484ZM64.016,13a1.64,1.64,0,0,1-1.219-.448,1.693,1.693,0,0,1-.444-1.247V7.636H61.077V6.76h.47a.9.9,0,0,0,.689-.219,1.078,1.078,0,0,0,.2-.733V4.678h1.022V6.76h1.435v.876H63.458v3.555a.946.946,0,0,0,.238.689.833.833,0,0,0,.625.244h.571V13Zm3.021-7.706a.748.748,0,0,1-.743-.743.7.7,0,0,1,.219-.521.72.72,0,0,1,.524-.216.713.713,0,0,1,.517.216.7.7,0,0,1,.219.521.715.715,0,0,1-.219.524A.707.707,0,0,1,67.038,5.294ZM66.479,13V6.76h1.1V13Zm5.332,0a1.64,1.64,0,0,1-1.219-.448,1.693,1.693,0,0,1-.444-1.247V7.636H68.872V6.76h.47a.9.9,0,0,0,.689-.219,1.078,1.078,0,0,0,.2-.733V4.678h1.022V6.76h1.435v.876H71.252v3.555a.946.946,0,0,0,.238.689.833.833,0,0,0,.625.244h.571V13Zm3.021-7.706a.748.748,0,0,1-.743-.743.7.7,0,0,1,.219-.521.72.72,0,0,1,.524-.216.713.713,0,0,1,.517.216.7.7,0,0,1,.219.521.715.715,0,0,1-.219.524A.707.707,0,0,1,74.833,5.294ZM74.274,13V6.76h1.1V13ZM81.5,6.76h1.174L80.139,13h-.933L76.68,6.76h1.168l1.828,4.964Zm3.669,6.36a2.123,2.123,0,0,1-1.368-.428,1.539,1.539,0,0,1-.536-1.279,1.818,1.818,0,0,1,.171-.816,1.438,1.438,0,0,1,.508-.568,3.046,3.046,0,0,1,.733-.352,6.777,6.777,0,0,1,.949-.225l1.009-.165q.552-.1.552-.578a1.09,1.09,0,0,0-.39-.93,1.591,1.591,0,0,0-.987-.3,1.62,1.62,0,0,0-.978.286,1.2,1.2,0,0,0-.463.876l-.99-.209A1.906,1.906,0,0,1,84.164,7.1a2.917,2.917,0,0,1,1.7-.448,3.45,3.45,0,0,1,.9.111,2.458,2.458,0,0,1,.755.349,1.566,1.566,0,0,1,.54.673,2.5,2.5,0,0,1,.194,1.025v2.577a1.054,1.054,0,0,0,.143.651.617.617,0,0,0,.492.168h.1V13h-.546a1.041,1.041,0,0,1-1.181-.844h-.051A2.385,2.385,0,0,1,85.173,13.121Zm.254-.889a1.665,1.665,0,0,0,1.339-.6,2.483,2.483,0,0,0,.508-1.65l-1.65.317a2.222,2.222,0,0,0-.968.346.8.8,0,0,0-.314.682.8.8,0,0,0,.3.686A1.289,1.289,0,0,0,85.427,12.232Z" transform="translate(379.616 -2510.488)" fill="#00223d"/>
    <path id="Trazado_28460" data-name="Trazado 28460" d="M7.141,13l-.768-2.139H2.33L1.568,13H.381L3.675,4.063H5.034L8.328,13ZM2.691,9.858H6.018L4.354,5.205ZM14.346,3.25h1.1V13h-1.06l-.025-1.212a2.3,2.3,0,0,1-.889.984,2.476,2.476,0,0,1-1.32.362,2.836,2.836,0,0,1-2.06-.879,3,3,0,0,1-.628-1.031,3.773,3.773,0,0,1-.232-1.339,3.281,3.281,0,0,1,.847-2.342,2.736,2.736,0,0,1,2.073-.9,2.487,2.487,0,0,1,1.3.352,2.309,2.309,0,0,1,.892.955Zm-1.968,8.931a1.869,1.869,0,0,0,1.45-.657,2.371,2.371,0,0,0,.587-1.641,2.367,2.367,0,0,0-.59-1.638,1.868,1.868,0,0,0-1.447-.66,1.91,1.91,0,0,0-1.46.638,2.347,2.347,0,0,0-.59,1.66,2.347,2.347,0,0,0,.59,1.66A1.91,1.91,0,0,0,12.378,12.181ZM23.137,9.756l-.013.3H18.25a2.2,2.2,0,0,0,.6,1.6,1.959,1.959,0,0,0,1.422.555,1.871,1.871,0,0,0,1.035-.3,1.936,1.936,0,0,0,.711-.825l.99.209a2.815,2.815,0,0,1-1.066,1.339,2.909,2.909,0,0,1-1.657.489,3.014,3.014,0,0,1-2.247-.87,3.235,3.235,0,0,1-.857-2.374,3.22,3.22,0,0,1,.86-2.368,2.977,2.977,0,0,1,2.212-.87,2.817,2.817,0,0,1,2.1.8A3.16,3.16,0,0,1,23.137,9.756ZM20.249,7.484a1.946,1.946,0,0,0-1.3.441,2.021,2.021,0,0,0-.657,1.285h3.739a1.854,1.854,0,0,0-.546-1.285A1.763,1.763,0,0,0,20.249,7.484Zm7.2,5.63a3.005,3.005,0,0,1-2.234-.9,3.193,3.193,0,0,1-.882-2.342,3.2,3.2,0,0,1,.879-2.342,3.251,3.251,0,0,1,4.043-.349A2.755,2.755,0,0,1,30.3,8.7l-1.028.165a1.9,1.9,0,0,0-.7-.971,1.918,1.918,0,0,0-1.13-.343A1.845,1.845,0,0,0,26,8.195a2.442,2.442,0,0,0-.568,1.682A2.43,2.43,0,0,0,26,11.556a1.849,1.849,0,0,0,1.444.638,1.918,1.918,0,0,0,1.13-.343,1.9,1.9,0,0,0,.7-.971l1.028.171a2.758,2.758,0,0,1-1.057,1.514A3.023,3.023,0,0,1,27.447,13.114Zm8.36-6.354h1.1V13H35.852l-.025-.825a1.948,1.948,0,0,1-.774.7,2.382,2.382,0,0,1-1.092.244,2.171,2.171,0,0,1-1.571-.565,2.107,2.107,0,0,1-.587-1.593V6.76h1.1v3.955a1.481,1.481,0,0,0,.384,1.117,1.359,1.359,0,0,0,.981.368,1.493,1.493,0,0,0,1.108-.432,1.758,1.758,0,0,0,.435-1.276Zm4.773,6.36a2.123,2.123,0,0,1-1.368-.428,1.539,1.539,0,0,1-.536-1.279,1.818,1.818,0,0,1,.171-.816,1.438,1.438,0,0,1,.508-.568,3.046,3.046,0,0,1,.733-.352,6.777,6.777,0,0,1,.949-.225l1.009-.165q.552-.1.552-.578a1.09,1.09,0,0,0-.39-.93,1.591,1.591,0,0,0-.987-.3,1.62,1.62,0,0,0-.978.286,1.2,1.2,0,0,0-.463.876l-.99-.209A1.906,1.906,0,0,1,39.571,7.1a2.917,2.917,0,0,1,1.7-.448,3.45,3.45,0,0,1,.9.111,2.458,2.458,0,0,1,.755.349,1.566,1.566,0,0,1,.54.673,2.5,2.5,0,0,1,.194,1.025v2.577a1.054,1.054,0,0,0,.143.651.617.617,0,0,0,.492.168h.1V13h-.546a1.041,1.041,0,0,1-1.181-.844h-.051A2.384,2.384,0,0,1,40.581,13.121Zm.254-.889a1.665,1.665,0,0,0,1.339-.6,2.483,2.483,0,0,0,.508-1.65l-1.65.317a2.222,2.222,0,0,0-.968.346.8.8,0,0,0-.314.682.8.8,0,0,0,.3.686A1.289,1.289,0,0,0,40.834,12.232Zm9.6-8.982h1.1V13H50.47l-.025-1.212a2.3,2.3,0,0,1-.889.984,2.476,2.476,0,0,1-1.32.362,2.836,2.836,0,0,1-2.06-.879,3,3,0,0,1-.628-1.031,3.773,3.773,0,0,1-.232-1.339,3.281,3.281,0,0,1,.847-2.342,2.736,2.736,0,0,1,2.073-.9,2.487,2.487,0,0,1,1.3.352,2.309,2.309,0,0,1,.892.955Zm-1.968,8.931a1.869,1.869,0,0,0,1.45-.657A2.371,2.371,0,0,0,50.5,9.883a2.367,2.367,0,0,0-.59-1.638,1.868,1.868,0,0,0-1.447-.66A1.91,1.91,0,0,0,47,8.223a2.347,2.347,0,0,0-.59,1.66,2.347,2.347,0,0,0,.59,1.66A1.91,1.91,0,0,0,48.464,12.181Zm6.741.939a2.123,2.123,0,0,1-1.368-.428,1.539,1.539,0,0,1-.536-1.279,1.818,1.818,0,0,1,.171-.816,1.438,1.438,0,0,1,.508-.568,3.046,3.046,0,0,1,.733-.352,6.777,6.777,0,0,1,.949-.225l1.009-.165q.552-.1.552-.578a1.09,1.09,0,0,0-.39-.93,1.591,1.591,0,0,0-.987-.3,1.62,1.62,0,0,0-.978.286,1.2,1.2,0,0,0-.463.876l-.99-.209A1.906,1.906,0,0,1,54.2,7.1a2.917,2.917,0,0,1,1.7-.448,3.45,3.45,0,0,1,.9.111,2.458,2.458,0,0,1,.755.349,1.566,1.566,0,0,1,.54.673,2.5,2.5,0,0,1,.194,1.025v2.577a1.054,1.054,0,0,0,.143.651.617.617,0,0,0,.492.168h.1V13h-.546a1.041,1.041,0,0,1-1.181-.844H57.25A2.384,2.384,0,0,1,55.206,13.121Zm.254-.889a1.665,1.665,0,0,0,1.339-.6,2.483,2.483,0,0,0,.508-1.65l-1.65.317a2.222,2.222,0,0,0-.968.346.8.8,0,0,0-.314.682.8.8,0,0,0,.3.686A1.289,1.289,0,0,0,55.459,12.232ZM4.786,19.663a2.646,2.646,0,0,1,1.4.371,2.508,2.508,0,0,1,.939.993A2.915,2.915,0,0,1,7.452,22.4a2.712,2.712,0,0,1-.74,1.946,2.538,2.538,0,0,1-1.927.778H2.539V28.6H1.4V19.663Zm-.165,4.475a1.625,1.625,0,0,0,1.244-.479,2,2,0,0,0,0-2.526,1.614,1.614,0,0,0-1.244-.486H2.539v3.491Zm5.611-.679a1.886,1.886,0,0,1,.774-.838,2.332,2.332,0,0,1,1.2-.33v1.035a2.056,2.056,0,0,0-1.45.463,1.936,1.936,0,0,0-.5,1.479V28.6H9.16V22.36h1.073Zm8.646,1.9-.013.3H13.99a2.2,2.2,0,0,0,.6,1.6,1.959,1.959,0,0,0,1.422.555,1.871,1.871,0,0,0,1.035-.3,1.936,1.936,0,0,0,.711-.825l.99.209a2.815,2.815,0,0,1-1.066,1.339,2.909,2.909,0,0,1-1.657.489,3.014,3.014,0,0,1-2.247-.87,3.235,3.235,0,0,1-.857-2.374,3.219,3.219,0,0,1,.86-2.368,2.977,2.977,0,0,1,2.212-.87,2.817,2.817,0,0,1,2.1.8A3.16,3.16,0,0,1,18.878,25.356ZM15.99,23.084a1.946,1.946,0,0,0-1.3.441,2.021,2.021,0,0,0-.657,1.285h3.739a1.854,1.854,0,0,0-.546-1.285A1.763,1.763,0,0,0,15.99,23.084Zm7.2,5.63a3.005,3.005,0,0,1-2.234-.9,3.193,3.193,0,0,1-.882-2.342,3.2,3.2,0,0,1,.879-2.342,3.251,3.251,0,0,1,4.043-.349A2.755,2.755,0,0,1,26.044,24.3l-1.028.165a1.9,1.9,0,0,0-.7-.971,1.919,1.919,0,0,0-1.13-.343,1.845,1.845,0,0,0-1.444.641,2.77,2.77,0,0,0,0,3.361,1.849,1.849,0,0,0,1.444.638,1.918,1.918,0,0,0,1.13-.343,1.9,1.9,0,0,0,.7-.971l1.028.171a2.758,2.758,0,0,1-1.057,1.514A3.023,3.023,0,0,1,23.188,28.714Zm5.034-7.82a.748.748,0,0,1-.743-.743.7.7,0,0,1,.219-.521.72.72,0,0,1,.524-.216.713.713,0,0,1,.517.216.7.7,0,0,1,.219.521.715.715,0,0,1-.219.524A.707.707,0,0,1,28.222,20.894ZM27.663,28.6V22.36h1.1V28.6Zm5.967.121a3.289,3.289,0,0,1-1.6-.387A2.819,2.819,0,0,1,30.9,27.2a3.48,3.48,0,0,1-.416-1.723,3.179,3.179,0,0,1,.885-2.352,3.322,3.322,0,0,1,4.516,0,3.185,3.185,0,0,1,.882,2.352,3.187,3.187,0,0,1-.885,2.358A3.057,3.057,0,0,1,33.63,28.721Zm-.006-.914a1.916,1.916,0,0,0,1.476-.641,2.712,2.712,0,0,0,0-3.371,1.916,1.916,0,0,0-1.476-.641,1.89,1.89,0,0,0-1.463.641,2.735,2.735,0,0,0,0,3.371A1.89,1.89,0,0,0,33.624,27.807Zm3.206,3.155,6.3-12.111h1.06l-6.3,12.111Zm12.562-2.241a4.748,4.748,0,0,1-1.758-.321,4.246,4.246,0,0,1-1.412-.9,4.021,4.021,0,0,1-.939-1.45,5.246,5.246,0,0,1-.34-1.923,5.16,5.16,0,0,1,.343-1.914,4.013,4.013,0,0,1,2.349-2.352,4.79,4.79,0,0,1,1.758-.317,4.541,4.541,0,0,1,2.377.628,3.915,3.915,0,0,1,1.571,1.746l-1.047.432a2.943,2.943,0,0,0-1.171-1.273,3.361,3.361,0,0,0-1.73-.448,3.554,3.554,0,0,0-1.3.235,3.118,3.118,0,0,0-1.054.673,3.038,3.038,0,0,0-.708,1.1,4.429,4.429,0,0,0,0,2.974,3.033,3.033,0,0,0,.708,1.108,3.159,3.159,0,0,0,1.054.676,3.512,3.512,0,0,0,1.3.238,3.361,3.361,0,0,0,1.73-.448,2.95,2.95,0,0,0,1.171-1.266l1.047.425A3.9,3.9,0,0,1,51.771,28.1,4.554,4.554,0,0,1,49.391,28.721Zm7.052,0a2.123,2.123,0,0,1-1.368-.428,1.539,1.539,0,0,1-.536-1.279,1.818,1.818,0,0,1,.171-.816,1.438,1.438,0,0,1,.508-.568,3.046,3.046,0,0,1,.733-.352,6.777,6.777,0,0,1,.949-.225l1.009-.165q.552-.1.552-.578a1.09,1.09,0,0,0-.39-.93,1.591,1.591,0,0,0-.987-.3,1.62,1.62,0,0,0-.978.286,1.2,1.2,0,0,0-.463.876l-.99-.209a1.906,1.906,0,0,1,.781-1.336,2.917,2.917,0,0,1,1.7-.448,3.45,3.45,0,0,1,.9.111,2.458,2.458,0,0,1,.755.349,1.566,1.566,0,0,1,.54.673,2.5,2.5,0,0,1,.194,1.025v2.577a1.054,1.054,0,0,0,.143.651.617.617,0,0,0,.492.168h.1V28.6h-.546a1.041,1.041,0,0,1-1.181-.844h-.051A2.385,2.385,0,0,1,56.443,28.721Zm.254-.889a1.665,1.665,0,0,0,1.339-.6,2.483,2.483,0,0,0,.508-1.65l-1.65.317a2.222,2.222,0,0,0-.968.346.8.8,0,0,0-.314.682.8.8,0,0,0,.3.686A1.289,1.289,0,0,0,56.7,27.832Zm5.116.768V18.85h1.111V28.6Zm3.9-7.706a.748.748,0,0,1-.743-.743.7.7,0,0,1,.219-.521.72.72,0,0,1,.524-.216.713.713,0,0,1,.517.216.7.7,0,0,1,.219.521.715.715,0,0,1-.219.524A.707.707,0,0,1,65.717,20.894ZM65.159,28.6V22.36h1.1V28.6Zm7.947-9.75h1.1V28.6h-1.06l-.025-1.212a2.3,2.3,0,0,1-.889.984,2.476,2.476,0,0,1-1.32.362,2.836,2.836,0,0,1-2.06-.879,3,3,0,0,1-.628-1.031,3.773,3.773,0,0,1-.232-1.339,3.281,3.281,0,0,1,.847-2.342,2.736,2.736,0,0,1,2.073-.9,2.487,2.487,0,0,1,1.3.352,2.309,2.309,0,0,1,.892.955Zm-1.968,8.931a1.869,1.869,0,0,0,1.45-.657,2.577,2.577,0,0,0,0-3.279,1.868,1.868,0,0,0-1.447-.66,1.91,1.91,0,0,0-1.46.638,2.629,2.629,0,0,0,0,3.32A1.91,1.91,0,0,0,71.138,27.781Zm6.741.939a2.123,2.123,0,0,1-1.368-.428,1.539,1.539,0,0,1-.536-1.279,1.818,1.818,0,0,1,.171-.816,1.438,1.438,0,0,1,.508-.568,3.046,3.046,0,0,1,.733-.352,6.777,6.777,0,0,1,.949-.225l1.009-.165q.552-.1.552-.578a1.09,1.09,0,0,0-.39-.93,1.591,1.591,0,0,0-.987-.3,1.62,1.62,0,0,0-.978.286,1.2,1.2,0,0,0-.463.876l-.99-.209A1.906,1.906,0,0,1,76.87,22.7a2.917,2.917,0,0,1,1.7-.448,3.45,3.45,0,0,1,.9.111,2.458,2.458,0,0,1,.755.349,1.566,1.566,0,0,1,.54.673,2.5,2.5,0,0,1,.194,1.025v2.577a1.054,1.054,0,0,0,.143.651.617.617,0,0,0,.492.168h.1V28.6h-.546a1.041,1.041,0,0,1-1.181-.844h-.051A2.385,2.385,0,0,1,77.879,28.721Zm.254-.889a1.665,1.665,0,0,0,1.339-.6,2.483,2.483,0,0,0,.508-1.65l-1.65.317a2.222,2.222,0,0,0-.968.346.8.8,0,0,0-.314.682.8.8,0,0,0,.3.686A1.289,1.289,0,0,0,78.133,27.832Zm9.6-8.982h1.1V28.6h-1.06l-.025-1.212a2.3,2.3,0,0,1-.889.984,2.476,2.476,0,0,1-1.32.362,2.836,2.836,0,0,1-2.06-.879,3,3,0,0,1-.628-1.031,3.773,3.773,0,0,1-.232-1.339,3.281,3.281,0,0,1,.847-2.342,2.736,2.736,0,0,1,2.073-.9,2.487,2.487,0,0,1,1.3.352,2.309,2.309,0,0,1,.892.955Zm-1.968,8.931a1.869,1.869,0,0,0,1.45-.657,2.577,2.577,0,0,0,0-3.279,1.868,1.868,0,0,0-1.447-.66,1.91,1.91,0,0,0-1.46.638,2.629,2.629,0,0,0,0,3.32A1.91,1.91,0,0,0,85.763,27.781Z" transform="translate(503.066 -2615.633)" fill="#00223d"/>
    <path id="Trazado_28461" data-name="Trazado 28461" d="M6.2,5.1H2.564V8.023h3.2V9.045h-3.2v2.92H6.2V13H1.4V4.063H6.2Zm4.481,8.017a3.005,3.005,0,0,1-2.234-.9A3.193,3.193,0,0,1,7.56,9.877a3.2,3.2,0,0,1,.879-2.342,3,3,0,0,1,2.238-.9,3.027,3.027,0,0,1,1.806.546A2.755,2.755,0,0,1,13.533,8.7L12.5,8.868a1.9,1.9,0,0,0-.7-.971,1.918,1.918,0,0,0-1.13-.343,1.845,1.845,0,0,0-1.444.641,2.442,2.442,0,0,0-.568,1.682,2.43,2.43,0,0,0,.568,1.679,1.849,1.849,0,0,0,1.444.638,1.918,1.918,0,0,0,1.13-.343,1.9,1.9,0,0,0,.7-.971l1.028.171a2.758,2.758,0,0,1-1.057,1.514A3.023,3.023,0,0,1,10.677,13.114Zm7.1.006a3.289,3.289,0,0,1-1.6-.387A2.819,2.819,0,0,1,15.053,11.6a3.48,3.48,0,0,1-.416-1.723,3.179,3.179,0,0,1,.885-2.352A3.057,3.057,0,0,1,17.78,6.64a3.054,3.054,0,0,1,2.26.885,3.185,3.185,0,0,1,.882,2.352,3.187,3.187,0,0,1-.885,2.358A3.057,3.057,0,0,1,17.78,13.121Zm-.006-.914a1.916,1.916,0,0,0,1.476-.641,2.4,2.4,0,0,0,.587-1.688,2.393,2.393,0,0,0-.587-1.682,1.917,1.917,0,0,0-1.476-.641,1.89,1.89,0,0,0-1.463.641,2.409,2.409,0,0,0-.581,1.682,2.418,2.418,0,0,0,.581,1.688A1.89,1.89,0,0,0,17.773,12.207ZM25.587,6.64a2.171,2.171,0,0,1,1.571.565A2.107,2.107,0,0,1,27.746,8.8V13h-1.1V9.045a1.475,1.475,0,0,0-.381-1.117,1.362,1.362,0,0,0-.978-.362,1.51,1.51,0,0,0-1.111.428,1.739,1.739,0,0,0-.438,1.273V13h-1.1V6.76h1.1v.8A2.084,2.084,0,0,1,25.587,6.64Zm6.487-.952,1.593-2.069.584.425L32.83,5.688Zm.419,7.433a3.289,3.289,0,0,1-1.6-.387A2.819,2.819,0,0,1,29.767,11.6a3.48,3.48,0,0,1-.416-1.723,3.179,3.179,0,0,1,.885-2.352,3.322,3.322,0,0,1,4.516,0,3.185,3.185,0,0,1,.882,2.352,3.187,3.187,0,0,1-.885,2.358A3.057,3.057,0,0,1,32.494,13.121Zm-.006-.914a1.916,1.916,0,0,0,1.476-.641,2.4,2.4,0,0,0,.587-1.688,2.393,2.393,0,0,0-.587-1.682,1.916,1.916,0,0,0-1.476-.641,1.89,1.89,0,0,0-1.463.641,2.409,2.409,0,0,0-.581,1.682,2.418,2.418,0,0,0,.581,1.688A1.89,1.89,0,0,0,32.487,12.207ZM43.735,6.64a2.011,2.011,0,0,1,1.454.53,1.966,1.966,0,0,1,.552,1.489V13h-1.1V8.944A1.41,1.41,0,0,0,44.3,7.916a1.167,1.167,0,0,0-.87-.349,1.232,1.232,0,0,0-.952.394,1.692,1.692,0,0,0-.362,1.181V13H41V8.988a1.475,1.475,0,0,0-.346-1.063,1.177,1.177,0,0,0-.885-.359,1.221,1.221,0,0,0-.949.4,1.751,1.751,0,0,0-.365,1.209V13h-1.1V6.76h1.1v.806a1.9,1.9,0,0,1,.714-.686,2.036,2.036,0,0,1,.993-.241,2.12,2.12,0,0,1,1.066.263,1.64,1.64,0,0,1,.692.759,1.942,1.942,0,0,1,.749-.759A2.142,2.142,0,0,1,43.735,6.64Zm4.691-1.346a.748.748,0,0,1-.743-.743.7.7,0,0,1,.219-.521.72.72,0,0,1,.524-.216.713.713,0,0,1,.517.216.7.7,0,0,1,.219.521.715.715,0,0,1-.219.524A.707.707,0,0,1,48.426,5.294ZM47.868,13V6.76h1.1V13Zm5.929.114a3.005,3.005,0,0,1-2.234-.9,3.193,3.193,0,0,1-.882-2.342,3.2,3.2,0,0,1,.879-2.342A3.251,3.251,0,0,1,55.6,7.186,2.755,2.755,0,0,1,56.653,8.7l-1.028.165a1.9,1.9,0,0,0-.7-.971,1.918,1.918,0,0,0-1.13-.343,1.845,1.845,0,0,0-1.444.641,2.442,2.442,0,0,0-.568,1.682,2.43,2.43,0,0,0,.568,1.679,1.849,1.849,0,0,0,1.444.638,1.918,1.918,0,0,0,1.13-.343,1.9,1.9,0,0,0,.7-.971l1.028.171A2.758,2.758,0,0,1,55.6,12.565,3.023,3.023,0,0,1,53.8,13.114Zm5.916.006a2.123,2.123,0,0,1-1.368-.428,1.539,1.539,0,0,1-.536-1.279,1.818,1.818,0,0,1,.171-.816,1.438,1.438,0,0,1,.508-.568,3.046,3.046,0,0,1,.733-.352,6.777,6.777,0,0,1,.949-.225l1.009-.165q.552-.1.552-.578a1.09,1.09,0,0,0-.39-.93,1.591,1.591,0,0,0-.987-.3,1.62,1.62,0,0,0-.978.286,1.2,1.2,0,0,0-.463.876l-.99-.209A1.906,1.906,0,0,1,58.7,7.1a2.917,2.917,0,0,1,1.7-.448,3.45,3.45,0,0,1,.9.111,2.458,2.458,0,0,1,.755.349,1.566,1.566,0,0,1,.54.673A2.5,2.5,0,0,1,62.8,8.811v2.577a1.054,1.054,0,0,0,.143.651.617.617,0,0,0,.492.168h.1V13h-.546a1.041,1.041,0,0,1-1.181-.844h-.051A2.384,2.384,0,0,1,59.712,13.121Zm.254-.889a1.665,1.665,0,0,0,1.339-.6,2.483,2.483,0,0,0,.508-1.65l-1.65.317a2.222,2.222,0,0,0-.968.346.8.8,0,0,0-.314.682.8.8,0,0,0,.3.686A1.289,1.289,0,0,0,59.966,12.232Z" transform="translate(515.464 -2509.924)" fill="#00223d"/>
  </g>
</svg>
