<svg xmlns="http://www.w3.org/2000/svg" width="374" height="278" viewBox="0 0 374 278">
  <g id="Grupo_17837" data-name="Grupo 17837" transform="translate(-365 3474)">
    <path id="Trazado_28434" data-name="Trazado 28434" d="M9,0H162a9,9,0,0,1,9,9V57a9,9,0,0,1-9,9H9a9,9,0,0,1-9-9V9A9,9,0,0,1,9,0Z" transform="translate(366 -3462)" fill="#f3ff7e"/>
    <path id="Trazado_28435" data-name="Trazado 28435" d="M9,0H162a9,9,0,0,1,9,9V57a9,9,0,0,1-9,9H9a9,9,0,0,1-9-9V9A9,9,0,0,1,9,0Z" transform="translate(568 -3462)" fill="#f3ff7e"/>
    <path id="Trazado_28431" data-name="Trazado 28431" d="M9,0H163a9,9,0,0,1,9,9V57a9,9,0,0,1-9,9H9a9,9,0,0,1-9-9V9A9,9,0,0,1,9,0Z" transform="translate(365 -3321)" fill="#f3ff7e"/>
    <path id="Trazado_28430" data-name="Trazado 28430" d="M9,0H163a9,9,0,0,1,9,9V57a9,9,0,0,1-9,9H9a9,9,0,0,1-9-9V9A9,9,0,0,1,9,0Z" transform="translate(567 -3321)" fill="#f3ff7e"/>
    <path id="Trazado_28436" data-name="Trazado 28436" d="M10.773,7.244a5.945,5.945,0,0,1,4.553,1.839,6.4,6.4,0,0,1,1.723,4.546,6.239,6.239,0,0,1-1.709,4.519,6.053,6.053,0,0,1-4.566,1.771H6.658V27h-4.1V7.244Zm-.684,9.242a3.014,3.014,0,0,0,2.256-.772,2.938,2.938,0,0,0,.752-2.14,2.913,2.913,0,0,0-.759-2.112,2.987,2.987,0,0,0-2.249-.786H6.658v5.811Zm13.658-1.312a4.562,4.562,0,0,1,1.846-1.688,5.632,5.632,0,0,1,2.748-.7v3.514a5.324,5.324,0,0,0-3.363.848,3.7,3.7,0,0,0-1.039,3.008V27H19.975V12.945h3.773Zm13.371,12.1a8.838,8.838,0,0,1-3.979-.861,6.437,6.437,0,0,1-2.728-2.529,7.538,7.538,0,0,1-.991-3.924,6.875,6.875,0,0,1,2.133-5.332,7.912,7.912,0,0,1,5.564-1.955A7.932,7.932,0,0,1,42.7,14.627a6.875,6.875,0,0,1,2.133,5.332A6.913,6.913,0,0,1,42.7,25.312,7.915,7.915,0,0,1,37.119,27.273Zm-.041-3.131a3.608,3.608,0,0,0,2.782-1.148,4.3,4.3,0,0,0,1.06-3.035,4.3,4.3,0,0,0-1.06-3.035,3.608,3.608,0,0,0-2.782-1.148,3.476,3.476,0,0,0-2.7,1.155,4.339,4.339,0,0,0-1.046,3.028,4.339,4.339,0,0,0,1.046,3.028A3.476,3.476,0,0,0,37.078,24.143ZM57.723,6H61.66V27H57.928l-.1-1.832a4.014,4.014,0,0,1-1.784,1.593,6.006,6.006,0,0,1-2.632.567,6.836,6.836,0,0,1-2.625-.506,6.322,6.322,0,0,1-3.609-3.746A8.548,8.548,0,0,1,46.648,20a7.99,7.99,0,0,1,.93-3.917,6.37,6.37,0,0,1,2.454-2.55,6.758,6.758,0,0,1,3.384-.861,6.156,6.156,0,0,1,2.55.513,3.981,3.981,0,0,1,1.757,1.456Zm-3.4,18.061a3.505,3.505,0,0,0,2.659-1.121A4.1,4.1,0,0,0,58.037,20a4.113,4.113,0,0,0-1.066-2.946,3.5,3.5,0,0,0-2.652-1.128,3.542,3.542,0,0,0-2.673,1.107A4.112,4.112,0,0,0,50.586,20a4.093,4.093,0,0,0,1.06,2.953A3.542,3.542,0,0,0,54.318,24.061ZM75.045,12.945h3.938V27H75.25l-.1-1.7a5.367,5.367,0,0,1-4.471,1.969A5.479,5.479,0,0,1,66.8,26.009a4.689,4.689,0,0,1-1.354-3.6V12.945H69.4v8.613a2.429,2.429,0,0,0,.7,1.928,2.673,2.673,0,0,0,1.825.615,3.17,3.17,0,0,0,2.235-.8,3.436,3.436,0,0,0,.882-2.6ZM89.414,27.26a7.509,7.509,0,0,1-5.428-2.023,6.989,6.989,0,0,1-2.105-5.277,6.973,6.973,0,0,1,2.1-5.277,8.344,8.344,0,0,1,9.987-.656,6.043,6.043,0,0,1,2.352,3.814l-3.637.4a3.116,3.116,0,0,0-1.176-1.846,3.575,3.575,0,0,0-2.133-.615,3.224,3.224,0,0,0-2.57,1.148,4.5,4.5,0,0,0-.984,3.035,4.508,4.508,0,0,0,.984,3.028,3.216,3.216,0,0,0,2.57,1.155,3.544,3.544,0,0,0,2.126-.615,3.188,3.188,0,0,0,1.183-1.846l3.637.4a6.059,6.059,0,0,1-2.372,3.814A7.458,7.458,0,0,1,89.414,27.26ZM104.357,27a4.245,4.245,0,0,1-3.172-1.142,4.44,4.44,0,0,1-1.121-3.247V15.967H97.3V12.945h.889a2.319,2.319,0,0,0,1.75-.588,3.027,3.027,0,0,0,.561-2.092V8.406h3.555v4.539h2.9v3.021h-2.9v6.221q0,1.818,1.627,1.818h1.271V27Zm12.141.273a8.838,8.838,0,0,1-3.979-.861,6.437,6.437,0,0,1-2.728-2.529,7.538,7.538,0,0,1-.991-3.924,6.875,6.875,0,0,1,2.133-5.332,8.916,8.916,0,0,1,11.143,0,6.875,6.875,0,0,1,2.133,5.332,6.913,6.913,0,0,1-2.133,5.353A7.915,7.915,0,0,1,116.5,27.273Zm-.041-3.131a3.608,3.608,0,0,0,2.782-1.148,4.3,4.3,0,0,0,1.06-3.035,4.3,4.3,0,0,0-1.06-3.035,3.608,3.608,0,0,0-2.782-1.148,3.476,3.476,0,0,0-2.7,1.155,4.339,4.339,0,0,0-1.046,3.028,4.339,4.339,0,0,0,1.046,3.028A3.476,3.476,0,0,0,116.457,24.143Z" transform="translate(387 -3480)" fill="#00223d"/>
    <path id="Trazado_28437" data-name="Trazado 28437" d="M10.773,7.244a5.945,5.945,0,0,1,4.553,1.839,6.4,6.4,0,0,1,1.723,4.546,6.239,6.239,0,0,1-1.709,4.519,6.053,6.053,0,0,1-4.566,1.771H6.658V27h-4.1V7.244Zm-.684,9.242a3.014,3.014,0,0,0,2.256-.772,2.938,2.938,0,0,0,.752-2.14,2.913,2.913,0,0,0-.759-2.112,2.987,2.987,0,0,0-2.249-.786H6.658v5.811Zm13.658-1.312a4.562,4.562,0,0,1,1.846-1.688,5.632,5.632,0,0,1,2.748-.7v3.514a5.324,5.324,0,0,0-3.363.848,3.7,3.7,0,0,0-1.039,3.008V27H19.975V12.945h3.773Zm20.043,4.594-.041.943H33.332a3.639,3.639,0,0,0,1.121,2.57,3.585,3.585,0,0,0,2.475.889,3.455,3.455,0,0,0,1.853-.485,2.983,2.983,0,0,0,1.183-1.415l3.609.533A6.136,6.136,0,0,1,41.111,26.1a7.317,7.317,0,0,1-4.156,1.176,7.609,7.609,0,0,1-5.476-1.935,7.059,7.059,0,0,1-2.03-5.366,7.1,7.1,0,0,1,2.037-5.366,7.383,7.383,0,0,1,5.346-1.962,7.055,7.055,0,0,1,5.045,1.791A7.026,7.026,0,0,1,43.791,19.768Zm-6.932-4.334a3.111,3.111,0,0,0-3.418,2.707h6.453a2.96,2.96,0,0,0-.971-2.01A3.077,3.077,0,0,0,36.859,15.434ZM53.143,27.26a7.509,7.509,0,0,1-5.428-2.023,6.989,6.989,0,0,1-2.105-5.277,6.973,6.973,0,0,1,2.1-5.277,7.533,7.533,0,0,1,5.435-2.01A7.489,7.489,0,0,1,57.7,14.025a6.043,6.043,0,0,1,2.352,3.814l-3.637.4a3.116,3.116,0,0,0-1.176-1.846,3.575,3.575,0,0,0-2.133-.615,3.224,3.224,0,0,0-2.57,1.148,4.5,4.5,0,0,0-.984,3.035,4.508,4.508,0,0,0,.984,3.028,3.216,3.216,0,0,0,2.57,1.155,3.544,3.544,0,0,0,2.126-.615,3.188,3.188,0,0,0,1.183-1.846l3.637.4a6.059,6.059,0,0,1-2.372,3.814A7.458,7.458,0,0,1,53.143,27.26ZM64.859,10.84a2.21,2.21,0,0,1-1.613-.663,2.177,2.177,0,0,1-.67-1.606,2.15,2.15,0,0,1,.677-1.593,2.217,2.217,0,0,1,1.606-.663A2.276,2.276,0,0,1,67.115,8.57a2.276,2.276,0,0,1-2.256,2.27ZM62.85,27V12.945h3.965V27Zm14.588.273a8.838,8.838,0,0,1-3.979-.861,6.437,6.437,0,0,1-2.728-2.529,7.538,7.538,0,0,1-.991-3.924,6.875,6.875,0,0,1,2.133-5.332,8.916,8.916,0,0,1,11.143,0,6.875,6.875,0,0,1,2.133,5.332,6.913,6.913,0,0,1-2.133,5.353A7.915,7.915,0,0,1,77.438,27.273ZM77.4,24.143a3.608,3.608,0,0,0,2.782-1.148,4.3,4.3,0,0,0,1.06-3.035,4.3,4.3,0,0,0-1.06-3.035A3.608,3.608,0,0,0,77.4,15.775a3.476,3.476,0,0,0-2.7,1.155,4.339,4.339,0,0,0-1.046,3.028A4.339,4.339,0,0,0,74.7,22.987,3.476,3.476,0,0,0,77.4,24.143Z" transform="translate(613 -3480)" fill="#00223d"/>
    <path id="Trazado_28432" data-name="Trazado 28432" d="M10.773,7.244a5.945,5.945,0,0,1,4.553,1.839,6.4,6.4,0,0,1,1.723,4.546,6.239,6.239,0,0,1-1.709,4.519,6.053,6.053,0,0,1-4.566,1.771H6.658V27h-4.1V7.244Zm-.684,9.242a3.014,3.014,0,0,0,2.256-.772,2.938,2.938,0,0,0,.752-2.14,2.913,2.913,0,0,0-.759-2.112,2.987,2.987,0,0,0-2.249-.786H6.658v5.811ZM19.975,27V6h3.979V27Zm19.578-3.814a13.148,13.148,0,0,0,.342,3.432V27H36.217L35.9,25.469a4.57,4.57,0,0,1-1.969,1.354,7.256,7.256,0,0,1-2.543.451,6.687,6.687,0,0,1-1.312-.123,4.462,4.462,0,0,1-1.183-.417A3.589,3.589,0,0,1,27.918,26a3.208,3.208,0,0,1-.656-1.114,4.439,4.439,0,0,1-.246-1.524,4.227,4.227,0,0,1,.26-1.524,3.573,3.573,0,0,1,.684-1.142,4.146,4.146,0,0,1,1.107-.834,8.473,8.473,0,0,1,1.395-.6,16.663,16.663,0,0,1,1.668-.437l2.311-.52a2.548,2.548,0,0,0,1.046-.444.886.886,0,0,0,.308-.7A1.45,1.45,0,0,0,35.1,15.8a3.224,3.224,0,0,0-1.675-.41q-2.42,0-2.748,2.146l-3.486-.629A4.719,4.719,0,0,1,29.23,13.7a8.1,8.1,0,0,1,4.416-1.032q5.906,0,5.906,5.072Zm-6.932,1.422a3.167,3.167,0,0,0,2.434-1.019A4.292,4.292,0,0,0,36,20.574l-3.336.943a3.943,3.943,0,0,0-1.4.574,1.179,1.179,0,0,0-.485,1.012,1.309,1.309,0,0,0,.52,1.114A2.15,2.15,0,0,0,32.621,24.607ZM53.635,12.945l-6.18,11.02h5.988V27H41.863l6.152-11.02H42.342V12.945Zm13.74,10.24a13.148,13.148,0,0,0,.342,3.432V27H64.039l-.314-1.531a4.57,4.57,0,0,1-1.969,1.354,7.256,7.256,0,0,1-2.543.451A6.687,6.687,0,0,1,57.9,27.15a4.462,4.462,0,0,1-1.183-.417A3.589,3.589,0,0,1,55.74,26a3.208,3.208,0,0,1-.656-1.114,4.439,4.439,0,0,1-.246-1.524,4.227,4.227,0,0,1,.26-1.524,3.573,3.573,0,0,1,.684-1.142,4.146,4.146,0,0,1,1.107-.834,8.474,8.474,0,0,1,1.395-.6,16.663,16.663,0,0,1,1.668-.437l2.311-.52a2.548,2.548,0,0,0,1.046-.444.886.886,0,0,0,.308-.7,1.45,1.45,0,0,0-.69-1.354,3.224,3.224,0,0,0-1.675-.41q-2.42,0-2.748,2.146l-3.486-.629A4.719,4.719,0,0,1,57.053,13.7a8.1,8.1,0,0,1,4.416-1.032q5.906,0,5.906,5.072Zm-6.932,1.422a3.167,3.167,0,0,0,2.434-1.019,4.292,4.292,0,0,0,.943-3.015l-3.336.943a3.942,3.942,0,0,0-1.4.574A1.179,1.179,0,0,0,58.6,23.1a1.309,1.309,0,0,0,.52,1.114A2.15,2.15,0,0,0,60.443,24.607Z" transform="translate(616 -3339)" fill="#00223d"/>
    <path id="Trazado_28433" data-name="Trazado 28433" d="M10.773,7.244a5.945,5.945,0,0,1,4.553,1.839,6.4,6.4,0,0,1,1.723,4.546,6.239,6.239,0,0,1-1.709,4.519,6.053,6.053,0,0,1-4.566,1.771H6.658V27h-4.1V7.244Zm-.684,9.242a3.014,3.014,0,0,0,2.256-.772,2.938,2.938,0,0,0,.752-2.14,2.913,2.913,0,0,0-.759-2.112,2.987,2.987,0,0,0-2.249-.786H6.658v5.811Zm13.658-1.312a4.562,4.562,0,0,1,1.846-1.688,5.632,5.632,0,0,1,2.748-.7v3.514a5.324,5.324,0,0,0-3.363.848,3.7,3.7,0,0,0-1.039,3.008V27H19.975V12.945h3.773Zm13.371,12.1a8.838,8.838,0,0,1-3.979-.861,6.437,6.437,0,0,1-2.728-2.529,7.538,7.538,0,0,1-.991-3.924,6.875,6.875,0,0,1,2.133-5.332,7.912,7.912,0,0,1,5.564-1.955A7.932,7.932,0,0,1,42.7,14.627a6.875,6.875,0,0,1,2.133,5.332A6.913,6.913,0,0,1,42.7,25.312,7.915,7.915,0,0,1,37.119,27.273Zm-.041-3.131a3.608,3.608,0,0,0,2.782-1.148,4.3,4.3,0,0,0,1.06-3.035,4.3,4.3,0,0,0-1.06-3.035,3.608,3.608,0,0,0-2.782-1.148,3.476,3.476,0,0,0-2.7,1.155,4.339,4.339,0,0,0-1.046,3.028,4.339,4.339,0,0,0,1.046,3.028A3.476,3.476,0,0,0,37.078,24.143Zm27.33-11.471a5.37,5.37,0,0,1,3.623,1.142,4.085,4.085,0,0,1,1.326,3.274V27H65.42V18.209a2.348,2.348,0,0,0-.629-1.777,2.2,2.2,0,0,0-1.586-.6,2.54,2.54,0,0,0-1.914.766,3.477,3.477,0,0,0-.738,2.475V27H56.574V18.25a2.41,2.41,0,0,0-.629-1.812,2.242,2.242,0,0,0-1.627-.608,2.46,2.46,0,0,0-1.9.807,3.852,3.852,0,0,0-.738,2.639V27H47.756V12.945H51.68V14.6a4.779,4.779,0,0,1,4.074-1.928,6.01,6.01,0,0,1,2.646.54,3.6,3.6,0,0,1,1.661,1.565A4.97,4.97,0,0,1,64.408,12.672Zm15.326,14.6a8.838,8.838,0,0,1-3.979-.861,6.437,6.437,0,0,1-2.728-2.529,7.538,7.538,0,0,1-.991-3.924,6.875,6.875,0,0,1,2.133-5.332,8.916,8.916,0,0,1,11.143,0,6.875,6.875,0,0,1,2.133,5.332,6.913,6.913,0,0,1-2.133,5.353A7.915,7.915,0,0,1,79.734,27.273Zm-.041-3.131a3.608,3.608,0,0,0,2.782-1.148,4.3,4.3,0,0,0,1.06-3.035,4.3,4.3,0,0,0-1.06-3.035,3.608,3.608,0,0,0-2.782-1.148,3.476,3.476,0,0,0-2.7,1.155,4.339,4.339,0,0,0-1.046,3.028,4.339,4.339,0,0,0,1.046,3.028A3.476,3.476,0,0,0,79.693,24.143ZM96.729,27.26A7.509,7.509,0,0,1,91.3,25.236,6.989,6.989,0,0,1,89.2,19.959a6.973,6.973,0,0,1,2.1-5.277,8.344,8.344,0,0,1,9.987-.656,6.043,6.043,0,0,1,2.352,3.814l-3.637.4a3.116,3.116,0,0,0-1.176-1.846,3.575,3.575,0,0,0-2.133-.615,3.224,3.224,0,0,0-2.57,1.148,4.5,4.5,0,0,0-.984,3.035,4.508,4.508,0,0,0,.984,3.028,3.216,3.216,0,0,0,2.57,1.155,3.544,3.544,0,0,0,2.126-.615A3.188,3.188,0,0,0,100,21.682l3.637.4a6.059,6.059,0,0,1-2.372,3.814A7.458,7.458,0,0,1,96.729,27.26Zm11.717-16.42a2.211,2.211,0,0,1-1.613-.663,2.177,2.177,0,0,1-.67-1.606,2.15,2.15,0,0,1,.677-1.593,2.217,2.217,0,0,1,1.606-.663A2.276,2.276,0,0,1,110.7,8.57a2.276,2.276,0,0,1-2.256,2.27ZM106.436,27V12.945H110.4V27Zm13.371-15.969L123.389,6l1.941,1.367-3.1,3.664Zm1.217,16.242a8.838,8.838,0,0,1-3.979-.861,6.437,6.437,0,0,1-2.728-2.529,7.538,7.538,0,0,1-.991-3.924,6.875,6.875,0,0,1,2.133-5.332,8.916,8.916,0,0,1,11.143,0,6.875,6.875,0,0,1,2.133,5.332,6.913,6.913,0,0,1-2.133,5.353A7.915,7.915,0,0,1,121.023,27.273Zm-.041-3.131a3.608,3.608,0,0,0,2.782-1.148,4.3,4.3,0,0,0,1.06-3.035,4.3,4.3,0,0,0-1.06-3.035,3.608,3.608,0,0,0-2.782-1.148,3.476,3.476,0,0,0-2.7,1.155,4.339,4.339,0,0,0-1.046,3.028,4.339,4.339,0,0,0,1.046,3.028A3.476,3.476,0,0,0,120.982,24.143Zm18.977-11.471a5.479,5.479,0,0,1,3.883,1.265,4.689,4.689,0,0,1,1.354,3.6V27h-3.951V18.387a2.448,2.448,0,0,0-.7-1.941,2.653,2.653,0,0,0-1.812-.615,3.7,3.7,0,0,0-1.176.178,3.021,3.021,0,0,0-.984.554,2.447,2.447,0,0,0-.7,1.06,4.9,4.9,0,0,0-.267,1.627V27H131.66V12.945H135.6V14.5A5.415,5.415,0,0,1,139.959,12.672Z" transform="translate(382 -3339)" fill="#00223d"/>
    <g id="Grupo_17833" data-name="Grupo 17833" transform="translate(-333 52)">
      <rect id="Rectángulo_4374" data-name="Rectángulo 4374" width="113" height="113" transform="translate(724 -3497)" fill="none"/>
      <g id="Grupo_17561" data-name="Grupo 17561" transform="translate(745 -3480)">
        <path id="Trazado_27997" data-name="Trazado 27997" d="M1557.946,206.143a356.724,356.724,0,0,0-47.463,0,9.68,9.68,0,0,0-9.013,8.747,191.074,191.074,0,0,0,0,35.418,9.68,9.68,0,0,0,9.013,8.747,356.719,356.719,0,0,0,47.463,0,9.679,9.679,0,0,0,9.012-8.747,190.947,190.947,0,0,0,0-35.418A9.68,9.68,0,0,0,1557.946,206.143Z" transform="translate(-1498.906 -182.252)" fill="#dd636e"/>
        <path id="Trazado_27998" data-name="Trazado 27998" d="M1512.5,251.723a12,12,0,0,0,3.1,7.885q-2.56-.133-5.122-.3a9.681,9.681,0,0,1-9.013-8.746,191.088,191.088,0,0,1,0-35.419,9.682,9.682,0,0,1,9.013-8.746q2.56-.17,5.122-.3a12,12,0,0,0-3.1,7.885A327.172,327.172,0,0,0,1512.5,251.723Z" transform="translate(-1498.906 -182.502)" fill="#da4a54"/>
        <ellipse id="Elipse_1076" data-name="Elipse 1076" cx="22.619" cy="17.87" rx="22.619" ry="17.87" transform="translate(12.69 33.216)" fill="#f9efda"/>
        <path id="Trazado_27999" data-name="Trazado 27999" d="M1554.24,187.237h-.005a4.246,4.246,0,0,0,1.846-2.833,24.917,24.917,0,0,0,0-8.417,4.235,4.235,0,0,0-4.028-3.533q-18.14-.606-36.28,0a4.234,4.234,0,0,0-4.028,3.533,24.923,24.923,0,0,0,0,8.417,4.246,4.246,0,0,0,1.846,2.833h-.005c-6.893,4.368-16.273,6.878-13.24,12.744s11.061-3.45,15.827-2.693-1.869,12.542,3.79,12.542,8.779-9.849,13.951-9.849,8.292,9.849,13.95,9.849-.976-11.786,3.79-12.542,12.793,8.558,15.826,2.693S1561.133,191.605,1554.24,187.237Z" transform="translate(-1498.605 -170.998)" fill="#ffe07d"/>
        <path id="Trazado_28000" data-name="Trazado 28000" d="M1522.615,184.452a10.707,10.707,0,0,0,.941,3.9l0-1.068c-2.944,3.659-6.775,6.015-7.031,10.132a2.253,2.253,0,0,0-.349-.081c-4.766-.757-12.793,8.559-15.826,2.693s6.346-8.377,13.24-12.744h0a4.245,4.245,0,0,1-1.845-2.833,24.92,24.92,0,0,1,0-8.416,4.232,4.232,0,0,1,4.028-3.533q4-.134,8-.208a8.365,8.365,0,0,0-1.163,3.74,48.763,48.763,0,0,0,0,8.416Z" transform="translate(-1498.605 -171.047)" fill="#ffd064"/>
        <path id="Trazado_28001" data-name="Trazado 28001" d="M1547.125,234.577c6.09,0,9.595-3.882,8.2-5.275s-2.915,1.314-4.1,1.314.506-2.385-.736-2.861-2.244,2.7-3.488,2.7-2.247-3.173-3.489-2.7.449,2.861-.735,2.861-2.708-2.707-4.1-1.314,2.111,5.275,8.2,5.275" transform="translate(-1511.694 -189.83)" fill="#b3e59f"/>
        <path id="Trazado_28002" data-name="Trazado 28002" d="M1546.946,235.191h-.066c-6.091,0-9.595-3.883-8.2-5.275s2.916,1.314,4.1,1.314a.5.5,0,0,0,.272-.065C1543.3,232.862,1544.764,235.191,1546.946,235.191Z" transform="translate(-1511.694 -190.443)" fill="#95d6a4"/>
        <path id="Trazado_28003" data-name="Trazado 28003" d="M1546.129,237.627c-5.706,0-10.331.092-10.331,5.8a15.449,15.449,0,0,0,.6,4.016,20.107,20.107,0,0,0,4.219,7.948q.4.439.826.826a7.071,7.071,0,0,0,4.686,2.076c2.5,0,4.8-1.762,6.584-4.22a19.862,19.862,0,0,0,3.747-10.645c0-5.706-4.625-5.8-10.331-5.8Z" transform="translate(-1510.821 -193.192)" fill="#dd636e"/>
        <path id="Trazado_28004" data-name="Trazado 28004" d="M1546.129,258.289c-5.706,0-10.331-9.159-10.331-14.865s4.625-5.8,10.331-5.8c-2.672,0-4.838.092-4.838,5.8S1543.457,258.289,1546.129,258.289Z" transform="translate(-1510.821 -193.192)" fill="#da4a54"/>
        <g id="Grupo_17560" data-name="Grupo 17560" transform="translate(0 0)">
          <path id="Trazado_28005" data-name="Trazado 28005" d="M1534.053,239.466a16.661,16.661,0,0,0,.642,4.322,21.138,21.138,0,0,0,4.478,8.42c.291.319.594.622.9.9a8.112,8.112,0,0,0,5.461,2.374c2.645,0,5.315-1.667,7.517-4.7a21.086,21.086,0,0,0,3.968-11.323c0-3.074-1.264-5.13-3.757-6.112-.174-.068-.354-.13-.537-.187a5.757,5.757,0,0,0,2.471-2.919,2.3,2.3,0,0,0-.523-2.359c-1.509-1.508-3.155-.353-4.03.325a1.947,1.947,0,0,0-1.208-2.133c-1.467-.562-2.5.793-3.181,1.689a7.852,7.852,0,0,1-.72.861,7.936,7.936,0,0,1-.721-.861c-.682-.9-1.714-2.251-3.18-1.689a1.947,1.947,0,0,0-1.21,2.133c-.875-.678-2.52-1.833-4.03-.325a2.3,2.3,0,0,0-.522,2.359,5.758,5.758,0,0,0,2.471,2.918c-.183.058-.363.119-.537.187-2.493.982-3.756,3.037-3.756,6.111Zm20.662,0a18.887,18.887,0,0,1-3.527,9.966c-1.756,2.415-3.763,3.745-5.65,3.745a5.9,5.9,0,0,1-3.911-1.776c-.255-.232-.507-.484-.75-.75a19.041,19.041,0,0,1-3.957-7.476,14.351,14.351,0,0,1-.56-3.709c0-4.224,2.656-4.644,9.178-4.644,2.539,0,5.158,0,6.883.679,1.135.446,2.3,1.267,2.3,3.965Zm-16.653-9.976a.382.382,0,0,1,.036-.028,4,4,0,0,1,1.036.67,3.67,3.67,0,0,0,2.179,1.042,1.557,1.557,0,0,0,1.231-.545,1.947,1.947,0,0,0,.329-1.6l.107.141c.657.863,1.4,1.842,2.556,1.842s1.9-.978,2.556-1.842l.107-.141a1.948,1.948,0,0,0,.329,1.6,1.556,1.556,0,0,0,1.232.545,3.669,3.669,0,0,0,2.179-1.042,3.987,3.987,0,0,1,1.037-.669.359.359,0,0,1,.036.028c-.022.481-1.389,2.319-4.724,3.056-.868-.03-1.753-.031-2.631-.031h-.121c-.917,0-1.843,0-2.751.032-3.336-.737-4.7-2.577-4.725-3.057Z" transform="translate(-1510.229 -189.234)" fill="#00223d"/>
          <path id="Trazado_28006" data-name="Trazado 28006" d="M1542.423,244.653a1.153,1.153,0,0,0-1.153,1.153v1.5a1.153,1.153,0,1,0,2.307,0v-1.5A1.153,1.153,0,0,0,1542.423,244.653Z" transform="translate(-1512.676 -195.574)" fill="#00223d"/>
          <path id="Trazado_28007" data-name="Trazado 28007" d="M1550.836,244.653a1.153,1.153,0,0,0-1.153,1.153v1.5a1.153,1.153,0,1,0,2.307,0v-1.5a1.153,1.153,0,0,0-1.153-1.153Z" transform="translate(-1515.527 -195.574)" fill="#00223d"/>
          <path id="Trazado_28008" data-name="Trazado 28008" d="M1559.248,244.653a1.153,1.153,0,0,0-1.153,1.153v1.5a1.154,1.154,0,1,0,2.307,0v-1.5A1.153,1.153,0,0,0,1559.248,244.653Z" transform="translate(-1518.379 -195.574)" fill="#00223d"/>
          <path id="Trazado_28009" data-name="Trazado 28009" d="M1546.629,254.356a1.153,1.153,0,0,0-1.154,1.154v1.5a1.154,1.154,0,1,0,2.307,0v-1.5A1.153,1.153,0,0,0,1546.629,254.356Z" transform="translate(-1514.101 -198.863)" fill="#00223d"/>
          <path id="Trazado_28010" data-name="Trazado 28010" d="M1555.042,254.356a1.153,1.153,0,0,0-1.154,1.154v1.5a1.154,1.154,0,0,0,2.307,0v-1.5A1.153,1.153,0,0,0,1555.042,254.356Z" transform="translate(-1516.953 -198.863)" fill="#00223d"/>
          <path id="Trazado_28011" data-name="Trazado 28011" d="M1566.93,201.29a5.428,5.428,0,0,0,.982-1.37c1.284-2.482.844-4.791-1.308-6.863-1.721-1.657-4.369-3.04-7.173-4.5-1.294-.676-2.621-1.369-3.89-2.107a5.408,5.408,0,0,0,1.085-2.439,26.207,26.207,0,0,0,0-8.8,5.408,5.408,0,0,0-5.126-4.492c-1.877-.063-3.734-.115-5.52-.155h-.026a1.154,1.154,0,0,0-.026,2.307c1.777.04,3.626.093,5.5.155a3.1,3.1,0,0,1,2.929,2.573,23.935,23.935,0,0,1,0,8.03,3.108,3.108,0,0,1-1.157,1.924,143.2,143.2,0,0,1-16.157,1.341c1.709-1.211,3.571-2.938,3.7-4.786a3.224,3.224,0,0,0-1.576-2.936,3.516,3.516,0,0,0-4.13-.151,1.741,1.741,0,1,1-3.437,0,3.515,3.515,0,0,0-4.129.151,3.223,3.223,0,0,0-1.576,2.936c.132,1.847,1.994,3.575,3.7,4.785a142.942,142.942,0,0,1-16.151-1.339,3.111,3.111,0,0,1-1.158-1.924,23.91,23.91,0,0,1,0-8.03,3.094,3.094,0,0,1,2.93-2.573c8.673-.291,17.457-.372,26.111-.243h.017a1.154,1.154,0,0,0,.017-2.307c-8.69-.13-17.513-.048-26.221.244a5.409,5.409,0,0,0-5.128,4.492,26.2,26.2,0,0,0,0,8.8,5.415,5.415,0,0,0,1.085,2.438c-1.269.738-2.6,1.432-3.891,2.109-2.8,1.465-5.452,2.848-7.172,4.5-2.152,2.071-2.591,4.38-1.308,6.862a5.446,5.446,0,0,0,.982,1.37,10.821,10.821,0,0,0-.283,1.649,192.867,192.867,0,0,0,0,35.632,10.787,10.787,0,0,0,10.083,9.791c7.9.526,15.854.789,23.809.789s15.91-.263,23.808-.789a10.787,10.787,0,0,0,10.085-9.791,193.109,193.109,0,0,0,0-35.63,10.706,10.706,0,0,0-.284-1.65Zm-30.622-20.353a1.158,1.158,0,0,1,.652-.215,1.528,1.528,0,0,1,.877.327c.634.448.611.766.6.886-.074,1.044-1.925,2.579-3.694,3.695C1534.668,183.686,1535.151,181.7,1536.308,180.937Zm-8.112,1c-.009-.12-.031-.438.6-.886a1.528,1.528,0,0,1,.877-.327,1.159,1.159,0,0,1,.652.215c1.157.765,1.64,2.751,1.561,4.693C1530.122,184.515,1528.271,182.981,1528.2,181.933Zm-19.918,8.663c1.654-.864,3.359-1.757,4.969-2.752a145.456,145.456,0,0,0,18.778,1.388,5.021,5.021,0,0,1-3.312,2.317,1.153,1.153,0,1,0,.531,2.245,4.639,4.639,0,0,1,8.148,0,1.153,1.153,0,0,0,.531-2.245,5.017,5.017,0,0,1-3.312-2.317,145.4,145.4,0,0,0,18.781-1.389c1.61.995,3.316,1.888,4.97,2.753,6.444,3.367,9.1,5.165,7.5,8.263a2.246,2.246,0,0,1-1.281,1.235c-1.47.453-3.887-.848-6.225-2.107-2.551-1.374-5.189-2.794-7.477-2.431a3.225,3.225,0,0,0-2.752,3.123,18.373,18.373,0,0,0,.186,4.358c.214,1.807.479,4.056-.151,4.766-.062.069-.25.282-.891.282-2.366,0-4.432-2.386-6.43-4.693-2.2-2.535-4.467-5.157-7.522-5.157s-5.325,2.622-7.521,5.157c-2,2.307-4.063,4.693-6.428,4.693-.641,0-.83-.212-.892-.282-.631-.71-.365-2.959-.151-4.767a18.367,18.367,0,0,0,.186-4.358,3.225,3.225,0,0,0-2.751-3.123c-2.289-.363-4.927,1.057-7.478,2.431-2.337,1.259-4.755,2.561-6.224,2.107a2.249,2.249,0,0,1-1.281-1.235c-1.6-3.1,1.056-4.9,7.5-8.263Zm28.841,12.117a29.786,29.786,0,0,0-7.6,0c1.246-1.26,2.487-2.17,3.8-2.17S1535.874,201.454,1537.12,202.714Zm27.8,35.643a8.49,8.49,0,0,1-7.941,7.7,357.331,357.331,0,0,1-47.31,0,8.489,8.489,0,0,1-7.939-7.7,190.479,190.479,0,0,1,0-35.205c.022-.248.06-.494.1-.74,2.294.436,4.962-1,7.547-2.392,2.213-1.192,4.5-2.425,6.022-2.183.288.046.683.108.828,1.159a16.994,16.994,0,0,1-.191,3.771c-.237,2-.479,4.06.112,5.563a17.068,17.068,0,0,0-6.6,13.164c0,5.182,2.548,10.022,7.176,13.629a1.153,1.153,0,0,0,1.418-1.82c-4.054-3.16-6.287-7.354-6.287-11.809,0-4.3,2.068-8.336,5.841-11.451a3.817,3.817,0,0,0,1.674.351c3.16,0,5.463-2.384,7.639-4.875a27.267,27.267,0,0,1,12.622,0c2.176,2.491,4.48,4.875,7.64,4.875a3.824,3.824,0,0,0,1.673-.35c3.773,3.115,5.841,7.153,5.841,11.45,0,9.217-9.629,16.717-21.465,16.717a25.99,25.99,0,0,1-11.464-2.589,1.154,1.154,0,0,0-1.023,2.068,28.313,28.313,0,0,0,12.486,2.828,26.962,26.962,0,0,0,16.709-5.483c4.554-3.6,7.063-8.408,7.063-13.541a17.067,17.067,0,0,0-6.6-13.163c.591-1.5.348-3.56.112-5.563a17,17,0,0,1-.192-3.771c.145-1.051.54-1.114.828-1.16,1.519-.241,3.808.992,6.021,2.183,2.585,1.392,5.253,2.829,7.548,2.392.045.245.082.492.105.741a190.849,190.849,0,0,1,0,35.2Z" transform="translate(-1498.013 -170.407)" fill="#00223d"/>
        </g>
      </g>
    </g>
    <g id="Grupo_17834" data-name="Grupo 17834" transform="translate(-128 -61)">
      <rect id="Rectángulo_4378" data-name="Rectángulo 4378" width="113" height="113" transform="translate(724 -3384)" fill="none"/>
      <g id="Grupo_17559" data-name="Grupo 17559" transform="translate(740 -3362)">
        <path id="Trazado_27994" data-name="Trazado 27994" d="M724.32,187.195v-5.778H645.867v42.876H724.32v-31.32" transform="translate(-644.241 -179.897)" fill="#8de0a8"/>
        <g id="Grupo_17558" data-name="Grupo 17558" transform="translate(1.626 7.602)">
          <rect id="Rectángulo_4375" data-name="Rectángulo 4375" width="78.453" height="23.553" transform="translate(0 36.795)" fill="#81cc96"/>
          <path id="Trazado_27995" data-name="Trazado 27995" d="M678.323,190.307H662.055a7.3,7.3,0,0,1-7.3,7.3v16.115a7.3,7.3,0,0,1,7.3,7.3h51.692a7.3,7.3,0,0,1,7.3-7.3V197.605a7.3,7.3,0,0,1-7.3-7.3H697.481" transform="translate(-648.675 -190.307)" fill="#81cc96"/>
        </g>
        <rect id="Rectángulo_4376" data-name="Rectángulo 4376" width="19.158" height="66.429" transform="translate(31.274 1.521)" fill="#fcd577"/>
        <rect id="Rectángulo_4377" data-name="Rectángulo 4377" width="19.158" height="23.553" transform="translate(31.274 44.397)" fill="#eac36e"/>
        <path id="Trazado_27996" data-name="Trazado 27996" d="M723.464,188.013a1.52,1.52,0,0,0,1.521-1.52v-5.778a1.52,1.52,0,0,0-1.521-1.52H645.011a1.52,1.52,0,0,0-1.521,1.52v66.429a1.521,1.521,0,0,0,1.521,1.521h78.453a1.52,1.52,0,0,0,1.52-1.521V192.271a1.52,1.52,0,1,0-3.041,0v29.8H695.336v-3.042h14.747a1.52,1.52,0,0,0,1.521-1.52,5.784,5.784,0,0,1,5.777-5.778,1.52,1.52,0,0,0,1.521-1.52V194.1a1.521,1.521,0,0,0-1.521-1.521A5.784,5.784,0,0,1,711.6,186.8a1.521,1.521,0,0,0-1.521-1.521H695.336v-3.04h26.607v4.257A1.52,1.52,0,0,0,723.464,188.013Zm-76.933-5.778h26.607v3.041H658.391a1.521,1.521,0,0,0-1.521,1.52,5.785,5.785,0,0,1-5.777,5.778,1.52,1.52,0,0,0-1.521,1.52v16.115a1.52,1.52,0,0,0,1.521,1.52,5.785,5.785,0,0,1,5.777,5.778,1.521,1.521,0,0,0,1.521,1.521h14.747v3.041H646.531Zm0,54.652h5.879a1.52,1.52,0,1,0,0-3.041h-5.879V231h26.607v2.847h-15.66a1.52,1.52,0,1,0,0,3.041h15.66v2.849H646.531Zm26.607-8.928H646.531v-2.848h26.607v2.848Zm-26.607,14.818h26.607v2.847H646.531Zm29.648,2.847V225.112H692.3v20.512Zm45.764-11.777H695.336V231h26.607v2.846Zm-26.607,11.777v-8.736h26.607v2.849H698.833a1.52,1.52,0,0,0,0,3.041h23.111v2.847Zm26.607-20.512v2.848H695.336v-2.848Zm-13.25-36.795a8.845,8.845,0,0,0,7.168,7.168v13.336a8.844,8.844,0,0,0-7.168,7.167H695.336V188.317Zm-16.4,33.754H676.179V210.9a1.52,1.52,0,1,0-3.041,0v5.088H659.781a8.845,8.845,0,0,0-7.168-7.167V195.485a8.845,8.845,0,0,0,7.168-7.168h13.358v17.514a1.52,1.52,0,1,0,3.041,0v-23.6H692.3v39.835Z" transform="translate(-643.49 -179.195)" fill="#00223d"/>
      </g>
    </g>
    <g id="Grupo_17835" data-name="Grupo 17835" transform="translate(-333 -44)">
      <rect id="Rectángulo_4379" data-name="Rectángulo 4379" width="113" height="113" transform="translate(724 -3265)" fill="none"/>
      <g id="Grupo_17563" data-name="Grupo 17563" transform="translate(741 -3248)">
        <path id="Trazado_28012" data-name="Trazado 28012" d="M1375.571,397.187a5.3,5.3,0,0,1,.371-6.185,17.05,17.05,0,0,0-26.422-21.556,10.712,10.712,0,0,1-11.058,3.76,22.293,22.293,0,0,0-24.856,33.308h8.136a34.147,34.147,0,0,0,10.779-1.75l14.434-4.81v7.873h1.312a3.936,3.936,0,0,1,3.936,3.936v5.249a3.937,3.937,0,0,1-3.936,3.937h-1.312v7.873l-14.434-4.811a34.2,34.2,0,0,0-5.577-1.341,27.528,27.528,0,1,0,48.623-25.483Z" transform="translate(-1302.334 -361.888)" fill="#74d5e8"/>
        <path id="Trazado_28013" data-name="Trazado 28013" d="M1342.424,405.219a2.624,2.624,0,0,0,2.624-2.624v-6.561a2.624,2.624,0,0,0-2.624-2.624h-1.312a2.624,2.624,0,0,1-2.624-2.624v-3.936a2.624,2.624,0,1,0-5.249,0v3.936a2.624,2.624,0,0,1-2.624,2.624H1329.3v11.81Z" transform="translate(-1308.299 -368.466)" fill="#fff5e0"/>
        <path id="Trazado_28014" data-name="Trazado 28014" d="M1312.125,449.113l1.528,15.747a1.312,1.312,0,0,0,1.312,1.312h7.656a1.312,1.312,0,0,0,1.312-1.312,1.284,1.284,0,0,0-.015-.2L1320,449.113Z" transform="translate(-1302.932 -388.741)" fill="#7d7d7d"/>
        <path id="Trazado_28015" data-name="Trazado 28015" d="M1364.967,441.242a3.937,3.937,0,0,0,3.936-3.937v-5.249a3.936,3.936,0,0,0-3.936-3.936h-1.312v13.122Z" transform="translate(-1319.033 -382.182)" fill="#f2a811"/>
        <path id="Trazado_28016" data-name="Trazado 28016" d="M1308.547,441.957V426.211a7.873,7.873,0,0,0,0,15.746Z" transform="translate(-1299.354 -381.585)" fill="#7d7d7d"/>
        <path id="Trazado_28017" data-name="Trazado 28017" d="M1317.374,441.957V426.211h-5.249v15.746Z" transform="translate(-1302.932 -381.585)" fill="#f2a811"/>
        <path id="Trazado_28018" data-name="Trazado 28018" d="M1335.505,421.479a34.141,34.141,0,0,1-10.785,1.75h-4.961v15.746h4.961a34.837,34.837,0,0,1,10.785,1.75l14.434,4.811V416.669Z" transform="translate(-1305.317 -378.604)" fill="#d9d9d9"/>
        <path id="Trazado_28019" data-name="Trazado 28019" d="M1381.786,393.767a10.5,10.5,0,1,0-10.5-10.5A10.5,10.5,0,0,0,1381.786,393.767Z" transform="translate(-1321.418 -364.887)" fill="#fff5e0"/>
        <g id="Grupo_17562" data-name="Grupo 17562" transform="translate(15.754 13.134)">
          <path id="Trazado_28020" data-name="Trazado 28020" d="M1382.74,380.407v10.5l7.874-5.249Z" transform="translate(-1340.751 -380.407)" fill="#10bde0"/>
          <path id="Trazado_28021" data-name="Trazado 28021" d="M1326.917,408.8V395.675h-5.249v14.434h5.249Z" transform="translate(-1321.668 -385.178)" fill="#10bde0"/>
          <path id="Trazado_28022" data-name="Trazado 28022" d="M1392.927,430.469l-2.147,1.431-2.145-1.431a2.625,2.625,0,0,0-3.312.329l-.559.559a2.624,2.624,0,0,0,0,3.711h0l6.016,6.016,6.018-6.016a2.624,2.624,0,0,0,0-3.711h0l-.559-.559a2.625,2.625,0,0,0-3.312-.329Z" transform="translate(-1341.143 -395.912)" fill="#10bde0"/>
        </g>
        <path id="Trazado_28023" data-name="Trazado 28023" d="M1306.748,422.9l1.416,14.522a2.625,2.625,0,0,0,2.625,2.624h7.656a2.623,2.623,0,0,0,1.992-.919,2.682,2.682,0,0,0,.578-2.231l-3.509-13.909h.656a32.705,32.705,0,0,1,4.338.312,28.815,28.815,0,0,0,26.171,16.746q1.3,0,2.624-.117a29.081,29.081,0,0,0,26.113-26.4,28.648,28.648,0,0,0-4.295-17.621,4,4,0,0,1,.277-4.659,18.366,18.366,0,0,0-28.461-23.221,9.409,9.409,0,0,1-9.688,3.329,23.554,23.554,0,0,0-9.316-.666,23.816,23.816,0,0,0-20.386,20.2,23.472,23.472,0,0,0,2.259,13.734,9.176,9.176,0,0,0-1.049,18.275Zm2.512-2.536V407.242h2.624v13.122Zm9.185,17.058-7.663-.131-1.391-14.3h5.406Zm-3.936-17.058V407.242h3.649a35.333,35.333,0,0,0,11.2-1.819l6.143-2.047v20.853l-6.143-2.047a35.335,35.335,0,0,0-11.2-1.819Zm27.556-19.175v25.228l-3.937-1.312V402.5Zm-33.925-9.956a20.985,20.985,0,0,1,26.393-17.347,12.029,12.029,0,0,0,12.424-4.191,15.737,15.737,0,1,1,24.39,19.894,6.63,6.63,0,0,0-.465,7.711,26.209,26.209,0,1,1-45.153,26.584c.942.224,1.879.48,2.8.787l14.434,4.81a1.305,1.305,0,0,0,1.723-1.244v-6.561a5.248,5.248,0,0,0,5.249-5.249v-5.249a5.249,5.249,0,0,0-5.249-5.249v-6.56a1.314,1.314,0,0,0-1.727-1.246l-14.434,4.811a32.774,32.774,0,0,1-10.37,1.684h-7.369a20.854,20.854,0,0,1-2.649-13.384Zm36.55,17.32a2.624,2.624,0,0,1,2.624,2.624v5.249a2.624,2.624,0,0,1-2.624,2.624Zm-38.054-1.18v12.859a6.561,6.561,0,0,1,0-12.859Z" transform="translate(-1298.754 -361.304)" fill="#00223d"/>
        <path id="Trazado_28024" data-name="Trazado 28024" d="M1325.485,439.571h5.249V442.2h-5.249Z" transform="translate(-1307.106 -385.76)" fill="#00223d"/>
        <path id="Trazado_28025" data-name="Trazado 28025" d="M1325.485,431.937h5.249v2.624h-5.249Z" transform="translate(-1307.106 -383.374)" fill="#00223d"/>
        <path id="Trazado_28026" data-name="Trazado 28026" d="M1381.525,391.465a1.313,1.313,0,0,0,1.348-.065l7.873-5.249a1.312,1.312,0,0,0,0-2.184l-7.873-5.249a1.312,1.312,0,0,0-2.041,1.092v10.5A1.312,1.312,0,0,0,1381.525,391.465Zm1.931-9.2,4.2,2.8-4.2,2.8Z" transform="translate(-1324.4 -366.677)" fill="#00223d"/>
        <path id="Trazado_28027" data-name="Trazado 28027" d="M1381.19,394.483a11.809,11.809,0,1,0-11.809-11.809A11.809,11.809,0,0,0,1381.19,394.483Zm0-20.995a9.185,9.185,0,1,1-9.185,9.185A9.185,9.185,0,0,1,1381.19,373.488Z" transform="translate(-1320.822 -364.291)" fill="#00223d"/>
        <path id="Trazado_28028" data-name="Trazado 28028" d="M1321.072,407.246h5.249a1.312,1.312,0,0,0,1.312-1.312h11.81a3.937,3.937,0,0,0,3.937-3.937v-6.561a3.937,3.937,0,0,0-3.937-3.936h-1.312a1.312,1.312,0,0,1-1.312-1.312v-3.936a3.936,3.936,0,1,0-7.873,0v3.936a1.313,1.313,0,0,1-1.312,1.312,1.312,1.312,0,0,0-1.312-1.312h-5.249a1.313,1.313,0,0,0-1.312,1.312v14.434A1.312,1.312,0,0,0,1321.072,407.246Zm10.5-17.058v-3.936a1.312,1.312,0,1,1,2.624,0v3.936a3.937,3.937,0,0,0,3.936,3.937h1.312a1.312,1.312,0,0,1,1.312,1.312V402a1.312,1.312,0,0,1-1.312,1.312h-11.81v-9.185A3.937,3.937,0,0,0,1331.569,390.188Zm-9.185,2.624h2.624v11.81h-2.624Z" transform="translate(-1305.317 -367.869)" fill="#00223d"/>
        <path id="Trazado_28029" data-name="Trazado 28029" d="M1391.6,428.775l-1.418.946-1.418-.946a3.948,3.948,0,0,0-4.967.491l-.561.562a3.935,3.935,0,0,0,0,5.566l6.017,6.016a1.313,1.313,0,0,0,1.856,0l6.017-6.016a3.937,3.937,0,0,0,0-5.566l-.559-.562a3.951,3.951,0,0,0-4.967-.491Zm3.112,2.346.559.56a1.312,1.312,0,0,1,0,1.856h0l-5.09,5.088-5.089-5.084a1.311,1.311,0,0,1,0-1.855l.56-.56a1.313,1.313,0,0,1,1.656-.164l2.145,1.431a1.311,1.311,0,0,0,1.456,0l2.147-1.431a1.312,1.312,0,0,1,1.654.163Z" transform="translate(-1324.791 -382.181)" fill="#00223d"/>
        <path id="Trazado_28030" data-name="Trazado 28030" d="M1371.346,417.638l1.313-5.248,2.545.637-1.313,5.249Z" transform="translate(-1321.436 -377.267)" fill="#00223d"/>
        <path id="Trazado_28031" data-name="Trazado 28031" d="M1376.162,421.4l5.249-2.624,1.174,2.347-5.249,2.624Z" transform="translate(-1322.941 -379.263)" fill="#00223d"/>
        <path id="Trazado_28032" data-name="Trazado 28032" d="M1371.345,456.922l2.545-.636,1.312,5.249-2.544.636Z" transform="translate(-1321.436 -390.983)" fill="#00223d"/>
        <path id="Trazado_28033" data-name="Trazado 28033" d="M1376.162,453.57l1.174-2.347,5.249,2.624-1.174,2.347Z" transform="translate(-1322.941 -389.401)" fill="#00223d"/>
        <path id="Trazado_28034" data-name="Trazado 28034" d="M1300.674,398.539h2.624c0-17.806,10.559-28.868,27.556-28.868v-2.624C1312.238,367.047,1300.674,379.119,1300.674,398.539Z" transform="translate(-1299.354 -363.099)" fill="#00223d"/>
      </g>
    </g>
    <g id="Grupo_17836" data-name="Grupo 17836" transform="translate(-128 -157)">
      <rect id="Rectángulo_4380" data-name="Rectángulo 4380" width="113" height="113" transform="translate(724 -3152)" fill="none"/>
      <g id="Grupo_17557" data-name="Grupo 17557" transform="translate(741 -3135)">
        <g id="Grupo_17555" data-name="Grupo 17555" transform="translate(1.153 1.154)">
          <g id="Grupo_17554" data-name="Grupo 17554">
            <path id="Trazado_27962" data-name="Trazado 27962" d="M1814.709,53.426h4.531v10.5h-4.531Z" transform="translate(-1794.703 -40.043)" fill="#eef5f6"/>
            <path id="Trazado_27963" data-name="Trazado 27963" d="M1818.54,53.426h2.842v10.5h-2.842Z" transform="translate(-1795.691 -40.043)" fill="#deecf1"/>
            <path id="Trazado_27964" data-name="Trazado 27964" d="M1856.127,53.426h4.531v10.5h-4.531Z" transform="translate(-1805.383 -40.043)" fill="#eef5f6"/>
            <path id="Trazado_27965" data-name="Trazado 27965" d="M1805.085,79.716h48.1v38.913h-48.1Z" transform="translate(-1792.222 -46.822)" fill="#aee4a4"/>
            <path id="Trazado_27966" data-name="Trazado 27966" d="M1867.1,79.716h4.681v38.913H1867.1Z" transform="translate(-1808.213 -46.822)" fill="#8dd5a7"/>
            <path id="Trazado_27967" data-name="Trazado 27967" d="M1855.543,116.076h-6.48l-.751-1.538-1.557,1.538h-9.4a.769.769,0,0,1-.769-.769v-7.576l1.538-1.491-1.538-.816V97.849a.769.769,0,0,1,.769-.769h9.4l1.154,1.538,1.153-1.538h6.48a.769.769,0,0,1,.769.769v17.458a.769.769,0,0,1-.769.769Z" transform="translate(-1800.344 -51.299)" fill="#a4ccff"/>
            <path id="Trazado_27968" data-name="Trazado 27968" d="M1864.465,97.08h-4.614a.769.769,0,0,1,.769.769v17.458a.769.769,0,0,1-.769.769h4.614a.769.769,0,0,0,.769-.769v-7.576l-1.539-1.553,1.539-.754V97.849A.769.769,0,0,0,1864.465,97.08Z" transform="translate(-1806.343 -51.299)" fill="#8bb3ea"/>
            <path id="Trazado_27969" data-name="Trazado 27969" d="M1824.117,123.078l-12.723-1.538V97.849a.769.769,0,0,1,.769-.769h11.186a.769.769,0,0,1,.769.769Z" transform="translate(-1793.849 -51.299)" fill="#b57f5f"/>
            <path id="Trazado_27970" data-name="Trazado 27970" d="M1828.385,97.08h-3.426a.769.769,0,0,1,.77.769v25.23l3.425-1.538V97.849A.769.769,0,0,0,1828.385,97.08Z" transform="translate(-1797.347 -51.299)" fill="#9f6e50"/>
            <path id="Trazado_27971" data-name="Trazado 27971" d="M1859.958,53.426h2.842v10.5h-2.842Z" transform="translate(-1806.371 -40.043)" fill="#deecf1"/>
            <path id="Trazado_27972" data-name="Trazado 27972" d="M1857.268,130.055H1791.6a3.845,3.845,0,0,0-3.845,3.845v1.567a.769.769,0,0,0,.769.769h71.822a.769.769,0,0,0,.769-.769V133.9A3.846,3.846,0,0,0,1857.268,130.055Z" transform="translate(-1787.753 -59.801)" fill="#7f8c93"/>
            <path id="Trazado_27973" data-name="Trazado 27973" d="M1883.934,130.055h-4.691a3.845,3.845,0,0,1,3.845,3.845v1.567a.769.769,0,0,1-.769.769h4.69a.769.769,0,0,0,.769-.769V133.9A3.845,3.845,0,0,0,1883.934,130.055Z" transform="translate(-1811.344 -59.801)" fill="#455b6b"/>
            <path id="Trazado_27974" data-name="Trazado 27974" d="M1867.383,85.451a5.123,5.123,0,0,1-5.685-5.532l-1.538-6.152h11.371v6.152c0,3.14-1.008,5.532-4.148,5.532Z" transform="translate(-1806.423 -45.288)" fill="#f26c72"/>
            <path id="Trazado_27975" data-name="Trazado 27975" d="M1871.969,73.767v6.152a5.687,5.687,0,0,1-4.148,5.473,5.685,5.685,0,0,0,7.223-5.473V75.305Z" transform="translate(-1808.398 -45.288)" fill="#e95059"/>
            <path id="Trazado_27976" data-name="Trazado 27976" d="M1850.262,51.624h-41.425a1.538,1.538,0,0,1-1.538-1.538V36.931a1.538,1.538,0,0,1,1.538-1.538h41.425a1.538,1.538,0,0,1,1.538,1.538V50.086A1.538,1.538,0,0,1,1850.262,51.624Z" transform="translate(-1792.793 -35.393)" fill="#f26c72"/>
            <path id="Trazado_27977" data-name="Trazado 27977" d="M1867.724,35.393h-4.034a1.537,1.537,0,0,1,1.538,1.538V50.086a1.538,1.538,0,0,1-1.538,1.538h4.034a1.538,1.538,0,0,0,1.538-1.538V36.931A1.538,1.538,0,0,0,1867.724,35.393Z" transform="translate(-1807.333 -35.393)" fill="#e95059"/>
            <path id="Trazado_27978" data-name="Trazado 27978" d="M1821.53,116.628h-4.86a.66.66,0,0,1-.661-.66V112.8a.66.66,0,0,1,.661-.66h4.86a.66.66,0,0,1,.661.66v3.17A.66.66,0,0,1,1821.53,116.628Z" transform="translate(-1795.039 -55.181)" fill="#eef5f6"/>
            <path id="Trazado_27979" data-name="Trazado 27979" d="M1824.465,112.137h-1.846a.661.661,0,0,1,.661.661v3.17a.661.661,0,0,1-.661.661h1.846a.66.66,0,0,0,.66-.661V112.8A.66.66,0,0,0,1824.465,112.137Z" transform="translate(-1796.743 -55.181)" fill="#deecf1"/>
            <path id="Trazado_27980" data-name="Trazado 27980" d="M1852.062,85.605a5.686,5.686,0,0,1-5.686-5.686l-1.538-6.152,12.909,1.538v4.614A5.686,5.686,0,0,1,1852.062,85.605Z" transform="translate(-1802.472 -45.288)" fill="#eef5f6"/>
            <path id="Trazado_27981" data-name="Trazado 27981" d="M1836.739,85.605a5.685,5.685,0,0,1-5.686-5.686l-1.539-6.152,12.91,1.538v4.614A5.686,5.686,0,0,1,1836.739,85.605Z" transform="translate(-1798.521 -45.288)" fill="#f26c72"/>
            <path id="Trazado_27982" data-name="Trazado 27982" d="M1821.417,85.605a5.686,5.686,0,0,1-5.686-5.686l-1.538-6.152,12.91,1.538v4.614A5.686,5.686,0,0,1,1821.417,85.605Z" transform="translate(-1794.571 -45.288)" fill="#eef5f6"/>
            <path id="Trazado_27983" data-name="Trazado 27983" d="M1806.629,85.605a5.686,5.686,0,0,1-5.686-5.686V75.305l11.371-1.538v6.152A5.686,5.686,0,0,1,1806.629,85.605Z" transform="translate(-1791.154 -45.288)" fill="#f26c72"/>
            <path id="Trazado_27984" data-name="Trazado 27984" d="M1853.956,65H1803.25a2.307,2.307,0,0,0-2.307,2.307v5.739h55.319V67.306A2.307,2.307,0,0,0,1853.956,65Z" transform="translate(-1791.154 -43.027)" fill="#b57f5f"/>
            <path id="Trazado_27985" data-name="Trazado 27985" d="M1873.377,65H1870.3a2.307,2.307,0,0,1,2.307,2.307v5.739h3.075V67.306A2.306,2.306,0,0,0,1873.377,65Z" transform="translate(-1809.038 -43.027)" fill="#9f6e50"/>
          </g>
        </g>
        <g id="Grupo_17556" data-name="Grupo 17556" transform="translate(0 0)">
          <path id="Trazado_27986" data-name="Trazado 27986" d="M1859.943,120h-7.865v-5.6a1.154,1.154,0,0,0-2.307,0V120h-29.458V97.448a1.925,1.925,0,0,0-1.922-1.922h-12.724a1.924,1.924,0,0,0-1.922,1.922V120h-2.376V100.375a1.153,1.153,0,1,0-2.307,0V120H1791.2a5,5,0,0,0-5,5v1.567a1.924,1.924,0,0,0,1.922,1.922h74.9a1.925,1.925,0,0,0,1.923-1.922V125A5,5,0,0,0,1859.943,120Zm-53.892-22.166h11.955v22.153h-11.955Zm53.892,24.473a2.7,2.7,0,0,1,2.691,2.691v1.183h-74.129V125a2.7,2.7,0,0,1,2.692-2.691Z" transform="translate(-1786.199 -49.744)" fill="#00223d"/>
          <path id="Trazado_27987" data-name="Trazado 27987" d="M1826.645,50.128a1.154,1.154,0,0,0,1.153-1.153V45.4h4.022v3.576a1.154,1.154,0,0,0,2.307,0V39.829a1.154,1.154,0,0,0-2.307,0v3.263H1827.8V39.829a1.153,1.153,0,0,0-2.307,0v9.146A1.153,1.153,0,0,0,1826.645,50.128Z" transform="translate(-1796.331 -35.085)" fill="#00223d"/>
          <path id="Trazado_27988" data-name="Trazado 27988" d="M1817.076,47.821a3.172,3.172,0,0,1-2.333-.977,1.154,1.154,0,0,0-1.709,1.55,5.512,5.512,0,0,0,4.042,1.734,3.782,3.782,0,0,0,3.858-2.933c.228-1.279-.352-2.95-2.666-3.8-1.121-.413-2.166-.864-2.488-1a.623.623,0,0,1-.22-.585.908.908,0,0,1,.72-.724,3.039,3.039,0,0,1,2.508.58,1.153,1.153,0,0,0,1.478-1.771,5.34,5.34,0,0,0-4.651-1.018,3.229,3.229,0,0,0-2.339,2.606,2.919,2.919,0,0,0,1.3,2.888,1.168,1.168,0,0,0,.16.087c.053.024,1.313.584,2.731,1.108.4.147,1.313.561,1.193,1.233a1.532,1.532,0,0,1-1.587,1.032Z" transform="translate(-1793.041 -35.085)" fill="#00223d"/>
          <path id="Trazado_27989" data-name="Trazado 27989" d="M1857.984,48.975V46.149c.51,0,1.069,0,1.393,0a3.735,3.735,0,1,0,0-7.469h-2.546a1.165,1.165,0,0,0-1.153,1.153v9.146a1.153,1.153,0,0,0,2.307,0Zm1.393-7.992a1.428,1.428,0,1,1,0,2.855c-.321,0-.874,0-1.381.005,0-.525-.005-1.1-.005-1.432,0-.281,0-.878,0-1.428Z" transform="translate(-1804.114 -35.085)" fill="#00223d"/>
          <path id="Trazado_27990" data-name="Trazado 27990" d="M1850.052,44.4a5.726,5.726,0,1,0-5.726,5.726A5.733,5.733,0,0,0,1850.052,44.4Zm-9.146,0a3.419,3.419,0,1,1,3.42,3.419A3.424,3.424,0,0,1,1840.907,44.4Z" transform="translate(-1799.71 -35.085)" fill="#00223d"/>
          <path id="Trazado_27991" data-name="Trazado 27991" d="M1836.951,95.526a1.925,1.925,0,0,0-1.922,1.922v17.458a1.924,1.924,0,0,0,1.922,1.922h21.113a1.924,1.924,0,0,0,1.922-1.922V97.448a1.925,1.925,0,0,0-1.922-1.922Zm20.728,9.5h-9.018V97.833h9.018Zm-11.325-7.191v7.191h-9.019V97.833Zm-9.019,9.5h9.019v7.191h-9.019Zm11.326,7.191v-7.191h9.018v7.191Z" transform="translate(-1798.789 -49.744)" fill="#00223d"/>
          <path id="Trazado_27992" data-name="Trazado 27992" d="M1822.9,109.092l-2.138-3.709a1.615,1.615,0,0,0-2.895-.013l-2.263,3.765a1.815,1.815,0,0,0-1.152,1.687v3.17a1.815,1.815,0,0,0,1.814,1.813h6.091a1.815,1.815,0,0,0,1.813-1.813v-3.17A1.816,1.816,0,0,0,1822.9,109.092Zm-2.71-.083h-1.818l.928-1.543Zm1.674,4.491h-5.1v-2.183h5.1Z" transform="translate(-1793.485 -52.053)" fill="#00223d"/>
          <path id="Trazado_27993" data-name="Trazado 27993" d="M1858.553,59.271a3.464,3.464,0,0,0-3.46-3.46h-6.756V52.377h2.808a2.7,2.7,0,0,0,2.691-2.692V36.53a2.7,2.7,0,0,0-2.691-2.692h-28.62a1.154,1.154,0,0,0,0,2.307h28.62a.384.384,0,0,1,.385.384V49.685a.384.384,0,0,1-.385.384H1806.8a.385.385,0,0,1-.384-.384V36.53a.385.385,0,0,1,.384-.384h10.8a1.154,1.154,0,1,0,0-2.307h-10.8a2.7,2.7,0,0,0-2.691,2.692V49.685a2.7,2.7,0,0,0,2.691,2.692h2.808v3.434h-6.757a3.464,3.464,0,0,0-3.46,3.46V69.624a6.835,6.835,0,0,0,3.074,5.7v4.113a1.153,1.153,0,1,0,2.307,0V76.3a8.357,8.357,0,0,1,12.83.158,6.834,6.834,0,0,1,11.372,0,6.833,6.833,0,0,1,11.371,0,6.833,6.833,0,0,1,11.371,0,6.839,6.839,0,0,0,1.458-.158V93.466a1.154,1.154,0,0,0,2.307,0V75.33a6.839,6.839,0,0,0,3.074-5.706V59.271Zm-52.325,14.885a4.538,4.538,0,0,1-4.532-4.532V66.163h9.065v3.461A4.537,4.537,0,0,1,1806.228,74.156Zm11.371,0a4.537,4.537,0,0,1-4.532-4.532V66.163h9.064v3.461A4.537,4.537,0,0,1,1817.6,74.156Zm11.372,0a4.537,4.537,0,0,1-4.532-4.532V66.163h9.064v3.461A4.537,4.537,0,0,1,1828.971,74.156Zm11.371,0a4.538,4.538,0,0,1-4.532-4.532V66.163h9.064v3.461A4.538,4.538,0,0,1,1840.343,74.156Zm11.371,0a4.538,4.538,0,0,1-4.532-4.532V66.163h9.065v3.461A4.537,4.537,0,0,1,1851.714,74.156Zm-5.684-18.345h-3.379V52.377h3.379Zm-28.432,0V52.377h22.746v3.434Zm-5.686-3.434h3.379v3.434h-3.379ZM1801.7,59.271a1.155,1.155,0,0,1,1.154-1.153h52.243a1.155,1.155,0,0,1,1.153,1.153v4.585H1801.7Z" transform="translate(-1789.6 -33.838)" fill="#00223d"/>
        </g>
      </g>
    </g>
  </g>
</svg>
