<svg xmlns="http://www.w3.org/2000/svg" width="404.623" height="256.898" viewBox="0 0 404.623 256.898">
  <g id="Grupo_17838" data-name="Grupo 17838" transform="translate(-292.205 3085)">
    <path id="Trazado_28438" data-name="Trazado 28438" d="M6.4,16.148a5.874,5.874,0,0,1-2.145-.387,5.111,5.111,0,0,1-1.727-1.094,4.93,4.93,0,0,1-1.148-1.773,6.425,6.425,0,0,1-.418-2.363,6.144,6.144,0,0,1,.727-3.039A4.881,4.881,0,0,1,3.648,5.52a5.765,5.765,0,0,1,2.789-.668,5.72,5.72,0,0,1,2.742.656,4.754,4.754,0,0,1,1.93,1.906l-1.234.664A3.516,3.516,0,0,0,8.453,6.629a4.152,4.152,0,0,0-2.016-.488,4.374,4.374,0,0,0-1.6.289A3.628,3.628,0,0,0,2.68,8.641a5.3,5.3,0,0,0-.312,1.867,5.27,5.27,0,0,0,.309,1.852,3.787,3.787,0,0,0,.859,1.379,3.734,3.734,0,0,0,1.3.844,4.48,4.48,0,0,0,1.637.293A3.749,3.749,0,0,0,9,14.02a3.594,3.594,0,0,0,1.184-2.441H6.469V10.391h5.078V16H10.4V13.938a3.851,3.851,0,0,1-1.574,1.637A4.893,4.893,0,0,1,6.4,16.148ZM15.43,9.672a2.322,2.322,0,0,1,.953-1.031,2.87,2.87,0,0,1,1.477-.406V9.508a2.53,2.53,0,0,0-1.785.57,2.382,2.382,0,0,0-.613,1.82V16H14.109V8.32h1.32Zm6.25-2.68,1.961-2.547.719.523-1.75,2.023Zm-.555,9.156a2.613,2.613,0,0,1-1.684-.527,1.894,1.894,0,0,1-.66-1.574,2.237,2.237,0,0,1,.211-1,1.77,1.77,0,0,1,.625-.7,3.749,3.749,0,0,1,.9-.434,8.341,8.341,0,0,1,1.168-.277l1.242-.2q.68-.125.68-.711a1.342,1.342,0,0,0-.48-1.145,1.958,1.958,0,0,0-1.215-.363,1.994,1.994,0,0,0-1.2.352,1.471,1.471,0,0,0-.57,1.078l-1.219-.258a2.346,2.346,0,0,1,.961-1.645,3.59,3.59,0,0,1,2.094-.551,4.247,4.247,0,0,1,1.113.137,3.025,3.025,0,0,1,.93.43,1.927,1.927,0,0,1,.664.828,3.081,3.081,0,0,1,.238,1.262v3.172a1.3,1.3,0,0,0,.176.8.759.759,0,0,0,.605.207h.125V16h-.672A1.281,1.281,0,0,1,23.7,14.961h-.062A2.935,2.935,0,0,1,21.125,16.148Zm.313-1.094a2.049,2.049,0,0,0,1.648-.742,3.056,3.056,0,0,0,.625-2.031l-2.031.391a2.734,2.734,0,0,0-1.191.426.99.99,0,0,0-.387.84.979.979,0,0,0,.371.844A1.586,1.586,0,0,0,21.438,15.055Zm6.7-8.344a4.417,4.417,0,0,1,.082-.895,2.9,2.9,0,0,1,.219-.676,1.606,1.606,0,0,1,.363-.488,2.137,2.137,0,0,1,.473-.332,2.346,2.346,0,0,1,.582-.2,5.463,5.463,0,0,1,.66-.1Q30.836,4,31.258,4V5.133h-.293q-.09,0-.281.016a1.8,1.8,0,0,0-.281.039q-.09.023-.242.078a.618.618,0,0,0-.23.133q-.078.078-.18.2a.816.816,0,0,0-.152.281,2.689,2.689,0,0,0-.086.375,2.991,2.991,0,0,0-.035.48V8.32h1.781V9.4H29.477V16H28.133V9.4H26.648V8.32h1.484Zm5.375-.2a.92.92,0,0,1-.914-.914.867.867,0,0,1,.27-.641.886.886,0,0,1,.645-.266.877.877,0,0,1,.637.266.867.867,0,0,1,.27.641.88.88,0,0,1-.27.645A.871.871,0,0,1,33.508,6.516ZM32.82,16V8.32H34.18V16Zm7.3.141a3.7,3.7,0,0,1-2.75-1.1,3.929,3.929,0,0,1-1.086-2.883,3.937,3.937,0,0,1,1.082-2.883,4,4,0,0,1,4.977-.43,3.391,3.391,0,0,1,1.293,1.867l-1.266.2a2.337,2.337,0,0,0-.867-1.2A2.361,2.361,0,0,0,40.109,9.3a2.27,2.27,0,0,0-1.777.789,3.006,3.006,0,0,0-.7,2.07,2.991,2.991,0,0,0,.7,2.066,2.275,2.275,0,0,0,1.777.785,2.361,2.361,0,0,0,1.391-.422,2.337,2.337,0,0,0,.867-1.2l1.266.211a3.4,3.4,0,0,1-1.3,1.863A3.72,3.72,0,0,1,40.117,16.141Zm8.742.008a4.048,4.048,0,0,1-1.969-.477A3.47,3.47,0,0,1,45.5,14.277a4.283,4.283,0,0,1-.512-2.121,3.912,3.912,0,0,1,1.09-2.895,4.089,4.089,0,0,1,5.559,0,3.92,3.92,0,0,1,1.086,2.895,3.923,3.923,0,0,1-1.09,2.9A3.762,3.762,0,0,1,48.859,16.148Zm-.008-1.125a2.359,2.359,0,0,0,1.816-.789,2.957,2.957,0,0,0,.723-2.078,2.945,2.945,0,0,0-.723-2.07A2.359,2.359,0,0,0,48.852,9.3a2.326,2.326,0,0,0-1.8.789,2.965,2.965,0,0,0-.715,2.07,2.976,2.976,0,0,0,.715,2.078A2.326,2.326,0,0,0,48.852,15.023ZM62.211,5h1.266V16H62.141V6.477L59.5,8.766V7.32ZM69.2,16.156a.877.877,0,0,1-.637-.266.908.908,0,0,1,.637-1.547.884.884,0,0,1,.641.27.887.887,0,0,1,0,1.277A.886.886,0,0,1,69.2,16.156Zm13.2,0a6.3,6.3,0,0,1-2.3-.414,5.41,5.41,0,0,1-1.832-1.156,5.212,5.212,0,0,1-1.2-1.836,6.4,6.4,0,0,1-.437-2.4,6.115,6.115,0,0,1,.75-3.066,5.106,5.106,0,0,1,2.059-2.027,6.164,6.164,0,0,1,2.965-.7,5.99,5.99,0,0,1,3.313.914,5,5,0,0,1,2.023,2.516l-2.187.8a3.092,3.092,0,0,0-1.211-1.523A3.459,3.459,0,0,0,82.4,6.711,3.316,3.316,0,0,0,79.93,7.7a3.622,3.622,0,0,0-.969,2.656,3.627,3.627,0,0,0,.973,2.66A3.312,3.312,0,0,0,82.4,14a3.446,3.446,0,0,0,1.934-.551,3.106,3.106,0,0,0,1.215-1.527l2.188.8a5.024,5.024,0,0,1-2.023,2.52A5.971,5.971,0,0,1,82.4,16.156Zm8.109-9.391a1.263,1.263,0,0,1-.922-.379,1.244,1.244,0,0,1-.383-.918,1.229,1.229,0,0,1,.387-.91,1.267,1.267,0,0,1,.918-.379A1.3,1.3,0,0,1,91.8,5.469a1.3,1.3,0,0,1-1.289,1.3ZM89.359,16V7.969h2.266V16Zm8.227.148a4.291,4.291,0,0,1-3.1-1.156,3.994,3.994,0,0,1-1.2-3.016,3.984,3.984,0,0,1,1.2-3.016,4.768,4.768,0,0,1,5.707-.375,3.453,3.453,0,0,1,1.344,2.18l-2.078.227a1.78,1.78,0,0,0-.672-1.055,2.043,2.043,0,0,0-1.219-.352,1.842,1.842,0,0,0-1.469.656,2.573,2.573,0,0,0-.562,1.734,2.576,2.576,0,0,0,.563,1.73,1.837,1.837,0,0,0,1.469.66,2.025,2.025,0,0,0,1.215-.352,1.822,1.822,0,0,0,.676-1.055l2.078.227a3.463,3.463,0,0,1-1.355,2.18A4.262,4.262,0,0,1,97.586,16.148ZM103.133,16V4h2.273V16Zm8.344.156a5.05,5.05,0,0,1-2.273-.492,3.679,3.679,0,0,1-1.559-1.445,4.307,4.307,0,0,1-.566-2.242A3.929,3.929,0,0,1,108.3,8.93a5.095,5.095,0,0,1,6.367,0,3.929,3.929,0,0,1,1.219,3.047,3.951,3.951,0,0,1-1.219,3.059A4.523,4.523,0,0,1,111.477,16.156Zm-.023-1.789a2.061,2.061,0,0,0,1.59-.656,2.457,2.457,0,0,0,.605-1.734,2.457,2.457,0,0,0-.605-1.734,2.061,2.061,0,0,0-1.59-.656,1.986,1.986,0,0,0-1.543.66,2.479,2.479,0,0,0-.6,1.73,2.479,2.479,0,0,0,.6,1.73A1.986,1.986,0,0,0,111.453,14.367ZM127.406,4h2.25V16h-2.133l-.055-1.047a2.294,2.294,0,0,1-1.02.91,3.432,3.432,0,0,1-1.5.324,3.906,3.906,0,0,1-1.5-.289,3.613,3.613,0,0,1-2.062-2.141,4.885,4.885,0,0,1-.3-1.758,4.566,4.566,0,0,1,.531-2.238,3.64,3.64,0,0,1,1.4-1.457,3.862,3.862,0,0,1,1.934-.492,3.518,3.518,0,0,1,1.457.293,2.275,2.275,0,0,1,1,.832Zm-1.945,10.32a2,2,0,0,0,1.52-.641,2.345,2.345,0,0,0,.605-1.68,2.35,2.35,0,0,0-.609-1.684,2,2,0,0,0-1.516-.645,2.024,2.024,0,0,0-1.527.633,2.35,2.35,0,0,0-.605,1.7,2.339,2.339,0,0,0,.605,1.688A2.024,2.024,0,0,0,125.461,14.32Zm14.078-2.453-.023.539h-5.953a2.079,2.079,0,0,0,.641,1.469,2.049,2.049,0,0,0,1.414.508,1.974,1.974,0,0,0,1.059-.277,1.7,1.7,0,0,0,.676-.809l2.063.3a3.506,3.506,0,0,1-1.406,1.883,4.181,4.181,0,0,1-2.375.672,4.348,4.348,0,0,1-3.129-1.105,4.034,4.034,0,0,1-1.16-3.066,4.058,4.058,0,0,1,1.164-3.066A4.219,4.219,0,0,1,135.563,7.8a4.032,4.032,0,0,1,2.883,1.023A4.015,4.015,0,0,1,139.539,11.867Zm-3.961-2.477a1.778,1.778,0,0,0-1.953,1.547h3.688a1.691,1.691,0,0,0-.555-1.148A1.758,1.758,0,0,0,135.578,9.391Zm15.055-1.422h2.383L149.594,16h-1.953l-3.383-8.031h2.367l2,5.492Zm4.711-1.2a1.263,1.263,0,0,1-.922-.379,1.244,1.244,0,0,1-.383-.918,1.229,1.229,0,0,1,.387-.91,1.267,1.267,0,0,1,.918-.379,1.3,1.3,0,0,1,1.289,1.289,1.3,1.3,0,0,1-1.289,1.3ZM154.2,16V7.969h2.266V16ZM164.484,4h2.25V16H164.6l-.055-1.047a2.294,2.294,0,0,1-1.02.91,3.432,3.432,0,0,1-1.5.324,3.906,3.906,0,0,1-1.5-.289,3.613,3.613,0,0,1-2.062-2.141,4.885,4.885,0,0,1-.3-1.758,4.566,4.566,0,0,1,.531-2.238,3.64,3.64,0,0,1,1.4-1.457,3.862,3.862,0,0,1,1.934-.492,3.518,3.518,0,0,1,1.457.293,2.275,2.275,0,0,1,1,.832Zm-1.945,10.32a2,2,0,0,0,1.52-.641,2.345,2.345,0,0,0,.605-1.68,2.35,2.35,0,0,0-.609-1.684,2,2,0,0,0-1.516-.645,2.024,2.024,0,0,0-1.527.633,2.35,2.35,0,0,0-.605,1.7,2.339,2.339,0,0,0,.605,1.688A2.024,2.024,0,0,0,162.539,14.32Zm13.109-.5a7.514,7.514,0,0,0,.2,1.961V16h-2.1l-.18-.875a2.611,2.611,0,0,1-1.125.773,4.146,4.146,0,0,1-1.453.258,3.821,3.821,0,0,1-.75-.07,2.55,2.55,0,0,1-.676-.238A2.051,2.051,0,0,1,169,15.43a1.833,1.833,0,0,1-.375-.637,2.536,2.536,0,0,1-.141-.871,2.416,2.416,0,0,1,.148-.871,2.042,2.042,0,0,1,.391-.652,2.369,2.369,0,0,1,.633-.477,4.842,4.842,0,0,1,.8-.344,9.521,9.521,0,0,1,.953-.25l1.32-.3a1.456,1.456,0,0,0,.6-.254.506.506,0,0,0,.176-.4.829.829,0,0,0-.395-.773,1.842,1.842,0,0,0-.957-.234,1.377,1.377,0,0,0-1.57,1.227l-1.992-.359A2.7,2.7,0,0,1,169.75,8.4a4.627,4.627,0,0,1,2.523-.59q3.375,0,3.375,2.9Zm-3.961.813a1.81,1.81,0,0,0,1.391-.582,2.453,2.453,0,0,0,.539-1.723l-1.906.539a2.253,2.253,0,0,0-.8.328.674.674,0,0,0-.277.578.748.748,0,0,0,.3.637A1.229,1.229,0,0,0,171.688,14.633ZM187.688,4h2.25V16H187.8l-.055-1.047a2.294,2.294,0,0,1-1.02.91,3.432,3.432,0,0,1-1.5.324,3.906,3.906,0,0,1-1.5-.289,3.613,3.613,0,0,1-2.062-2.141,4.885,4.885,0,0,1-.3-1.758,4.566,4.566,0,0,1,.531-2.238,3.64,3.64,0,0,1,1.4-1.457,3.862,3.862,0,0,1,1.934-.492,3.518,3.518,0,0,1,1.457.293,2.275,2.275,0,0,1,1,.832Zm-1.945,10.32a2,2,0,0,0,1.52-.641,2.345,2.345,0,0,0,.605-1.68,2.35,2.35,0,0,0-.609-1.684,2,2,0,0,0-1.516-.645,2.024,2.024,0,0,0-1.527.633,2.35,2.35,0,0,0-.605,1.7,2.339,2.339,0,0,0,.605,1.688A2.024,2.024,0,0,0,185.742,14.32Zm14.078-2.453-.023.539h-5.953a2.079,2.079,0,0,0,.641,1.469,2.049,2.049,0,0,0,1.414.508,1.974,1.974,0,0,0,1.059-.277,1.7,1.7,0,0,0,.676-.809l2.063.3a3.506,3.506,0,0,1-1.406,1.883,4.181,4.181,0,0,1-2.375.672,4.348,4.348,0,0,1-3.129-1.105,4.034,4.034,0,0,1-1.16-3.066,4.058,4.058,0,0,1,1.164-3.066A4.219,4.219,0,0,1,195.844,7.8a4.032,4.032,0,0,1,2.883,1.023A4.015,4.015,0,0,1,199.82,11.867Zm-3.961-2.477a1.778,1.778,0,0,0-1.953,1.547h3.688a1.691,1.691,0,0,0-.555-1.148A1.758,1.758,0,0,0,195.859,9.391Zm15.148-1.422h2.25V16h-2.133l-.055-.969a3.067,3.067,0,0,1-2.555,1.125,3.131,3.131,0,0,1-2.219-.723,2.68,2.68,0,0,1-.773-2.059V7.969h2.258v4.922a1.388,1.388,0,0,0,.4,1.1,1.527,1.527,0,0,0,1.043.352,1.811,1.811,0,0,0,1.277-.457,1.963,1.963,0,0,0,.5-1.488Zm9.32-.156a3.131,3.131,0,0,1,2.219.723,2.68,2.68,0,0,1,.773,2.059V16h-2.258V11.078a1.4,1.4,0,0,0-.4-1.109,1.516,1.516,0,0,0-1.035-.352,2.115,2.115,0,0,0-.672.1,1.726,1.726,0,0,0-.562.316,1.4,1.4,0,0,0-.4.605,2.8,2.8,0,0,0-.152.93V16h-2.25V7.969h2.25v.891A3.1,3.1,0,0,1,220.328,7.813Zm14.039,0a3.906,3.906,0,0,1,1.5.289,3.754,3.754,0,0,1,1.23.813,3.676,3.676,0,0,1,.832,1.324,5.246,5.246,0,0,1,0,3.523,3.676,3.676,0,0,1-.832,1.324,3.754,3.754,0,0,1-1.23.813,3.906,3.906,0,0,1-1.5.289,3.485,3.485,0,0,1-1.453-.3,2.277,2.277,0,0,1-1.008-.844v4.859h-2.25V7.969h2.133l.063,1.078a2.2,2.2,0,0,1,1-.91A3.45,3.45,0,0,1,234.367,7.813Zm-.508,6.508a2.021,2.021,0,0,0,1.52-.629A2.336,2.336,0,0,0,235.984,12a2.336,2.336,0,0,0-.605-1.691,2.15,2.15,0,0,0-3.051.012,2.336,2.336,0,0,0-.609,1.68,2.336,2.336,0,0,0,.609,1.68A2.025,2.025,0,0,0,233.859,14.32Zm8.227-5.078a2.607,2.607,0,0,1,1.055-.965,3.218,3.218,0,0,1,1.57-.4V9.883a3.042,3.042,0,0,0-1.922.484,2.115,2.115,0,0,0-.594,1.719V16H239.93V7.969h2.156Zm7.641,6.914a5.05,5.05,0,0,1-2.273-.492,3.679,3.679,0,0,1-1.559-1.445,4.307,4.307,0,0,1-.566-2.242,3.929,3.929,0,0,1,1.219-3.047,5.095,5.095,0,0,1,6.367,0,3.929,3.929,0,0,1,1.219,3.047,3.951,3.951,0,0,1-1.219,3.059A4.523,4.523,0,0,1,249.727,16.156Zm-.023-1.789a2.061,2.061,0,0,0,1.59-.656,2.457,2.457,0,0,0,.605-1.734,2.457,2.457,0,0,0-.605-1.734,2.061,2.061,0,0,0-1.59-.656,1.986,1.986,0,0,0-1.543.66,2.479,2.479,0,0,0-.6,1.73,2.479,2.479,0,0,0,.6,1.73A1.986,1.986,0,0,0,249.7,14.367ZM261.5,4h2.25V16h-2.133l-.055-1.047a2.293,2.293,0,0,1-1.02.91,3.432,3.432,0,0,1-1.5.324,3.906,3.906,0,0,1-1.5-.289,3.613,3.613,0,0,1-2.062-2.141,4.885,4.885,0,0,1-.3-1.758,4.566,4.566,0,0,1,.531-2.238,3.64,3.64,0,0,1,1.4-1.457,3.862,3.862,0,0,1,1.934-.492,3.518,3.518,0,0,1,1.457.293,2.275,2.275,0,0,1,1,.832Zm-1.945,10.32a2,2,0,0,0,1.52-.641A2.345,2.345,0,0,0,261.68,12a2.35,2.35,0,0,0-.609-1.684,2,2,0,0,0-1.516-.645,2.024,2.024,0,0,0-1.527.633,2.35,2.35,0,0,0-.605,1.7,2.339,2.339,0,0,0,.605,1.688A2.024,2.024,0,0,0,259.555,14.32ZM271.4,7.969h2.25V16h-2.133l-.055-.969a3.067,3.067,0,0,1-2.555,1.125,3.131,3.131,0,0,1-2.219-.723,2.68,2.68,0,0,1-.773-2.059V7.969h2.258v4.922a1.388,1.388,0,0,0,.4,1.1,1.527,1.527,0,0,0,1.043.352,1.811,1.811,0,0,0,1.277-.457,1.963,1.963,0,0,0,.5-1.488Zm8.211,8.18a4.291,4.291,0,0,1-3.1-1.156,3.994,3.994,0,0,1-1.2-3.016,3.985,3.985,0,0,1,1.2-3.016,4.768,4.768,0,0,1,5.707-.375,3.453,3.453,0,0,1,1.344,2.18l-2.078.227a1.78,1.78,0,0,0-.672-1.055,2.043,2.043,0,0,0-1.219-.352,1.842,1.842,0,0,0-1.469.656,2.573,2.573,0,0,0-.562,1.734,2.576,2.576,0,0,0,.563,1.73,1.837,1.837,0,0,0,1.469.66,2.025,2.025,0,0,0,1.215-.352,1.822,1.822,0,0,0,.676-1.055l2.078.227a3.463,3.463,0,0,1-1.355,2.18A4.262,4.262,0,0,1,279.609,16.148ZM288.148,16a2.426,2.426,0,0,1-1.812-.652,2.537,2.537,0,0,1-.641-1.855V9.7h-1.578V7.969h.508a1.325,1.325,0,0,0,1-.336,1.73,1.73,0,0,0,.32-1.2V5.375h2.031V7.969h1.656V9.7h-1.656V13.25q0,1.039.93,1.039h.727V16Zm6.938.156a5.05,5.05,0,0,1-2.273-.492,3.678,3.678,0,0,1-1.559-1.445,4.307,4.307,0,0,1-.566-2.242,3.929,3.929,0,0,1,1.219-3.047,5.095,5.095,0,0,1,6.367,0,3.929,3.929,0,0,1,1.219,3.047,3.951,3.951,0,0,1-1.219,3.059A4.523,4.523,0,0,1,295.086,16.156Zm-.023-1.789a2.061,2.061,0,0,0,1.59-.656,2.457,2.457,0,0,0,.605-1.734,2.457,2.457,0,0,0-.605-1.734,2.061,2.061,0,0,0-1.59-.656,1.986,1.986,0,0,0-1.543.66,2.479,2.479,0,0,0-.6,1.73,2.479,2.479,0,0,0,.6,1.73A1.986,1.986,0,0,0,295.063,14.367Zm7.367,1.789a1.294,1.294,0,0,1-1.281-1.281,1.254,1.254,0,0,1,.379-.914,1.226,1.226,0,0,1,.9-.383,1.307,1.307,0,0,1,1.3,1.3,1.226,1.226,0,0,1-.383.9A1.254,1.254,0,0,1,302.43,16.156ZM7.477,29v1.273H4.656V40H3.266V30.273H.438V29Zm3.766,11.148a4.048,4.048,0,0,1-1.969-.477,3.47,3.47,0,0,1-1.387-1.395,4.283,4.283,0,0,1-.512-2.121,3.912,3.912,0,0,1,1.09-2.895,3.762,3.762,0,0,1,2.777-1.09,3.759,3.759,0,0,1,2.781,1.09,3.92,3.92,0,0,1,1.086,2.895,3.923,3.923,0,0,1-1.09,2.9A3.762,3.762,0,0,1,11.242,40.148Zm-.008-1.125a2.359,2.359,0,0,0,1.816-.789,3.338,3.338,0,0,0,0-4.148,2.359,2.359,0,0,0-1.816-.789,2.326,2.326,0,0,0-1.8.789,3.367,3.367,0,0,0,0,4.148A2.326,2.326,0,0,0,11.234,39.023Zm13.844-6.852a2.476,2.476,0,0,1,1.789.652,2.42,2.42,0,0,1,.68,1.832V40H26.2V35.008a1.735,1.735,0,0,0-.422-1.266,1.436,1.436,0,0,0-1.07-.43,1.517,1.517,0,0,0-1.172.484,2.083,2.083,0,0,0-.445,1.453V40H21.711V35.063a1.815,1.815,0,0,0-.426-1.309,1.448,1.448,0,0,0-1.09-.441,1.5,1.5,0,0,0-1.168.5,2.155,2.155,0,0,0-.449,1.488V40H17.227V32.32h1.352v.992a2.333,2.333,0,0,1,.879-.844,2.506,2.506,0,0,1,1.223-.3,2.609,2.609,0,0,1,1.313.324,2.018,2.018,0,0,1,.852.934,2.39,2.39,0,0,1,.922-.934A2.637,2.637,0,0,1,25.078,32.172Zm6.859,7.977a2.613,2.613,0,0,1-1.684-.527,1.894,1.894,0,0,1-.66-1.574,2.237,2.237,0,0,1,.211-1,1.77,1.77,0,0,1,.625-.7,3.749,3.749,0,0,1,.9-.434,8.342,8.342,0,0,1,1.168-.277l1.242-.2q.68-.125.68-.711a1.342,1.342,0,0,0-.48-1.145,1.958,1.958,0,0,0-1.215-.363,1.994,1.994,0,0,0-1.2.352,1.471,1.471,0,0,0-.57,1.078l-1.219-.258a2.346,2.346,0,0,1,.961-1.645,3.59,3.59,0,0,1,2.094-.551,4.247,4.247,0,0,1,1.113.137,3.025,3.025,0,0,1,.93.43,1.927,1.927,0,0,1,.664.828,3.081,3.081,0,0,1,.238,1.262v3.172a1.3,1.3,0,0,0,.176.8.759.759,0,0,0,.605.207h.125V40h-.672a1.281,1.281,0,0,1-1.453-1.039h-.062A2.935,2.935,0,0,1,31.938,40.148Zm.313-1.094a2.049,2.049,0,0,0,1.648-.742,3.056,3.056,0,0,0,.625-2.031l-2.031.391A2.734,2.734,0,0,0,31.3,37.1a.99.99,0,0,0-.387.84.979.979,0,0,0,.371.844A1.586,1.586,0,0,0,32.25,39.055ZM44.063,28h1.352V40h-1.3l-.031-1.492a2.826,2.826,0,0,1-1.094,1.211,3.048,3.048,0,0,1-1.625.445,3.49,3.49,0,0,1-2.535-1.082,3.7,3.7,0,0,1-.773-1.27,4.644,4.644,0,0,1-.285-1.648,4.038,4.038,0,0,1,1.043-2.883,3.367,3.367,0,0,1,2.551-1.109,3.061,3.061,0,0,1,1.605.434,2.842,2.842,0,0,1,1.1,1.176ZM41.641,38.992a2.3,2.3,0,0,0,1.785-.809,3.171,3.171,0,0,0,0-4.035,2.3,2.3,0,0,0-1.781-.812,2.35,2.35,0,0,0-1.8.785,3.236,3.236,0,0,0,0,4.086A2.35,2.35,0,0,0,41.641,38.992ZM51.4,40.148a4.048,4.048,0,0,1-1.969-.477,3.47,3.47,0,0,1-1.387-1.395,4.284,4.284,0,0,1-.512-2.121,3.912,3.912,0,0,1,1.09-2.895,4.089,4.089,0,0,1,5.559,0,3.92,3.92,0,0,1,1.086,2.895,3.923,3.923,0,0,1-1.09,2.9A3.762,3.762,0,0,1,51.4,40.148Zm-.008-1.125a2.359,2.359,0,0,0,1.816-.789,3.338,3.338,0,0,0,0-4.148,2.359,2.359,0,0,0-1.816-.789,2.326,2.326,0,0,0-1.8.789,3.367,3.367,0,0,0,0,4.148A2.326,2.326,0,0,0,51.391,39.023ZM67.211,28h1.352V40h-1.3l-.031-1.492a2.826,2.826,0,0,1-1.094,1.211,3.048,3.048,0,0,1-1.625.445,3.49,3.49,0,0,1-2.535-1.082,3.7,3.7,0,0,1-.773-1.27,4.644,4.644,0,0,1-.285-1.648,4.038,4.038,0,0,1,1.043-2.883,3.367,3.367,0,0,1,2.551-1.109,3.061,3.061,0,0,1,1.605.434,2.842,2.842,0,0,1,1.1,1.176ZM64.789,38.992a2.3,2.3,0,0,0,1.785-.809,3.171,3.171,0,0,0,0-4.035,2.3,2.3,0,0,0-1.781-.812,2.35,2.35,0,0,0-1.8.785,3.236,3.236,0,0,0,0,4.086A2.35,2.35,0,0,0,64.789,38.992Zm13.242-2.984-.016.367h-6a2.714,2.714,0,0,0,.734,1.965,2.411,2.411,0,0,0,1.75.684,2.3,2.3,0,0,0,1.273-.367,2.383,2.383,0,0,0,.875-1.016l1.219.258a3.464,3.464,0,0,1-1.312,1.648,3.581,3.581,0,0,1-2.039.6,3.71,3.71,0,0,1-2.766-1.07A3.982,3.982,0,0,1,70.7,36.156a3.962,3.962,0,0,1,1.059-2.914,3.664,3.664,0,0,1,2.723-1.07,3.467,3.467,0,0,1,2.582.984A3.889,3.889,0,0,1,78.031,36.008Zm-3.555-2.8a2.4,2.4,0,0,0-1.6.543,2.488,2.488,0,0,0-.809,1.582h4.6A2.282,2.282,0,0,0,76,33.754,2.17,2.17,0,0,0,74.477,33.211ZM96.289,40H94.93L94.2,30.922,90.68,40h-.836l-3.492-9.047L85.609,40H84.242l.836-11h1.844l3.336,8.578L93.6,29h1.859Zm4.352.148a2.613,2.613,0,0,1-1.684-.527,1.894,1.894,0,0,1-.66-1.574,2.237,2.237,0,0,1,.211-1,1.77,1.77,0,0,1,.625-.7,3.749,3.749,0,0,1,.9-.434,8.342,8.342,0,0,1,1.168-.277l1.242-.2q.68-.125.68-.711a1.342,1.342,0,0,0-.48-1.145,1.958,1.958,0,0,0-1.215-.363,1.994,1.994,0,0,0-1.2.352,1.471,1.471,0,0,0-.57,1.078l-1.219-.258a2.346,2.346,0,0,1,.961-1.645,3.59,3.59,0,0,1,2.094-.551,4.247,4.247,0,0,1,1.113.137,3.025,3.025,0,0,1,.93.43,1.927,1.927,0,0,1,.664.828,3.081,3.081,0,0,1,.238,1.262v3.172a1.3,1.3,0,0,0,.176.8.759.759,0,0,0,.605.207h.125V40h-.672a1.281,1.281,0,0,1-1.453-1.039h-.062A2.935,2.935,0,0,1,100.641,40.148Zm.313-1.094a2.049,2.049,0,0,0,1.648-.742,3.056,3.056,0,0,0,.625-2.031l-2.031.391A2.734,2.734,0,0,0,100,37.1a.99.99,0,0,0-.387.84.979.979,0,0,0,.371.844A1.586,1.586,0,0,0,100.953,39.055Zm7.617-5.383a2.322,2.322,0,0,1,.953-1.031A2.87,2.87,0,0,1,111,32.234v1.273a2.53,2.53,0,0,0-1.785.57,2.382,2.382,0,0,0-.613,1.82V40H107.25V32.32h1.32ZM115.484,40a2.019,2.019,0,0,1-1.5-.551,2.084,2.084,0,0,1-.547-1.535V33.4h-1.57V32.32h.578a1.11,1.11,0,0,0,.848-.27,1.326,1.326,0,0,0,.246-.9V29.758H114.8V32.32h1.766V33.4H114.8v4.375a1.164,1.164,0,0,0,.293.848,1.026,1.026,0,0,0,.77.3h.7V40Zm3.2-9.008,1.961-2.547.719.523-1.75,2.023ZM118.516,40V32.32h1.359V40Zm7.734-7.828a2.671,2.671,0,0,1,1.934.7,2.594,2.594,0,0,1,.723,1.961V40h-1.352V35.133a1.816,1.816,0,0,0-.469-1.375,1.676,1.676,0,0,0-1.2-.445,1.858,1.858,0,0,0-1.367.527,2.14,2.14,0,0,0-.539,1.566V40h-1.352V32.32h1.352V33.3A2.565,2.565,0,0,1,126.25,32.172Zm11.984,3.836-.016.367h-6a2.714,2.714,0,0,0,.734,1.965,2.411,2.411,0,0,0,1.75.684,2.3,2.3,0,0,0,1.273-.367,2.383,2.383,0,0,0,.875-1.016l1.219.258a3.464,3.464,0,0,1-1.312,1.648,3.581,3.581,0,0,1-2.039.6,3.71,3.71,0,0,1-2.766-1.07,3.982,3.982,0,0,1-1.055-2.922,3.962,3.962,0,0,1,1.059-2.914,3.664,3.664,0,0,1,2.723-1.07,3.467,3.467,0,0,1,2.582.984A3.889,3.889,0,0,1,138.234,36.008Zm-3.555-2.8a2.4,2.4,0,0,0-1.6.543,2.488,2.488,0,0,0-.809,1.582h4.6a2.282,2.282,0,0,0-.672-1.582A2.17,2.17,0,0,0,134.68,33.211Zm6.508,5.7h4.094V40h-6.125l4.047-6.578h-3.812v-1.1h5.883ZM154.148,43.9a6.487,6.487,0,0,1-2.41-3.176,13.749,13.749,0,0,1-.879-5.137,13.8,13.8,0,0,1,.879-5.133,6.485,6.485,0,0,1,2.41-3.187l.719.891a5.481,5.481,0,0,0-2.055,2.785,12.89,12.89,0,0,0-.758,4.645,12.871,12.871,0,0,0,.754,4.645A5.442,5.442,0,0,0,154.867,43Zm3.781-5.141h5.477V40h-7.422V38.977l4.406-4.555a5.219,5.219,0,0,0,.992-1.3,2.6,2.6,0,0,0,.273-1.133,1.9,1.9,0,0,0-.555-1.457,2.264,2.264,0,0,0-2.941.047,2.437,2.437,0,0,0-.559,1.77v.813l-1.352-.125v-.68a3.477,3.477,0,0,1,.93-2.613,3.849,3.849,0,0,1,4.871-.066,2.907,2.907,0,0,1,.934,2.281,3.459,3.459,0,0,1-.371,1.59,6.835,6.835,0,0,1-1.191,1.582Zm10.789,1.391a3.064,3.064,0,0,1-2.711-1.437,7.665,7.665,0,0,1-.953-4.219A7.7,7.7,0,0,1,166,30.281a3.294,3.294,0,0,1,5.434,0,7.677,7.677,0,0,1,.945,4.207,7.643,7.643,0,0,1-.957,4.215A3.058,3.058,0,0,1,168.719,40.148Zm0-1.25a1.861,1.861,0,0,0,1.711-1.1,7.182,7.182,0,0,0,.594-3.3,6.979,6.979,0,0,0-.605-3.3,1.88,1.88,0,0,0-3.4,0,7.014,7.014,0,0,0-.6,3.3A7.219,7.219,0,0,0,167,37.8,1.859,1.859,0,0,0,168.719,38.9ZM177.8,29h1.266V40h-1.336V30.477l-2.641,2.289V31.32Zm5.188,0h7.523v1.133L185.141,40h-1.547l5.422-9.75h-6.023Zm9.3,14.9-.719-.9a5.442,5.442,0,0,0,2.059-2.77,12.871,12.871,0,0,0,.754-4.645,12.89,12.89,0,0,0-.758-4.645,5.481,5.481,0,0,0-2.055-2.785l.719-.891a6.485,6.485,0,0,1,2.41,3.188,13.8,13.8,0,0,1,.879,5.133,13.749,13.749,0,0,1-.879,5.137A6.487,6.487,0,0,1,192.289,43.9Zm6.773-3.742a.877.877,0,0,1-.637-.266.908.908,0,0,1,.637-1.547.884.884,0,0,1,.641.27.887.887,0,0,1,0,1.277A.886.886,0,0,1,199.063,40.156Z" transform="translate(342 -2872)" fill="#00223d"/>
    <path id="Trazado_28439" data-name="Trazado 28439" d="M0,0H142.359V66.5H0Z" transform="translate(410.434 -3062.143) rotate(90)" fill="#ffe0d1"/>
    <path id="Trazado_28440" data-name="Trazado 28440" d="M0,0H142.359V66.5H0Z" transform="translate(476.938 -3062.143) rotate(90)" fill="#36d28f"/>
    <path id="Trazado_28441" data-name="Trazado 28441" d="M0,0H142.359V66.5H0Z" transform="translate(543.442 -3062.143) rotate(90)" fill="#adf3ff"/>
    <path id="Trazado_28442" data-name="Trazado 28442" d="M0,0H142.359V66.5H0Z" transform="translate(609.946 -3062.143) rotate(90)" fill="#ffb655"/>
    <path id="Trazado_28443" data-name="Trazado 28443" d="M14.4,4.711V6.773h-2.68V16H9.4V6.773H6.7V4.711Zm2.625,2.055a1.263,1.263,0,0,1-.922-.379,1.244,1.244,0,0,1-.383-.918,1.229,1.229,0,0,1,.387-.91,1.267,1.267,0,0,1,.918-.379,1.3,1.3,0,0,1,1.289,1.289,1.3,1.3,0,0,1-1.289,1.3ZM15.875,16V7.969h2.266V16Zm12.148-4.133L28,12.406H22.047a2.079,2.079,0,0,0,.641,1.469,2.049,2.049,0,0,0,1.414.508,1.974,1.974,0,0,0,1.059-.277,1.7,1.7,0,0,0,.676-.809l2.063.3a3.506,3.506,0,0,1-1.406,1.883,4.181,4.181,0,0,1-2.375.672,4.348,4.348,0,0,1-3.129-1.105,4.034,4.034,0,0,1-1.16-3.066,4.058,4.058,0,0,1,1.164-3.066A4.219,4.219,0,0,1,24.047,7.8,4.032,4.032,0,0,1,26.93,8.82,4.015,4.015,0,0,1,28.023,11.867ZM24.063,9.391a1.778,1.778,0,0,0-1.953,1.547H25.8a1.691,1.691,0,0,0-.555-1.148A1.758,1.758,0,0,0,24.063,9.391ZM39.25,7.813a3.068,3.068,0,0,1,2.07.652,2.334,2.334,0,0,1,.758,1.871V16h-2.25V10.977a1.342,1.342,0,0,0-.359-1.016,1.259,1.259,0,0,0-.906-.344,1.452,1.452,0,0,0-1.094.438,1.987,1.987,0,0,0-.422,1.414V16H34.773V11a1.377,1.377,0,0,0-.359-1.035,1.281,1.281,0,0,0-.93-.348,1.405,1.405,0,0,0-1.086.461,2.2,2.2,0,0,0-.422,1.508V16H29.734V7.969h2.242v.945a2.731,2.731,0,0,1,2.328-1.1,3.434,3.434,0,0,1,1.512.309,2.058,2.058,0,0,1,.949.895A2.84,2.84,0,0,1,39.25,7.813Zm9.727,0a3.906,3.906,0,0,1,1.5.289,3.754,3.754,0,0,1,1.23.813,3.676,3.676,0,0,1,.832,1.324,5.246,5.246,0,0,1,0,3.523,3.676,3.676,0,0,1-.832,1.324,3.754,3.754,0,0,1-1.23.813,3.906,3.906,0,0,1-1.5.289,3.485,3.485,0,0,1-1.453-.3,2.277,2.277,0,0,1-1.008-.844v4.859h-2.25V7.969H46.4l.063,1.078a2.2,2.2,0,0,1,1-.91A3.45,3.45,0,0,1,48.977,7.813Zm-.508,6.508a2.021,2.021,0,0,0,1.52-.629A2.336,2.336,0,0,0,50.594,12a2.336,2.336,0,0,0-.605-1.691,2.15,2.15,0,0,0-3.051.012A2.336,2.336,0,0,0,46.328,12a2.336,2.336,0,0,0,.609,1.68A2.025,2.025,0,0,0,48.469,14.32Zm9.813,1.836a5.05,5.05,0,0,1-2.273-.492,3.679,3.679,0,0,1-1.559-1.445,4.307,4.307,0,0,1-.566-2.242A3.929,3.929,0,0,1,55.1,8.93a5.095,5.095,0,0,1,6.367,0,3.929,3.929,0,0,1,1.219,3.047,3.951,3.951,0,0,1-1.219,3.059A4.523,4.523,0,0,1,58.281,16.156Zm-.023-1.789a2.061,2.061,0,0,0,1.59-.656,2.457,2.457,0,0,0,.605-1.734,2.457,2.457,0,0,0-.605-1.734,2.061,2.061,0,0,0-1.59-.656,1.986,1.986,0,0,0-1.543.66,2.479,2.479,0,0,0-.6,1.73,2.479,2.479,0,0,0,.6,1.73A1.986,1.986,0,0,0,58.258,14.367Z" transform="translate(634.141 -2930.551)" fill="#00223d"/>
    <path id="Trazado_28444" data-name="Trazado 28444" d="M12.694,6.773H8.507V9.336h3.711v2.039H8.507V13.93h4.188V16H6.148V4.711h6.547Zm7.438,1.2h2.25V16H20.249l-.055-.969a3.067,3.067,0,0,1-2.555,1.125,3.131,3.131,0,0,1-2.219-.723,2.68,2.68,0,0,1-.773-2.059V7.969h2.258v4.922a1.388,1.388,0,0,0,.4,1.1,1.527,1.527,0,0,0,1.043.352,1.811,1.811,0,0,0,1.277-.457,1.963,1.963,0,0,0,.5-1.488Zm6.734,1.273a2.607,2.607,0,0,1,1.055-.965,3.218,3.218,0,0,1,1.57-.4V9.883a3.043,3.043,0,0,0-1.922.484,2.115,2.115,0,0,0-.594,1.719V16H24.71V7.969h2.156Zm7.641,6.914a5.05,5.05,0,0,1-2.273-.492,3.679,3.679,0,0,1-1.559-1.445,4.307,4.307,0,0,1-.566-2.242A3.929,3.929,0,0,1,31.327,8.93a4.521,4.521,0,0,1,3.18-1.117A4.532,4.532,0,0,1,37.694,8.93a3.929,3.929,0,0,1,1.219,3.047,3.951,3.951,0,0,1-1.219,3.059A4.523,4.523,0,0,1,34.507,16.156Zm-.023-1.789a2.061,2.061,0,0,0,1.59-.656,2.457,2.457,0,0,0,.605-1.734,2.457,2.457,0,0,0-.605-1.734,2.061,2.061,0,0,0-1.59-.656,1.986,1.986,0,0,0-1.543.66,2.479,2.479,0,0,0-.6,1.73,2.479,2.479,0,0,0,.6,1.73A1.986,1.986,0,0,0,34.483,14.367Zm8.93,1.789a4.488,4.488,0,0,1-2.344-.562,2.378,2.378,0,0,1-1.148-1.672l1.883-.531a1.513,1.513,0,0,0,1.609,1.2,1.662,1.662,0,0,0,.82-.184.639.639,0,0,0,.32-.621.657.657,0,0,0-.133-.414,1.052,1.052,0,0,0-.41-.3,5.11,5.11,0,0,0-.547-.211q-.27-.086-.715-.207t-.742-.23a4.972,4.972,0,0,1-.707-.3,3.016,3.016,0,0,1-.586-.414,1.669,1.669,0,0,1-.437-.629,2.269,2.269,0,0,1-.152-.859A2.052,2.052,0,0,1,41,8.422a3.892,3.892,0,0,1,2.277-.609,3.99,3.99,0,0,1,2.1.516,2.334,2.334,0,0,1,1.078,1.609l-1.742.391a1.365,1.365,0,0,0-1.43-1.016,1.566,1.566,0,0,0-.789.18.577.577,0,0,0-.312.531.609.609,0,0,0,.047.242.479.479,0,0,0,.164.2,2.393,2.393,0,0,0,.227.148,1.709,1.709,0,0,0,.32.129q.211.066.352.1l.41.105.418.109q.43.117.754.234a4.416,4.416,0,0,1,.691.328,2.481,2.481,0,0,1,.605.473,2.108,2.108,0,0,1,.395.664,2.453,2.453,0,0,1,.156.895,2.416,2.416,0,0,1-.27,1.164,2.023,2.023,0,0,1-.738.785,3.593,3.593,0,0,1-1.043.422A5.41,5.41,0,0,1,43.413,16.156Z" transform="translate(286.058 -3074.502)" fill="#00223d"/>
    <path id="Trazado_28139" data-name="Trazado 28139" d="M643.361,1795.245l-.732.786,2.724,2.532H359.216V1636.08l2.531,2.722.786-.733-4.392-4.723-4.391,4.723.786.733,2.531-2.724v190.95h2.148v-26.317H645.351l-2.722,2.53.732.786,4.723-4.392Z" transform="translate(-13.944 -4718.347)" fill="#00223d"/>
    <path id="Trazado_28445" data-name="Trazado 28445" d="M1.079,10V3.125h.874V10ZM6.157,5.107a1.67,1.67,0,0,1,1.208.435,1.621,1.621,0,0,1,.452,1.226V10H6.973V6.958A1.135,1.135,0,0,0,6.68,6.1a1.047,1.047,0,0,0-.752-.278,1.161,1.161,0,0,0-.854.33,1.337,1.337,0,0,0-.337.979V10H3.892V5.2h.845v.615A1.6,1.6,0,0,1,6.157,5.107ZM10.981,10a1.262,1.262,0,0,1-.937-.344A1.3,1.3,0,0,1,9.7,8.7V5.874H8.721V5.2h.361a.694.694,0,0,0,.53-.168.829.829,0,0,0,.154-.564V3.6h.786V5.2h1.1v.674h-1.1V8.608a.728.728,0,0,0,.183.53.641.641,0,0,0,.481.188h.439V10ZM13.7,6.045a1.451,1.451,0,0,1,.6-.645,1.794,1.794,0,0,1,.923-.254v.8A1.581,1.581,0,0,0,14.1,6.3a1.489,1.489,0,0,0-.383,1.138V10h-.845V5.2H13.7Zm4.473,4.048a2.53,2.53,0,0,1-1.23-.3,2.169,2.169,0,0,1-.867-.872,2.677,2.677,0,0,1-.32-1.326,2.445,2.445,0,0,1,.681-1.809,2.555,2.555,0,0,1,3.474,0A2.45,2.45,0,0,1,20.591,7.6a2.452,2.452,0,0,1-.681,1.814A2.351,2.351,0,0,1,18.174,10.093Zm0-.7A1.474,1.474,0,0,0,19.3,8.9a1.848,1.848,0,0,0,.452-1.3A1.841,1.841,0,0,0,19.3,6.3a1.474,1.474,0,0,0-1.135-.493,1.454,1.454,0,0,0-1.125.493A1.853,1.853,0,0,0,16.6,7.6a1.86,1.86,0,0,0,.447,1.3A1.454,1.454,0,0,0,18.169,9.39Zm7.29-6.89H26.3V10h-.815l-.02-.933a1.766,1.766,0,0,1-.684.757,1.9,1.9,0,0,1-1.016.278,2.181,2.181,0,0,1-1.584-.676,2.311,2.311,0,0,1-.483-.793,2.9,2.9,0,0,1-.178-1.03,2.524,2.524,0,0,1,.652-1.8,2.1,2.1,0,0,1,1.594-.693,1.913,1.913,0,0,1,1,.271,1.776,1.776,0,0,1,.686.735ZM23.945,9.37a1.437,1.437,0,0,0,1.116-.505A1.824,1.824,0,0,0,25.513,7.6a1.821,1.821,0,0,0-.454-1.26,1.437,1.437,0,0,0-1.113-.508,1.469,1.469,0,0,0-1.123.491A1.805,1.805,0,0,0,22.368,7.6a1.805,1.805,0,0,0,.454,1.277A1.469,1.469,0,0,0,23.945,9.37ZM31.011,5.2h.845V10h-.811l-.02-.635a1.5,1.5,0,0,1-.6.54,1.832,1.832,0,0,1-.84.188,1.67,1.67,0,0,1-1.208-.435,1.621,1.621,0,0,1-.452-1.226V5.2h.845V8.242a1.139,1.139,0,0,0,.3.859,1.046,1.046,0,0,0,.754.283,1.148,1.148,0,0,0,.852-.332,1.352,1.352,0,0,0,.334-.981Zm4.556,4.888A2.312,2.312,0,0,1,33.848,9.4a2.456,2.456,0,0,1-.679-1.8,2.461,2.461,0,0,1,.676-1.8,2.5,2.5,0,0,1,3.11-.269,2.119,2.119,0,0,1,.808,1.167l-.791.127a1.461,1.461,0,0,0-.542-.747,1.476,1.476,0,0,0-.869-.264,1.419,1.419,0,0,0-1.111.493A1.879,1.879,0,0,0,34.014,7.6a1.869,1.869,0,0,0,.437,1.292,1.422,1.422,0,0,0,1.111.491,1.476,1.476,0,0,0,.869-.264,1.461,1.461,0,0,0,.542-.747l.791.132a2.122,2.122,0,0,1-.813,1.165A2.325,2.325,0,0,1,35.566,10.088Zm5.435,0A2.312,2.312,0,0,1,39.282,9.4,2.456,2.456,0,0,1,38.6,7.6a2.461,2.461,0,0,1,.676-1.8,2.5,2.5,0,0,1,3.11-.269A2.119,2.119,0,0,1,43.2,6.694l-.791.127a1.461,1.461,0,0,0-.542-.747A1.476,1.476,0,0,0,41,5.811a1.419,1.419,0,0,0-1.111.493A1.879,1.879,0,0,0,39.448,7.6a1.869,1.869,0,0,0,.437,1.292A1.422,1.422,0,0,0,41,9.38a1.476,1.476,0,0,0,.869-.264,1.461,1.461,0,0,0,.542-.747L43.2,8.5a2.122,2.122,0,0,1-.813,1.165A2.325,2.325,0,0,1,41,10.088Zm3.872-6.016A.575.575,0,0,1,44.3,3.5a.542.542,0,0,1,.168-.4.554.554,0,0,1,.4-.166.548.548,0,0,1,.4.166.542.542,0,0,1,.168.4.55.55,0,0,1-.168.4A.544.544,0,0,1,44.873,4.072ZM44.443,10V5.2h.85V10Zm4.268-5.625,1.226-1.592.449.327L49.292,4.375Zm.322,5.718a2.53,2.53,0,0,1-1.23-.3,2.169,2.169,0,0,1-.867-.872,2.677,2.677,0,0,1-.32-1.326A2.445,2.445,0,0,1,47.3,5.789a2.555,2.555,0,0,1,3.474,0A2.45,2.45,0,0,1,51.45,7.6a2.452,2.452,0,0,1-.681,1.814A2.351,2.351,0,0,1,49.033,10.093Zm0-.7A1.474,1.474,0,0,0,50.164,8.9a1.848,1.848,0,0,0,.452-1.3A1.841,1.841,0,0,0,50.164,6.3a1.474,1.474,0,0,0-1.135-.493A1.454,1.454,0,0,0,47.9,6.3,1.853,1.853,0,0,0,47.456,7.6,1.86,1.86,0,0,0,47.9,8.9,1.454,1.454,0,0,0,49.028,9.39Zm6.011-4.282a1.67,1.67,0,0,1,1.208.435A1.621,1.621,0,0,1,56.7,6.768V10h-.845V6.958a1.135,1.135,0,0,0-.293-.859,1.047,1.047,0,0,0-.752-.278,1.161,1.161,0,0,0-.854.33,1.337,1.337,0,0,0-.337.979V10h-.845V5.2h.845v.615A1.6,1.6,0,0,1,55.039,5.107Z" transform="translate(346.779 -3051.975)" fill="#00223d"/>
    <path id="Trazado_28446" data-name="Trazado 28446" d="M4.023,10.093a3.652,3.652,0,0,1-1.353-.247,3.266,3.266,0,0,1-1.086-.693A3.093,3.093,0,0,1,.862,8.037,4.035,4.035,0,0,1,.6,6.558,3.969,3.969,0,0,1,.864,5.085,3.087,3.087,0,0,1,2.671,3.276a3.685,3.685,0,0,1,1.353-.244,3.493,3.493,0,0,1,1.829.483A3.012,3.012,0,0,1,7.061,4.858l-.806.332a2.264,2.264,0,0,0-.9-.979,2.585,2.585,0,0,0-1.331-.344,2.734,2.734,0,0,0-1,.181,2.4,2.4,0,0,0-.811.518,2.337,2.337,0,0,0-.544.85,3.152,3.152,0,0,0-.2,1.143,3.172,3.172,0,0,0,.2,1.145,2.333,2.333,0,0,0,.544.852,2.43,2.43,0,0,0,.811.52,2.7,2.7,0,0,0,1,.183,2.585,2.585,0,0,0,1.331-.344,2.27,2.27,0,0,0,.9-.974l.806.327A3,3,0,0,1,5.854,9.612,3.5,3.5,0,0,1,4.023,10.093ZM9.165,6.045a1.451,1.451,0,0,1,.6-.645,1.794,1.794,0,0,1,.923-.254v.8A1.581,1.581,0,0,0,9.568,6.3a1.489,1.489,0,0,0-.383,1.138V10H8.34V5.2h.825Zm6.65,1.46-.01.229h-3.75a1.7,1.7,0,0,0,.459,1.228,1.507,1.507,0,0,0,1.094.427,1.439,1.439,0,0,0,.8-.229,1.489,1.489,0,0,0,.547-.635l.762.161a2.165,2.165,0,0,1-.82,1.03,2.238,2.238,0,0,1-1.274.376,2.319,2.319,0,0,1-1.729-.669A2.489,2.489,0,0,1,11.23,7.6a2.477,2.477,0,0,1,.662-1.821,2.29,2.29,0,0,1,1.7-.669,2.167,2.167,0,0,1,1.614.615A2.431,2.431,0,0,1,15.815,7.5ZM13.594,5.757a1.5,1.5,0,0,0-1,.339,1.555,1.555,0,0,0-.505.989h2.876a1.426,1.426,0,0,0-.42-.989A1.356,1.356,0,0,0,13.594,5.757Zm5.537,4.331A2.312,2.312,0,0,1,17.412,9.4a2.456,2.456,0,0,1-.679-1.8,2.461,2.461,0,0,1,.676-1.8,2.5,2.5,0,0,1,3.11-.269,2.119,2.119,0,0,1,.808,1.167l-.791.127A1.461,1.461,0,0,0,20,6.074a1.476,1.476,0,0,0-.869-.264,1.419,1.419,0,0,0-1.111.493A1.879,1.879,0,0,0,17.578,7.6a1.869,1.869,0,0,0,.437,1.292,1.422,1.422,0,0,0,1.111.491A1.476,1.476,0,0,0,20,9.116a1.461,1.461,0,0,0,.542-.747l.791.132a2.122,2.122,0,0,1-.813,1.165A2.325,2.325,0,0,1,19.131,10.088ZM23,4.072a.575.575,0,0,1-.571-.571.542.542,0,0,1,.168-.4.554.554,0,0,1,.4-.166.548.548,0,0,1,.4.166.542.542,0,0,1,.168.4.55.55,0,0,1-.168.4A.544.544,0,0,1,23,4.072ZM22.573,10V5.2h.85V10Zm7.476-4.893a1.547,1.547,0,0,1,1.118.408,1.512,1.512,0,0,1,.425,1.145V10h-.845V6.88a1.085,1.085,0,0,0-.264-.791.9.9,0,0,0-.669-.269.948.948,0,0,0-.732.3,1.3,1.3,0,0,0-.278.908V10h-.859V6.914a1.135,1.135,0,0,0-.266-.818A.905.905,0,0,0,27,5.82a.939.939,0,0,0-.73.31,1.347,1.347,0,0,0-.281.93V10h-.845V5.2h.845v.62a1.458,1.458,0,0,1,.549-.527,1.566,1.566,0,0,1,.764-.186,1.631,1.631,0,0,1,.82.2,1.261,1.261,0,0,1,.532.583,1.494,1.494,0,0,1,.576-.583A1.648,1.648,0,0,1,30.049,5.107Zm3.608-1.035a.575.575,0,0,1-.571-.571.542.542,0,0,1,.168-.4.554.554,0,0,1,.4-.166.548.548,0,0,1,.4.166.542.542,0,0,1,.168.4.55.55,0,0,1-.168.4A.544.544,0,0,1,33.657,4.072ZM33.228,10V5.2h.85V10ZM40,7.5l-.01.229h-3.75a1.7,1.7,0,0,0,.459,1.228,1.507,1.507,0,0,0,1.094.427,1.439,1.439,0,0,0,.8-.229,1.489,1.489,0,0,0,.547-.635l.762.161a2.165,2.165,0,0,1-.82,1.03,2.238,2.238,0,0,1-1.274.376,2.319,2.319,0,0,1-1.729-.669A2.489,2.489,0,0,1,35.41,7.6a2.477,2.477,0,0,1,.662-1.821,2.29,2.29,0,0,1,1.7-.669,2.167,2.167,0,0,1,1.614.615A2.431,2.431,0,0,1,40,7.5ZM37.773,5.757a1.5,1.5,0,0,0-1,.339,1.555,1.555,0,0,0-.505.989h2.876a1.426,1.426,0,0,0-.42-.989A1.356,1.356,0,0,0,37.773,5.757Zm5.811-.649a1.67,1.67,0,0,1,1.208.435,1.621,1.621,0,0,1,.452,1.226V10H44.4V6.958a1.135,1.135,0,0,0-.293-.859,1.047,1.047,0,0,0-.752-.278,1.161,1.161,0,0,0-.854.33,1.337,1.337,0,0,0-.337.979V10h-.845V5.2h.845v.615A1.6,1.6,0,0,1,43.584,5.107ZM48.408,10a1.262,1.262,0,0,1-.937-.344,1.3,1.3,0,0,1-.342-.959V5.874h-.981V5.2h.361a.694.694,0,0,0,.53-.168.829.829,0,0,0,.154-.564V3.6h.786V5.2h1.1v.674h-1.1V8.608a.728.728,0,0,0,.183.53.641.641,0,0,0,.481.188h.439V10Zm3.857.093a2.53,2.53,0,0,1-1.23-.3,2.169,2.169,0,0,1-.867-.872,2.677,2.677,0,0,1-.32-1.326,2.445,2.445,0,0,1,.681-1.809,2.555,2.555,0,0,1,3.474,0A2.45,2.45,0,0,1,54.683,7.6,2.452,2.452,0,0,1,54,9.412,2.351,2.351,0,0,1,52.266,10.093Zm0-.7A1.474,1.474,0,0,0,53.4,8.9a1.848,1.848,0,0,0,.452-1.3A1.841,1.841,0,0,0,53.4,6.3a1.474,1.474,0,0,0-1.135-.493,1.454,1.454,0,0,0-1.125.493A1.853,1.853,0,0,0,50.688,7.6a1.86,1.86,0,0,0,.447,1.3A1.454,1.454,0,0,0,52.261,9.39Z" transform="translate(414.006 -3051.974)" fill="#00223d"/>
    <path id="Trazado_28447" data-name="Trazado 28447" d="M8.35,10H7.5L7.041,4.326,4.844,10H4.321L2.139,4.346,1.675,10H.82l.522-6.875H2.5L4.58,8.486,6.67,3.125H7.832Zm2.72.093a1.633,1.633,0,0,1-1.052-.33A1.184,1.184,0,0,1,9.6,8.779a1.4,1.4,0,0,1,.132-.627,1.106,1.106,0,0,1,.391-.437,2.343,2.343,0,0,1,.564-.271,5.213,5.213,0,0,1,.73-.173l.776-.127q.425-.078.425-.444a.839.839,0,0,0-.3-.715,1.224,1.224,0,0,0-.759-.227,1.246,1.246,0,0,0-.752.22.92.92,0,0,0-.356.674l-.762-.161a1.466,1.466,0,0,1,.6-1.028A2.244,2.244,0,0,1,11.6,5.117a2.654,2.654,0,0,1,.7.085,1.891,1.891,0,0,1,.581.269,1.2,1.2,0,0,1,.415.518,1.926,1.926,0,0,1,.149.789V8.76a.811.811,0,0,0,.11.5.474.474,0,0,0,.378.129h.078V10h-.42a.8.8,0,0,1-.908-.649h-.039A1.834,1.834,0,0,1,11.069,10.093Zm.2-.684a1.281,1.281,0,0,0,1.03-.464,1.91,1.91,0,0,0,.391-1.27l-1.27.244a1.709,1.709,0,0,0-.745.266.619.619,0,0,0-.242.525.612.612,0,0,0,.232.527A.991.991,0,0,0,11.265,9.409ZM18.647,2.5h.845V10h-.815l-.02-.933a1.766,1.766,0,0,1-.684.757,1.9,1.9,0,0,1-1.016.278,2.181,2.181,0,0,1-1.584-.676,2.311,2.311,0,0,1-.483-.793,2.9,2.9,0,0,1-.178-1.03,2.524,2.524,0,0,1,.652-1.8,2.1,2.1,0,0,1,1.594-.693,1.913,1.913,0,0,1,1,.271,1.776,1.776,0,0,1,.686.735ZM17.134,9.37a1.437,1.437,0,0,0,1.116-.505A1.824,1.824,0,0,0,18.7,7.6a1.821,1.821,0,0,0-.454-1.26,1.437,1.437,0,0,0-1.113-.508,1.469,1.469,0,0,0-1.123.491A1.805,1.805,0,0,0,15.557,7.6a1.805,1.805,0,0,0,.454,1.277A1.469,1.469,0,0,0,17.134,9.37ZM24.2,5.2h.845V10h-.811l-.02-.635a1.5,1.5,0,0,1-.6.54,1.832,1.832,0,0,1-.84.188,1.67,1.67,0,0,1-1.208-.435,1.621,1.621,0,0,1-.452-1.226V5.2h.845V8.242a1.139,1.139,0,0,0,.3.859,1.046,1.046,0,0,0,.754.283,1.148,1.148,0,0,0,.852-.332,1.352,1.352,0,0,0,.334-.981Zm3.389.845a1.451,1.451,0,0,1,.6-.645,1.794,1.794,0,0,1,.923-.254v.8a1.581,1.581,0,0,0-1.116.356,1.489,1.489,0,0,0-.383,1.138V10h-.845V5.2h.825Zm6.65,1.46-.01.229h-3.75a1.7,1.7,0,0,0,.459,1.228,1.507,1.507,0,0,0,1.094.427,1.439,1.439,0,0,0,.8-.229,1.489,1.489,0,0,0,.547-.635l.762.161a2.165,2.165,0,0,1-.82,1.03,2.238,2.238,0,0,1-1.274.376,2.319,2.319,0,0,1-1.729-.669A2.489,2.489,0,0,1,29.653,7.6a2.477,2.477,0,0,1,.662-1.821,2.29,2.29,0,0,1,1.7-.669,2.167,2.167,0,0,1,1.614.615A2.431,2.431,0,0,1,34.238,7.5ZM32.017,5.757a1.5,1.5,0,0,0-1,.339,1.555,1.555,0,0,0-.505.989h2.876a1.426,1.426,0,0,0-.42-.989A1.356,1.356,0,0,0,32.017,5.757Zm4.067,3.56h2.559V10H34.814l2.529-4.111H34.961V5.2h3.677Z" transform="translate(486.974 -3051.974)" fill="#00223d"/>
    <path id="Trazado_28448" data-name="Trazado 28448" d="M1.079,10V3.125H3.3a3.287,3.287,0,0,1,1.75.444A2.711,2.711,0,0,1,6.121,4.778a4.245,4.245,0,0,1,.349,1.78,4.5,4.5,0,0,1-.2,1.389,3.147,3.147,0,0,1-.593,1.086,2.6,2.6,0,0,1-1,.713A3.55,3.55,0,0,1,3.3,10Zm.874-.8H3.267a2.094,2.094,0,0,0,1.716-.7,2.972,2.972,0,0,0,.579-1.943A2.947,2.947,0,0,0,4.98,4.624a2.1,2.1,0,0,0-1.714-.7H1.953Zm10.2-1.7-.01.229H8.389a1.7,1.7,0,0,0,.459,1.228,1.507,1.507,0,0,0,1.094.427,1.439,1.439,0,0,0,.8-.229,1.489,1.489,0,0,0,.547-.635l.762.161a2.165,2.165,0,0,1-.82,1.03,2.238,2.238,0,0,1-1.274.376,2.319,2.319,0,0,1-1.729-.669A2.489,2.489,0,0,1,7.563,7.6a2.477,2.477,0,0,1,.662-1.821,2.29,2.29,0,0,1,1.7-.669,2.167,2.167,0,0,1,1.614.615A2.431,2.431,0,0,1,12.148,7.5ZM9.927,5.757a1.5,1.5,0,0,0-1,.339,1.555,1.555,0,0,0-.505.989H11.3a1.426,1.426,0,0,0-.42-.989A1.356,1.356,0,0,0,9.927,5.757Zm5.537,4.331A2.312,2.312,0,0,1,13.745,9.4a2.456,2.456,0,0,1-.679-1.8,2.461,2.461,0,0,1,.676-1.8,2.5,2.5,0,0,1,3.11-.269,2.119,2.119,0,0,1,.808,1.167l-.791.127a1.461,1.461,0,0,0-.542-.747,1.476,1.476,0,0,0-.869-.264,1.419,1.419,0,0,0-1.111.493A1.879,1.879,0,0,0,13.911,7.6a1.869,1.869,0,0,0,.437,1.292,1.422,1.422,0,0,0,1.111.491,1.476,1.476,0,0,0,.869-.264,1.461,1.461,0,0,0,.542-.747l.791.132a2.122,2.122,0,0,1-.813,1.165A2.325,2.325,0,0,1,15.464,10.088ZM18.906,10V2.5h.854V10Zm3-5.928a.575.575,0,0,1-.571-.571.542.542,0,0,1,.168-.4.554.554,0,0,1,.4-.166.548.548,0,0,1,.4.166.542.542,0,0,1,.168.4.55.55,0,0,1-.168.4A.544.544,0,0,1,21.909,4.072ZM21.479,10V5.2h.85V10Zm5.562-4.8h.9L25.991,10h-.718L23.33,5.2h.9l1.406,3.818Zm5.913,2.3-.01.229h-3.75a1.7,1.7,0,0,0,.459,1.228,1.507,1.507,0,0,0,1.094.427,1.439,1.439,0,0,0,.8-.229,1.489,1.489,0,0,0,.547-.635l.762.161a2.165,2.165,0,0,1-.82,1.03,2.238,2.238,0,0,1-1.274.376,2.319,2.319,0,0,1-1.729-.669A2.489,2.489,0,0,1,28.369,7.6a2.477,2.477,0,0,1,.662-1.821,2.29,2.29,0,0,1,1.7-.669,2.167,2.167,0,0,1,1.614.615A2.431,2.431,0,0,1,32.954,7.5ZM30.732,5.757a1.5,1.5,0,0,0-1,.339,1.555,1.555,0,0,0-.505.989H32.1a1.426,1.426,0,0,0-.42-.989A1.356,1.356,0,0,0,30.732,5.757Z" transform="translate(557.962 -3051.974)" fill="#00223d"/>
    <path id="Trazado_28449" data-name="Trazado 28449" d="M4.341,6.411a1.845,1.845,0,0,1,.994.6A1.7,1.7,0,0,1,5.7,8.135a1.8,1.8,0,0,1-.53,1.348A1.936,1.936,0,0,1,3.755,10H1.079V3.125H3.164a2.111,2.111,0,0,1,1.472.505A1.691,1.691,0,0,1,5.2,4.946a1.739,1.739,0,0,1-.222.884A1.412,1.412,0,0,1,4.341,6.411ZM4.375,5a1.049,1.049,0,0,0-.33-.8,1.235,1.235,0,0,0-.886-.312H1.924V6.138h1.4a.973.973,0,0,0,.759-.33A1.167,1.167,0,0,0,4.375,5ZM3.608,9.224a1.214,1.214,0,0,0,.906-.339,1.146,1.146,0,0,0,.334-.837A1.129,1.129,0,0,0,4.5,7.195a1.323,1.323,0,0,0-.955-.334H1.924V9.224ZM11.3,7.5l-.01.229H7.544A1.7,1.7,0,0,0,8,8.962,1.507,1.507,0,0,0,9.1,9.39a1.439,1.439,0,0,0,.8-.229,1.489,1.489,0,0,0,.547-.635l.762.161a2.165,2.165,0,0,1-.82,1.03,2.238,2.238,0,0,1-1.274.376,2.319,2.319,0,0,1-1.729-.669A2.489,2.489,0,0,1,6.719,7.6,2.477,2.477,0,0,1,7.38,5.776a2.29,2.29,0,0,1,1.7-.669,2.167,2.167,0,0,1,1.614.615A2.431,2.431,0,0,1,11.3,7.5ZM9.082,5.757a1.5,1.5,0,0,0-1,.339,1.555,1.555,0,0,0-.505.989h2.876a1.426,1.426,0,0,0-.42-.989A1.356,1.356,0,0,0,9.082,5.757Zm5.811-.649a1.67,1.67,0,0,1,1.208.435,1.621,1.621,0,0,1,.452,1.226V10h-.845V6.958a1.135,1.135,0,0,0-.293-.859,1.047,1.047,0,0,0-.752-.278,1.161,1.161,0,0,0-.854.33,1.337,1.337,0,0,0-.337.979V10h-.845V5.2h.845v.615A1.6,1.6,0,0,1,14.893,5.107Zm7.49,2.4-.01.229h-3.75a1.7,1.7,0,0,0,.459,1.228,1.507,1.507,0,0,0,1.094.427,1.439,1.439,0,0,0,.8-.229,1.489,1.489,0,0,0,.547-.635l.762.161a2.165,2.165,0,0,1-.82,1.03,2.238,2.238,0,0,1-1.274.376,2.319,2.319,0,0,1-1.729-.669A2.489,2.489,0,0,1,17.8,7.6a2.477,2.477,0,0,1,.662-1.821,2.29,2.29,0,0,1,1.7-.669,2.167,2.167,0,0,1,1.614.615A2.431,2.431,0,0,1,22.383,7.5ZM20.161,5.757a1.5,1.5,0,0,0-1,.339,1.555,1.555,0,0,0-.505.989h2.876a1.426,1.426,0,0,0-.42-.989A1.356,1.356,0,0,0,20.161,5.757Zm3.794-1.562a2.76,2.76,0,0,1,.051-.559,1.813,1.813,0,0,1,.137-.422,1,1,0,0,1,.227-.305,1.336,1.336,0,0,1,.3-.208,1.466,1.466,0,0,1,.364-.122,3.414,3.414,0,0,1,.413-.061q.2-.017.466-.017v.708h-.183q-.056,0-.176.01a1.127,1.127,0,0,0-.176.024q-.056.015-.151.049a.386.386,0,0,0-.144.083q-.049.049-.112.125a.51.51,0,0,0-.1.176,1.68,1.68,0,0,0-.054.234,1.869,1.869,0,0,0-.022.3V5.2h1.113v.674H24.795V10h-.84V5.874h-.928V5.2h.928Zm3.359-.122a.575.575,0,0,1-.571-.571.542.542,0,0,1,.168-.4.554.554,0,0,1,.4-.166.548.548,0,0,1,.4.166.542.542,0,0,1,.168.4.55.55,0,0,1-.168.4A.544.544,0,0,1,27.314,4.072ZM26.885,10V5.2h.85V10Zm4.561.088A2.312,2.312,0,0,1,29.727,9.4a2.456,2.456,0,0,1-.679-1.8,2.461,2.461,0,0,1,.676-1.8,2.5,2.5,0,0,1,3.11-.269,2.119,2.119,0,0,1,.808,1.167l-.791.127a1.461,1.461,0,0,0-.542-.747,1.476,1.476,0,0,0-.869-.264A1.419,1.419,0,0,0,30.33,6.3,1.879,1.879,0,0,0,29.893,7.6a1.869,1.869,0,0,0,.437,1.292,1.422,1.422,0,0,0,1.111.491,1.476,1.476,0,0,0,.869-.264,1.461,1.461,0,0,0,.542-.747l.791.132a2.122,2.122,0,0,1-.813,1.165A2.325,2.325,0,0,1,31.445,10.088Zm3.872-6.016a.575.575,0,0,1-.571-.571.542.542,0,0,1,.168-.4.554.554,0,0,1,.4-.166.548.548,0,0,1,.4.166.542.542,0,0,1,.168.4.55.55,0,0,1-.168.4A.544.544,0,0,1,35.317,4.072ZM34.888,10V5.2h.85V10Zm4.59.093a2.53,2.53,0,0,1-1.23-.3,2.169,2.169,0,0,1-.867-.872,2.677,2.677,0,0,1-.32-1.326,2.445,2.445,0,0,1,.681-1.809,2.555,2.555,0,0,1,3.474,0A2.45,2.45,0,0,1,41.895,7.6a2.452,2.452,0,0,1-.681,1.814A2.351,2.351,0,0,1,39.478,10.093Zm0-.7A1.474,1.474,0,0,0,40.608,8.9a1.848,1.848,0,0,0,.452-1.3A1.841,1.841,0,0,0,40.608,6.3a1.474,1.474,0,0,0-1.135-.493,1.454,1.454,0,0,0-1.125.493A1.853,1.853,0,0,0,37.9,7.6a1.86,1.86,0,0,0,.447,1.3A1.454,1.454,0,0,0,39.473,9.39Zm5.264.7a2.275,2.275,0,0,1-1.294-.347,1.434,1.434,0,0,1-.63-.986l.737-.21a1.028,1.028,0,0,0,.393.667,1.275,1.275,0,0,0,.789.237,1.574,1.574,0,0,0,.461-.063.74.74,0,0,0,.354-.237.66.66,0,0,0,.1-.635.848.848,0,0,0-.078-.159.484.484,0,0,0-.137-.132,1.8,1.8,0,0,0-.166-.1,1.7,1.7,0,0,0-.217-.09q-.144-.051-.232-.078l-.269-.078L44.272,7.8a5.206,5.206,0,0,1-.5-.176,2.184,2.184,0,0,1-.405-.232.933.933,0,0,1-.315-.378,1.28,1.28,0,0,1-.1-.537,1.241,1.241,0,0,1,.234-.767,1.319,1.319,0,0,1,.608-.452,2.43,2.43,0,0,1,.852-.139,2.086,2.086,0,0,1,1.169.313,1.334,1.334,0,0,1,.583.938l-.693.176a.919.919,0,0,0-.366-.608,1.166,1.166,0,0,0-.688-.2A1.188,1.188,0,0,0,44,5.9a.566.566,0,0,0-.269.515.513.513,0,0,0,.071.266.845.845,0,0,0,.144.188.885.885,0,0,0,.264.144q.19.076.283.1t.352.09q.049.015.073.02.283.073.461.129a2.836,2.836,0,0,1,.415.176,1.38,1.38,0,0,1,.374.261,1.21,1.21,0,0,1,.234.371,1.31,1.31,0,0,1,.1.518,1.4,1.4,0,0,1-.144.647,1.127,1.127,0,0,1-.393.442,1.9,1.9,0,0,1-.559.242A2.664,2.664,0,0,1,44.736,10.093Z" transform="translate(557.962 -2896.375)" fill="#00223d"/>
    <path id="Trazado_28450" data-name="Trazado 28450" d="M5.308,3.125H6.23L3.711,10h-.9L.293,3.125h.918L3.262,8.906ZM11.084,7.5l-.01.229H7.324a1.7,1.7,0,0,0,.459,1.228,1.507,1.507,0,0,0,1.094.427,1.439,1.439,0,0,0,.8-.229,1.489,1.489,0,0,0,.547-.635l.762.161a2.165,2.165,0,0,1-.82,1.03,2.238,2.238,0,0,1-1.274.376,2.319,2.319,0,0,1-1.729-.669A2.489,2.489,0,0,1,6.5,7.6a2.477,2.477,0,0,1,.662-1.821,2.29,2.29,0,0,1,1.7-.669,2.167,2.167,0,0,1,1.614.615A2.431,2.431,0,0,1,11.084,7.5ZM8.862,5.757a1.5,1.5,0,0,0-1,.339,1.555,1.555,0,0,0-.505.989h2.876a1.426,1.426,0,0,0-.42-.989A1.356,1.356,0,0,0,8.862,5.757Zm5.811-.649a1.67,1.67,0,0,1,1.208.435,1.621,1.621,0,0,1,.452,1.226V10h-.845V6.958A1.135,1.135,0,0,0,15.2,6.1a1.047,1.047,0,0,0-.752-.278,1.161,1.161,0,0,0-.854.33,1.337,1.337,0,0,0-.337.979V10h-.845V5.2h.845v.615A1.6,1.6,0,0,1,14.673,5.107ZM19.5,10a1.262,1.262,0,0,1-.937-.344,1.3,1.3,0,0,1-.342-.959V5.874h-.981V5.2H17.6a.694.694,0,0,0,.53-.168.829.829,0,0,0,.154-.564V3.6h.786V5.2h1.1v.674h-1.1V8.608a.728.728,0,0,0,.183.53.641.641,0,0,0,.481.188h.439V10Zm2.944.093a1.633,1.633,0,0,1-1.052-.33,1.184,1.184,0,0,1-.413-.984,1.4,1.4,0,0,1,.132-.627,1.106,1.106,0,0,1,.391-.437,2.343,2.343,0,0,1,.564-.271,5.213,5.213,0,0,1,.73-.173l.776-.127q.425-.078.425-.444a.839.839,0,0,0-.3-.715,1.223,1.223,0,0,0-.759-.227,1.246,1.246,0,0,0-.752.22.92.92,0,0,0-.356.674l-.762-.161a1.466,1.466,0,0,1,.6-1.028,2.244,2.244,0,0,1,1.309-.344,2.654,2.654,0,0,1,.7.085,1.891,1.891,0,0,1,.581.269,1.2,1.2,0,0,1,.415.518,1.926,1.926,0,0,1,.149.789V8.76a.811.811,0,0,0,.11.5.474.474,0,0,0,.378.129h.078V10h-.42a.8.8,0,0,1-.908-.649h-.039A1.834,1.834,0,0,1,22.441,10.093Zm.2-.684a1.281,1.281,0,0,0,1.03-.464,1.91,1.91,0,0,0,.391-1.27l-1.27.244a1.709,1.709,0,0,0-.745.266.619.619,0,0,0-.242.525.612.612,0,0,0,.232.527A.991.991,0,0,0,22.637,9.409Zm5.454.684A2.275,2.275,0,0,1,26.8,9.746a1.434,1.434,0,0,1-.63-.986l.737-.21a1.028,1.028,0,0,0,.393.667,1.275,1.275,0,0,0,.789.237,1.574,1.574,0,0,0,.461-.063.74.74,0,0,0,.354-.237.66.66,0,0,0,.1-.635.848.848,0,0,0-.078-.159.484.484,0,0,0-.137-.132,1.8,1.8,0,0,0-.166-.1,1.7,1.7,0,0,0-.217-.09q-.144-.051-.232-.078l-.269-.078L27.627,7.8a5.207,5.207,0,0,1-.5-.176,2.184,2.184,0,0,1-.405-.232.933.933,0,0,1-.315-.378,1.28,1.28,0,0,1-.1-.537,1.241,1.241,0,0,1,.234-.767,1.319,1.319,0,0,1,.608-.452A2.43,2.43,0,0,1,28,5.117a2.086,2.086,0,0,1,1.169.313,1.334,1.334,0,0,1,.583.938l-.693.176a.919.919,0,0,0-.366-.608,1.166,1.166,0,0,0-.688-.2,1.188,1.188,0,0,0-.645.168.566.566,0,0,0-.269.515.513.513,0,0,0,.071.266.845.845,0,0,0,.144.188.885.885,0,0,0,.264.144q.19.076.283.1t.352.09q.049.015.073.02.283.073.461.129a2.836,2.836,0,0,1,.415.176,1.38,1.38,0,0,1,.374.261,1.21,1.21,0,0,1,.234.371,1.31,1.31,0,0,1,.1.518,1.4,1.4,0,0,1-.144.647,1.127,1.127,0,0,1-.393.442,1.9,1.9,0,0,1-.559.242A2.664,2.664,0,0,1,28.091,10.093Z" transform="translate(574.316 -2945.685)" fill="#00223d"/>
    <path id="Trazado_28140" data-name="Trazado 28140" d="M357.59,1794.574s56.511-9.746,74.552-29.239,33.155-39.815,49.368-64.048c1.9-2.846,3.609-5.223,5.068-7.161a17.021,17.021,0,0,1,13.61-6.762h41.383a17.055,17.055,0,0,1,10.053,3.27c9.108,6.645,29.229,25.707,55.893,76.791" transform="translate(-13.66 -4714.357)" fill="none" stroke="#00223d" stroke-linecap="round" stroke-linejoin="round" stroke-width="2"/>
    <g id="Grupo_17624" data-name="Grupo 17624" transform="translate(343.393 -2971.236)">
      <g id="Grupo_17621" data-name="Grupo 17621" transform="translate(0 79.122)">
        <path id="Trazado_28141" data-name="Trazado 28141" d="M357.626,1814.3a.537.537,0,0,1-.078-1.067s.556-.084,1.578-.255a.532.532,0,0,1,.619.441.538.538,0,0,1-.441.617c-1.035.173-1.6.257-1.6.257A.527.527,0,0,1,357.626,1814.3Z" transform="translate(-357.089 -1812.967)" fill="#00223d"/>
      </g>
      <g id="Grupo_17622" data-name="Grupo 17622" transform="translate(4.769)">
        <path id="Trazado_28142" data-name="Trazado 28142" d="M362.066,1818.929a.537.537,0,0,1-.094-1.065c.941-.17,2-.368,3.178-.6a.538.538,0,0,1,.2,1.056c-1.178.228-2.247.425-3.19.6A.587.587,0,0,1,362.066,1818.929Zm6.36-1.227a.538.538,0,0,1-.106-1.064c1-.2,2.06-.424,3.164-.661a.538.538,0,0,1,.224,1.051c-1.107.236-2.168.457-3.174.663A.516.516,0,0,1,368.426,1817.7Zm6.331-1.357a.537.537,0,0,1-.117-1.061q1.53-.343,3.15-.724a.536.536,0,1,1,.246,1.044q-1.624.383-3.159.728A.565.565,0,0,1,374.758,1816.344Zm6.3-1.483a.537.537,0,0,1-.128-1.058q1.538-.38,3.134-.789a.537.537,0,0,1,.267,1.041q-1.6.411-3.144.79A.536.536,0,0,1,381.06,1814.861Zm6.269-1.612a.537.537,0,0,1-.139-1.056q1.54-.412,3.115-.855a.537.537,0,0,1,.29,1.034q-1.58.443-3.127.859A.621.621,0,0,1,387.329,1813.249Zm6.233-1.748a.536.536,0,0,1-.151-1.051q1.537-.453,3.093-.929a.537.537,0,0,1,.315,1.028q-1.561.477-3.106.931A.566.566,0,0,1,393.562,1811.5Zm6.186-1.9a.537.537,0,0,1-.164-1.048q1.529-.493,3.066-1.009a.537.537,0,1,1,.344,1.017q-1.543.522-3.081,1.014A.523.523,0,0,1,399.749,1809.6Zm6.126-2.065a.537.537,0,0,1-.178-1.044q1.517-.536,3.031-1.1a.537.537,0,1,1,.375,1.006q-1.522.567-3.049,1.1A.526.526,0,0,1,405.875,1807.536Zm6.066-2.256a.537.537,0,0,1-.2-1.037q1.506-.589,3-1.206a.537.537,0,0,1,.41.992q-1.5.62-3.016,1.214A.548.548,0,0,1,411.941,1805.28ZM604.32,1803.3a.537.537,0,0,1-.454-.25q-.831-1.31-1.759-2.7a.537.537,0,1,1,.893-.595c.623.933,1.215,1.844,1.773,2.723a.539.539,0,0,1-.453.825Zm-186.394-.5a.537.537,0,0,1-.216-1.029q1.484-.649,2.938-1.326a.537.537,0,0,1,.453.973q-1.466.683-2.96,1.337A.55.55,0,0,1,417.926,1802.8Zm5.865-2.732a.538.538,0,0,1-.239-1.019q1.453-.72,2.864-1.47a.537.537,0,1,1,.5.948q-1.424.757-2.891,1.485A.54.54,0,0,1,423.791,1800.071Zm176.941-2.163a.536.536,0,0,1-.441-.231q-.9-1.295-1.861-2.638a.536.536,0,0,1,.872-.625q.966,1.348,1.872,2.651a.537.537,0,0,1-.441.843Zm-171.23-.877a.537.537,0,0,1-.267-1q1.409-.807,2.762-1.647a.537.537,0,0,1,.567.912q-1.368.852-2.8,1.667A.536.536,0,0,1,429.5,1797.03Zm5.491-3.418a.537.537,0,0,1-.3-.981c.895-.608,1.774-1.234,2.612-1.862a.537.537,0,1,1,.644.859c-.852.638-1.744,1.275-2.654,1.892A.535.535,0,0,1,434.993,1793.612Zm161.971-.966a.534.534,0,0,1-.433-.22q-.942-1.279-1.93-2.59a.537.537,0,0,1,.858-.645q.989,1.311,1.936,2.6a.537.537,0,0,1-.432.855Zm-156.8-2.919a.537.537,0,0,1-.345-.949l.2-.172q1.123-.954,2.255-1.92a.537.537,0,1,1,.7.816q-1.132.968-2.257,1.922l-.212.178A.533.533,0,0,1,440.159,1789.727Zm152.911-2.253a.536.536,0,0,1-.426-.209q-.976-1.269-1.982-2.552a.537.537,0,1,1,.845-.662q1.008,1.285,1.989,2.559a.537.537,0,0,1-.425.865Zm-147.994-1.949a.537.537,0,0,1-.35-.944q1.218-1.05,2.441-2.112a.537.537,0,1,1,.706.811q-1.226,1.063-2.446,2.115A.536.536,0,0,1,445.076,1785.525Zm144-3.146a.534.534,0,0,1-.42-.2q-1-1.258-2.025-2.517a.537.537,0,1,1,.833-.678q1.024,1.265,2.031,2.526a.536.536,0,0,1-.419.871Zm-139.118-1.091a.532.532,0,0,1-.4-.183.539.539,0,0,1,.05-.759q1.218-1.061,2.431-2.129a.536.536,0,1,1,.709.805q-1.215,1.07-2.433,2.134A.54.54,0,0,1,449.958,1781.288ZM585,1777.347a.537.537,0,0,1-.415-.194q-1.028-1.248-2.065-2.488a.537.537,0,1,1,.823-.689q1.041,1.242,2.07,2.494a.537.537,0,0,1-.413.878Zm-130.178-.331a.537.537,0,0,1-.355-.94q1.214-1.073,2.422-2.147a.537.537,0,1,1,.714.8q-1.208,1.076-2.424,2.151A.539.539,0,0,1,454.817,1777.016Zm4.838-4.3a.537.537,0,0,1-.359-.937l2.409-2.157a.537.537,0,0,1,.717.8l-2.41,2.159A.534.534,0,0,1,459.655,1772.714Zm121.188-.331a.531.531,0,0,1-.409-.189q-1.052-1.236-2.1-2.454a.538.538,0,1,1,.813-.7q1.053,1.221,2.107,2.462a.536.536,0,0,1-.408.884Zm-116.375-3.99a.537.537,0,0,1-.36-.935l2.4-2.169a.537.537,0,1,1,.722.795l-2.4,2.171A.538.538,0,0,1,464.468,1768.393Zm112.146-.911a.542.542,0,0,1-.4-.182q-1.074-1.226-2.14-2.422a.537.537,0,0,1,.8-.715q1.066,1.2,2.146,2.428a.537.537,0,0,1-.4.891Zm-107.351-3.433a.537.537,0,0,1-.362-.934l2.389-2.179a.537.537,0,0,1,.725.794l-2.391,2.18A.535.535,0,0,1,469.263,1764.049Zm103.045-1.4a.539.539,0,0,1-.4-.176q-1.1-1.216-2.182-2.384a.538.538,0,0,1,.789-.73q1.084,1.174,2.189,2.393a.537.537,0,0,1-.4.9Zm-98.269-2.966a.537.537,0,0,1-.363-.932l2.383-2.189a.537.537,0,0,1,.727.79l-2.384,2.188A.534.534,0,0,1,474.039,1759.686Zm93.874-1.787a.537.537,0,0,1-.39-.167q-1.134-1.2-2.234-2.336a.537.537,0,0,1,.772-.746q1.1,1.137,2.241,2.343a.537.537,0,0,1-.39.906Zm-89.113-2.593a.537.537,0,0,1-.364-.931l2.374-2.2a.537.537,0,0,1,.729.787l-2.375,2.2A.532.532,0,0,1,478.8,1755.306Zm84.607-2.057a.539.539,0,0,1-.38-.157q-1.184-1.185-2.3-2.265a.537.537,0,1,1,.745-.772q1.123,1.084,2.314,2.278a.536.536,0,0,1-.379.916Zm-79.863-2.342a.537.537,0,0,1-.365-.93l2.366-2.206a.537.537,0,0,1,.733.785l-2.368,2.208A.536.536,0,0,1,483.544,1750.907Zm75.2-2.15a.539.539,0,0,1-.363-.14q-1.271-1.166-2.41-2.131a.536.536,0,1,1,.693-.819c.768.649,1.584,1.371,2.443,2.156a.537.537,0,0,1-.363.933Zm-70.464-2.262a.537.537,0,0,1-.36-.937,24.47,24.47,0,0,1,2.6-2.038.537.537,0,0,1,.6.887,23.453,23.453,0,0,0-2.485,1.95A.535.535,0,0,1,488.277,1746.495Zm65.491-1.875a.528.528,0,0,1-.306-.1,23.508,23.508,0,0,0-2.711-1.62.536.536,0,0,1,.488-.956,24.608,24.608,0,0,1,2.835,1.693.537.537,0,0,1-.306.978Zm-60.162-1.752a.536.536,0,0,1-.241-1.017,24.642,24.642,0,0,1,3.049-1.269.537.537,0,1,1,.346,1.017,23.757,23.757,0,0,0-2.916,1.212A.532.532,0,0,1,493.607,1742.868Zm54.419-1.174a.527.527,0,0,1-.176-.029,23.7,23.7,0,0,0-3.047-.835.538.538,0,0,1,.215-1.053,24.738,24.738,0,0,1,3.184.874.537.537,0,0,1-.176,1.044Zm-48.316-.9a.537.537,0,0,1-.1-1.064,24.757,24.757,0,0,1,3.279-.408.53.53,0,0,1,.566.506.537.537,0,0,1-.506.566,23.274,23.274,0,0,0-3.134.392A.667.667,0,0,1,499.71,1740.8Zm42-.386h-.036q-.762-.05-1.531-.05h-1.666a.537.537,0,0,1,0-1.074h1.666q.8,0,1.6.053a.537.537,0,0,1-.034,1.073Zm-6.466-.052H532.01a.537.537,0,0,1,0-1.074h3.233a.537.537,0,0,1,0,1.074Zm-6.466,0h-3.233a.537.537,0,0,1,0-1.074h3.233a.537.537,0,0,1,0,1.074Zm-6.466,0h-3.233a.537.537,0,0,1,0-1.074h3.233a.537.537,0,0,1,0,1.074Zm-6.466,0h-3.233a.537.537,0,0,1,0-1.074h3.233a.537.537,0,0,1,0,1.074Zm-6.466,0h-3.233a.537.537,0,0,1,0-1.074h3.233a.537.537,0,0,1,0,1.074Z" transform="translate(-361.53 -1739.287)" fill="#00223d"/>
      </g>
      <g id="Grupo_17623" data-name="Grupo 17623" transform="translate(248.618 65.546)">
        <path id="Trazado_28143" data-name="Trazado 28143" d="M589.948,1802.79a.537.537,0,0,1-.468-.274q-.378-.673-.8-1.382a.537.537,0,0,1,.926-.546c.281.479.552.946.808,1.4a.536.536,0,0,1-.467.8Z" transform="translate(-588.608 -1800.325)" fill="#00223d"/>
      </g>
    </g>
  </g>
</svg>
