<svg xmlns="http://www.w3.org/2000/svg" width="113" height="113" viewBox="0 0 113 113">
  <g id="Grupo_17463" data-name="Grupo 17463" transform="translate(-526 -9038)">
    <g id="Grupo_17384" data-name="Grupo 17384" transform="translate(539 9049.968)">
      <g id="Grupo_17382" data-name="Grupo 17382" transform="translate(1.406 1.406)">
        <g id="Grupo_17363" data-name="Grupo 17363" transform="translate(36.552 75.916)">
          <path id="Trazado_27679" data-name="Trazado 27679" d="M1158.115,1891.487l2.812,8.435h-11.247l2.812-8.435Z" transform="translate(-1149.679 -1891.487)" fill="#ff826e"/>
        </g>
        <g id="Grupo_17364" data-name="Grupo 17364" transform="translate(36.819 68.886)">
          <path id="Trazado_27680" data-name="Trazado 27680" d="M1160.717,1885.223l-2.545,4.738h-5.624l-2.545-4.738,5.357-2.292Z" transform="translate(-1150.004 -1882.931)" fill="#fc6e51"/>
        </g>
        <g id="Grupo_17365" data-name="Grupo 17365" transform="translate(12.652 64.289)">
          <path id="Trazado_27681" data-name="Trazado 27681" d="M1131.838,1897.4h-11.247v-4.358a15.2,15.2,0,0,1,7.507-13.089,14.888,14.888,0,0,1,4.935-1.813l4.429-.8,2.812,8.815,4.484-1.927,2.545,4.739-2.812,8.435Z" transform="translate(-1120.591 -1877.336)" fill="#fcd770"/>
        </g>
        <g id="Grupo_17366" data-name="Grupo 17366" transform="translate(44.988 64.289)">
          <path id="Trazado_27682" data-name="Trazado 27682" d="M1175.41,1897.4h-12.652l-2.812-8.435,2.545-4.739,4.484,1.927,2.812-8.815,4.429.8a15.179,15.179,0,0,1,11.542,9.742,15.277,15.277,0,0,1,.9,5.16v4.358Z" transform="translate(-1159.946 -1877.336)" fill="#fcd770"/>
        </g>
        <g id="Grupo_17367" data-name="Grupo 17367" transform="translate(29.523 63.263)">
          <path id="Trazado_27683" data-name="Trazado 27683" d="M1153.777,1881.711,1148.42,1884l-4.484,1.927-2.812-8.815,5.623-1.026Z" transform="translate(-1141.124 -1876.087)" fill="#ffc729"/>
        </g>
        <g id="Grupo_17368" data-name="Grupo 17368" transform="translate(42.176 63.263)">
          <path id="Trazado_27684" data-name="Trazado 27684" d="M1169.176,1877.113l-2.811,8.815L1161.88,1884l-5.356-2.291,7.029-5.624Z" transform="translate(-1156.524 -1876.087)" fill="#ffc729"/>
        </g>
        <g id="Grupo_17369" data-name="Grupo 17369" transform="translate(0)">
          <path id="Trazado_27685" data-name="Trazado 27685" d="M1174.163,1808.706l-5.061,3.163a36.566,36.566,0,0,0-58.286,29.4v2.812h-5.623v-2.812a42.167,42.167,0,0,1,68.971-32.56Z" transform="translate(-1105.192 -1799.09)" fill="#ccd1d9"/>
        </g>
        <g id="Grupo_17370" data-name="Grupo 17370" transform="translate(68.479 11.415)">
          <path id="Trazado_27686" data-name="Trazado 27686" d="M1204.409,1843.743v2.812h-5.623v-2.812a36.429,36.429,0,0,0-10.249-25.375l2.545-5.385A42.013,42.013,0,0,1,1204.409,1843.743Z" transform="translate(-1188.537 -1812.983)" fill="#ccd1d9"/>
        </g>
        <g id="Grupo_17371" data-name="Grupo 17371" transform="translate(5.623 5.623)">
          <path id="Trazado_27687" data-name="Trazado 27687" d="M1148.589,1805.934v11.247h-2.742a16.922,16.922,0,0,0-16.068,22.283l.449,1.363a4.2,4.2,0,0,0-1.321,3.065,3.883,3.883,0,0,0,.253,1.406h-17.124v-2.812a36.575,36.575,0,0,1,36.553-36.552Z" transform="translate(-1112.036 -1805.934)" fill="#69d6f4"/>
        </g>
        <g id="Grupo_17372" data-name="Grupo 17372" transform="translate(42.176 5.623)">
          <path id="Trazado_27688" data-name="Trazado 27688" d="M1178.258,1813.09l-10.347,6.467a16.859,16.859,0,0,0-8.646-2.376h-2.741v-11.247a36.388,36.388,0,0,1,21.734,7.156Z" transform="translate(-1156.524 -1805.934)" fill="#69d6f4"/>
        </g>
        <g id="Grupo_17373" data-name="Grupo 17373" transform="translate(60.536 16.8)">
          <path id="Trazado_27689" data-name="Trazado 27689" d="M1197.062,1847.724h-17.124a3.888,3.888,0,0,0,.253-1.406,4.2,4.2,0,0,0-1.321-3.065l.45-1.363a16.825,16.825,0,0,0,.871-5.342,17.922,17.922,0,0,0-.2-2.615l6.818-14.4a36.429,36.429,0,0,1,10.249,25.375Z" transform="translate(-1178.87 -1819.537)" fill="#69d6f4"/>
        </g>
        <g id="Grupo_17374" data-name="Grupo 17374" transform="translate(53.563 7.029)">
          <path id="Trazado_27690" data-name="Trazado 27690" d="M1185.791,1810.231l4.134-2.586-2.081,4.386-2.545,5.385-6.818,14.4a16.9,16.9,0,0,0-4.766-9.364,16.569,16.569,0,0,0-3.332-2.586l10.347-6.467Z" transform="translate(-1170.383 -1807.645)" fill="#ff826e"/>
        </g>
        <g id="Grupo_17375" data-name="Grupo 17375" transform="translate(22.494 16.87)">
          <path id="Trazado_27691" data-name="Trazado 27691" d="M1166.309,1836.493a2.82,2.82,0,0,1-2.812,2.812h-9.841a4.207,4.207,0,0,1-2.981-1.238l-.056-.056-.071.042a12.053,12.053,0,0,1-5.328,1.251,4.225,4.225,0,0,1-4.217-4.218,9.609,9.609,0,0,0-2.812,6.79v.239h-1.406a4.232,4.232,0,0,0-2.9,1.153l-.449-1.363a16.922,16.922,0,0,1,16.069-22.283h5.483a16.859,16.859,0,0,1,8.646,2.376,16.569,16.569,0,0,1,3.332,2.586,16.9,16.9,0,0,1,4.766,9.363,17.922,17.922,0,0,1,.2,2.615,16.824,16.824,0,0,1-.871,5.342l-.45,1.363a4.232,4.232,0,0,0-2.9-1.153h-1.406Z" transform="translate(-1132.569 -1819.622)" fill="#656d78"/>
        </g>
        <g id="Grupo_17376" data-name="Grupo 17376" transform="translate(35.146 59.243)">
          <path id="Trazado_27692" data-name="Trazado 27692" d="M1160.691,1871.208l1.336,4.006-7.029,5.623-7.03-5.623,1.336-4.006v-.014a14.013,14.013,0,0,0,11.387,0Z" transform="translate(-1147.968 -1871.194)" fill="#f0d0b4"/>
        </g>
        <g id="Grupo_17377" data-name="Grupo 17377" transform="translate(56.164 39.364)">
          <path id="Trazado_27693" data-name="Trazado 27693" d="M1179.242,1851.216a3.886,3.886,0,0,1-.253,1.406,3.991,3.991,0,0,1-.984,1.575,4.21,4.21,0,0,1-2.981,1.237h-1.476c.042-.464.07-.928.07-1.406V1847h1.406a4.22,4.22,0,0,1,4.218,4.218Z" transform="translate(-1173.549 -1846.999)" fill="#f0d0b4"/>
        </g>
        <g id="Grupo_17378" data-name="Grupo 17378" transform="translate(28.117 32.334)">
          <path id="Trazado_27694" data-name="Trazado 27694" d="M1167.53,1845.473v7.03c0,.477-.028.942-.07,1.406a14.059,14.059,0,0,1-27.977,0c-.043-.464-.071-.928-.071-1.406v-7.269a9.609,9.609,0,0,1,2.812-6.79,4.224,4.224,0,0,0,4.217,4.218,12.05,12.05,0,0,0,5.328-1.251l.071-.042.056.056a4.208,4.208,0,0,0,2.981,1.237h9.841a2.82,2.82,0,0,0,2.812-2.812Z" transform="translate(-1139.413 -1838.444)" fill="#f0d0b4"/>
        </g>
        <g id="Grupo_17379" data-name="Grupo 17379" transform="translate(22.494 39.364)">
          <path id="Trazado_27695" data-name="Trazado 27695" d="M1138.263,1855.435h-1.476a4.207,4.207,0,0,1-2.98-1.237,3.984,3.984,0,0,1-.984-1.575,3.883,3.883,0,0,1-.253-1.406,4.219,4.219,0,0,1,4.217-4.218h1.406v7.03C1138.192,1854.506,1138.22,1854.971,1138.263,1855.435Z" transform="translate(-1132.569 -1846.999)" fill="#f0d0b4"/>
        </g>
        <g id="Grupo_17380" data-name="Grupo 17380" transform="translate(0 50.611)">
          <circle id="Elipse_1038" data-name="Elipse 1038" cx="8.435" cy="8.435" r="8.435" fill="#ccd1d9"/>
        </g>
        <g id="Grupo_17381" data-name="Grupo 17381" transform="translate(67.481 50.611)">
          <circle id="Elipse_1039" data-name="Elipse 1039" cx="8.435" cy="8.435" r="8.435" fill="#ccd1d9"/>
        </g>
      </g>
      <g id="Grupo_17383" data-name="Grupo 17383" transform="translate(0)">
        <path id="Trazado_27696" data-name="Trazado 27696" d="M1152.982,1848.71h-2.812a1.406,1.406,0,0,1-2.812,0h-2.812a4.218,4.218,0,0,0,8.436,0Z" transform="translate(-1110.806 -1806.535)" fill="#00223d"/>
        <path id="Trazado_27697" data-name="Trazado 27697" d="M1162.453,1850.116a1.406,1.406,0,0,1-1.406-1.406h-2.812a4.217,4.217,0,0,0,8.435,0h-2.812A1.406,1.406,0,0,1,1162.453,1850.116Z" transform="translate(-1113.247 -1806.535)" fill="#00223d"/>
        <path id="Trazado_27698" data-name="Trazado 27698" d="M1159.231,1860.363a4.445,4.445,0,0,1-8.436,0l-.073-.216-2.665.9.073.214a7.256,7.256,0,0,0,13.766,0l.073-.216-2.665-.9Z" transform="translate(-1111.432 -1808.574)" fill="#00223d"/>
        <path id="Trazado_27699" data-name="Trazado 27699" d="M1177.612,1809.9l3.7-7.82-7.359,4.6a43.571,43.571,0,0,0-70.475,34.282v4.218h23.275a5.607,5.607,0,0,0,4.842,2.812h.269a15.5,15.5,0,0,0,7.786,10.756l-.691,2.068-9.236,1.68a16.552,16.552,0,0,0-13.592,16.284v5.764h61.858v-5.764a16.553,16.553,0,0,0-13.592-16.284l-9.236-1.68-.69-2.068a15.5,15.5,0,0,0,7.785-10.756h.269a5.605,5.605,0,0,0,4.842-2.812h23.275v-4.218A43.748,43.748,0,0,0,1177.612,1809.9Zm-15.085,22.627a4.223,4.223,0,0,0-4.217-4.217h-4.218v2.812h4.218a1.406,1.406,0,0,1,0,2.812h-9.841a2.812,2.812,0,0,1,0-5.623V1825.5a5.607,5.607,0,0,0-5.138,7.889,10.522,10.522,0,0,1-3.3.546,2.812,2.812,0,1,1,0-5.623V1825.5a5.611,5.611,0,0,0-5.562,5.017,11.1,11.1,0,0,0-2.806,6.229h-.067a5.6,5.6,0,0,0-2.112.419,15.5,15.5,0,0,1,14.827-20.1h5.5a15.5,15.5,0,0,1,14.827,20.1,5.6,5.6,0,0,0-2.112-.419Zm-14.058-26.656a34.761,34.761,0,0,1,17.751,5.645l-7.815,4.884a18.227,18.227,0,0,0-8.593-2.149h-1.343ZM1161,1818.091l13.664-8.541-7.774,16.411a18.407,18.407,0,0,0-5.89-7.87Zm-54.709,22.869a40.725,40.725,0,0,1,65.093-32.675l-2.563,1.6a37.927,37.927,0,0,0-59.718,31.073v1.406h-2.812Zm5.623,1.406v-1.406a35.185,35.185,0,0,1,33.741-35.111v8.4h-1.344a18.344,18.344,0,0,0-17.4,24.14l.2.613a5.567,5.567,0,0,0-1.144,3.364Zm16.871,0a2.815,2.815,0,0,1,2.812-2.812v5.624A2.815,2.815,0,0,1,1128.786,1842.365Zm10.867,21.179,4.7,3.758-6.262,2.684-1.856-5.82Zm5.611,12.562h3.6l1.875,5.623h-7.347Zm3.769-2.812h-3.943l-1.418-2.642,3.391-1.452,3.391,1.454Zm-30.088,5.482a13.746,13.746,0,0,1,11.284-13.519l3.217-.585,2.908,9.116,4.725-2.024,1.647,3.066-2.3,6.9h-10.234v-5.623h-2.812v5.623h-8.436Zm53.049-8.794a13.752,13.752,0,0,1,3.186,8.794v2.952h-8.436v-5.623h-2.812v5.623H1153.7l-2.3-6.9,1.648-3.066,4.724,2.024,2.908-9.116,3.217.585a13.761,13.761,0,0,1,8.1,4.725Zm-14.105-5.817-1.855,5.82-6.262-2.684,4.7-3.758Zm-5.44-2.605-5.386,4.309-5.386-4.309.566-1.7a15.3,15.3,0,0,0,9.639,0Zm-5.386-3.731a12.667,12.667,0,0,1-12.653-12.652v-7.271a8.224,8.224,0,0,1,.913-3.737,5.611,5.611,0,0,0,4.71,2.573,13.412,13.412,0,0,0,5.162-1.068,5.59,5.59,0,0,0,3.273,1.068h9.841a4.164,4.164,0,0,0,1.406-.259v8.694A12.666,12.666,0,0,1,1147.063,1857.83Zm15.464-12.652v-5.624a2.812,2.812,0,0,1,0,5.624Zm4.479-6.176.2-.613a17.828,17.828,0,0,0,.771-8.16l5.754-12.147a34.938,34.938,0,0,1,8.473,22.878v1.406H1168.15A5.571,5.571,0,0,0,1167.006,1839Zm20.826,3.364h-2.811v-1.406a37.76,37.76,0,0,0-9.979-25.636l1.3-2.735a40.338,40.338,0,0,1,11.494,28.371Z" transform="translate(-1103.481 -1797.379)" fill="#00223d"/>
        <path id="Trazado_27700" data-name="Trazado 27700" d="M1198.079,1865.821h-2.812v2.812h-2.812v2.812h2.812v2.812h2.812v-2.812h2.812v-2.812h-2.812Z" transform="translate(-1119.351 -1809.587)" fill="#00223d"/>
        <path id="Trazado_27701" data-name="Trazado 27701" d="M1195.453,1858.977a9.841,9.841,0,1,0,9.841,9.84A9.853,9.853,0,0,0,1195.453,1858.977Zm0,16.87a7.029,7.029,0,1,1,7.029-7.029A7.037,7.037,0,0,1,1195.453,1875.847Z" transform="translate(-1118.131 -1808.366)" fill="#00223d"/>
        <path id="Trazado_27702" data-name="Trazado 27702" d="M1110.325,1869.243h8.435v2.812h-8.435Z" transform="translate(-1104.702 -1810.197)" fill="#00223d"/>
        <path id="Trazado_27703" data-name="Trazado 27703" d="M1123.163,1868.818a9.841,9.841,0,1,0-9.842,9.841A9.854,9.854,0,0,0,1123.163,1868.818Zm-9.842,7.029a7.029,7.029,0,1,1,7.03-7.029A7.037,7.037,0,0,1,1113.322,1875.847Z" transform="translate(-1103.481 -1808.366)" fill="#00223d"/>
      </g>
    </g>
    <g id="Grupo_17458" data-name="Grupo 17458" transform="translate(148 2047)">
      <g id="Grupo_17343" data-name="Grupo 17343" transform="translate(0 560)">
        <g id="Grupo_17342" data-name="Grupo 17342">
          <g id="Grupo_17335" data-name="Grupo 17335" transform="translate(0 1019)">
            <rect id="Rectángulo_4354" data-name="Rectángulo 4354" width="113" height="113" transform="translate(378 5412)" fill="none"/>
          </g>
        </g>
      </g>
    </g>
  </g>
</svg>
