<svg xmlns="http://www.w3.org/2000/svg" width="113" height="113" viewBox="0 0 113 113">
  <g id="Grupo_17466" data-name="Grupo 17466" transform="translate(-527 -8638)">
    <g id="Grupo_17456" data-name="Grupo 17456" transform="translate(87.605 -266.508)">
      <path id="Trazado_27560" data-name="Trazado 27560" d="M776.792,1835.694c0,3.172,2.9,3.172,2.9,6.359s-2.9,3.186-2.9,6.372,2.9,3.186,2.9,6.387c0,.2-.014.391-.029.58l-2.723.912a8.78,8.78,0,0,0-3.041,1.781v-4.141H747.828v24.62a1.453,1.453,0,0,0,1.448,1.448h30.413a5.791,5.791,0,0,1-5.793,5.793H747.828a5.791,5.791,0,0,1-5.793-5.793V1839.46a5.791,5.791,0,0,1,5.793-5.793H773.9a5.789,5.789,0,0,1,3.055.869A3.942,3.942,0,0,0,776.792,1835.694Z" transform="translate(-288.586 7120.257)" fill="#ccd1d9"/>
      <path id="Trazado_27561" data-name="Trazado 27561" d="M749.262,1858.963v24.62a1.453,1.453,0,0,0,1.448,1.448h21.724v-15.468a8.3,8.3,0,0,1,.217-1.911,8.5,8.5,0,0,1,2.68-4.548v-4.141Z" transform="translate(-290.02 7115.236)" fill="#fcd770"/>
      <path id="Trazado_27562" data-name="Trazado 27562" d="M749.262,1840.894H775.33v8.689H749.262Z" transform="translate(-290.02 7118.822)" fill="#69d6f4"/>
      <path id="Trazado_27563" data-name="Trazado 27563" d="M761.937,1827.571H751.6a14.482,14.482,0,1,1,20.681,0Z" transform="translate(-289.661 7126.353)" fill="#fcd770"/>
      <path id="Trazado_27564" data-name="Trazado 27564" d="M832.4,1884.673H819.369l-1.448-14.483,2.506-4.186,3.288,2.738,2.9-11.586,8.733,2.91,2.708.9a8.691,8.691,0,0,1,5.938,8.24v15.468Z" transform="translate(-303.647 7115.595)" fill="#e6e9ed"/>
      <path id="Trazado_27565" data-name="Trazado 27565" d="M789.757,1884.673H778.171V1869.2a8.3,8.3,0,0,1,.217-1.911,8.5,8.5,0,0,1,2.68-4.548,8.78,8.78,0,0,1,3.041-1.781l2.723-.912,8.718-2.9,2.9,11.586,3.287-2.738,2.506,4.186-1.448,14.483Z" transform="translate(-295.758 7115.595)" fill="#e6e9ed"/>
      <path id="Trazado_27566" data-name="Trazado 27566" d="M825.893,1856.8l-2.9,11.586-3.288-2.738-5.4-4.5,7.241-5.793Z" transform="translate(-302.93 7115.954)" fill="#aab2bd"/>
      <path id="Trazado_27567" data-name="Trazado 27567" d="M811.439,1861.142l-5.4,4.5-3.287,2.738-2.9-11.586,4.344-1.448Z" transform="translate(-300.061 7115.954)" fill="#aab2bd"/>
      <path id="Trazado_27568" data-name="Trazado 27568" d="M818.372,1867.08l-5.4-4.5-5.4,4.5,2.506,4.186-1.448,14.483h8.689l-1.448-14.483Z" transform="translate(-301.592 7114.519)" fill="#ff826e"/>
      <path id="Trazado_27569" data-name="Trazado 27569" d="M821.583,1816.371a29.641,29.641,0,0,1-20.985-8.689,7.636,7.636,0,0,0-5.779,7.241H794.8a5.791,5.791,0,0,0-5.793,5.793v-10.138a20.275,20.275,0,1,1,40.55,0v10.138a5.785,5.785,0,0,0-5.793-5.793v1.448Z" transform="translate(-297.909 7128.863)" fill="#b27946"/>
      <path id="Trazado_27570" data-name="Trazado 27570" d="M836.376,1828.247c0,3.186,2.9,3.186,2.9,6.371s-2.9,3.172-2.9,6.359,2.9,3.186,2.9,6.372-2.9,3.186-2.9,6.387a3.944,3.944,0,0,0,.043.593l-8.733-2.91-4.344-1.448v-4.836a14.476,14.476,0,0,0,7.169-11.094h.072A5.791,5.791,0,0,0,836.376,1828.247Z" transform="translate(-304.723 7121.332)" fill="#b27946"/>
      <path id="Trazado_27571" data-name="Trazado 27571" d="M801.328,1845.134v4.836l-4.344,1.448-8.718,2.9c.014-.188.029-.377.029-.579,0-3.2-2.9-3.2-2.9-6.387s2.9-3.186,2.9-6.372-2.9-3.187-2.9-6.359a3.94,3.94,0,0,1,.16-1.158c.594-2.085,2.737-2.476,2.737-5.213a5.785,5.785,0,0,0,5.793,5.793h.072a14.516,14.516,0,0,0,7.169,11.094Z" transform="translate(-297.192 7121.332)" fill="#b27946"/>
      <g id="Grupo_17355" data-name="Grupo 17355" transform="translate(491.103 8936.545)">
        <path id="Trazado_27572" data-name="Trazado 27572" d="M819.756,1849.315v4.836l-7.241,5.793-7.242-5.793v-4.836a14.487,14.487,0,0,0,14.483,0Z" transform="translate(-792.239 -1819.394)" fill="#f0d0b4"/>
        <path id="Trazado_27573" data-name="Trazado 27573" d="M836.456,1822.714a5.8,5.8,0,0,1-4.1,9.892h-.072c.043-.479.072-.956.072-1.448v-10.138A5.83,5.83,0,0,1,836.456,1822.714Z" transform="translate(-797.6 -1813.778)" fill="#f0d0b4"/>
        <path id="Trazado_27574" data-name="Trazado 27574" d="M811.648,1818.415a29.758,29.758,0,0,0,11.369,2.26H825.2v8.689c0,.492-.029.97-.072,1.448a14.484,14.484,0,0,1-28.821,0c-.043-.479-.072-.956-.072-1.448V1819.4a.712.712,0,0,1,.014-.174,7.636,7.636,0,0,1,5.779-7.241A29.663,29.663,0,0,0,811.648,1818.415Z" transform="translate(-790.446 -1811.985)" fill="#f0d0b4"/>
        <path id="Trazado_27575" data-name="Trazado 27575" d="M794.8,1821.193v9.964c0,.492.029.97.072,1.448H794.8a5.793,5.793,0,0,1,0-11.586h.014A.713.713,0,0,0,794.8,1821.193Z" transform="translate(-789.012 -1813.778)" fill="#f0d0b4"/>
      </g>
      <path id="Trazado_27576" data-name="Trazado 27576" d="M806.363,1826.081a1.448,1.448,0,1,1-1.448-1.448A1.448,1.448,0,0,1,806.363,1826.081Z" transform="translate(-300.778 7122.05)" fill="#00223d"/>
      <path id="Trazado_27577" data-name="Trazado 27577" d="M824.432,1826.081a1.448,1.448,0,1,1-1.448-1.448A1.448,1.448,0,0,1,824.432,1826.081Z" transform="translate(-304.364 7122.05)" fill="#00223d"/>
      <path id="Trazado_27578" data-name="Trazado 27578" d="M812.873,1840.177a2.9,2.9,0,0,1-2.9-2.9h-2.9a5.793,5.793,0,0,0,11.586,0h-2.9A2.9,2.9,0,0,1,812.873,1840.177Z" transform="translate(-301.495 7119.54)" fill="#00223d"/>
      <path id="Trazado_27579" data-name="Trazado 27579" d="M823.086,1845.97l-1.71-.571a3.191,3.191,0,0,1,1.024-1.773,5.657,5.657,0,0,0,0-8.322,2.816,2.816,0,0,1,0-4.421,5.647,5.647,0,0,0,0-8.317,2.883,2.883,0,0,1-1.07-2.208V1810.22a21.723,21.723,0,1,0-43.447,0v10.138a2.883,2.883,0,0,1-1.07,2.208,9.968,9.968,0,0,0-.9,1.1,7.237,7.237,0,0,0-2.065-.393,15.929,15.929,0,1,0-26.677.01,7.235,7.235,0,0,0-6.939,7.211v40.551a7.25,7.25,0,0,0,7.242,7.241h26.068a7.252,7.252,0,0,0,7.094-5.793h49.386v-16.91A10.121,10.121,0,0,0,823.086,1845.97Zm-2.828-21.455a2.815,2.815,0,0,1,0,4.417,5.652,5.652,0,0,0,0,8.32,2.819,2.819,0,0,1,0,4.425,6.273,6.273,0,0,0-1.662,2.793l-10.3-3.434v-3a15.947,15.947,0,0,0,6.983-10.559,7.242,7.242,0,0,0,4.839-3.12C820.162,1824.409,820.212,1824.465,820.258,1824.515Zm-20.653,13.221a13.049,13.049,0,0,1-13.034-13.034v-9.959a6.191,6.191,0,0,1,3.954-5.779,30.9,30.9,0,0,0,21.368,8.5h.746v7.241A13.048,13.048,0,0,1,799.605,1837.736Zm0,2.9a15.824,15.824,0,0,0,5.793-1.106v1.858l-5.793,4.636-5.793-4.636v-1.858A15.828,15.828,0,0,0,799.605,1840.633Zm-7.531,3.072,5.241,4.193-5.554,4.628-2.013-8.047Zm5.945,14.307h3.172l1.159,11.586h-5.489Zm3.663-2.9h-4.153l-1.451-2.418,3.527-2.939,3.526,2.939Zm.212-7.218,5.242-4.193,2.324.774-2.013,8.047Zm13.641-31.618a4.319,4.319,0,0,1,0,8.156Zm-15.93-24.887a18.848,18.848,0,0,1,18.826,18.827v4.382a7.161,7.161,0,0,0-2.9-1.338v-4.493h-2.9v5.793h-.746a28.029,28.029,0,0,1-19.953-8.265l-.579-.579-.8.2a9.08,9.08,0,0,0-6.765,7.331,7.172,7.172,0,0,0-3.022,1.352v-4.382A18.848,18.848,0,0,1,799.605,1791.393Zm-18.827,28.965a4.338,4.338,0,0,1,2.9-4.078v8.155A4.335,4.335,0,0,1,780.778,1820.358Zm-1.827,4.158c.047-.051.1-.107.145-.161a7.281,7.281,0,0,0,4.834,3.12,15.941,15.941,0,0,0,6.984,10.563v3l-10.3,3.434a6.266,6.266,0,0,0-1.662-2.793,2.822,2.822,0,0,1,0-4.426,5.652,5.652,0,0,0,0-8.319,2.815,2.815,0,0,1,0-4.418ZM760.5,1801.531a13.018,13.018,0,0,1,9.7,21.723h-8.247v-1.715a4.334,4.334,0,0,0-1.448-8.423,1.448,1.448,0,1,1,1.448-1.448h2.9a4.338,4.338,0,0,0-2.9-4.078v-3.164h-2.9v3.164a4.334,4.334,0,0,0,1.448,8.422,1.448,1.448,0,1,1-1.448,1.448h-2.9a4.338,4.338,0,0,0,2.9,4.078v1.715h-8.247a13.018,13.018,0,0,1,9.7-21.723Zm17.379,68.067v1.448a4.35,4.35,0,0,1-4.344,4.344H747.469a4.35,4.35,0,0,1-4.345-4.344v-40.551a4.35,4.35,0,0,1,4.345-4.344h26.068a4.327,4.327,0,0,1,1.467.265c0,.1-.019.2-.019.308a5.712,5.712,0,0,0,1.827,4.158,2.817,2.817,0,0,1,0,4.421,5.655,5.655,0,0,0,0,8.321,3.2,3.2,0,0,1,1.024,1.773l-1.71.571a10.274,10.274,0,0,0-1.139.482v-2.921H746.021V1869.6a2.9,2.9,0,0,0,2.9,2.9h26.068v-2.9h-2.9v-14.013a7.231,7.231,0,0,1,4.951-6.869l9.954-3.318,3.076,12.307,3.757-3.129,1.394,2.323-1.27,12.7H783.674v-.6l-1.273-1.273a5.547,5.547,0,0,1,0-7.842l1.273-1.273v-3.5h-2.9v2.3l-.425.424a8.424,8.424,0,0,0-.157,11.762Zm-8.689,0h-2.9V1863.8h2.9Zm-11.586-17.379v-5.792H763.4v5.792Zm5.793,2.9v5.792h-5.793v-5.792Zm-8.689-2.9h-5.793v-5.792h5.793Zm-5.793,2.9h5.793v5.792h-5.793Zm0,8.689h5.793v5.792h-5.793Zm8.689,0H763.4v5.792h-5.793Zm11.586-8.221v5.324h-2.9v-5.792h2.934C769.222,1855.272,769.192,1855.425,769.192,1855.584Zm.59-3.366H766.3v-5.792h5.793v2.063A10.106,10.106,0,0,0,769.782,1852.218Zm57.34,17.379h-8.107a8.425,8.425,0,0,0-.158-11.762l-.425-.424v-2.3h-2.9v3.5l1.273,1.273a5.547,5.547,0,0,1,0,7.842L815.536,1869v.6H805.26l-1.27-12.7,1.394-2.323,3.757,3.13,3.076-12.307,9.953,3.318a7.235,7.235,0,0,1,4.952,6.87Z" transform="translate(-288.227 7129.222)" fill="#00223d"/>
      <path id="Trazado_27580" data-name="Trazado 27580" d="M747.455,1839.088v11.585h28.964v-11.585Zm26.068,8.689H750.351v-5.793h23.172Z" transform="translate(-289.661 7119.181)" fill="#00223d"/>
    </g>
    <g id="Grupo_17453" data-name="Grupo 17453" transform="translate(149 1647)">
      <g id="Grupo_17343" data-name="Grupo 17343" transform="translate(0 560)">
        <g id="Grupo_17342" data-name="Grupo 17342">
          <g id="Grupo_17335" data-name="Grupo 17335" transform="translate(0 1019)">
            <rect id="Rectángulo_4354" data-name="Rectángulo 4354" width="113" height="113" transform="translate(378 5412)" fill="none"/>
          </g>
        </g>
      </g>
    </g>
  </g>
</svg>
