<svg xmlns="http://www.w3.org/2000/svg" width="113" height="113" viewBox="0 0 113 113">
  <g id="Grupo_17465" data-name="Grupo 17465" transform="translate(-287 -8638)">
    <g id="Grupo_17354" data-name="Grupo 17354" transform="translate(-1010.064 9074.584)">
      <g id="Grupo_17353" data-name="Grupo 17353" transform="translate(1313.048 -426.583)">
        <path id="Trazado_27552" data-name="Trazado 27552" d="M1362.274-407.228h.038c7.674-.076,6.553-10.333,6.553-10.333-.3-6.857-6.022-6.8-6.591-6.781-.57-.019-6.288-.076-6.61,6.762,0,0-1.121,10.257,6.572,10.333h0C1362.236-407.228,1362.255-407.228,1362.274-407.228Z" transform="translate(-1322.772 426.072)" fill="#a7a9ac"/>
        <path id="Trazado_27553" data-name="Trazado 27553" d="M1360.1-387.663l4.958-6.839a32.922,32.922,0,0,1,6.344,3.514,13.336,13.336,0,0,1,1.747,1.538c1.577,1.577.912,10.713,0,14.057a47.322,47.322,0,0,1-3.59,8.149,12.848,12.848,0,0,0-1.007,3.837l-3.419,33.526a2.1,2.1,0,0,1-2.071,1.881h-5.926a2.083,2.083,0,0,1-2.071-1.881l-3.419-33.526a12.708,12.708,0,0,0-1.007-3.837,46.6,46.6,0,0,1-3.59-8.149c-.912-3.344-1.576-12.48,0-14.057a13.344,13.344,0,0,1,1.747-1.538,34.177,34.177,0,0,1,6.345-3.514Z" transform="translate(-1320.601 419.253)" fill="#a7a9ac"/>
        <path id="Trazado_27554" data-name="Trazado 27554" d="M1313.989-371.278a46.415,46.415,0,0,0,3.476,7.959,9.819,9.819,0,0,1,.778,3.02l3.21,31.456a3.673,3.673,0,0,0,3.666,3.305h5.546a3.672,3.672,0,0,0,3.666-3.305l3.21-31.456a10.12,10.12,0,0,1,.817-3.078,1.722,1.722,0,0,0-.874-2.26,1.722,1.722,0,0,0-2.261.874,13.5,13.5,0,0,0-1.082,4.121l-3.21,31.456a.242.242,0,0,1-.228.209h-5.547a.228.228,0,0,1-.228-.209l-3.248-31.474a14.053,14.053,0,0,0-1.083-4.122.562.562,0,0,0-.076-.152,43.248,43.248,0,0,1-3.21-7.256c-.874-3.248-1.121-10.314-.4-11.568a10.44,10.44,0,0,1,1.406-1.235,27.711,27.711,0,0,1,4.35-2.526l3.837,5.281a1.726,1.726,0,0,0,1.386.7,1.726,1.726,0,0,0,1.386-.7l4.654-6.4a1.749,1.749,0,0,0-.38-2.413,1.75,1.75,0,0,0-2.413.38l-3.267,4.482-3.229-4.464a1.724,1.724,0,0,0-2.033-.589,32.993,32.993,0,0,0-6.325,3.495,13.89,13.89,0,0,0-1.843,1.615C1312.014-383.7,1313.363-373.6,1313.989-371.278Z" transform="translate(-1313.048 418.538)" fill="#00223d"/>
        <path id="Trazado_27555" data-name="Trazado 27555" d="M1329.777-399.874h.322a7.216,7.216,0,0,0,5.4-2.355c2.83-3.191,2.431-8.51,2.355-9.175-.285-5.87-4.369-7.94-7.769-7.94h-.3c-3.4,0-7.465,2.089-7.769,7.94-.057.665-.475,5.984,2.355,9.175A7.217,7.217,0,0,0,1329.777-399.874Zm-4.331-11.226v-.114c.191-4.1,2.793-4.711,4.331-4.711h.285c1.538,0,4.141.608,4.331,4.711v.095c.133,1.216.095,4.768-1.52,6.592a3.7,3.7,0,0,1-2.944,1.2h-.038a3.764,3.764,0,0,1-2.945-1.2C1325.351-406.333,1325.332-409.885,1325.446-411.1Z" transform="translate(-1315.083 424.929)" fill="#00223d"/>
        <path id="Trazado_27556" data-name="Trazado 27556" d="M1383.493-365.661a1.7,1.7,0,0,0-.874,2.26,10.276,10.276,0,0,1,.817,3.078l3.21,31.456a3.672,3.672,0,0,0,3.665,3.305h5.547a3.673,3.673,0,0,0,3.666-3.305l3.209-31.456a10.411,10.411,0,0,1,.779-3.02,43.6,43.6,0,0,0,3.475-7.959c.627-2.318,2-12.423-.437-14.854a13.832,13.832,0,0,0-1.843-1.615,32.311,32.311,0,0,0-6.325-3.495,1.691,1.691,0,0,0-2.032.589l-3.267,4.482-3.286-4.464a1.727,1.727,0,0,0-2.413-.38,1.744,1.744,0,0,0-.38,2.413l4.654,6.4a1.729,1.729,0,0,0,1.387.7,1.727,1.727,0,0,0,1.386-.7l3.837-5.28a27.733,27.733,0,0,1,4.35,2.526,11.6,11.6,0,0,1,1.406,1.234c.721,1.254.474,8.32-.4,11.569a43.344,43.344,0,0,1-3.21,7.256,1.141,1.141,0,0,0-.076.152,13.491,13.491,0,0,0-1.082,4.121l-3.21,31.456a.243.243,0,0,1-.228.209h-5.546a.228.228,0,0,1-.228-.209l-3.21-31.456a14.048,14.048,0,0,0-1.083-4.121A1.7,1.7,0,0,0,1383.493-365.661Z" transform="translate(-1328.909 418.543)" fill="#00223d"/>
        <path id="Trazado_27557" data-name="Trazado 27557" d="M1393.674-399.874H1394a7.217,7.217,0,0,0,5.414-2.355c2.831-3.191,2.432-8.51,2.355-9.175-.285-5.87-4.35-7.94-7.769-7.94h-.3c-3.4,0-7.464,2.089-7.768,7.94-.057.665-.475,5.984,2.356,9.175A7.213,7.213,0,0,0,1393.674-399.874Zm-4.331-11.226v-.114c.191-4.1,2.793-4.711,4.331-4.711h.285c1.538,0,4.141.608,4.331,4.711v.095c.133,1.216.095,4.768-1.52,6.592a3.764,3.764,0,0,1-2.944,1.2h-.038a3.764,3.764,0,0,1-2.945-1.2C1389.248-406.333,1389.229-409.885,1389.342-411.1Z" transform="translate(-1329.687 424.929)" fill="#00223d"/>
        <path id="Trazado_27558" data-name="Trazado 27558" d="M1345.325-391.176c-2.564,2.564-1.12,13.259-.437,15.728a47.541,47.541,0,0,0,3.7,8.453,10.809,10.809,0,0,1,.855,3.248l3.419,33.526a3.783,3.783,0,0,0,3.8,3.419h5.907a3.826,3.826,0,0,0,3.8-3.419l3.419-33.526a10.662,10.662,0,0,1,.855-3.248,48.225,48.225,0,0,0,3.7-8.453c.665-2.469,2.128-13.163-.437-15.728a15.312,15.312,0,0,0-1.938-1.709,35.56,35.56,0,0,0-6.724-3.723,1.692,1.692,0,0,0-2.033.589l-3.628,4.92-3.571-4.92a1.724,1.724,0,0,0-2.033-.589,35.024,35.024,0,0,0-6.724,3.723A14.117,14.117,0,0,0,1345.325-391.176Zm2.469,2.394a10.553,10.553,0,0,1,1.52-1.33,28.591,28.591,0,0,1,4.749-2.754l4.141,5.7a1.727,1.727,0,0,0,1.387.7,1.726,1.726,0,0,0,1.386-.7l4.141-5.7a30.219,30.219,0,0,1,4.749,2.754,10.522,10.522,0,0,1,1.52,1.33c.8,1.291.551,8.909-.417,12.423a44.225,44.225,0,0,1-3.438,7.75,1.113,1.113,0,0,0-.076.152,14.433,14.433,0,0,0-1.159,4.369l-3.419,33.526a.354.354,0,0,1-.361.323h-5.907a.354.354,0,0,1-.361-.323l-3.419-33.526a14.05,14.05,0,0,0-1.159-4.369.565.565,0,0,0-.076-.152,46.29,46.29,0,0,1-3.438-7.769C1347.243-379.874,1347-387.491,1347.794-388.782Z" transform="translate(-1320.089 419.763)" fill="#00223d"/>
        <path id="Trazado_27559" data-name="Trazado 27559" d="M1361.591-406.03h.342a7.39,7.39,0,0,0,5.68-2.488c3-3.362,2.545-9.023,2.488-9.707-.3-6.173-4.577-8.358-8.168-8.358h-.342c-3.571,0-7.864,2.185-8.168,8.358-.057.684-.513,6.326,2.488,9.688A7.5,7.5,0,0,0,1361.591-406.03Zm-4.73-11.872v-.114c.209-4.634,3.382-5.128,4.73-5.128h.323c1.349,0,4.52.494,4.729,5.128v.095c.133,1.311.114,5.147-1.633,7.1a4.085,4.085,0,0,1-3.23,1.311h-.057a4.144,4.144,0,0,1-3.229-1.311C1356.747-412.755,1356.728-416.591,1356.861-417.9Z" transform="translate(-1322.26 426.583)" fill="#00223d"/>
      </g>
    </g>
    <g id="Grupo_17345" data-name="Grupo 17345" transform="translate(-91 1647)">
      <g id="Grupo_17343" data-name="Grupo 17343" transform="translate(0 560)">
        <g id="Grupo_17342" data-name="Grupo 17342">
          <g id="Grupo_17335" data-name="Grupo 17335" transform="translate(0 1019)">
            <rect id="Rectángulo_4354" data-name="Rectángulo 4354" width="113" height="113" transform="translate(378 5412)" fill="none"/>
          </g>
        </g>
      </g>
    </g>
  </g>
</svg>
