<svg xmlns="http://www.w3.org/2000/svg" width="113" height="113" viewBox="0 0 113 113">
  <g id="Grupo_17467" data-name="Grupo 17467" transform="translate(-761 -8638)">
    <g id="shopping-shop-store-market-booth" transform="translate(773 8650)">
      <path id="Trazado_27581" data-name="Trazado 27581" d="M907.68,1834.344h74.826v46.392H907.68Z" transform="translate(-900.197 -1798.428)" fill="#fee9ab"/>
      <path id="Trazado_27582" data-name="Trazado 27582" d="M996,1834.344h5.986v46.392H996Z" transform="translate(-919.677 -1798.428)" fill="#ffd422"/>
      <path id="Trazado_27583" data-name="Trazado 27583" d="M986.8,1896.857a3.016,3.016,0,0,1-2.993,2.993H902.993a2.993,2.993,0,1,1,0-5.986H983.8A3,3,0,0,1,986.8,1896.857Z" transform="translate(-898.503 -1811.555)" fill="#898890"/>
      <path id="Trazado_27584" data-name="Trazado 27584" d="M1008.819,1896.857a3.016,3.016,0,0,1-2.993,2.993H999.84a2.993,2.993,0,1,0,0-5.986h5.986A3,3,0,0,1,1008.819,1896.857Z" transform="translate(-920.525 -1811.555)" fill="#57565c"/>
      <path id="Trazado_27585" data-name="Trazado 27585" d="M1003.433,1811.958l2.619,18.378a5.986,5.986,0,1,1-11.972,0v-20.951h6.39A3.009,3.009,0,0,1,1003.433,1811.958Z" transform="translate(-919.254 -1792.922)" fill="#ff3051"/>
      <path id="Trazado_27586" data-name="Trazado 27586" d="M1006.166,1830.335a5.977,5.977,0,0,1-8.979,5.178,6.353,6.353,0,0,0,1.242-.942,6.027,6.027,0,0,0,1.751-4.235l-2.619-18.378a3.009,3.009,0,0,0-2.964-2.574h5.986a3.009,3.009,0,0,1,2.963,2.574Z" transform="translate(-919.368 -1792.922)" fill="#cd2a00"/>
      <rect id="Rectángulo_4361" data-name="Rectángulo 4361" width="29.93" height="26.937" rx="3.84" transform="translate(44.896 49.385)" fill="#46f8ff"/>
      <path id="Trazado_27587" data-name="Trazado 27587" d="M991.539,1854.617v20.951a3,3,0,0,1-2.993,2.993H982.56a3,3,0,0,0,2.993-2.993v-20.951a3,3,0,0,0-2.993-2.993h5.986A3,3,0,0,1,991.539,1854.617Z" transform="translate(-916.713 -1802.239)" fill="#00d7df"/>
      <rect id="Rectángulo_4362" data-name="Rectángulo 4362" width="47.889" height="32.923" rx="3.84" transform="translate(20.951 1.497)" fill="#ebe5dd"/>
      <path id="Trazado_27588" data-name="Trazado 27588" d="M983.859,1793.177v26.937a3,3,0,0,1-2.993,2.993H974.88a3,3,0,0,0,2.993-2.993v-26.937a3,3,0,0,0-2.993-2.993h5.986A3,3,0,0,1,983.859,1793.177Z" transform="translate(-915.019 -1788.687)" fill="#c0ab91"/>
      <path id="Trazado_27589" data-name="Trazado 27589" d="M938.231,1862.1v22.448H917.28V1862.1a10.476,10.476,0,0,1,20.951,0Z" transform="translate(-902.315 -1802.239)" fill="#a78966"/>
      <path id="Trazado_27590" data-name="Trazado 27590" d="M940.349,1862.1v22.448h-5.986V1862.1a10.475,10.475,0,0,0-7.483-10.041,10.475,10.475,0,0,1,13.469,10.041Z" transform="translate(-904.432 -1802.237)" fill="#806749"/>
      <path id="Trazado_27591" data-name="Trazado 27591" d="M990.692,1809.384v20.951a5.986,5.986,0,0,1-11.972,0v-2.993h2.993a3,3,0,0,0,2.993-2.993v-14.965Z" transform="translate(-915.866 -1792.922)" fill="#ff3051"/>
      <path id="Trazado_27592" data-name="Trazado 27592" d="M975.332,1832.424v2.993a5.986,5.986,0,1,1-11.972,0v-2.993Z" transform="translate(-912.478 -1798.004)" fill="#ff3051"/>
      <path id="Trazado_27593" data-name="Trazado 27593" d="M976.179,1809.384v5.986H967.2v-5.986h8.979Z" transform="translate(-913.325 -1792.922)" fill="#c0ab91"/>
      <path id="Trazado_27594" data-name="Trazado 27594" d="M959.972,1832.424v2.993a5.986,5.986,0,0,1-11.972,0v-2.993Z" transform="translate(-909.09 -1798.004)" fill="#ff3051"/>
      <path id="Trazado_27595" data-name="Trazado 27595" d="M961.666,1801.7l-1.5,5.986h-4.49V1801.7Z" transform="translate(-910.784 -1791.229)" fill="#c6c5ca"/>
      <circle id="Elipse_1033" data-name="Elipse 1033" cx="2.993" cy="2.993" r="2.993" transform="translate(44.896 22.448)" fill="#787680"/>
      <path id="Trazado_27596" data-name="Trazado 27596" d="M960.17,1809.384l-1.5,5.986H955.68v-5.986Z" transform="translate(-910.784 -1792.922)" fill="#898890"/>
      <path id="Trazado_27597" data-name="Trazado 27597" d="M948,1809.384h5.986v5.986H948Z" transform="translate(-909.09 -1792.922)" fill="#c6c5ca"/>
      <path id="Trazado_27598" data-name="Trazado 27598" d="M948,1801.7h5.986v5.986H948Z" transform="translate(-909.09 -1791.229)" fill="#898890"/>
      <path id="Trazado_27599" data-name="Trazado 27599" d="M944.612,1832.424v2.993a5.986,5.986,0,1,1-11.972,0v-2.993Z" transform="translate(-905.703 -1798.004)" fill="#ff3051"/>
      <path id="Trazado_27600" data-name="Trazado 27600" d="M946.729,1809.384v5.986h-2.993l-1.5-5.986Z" transform="translate(-907.82 -1792.922)" fill="#898890"/>
      <path id="Trazado_27601" data-name="Trazado 27601" d="M946.306,1801.7v5.986h-4.49l-1.5-5.986Z" transform="translate(-907.397 -1791.229)" fill="#c6c5ca"/>
      <circle id="Elipse_1034" data-name="Elipse 1034" cx="2.993" cy="2.993" r="2.993" transform="translate(32.923 22.448)" fill="#787680"/>
      <path id="Trazado_27602" data-name="Trazado 27602" d="M929.252,1827.342v2.993a5.986,5.986,0,1,1-11.972,0v-20.951h5.986v14.965a3,3,0,0,0,2.993,2.993Z" transform="translate(-902.315 -1792.922)" fill="#ff3051"/>
      <path id="Trazado_27603" data-name="Trazado 27603" d="M913.892,1809.384v20.951a5.986,5.986,0,0,1-11.972,0l2.619-18.378a3.009,3.009,0,0,1,2.963-2.574Z" transform="translate(-898.927 -1792.922)" fill="#ff3051"/>
      <path id="Trazado_27604" data-name="Trazado 27604" d="M958.25,1879.634h23.944a4.49,4.49,0,0,0,4.49-4.49v-20.951a4.49,4.49,0,0,0-4.49-4.49H958.25a4.49,4.49,0,0,0-4.49,4.49v20.951A4.49,4.49,0,0,0,958.25,1879.634Zm-1.5-25.441a1.5,1.5,0,0,1,1.5-1.5h23.944a1.5,1.5,0,0,1,1.5,1.5v20.951a1.5,1.5,0,0,1-1.5,1.5H958.25a1.5,1.5,0,0,1-1.5-1.5Z" transform="translate(-910.361 -1801.815)" fill="#00223d"/>
      <path id="Trazado_27605" data-name="Trazado 27605" d="M983.209,1864.866H986.2v-5.986a1.5,1.5,0,0,0-1.5-1.5H978.72v2.993h4.49Z" transform="translate(-915.866 -1803.509)" fill="#00223d"/>
      <path id="Trazado_27606" data-name="Trazado 27606" d="M936.48,1874.664h2.993v2.993H936.48Z" transform="translate(-906.55 -1807.321)" fill="#00223d"/>
      <path id="Trazado_27607" data-name="Trazado 27607" d="M983.381,1869.076h-2.993V1833.01a7.509,7.509,0,0,0,5.986-7.333.991.991,0,0,0-.015-.21l-2.619-18.377a4.52,4.52,0,0,0-4.445-3.861H968.416v-10.476a4.5,4.5,0,0,0-4.49-4.49h-41.9a4.5,4.5,0,0,0-4.49,4.49v10.476H906.655a4.52,4.52,0,0,0-4.445,3.861l-2.619,18.377a1,1,0,0,0-.015.21,7.509,7.509,0,0,0,5.986,7.333v36.066H902.57a4.49,4.49,0,1,0,0,8.979h80.812a4.49,4.49,0,0,0,0-8.979Zm-8.979-62.854H979.3a1.484,1.484,0,0,1,1.467,1.287l2.619,18.272a4.49,4.49,0,0,1-8.979-.1Zm-5.986,13.469v-13.469h2.993v19.455a4.49,4.49,0,0,1-8.979,0v-1.5h1.5A4.5,4.5,0,0,0,968.416,1819.691Zm-47.889-26.937a1.5,1.5,0,0,1,1.5-1.5h41.9a1.5,1.5,0,0,1,1.5,1.5v26.937a1.5,1.5,0,0,1-1.5,1.5h-41.9a1.5,1.5,0,0,1-1.5-1.5Zm38.909,31.427v1.5a4.49,4.49,0,0,1-8.979,0v-1.5Zm-11.972,0v1.5a4.49,4.49,0,0,1-8.979,0v-1.5Zm-11.972,0v1.5a4.49,4.49,0,0,1-8.979,0v-1.5Zm-20.951-17.958h2.993v13.469a4.5,4.5,0,0,0,4.49,4.49h1.5v1.5a4.49,4.49,0,0,1-8.979,0Zm-1.5,23.944a7.483,7.483,0,0,0,11.972,0,7.482,7.482,0,0,0,11.972,0,7.482,7.482,0,0,0,11.972,0,7.483,7.483,0,0,0,11.972,0,7.483,7.483,0,0,0,11.972,0,7.475,7.475,0,0,0,4.49,2.829v36.081h-41.9v-20.951a11.972,11.972,0,0,0-23.944,0v20.951h-2.993v-36.081A7.475,7.475,0,0,0,913.045,1830.166Zm19.455,17.958v20.951H914.542v-20.951a8.979,8.979,0,0,1,17.958,0Zm-29.93-22.343,2.619-18.272a1.484,1.484,0,0,1,1.467-1.287h4.893v19.455a4.49,4.49,0,0,1-8.979.1Zm80.812,49.281H902.57a1.5,1.5,0,1,1,0-2.993h80.812a1.5,1.5,0,1,1,0,2.993Z" transform="translate(-898.08 -1788.264)" fill="#00223d"/>
      <path id="Trazado_27608" data-name="Trazado 27608" d="M954.978,1811.3l2.634-10.505a1.527,1.527,0,0,0-.269-1.287,1.5,1.5,0,0,0-1.182-.569H936.706v-1.5a1.5,1.5,0,0,0-1.5-1.5h-4.49v2.993h2.993v1.5a1.5,1.5,0,0,0,1.5,1.5h1.826l2.35,9.368a4.511,4.511,0,1,0,6.03,2.6h3.532a4.489,4.489,0,1,0,6.031-2.6Zm-13.783,5.6a1.5,1.5,0,1,1,1.5-1.5A1.5,1.5,0,0,1,941.2,1816.9Zm1.5-5.986h-.329l-.748-2.993h1.077Zm0-5.986h-1.826l-.748-2.993h2.574Zm5.986,5.986h-2.993v-2.993h2.993Zm0-5.986h-2.993v-2.993h2.993Zm2.993-2.993h2.574l-.748,2.993h-1.826Zm0,5.986h1.077l-.748,2.993h-.329Zm1.5,8.979a1.5,1.5,0,1,1,1.5-1.5A1.5,1.5,0,0,1,953.168,1816.9Z" transform="translate(-905.279 -1789.958)" fill="#00223d"/>
      <path id="Trazado_27609" data-name="Trazado 27609" d="M975.755,1805.77v-1.5a4.489,4.489,0,1,0-8.979,0v1.5a1.5,1.5,0,0,0-1.5,1.5v5.986a1.5,1.5,0,0,0,1.5,1.5h8.979a1.5,1.5,0,0,0,1.5-1.5v-5.986A1.5,1.5,0,0,0,975.755,1805.77Zm-5.986-1.5a1.5,1.5,0,1,1,2.993,0v1.5h-2.993Zm4.49,7.483h-5.986v-2.993h5.986Z" transform="translate(-912.902 -1790.805)" fill="#00223d"/>
    </g>
    <g id="Grupo_17454" data-name="Grupo 17454" transform="translate(383 1647)">
      <g id="Grupo_17343" data-name="Grupo 17343" transform="translate(0 560)">
        <g id="Grupo_17342" data-name="Grupo 17342">
          <g id="Grupo_17335" data-name="Grupo 17335" transform="translate(0 1019)">
            <rect id="Rectángulo_4354" data-name="Rectángulo 4354" width="113" height="113" transform="translate(378 5412)" fill="none"/>
          </g>
        </g>
      </g>
    </g>
  </g>
</svg>
