<svg xmlns="http://www.w3.org/2000/svg" width="113" height="113" viewBox="0 0 113 113">
  <g id="Grupo_17819" data-name="Grupo 17819" transform="translate(-113 -6996)">
    <g id="Grupo_17818" data-name="Grupo 17818" transform="translate(-2052.01 6953.797)">
      <g id="Grupo_17809" data-name="Grupo 17809" transform="translate(2198.656 109.561)">
        <g id="Grupo_17804" data-name="Grupo 17804" transform="translate(0 4.326)">
          <path id="Trazado_28404" data-name="Trazado 28404" d="M2250.979,129.434a13.77,13.77,0,0,0,3.306,9.069h-49.833a1.576,1.576,0,0,1-1.287-.659,16.052,16.052,0,0,1,0-16.822,1.576,1.576,0,0,1,1.287-.659h49.833A13.771,13.771,0,0,0,2250.979,129.434Z" transform="translate(-2200.785 -120.364)" fill="#fb3a82"/>
          <path id="Trazado_28405" data-name="Trazado 28405" d="M2215.989,120.365l-14.052,15.222a15.923,15.923,0,0,1-1.15-6.153,14.39,14.39,0,0,1,2.38-8.411,1.575,1.575,0,0,1,1.286-.658Z" transform="translate(-2200.785 -120.364)" fill="#fb1466"/>
          <path id="Trazado_28406" data-name="Trazado 28406" d="M2257.124,129.434a13.769,13.769,0,0,0,3.306,9.069h-50.592s-2.908-2.945-2.908-9.069,2.908-9.07,2.908-9.07h50.592A13.775,13.775,0,0,0,2257.124,129.434Z" transform="translate(-2201.447 -120.364)" fill="#e0d3ce"/>
          <g id="Grupo_17803" data-name="Grupo 17803" transform="translate(5.483 0.001)">
            <path id="Trazado_28407" data-name="Trazado 28407" d="M2216.65,120.365l-9.668,10.472c-.034-.447-.053-.916-.053-1.4,0-6.126,2.908-9.07,2.908-9.07Z" transform="translate(-2206.93 -120.365)" fill="#cdbfbb"/>
            <path id="Trazado_28408" data-name="Trazado 28408" d="M2262.457,129.434a13.768,13.768,0,0,0,3.307,9.069h-5.995a14.091,14.091,0,0,1,0-18.138h5.995A13.766,13.766,0,0,0,2262.457,129.434Z" transform="translate(-2212.263 -120.365)" fill="#cdbfbb"/>
          </g>
        </g>
        <g id="Grupo_17808" data-name="Grupo 17808" transform="translate(6.827)">
          <g id="Grupo_17806" data-name="Grupo 17806" transform="translate(0.001)">
            <path id="Trazado_28409" data-name="Trazado 28409" d="M2264,118.15a2.634,2.634,0,0,1-2.632,2.632h-50.3a2.633,2.633,0,0,1,0-5.266h50.3A2.633,2.633,0,0,1,2264,118.15Z" transform="translate(-2208.436 -115.516)" fill="#fb3a82"/>
            <g id="Grupo_17805" data-name="Grupo 17805">
              <path id="Trazado_28410" data-name="Trazado 28410" d="M2220.806,115.516l-4.86,5.266h-4.878a2.633,2.633,0,0,1,0-5.266Z" transform="translate(-2208.436 -115.516)" fill="#fb1466"/>
              <path id="Trazado_28411" data-name="Trazado 28411" d="M2269.769,118.149a2.634,2.634,0,0,1-2.633,2.634h-5.106a2.633,2.633,0,0,0,0-5.266h5.106A2.633,2.633,0,0,1,2269.769,118.149Z" transform="translate(-2214.206 -115.516)" fill="#fb1466"/>
            </g>
          </g>
          <g id="Grupo_17807" data-name="Grupo 17807" transform="translate(0 21.525)">
            <path id="Trazado_28412" data-name="Trazado 28412" d="M2261.366,144.9h-50.3a2.632,2.632,0,1,1,0-5.265h50.3a2.632,2.632,0,0,1,0,5.265Z" transform="translate(-2208.435 -139.638)" fill="#fb3a82"/>
            <path id="Trazado_28413" data-name="Trazado 28413" d="M2269.769,142.271a2.629,2.629,0,0,1-2.633,2.632h-5.106a2.632,2.632,0,1,0,0-5.263h5.106A2.633,2.633,0,0,1,2269.769,142.271Z" transform="translate(-2214.205 -139.638)" fill="#fb1466"/>
          </g>
        </g>
      </g>
      <g id="Grupo_17817" data-name="Grupo 17817" transform="translate(2181.01 60.203)">
        <g id="Grupo_17812" data-name="Grupo 17812" transform="translate(1.19 31.442)">
          <g id="Grupo_17810" data-name="Grupo 17810" transform="translate(0 10.07)">
            <path id="Trazado_28414" data-name="Trazado 28414" d="M2217,110.973l-4.25-4.25-28.931,26.708a4.581,4.581,0,1,0,6.474,6.473Z" transform="translate(-2182.344 -106.723)" fill="#873f30"/>
            <path id="Trazado_28415" data-name="Trazado 28415" d="M2190.191,140.2a4.583,4.583,0,0,1-6.478,0,4.537,4.537,0,0,1-1.117-1.825,4.575,4.575,0,0,0,4.649-1.114c.044-.044.088-.09.13-.136l26.708-28.931,2.942,2.943-26.708,28.931C2190.276,140.108,2190.234,140.153,2190.191,140.2Z" transform="translate(-2182.371 -106.881)" fill="#6c3328"/>
          </g>
          <path id="Trazado_28416" data-name="Trazado 28416" d="M2224.689,95.438l-9.786,11.674,4,4,11.674-9.786Z" transform="translate(-2185.849 -95.438)" fill="#873f30"/>
          <path id="Trazado_28417" data-name="Trazado 28417" d="M2224.879,95.438l-3.163,3.772.949.949a1.789,1.789,0,0,1,0,2.529l-6,6,2.423,2.423,11.674-9.786Z" transform="translate(-2186.039 -95.438)" fill="#6c3328"/>
          <g id="Grupo_17811" data-name="Grupo 17811" transform="translate(25.815 9.283)">
            <path id="Trazado_28418" data-name="Trazado 28418" d="M2216,114.627l-3.881-3.881a2.873,2.873,0,1,1,4.063-4.063l3.881,3.881a2.873,2.873,0,1,1-4.063,4.063Z" transform="translate(-2211.273 -105.841)" fill="#ba5d4f"/>
            <path id="Trazado_28419" data-name="Trazado 28419" d="M2220.272,114.841a2.872,2.872,0,0,1-4.062,0l-2.942-2.941a2.873,2.873,0,1,0,4.063-4.063l2.942,2.941a2.871,2.871,0,0,1,0,4.063Z" transform="translate(-2211.488 -106.056)" fill="#a34f41"/>
          </g>
        </g>
        <g id="Grupo_17813" data-name="Grupo 17813" transform="translate(31.572 4.761)">
          <path id="Trazado_28420" data-name="Trazado 28420" d="M2229.92,65.538l8.617,8.617L2225.01,87.683l-8.617-8.617Z" transform="translate(-2216.392 -65.538)" fill="#ba5d4f"/>
          <path id="Trazado_28421" data-name="Trazado 28421" d="M2246.161,108.848l-8.617-8.617L2251.072,86.7l8.617,8.617Z" transform="translate(-2218.669 -67.817)" fill="#a34f41"/>
        </g>
        <g id="Grupo_17816" data-name="Grupo 17816">
          <path id="Trazado_28422" data-name="Trazado 28422" d="M2213.537,81.6l-.3-.3a2.907,2.907,0,0,1,0-4.111l14.807-14.807a2.906,2.906,0,0,1,4.11,0l.3.3a2.906,2.906,0,0,1,0,4.11L2217.647,81.6a2.906,2.906,0,0,1-4.11,0Z" transform="translate(-2184.388 -60.347)" fill="#873f30"/>
          <path id="Trazado_28423" data-name="Trazado 28423" d="M2243.774,111.843l.3.3a2.906,2.906,0,0,0,4.11,0l14.808-14.807a2.906,2.906,0,0,0,0-4.11l-.3-.3a2.906,2.906,0,0,0-4.11,0l-14.807,14.807A2.907,2.907,0,0,0,2243.774,111.843Z" transform="translate(-2187.676 -63.634)" fill="#6c3328"/>
          <g id="Grupo_17815" data-name="Grupo 17815">
            <path id="Trazado_28424" data-name="Trazado 28424" d="M2242.935,71.647l9.677,9.677-20.432,20.432-9.677-9.677Z" transform="translate(-2185.478 -61.435)" fill="#fcc16d"/>
            <path id="Trazado_28425" data-name="Trazado 28425" d="M2227.852,97.447l20.431-20.432,4.9,4.9-20.431,20.431Z" transform="translate(-2186.053 -62.013)" fill="#fca62f"/>
            <path id="Trazado_28426" data-name="Trazado 28426" d="M2242.795,71.055l-2.37-.969a2.18,2.18,0,0,0-2.366.477l-16.647,16.647a2.182,2.182,0,0,0-.477,2.366l.97,2.371a1.452,1.452,0,0,0,2.372.477l19-19a1.453,1.453,0,0,0-.479-2.373Z" transform="translate(-2185.291 -61.249)" fill="#873f30"/>
            <path id="Trazado_28427" data-name="Trazado 28427" d="M2254.083,82.342l.969,2.371a2.181,2.181,0,0,1-.476,2.366l-16.647,16.647a2.18,2.18,0,0,1-2.366.477l-2.371-.969a1.453,1.453,0,0,1-.478-2.373l19-19a1.453,1.453,0,0,1,2.373.477Z" transform="translate(-2186.531 -62.489)" fill="#6c3328"/>
            <g id="Grupo_17814" data-name="Grupo 17814">
              <path id="Trazado_28428" data-name="Trazado 28428" d="M2258.413,129.9h-.885a12.316,12.316,0,0,1-1.024-1.953,1.19,1.19,0,0,0-2.2.91c.147.356.313.7.485,1.043h-46.674a3.832,3.832,0,0,0-1.038.145,13.837,13.837,0,0,1-1.748-7.083q0-.779.068-1.532h22.8a1.189,1.189,0,1,0,0-2.379H2206.4l2.8-3.029h45.588a14.856,14.856,0,0,0-1.146,3.029H2238a1.189,1.189,0,0,0,0,2.379h15.224c-.047.484-.074.972-.076,1.464a1.189,1.189,0,0,0,1.185,1.195h0a1.189,1.189,0,0,0,1.189-1.184,12.728,12.728,0,0,1,2-6.883h.887a3.822,3.822,0,1,0,0-7.645H2243.54l13.627-13.628a4.1,4.1,0,0,0,0-5.793l-.3-.3a4.094,4.094,0,0,0-5.583-.2l-2.106-2.106.717-.717a3.361,3.361,0,0,0,.737-3.658l-.969-2.371a2.638,2.638,0,0,0-1.914-1.588l-1.655-1.654a1.19,1.19,0,0,0-1.683,1.682l.815.815-18.752,18.752L2220.96,92.1l18.751-18.752.73.73a1.19,1.19,0,1,0,1.682-1.683l-1.571-1.571a2.634,2.634,0,0,0-1.588-1.914h0l-2.37-.969a3.363,3.363,0,0,0-3.659.736l-.717.717-2.107-2.106a4.094,4.094,0,0,0-.195-5.582l-.3-.3a4.1,4.1,0,0,0-5.793,0L2209.018,76.21a4.1,4.1,0,0,0,0,5.793l.3.3a4.1,4.1,0,0,0,5.583.195l2.106,2.107-.718.717a3.363,3.363,0,0,0-.736,3.658l.969,2.37a2.639,2.639,0,0,0,1.887,1.582l-5.966,7.116a4.064,4.064,0,0,0-5.369,5.154l-2.706,2.5a1.19,1.19,0,0,0,1.615,1.749l2.5-2.308,2.948,2.948-22.156,24a3.392,3.392,0,1,1-4.793-4.793l17.379-16.043a1.19,1.19,0,0,0-1.614-1.748l-17.379,16.043a5.771,5.771,0,0,0,3.91,10.011h.12a5.726,5.726,0,0,0,4.125-1.855l7.131-7.725a13.712,13.712,0,0,0,1.913,4.079,2.771,2.771,0,0,0,2.257,1.158h2a3.9,3.9,0,0,0-.034.5,3.827,3.827,0,0,0,3.822,3.823h50.3a3.823,3.823,0,0,0,0-7.646Zm1.443-17.7a1.445,1.445,0,0,1-1.443,1.443h-47.021l1.977-2.143a4.065,4.065,0,0,0,4.058-.743h40.985a1.445,1.445,0,0,1,1.443,1.443Zm-35.9-13.731-6.89,5.775-2.74-2.739,5.776-6.89Zm-5.191,9.909a4.086,4.086,0,0,0-.248-2.245l7.116-5.966a2.638,2.638,0,0,0,1.582,1.887l2.371.969a3.364,3.364,0,0,0,3.658-.736l.717-.717,2.106,2.106a4.1,4.1,0,0,0-.474,4.7H2218.77Zm35.2-18.54a1.705,1.705,0,0,1,1.214.5l.3.3a1.717,1.717,0,0,1,0,2.427l-14.808,14.808a1.717,1.717,0,0,1-2.427,0l-.3-.3a1.719,1.719,0,0,1,0-2.428l14.807-14.807a1.705,1.705,0,0,1,1.214-.5Zm-4.376.3-11.848,11.848-2.1-2.1L2247.5,88.034Zm-21.561,9.284,19-19a.25.25,0,0,1,.182-.079.274.274,0,0,1,.056.006.251.251,0,0,1,.192.159l.969,2.37a.988.988,0,0,1-.216,1.075L2231.566,100.6a.988.988,0,0,1-1.074.217l-2.371-.969a.263.263,0,0,1-.086-.43Zm-15.82-18.293a1.7,1.7,0,0,1-1.214-.5l-.3-.3a1.717,1.717,0,0,1,0-2.427l14.807-14.807a1.717,1.717,0,0,1,2.427,0l.3.3a1.717,1.717,0,0,1,0,2.427l-14.808,14.807a1.705,1.705,0,0,1-1.214.5Zm4.376-.3,11.848-11.848,2.1,2.1-11.847,11.848Zm1.381,6.18,16.647-16.647a.988.988,0,0,1,1.074-.216l2.371.969a.264.264,0,0,1,.087.43l-19,19a.263.263,0,0,1-.43-.087l-.969-2.371a.987.987,0,0,1,.216-1.074Zm-8.766,16.8a1.683,1.683,0,0,1,2.873-1.189l3.881,3.88a1.683,1.683,0,1,1-2.381,2.381l-3.88-3.881a1.669,1.669,0,0,1-.493-1.19Zm-7.2,26.876a11.987,11.987,0,0,1-1.906-4.808l2.852-3.089c0,.059,0,.117,0,.177a16.515,16.515,0,0,0,1.845,7.879h-2.473A.383.383,0,0,1,2202.006,130.677Zm56.407,4.484h-50.3a1.443,1.443,0,0,1,0-2.886h50.3a1.443,1.443,0,0,1,0,2.886Z" transform="translate(-2181.01 -60.203)" fill="#00223d"/>
              <path id="Trazado_28429" data-name="Trazado 28429" d="M2218.171,132.2a1.19,1.19,0,1,0,0,2.38h27.719a1.19,1.19,0,0,0,0-2.38Z" transform="translate(-2184.883 -67.954)" fill="#00223d"/>
            </g>
          </g>
        </g>
      </g>
    </g>
    <g id="Grupo_17345" data-name="Grupo 17345" transform="translate(-265 5)">
      <g id="Grupo_17343" data-name="Grupo 17343" transform="translate(0 560)">
        <g id="Grupo_17342" data-name="Grupo 17342">
          <g id="Grupo_17335" data-name="Grupo 17335" transform="translate(0 1019)">
            <rect id="Rectángulo_4354" data-name="Rectángulo 4354" width="113" height="113" transform="translate(378 5412)" fill="none"/>
          </g>
        </g>
      </g>
    </g>
  </g>
</svg>
