<svg xmlns="http://www.w3.org/2000/svg" width="84.503" height="84.496" viewBox="0 0 84.503 84.496">
  <g id="Grupo_16565" data-name="Grupo 16565" transform="translate(-360.805 -932.757)">
    <g id="Grupo_16473" data-name="Grupo 16473" transform="translate(362.455 941.006)">
      <circle id="Elipse_914" data-name="Elipse 914" cx="37.298" cy="37.298" r="37.298" fill="#ff7b79"/>
    </g>
    <g id="Grupo_16474" data-name="Grupo 16474" transform="translate(373.018 951.568)">
      <circle id="Elipse_915" data-name="Elipse 915" cx="26.736" cy="26.736" r="26.736" fill="#fff"/>
    </g>
    <g id="Grupo_16475" data-name="Grupo 16475" transform="translate(383.58 962.13)">
      <circle id="Elipse_916" data-name="Elipse 916" cx="16.174" cy="16.174" r="16.174" fill="#ff7b79"/>
    </g>
    <g id="Grupo_16476" data-name="Grupo 16476" transform="translate(394.142 972.693)">
      <circle id="Elipse_917" data-name="Elipse 917" cx="5.611" cy="5.611" r="5.611" fill="#fff"/>
    </g>
    <g id="Grupo_16483" data-name="Grupo 16483" transform="translate(403.742 934.404)">
      <g id="Grupo_16478" data-name="Grupo 16478" transform="translate(5.912 12.702)">
        <g id="Grupo_16477" data-name="Grupo 16477">
          <path id="Trazado_25596" data-name="Trazado 25596" d="M411.937,963.414l15.637-15.637,5.663,5.663L417.6,969.077Z" transform="translate(-411.937 -947.777)" fill="#66e0f7"/>
        </g>
      </g>
      <g id="Grupo_16479" data-name="Grupo 16479" transform="translate(0 28.336)">
        <path id="Trazado_25597" data-name="Trazado 25597" d="M411.412,975.725l-5.654-.01-.01-5.655,5.919-5.919,5.664,5.664Z" transform="translate(-405.749 -964.142)" fill="#c193dc"/>
      </g>
      <g id="Grupo_16482" data-name="Grupo 16482" transform="translate(20.32)">
        <g id="Grupo_16480" data-name="Grupo 16480" transform="translate(2.3 6.609)">
          <path id="Trazado_25598" data-name="Trazado 25598" d="M440.342,954.39l-10.915-2.3,9.322-9.321a4.673,4.673,0,0,1,6.608,6.608Z" transform="translate(-429.427 -941.398)" fill="#ccf5fc"/>
        </g>
        <g id="Grupo_16481" data-name="Grupo 16481">
          <path id="Trazado_25599" data-name="Trazado 25599" d="M427.019,940.865l2.3,10.915,9.322-9.322a4.672,4.672,0,0,0-6.608-6.607Z" transform="translate(-427.019 -934.481)" fill="#ccf5fc"/>
        </g>
      </g>
    </g>
    <g id="Grupo_16484" data-name="Grupo 16484" transform="translate(360.805 932.757)">
      <path id="Trazado_25600" data-name="Trazado 25600" d="M436.937,955.618a1.652,1.652,0,0,0,1.508-.448l5.015-5.015a6.323,6.323,0,0,0-4.471-10.794c-.1,0-.195,0-.291.007,0-.1.007-.194.007-.291a6.323,6.323,0,0,0-10.794-4.471l-5.015,5.015a1.648,1.648,0,0,0-.448,1.507l1.13,5.362-.568.569a38.939,38.939,0,1,0,8,8l.57-.569Zm-21.612,10.451-3.33-3.329,12.395-12.394.358,1.7a1.65,1.65,0,0,0,1.274,1.274l1.7.357ZM414.277,978.3a14.521,14.521,0,1,1-9.058-13.456l-2.645,2.645a1.646,1.646,0,0,0-.483,1.169l0,2.769a7.272,7.272,0,1,0,4.532,4.538l2.774,0h0a1.65,1.65,0,0,0,1.167-.483l2.642-2.642a14.547,14.547,0,0,1,1.062,5.455Zm-5.554-5.632-3.325-.006-.006-3.324,4.268-4.268,3.329,3.33Zm-5.008,5.632a3.964,3.964,0,1,1-2.577-3.711l-1.9,1.9a1.651,1.651,0,0,0,2.335,2.334l1.9-1.9A3.931,3.931,0,0,1,403.715,978.3Zm35.273-35.641a3.022,3.022,0,0,1,2.137,5.159l-4.382,4.382-7.06-1.488,7.167-7.167h0a3,3,0,0,1,2.137-.885Zm-8.744-5.723a3.022,3.022,0,1,1,4.273,4.274h0l-7.167,7.167-1.488-7.059ZM435.4,978.3a35.648,35.648,0,1,1-35.647-35.647,35.22,35.22,0,0,1,20.894,6.763l-5.218,5.217a28.393,28.393,0,0,0-40.5,37.444,1.651,1.651,0,0,0,2.885-1.6,25.092,25.092,0,0,1,35.229-33.453l-5.33,5.331a17.813,17.813,0,1,0,8,8l5.331-5.331a25.093,25.093,0,0,1-33.462,35.219,1.65,1.65,0,0,0-1.6,2.884,28.391,28.391,0,0,0,37.454-40.49l5.216-5.216A35.755,35.755,0,0,1,435.4,978.3Z" transform="translate(-360.805 -932.757)" fill="#00223d"/>
      <path id="Trazado_25601" data-name="Trazado 25601" d="M381.709,998.495a1.652,1.652,0,1,0,1.166.483A1.66,1.66,0,0,0,381.709,998.495Z" transform="translate(-361.665 -935.693)" fill="#00223d"/>
    </g>
  </g>
</svg>
