<svg xmlns="http://www.w3.org/2000/svg" width="151" height="151" viewBox="0 0 151 151">
  <g id="Grupo_17132" data-name="Grupo 17132" transform="translate(1425 4686)">
    <g id="Grupo_17128" data-name="Grupo 17128" transform="translate(-2065 -2268)">
      <rect id="Rect치ngulo_4278" data-name="Rect치ngulo 4278" width="151" height="151" transform="translate(640 -2418)" fill="none"/>
      <rect id="Rect치ngulo_4284" data-name="Rect치ngulo 4284" width="135" height="135" transform="translate(648 -2410)" fill="none"/>
    </g>
    <g id="Grupo_17125" data-name="Grupo 17125" transform="translate(-2752.13 -5603.26)">
      <path id="Trazado_25863" data-name="Trazado 25863" d="M1377.7,946.6h-21.838l1.228-9.819a8.735,8.735,0,0,1,8.667-7.652h3.208a8.735,8.735,0,0,1,8.735,8.735h0Z" transform="translate(3.111 0.311)" fill="#fcb442"/>
      <path id="Trazado_25864" data-name="Trazado 25864" d="M1433.89,946.6h-21.839v-8.736a8.735,8.735,0,0,1,8.736-8.735h3.208a8.735,8.735,0,0,1,8.667,7.652Z" transform="translate(12.441 0.311)" fill="#fcb442"/>
      <path id="Trazado_25865" data-name="Trazado 25865" d="M1369.583,940.37h-2.37a17.471,17.471,0,0,0-17.287,14.942l-10.917,74.6h48.045V957.841A17.471,17.471,0,0,0,1369.583,940.37Z" transform="translate(0.312 2.177)" fill="#ce3536"/>
      <path id="Trazado_25866" data-name="Trazado 25866" d="M1387.054,977.155v48.089h-48.045l7.023-48.006C1360.678,965.381,1374.366,965.723,1387.054,977.155Z" transform="translate(0.312 6.842)" fill="#e74444"/>
      <path id="Trazado_25867" data-name="Trazado 25867" d="M1423.9,940.37h2.37a17.471,17.471,0,0,1,17.287,14.942l10.917,74.6h-48.045V957.841A17.471,17.471,0,0,1,1423.9,940.37Z" transform="translate(11.508 2.177)" fill="#ce3536"/>
      <path id="Trazado_25868" data-name="Trazado 25868" d="M1454.478,1025.244h-48.045V977.625c14.6-12.069,28.264-12.03,40.933-.969Z" transform="translate(11.508 6.842)" fill="#e74444"/>
      <circle id="Elipse_934" data-name="Elipse 934" cx="24.023" cy="24.023" r="24.023" transform="translate(1339.321 1008.063)" fill="#fcb442"/>
      <circle id="Elipse_935" data-name="Elipse 935" cx="15.287" cy="15.287" r="15.287" transform="translate(1348.056 1016.799)" fill="#fae8d8"/>
      <circle id="Elipse_936" data-name="Elipse 936" cx="24.023" cy="24.023" r="24.023" transform="translate(1417.94 1008.063)" fill="#fcb442"/>
      <circle id="Elipse_937" data-name="Elipse 937" cx="15.287" cy="15.287" r="15.287" transform="translate(1426.675 1016.799)" fill="#fae8d8"/>
      <path id="Trazado_25869" data-name="Trazado 25869" d="M1380.212,990.938h30.575v30.574h-30.575Z" transform="translate(7.154 10.574)" fill="#fcb442"/>
      <circle id="Elipse_938" data-name="Elipse 938" cx="6.552" cy="6.552" r="6.552" transform="translate(1396.101 1010.247)" fill="#ce3536"/>
      <path id="Trazado_25870" data-name="Trazado 25870" d="M1380.212,968.463h30.575V994.67h-30.575Z" transform="translate(7.154 6.842)" fill="#fde575"/>
      <path id="Trazado_25871" data-name="Trazado 25871" d="M1457.229,957.171a19.58,19.58,0,0,0-9.152-13.89l-.808-6.456a10.934,10.934,0,0,0-10.834-9.565h-3.208a10.932,10.932,0,0,0-10.92,10.919v7.2a19.6,19.6,0,0,0-6.551,14.634v13.1H1389.55v-13.1A19.564,19.564,0,0,0,1383,945.366v-7.187a10.931,10.931,0,0,0-10.919-10.919h-3.208a10.934,10.934,0,0,0-10.833,9.564l-.808,6.449a19.757,19.757,0,0,0-9.154,13.9l-9.886,67.561a26.206,26.206,0,1,0,51.268,9.537h26.39a26.207,26.207,0,1,0,51.27-9.537Zm-67.68,46.524h26.207V1029.9H1389.55Zm30.574-18.188c13.055-10.413,25.091-10.692,36.749-.851l4.386,29.718a26.175,26.175,0,0,0-41.135,3.244Zm6.552-47.329a6.559,6.559,0,0,1,6.552-6.551h3.208a6.56,6.56,0,0,1,6.5,5.738l.479,3.827a19.614,19.614,0,0,0-5.633-.83h-2.369a19.514,19.514,0,0,0-8.736,2.056Zm8.736,6.552h2.369a15.372,15.372,0,0,1,15.127,13.073l3.055,20.695a29.015,29.015,0,0,0-16.868-5.374c-6.2.1-12.569,2.432-18.971,6.926V960.018a15.3,15.3,0,0,1,15.288-15.287Zm-19.655,32.758v21.839H1389.55V977.489Zm-46.886-45.861h3.208a6.559,6.559,0,0,1,6.552,6.551v4.234a19.726,19.726,0,0,0-8.736-2.05h-2.369a19.735,19.735,0,0,0-5.633.827l.478-3.823A6.559,6.559,0,0,1,1368.871,931.628Zm-8.576,14.917a15.334,15.334,0,0,1,7.231-1.814h2.369a15.281,15.281,0,0,1,15.287,15.275v19.4c-5.674-4.144-11.572-6.257-17.582-6.285h-.124c-5.968,0-12.086,2.058-18.244,6.127L1352.4,957.8A15.36,15.36,0,0,1,1360.295,946.545Zm-11.953,38.734c13.087-10.3,25.153-10.393,36.84-.3v32.634a26.177,26.177,0,0,0-41.136-3.244Zm15,68.645a21.838,21.838,0,1,1,21.839-21.839A21.839,21.839,0,0,1,1363.343,1053.924Zm78.62,0a21.838,21.838,0,1,1,21.839-21.839A21.839,21.839,0,0,1,1441.962,1053.924Z" fill="#00223d"/>
      <path id="Trazado_25872" data-name="Trazado 25872" d="M1362.1,1002.175a17.471,17.471,0,1,0,17.471,17.471A17.471,17.471,0,0,0,1362.1,1002.175Zm0,30.575a13.1,13.1,0,1,1,13.1-13.1A13.1,13.1,0,0,1,1362.1,1032.75Z" transform="translate(1.245 12.439)" fill="#00223d"/>
      <path id="Trazado_25873" data-name="Trazado 25873" d="M1429.522,1002.175a17.471,17.471,0,1,0,17.471,17.471A17.471,17.471,0,0,0,1429.522,1002.175Zm0,30.575a13.1,13.1,0,1,1,13.1-13.1A13.1,13.1,0,0,1,1429.522,1032.75Z" transform="translate(12.441 12.439)" fill="#00223d"/>
      <path id="Trazado_25874" data-name="Trazado 25874" d="M1394.566,996.557a8.735,8.735,0,1,0,8.736,8.735A8.735,8.735,0,0,0,1394.566,996.557Zm0,13.1a4.368,4.368,0,1,1,4.368-4.368A4.368,4.368,0,0,1,1394.566,1009.66Z" transform="translate(8.087 11.507)" fill="#00223d"/>
    </g>
  </g>
</svg>
