<svg xmlns="http://www.w3.org/2000/svg" width="151" height="151" viewBox="0 0 151 151">
  <g id="Grupo_17131" data-name="Grupo 17131" transform="translate(1661 4686)">
    <g id="Grupo_17127" data-name="Grupo 17127" transform="translate(-2301 -2268)">
      <rect id="Rect치ngulo_4278" data-name="Rect치ngulo 4278" width="151" height="151" transform="translate(640 -2418)" fill="none"/>
      <rect id="Rect치ngulo_4284" data-name="Rect치ngulo 4284" width="135" height="135" transform="translate(648 -2410)" fill="none"/>
    </g>
    <g id="Grupo_17124" data-name="Grupo 17124" transform="translate(-2826.951 -5480.998)">
      <g id="Grupo_16598" data-name="Grupo 16598" transform="translate(1178.045 807.839)">
        <g id="Grupo_16579" data-name="Grupo 16579" transform="translate(0)">
          <path id="Trazado_25843" data-name="Trazado 25843" d="M1226.89,850.343h-46.5a2.114,2.114,0,0,1-2.114-2.113V810.187a2.115,2.115,0,0,1,2.114-2.114h46.5a2.115,2.115,0,0,1,2.114,2.114V848.23A2.114,2.114,0,0,1,1226.89,850.343Z" transform="translate(-1178.279 -808.073)" fill="#e6e9ed"/>
        </g>
        <g id="Grupo_16580" data-name="Grupo 16580" transform="translate(12.681 25.363)">
          <path id="Trazado_25844" data-name="Trazado 25844" d="M1192.365,836.245h8.454V844.7h-8.454Z" transform="translate(-1192.365 -836.245)" fill="#b4dd7f"/>
        </g>
        <g id="Grupo_16581" data-name="Grupo 16581" transform="translate(21.135 16.908)">
          <path id="Trazado_25845" data-name="Trazado 25845" d="M1210.21,826.854v16.908h-8.455V826.854Z" transform="translate(-1201.755 -826.854)" fill="#b4dd7f"/>
        </g>
        <g id="Grupo_16582" data-name="Grupo 16582" transform="translate(29.59 8.455)">
          <path id="Trazado_25846" data-name="Trazado 25846" d="M1213.851,837.8l-2.3,5.072-.127-.042h-.275V817.464h8.454V833a14.645,14.645,0,0,0-5.748,4.8Z" transform="translate(-1211.146 -817.464)" fill="#b4dd7f"/>
        </g>
        <g id="Grupo_16583" data-name="Grupo 16583" transform="translate(88.768 0)">
          <circle id="Elipse_931" data-name="Elipse 931" cx="19.022" cy="19.022" r="19.022" fill="#69d6f4"/>
        </g>
        <g id="Grupo_16584" data-name="Grupo 16584" transform="translate(29.59 14.795)">
          <path id="Trazado_25847" data-name="Trazado 25847" d="M1278.672,844.479a6.084,6.084,0,0,1,.106,1.248,39.736,39.736,0,0,1-1.522,9.511c-.782,2.832-1.543,4.924-1.543,4.924l-.55,1.606-.021.021a8.338,8.338,0,0,0-6.805-3.466H1266.1v-3.572a9.087,9.087,0,0,0-9.067-9.109c-15.091,0-18.113,9.638-33.2,12.681h-2.113a8.444,8.444,0,0,0-7.017,3.741l-.486-1.881-2.219-8.2-.4-1.458a14.5,14.5,0,0,1-.444-3.572,13.718,13.718,0,0,1,.4-3.381l2.3-5.072a14.645,14.645,0,0,1,5.748-4.8,11.158,11.158,0,0,1,1.374-.592l11.307-4.058,8.919-3.192a23.136,23.136,0,0,1,7.756-1.352,22.88,22.88,0,0,1,10.166,2.367,22.4,22.4,0,0,1,8.031,6.594l2.409,3.171a9.392,9.392,0,0,1,2.685.38c.147.064.317.106.464.169a9.1,9.1,0,0,1,5.96,7.292Z" transform="translate(-1211.146 -824.507)" fill="#b27946"/>
        </g>
        <g id="Grupo_16585" data-name="Grupo 16585" transform="translate(84.541 67.633)">
          <path id="Trazado_25848" data-name="Trazado 25848" d="M1294.016,925.467a31.693,31.693,0,0,0-18.451-15.641c-.8-.253-1.627-.486-2.451-.676l-.4-.085a21.841,21.841,0,0,1-.529-4.734,21.135,21.135,0,1,1,21.833,21.135Z" transform="translate(-1272.183 -883.197)" fill="#fcd770"/>
        </g>
        <g id="Grupo_16586" data-name="Grupo 16586" transform="translate(16.908 94.263)">
          <path id="Trazado_25849" data-name="Trazado 25849" d="M1236.435,938.054l5.009,7.27H1197.06v-2.367a31.732,31.732,0,0,1,21.98-30.181l8.391,12.175Z" transform="translate(-1197.06 -912.776)" fill="#838f9b"/>
        </g>
        <g id="Grupo_16587" data-name="Grupo 16587" transform="translate(65.519 94.263)">
          <path id="Trazado_25850" data-name="Trazado 25850" d="M1265.067,924.951l8.391-12.175a31.707,31.707,0,0,1,21.98,30.181v2.367h-44.383l5.009-7.27Z" transform="translate(-1251.055 -912.776)" fill="#838f9b"/>
        </g>
        <g id="Grupo_16588" data-name="Grupo 16588" transform="translate(54.952 97.222)">
          <path id="Trazado_25851" data-name="Trazado 25851" d="M1256.225,920.882,1252,928.745h-8.454l-4.227-7.862,8.454-4.819Z" transform="translate(-1239.317 -916.063)" fill="#fcd770"/>
        </g>
        <g id="Grupo_16589" data-name="Grupo 16589" transform="translate(56.283 109.904)">
          <path id="Trazado_25852" data-name="Trazado 25852" d="M1252.145,930.149l2.9,9.638-5.009,7.27h-4.227l-5.009-7.27,2.9-9.638Z" transform="translate(-1240.796 -930.149)" fill="#fcd770"/>
        </g>
        <g id="Grupo_16590" data-name="Grupo 16590" transform="translate(47.28 102.041)">
          <path id="Trazado_25853" data-name="Trazado 25853" d="M1238.467,921.416l4.227,7.862-2.9,9.638-9-13.1Z" transform="translate(-1230.795 -921.416)" fill="#ccd1d9"/>
        </g>
        <g id="Grupo_16591" data-name="Grupo 16591" transform="translate(67.632 102.041)">
          <path id="Trazado_25854" data-name="Trazado 25854" d="M1265.3,925.812l-9,13.1-2.9-9.638,4.228-7.862Z" transform="translate(-1253.402 -921.416)" fill="#ccd1d9"/>
        </g>
        <g id="Grupo_16592" data-name="Grupo 16592" transform="translate(63.406 90.881)">
          <path id="Trazado_25855" data-name="Trazado 25855" d="M1270.371,911.641l.4.085c.825.19,1.648.423,2.451.676l-8.391,12.175-7.671-4.4-8.455-4.819,10.568-6.341Z" transform="translate(-1248.707 -909.02)" fill="#e6e9ed"/>
        </g>
        <g id="Grupo_16593" data-name="Grupo 16593" transform="translate(38.889 90.881)">
          <path id="Trazado_25856" data-name="Trazado 25856" d="M1245.992,915.361l-8.454,4.819-7.672,4.4-8.391-12.175c.8-.253,1.628-.486,2.451-.676l11.5-2.705Z" transform="translate(-1221.475 -909.02)" fill="#e6e9ed"/>
        </g>
        <g id="Grupo_16594" data-name="Grupo 16594" transform="translate(52.838 82.575)">
          <path id="Trazado_25857" data-name="Trazado 25857" d="M1256.435,899.794l1.669,8.306-10.567,6.341-10.568-6.341,1.67-8.306a21.126,21.126,0,0,0,17.8,0Z" transform="translate(-1236.969 -899.794)" fill="#f0d0b4"/>
        </g>
        <g id="Grupo_16595" data-name="Grupo 16595" transform="translate(84.435 48.611)">
          <path id="Trazado_25858" data-name="Trazado 25858" d="M1274.412,862.068a8.5,8.5,0,0,1,8.454,8.455,8.444,8.444,0,0,1-8.454,8.454h-2.241l-.105-.021c.063-.74.105-1.48.105-2.219V862.068h2.241Z" transform="translate(-1272.066 -862.068)" fill="#f0d0b4"/>
        </g>
        <g id="Grupo_16596" data-name="Grupo 16596" transform="translate(31.703 48.611)">
          <path id="Trazado_25859" data-name="Trazado 25859" d="M1224.061,862.068v14.668c0,.761.042,1.5.106,2.24h-2.219a8.454,8.454,0,0,1,0-16.908h2.113Z" transform="translate(-1213.493 -862.068)" fill="#f0d0b4"/>
        </g>
        <g id="Grupo_16597" data-name="Grupo 16597" transform="translate(42.27 35.93)">
          <path id="Trazado_25860" data-name="Trazado 25860" d="M1225.337,877.572c-.064-.74-.106-1.479-.106-2.24V860.664c15.091-3.043,18.113-12.681,33.2-12.681a9.087,9.087,0,0,1,9.067,9.109v18.24c0,.739-.042,1.479-.105,2.219a21.134,21.134,0,0,1-42.059.021Z" transform="translate(-1225.231 -847.983)" fill="#f0d0b4"/>
        </g>
      </g>
      <g id="Grupo_16599" data-name="Grupo 16599" transform="translate(1175.932 805.726)">
        <circle id="Elipse_932" data-name="Elipse 932" cx="2.114" cy="2.114" r="2.114" transform="translate(73.973 57.065)" fill="#00223d"/>
        <circle id="Elipse_933" data-name="Elipse 933" cx="2.114" cy="2.114" r="2.114" transform="translate(52.838 57.065)" fill="#00223d"/>
        <path id="Trazado_25861" data-name="Trazado 25861" d="M1258.263,882.44l.32-.64-3.779-1.89-.319.64a7.7,7.7,0,0,1-13.772,0l-.323-.64-3.781,1.891.319.64a11.925,11.925,0,0,0,21.336,0Z" transform="translate(-1181.982 -813.123)" fill="#00223d"/>
        <path id="Trazado_25862" data-name="Trazado 25862" d="M1283.721,873.358a23.276,23.276,0,0,0-23.248,23.249c0,.655.055,1.305.11,1.956l-6.758-1.589-1.086-5.438a23.427,23.427,0,0,0,11.542-16.065h.543a10.579,10.579,0,0,0,10.568-10.568,10.444,10.444,0,0,0-1.435-5.221l.222-.665a59.723,59.723,0,0,0,3.085-12.876,21.407,21.407,0,1,0-12.32-16.261,25.017,25.017,0,0,0-27.97-7.888l-6.091,2.186V809.953a4.231,4.231,0,0,0-4.227-4.227h-46.5a4.231,4.231,0,0,0-4.227,4.227V848a4.231,4.231,0,0,0,4.227,4.227h26.7l1.8,6.6.276,1.106a10.449,10.449,0,0,0-1.3,4.971,10.579,10.579,0,0,0,10.568,10.568h.42a23.428,23.428,0,0,0,11.542,16.065l-1.087,5.438-10.166,2.393a33.685,33.685,0,0,0-26.072,32.915v4.481h97.222v-4.481a33.872,33.872,0,0,0-2.509-12.774,23.233,23.233,0,0,0-3.832-46.151Zm-21.19,30.008-5.585,8.116-11.314-6.465,6.738-4.043Zm-21.08,4.159.025-.014,5.586,3.192-2.648,4.926h-5.927l-2.649-4.926,5.586-3.192Zm-9.282,5.276,2.779,5.174-1.374,4.578-5.215-7.575Zm4.481,14.216,2.147-7.161h5.309l2.147,7.161-3.8,5.521h-2Zm12.679-4.466-1.374-4.578,2.779-5.173,3.806,2.174Zm15.494-51.306h-.129c0-.044.006-.086.006-.132V858.564h.122a6.34,6.34,0,1,1,0,12.681Zm14.672-44.383a20.687,20.687,0,0,1,1.048-6.341h10.589a19.732,19.732,0,0,1,0,12.681h-10.588A20.718,20.718,0,0,1,1279.494,826.861Zm2.839-10.568a32.056,32.056,0,0,1,3.507-5.286,31.705,31.705,0,0,1,3.51,5.286Zm7,21.135a32.166,32.166,0,0,1-3.507,5.286,31.548,31.548,0,0,1-3.51-5.286Zm-8.6,5.548a16.808,16.808,0,0,1-3.7-1.727,11.034,11.034,0,0,0-1.757-3.819h2.348a34.256,34.256,0,0,0,3.111,5.546Zm10.2,0a34.213,34.213,0,0,0,3.115-5.552h4.967a16.958,16.958,0,0,1-8.082,5.552ZM1301.5,833.2h-5.95a23.962,23.962,0,0,0,0-12.681h5.95a16.767,16.767,0,0,1,0,12.681Zm-2.486-16.908h-4.967a33.841,33.841,0,0,0-3.115-5.552,16.952,16.952,0,0,1,8.082,5.552Zm-18.273-5.552a34.039,34.039,0,0,0-3.116,5.552h-4.966a16.952,16.952,0,0,1,8.082-5.552Zm-10.568,9.779h5.949a23.982,23.982,0,0,0,0,12.681H1270.2a16.563,16.563,0,0,1-.033-12.681Zm-31.77,5.453a20.832,20.832,0,0,1,23.557,6.909l3.037,4h1.048a7.055,7.055,0,0,1,7.109,6.983c0,4.183-1.611,9.667-2.458,12.266a10.485,10.485,0,0,0-5.874-1.792h-.122v-1.455a11.212,11.212,0,0,0-11.173-11.227c-8.887,0-14.05,3.223-19.044,6.343-3.967,2.475-8.074,5.03-14.407,6.339H1218.2a10.515,10.515,0,0,0-5.922,1.821l-2.15-8.027a12.41,12.41,0,0,1-.383-3.052,12.667,12.667,0,0,1,8.429-11.852Zm-41.334,13.568h-4.227v-4.227h4.227Zm16.908-8.973a16.955,16.955,0,0,0-4.228,3.487V818.406h4.228Zm-8.455,8.973h-4.227V826.861h4.227Zm-25.362-29.589h46.5v15.742l-8.454,3.033V814.18h-12.682v8.455h-8.453v8.454h-8.455V843.77h17.012c-.033.438-.1.866-.1,1.31a16.849,16.849,0,0,0,.29,2.917h-25.652Zm38.043,61.292a6.34,6.34,0,1,1,0-12.681v12.55c0,.044.006.086.006.133h-.006Zm4.227-.13v-12.97c6.25-1.539,10.5-4.194,14.291-6.559,4.9-3.06,9.132-5.7,16.806-5.7a6.982,6.982,0,0,1,6.946,7v18.229a19.022,19.022,0,1,1-38.044,0Zm19.021,23.38a23.053,23.053,0,0,0,7.325-1.206l.877,4.387-8.2,4.923-8.2-4.923.878-4.387A23.053,23.053,0,0,0,1241.451,894.494Zm-10.918,6.48,6.738,4.043-11.314,6.465-5.586-8.116Zm-33.465,31.309a29.441,29.441,0,0,1,19.057-27.628l19.19,27.882h-38.248Zm88.768.254h-38.249l19.193-27.882a29.442,29.442,0,0,1,19.056,27.628Zm-.2-17.02a33.27,33.27,0,0,0-2.752-4.115h2.953v-4.227h4.227v-6.341a6.348,6.348,0,0,0-6.341-6.341,2.116,2.116,0,0,1-2.113-2.114v-2.113h2.113a2.116,2.116,0,0,1,2.114,2.113v2.114h4.227V892.38a6.331,6.331,0,0,0-4.227-5.951v-4.617h-4.227v4.228h-4.228v6.34a6.349,6.349,0,0,0,6.341,6.341,2.116,2.116,0,0,1,2.114,2.114v2.113h-2.114a2.115,2.115,0,0,1-2.113-2.113V898.72h-4.228v2.114a6.333,6.333,0,0,0,4.228,5.952V909.9a33.711,33.711,0,0,0-16.638-10.261,19.009,19.009,0,1,1,20.664,15.875Z" transform="translate(-1175.932 -805.726)" fill="#00223d"/>
      </g>
    </g>
  </g>
</svg>
