<svg xmlns="http://www.w3.org/2000/svg" width="113" height="113" viewBox="0 0 113 113">
  <g id="Grupo_17849" data-name="Grupo 17849" transform="translate(2400 5699)">
    <circle id="Elipse_1097" data-name="Elipse 1097" cx="51" cy="51" r="51" transform="translate(-2394 -5693)" fill="#f3ff7e"/>
    <g id="Grupo_17848" data-name="Grupo 17848" transform="translate(-3035 -6717)">
      <rect id="Rectángulo_4340" data-name="Rectángulo 4340" width="113" height="113" transform="translate(635 1018)" fill="none"/>
      <g id="Grupo_17223" data-name="Grupo 17223" transform="translate(-34.717 -364.659)">
        <g id="Grupo_17221" data-name="Grupo 17221" transform="translate(683.137 1396.078)">
          <g id="Grupo_17208" data-name="Grupo 17208">
            <path id="Trazado_27144" data-name="Trazado 27144" d="M706.491,1408.078H695.137a11.351,11.351,0,0,1-11.355-11.355h11.355A11.352,11.352,0,0,1,706.491,1408.078Z" transform="translate(-683.782 -1396.723)" fill="#97d729"/>
          </g>
          <g id="Grupo_17209" data-name="Grupo 17209" transform="translate(0 19.871)">
            <path id="Trazado_27145" data-name="Trazado 27145" d="M706.491,1436.981H695.137a11.351,11.351,0,0,1-11.355-11.355h11.355A11.352,11.352,0,0,1,706.491,1436.981Z" transform="translate(-683.782 -1425.626)" fill="#97d729"/>
          </g>
          <g id="Grupo_17210" data-name="Grupo 17210" transform="translate(22.71 11.355)">
            <path id="Trazado_27146" data-name="Trazado 27146" d="M728.169,1413.239h11.355a11.352,11.352,0,0,1-11.355,11.355H716.814A11.352,11.352,0,0,1,728.169,1413.239Z" transform="translate(-716.814 -1413.239)" fill="#97d729"/>
          </g>
          <g id="Grupo_17211" data-name="Grupo 17211" transform="translate(22.71 31.226)">
            <path id="Trazado_27147" data-name="Trazado 27147" d="M728.169,1442.143h11.355a11.352,11.352,0,0,1-11.355,11.355H716.814A11.352,11.352,0,0,1,728.169,1442.143Z" transform="translate(-716.814 -1442.143)" fill="#97d729"/>
          </g>
          <g id="Grupo_17212" data-name="Grupo 17212" transform="translate(8.516 59.613)">
            <path id="Trazado_27148" data-name="Trazado 27148" d="M721.717,1483.433a2.847,2.847,0,0,1,2.839,2.839v2.839a2.847,2.847,0,0,1-2.839,2.839H699.008a2.847,2.847,0,0,1-2.839-2.839v-2.839a2.847,2.847,0,0,1,2.839-2.839h22.709Z" transform="translate(-696.169 -1483.433)" fill="#ffc729"/>
          </g>
          <g id="Grupo_17213" data-name="Grupo 17213" transform="translate(8.516 76.645)">
            <path id="Trazado_27149" data-name="Trazado 27149" d="M721.717,1508.207a2.847,2.847,0,0,1,2.839,2.839v2.839a2.847,2.847,0,0,1-2.839,2.839H699.008a2.847,2.847,0,0,1-2.839-2.839v-2.839a2.847,2.847,0,0,1,2.839-2.839h22.709Z" transform="translate(-696.169 -1508.207)" fill="#ffc729"/>
          </g>
          <g id="Grupo_17214" data-name="Grupo 17214" transform="translate(36.903 68.129)">
            <path id="Trazado_27150" data-name="Trazado 27150" d="M743.136,1504.336H740.3a2.847,2.847,0,0,1-2.839-2.839v-2.839a2.847,2.847,0,0,1,2.839-2.839h17.316a14.288,14.288,0,0,0-.284,2.839,14.032,14.032,0,0,0,1.192,5.677H743.136Z" transform="translate(-737.459 -1495.82)" fill="#ffc729"/>
          </g>
          <g id="Grupo_17215" data-name="Grupo 17215" transform="translate(8.516 51.097)">
            <path id="Trazado_27151" data-name="Trazado 27151" d="M718.878,1471.046h2.839a2.847,2.847,0,0,1,2.839,2.839v2.839a2.847,2.847,0,0,1-2.839,2.839H699.008a2.847,2.847,0,0,1-2.839-2.839v-2.839a2.847,2.847,0,0,1,2.839-2.839h19.871Z" transform="translate(-696.169 -1471.046)" fill="#fcd770"/>
          </g>
          <g id="Grupo_17216" data-name="Grupo 17216" transform="translate(8.516 68.129)">
            <path id="Trazado_27152" data-name="Trazado 27152" d="M721.717,1495.82a2.847,2.847,0,0,1,2.839,2.839v2.839a2.847,2.847,0,0,1-2.839,2.839H699.008a2.847,2.847,0,0,1-2.839-2.839v-2.839a2.847,2.847,0,0,1,2.839-2.839h22.709Z" transform="translate(-696.169 -1495.82)" fill="#fcd770"/>
          </g>
          <g id="Grupo_17217" data-name="Grupo 17217" transform="translate(36.903 76.645)">
            <path id="Trazado_27153" data-name="Trazado 27153" d="M763.007,1516.723H740.3a2.847,2.847,0,0,1-2.839-2.839v-2.839a2.847,2.847,0,0,1,2.839-2.839h18.224a14.174,14.174,0,0,0,6.913,7.14A2.846,2.846,0,0,1,763.007,1516.723Z" transform="translate(-737.459 -1508.207)" fill="#fcd770"/>
          </g>
          <g id="Grupo_17218" data-name="Grupo 17218" transform="translate(56.774 56.774)">
            <path id="Trazado_27154" data-name="Trazado 27154" d="M774.467,1506.315a14.186,14.186,0,1,1,6.089,1.376A14.174,14.174,0,0,1,774.467,1506.315Z" transform="translate(-766.362 -1479.304)" fill="#fcd770"/>
          </g>
          <g id="Grupo_17219" data-name="Grupo 17219" transform="translate(56.774 28.387)">
            <circle id="Elipse_1017" data-name="Elipse 1017" cx="14.194" cy="14.194" r="14.194" fill="#fcd770"/>
          </g>
          <g id="Grupo_17220" data-name="Grupo 17220" transform="translate(56.774 0)">
            <circle id="Elipse_1018" data-name="Elipse 1018" cx="14.194" cy="14.194" r="14.194" fill="#fcd770"/>
          </g>
        </g>
        <g id="Grupo_17222" data-name="Grupo 17222" transform="translate(681.717 1394.659)">
          <path id="Trazado_27155" data-name="Trazado 27155" d="M783.007,1505.369h2.839v-2.839a4.258,4.258,0,0,0,0-8.517h-2.839a1.419,1.419,0,1,1,0-2.839h4.258v1.42H790.1v-4.258h-4.258V1485.5h-2.839v2.839a4.258,4.258,0,0,0,0,8.517h2.839a1.419,1.419,0,0,1,0,2.839h-4.258v-1.42h-2.839v4.258h4.258Z" transform="translate(-712.039 -1423.046)" fill="#00223d"/>
          <path id="Trazado_27156" data-name="Trazado 27156" d="M785.846,1444.207h-2.839v2.839a4.258,4.258,0,1,0,0,8.516h2.839a1.419,1.419,0,0,1,0,2.839h-4.258v-1.419h-2.839v4.258h4.258v2.839h2.839v-2.839a4.258,4.258,0,0,0,0-8.516h-2.839a1.419,1.419,0,1,1,0-2.839h4.258v1.42H790.1v-4.258h-4.258Z" transform="translate(-712.039 -1410.143)" fill="#00223d"/>
          <path id="Trazado_27157" data-name="Trazado 27157" d="M769.717,1438.659a15.622,15.622,0,0,0-9.146-14.193,15.613,15.613,0,1,0-12.933,0,15.586,15.586,0,0,0,0,28.387,15.662,15.662,0,0,0-8.542,9.935H722.878a1.128,1.128,0,1,1-1.42-1.419v-2.839a4.194,4.194,0,0,1,0-5.677v-2.838a4.263,4.263,0,0,0-4.258-4.259h-9.936v-5.677H717.2a12.79,12.79,0,0,0,12.774-12.774v-1.42H717.2a12.751,12.751,0,0,0-9.936,4.764v-10.441H717.2a12.79,12.79,0,0,0,12.774-12.774v-1.419H717.2a12.751,12.751,0,0,0-9.936,4.763v-3.344a12.789,12.789,0,0,0-12.774-12.774H681.717v1.419a12.79,12.79,0,0,0,12.774,12.774h9.935v10.44a12.75,12.75,0,0,0-9.935-4.763H681.717v1.419a12.79,12.79,0,0,0,12.774,12.775h9.935v17.032h-9.935a4.263,4.263,0,0,0-4.258,4.259v2.838a4.194,4.194,0,0,1,0,5.677v2.839a4.194,4.194,0,0,1,0,5.677v2.839a4.194,4.194,0,0,1,0,5.677v2.839a4.263,4.263,0,0,0,4.258,4.258H717.2a4.192,4.192,0,0,1,5.677,0h22.709a4.186,4.186,0,0,0,2.813-1.094,15.6,15.6,0,0,0,12.169-28.712A15.623,15.623,0,0,0,769.717,1438.659Zm-52.516-9.936h9.835a9.951,9.951,0,0,1-9.835,8.516h-9.835A9.951,9.951,0,0,1,717.2,1428.723Zm0-19.871h9.835a9.951,9.951,0,0,1-9.835,8.516h-9.835A9.95,9.95,0,0,1,717.2,1408.852Zm-22.71-2.839a9.951,9.951,0,0,1-9.835-8.516h9.835a9.951,9.951,0,0,1,9.835,8.516Zm0,19.871a9.95,9.95,0,0,1-9.835-8.516h9.835a9.951,9.951,0,0,1,9.835,8.516Zm46.839-15.613a12.774,12.774,0,1,1,12.774,12.774A12.789,12.789,0,0,1,741.33,1410.271Zm-18.452,55.355H724.3v2.839h2.839v-2.839h2.839v2.839h2.839v-2.839h5.75c-.043.469-.072.94-.072,1.42a15.582,15.582,0,0,0,.6,4.258H722.878a1.421,1.421,0,0,1-1.42-1.42v-2.839A1.421,1.421,0,0,1,722.878,1465.626Zm-28.387,5.678a1.421,1.421,0,0,1-1.42-1.42v-2.839a1.421,1.421,0,0,1,1.42-1.42h1.419v2.839h2.839v-2.839h2.839v2.839h2.839v-2.839h2.839v2.839H710.1v-2.839h2.839v2.839h2.839v-2.839h1.42a1.421,1.421,0,0,1,1.419,1.42v2.839a1.421,1.421,0,0,1-1.419,1.42Zm-1.42-9.936v-2.839a1.421,1.421,0,0,1,1.42-1.42h1.419v2.839h2.839v-2.839h2.839v2.839h2.839v-2.839h2.839v2.839H710.1v-2.839h2.839v2.839h2.839v-2.839h1.42a1.421,1.421,0,0,1,1.419,1.42v2.839a1.42,1.42,0,0,1-1.419,1.419h-22.71A1.42,1.42,0,0,1,693.072,1461.369Zm0-11.355a1.421,1.421,0,0,1,1.42-1.42h1.419v2.839h2.839v-2.839h2.839v2.839h2.839v-2.839h2.839v2.839H710.1v-2.839h2.839v2.839h2.839v-2.839h1.42a1.421,1.421,0,0,1,1.419,1.42v2.838a1.421,1.421,0,0,1-1.419,1.419h-22.71a1.421,1.421,0,0,1-1.42-1.419ZM717.2,1479.82h-22.71a1.421,1.421,0,0,1-1.42-1.42v-2.839a1.421,1.421,0,0,1,1.42-1.419h1.419v2.839h2.839v-2.839h2.839v2.839h2.839v-2.839h2.839v2.839H710.1v-2.839h2.839v2.839h2.839v-2.839h1.42a1.421,1.421,0,0,1,1.419,1.419v2.839A1.421,1.421,0,0,1,717.2,1479.82Zm5.677,0a1.421,1.421,0,0,1-1.42-1.42v-2.839a1.421,1.421,0,0,1,1.42-1.419H724.3v2.839h2.839v-2.839h2.839v2.839h2.839v-2.839h2.839v2.839h2.839v-2.839h1.723a15.7,15.7,0,0,0,4.941,5.677Zm44-12.774a12.774,12.774,0,1,1-12.774-12.774A12.789,12.789,0,0,1,766.878,1467.046ZM754.1,1451.433a12.774,12.774,0,1,1,12.774-12.774A12.788,12.788,0,0,1,754.1,1451.433Z" transform="translate(-681.717 -1394.659)" fill="#00223d"/>
          <path id="Trazado_27158" data-name="Trazado 27158" d="M785.846,1402.917h-2.839v2.839a4.258,4.258,0,1,0,0,8.516h2.839a1.419,1.419,0,0,1,0,2.839h-4.258v-1.42h-2.839v4.259h4.258v2.839h2.839v-2.839a4.258,4.258,0,0,0,0-8.516h-2.839a1.419,1.419,0,1,1,0-2.839h4.258v1.419H790.1v-4.258h-4.258Z" transform="translate(-712.039 -1397.24)" fill="#00223d"/>
        </g>
      </g>
    </g>
  </g>
</svg>
