<svg xmlns="http://www.w3.org/2000/svg" width="141" height="141" viewBox="0 0 141 141">
  <g id="Grupo_17036" data-name="Grupo 17036" transform="translate(-950 -3692.5)">
    <g id="Grupo_16564" data-name="Grupo 16564" transform="translate(578.497 3063.001)">
      <circle id="Elipse_921" data-name="Elipse 921" cx="38.775" cy="38.775" r="38.775" transform="translate(404.99 629.499)" fill="#fbffce"/>
      <path id="Trazado_25765" data-name="Trazado 25765" d="M478.538,721.2H468.183v21.149h10.355a4.418,4.418,0,0,0,4.406-4.406V725.6A4.418,4.418,0,0,0,478.538,721.2Z" transform="translate(27.355 25.946)" fill="#e35c3d"/>
      <path id="Trazado_25766" data-name="Trazado 25766" d="M479.024,745.038H468.669a2.082,2.082,0,0,1-2.2-2.2V721.685a2.082,2.082,0,0,1,2.2-2.2h10.355a6.493,6.493,0,0,1,6.61,6.61v12.338A6.492,6.492,0,0,1,479.024,745.038Zm-8.152-4.407h8.152a2.081,2.081,0,0,0,2.2-2.2V726.091a2.081,2.081,0,0,0-2.2-2.2h-8.152Z" transform="translate(26.869 25.46)" fill="#193651"/>
      <path id="Trazado_25767" data-name="Trazado 25767" d="M393.488,742.349V721.2L373.22,731.774Z" transform="translate(0.486 25.946)" fill="#f9a825"/>
      <path id="Trazado_25768" data-name="Trazado 25768" d="M393.974,745.046a1.981,1.981,0,0,1-1.1-.221L372.6,734.25a2.336,2.336,0,0,1,0-3.966l20.269-10.575a2.576,2.576,0,0,1,2.2,0,2.316,2.316,0,0,1,1.1,1.983v21.149a2.631,2.631,0,0,1-1.1,1.983A1.65,1.65,0,0,1,393.974,745.046Zm-15.421-12.778,13.439,7.05v-14.1Z" transform="translate(0 25.453)" fill="#193651"/>
      <rect id="Rectángulo_4010" data-name="Rectángulo 4010" width="101.343" height="21.15" transform="translate(393.974 747.145)" fill="#e1e6e9"/>
      <path id="Trazado_25769" data-name="Trazado 25769" d="M491.019,745.038H389.676a2.082,2.082,0,0,1-2.2-2.2V721.685a2.082,2.082,0,0,1,2.2-2.2H491.019a2.082,2.082,0,0,1,2.2,2.2v21.149A2.208,2.208,0,0,1,491.019,745.038Zm-99.36-4.407H488.6V723.888H391.659Z" transform="translate(4.519 25.46)" fill="#193651"/>
      <rect id="Rectángulo_4011" data-name="Rectángulo 4011" width="88.125" height="7.05" transform="translate(400.584 754.195)" fill="#fff"/>
      <rect id="Rectángulo_4012" data-name="Rectángulo 4012" width="77.109" height="15.642" transform="translate(393.974 731.283)" fill="#2ea2db"/>
      <path id="Trazado_25770" data-name="Trazado 25770" d="M466.613,727.338H389.5a2.081,2.081,0,0,1-2.2-2.2V709.492a2.081,2.081,0,0,1,2.2-2.2h77.109a2.082,2.082,0,0,1,2.2,2.2v15.643A2.208,2.208,0,0,1,466.613,727.338Zm-74.9-4.406h72.7V711.7h-72.7Z" transform="translate(4.47 22.01)" fill="#193651"/>
      <g id="Grupo_16559" data-name="Grupo 16559" transform="translate(403.448 733.508)">
        <rect id="Rectángulo_4013" data-name="Rectángulo 4013" width="1.542" height="11.236" transform="translate(0 0.198)" fill="#fff"/>
        <rect id="Rectángulo_4014" data-name="Rectángulo 4014" width="3.745" height="11.236" transform="translate(3.525 0.198)" fill="#fff"/>
        <rect id="Rectángulo_4015" data-name="Rectángulo 4015" width="1.542" height="11.236" transform="translate(56.796)" fill="#fff"/>
        <rect id="Rectángulo_4016" data-name="Rectángulo 4016" width="3.745" height="11.236" transform="translate(51.112)" fill="#fff"/>
      </g>
      <rect id="Rectángulo_4017" data-name="Rectángulo 4017" width="77.109" height="15.642" transform="translate(393.974 715.64)" fill="#e35c3d"/>
      <path id="Trazado_25771" data-name="Trazado 25771" d="M466.613,714.974H389.5a2.081,2.081,0,0,1-2.2-2.2V697.128a2.081,2.081,0,0,1,2.2-2.2h77.109a2.082,2.082,0,0,1,2.2,2.2v15.643A2.082,2.082,0,0,1,466.613,714.974Zm-74.9-4.407h72.7V699.331h-72.7Z" transform="translate(4.47 18.512)" fill="#193651"/>
      <g id="Grupo_16560" data-name="Grupo 16560" transform="translate(403.448 717.844)">
        <rect id="Rectángulo_4018" data-name="Rectángulo 4018" width="1.542" height="11.236" fill="#fff"/>
        <rect id="Rectángulo_4019" data-name="Rectángulo 4019" width="3.745" height="11.236" transform="translate(3.525)" fill="#fff"/>
        <rect id="Rectángulo_4020" data-name="Rectángulo 4020" width="1.542" height="11.236" transform="translate(56.796 0.176)" fill="#fff"/>
        <rect id="Rectángulo_4021" data-name="Rectángulo 4021" width="3.745" height="11.236" transform="translate(51.112 0.176)" fill="#fff"/>
        <path id="Trazado_25772" data-name="Trazado 25772" d="M481.728,713.3h-26a6.49,6.49,0,0,0-6.608,6.608v3.3h39.214v-3.3A6.627,6.627,0,0,0,481.728,713.3Z" transform="translate(-381.486 -694.132)" fill="#fff"/>
      </g>
      <g id="Grupo_16561" data-name="Grupo 16561" transform="translate(414.243 641.836)">
        <path id="Trazado_25773" data-name="Trazado 25773" d="M482.214,711.582h-26a8.837,8.837,0,0,0-8.811,8.813v3.3a2.081,2.081,0,0,0,2.2,2.2h39.216a2.081,2.081,0,0,0,2.2-2.2v-3.3A8.839,8.839,0,0,0,482.214,711.582Zm4.406,10.135H451.811v-1.1a4.418,4.418,0,0,1,4.406-4.406h26a4.419,4.419,0,0,1,4.407,4.406v1.1Z" transform="translate(-392.767 -618.611)" fill="#193651"/>
        <path id="Trazado_25774" data-name="Trazado 25774" d="M469.528,736.493a2.268,2.268,0,0,1-1.542-2.644L480.1,688.9,434.5,642.86a2.181,2.181,0,1,1,3.084-3.084L484.069,686.7a2.664,2.664,0,0,1,.661,2.2l-12.557,46.046A2.394,2.394,0,0,1,469.528,736.493Z" transform="translate(-396.606 -639.115)" fill="#193651"/>
        <rect id="Rectángulo_4022" data-name="Rectángulo 4022" width="4.406" height="3.966" transform="translate(0 31.064)" fill="#193651"/>
      </g>
      <rect id="Rectángulo_4023" data-name="Rectángulo 4023" width="4.406" height="3.965" transform="translate(416.408 684.578) rotate(-30.001)" fill="#193651"/>
      <g id="Grupo_16562" data-name="Grupo 16562" transform="translate(423.915 689.925)">
        <rect id="Rectángulo_4024" data-name="Rectángulo 4024" width="4.406" height="3.966" transform="matrix(0.5, -0.866, 0.866, 0.5, 0, 3.815)" fill="#193651"/>
        <rect id="Rectángulo_4025" data-name="Rectángulo 4025" width="3.966" height="4.406" transform="translate(11.258 3.464)" fill="#193651"/>
      </g>
      <path id="Trazado_25775" data-name="Trazado 25775" d="M452.489,638.428l-9.474,9.694-33.047,10.355,30.182,30.183,10.575-33.047,9.473-9.473Z" transform="translate(10.884 2.527)" fill="#f9a825"/>
      <path id="Trazado_25776" data-name="Trazado 25776" d="M440.638,691.348a2,2,0,0,1-1.542-.661L408.912,660.5a3.076,3.076,0,0,1-.661-1.982,2.173,2.173,0,0,1,1.542-1.542l32.387-10.135,9.253-9.473a2.129,2.129,0,0,1,3.084,0l7.712,7.711a2.13,2.13,0,0,1,0,3.084l-9.254,9.254L442.84,689.806a2.66,2.66,0,0,1-1.542,1.542Zm-26-31.5,25.116,25.115,9.253-29.522a1.146,1.146,0,0,1,.441-.881l7.931-7.931-4.407-4.406-7.931,7.931a1.667,1.667,0,0,1-.881.44Z" transform="translate(10.398 2.041)" fill="#193651"/>
      <g id="Grupo_16563" data-name="Grupo 16563" transform="translate(425.589 659.902)">
        <path id="Trazado_25777" data-name="Trazado 25777" d="M434.469,653.2l-14.541,4.626,13.879,13.88,4.627-14.541Z" transform="translate(-411.887 -653.196)" fill="#fff"/>
        <path id="Trazado_25778" data-name="Trazado 25778" d="M416.635,660.237a10.282,10.282,0,1,0,14.541,14.541Z" transform="translate(-413.661 -651.204)" fill="#fff"/>
      </g>
      <path id="Trazado_25779" data-name="Trazado 25779" d="M424.415,680.551a12.464,12.464,0,0,1-8.813-21.37,2.129,2.129,0,0,1,3.084,0l14.541,14.541a2.13,2.13,0,0,1,0,3.084A12.35,12.35,0,0,1,424.415,680.551Zm-7.05-16.523a8.237,8.237,0,0,0-1.1,3.966,8,8,0,0,0,2.423,5.728,8.371,8.371,0,0,0,9.694,1.321Z" transform="translate(11.418 8.211)" fill="#193651"/>
      <circle id="Elipse_922" data-name="Elipse 922" cx="6.389" cy="6.389" r="6.389" transform="translate(493.775 684.576)" fill="#fff"/>
      <path id="Trazado_25780" data-name="Trazado 25780" d="M473.684,687.9a8.593,8.593,0,1,1,8.592-8.593A8.75,8.75,0,0,1,473.684,687.9Zm0-12.778a4.186,4.186,0,1,0,4.186,4.185A4.333,4.333,0,0,0,473.684,675.119Z" transform="translate(26.481 11.661)" fill="#193651"/>
    </g>
  </g>
</svg>
