<svg xmlns="http://www.w3.org/2000/svg" width="113" height="113" viewBox="0 0 113 113">
  <g id="Grupo_17640" data-name="Grupo 17640" transform="translate(-185 -4431)">
    <g id="Grupo_17638" data-name="Grupo 17638" transform="translate(-1747.115 4399.86)">
      <g id="Grupo_17629" data-name="Grupo 17629" transform="translate(1976.276 61.417)">
        <path id="Trazado_28146" data-name="Trazado 28146" d="M1996,86.961c4.715,0,8.537-4.866,8.537-10.87s-3.808-10.846-8.513-10.865h-.047c-4.705.019-8.514,4.875-8.514,10.865s3.823,10.87,8.537,10.87Z" transform="translate(-1987.46 -65.227)" fill="#cbe558" fill-rule="evenodd"/>
      </g>
      <g id="Grupo_17630" data-name="Grupo 17630" transform="translate(1955.364 61.417)">
        <path id="Trazado_28147" data-name="Trazado 28147" d="M1988.243,86.961c-4.715,0-8.537-4.866-8.537-10.87s3.809-10.846,8.514-10.865h-23.078a6.111,6.111,0,0,1,.037.657,5.483,5.483,0,0,1-5.479,5.484,5.7,5.7,0,0,1-.906-.076v9.2a5.8,5.8,0,0,1,.906-.075,5.483,5.483,0,0,1,5.479,5.484,5.581,5.581,0,0,1-.1,1.058Z" transform="translate(-1958.794 -65.227)" fill="#e2f1a1" fill-rule="evenodd"/>
      </g>
      <g id="Grupo_17631" data-name="Grupo 17631" transform="translate(1984.815 61.417)">
        <path id="Trazado_28148" data-name="Trazado 28148" d="M2027.131,80.362v-9.07c-.1.005-.2.009-.3.009a5.479,5.479,0,0,1-5.475-5.484c0-.2.01-.4.028-.591h-22.2c4.705.019,8.514,4.875,8.514,10.865s-3.823,10.87-8.537,10.87h22.3a5.5,5.5,0,0,1,5.361-6.609c.1,0,.2.005.3.009Z" transform="translate(-1999.164 -65.227)" fill="#e2f1a1" fill-rule="evenodd"/>
      </g>
      <g id="Grupo_17632" data-name="Grupo 17632" transform="translate(1947.794 52.82)">
        <path id="Trazado_28149" data-name="Trazado 28149" d="M2021.252,91.6a3.328,3.328,0,0,0,1.2-2.561V56.773a3.337,3.337,0,0,0-3.327-3.33h-67.385a3.337,3.337,0,0,0-3.327,3.33V89.041a3.337,3.337,0,0,0,3.327,3.33h54.085a16.09,16.09,0,0,1,15.423-.77Zm-13.511-7.828h-45.467a5.583,5.583,0,0,0,.1-1.059,5.482,5.482,0,0,0-5.479-5.484,5.7,5.7,0,0,0-.906.075V68.1a5.707,5.707,0,0,0,.906.076,5.483,5.483,0,0,0,5.479-5.484,6.1,6.1,0,0,0-.037-.657h45.321c-.019.194-.028.392-.028.59a5.479,5.479,0,0,0,5.474,5.484c.1,0,.2,0,.3-.009v9.07c-.1-.005-.2-.009-.3-.009a5.5,5.5,0,0,0-5.361,6.609Z" transform="translate(-1948.417 -53.443)" fill="#cbe558" fill-rule="evenodd"/>
      </g>
      <g id="Grupo_17633" data-name="Grupo 17633" transform="translate(1947.794 88.418)">
        <path id="Trazado_28150" data-name="Trazado 28150" d="M1999.6,112.618a16.166,16.166,0,0,1,6.23-7.048h-54.086a3.337,3.337,0,0,1-3.327-3.33v8.3a2.084,2.084,0,0,0,2.077,2.078Z" transform="translate(-1948.417 -102.24)" fill="#78d0a9" fill-rule="evenodd"/>
      </g>
      <g id="Grupo_17634" data-name="Grupo 17634" transform="translate(1947.794 96.717)">
        <path id="Trazado_28151" data-name="Trazado 28151" d="M1998.151,122.375a16.043,16.043,0,0,1,1.449-6.679h-49.106a2.084,2.084,0,0,1-2.077-2.078v7.048a2.084,2.084,0,0,0,2.077,2.078h47.662c0-.123,0-.246,0-.368Z" transform="translate(-1948.417 -113.617)" fill="#78d0a9" fill-rule="evenodd"/>
      </g>
      <g id="Grupo_17635" data-name="Grupo 17635" transform="translate(1997.528 89.372)">
        <path id="Trazado_28152" data-name="Trazado 28152" d="M2048.774,119.651a16.1,16.1,0,0,0-7.877-13.845q-.588-.355-1.2-.652a16.093,16.093,0,0,0-15.423.77,16.1,16.1,0,0,0-7.678,13.727c0,.123,0,.246,0,.368a16.091,16.091,0,0,0,32.178-.368Z" transform="translate(-2016.592 -103.548)" fill="#ffcb7c" fill-rule="evenodd"/>
      </g>
      <g id="Grupo_17636" data-name="Grupo 17636" transform="translate(1997.528 89.372)">
        <path id="Trazado_28153" data-name="Trazado 28153" d="M2048.774,119.651a16.1,16.1,0,0,0-7.877-13.845q-.588-.355-1.2-.652a16.093,16.093,0,0,0-15.423.77,16.1,16.1,0,0,0-7.678,13.727c0,.123,0,.246,0,.368a16.091,16.091,0,0,0,32.178-.368Z" transform="translate(-2016.592 -103.548)" fill="#ffcb7c" fill-rule="evenodd"/>
      </g>
      <g id="Grupo_17637" data-name="Grupo 17637" transform="translate(1946.115 51.14)">
        <path id="Trazado_28154" data-name="Trazado 28154" d="M1957.083,81.151a1.678,1.678,0,0,0,1.357.379,4.03,4.03,0,0,1,.638-.054,3.807,3.807,0,0,1,3.8,3.805,3.942,3.942,0,0,1-.068.737,1.679,1.679,0,0,0,1.649,2h45.47a1.679,1.679,0,0,0,1.624-2.11,3.852,3.852,0,0,1-.06-.693,3.8,3.8,0,0,1,3.795-3.8c.077,0,.149,0,.222.007a1.68,1.68,0,0,0,1.76-1.678V70.67a1.68,1.68,0,0,0-1.757-1.678h-.018c-.068,0-.136.007-.207.007a3.8,3.8,0,0,1-3.795-3.8c0-.145.006-.29.02-.428a1.68,1.68,0,0,0-1.672-1.842H1964.52a1.68,1.68,0,0,0-1.67,1.861,4.5,4.5,0,0,1,.028.476,3.806,3.806,0,0,1-3.8,3.8,4.068,4.068,0,0,1-.639-.054,1.679,1.679,0,0,0-1.946,1.658v9.2A1.681,1.681,0,0,0,1957.083,81.151Zm25.827.96a11.342,11.342,0,0,1,0-13.281,5.631,5.631,0,0,1,9.422,0,11.343,11.343,0,0,1,0,13.281,5.629,5.629,0,0,1-9.422,0Zm31-9.886v5.958a7.177,7.177,0,0,0-5.755,6.475h-13.585a14.544,14.544,0,0,0,0-18.375h13.645A7.179,7.179,0,0,0,2013.909,72.225Zm-54.057.158a7.177,7.177,0,0,0,6.312-6.1h14.508a14.545,14.545,0,0,0,0,18.375H1966.21a7.175,7.175,0,0,0-6.358-6.5Z" transform="translate(-1948.922 -54.328)" fill="#00223d"/>
        <path id="Trazado_28155" data-name="Trazado 28155" d="M2028.222,118.935h9.888a1.679,1.679,0,0,0,2.324,2.4l3.459-2.772a1.68,1.68,0,0,0,.26-2.361,1.783,1.783,0,0,0-.182-.192l-.034-.031-.035-.03-.009-.007-3.459-2.774a1.679,1.679,0,0,0-2.324,2.4h-9.888a1.679,1.679,0,1,0,0,3.359Z" transform="translate(-1967.87 -67.82)" fill="#00223d"/>
        <path id="Trazado_28156" data-name="Trazado 28156" d="M2043.134,128.961h-9.888a1.679,1.679,0,0,0-2.324-2.4l-3.459,2.773-.005,0a1.655,1.655,0,0,0-.255.255,1.679,1.679,0,0,0,.26,2.361l3.459,2.773a1.679,1.679,0,0,0,2.324-2.4h9.888a1.679,1.679,0,1,0,0-3.359Z" transform="translate(-1967.949 -71.44)" fill="#00223d"/>
        <path id="Trazado_28157" data-name="Trazado 28157" d="M1998.574,104.5h-.033a1.68,1.68,0,0,0,0,3.359h.033a1.68,1.68,0,0,0,0-3.359Z" transform="translate(-1959.841 -65.574)" fill="#00223d"/>
        <path id="Trazado_28158" data-name="Trazado 28158" d="M2023.087,90.433a4.977,4.977,0,0,0,.426-2.015V56.15a5.014,5.014,0,0,0-5.007-5.01h-67.385a5.014,5.014,0,0,0-5.007,5.01v47.615a3.761,3.761,0,0,0,3.756,3.758h46.1a17.771,17.771,0,1,0,27.12-17.09ZM1949.474,56.15a1.651,1.651,0,0,1,1.647-1.651h67.385a1.651,1.651,0,0,1,1.648,1.651V88.418a1.626,1.626,0,0,1-.077.49,17.748,17.748,0,0,0-15.323,1.161h-13.29a1.68,1.68,0,1,0,0,3.359h9.1a17.871,17.871,0,0,0-2.623,3.688h-48.067a.4.4,0,0,1-.4-.4v-3.57a4.991,4.991,0,0,0,1.647.28h26.661a1.68,1.68,0,0,0,0-3.359h-26.661a1.651,1.651,0,0,1-1.647-1.65Zm0,47.615v-3.311a3.759,3.759,0,0,0,.4.021h46.693a17.691,17.691,0,0,0-.667,3.689h-46.026A.4.4,0,0,1,1949.474,103.765Zm64.147,16.134a14.436,14.436,0,0,1-14.408-14.055h0c0-.122-.005-.244-.005-.367a14.411,14.411,0,1,1,14.414,14.424Z" transform="translate(-1946.115 -51.14)" fill="#00223d"/>
      </g>
    </g>
    <rect id="Rectángulo_4374" data-name="Rectángulo 4374" width="113" height="113" transform="translate(185 4431)" fill="none"/>
  </g>
</svg>
