<svg xmlns="http://www.w3.org/2000/svg" width="113" height="113" viewBox="0 0 113 113">
  <g id="Grupo_17649" data-name="Grupo 17649" transform="translate(-105 -1233)">
    <g id="Grupo_17648" data-name="Grupo 17648" transform="translate(-1830.171 1082.564)">
      <path id="Trazado_28159" data-name="Trazado 28159" d="M2018.945,180.2v49.662c0,.1,0,.2-.006.3a6.412,6.412,0,0,1-6.406,6.112h-36.047a6.411,6.411,0,0,1-6.413-6.41v-57.5a6.4,6.4,0,0,1,6.413-6.412h28.633a6.392,6.392,0,0,1,2.785.638c1.732.833,2.219,1.887,5.333,5.07,3.581,3.889,4.436,4.287,5.166,5.971A6.336,6.336,0,0,1,2018.945,180.2Z" transform="translate(-2.484 -0.189)" fill="#ffc477"/>
      <path id="Trazado_28160" data-name="Trazado 28160" d="M2019.652,180.2v49.662c0,.1,0,.2-.006.3a6.429,6.429,0,0,1-1.448.164h-36.046a6.412,6.412,0,0,1-6.412-6.411v-57.5c0-.1,0-.2.007-.3a6.467,6.467,0,0,1,1.448-.163h28.633a6.414,6.414,0,0,1,4.685,2.036l3.433,3.672,3.929,4.112a6.445,6.445,0,0,1,1.779,4.429Z" transform="translate(-3.19 -0.189)" fill="#ffdaaa"/>
      <path id="Trazado_28161" data-name="Trazado 28161" d="M2038.767,206.345v36.049a9.061,9.061,0,0,1-9.061,9.062H2006.16a9.062,9.062,0,0,1-9.061-9.062V206.345a9.055,9.055,0,0,1,9.061-9.061h23.546A9.06,9.06,0,0,1,2038.767,206.345Z" transform="translate(-5.856 -4.099)" fill="#4cba68"/>
      <path id="Trazado_28162" data-name="Trazado 28162" d="M2039.3,206.345v36.049a9.017,9.017,0,0,1-1.755,5.36,9.03,9.03,0,0,1-3.56.727H2010.44a9.062,9.062,0,0,1-9.061-9.061V203.37a9.012,9.012,0,0,1,1.756-5.36,9.025,9.025,0,0,1,3.56-.726h23.546A9.06,9.06,0,0,1,2039.3,206.345Z" transform="translate(-6.39 -4.099)" fill="#7ccc92"/>
      <path id="Trazado_28163" data-name="Trazado 28163" d="M2023.881,234.525v4.233a1.355,1.355,0,0,1-1.354,1.356h-4.235a1.355,1.355,0,0,1-1.356-1.356v-4.233a1.355,1.355,0,0,1,1.356-1.356h4.235A1.355,1.355,0,0,1,2023.881,234.525Z" transform="translate(-8.331 -8.577)" fill="#2c733f"/>
      <path id="Trazado_28164" data-name="Trazado 28164" d="M2033.428,206.249v4.536a2.922,2.922,0,0,1-2.922,2.922h-23.371a2.923,2.923,0,0,1-2.922-2.922v-4.536a2.922,2.922,0,0,1,2.922-2.921h23.371A2.922,2.922,0,0,1,2033.428,206.249Z" transform="translate(-6.744 -4.853)" fill="#1e81ce"/>
      <path id="Trazado_28165" data-name="Trazado 28165" d="M2034.135,206.249v4.536a2.922,2.922,0,0,1-2.922,2.922H2012.8a2.924,2.924,0,0,1-2.922-2.922v-4.536a2.923,2.923,0,0,1,2.922-2.921h18.413A2.922,2.922,0,0,1,2034.135,206.249Z" transform="translate(-7.451 -4.853)" fill="#3d9ae2"/>
      <g id="Grupo_17644" data-name="Grupo 17644" transform="translate(1997.47 213.52)">
        <path id="Trazado_28166" data-name="Trazado 28166" d="M2011.16,234.525v4.233a1.355,1.355,0,0,1-1.356,1.356h-4.235a1.356,1.356,0,0,1-1.355-1.356v-4.233a1.356,1.356,0,0,1,1.355-1.356h4.235A1.355,1.355,0,0,1,2011.16,234.525Z" transform="translate(-2004.214 -222.097)" fill="#2c733f"/>
        <path id="Trazado_28167" data-name="Trazado 28167" d="M2023.881,221.873v4.234a1.355,1.355,0,0,1-1.354,1.355h-4.235a1.355,1.355,0,0,1-1.356-1.355v-4.234a1.355,1.355,0,0,1,1.356-1.355h4.235A1.355,1.355,0,0,1,2023.881,221.873Z" transform="translate(-2005.802 -220.518)" fill="#2c733f"/>
      </g>
      <path id="Trazado_28168" data-name="Trazado 28168" d="M2036.756,221.873v4.234a1.355,1.355,0,0,1-1.355,1.355h-4.233a1.355,1.355,0,0,1-1.356-1.355v-4.234a1.355,1.355,0,0,1,1.356-1.355h4.233A1.355,1.355,0,0,1,2036.756,221.873Z" transform="translate(-9.938 -6.998)" fill="#ee8700"/>
      <g id="Grupo_17645" data-name="Grupo 17645" transform="translate(1997.47 213.52)">
        <path id="Trazado_28169" data-name="Trazado 28169" d="M2011.16,221.873v4.234a1.355,1.355,0,0,1-1.356,1.355h-4.235a1.356,1.356,0,0,1-1.355-1.355v-4.234a1.356,1.356,0,0,1,1.355-1.355h4.235A1.355,1.355,0,0,1,2011.16,221.873Z" transform="translate(-2004.214 -220.518)" fill="#2c733f"/>
        <path id="Trazado_28170" data-name="Trazado 28170" d="M2023.881,246.554v4.236a1.355,1.355,0,0,1-1.354,1.355h-4.235a1.355,1.355,0,0,1-1.356-1.355v-4.236a1.355,1.355,0,0,1,1.356-1.353h4.235A1.354,1.354,0,0,1,2023.881,246.554Z" transform="translate(-2005.802 -223.598)" fill="#2c733f"/>
        <path id="Trazado_28171" data-name="Trazado 28171" d="M2011.16,246.554v4.236a1.355,1.355,0,0,1-1.356,1.355h-4.235a1.356,1.356,0,0,1-1.355-1.355v-4.236a1.356,1.356,0,0,1,1.355-1.353h4.235A1.355,1.355,0,0,1,2011.16,246.554Z" transform="translate(-2004.214 -223.598)" fill="#2c733f"/>
      </g>
      <path id="Trazado_28172" data-name="Trazado 28172" d="M2036.756,235.182v13.15a2.311,2.311,0,0,1-2.31,2.311h-2.324a2.311,2.311,0,0,1-2.311-2.311v-13.15a2.013,2.013,0,0,1,2.013-2.013h2.919A2.012,2.012,0,0,1,2036.756,235.182Z" transform="translate(-9.938 -8.577)" fill="#ee8700"/>
      <g id="Grupo_17646" data-name="Grupo 17646" transform="translate(1997.47 213.52)">
        <path id="Trazado_28173" data-name="Trazado 28173" d="M2023.881,234.525v1.259a1.355,1.355,0,0,1-1.354,1.356h-4.235a1.355,1.355,0,0,1-1.356-1.356v-1.259a1.355,1.355,0,0,1,1.356-1.356h4.235A1.355,1.355,0,0,1,2023.881,234.525Z" transform="translate(-2005.802 -222.097)" fill="#317f46"/>
        <path id="Trazado_28174" data-name="Trazado 28174" d="M2011.16,234.525v1.259a1.355,1.355,0,0,1-1.356,1.356h-4.235a1.356,1.356,0,0,1-1.355-1.356v-1.259a1.356,1.356,0,0,1,1.355-1.356h4.235A1.355,1.355,0,0,1,2011.16,234.525Z" transform="translate(-2004.214 -222.097)" fill="#317f46"/>
        <path id="Trazado_28175" data-name="Trazado 28175" d="M2023.881,221.873v1.259a1.355,1.355,0,0,1-1.354,1.356h-4.235a1.355,1.355,0,0,1-1.356-1.356v-1.259a1.355,1.355,0,0,1,1.356-1.355h4.235A1.355,1.355,0,0,1,2023.881,221.873Z" transform="translate(-2005.802 -220.518)" fill="#317f46"/>
      </g>
      <path id="Trazado_28176" data-name="Trazado 28176" d="M2036.756,221.873v1.259a1.355,1.355,0,0,1-1.355,1.356h-4.233a1.355,1.355,0,0,1-1.356-1.356v-1.259a1.355,1.355,0,0,1,1.356-1.355h4.233A1.355,1.355,0,0,1,2036.756,221.873Z" transform="translate(-9.938 -6.998)" fill="#ff9811"/>
      <g id="Grupo_17647" data-name="Grupo 17647" transform="translate(1997.47 213.52)">
        <path id="Trazado_28177" data-name="Trazado 28177" d="M2011.16,221.873v1.259a1.355,1.355,0,0,1-1.356,1.356h-4.235a1.356,1.356,0,0,1-1.355-1.356v-1.259a1.356,1.356,0,0,1,1.355-1.355h4.235A1.355,1.355,0,0,1,2011.16,221.873Z" transform="translate(-2004.214 -220.518)" fill="#317f46"/>
        <path id="Trazado_28178" data-name="Trazado 28178" d="M2023.881,246.554v1.261a1.355,1.355,0,0,1-1.354,1.355h-4.235a1.355,1.355,0,0,1-1.356-1.355v-1.261a1.355,1.355,0,0,1,1.356-1.353h4.235A1.354,1.354,0,0,1,2023.881,246.554Z" transform="translate(-2005.802 -223.598)" fill="#317f46"/>
        <path id="Trazado_28179" data-name="Trazado 28179" d="M2011.16,246.554v1.261a1.355,1.355,0,0,1-1.356,1.355h-4.235a1.356,1.356,0,0,1-1.355-1.355v-1.261a1.356,1.356,0,0,1,1.355-1.353h4.235A1.355,1.355,0,0,1,2011.16,246.554Z" transform="translate(-2004.214 -223.598)" fill="#317f46"/>
      </g>
      <path id="Trazado_28180" data-name="Trazado 28180" d="M2036.756,235.182v10.175a2.311,2.311,0,0,1-2.31,2.311h-2.324a2.311,2.311,0,0,1-2.311-2.311V235.182a2.013,2.013,0,0,1,2.013-2.013h2.919A2.012,2.012,0,0,1,2036.756,235.182Z" transform="translate(-9.938 -8.577)" fill="#ff9811"/>
      <path id="Trazado_28181" data-name="Trazado 28181" d="M2023.8,177.716h-8.035a2.465,2.465,0,0,1-2.465-2.465v-8.576a6.4,6.4,0,0,1,1.9,1.4l3.434,3.672,3.929,4.113A6.346,6.346,0,0,1,2023.8,177.716Z" transform="translate(-7.877 -0.279)" fill="#ffb655"/>
      <path id="Trazado_28182" data-name="Trazado 28182" d="M1988.629,254.279a3.15,3.15,0,0,1-3.14,3.14h-19.236a3.14,3.14,0,0,1,0-6.281h19.236A3.15,3.15,0,0,1,1988.629,254.279Z" transform="translate(-1.615 -10.82)" fill="#aa6100"/>
      <path id="Trazado_28183" data-name="Trazado 28183" d="M1988.629,247.1a3.148,3.148,0,0,1-3.14,3.139h-19.236a3.14,3.14,0,0,1,0-6.28h19.236A3.15,3.15,0,0,1,1988.629,247.1Z" transform="translate(-1.615 -9.924)" fill="#cc7400"/>
      <path id="Trazado_28184" data-name="Trazado 28184" d="M1988.629,239.929a3.148,3.148,0,0,1-3.14,3.139h-19.236a3.14,3.14,0,0,1,0-6.28h19.236A3.149,3.149,0,0,1,1988.629,239.929Z" transform="translate(-1.615 -9.029)" fill="#ee8700"/>
      <path id="Trazado_28185" data-name="Trazado 28185" d="M1988.629,232.753a3.15,3.15,0,0,1-3.14,3.14h-19.236a3.149,3.149,0,0,1-3.139-3.14,3.148,3.148,0,0,1,3.139-3.14h19.236A3.151,3.151,0,0,1,1988.629,232.753Z" transform="translate(-1.615 -8.133)" fill="#ff9811"/>
      <path id="Trazado_28186" data-name="Trazado 28186" d="M1985.488,228.719h-19.236a3.149,3.149,0,0,1-3.139-3.14h0a3.148,3.148,0,0,1,3.139-3.139h19.236a3.149,3.149,0,0,1,3.14,3.139h0A3.149,3.149,0,0,1,1985.488,228.719Z" transform="translate(-1.615 -7.238)" fill="#ffa733"/>
      <path id="Trazado_28187" data-name="Trazado 28187" d="M1976.156,245.15a10.217,10.217,0,0,0-10.647-9.783h-4a10.23,10.23,0,0,0,.875,20.442h3.128v0c.286.011.573.014.864,0a10.22,10.22,0,0,0,9.786-9.85v-.011C1976.167,245.682,1976.167,245.418,1976.156,245.15Z" transform="translate(-0.189 -8.85)" fill="#cc7400"/>
      <path id="Trazado_28188" data-name="Trazado 28188" d="M1977.4,245.984V246a8.027,8.027,0,1,1-15.759.067c0-.023,0-.045,0-.067v-.011a8.1,8.1,0,1,1,15.761-.8C1977.408,245.456,1977.408,245.72,1977.4,245.984Z" transform="translate(-1.43 -8.889)" fill="#ee8700"/>
      <path id="Trazado_28189" data-name="Trazado 28189" d="M2023.849,191.945h-6.067V180.007a7.754,7.754,0,0,0-2.144-5.343l-3.919-4.1c-3.326-3.428-3.747-4.4-5.728-5.358a7.753,7.753,0,0,0-3.356-.768H1974a7.743,7.743,0,0,0-7.734,7.734v41.708h-1.631a4.46,4.46,0,0,0-3.167,7.6,4.446,4.446,0,0,0-1.3,3.139,4.633,4.633,0,0,0,.087.883,11.248,11.248,0,0,0,1.608,22.427l22-.009a4.459,4.459,0,0,0,3.167-7.6,4.444,4.444,0,0,0,1.289-2.919H1990v.894a10.313,10.313,0,0,0,10.3,10.3h23.546a10.312,10.312,0,0,0,10.3-10.3V202.246A10.312,10.312,0,0,0,2023.849,191.945Zm-17.108-22.833c5.193,5.488,6.363,6.726,6.583,6.959l0,0h0l.006.008,0,0a.023.023,0,0,0,.01.01l.005.007,0,0,0,0,.007.007h-6.625v-7Zm-42.1,47.411h19.236a1.818,1.818,0,0,1,0,3.636h-19.236a1.818,1.818,0,0,1,0-3.636Zm0,6.28h19.236a1.818,1.818,0,0,1,0,3.636h-13.287a10.865,10.865,0,0,0-1.674-.6,11.178,11.178,0,0,0-2.644-.389c-.26-.006-.519,0-.779.007h-2.467a1.789,1.789,0,0,1-.2-.831A1.821,1.821,0,0,1,1964.637,222.8Zm21.054,8.1a1.82,1.82,0,0,1-1.818,1.818h-7.4a11.108,11.108,0,0,0-2.245-3.636h9.643A1.821,1.821,0,0,1,1985.691,230.9Zm-27.486-2.374a11.425,11.425,0,0,0-2.082,2.671h-1.541A8.737,8.737,0,0,1,1958.205,228.527Zm-5.029,5.15h1.925a11.457,11.457,0,0,0-.361,1.981h-2.034A8.683,8.683,0,0,1,1953.177,233.676Zm.213,6.553a8.685,8.685,0,0,1-.621-2.093h2.019a10.114,10.114,0,0,0,.473,2.093Zm1.649,2.479c.811,0,1.283,0,1.393,0a11.156,11.156,0,0,0,1.779,2.152A8.751,8.751,0,0,1,1955.039,242.708Zm11.281,2.745a8.77,8.77,0,1,1,5.557-15.222A8.763,8.763,0,0,1,1966.319,245.452Zm17.554-.175H1973.2a11.328,11.328,0,0,0,2.841-3.636h7.83a1.818,1.818,0,0,1,0,3.636Zm1.8-7.876a1.818,1.818,0,0,1-1.8,1.6h-6.918a11.36,11.36,0,0,0,.16-3.636h6.758A1.819,1.819,0,0,1,1985.676,237.4Zm4.326-2.644h-2.386a4.4,4.4,0,0,0-.577-.718,4.452,4.452,0,0,0,0-6.28,4.453,4.453,0,0,0,0-6.28,4.466,4.466,0,0,0-3.167-7.6h-14.961V172.17a5.1,5.1,0,0,1,5.09-5.09H2004.1v10.357a1.322,1.322,0,0,0,1.323,1.322h9.562c.276,1.071.106.718.157,13.186H2000.3a10.313,10.313,0,0,0-10.3,10.3v32.512Zm41.669,3.538a7.829,7.829,0,0,1-7.822,7.822H2000.3a7.831,7.831,0,0,1-7.822-7.822V202.246a7.831,7.831,0,0,1,7.822-7.822h23.546a7.829,7.829,0,0,1,7.822,7.822v36.049Z" fill="#00223d"/>
      <path id="Trazado_28190" data-name="Trazado 28190" d="M2011.455,212.292h-4.5a1.688,1.688,0,0,1-1.682-1.683v-4.536a1.687,1.687,0,0,1,1.682-1.682h23.371a1.684,1.684,0,0,1,1.682,1.682v4.536a1.684,1.684,0,0,1-1.682,1.683H2016.8a1.239,1.239,0,0,0,0,2.479h13.53a4.166,4.166,0,0,0,4.162-4.162v-4.536a4.165,4.165,0,0,0-4.162-4.161h-23.371a4.16,4.16,0,0,0-4.161,4.161v4.536a4.161,4.161,0,0,0,4.161,4.162h4.5a1.239,1.239,0,0,0,0-2.479Z" transform="translate(-6.567 -4.677)" fill="#00223d"/>
      <path id="Trazado_28191" data-name="Trazado 28191" d="M2005.392,241.176h4.235a2.6,2.6,0,0,0,2.595-2.6v-4.233a2.6,2.6,0,0,0-2.595-2.595h-4.235a2.6,2.6,0,0,0-2.594,2.595v4.233A2.6,2.6,0,0,0,2005.392,241.176Zm-.115-6.828a.116.116,0,0,1,.115-.116h4.235a.117.117,0,0,1,.116.116v4.233a.116.116,0,0,1-.116.116h-4.235a.115.115,0,0,1-.115-.116Z" transform="translate(-6.567 -8.401)" fill="#00223d"/>
      <path id="Trazado_28192" data-name="Trazado 28192" d="M2035.224,219.1h-4.233a2.6,2.6,0,0,0-2.595,2.594v4.234a2.6,2.6,0,0,0,2.595,2.594h4.233a2.6,2.6,0,0,0,2.595-2.594V221.7A2.6,2.6,0,0,0,2035.224,219.1Zm.115,6.828a.114.114,0,0,1-.115.116h-4.233a.116.116,0,0,1-.116-.116c.052-4.189-.108-4.35.116-4.35h4.233a.115.115,0,0,1,.115.116Z" transform="translate(-9.762 -6.822)" fill="#00223d"/>
      <path id="Trazado_28193" data-name="Trazado 28193" d="M2005.392,228.525h4.235a2.6,2.6,0,0,0,2.595-2.6V221.7a2.6,2.6,0,0,0-2.595-2.594h-4.235a2.6,2.6,0,0,0-2.594,2.594v4.234A2.6,2.6,0,0,0,2005.392,228.525Zm-.115-6.829a.116.116,0,0,1,.115-.116h4.235a.117.117,0,0,1,.116.116v4.234a.116.116,0,0,1-.116.116h-4.235a.115.115,0,0,1-.115-.116Z" transform="translate(-6.567 -6.822)" fill="#00223d"/>
      <path id="Trazado_28194" data-name="Trazado 28194" d="M2011.569,244.659a2.592,2.592,0,0,0-1.942-.874h-4.235a2.587,2.587,0,0,0-1.94.874,3.544,3.544,0,0,0-.654,2.644v3.31a2.6,2.6,0,0,0,2.594,2.594h4.235a2.6,2.6,0,0,0,2.6-2.594V247.3A3.575,3.575,0,0,0,2011.569,244.659Zm-1.942,6.07c-4.183-.052-4.351.108-4.351-.116,0-4.484-.05-4.35.116-4.35h4.235c.2,0,.078.283.116,1.04C2009.743,247.3,2009.85,250.729,2009.626,250.729Z" transform="translate(-6.567 -9.902)" fill="#00223d"/>
      <path id="Trazado_28195" data-name="Trazado 28195" d="M2034.567,231.753h-2.919a3.256,3.256,0,0,0-3.252,3.252v13.15a3.555,3.555,0,0,0,3.55,3.551h2.324a3.554,3.554,0,0,0,3.55-3.551v-13.15A3.255,3.255,0,0,0,2034.567,231.753Zm.773,16.4a1.071,1.071,0,0,1-1.07,1.072h-2.324a1.073,1.073,0,0,1-1.071-1.072v-13.15a.775.775,0,0,1,.774-.774h2.919a.774.774,0,0,1,.773.774v13.15Z" transform="translate(-9.762 -8.401)" fill="#00223d"/>
      <path id="Trazado_28196" data-name="Trazado 28196" d="M1985.876,204.359h0c-1.511-.555-2.6-.957-2.6-2.356,0-1.276.847-1.924,2.519-1.924,1.774,0,2.252.782,2.877.782a1.19,1.19,0,0,0,1.056-1.221c0-1.033-1.685-1.545-3.19-1.68v-.93a1.175,1.175,0,0,0-2.349,0v1.079a3.841,3.841,0,0,0-3.19,4.018c0,2.885,2.124,3.683,3.831,4.324,1.671.628,2.991,1.124,2.991,3.032,0,1.575-.875,2.374-2.6,2.374-2.527,0-2.55-1.7-3.514-1.7a1.24,1.24,0,0,0-1.077,1.221c0,.977,1.455,2.26,3.56,2.593v.9a1.175,1.175,0,0,0,2.349,0v-.924a4.243,4.243,0,0,0,3.559-4.583C1990.095,205.909,1987.756,205.05,1985.876,204.359Z" transform="translate(-3.801 -3.921)" fill="#00223d"/>
      <path id="Trazado_28197" data-name="Trazado 28197" d="M2022.35,243.785h-4.235a2.593,2.593,0,0,0-1.942.874,3.559,3.559,0,0,0-.653,2.644v3.31a2.6,2.6,0,0,0,2.6,2.594h4.235a2.6,2.6,0,0,0,2.593-2.594v-4.236a2.6,2.6,0,0,0-2.593-2.592Zm0,6.944c-4.185-.052-4.352.108-4.352-.116v-4.236a.116.116,0,0,1,.116-.114h4.235a.115.115,0,0,1,.115.114C2022.414,250.572,2022.569,250.729,2022.35,250.729Z" transform="translate(-8.154 -9.902)" fill="#00223d"/>
      <path id="Trazado_28198" data-name="Trazado 28198" d="M2022.35,219.1h-4.235a2.6,2.6,0,0,0-2.595,2.594v4.234a2.6,2.6,0,0,0,2.595,2.594h4.235a2.555,2.555,0,0,0,.943-.178,2.6,2.6,0,0,0,1.65-2.416V221.7A2.6,2.6,0,0,0,2022.35,219.1Zm.115,6.828a.115.115,0,0,1-.115.116h-4.235a.116.116,0,0,1-.116-.116V221.7c0-.222.154-.066,4.352-.116a.115.115,0,0,1,.115.116v4.234Z" transform="translate(-8.155 -6.822)" fill="#00223d"/>
      <path id="Trazado_28199" data-name="Trazado 28199" d="M2023.294,231.932a2.556,2.556,0,0,0-.943-.179h-4.235a2.6,2.6,0,0,0-2.595,2.594v4.234a2.6,2.6,0,0,0,2.595,2.6h4.235a2.6,2.6,0,0,0,2.593-2.6v-4.234A2.6,2.6,0,0,0,2023.294,231.932Zm-.829,6.65a.115.115,0,0,1-.115.116h-4.235a.116.116,0,0,1-.116-.116v-4.234a.117.117,0,0,1,.116-.116h4.235a.115.115,0,0,1,.115.116Z" transform="translate(-8.155 -8.401)" fill="#00223d"/>
      <path id="Trazado_28200" data-name="Trazado 28200" d="M2011.416,186.268h3.113a1.239,1.239,0,0,0,0-2.479h-3.113a1.239,1.239,0,0,0,0,2.479Z" transform="translate(-7.488 -2.415)" fill="#00223d"/>
      <path id="Trazado_28201" data-name="Trazado 28201" d="M1980.638,186.268h21.979a1.239,1.239,0,0,0,0-2.479h-21.979a1.239,1.239,0,0,0,0,2.479Z" transform="translate(-3.647 -2.415)" fill="#00223d"/>
      <path id="Trazado_28202" data-name="Trazado 28202" d="M1984.578,193.3a1.24,1.24,0,0,0,0-2.479h-3.939a1.24,1.24,0,0,0,0,2.479Z" transform="translate(-3.647 -3.292)" fill="#00223d"/>
      <path id="Trazado_28203" data-name="Trazado 28203" d="M2013.2,192.057a1.24,1.24,0,0,0-1.239-1.239H1990.8a1.24,1.24,0,0,0,0,2.479h21.153A1.24,1.24,0,0,0,2013.2,192.057Z" transform="translate(-4.916 -3.292)" fill="#00223d"/>
      <path id="Trazado_28204" data-name="Trazado 28204" d="M1967.29,243.492c0-.312.115-.4.222-.46a2.132,2.132,0,0,1,1.8.122,1.416,1.416,0,0,0,.67.2c1.223,0,2.19-2.272-.731-2.774V240.5a1.256,1.256,0,1,0-2.512,0v.239a2.818,2.818,0,0,0-1.916,2.823c0,2.114,1.536,2.69,2.657,3.112,1.069.4,1.44.578,1.44,1.3,0,.455-.123.876-1.012.876-1.3,0-1.141-1.024-2.11-1.024a1.3,1.3,0,0,0-1.2,1.284c0,.859.893,1.673,2.138,2v.095a1.256,1.256,0,1,0,2.512,0v-.127a3.105,3.105,0,0,0,2.138-3.181C1971.387,244.143,1967.29,244.709,1967.29,243.492Z" transform="translate(-1.8 -9.336)" fill="#00223d"/>
    </g>
    <rect id="Rectángulo_4374" data-name="Rectángulo 4374" width="113" height="113" transform="translate(105 1233)" fill="none"/>
  </g>
</svg>
