<svg xmlns="http://www.w3.org/2000/svg" width="113" height="113" viewBox="0 0 113 113">
  <g id="Grupo_17329" data-name="Grupo 17329" transform="translate(-378 -5412)">
    <rect id="Rectángulo_4354" data-name="Rectángulo 4354" width="113" height="113" transform="translate(378 5412)" fill="none"/>
    <g id="Grupo_17316" data-name="Grupo 17316" transform="translate(395 5424)">
      <g id="Grupo_17315" data-name="Grupo 17315" transform="translate(1.336 1.42)">
        <path id="Trazado_27403" data-name="Trazado 27403" d="M213.225,1239.622h-2.762l-.17.181v1.627c0,1.453-.857,2.281-2.15,2.948-1.773.915-2.306,6.1,1.029,7.8l.948.143,6.634-2.569v-3.761Z" transform="translate(-181.872 -1221.506)" fill="#365e7d"/>
        <path id="Trazado_27404" data-name="Trazado 27404" d="M212.734,1244.379a3.639,3.639,0,0,0,2.01-2.015l-1.519-2.741h-2.762l-.17.181v1.627c0,1.454-.857,2.282-2.15,2.948-1.773.915-2.306,6.1,1.029,7.8l.948.143,2.523-.977C210.591,1249.19,211.193,1245.173,212.734,1244.379Z" transform="translate(-181.872 -1221.506)" fill="#2b4d66"/>
        <path id="Trazado_27405" data-name="Trazado 27405" d="M239.8,1244.34c-1.3-.669-2.149-1.5-2.149-2.948v-1.653l-.271-.257h-2.9l-3.328,6.728v3.4l6.848,2.666.637-.193c3.266-1.738,2.917-6.842,1.16-7.748Z" transform="translate(-188.7 -1221.467)" fill="#365e7d"/>
        <path id="Trazado_27406" data-name="Trazado 27406" d="M233.657,1257.9l-8.151-3.156-.728.322H212.2l-.9-.318-8.132,3.152a7.009,7.009,0,0,0-4.094,6.349V1275.7h38.678v-11.443a6.987,6.987,0,0,0-4.094-6.349Z" transform="translate(-179.729 -1225.737)" fill="#ff7f87"/>
        <path id="Trazado_27407" data-name="Trazado 27407" d="M239,1233.165l-.228-.231h-2.729v4.782l.151.311h2.059a2.488,2.488,0,0,0,.747-4.862Z" transform="translate(-190.069 -1219.636)" fill="#ffcebe"/>
        <path id="Trazado_27408" data-name="Trazado 27408" d="M210.967,1233.135v0a2.488,2.488,0,0,0,.668,4.884h2.15l.236-.275v-4.832h-2.879Z" transform="translate(-182.546 -1219.63)" fill="#ffcebe"/>
        <path id="Trazado_27409" data-name="Trazado 27409" d="M238.482,1232.934h-2.438v4.782l.151.311h2.06c.076,0,.152-.005.227-.012Z" transform="translate(-190.069 -1219.636)" fill="#ffb1a0"/>
        <path id="Trazado_27410" data-name="Trazado 27410" d="M211.585,1235.532a2.487,2.487,0,0,1,1.82-2.394v0l.177-.222h-2.438l-.176.222v0a2.487,2.487,0,0,0,.668,4.883h2.15l.014-.016A2.488,2.488,0,0,1,211.585,1235.532Z" transform="translate(-182.546 -1219.63)" fill="#ffb1a0"/>
        <path id="Trazado_27411" data-name="Trazado 27411" d="M227.827,1252.05a.757.757,0,0,1-.483-.7l0-2.536-.333-.347h-7.653l-.388.362v2.516c0,.579-.517.719-.737.8l-2.187.847a7.466,7.466,0,0,0,14.208,0Z" transform="translate(-184.475 -1223.979)" fill="#ffcebe"/>
        <path id="Trazado_27412" data-name="Trazado 27412" d="M223.159,1248.463h-3.8l-.388.362v2.516c0,.579-.517.719-.737.8l-2.187.847a7.353,7.353,0,0,0,7.114,5.165Z" transform="translate(-184.475 -1223.979)" fill="#ffb1a0"/>
        <path id="Trazado_27413" data-name="Trazado 27413" d="M231.406,1230.982h-3.268l-2.569-3.191h-1.53l-2.381,2.579v6.579a7.534,7.534,0,0,0,5,7.11,7.453,7.453,0,0,0,5.511-7.173v-5.275Z" transform="translate(-186.045 -1218.198)" fill="#ffdecf"/>
        <path id="Trazado_27414" data-name="Trazado 27414" d="M220.135,1237.887v-6.778l-.907.983h-3.311l-.33.448v5.348a7.343,7.343,0,0,0,7.519,7.337,7.183,7.183,0,0,0,2.216-.342,7.29,7.29,0,0,1-5.188-6.995Z" transform="translate(-184.347 -1219.125)" fill="#ffcebe"/>
        <path id="Trazado_27415" data-name="Trazado 27415" d="M221.8,1214.474a10.362,10.362,0,0,0-10.128,10.415v3.092a2.468,2.468,0,0,1,.669-.094h4.1c.254,0,1.681-.117,1.577-.108a4.328,4.328,0,0,0,3.8-3.277.124.124,0,0,1,.243,0,4.32,4.32,0,0,0,3.758,3.269c1.293.11,1.31.116,1.544.116h4.079a2.482,2.482,0,0,1,.761.12v-3.271A10.263,10.263,0,0,0,221.8,1214.474Z" transform="translate(-183.253 -1214.473)" fill="#365e7d"/>
        <g id="Grupo_17309" data-name="Grupo 17309" transform="translate(28.42)">
          <path id="Trazado_27416" data-name="Trazado 27416" d="M216.265,1224.888a10.414,10.414,0,0,1,7.974-10.153,10.262,10.262,0,0,0-12.566,10.153v3.092a2.468,2.468,0,0,1,.669-.094h3.922v-3Z" transform="translate(-211.673 -1214.473)" fill="#2b4d66"/>
        </g>
        <path id="Trazado_27417" data-name="Trazado 27417" d="M240.093,1267.233H237.33l-.17.182v1.627c0,1.454-.857,2.282-2.15,2.948-1.774.915-2.307,6.1,1.029,7.8l.948.143,6.634-2.568V1273.6Z" transform="translate(-189.386 -1229.228)" fill="#365e7d"/>
        <path id="Trazado_27418" data-name="Trazado 27418" d="M239.6,1271.99a3.64,3.64,0,0,0,2.01-2.016l-1.519-2.742H237.33l-.17.182v1.627c0,1.454-.857,2.282-2.15,2.948-1.773.915-2.306,6.1,1.029,7.8l.948.143,2.523-.977c-2.051-2.153-1.449-6.17.092-6.964Z" transform="translate(-189.386 -1229.228)" fill="#2b4d66"/>
        <path id="Trazado_27419" data-name="Trazado 27419" d="M266.663,1271.951c-1.3-.669-2.149-1.5-2.149-2.948v-1.653l-.271-.256h-2.9l-3.328,6.728v3.4l6.848,2.666.638-.193c3.266-1.738,2.917-6.842,1.16-7.748Z" transform="translate(-196.214 -1229.189)" fill="#365e7d"/>
        <path id="Trazado_27420" data-name="Trazado 27420" d="M260.525,1285.515l-8.151-3.157-.728.323H239.065l-.9-.318-8.132,3.153a7.008,7.008,0,0,0-4.094,6.349v8.847h31.671v-4.87h7.007v-3.976a6.986,6.986,0,0,0-4.094-6.349Z" transform="translate(-187.243 -1233.458)" fill="#ffd064"/>
        <path id="Trazado_27421" data-name="Trazado 27421" d="M265.87,1260.776l-.229-.23h-2.729v4.781l.151.311h2.06a2.489,2.489,0,0,0,.747-4.862Z" transform="translate(-197.583 -1227.358)" fill="#ffcebe"/>
        <path id="Trazado_27422" data-name="Trazado 27422" d="M237.835,1260.746v0a2.487,2.487,0,0,0,.668,4.883h2.15l.236-.275v-4.832h-2.88Z" transform="translate(-190.06 -1227.352)" fill="#ffcebe"/>
        <path id="Trazado_27423" data-name="Trazado 27423" d="M265.35,1260.546h-2.438v4.781l.151.311h2.06c.076,0,.152,0,.227-.012Z" transform="translate(-197.583 -1227.358)" fill="#ffb1a0"/>
        <path id="Trazado_27424" data-name="Trazado 27424" d="M238.453,1263.144a2.487,2.487,0,0,1,1.82-2.4v0l.176-.221h-2.438l-.176.221v0a2.487,2.487,0,0,0,.668,4.883h2.15l.014-.016A2.488,2.488,0,0,1,238.453,1263.144Z" transform="translate(-190.06 -1227.353)" fill="#ffb1a0"/>
        <path id="Trazado_27425" data-name="Trazado 27425" d="M269.908,1300.858v5.026h5.643a1.364,1.364,0,0,0,1.364-1.364v-3.663Z" transform="translate(-199.54 -1238.633)" fill="#ffcebe"/>
        <path id="Trazado_27426" data-name="Trazado 27426" d="M254.7,1279.661a.758.758,0,0,1-.484-.7v-2.536l-.333-.348h-7.653l-.388.362v2.516c0,.58-.517.719-.737.8l-2.186.848a7.465,7.465,0,0,0,14.207,0Z" transform="translate(-191.99 -1231.701)" fill="#ffcebe"/>
        <path id="Trazado_27427" data-name="Trazado 27427" d="M250.027,1276.074h-3.8l-.388.362v2.516c0,.58-.517.719-.737.8l-2.187.848a7.353,7.353,0,0,0,7.114,5.165Z" transform="translate(-191.99 -1231.701)" fill="#ffb1a0"/>
        <path id="Trazado_27428" data-name="Trazado 27428" d="M258.274,1258.593h-3.269l-2.568-3.19h-1.531l-2.381,2.579v6.579a7.535,7.535,0,0,0,5,7.11,7.452,7.452,0,0,0,5.512-7.172v-5.276Z" transform="translate(-193.559 -1225.92)" fill="#ffdecf"/>
        <path id="Trazado_27429" data-name="Trazado 27429" d="M247,1265.5v-6.778l-.907.983h-3.311l-.33.448v5.348a7.343,7.343,0,0,0,7.519,7.336,7.173,7.173,0,0,0,2.216-.342A7.289,7.289,0,0,1,247,1265.5Z" transform="translate(-191.862 -1226.848)" fill="#ffcebe"/>
        <path id="Trazado_27430" data-name="Trazado 27430" d="M248.669,1242.084a10.363,10.363,0,0,0-10.128,10.415v3.092a2.468,2.468,0,0,1,.669-.094h4.1c.254,0,1.681-.116,1.576-.108a4.326,4.326,0,0,0,3.8-3.277.125.125,0,0,1,.243,0,4.321,4.321,0,0,0,3.758,3.27c1.293.109,1.31.115,1.544.115h4.079a2.481,2.481,0,0,1,.761.12v-3.27A10.263,10.263,0,0,0,248.669,1242.084Z" transform="translate(-190.767 -1222.195)" fill="#365e7d"/>
        <g id="Grupo_17310" data-name="Grupo 17310" transform="translate(47.774 19.889)">
          <path id="Trazado_27431" data-name="Trazado 27431" d="M243.132,1252.5a10.416,10.416,0,0,1,7.975-10.153,10.261,10.261,0,0,0-12.566,10.153v3.092a2.468,2.468,0,0,1,.669-.094h3.922v-3Z" transform="translate(-238.541 -1242.084)" fill="#2b4d66"/>
        </g>
        <path id="Trazado_27432" data-name="Trazado 27432" d="M211.375,1260.052h-.592l-.267-.256H208.94v5.255l.46.241h1.975a2.624,2.624,0,0,0,0-5.241Z" transform="translate(-182.488 -1227.148)" fill="#ffcebe"/>
        <path id="Trazado_27433" data-name="Trazado 27433" d="M184.84,1260.052a2.624,2.624,0,0,0,0,5.24h1.975l.321-.593v-4.9H185.3Z" transform="translate(-175.053 -1227.148)" fill="#ffcebe"/>
        <path id="Trazado_27434" data-name="Trazado 27434" d="M211.537,1260.06c-.053,0-.107-.009-.162-.009h-.592l-.267-.256H208.94v5.255l.46.241h1.975c.055,0,.109-.005.163-.009v-5.223Z" transform="translate(-182.488 -1227.148)" fill="#ffb1a0"/>
        <path id="Trazado_27435" data-name="Trazado 27435" d="M184.953,1262.672a2.575,2.575,0,0,1,2.188-2.6v-.277H185.3l-.458.256a2.624,2.624,0,0,0,0,5.24h1.975l.041-.075A2.6,2.6,0,0,1,184.953,1262.672Z" transform="translate(-175.053 -1227.148)" fill="#ffb1a0"/>
        <path id="Trazado_27436" data-name="Trazado 27436" d="M206.8,1285.521l-8.05-3.118-.622.3H184.915l-.561-.322-8.042,3.141a7.011,7.011,0,0,0-4.094,6.349v3.561h7.007v5.286H210.9v-8.847a6.987,6.987,0,0,0-4.094-6.349Z" transform="translate(-172.218 -1233.464)" fill="#b3e59f"/>
        <path id="Trazado_27437" data-name="Trazado 27437" d="M178.213,1289.766c0-2.371.563-4.011,1.887-5.08l-3.788,1.479a7.009,7.009,0,0,0-4.094,6.35v3.56h6v-6.308Z" transform="translate(-172.218 -1234.11)" fill="#95d6a4"/>
        <path id="Trazado_27438" data-name="Trazado 27438" d="M179.225,1300.281h-7.007v4.078a1.364,1.364,0,0,0,1.364,1.364h5.643Z" transform="translate(-172.218 -1238.471)" fill="#ffb1a0"/>
        <path id="Trazado_27439" data-name="Trazado 27439" d="M200.938,1279.611a.758.758,0,0,1-.484-.7l0-2.488-.514-.525h-7.393l-.465.514v2.495a.7.7,0,0,1-.323.612l-2.691,1.051a7.612,7.612,0,0,0,14.4.024l-2.527-.979Z" transform="translate(-176.93 -1231.651)" fill="#ffcebe"/>
        <path id="Trazado_27440" data-name="Trazado 27440" d="M196.266,1275.894h-3.72l-.465.514v2.495a.7.7,0,0,1-.323.612l-2.691,1.051a7.484,7.484,0,0,0,7.2,5.15Z" transform="translate(-176.93 -1231.651)" fill="#ffb1a0"/>
        <path id="Trazado_27441" data-name="Trazado 27441" d="M205.4,1258.309l-.622-.415-.467-2.023H203.4l-3.787,2.749h-3.355l-.282.456v5.477a7.586,7.586,0,0,0,4.788,7.065,7.477,7.477,0,0,0,5.01-7.048v-5.412Z" transform="translate(-178.863 -1226.051)" fill="#ffdecf"/>
        <g id="Grupo_17311" data-name="Grupo 17311" transform="translate(11.766 32.57)">
          <path id="Trazado_27442" data-name="Trazado 27442" d="M194.012,1265.638v-5.354l.37-.6h-5.459l-.37.6v5.354a7.646,7.646,0,0,0,10.326,6.978,7.416,7.416,0,0,1-4.867-6.978Z" transform="translate(-188.553 -1259.688)" fill="#ffcebe"/>
        </g>
        <path id="Trazado_27443" data-name="Trazado 27443" d="M201.989,1245.535a1.393,1.393,0,0,1-1.5-1.1c-.231-1.182-.816-2.355-3.1-2.355h-7.933a5.272,5.272,0,0,0-5.271,5.272v5.786a2.22,2.22,0,0,0,2.219,2.22h9a5.269,5.269,0,0,0,4.65-2.79.14.14,0,0,1,.264.068,2.73,2.73,0,0,0,2.722,2.722,1.431,1.431,0,0,0,1.427-1.427V1247.9a2.364,2.364,0,0,0-2.474-2.361Z" transform="translate(-175.563 -1222.195)" fill="#365e7d"/>
        <g id="Grupo_17312" data-name="Grupo 17312" transform="translate(8.614 19.889)">
          <path id="Trazado_27444" data-name="Trazado 27444" d="M188.652,1253.142v-5.786a5.272,5.272,0,0,1,5.271-5.272h-4.475a5.272,5.272,0,0,0-5.271,5.272v5.786a2.22,2.22,0,0,0,2.219,2.22h4.475A2.22,2.22,0,0,1,188.652,1253.142Z" transform="translate(-184.177 -1242.084)" fill="#2b4d66"/>
        </g>
        <path id="Trazado_27445" data-name="Trazado 27445" d="M238.23,1288.01h-.593l-.266-.255h-1.576v5.254l.46.241h1.976a2.623,2.623,0,0,0,0-5.24Z" transform="translate(-189.999 -1234.968)" fill="#ffcebe"/>
        <path id="Trazado_27446" data-name="Trazado 27446" d="M211.694,1288.01a2.623,2.623,0,0,0,0,5.24h1.976l.321-.593v-4.9h-1.843Z" transform="translate(-182.564 -1234.968)" fill="#ffcebe"/>
        <path id="Trazado_27447" data-name="Trazado 27447" d="M238.392,1288.019c-.054,0-.107-.009-.162-.009h-.593l-.266-.255h-1.576v5.254l.46.241h1.976c.055,0,.108,0,.162-.008v-5.223Z" transform="translate(-189.999 -1234.968)" fill="#ffb1a0"/>
        <path id="Trazado_27448" data-name="Trazado 27448" d="M211.807,1290.63a2.575,2.575,0,0,1,2.188-2.6v-.277h-1.843l-.458.256a2.623,2.623,0,0,0,0,5.239h1.975l.041-.075a2.6,2.6,0,0,1-1.907-2.545Z" transform="translate(-182.564 -1234.968)" fill="#ffb1a0"/>
        <path id="Trazado_27449" data-name="Trazado 27449" d="M233.657,1313.48l-8.05-3.118-.622.3H211.769l-.56-.321-8.042,3.141a7.009,7.009,0,0,0-4.094,6.349v3.56h7.007v4.871h24.664v-4.871h7.007v-3.56a6.988,6.988,0,0,0-4.094-6.349Z" transform="translate(-179.729 -1241.284)" fill="#80b4fb"/>
        <path id="Trazado_27450" data-name="Trazado 27450" d="M205.068,1317.725c0-2.371.563-4.011,1.887-5.08l-3.788,1.479a7.009,7.009,0,0,0-4.094,6.35v3.56h6v-6.309Z" transform="translate(-179.729 -1241.929)" fill="#61a2f9"/>
        <path id="Trazado_27451" data-name="Trazado 27451" d="M206.08,1328.24h-7.007v3.662a1.364,1.364,0,0,0,1.364,1.364h5.642Z" transform="translate(-179.729 -1246.291)" fill="#ffb1a0"/>
        <path id="Trazado_27452" data-name="Trazado 27452" d="M243.04,1328.24v5.026h5.643a1.364,1.364,0,0,0,1.364-1.364v-3.662Z" transform="translate(-192.025 -1246.291)" fill="#ffcebe"/>
        <path id="Trazado_27453" data-name="Trazado 27453" d="M227.793,1307.569a.757.757,0,0,1-.483-.7l0-2.488-.514-.526H219.4l-.465.514v2.495a.7.7,0,0,1-.323.613l-2.69,1.05a7.611,7.611,0,0,0,14.4.023l-2.527-.978Z" transform="translate(-184.441 -1239.47)" fill="#ffcebe"/>
        <path id="Trazado_27454" data-name="Trazado 27454" d="M223.12,1303.852H219.4l-.465.514v2.495a.7.7,0,0,1-.323.613l-2.69,1.05a7.481,7.481,0,0,0,7.2,5.15Z" transform="translate(-184.441 -1239.47)" fill="#ffb1a0"/>
        <path id="Trazado_27455" data-name="Trazado 27455" d="M232.252,1286.268l-.622-.416-.467-2.023h-.908l-3.787,2.75h-3.355l-.283.456v5.476a7.586,7.586,0,0,0,4.789,7.065,7.476,7.476,0,0,0,5.009-7.047v-5.412Z" transform="translate(-186.373 -1233.87)" fill="#ffdecf"/>
        <g id="Grupo_17313" data-name="Grupo 17313" transform="translate(31.111 52.709)">
          <path id="Trazado_27456" data-name="Trazado 27456" d="M220.867,1293.6v-5.354l.37-.6h-5.459l-.37.6v5.354a7.644,7.644,0,0,0,10.325,6.978,7.414,7.414,0,0,1-4.866-6.978Z" transform="translate(-215.408 -1287.647)" fill="#ffcebe"/>
        </g>
        <path id="Trazado_27457" data-name="Trazado 27457" d="M228.844,1273.494a1.393,1.393,0,0,1-1.5-1.1c-.231-1.183-.817-2.355-3.1-2.355H216.3a5.271,5.271,0,0,0-5.272,5.271v5.786a2.22,2.22,0,0,0,2.22,2.22h9a5.269,5.269,0,0,0,4.65-2.79.141.141,0,0,1,.264.068,2.73,2.73,0,0,0,2.722,2.722,1.432,1.432,0,0,0,1.427-1.427v-6.038a2.364,2.364,0,0,0-2.474-2.361Z" transform="translate(-183.073 -1230.014)" fill="#365e7d"/>
        <g id="Grupo_17314" data-name="Grupo 17314" transform="translate(27.958 40.029)">
          <path id="Trazado_27458" data-name="Trazado 27458" d="M215.506,1281.1v-5.786a5.271,5.271,0,0,1,5.272-5.271H216.3a5.271,5.271,0,0,0-5.272,5.271v5.786a2.22,2.22,0,0,0,2.22,2.22h4.475a2.22,2.22,0,0,1-2.22-2.22Z" transform="translate(-211.031 -1270.043)" fill="#2b4d66"/>
        </g>
      </g>
      <path id="Trazado_27459" data-name="Trazado 27459" d="M245.456,1264.665l-.026-.01-1.992-.772c2.079-2.8,1.578-7.286-.714-8.467-1.2-.621-1.439-1.124-1.439-1.782v-.839a3.8,3.8,0,0,0,0-6.368v-2.457a11.55,11.55,0,0,0-18.78-9.008,1.447,1.447,0,0,1-.563-1.217v-.839a3.8,3.8,0,0,0,0-6.369v-2.456a11.569,11.569,0,0,0-11.576-11.578h-.154a11.7,11.7,0,0,0-11.425,11.73v2.245a3.8,3.8,0,0,0,0,6.486v.78c0,.573-.179,1.029-1.021,1.547-.56-1.923-1.99-2.9-4.264-2.9h-7.935a6.593,6.593,0,0,0-6.586,6.585v5.787a3.526,3.526,0,0,0,.281,1.381,3.974,3.974,0,0,0-1.593,3.2,3.873,3.873,0,0,0,3.8,3.933h.712a8.62,8.62,0,0,0,3.334,5.97v1.419l-10.224,3.993-.022.009a8.292,8.292,0,0,0-4.908,7.565v7.473a2.68,2.68,0,0,0,2.677,2.677h26.719l-5.122,2-.022.008a8.293,8.293,0,0,0-4.908,7.565v7.472a2.68,2.68,0,0,0,2.677,2.677H207.3a1.312,1.312,0,0,0,0-2.625h-7.785v-6.8a1.312,1.312,0,0,0-2.625,0v1.774h-4.559v-2.5a5.69,5.69,0,0,1,3.272-5.133l6.838-2.671a8.956,8.956,0,0,0,15.833.018l6.851,2.654a5.683,5.683,0,0,1,3.27,5.132v2.5h-4.559v-1.774a1.312,1.312,0,0,0-2.625,0v6.8h-7.785a1.313,1.313,0,0,0,0,2.626h14.917a2.68,2.68,0,0,0,2.677-2.677v-7.472a8.291,8.291,0,0,0-4.908-7.565l-.025-.01-5.163-2h26.762a2.68,2.68,0,0,0,2.677-2.677v-7.472a8.29,8.29,0,0,0-4.907-7.565Zm-53.124,34.6v-2.188h4.558v2.4h-4.507a.052.052,0,0,1-.051-.053Zm31.5.213v-2.4h4.559v2.349a.052.052,0,0,1-.052.053Zm23.9-27.248v2.5H243.18v-1.774a1.313,1.313,0,0,0-2.626,0v6.8H215.862c0-.4,0-.227,0-.768A8.79,8.79,0,0,0,219.2,1273h.713a3.873,3.873,0,0,0,3.8-3.933v-.013a3.941,3.941,0,0,0-2.476-3.674c0-.109,0-.292,0-.722l.622-.241a8.6,8.6,0,0,0,4.1,3.973,1.312,1.312,0,1,0,1.093-2.386,5.971,5.971,0,0,1-2.735-2.541l.61-.237a2.333,2.333,0,0,0,1.895-2.152v-.43a9.037,9.037,0,0,0,5.752.014v.424a2.058,2.058,0,0,0,1.322,1.924l1.16.449a6.123,6.123,0,0,1-2.941,2.652,1.312,1.312,0,0,0,1.031,2.414,8.744,8.744,0,0,0,4.373-4.111l6.942,2.688a5.683,5.683,0,0,1,3.27,5.132Zm-43.637-.544v-3.666h6.76a6.589,6.589,0,0,0,4.375-1.663,4.073,4.073,0,0,0,1.388,1.2v4.129a6.267,6.267,0,1,1-12.524,0Zm-3.289-1.312a1.249,1.249,0,0,1-1.176-1.308,1.285,1.285,0,0,1,.949-1.281,3.738,3.738,0,0,0,.891.216v2.374Zm-2.282-13.318a6.832,6.832,0,0,0-.208,1.645v2.694l-1.8-.7v-1.432a8.873,8.873,0,0,0,2.014-2.207Zm1.838-20.523a4.106,4.106,0,0,0,1.042-3.01h.246a8.549,8.549,0,0,0,3.2,5.812v1.469l-2.964,1.149v-2.435A3.662,3.662,0,0,0,200.369,1236.533Zm-.778-6.812a1.179,1.179,0,0,1,1.176-1.176h.838v2.353h-.838A1.179,1.179,0,0,1,199.591,1229.721Zm10.774-3.289a5.57,5.57,0,0,0,3.768,1.993,15.979,15.979,0,0,0,2.363.12v3.666a6.109,6.109,0,0,1-6.051,6.4,6.037,6.037,0,0,1-6.214-6.4v-3.666c2.544,0,4.494-.151,6.134-2.113Zm9.5,2.113a1.176,1.176,0,1,1,0,2.353h-.747v-2.353Zm9.84,17.776a5.727,5.727,0,0,0,1.66,1.355,6.014,6.014,0,0,0,2.691.687,12.322,12.322,0,0,0,1.781.071v3.666a6.142,6.142,0,0,1-9.6,5.364,6,6,0,0,1-2.669-4.994v-4.036c2.561,0,4.51-.17,6.134-2.113Zm9.5,2.113a1.177,1.177,0,0,1,0,2.353h-.748v-2.353ZM214.355,1263.3a3.955,3.955,0,0,1-3.494,2.1h-9.006a.913.913,0,0,1-.908-.9V1258.7a3.965,3.965,0,0,1,3.96-3.96h7.935c1.454,0,1.663.513,1.816,1.3a2.707,2.707,0,0,0,2.892,2.153h0a1.054,1.054,0,0,1,1.062,1.053v6.039h0a.123.123,0,0,1-.115.115,1.417,1.417,0,0,1-1.41-1.411,1.453,1.453,0,0,0-2.734-.687Zm6.885-1.456v-2.6a3.658,3.658,0,0,0-1.441-2.919,4.074,4.074,0,0,0,.954-2.911H221a8.578,8.578,0,0,0,3.2,5.812v1.469l-2.963,1.149Zm-4.931-12.232a3.809,3.809,0,0,0,1.82,3.243v.78a1.678,1.678,0,0,1-.98,1.521c-.563-2.142-2.147-3.039-4.306-3.039H204.9a6.639,6.639,0,0,0-1.962.3,4,4,0,0,0-1.045-6.76c0-.074,0-.813,0-.887l.618-.24a8.8,8.8,0,0,0,15.615.086v1.752a3.808,3.808,0,0,0-1.82,3.243Zm-16.79,5.309a9.073,9.073,0,0,0,.337-1.644h.713a3.876,3.876,0,0,0,.712-.069A6.787,6.787,0,0,0,199.52,1254.918Zm13.717-14.15v.424a2.057,2.057,0,0,0,1.323,1.924l1.157.448a6.178,6.178,0,0,1-10.739.009c1.053-.408,2.507-.765,2.507-2.389v-.43A9.079,9.079,0,0,0,213.237,1240.768Zm-12.913,7.265h.246a1.315,1.315,0,0,1,0,2.616h-.663v-2.458A3.376,3.376,0,0,0,200.324,1248.033Zm18.926,19.882a3.409,3.409,0,0,0,.418-.158h.246a1.315,1.315,0,0,1,0,2.616h-.663Zm1.7-17.129h-.838a1.177,1.177,0,1,1,0-2.353h.838Zm-2.586-9.012-2.5-.969v-1.5a8.742,8.742,0,0,0,3.2-5.786h.255a4.137,4.137,0,0,0,1.335,3.3,11.925,11.925,0,0,0-2.288,4.947Zm23.158,15.973c.7.361,1.139,3.646-.708,5.119l-5.607-2.172v-1.5a8.741,8.741,0,0,0,3.2-5.786h.255C238.66,1255.52,239.575,1256.745,241.521,1257.748ZM236,1237.6a8.889,8.889,0,0,1,2.664,6.371v1.839h-3.529c-.175,0-.207-.006-1.433-.111a3.03,3.03,0,0,1-2.594-2.27,1.439,1.439,0,0,0-2.795,0,3.032,3.032,0,0,1-2.625,2.279,37.127,37.127,0,0,1-4.931.1v-1.686A8.975,8.975,0,0,1,236,1237.6Zm-34.586-13.365a9.065,9.065,0,0,1,8.834-9.1,8.947,8.947,0,0,1,9.072,8.952v1.84a34.371,34.371,0,0,1-4.962-.111,3.027,3.027,0,0,1-2.594-2.271,1.437,1.437,0,0,0-2.795,0,3.03,3.03,0,0,1-2.652,2.28,38.256,38.256,0,0,1-4.9.1v-1.687ZM181.6,1238.976a3.966,3.966,0,0,1,3.961-3.96H193.5c1.454,0,1.663.513,1.815,1.3a2.716,2.716,0,0,0,2.894,2.152,1.055,1.055,0,0,1,1.062,1.054v6.039a.124.124,0,0,1-.115.115,1.418,1.418,0,0,1-1.41-1.411,1.453,1.453,0,0,0-2.734-.688h0a3.957,3.957,0,0,1-3.494,2.1h-9.006a.911.911,0,0,1-.908-.908v-5.787Zm-1.312,10.365a1.284,1.284,0,0,1,.947-1.283,3.756,3.756,0,0,0,.894.217v2.374h-.663A1.249,1.249,0,0,1,180.292,1249.341Zm4.465,2.621V1248.3h6.76a6.576,6.576,0,0,0,4.376-1.663,4.065,4.065,0,0,0,1.388,1.2v4.129c0,4.019-2.752,6.53-6.154,6.53a6.2,6.2,0,0,1-6.371-6.53Zm9.136,8.707v.411a2.056,2.056,0,0,0,1.322,1.925l1.248.483a6.143,6.143,0,0,1-5.335,3.089,6.279,6.279,0,0,1-5.566-3.114l1.422-.556a1.974,1.974,0,0,0,1.157-1.835v-.427a9.3,9.3,0,0,0,5.753.024ZM176.26,1267.1l6.838-2.67a8.967,8.967,0,0,0,15.325.88,3.05,3.05,0,0,0,.18.562,3.98,3.98,0,0,0-1.591,3.2,3.873,3.873,0,0,0,3.8,3.933h.712a8.691,8.691,0,0,0,3.335,5.982v.774H180.172v-6.8a1.312,1.312,0,0,0-2.625,0v1.774h-4.559v-2.5a5.693,5.693,0,0,1,3.272-5.133Zm-3.272,12.606v-2.349h4.559v2.4H173.04a.052.052,0,0,1-.052-.052Zm37.484,6.6a6.278,6.278,0,0,1-5.566-3.114l1.422-.555a2,2,0,0,0,1.158-1.835v-.427a9.285,9.285,0,0,0,5.752.024,2.229,2.229,0,0,0,1.021,2.19,11.552,11.552,0,0,0,1.548.628,6.143,6.143,0,0,1-5.335,3.089Zm37.267-6.6a.051.051,0,0,1-.052.052H243.18v-2.4h4.558Z" transform="translate(-170.363 -1212.502)" fill="#00223d"/>
    </g>
  </g>
</svg>
