<svg xmlns="http://www.w3.org/2000/svg" width="113" height="113" viewBox="0 0 113 113">
  <g id="Grupo_17499" data-name="Grupo 17499" transform="translate(-854 -1598)">
    <g id="Grupo_17497" data-name="Grupo 17497" transform="translate(869 1614)">
      <path id="Trazado_27870" data-name="Trazado 27870" d="M1246.623,383.355a8.056,8.056,0,0,0-8.053,8.054v45.1h16.107v-45.1A8.055,8.055,0,0,0,1246.623,383.355Z" transform="translate(-1173.818 -363.704)" fill="#ececf1"/>
      <path id="Trazado_27871" data-name="Trazado 27871" d="M1160.511,383.355a8.057,8.057,0,0,0-8.054,8.054v45.1h16.107v-45.1A8.055,8.055,0,0,0,1160.511,383.355Z" transform="translate(-1150.846 -363.704)" fill="#ececf1"/>
      <path id="Trazado_27872" data-name="Trazado 27872" d="M1199.992,420.258h22.873V400.929H1179.7Z" transform="translate(-1158.113 -368.392)" fill="#7fe881"/>
      <path id="Trazado_27873" data-name="Trazado 27873" d="M1168.564,414.11v30.6a8.054,8.054,0,1,0-16.107,0c0,4.683,4.067,8.053,8.513,8.053h7.594l20.3-19.329Z" transform="translate(-1150.846 -371.909)" fill="#76e2f8"/>
      <path id="Trazado_27874" data-name="Trazado 27874" d="M1236.7,443.969a8.069,8.069,0,0,0-10.2,7.777V440.47h-13.853L1193.316,459.8h41.235a8.061,8.061,0,0,0,2.146-15.83Z" transform="translate(-1161.746 -378.94)" fill="#76e2f8"/>
      <path id="Trazado_27875" data-name="Trazado 27875" d="M1221.458,420.258v9.664h-13.853l-19.329,19.329h-13.852l20.3-19.329-20.3-19.328v-9.665h3.866l20.3,19.329Z" transform="translate(-1156.706 -368.392)" fill="#fed2a4"/>
      <path id="Trazado_27876" data-name="Trazado 27876" d="M1201.223,358.751a14.5,14.5,0,0,1,14.5,14.5c0,3.945-3.516,10.645-7.085,16.43-3.678,5.963-7.412,10.953-7.412,10.953s-3.734-4.99-7.411-10.953c-3.569-5.785-7.085-12.485-7.085-16.43A14.5,14.5,0,0,1,1201.223,358.751Z" transform="translate(-1159.988 -357.141)" fill="#ff637b"/>
      <path id="Trazado_27877" data-name="Trazado 27877" d="M1204.153,369.735a6.443,6.443,0,1,1-6.443,6.443A6.45,6.45,0,0,1,1204.153,369.735Z" transform="translate(-1162.918 -360.071)" fill="#ececf1"/>
      <path id="Trazado_27878" data-name="Trazado 27878" d="M1223.065,374.595a9.662,9.662,0,0,0-9.664,9.665v3.221h-11.647c3.881-6.638,5.848-11.616,5.848-14.819a16.107,16.107,0,1,0-32.214,0c0,3.2,1.968,8.181,5.848,14.819h-11.647V384.26a9.664,9.664,0,1,0-19.329,0v9.02a1.611,1.611,0,0,0,3.222,0v-9.02a6.443,6.443,0,1,1,12.886,0v37.9a9.644,9.644,0,0,0-12.886,0v-16a1.611,1.611,0,0,0-3.222,0V429.36c0,5.526,4.77,9.664,10.124,9.664h62.681a9.675,9.675,0,0,0,9.665-9.664v-45.1A9.676,9.676,0,0,0,1223.065,374.595Zm-6.443,9.665a6.443,6.443,0,0,1,12.886,0v37.859a9.413,9.413,0,0,0-3.894-2.095,9.719,9.719,0,0,0-8.992,2.132Zm-3.221,22.55h-20.618L1175.871,390.7h7.318c3.517,5.617,6.98,10.259,7.016,10.307a1.611,1.611,0,0,0,2.58,0c.036-.048,3.5-4.69,7.016-10.307h13.6ZM1191.5,359.776a12.9,12.9,0,0,1,12.886,12.886c0,5.98-9.434,19.811-12.886,24.643-3.506-4.909-12.886-18.717-12.886-24.643A12.9,12.9,0,0,1,1191.5,359.776Zm-38.013,69.584a6.443,6.443,0,1,1,12.886,0,1.611,1.611,0,0,0,3.221,0V402.514l16.349,15.57-18.6,17.719h-6.95A6.688,6.688,0,0,1,1153.482,429.36Zm35.9-10.109a1.61,1.61,0,0,0,0-2.332l-19.8-18.853V390.7h1.611l19.829,18.885a1.611,1.611,0,0,0,1.111.444H1213.4v6.443h-12.242a1.61,1.61,0,0,0-1.139.471L1181.163,435.8H1172Zm33.681,16.552h-37.346l16.108-16.108H1213.4v9.665a1.61,1.61,0,0,0,3.221,0,6.459,6.459,0,0,1,8.186-6.217,6.343,6.343,0,0,1,4.7,6.217A6.45,6.45,0,0,1,1223.065,435.8Z" transform="translate(-1150.26 -356.555)" fill="#00223d"/>
      <path id="Trazado_27879" data-name="Trazado 27879" d="M1203.567,383.646a8.054,8.054,0,1,0-8.054-8.054A8.063,8.063,0,0,0,1203.567,383.646Zm0-12.886a4.832,4.832,0,1,1-4.832,4.832A4.837,4.837,0,0,1,1203.567,370.76Z" transform="translate(-1162.332 -359.485)" fill="#00223d"/>
      <path id="Trazado_27880" data-name="Trazado 27880" d="M1151.871,416.452a1.611,1.611,0,1,0-1.611-1.61A1.612,1.612,0,0,0,1151.871,416.452Z" transform="translate(-1150.26 -371.674)" fill="#00223d"/>
    </g>
    <rect id="Rectángulo_4369" data-name="Rectángulo 4369" width="113" height="113" transform="translate(854 1598)" fill="none"/>
  </g>
</svg>
