<svg xmlns="http://www.w3.org/2000/svg" width="113" height="113" viewBox="0 0 113 113">
  <g id="Grupo_17328" data-name="Grupo 17328" transform="translate(-378 -5191)">
    <rect id="Rectángulo_4351" data-name="Rectángulo 4351" width="113" height="113" transform="translate(378 5191)" fill="none"/>
    <g id="Grupo_17308" data-name="Grupo 17308" transform="translate(396 5209)">
      <g id="Grupo_17306" data-name="Grupo 17306" transform="translate(1.3 1.299)">
        <path id="Trazado_27394" data-name="Trazado 27394" d="M346.133,1296.492l-20.782,20.783a5.206,5.206,0,0,1-7.352,0,5.111,5.111,0,0,1-1.052-1.546,5.174,5.174,0,0,1,1.052-5.806l20.783-20.782,4.754,4.754Z" transform="translate(-316.481 -1243.459)" fill="#4e342e"/>
        <path id="Trazado_27395" data-name="Trazado 27395" d="M343.536,1293.895l-20.782,20.783a5.194,5.194,0,0,1-3.676,1.52,5.088,5.088,0,0,1-2.13-.468,5.173,5.173,0,0,1,1.052-5.806l6.494-6.494,4.6-4.6,9.689-9.69Z" transform="translate(-316.481 -1243.459)" fill="#795548"/>
        <path id="Trazado_27396" data-name="Trazado 27396" d="M402.236,1237.978a31.181,31.181,0,0,1-31.173,31.173c-.662,0-1.312-.026-1.948-.065a31.169,31.169,0,0,1,0-62.217c.636-.039,1.286-.065,1.948-.065A31.181,31.181,0,0,1,402.236,1237.978Z" transform="translate(-326.902 -1206.805)" fill="#283593"/>
        <ellipse id="Elipse_1028" data-name="Elipse 1028" cx="29.225" cy="31.108" rx="29.225" ry="31.108" transform="translate(12.987 0.065)" fill="#3f51b5"/>
        <path id="Trazado_27397" data-name="Trazado 27397" d="M401.209,1242.147a26,26,0,0,1-25.978,25.978q-.994,0-1.948-.078a25.972,25.972,0,0,1,0-51.8q.955-.078,1.948-.078A26,26,0,0,1,401.209,1242.147Z" transform="translate(-331.07 -1210.974)" fill="#00838f"/>
        <ellipse id="Elipse_1029" data-name="Elipse 1029" cx="24.029" cy="25.9" rx="24.029" ry="25.9" transform="translate(18.183 5.273)" fill="#00bcd4"/>
        <g id="Grupo_17305" data-name="Grupo 17305" transform="translate(33.769 12.992)">
          <path id="Trazado_27398" data-name="Trazado 27398" d="M387.737,1256.2a2.6,2.6,0,0,1-2.6-2.6v-4a3.91,3.91,0,0,1,3.346-3.848,5.21,5.21,0,0,0,4.327-6.291,5.135,5.135,0,0,0-3.928-3.929,5.2,5.2,0,0,0-6.342,5.076,2.6,2.6,0,1,1-5.2,0,10.39,10.39,0,1,1,12.988,10.064v2.927A2.6,2.6,0,0,1,387.737,1256.2Z" transform="translate(-377.346 -1230.222)" fill="#fff"/>
          <circle id="Elipse_1030" data-name="Elipse 1030" cx="2.598" cy="2.598" r="2.598" transform="translate(7.794 31.17)" fill="#fff"/>
        </g>
        <rect id="Rectángulo_4352" data-name="Rectángulo 4352" width="6.507" height="3.673" transform="translate(12.771 64.722) rotate(-45)" fill="#cfd8dc"/>
        <rect id="Rectángulo_4353" data-name="Rectángulo 4353" width="6.507" height="6.723" transform="translate(8.014 59.97) rotate(-45)" fill="#fff"/>
      </g>
      <g id="Grupo_17307" data-name="Grupo 17307">
        <path id="Trazado_27399" data-name="Trazado 27399" d="M389.167,1228.122a11.7,11.7,0,0,0-14.161,11.435,3.9,3.9,0,1,0,7.792,0,3.9,3.9,0,0,1,4.779-3.8,3.817,3.817,0,0,1,2.921,2.923,3.953,3.953,0,0,1-.609,3.114,3.908,3.908,0,0,1-2.628,1.625,5.214,5.214,0,0,0-4.462,5.133v4a3.9,3.9,0,1,0,7.793,0v-1.967a11.7,11.7,0,0,0-1.425-22.458Zm4.977,16.649a9.119,9.119,0,0,1-5.177,3.593,1.3,1.3,0,0,0-.974,1.257v2.926a1.3,1.3,0,0,1-2.6,0v-4a2.6,2.6,0,0,1,2.233-2.561,6.5,6.5,0,0,0,.479-12.777,6.908,6.908,0,0,0-1.429-.151,6.4,6.4,0,0,0-4.076,1.454,6.48,6.48,0,0,0-2.4,5.044,1.3,1.3,0,1,1-2.6,0,9.094,9.094,0,1,1,16.54,5.214Z" transform="translate(-341.235 -1214.879)" fill="#00223d"/>
        <path id="Trazado_27400" data-name="Trazado 27400" d="M392.949,1284.061a3.9,3.9,0,1,0,3.9,3.9A3.9,3.9,0,0,0,392.949,1284.061Zm0,5.2a1.3,1.3,0,1,1,1.3-1.3A1.3,1.3,0,0,1,392.949,1289.256Z" transform="translate(-347.488 -1239.899)" fill="#00223d"/>
        <path id="Trazado_27401" data-name="Trazado 27401" d="M359.6,1204.464a32.451,32.451,0,0,0-27.08,50.364l-5.387,5.387h0l-4.6,4.6h0l-6.494,6.494a6.5,6.5,0,0,0,9.189,9.189L331.72,1274h0l4.6-4.6h0l5.387-5.387a32.466,32.466,0,1,0,17.892-59.552Zm-28.8,66.784-5.515-5.515,2.762-2.761,5.514,5.514Zm-7.413,7.413a4,4,0,0,1-5.515,0,3.906,3.906,0,0,1,0-5.516l5.576-5.576,5.516,5.516Zm12.011-12.011-5.515-5.515,4.177-4.177a32.738,32.738,0,0,0,5.514,5.514Zm24.2.161a29.874,29.874,0,1,1,29.875-29.875A29.875,29.875,0,0,1,359.6,1266.811Z" transform="translate(-314.138 -1204.464)" fill="#00223d"/>
        <path id="Trazado_27402" data-name="Trazado 27402" d="M374.189,1213.828a27.277,27.277,0,1,0,27.277,27.277A27.277,27.277,0,0,0,374.189,1213.828Zm0,51.956a24.679,24.679,0,1,1,24.679-24.679A24.678,24.678,0,0,1,374.189,1265.784Z" transform="translate(-328.729 -1208.633)" fill="#00223d"/>
      </g>
    </g>
  </g>
</svg>
