<svg xmlns="http://www.w3.org/2000/svg" width="113" height="113" viewBox="0 0 113 113">
  <g id="Grupo_17254" data-name="Grupo 17254" transform="translate(-729 -2539)">
    <g id="Grupo_17245" data-name="Grupo 17245" transform="translate(1257.645 982.979)">
      <path id="Trazado_27242" data-name="Trazado 27242" d="M-509.383,1580.333v19.805a59.938,59.938,0,0,0,25.244,48.876l7.633,5.418a9.607,9.607,0,0,0,11.122,0l7.633-5.418a59.938,59.938,0,0,0,25.244-48.876v-19.805a4.345,4.345,0,0,0-3.625-4.285l-33.741-5.674a6.47,6.47,0,0,0-2.144,0l-33.742,5.673A4.346,4.346,0,0,0-509.383,1580.333Z" transform="translate(-0.941 -0.941)" fill="#ff9400"/>
      <path id="Trazado_27243" data-name="Trazado 27243" d="M-500.554,1588.852V1606A51.9,51.9,0,0,0-478.7,1648.32l6.609,4.692a8.321,8.321,0,0,0,9.631,0l6.609-4.692A51.9,51.9,0,0,0-433.99,1606v-17.148a3.762,3.762,0,0,0-3.138-3.71l-29.215-4.913a5.6,5.6,0,0,0-1.857,0l-29.215,4.913A3.762,3.762,0,0,0-500.554,1588.852Z" transform="translate(-4.613 -5.045)" fill="#ff7a00"/>
      <path id="Trazado_27244" data-name="Trazado 27244" d="M-446.95,1619.714a10.571,10.571,0,0,1,10.571-10.571,10.658,10.658,0,0,1,1.711.14c.008-.356.013-.713.013-1.071v-15.961a3.5,3.5,0,0,0-2.921-3.453l-17.5-2.943a10.571,10.571,0,0,1-10.505,9.4,10.572,10.572,0,0,1-10.507-9.415l-17.6,2.959a3.5,3.5,0,0,0-2.921,3.453v15.961c0,.357.005.714.013,1.071a10.655,10.655,0,0,1,1.711-.14,10.571,10.571,0,0,1,10.572,10.571,10.574,10.574,0,0,1-7.231,10.03,48.285,48.285,0,0,0,15.28,17.857l6.151,4.366a7.743,7.743,0,0,0,8.964,0L-455,1647.6a48.283,48.283,0,0,0,15.279-17.857A10.574,10.574,0,0,1-446.95,1619.714Z" transform="translate(-6.254 -7.41)" fill="#ffe92f"/>
      <path id="Trazado_27245" data-name="Trazado 27245" d="M-433.058,1589.947l-8-1.346-44.685,44.684a48.268,48.268,0,0,0,4.066,6.025l49.21-49.21A3.492,3.492,0,0,0-433.058,1589.947Z" transform="translate(-10.771 -8.559)" fill="#fff80b"/>
      <path id="Trazado_27246" data-name="Trazado 27246" d="M-425.843,1596a3.493,3.493,0,0,0-.194-1.143l-49.385,49.385q1,1.109,2.064,2.16l47.515-47.515V1596Z" transform="translate(-15.065 -11.162)" fill="#ff0"/>
      <path id="Trazado_27247" data-name="Trazado 27247" d="M-415.458,1594.86a1.321,1.321,0,0,0-1.321,1.321l-.014,14.177a58.709,58.709,0,0,1-24.688,47.8l-7.633,5.418a8.3,8.3,0,0,1-9.593,0l-7.633-5.418a1.321,1.321,0,0,0-1.842.313,1.321,1.321,0,0,0,.313,1.842l7.633,5.418a10.916,10.916,0,0,0,6.326,2.015,10.918,10.918,0,0,0,6.326-2.015l7.633-5.418a61.357,61.357,0,0,0,25.8-49.954l.015-14.178A1.321,1.321,0,0,0-415.458,1594.86Z" transform="translate(-17.975 -11.162)" fill="#00223d"/>
      <path id="Trazado_27248" data-name="Trazado 27248" d="M-488.347,1643.861A58.514,58.514,0,0,1-509,1599.2v-19.805a3.016,3.016,0,0,1,2.523-2.983l33.741-5.673a5.138,5.138,0,0,1,1.706,0l33.741,5.673a3.016,3.016,0,0,1,2.523,2.983,1.321,1.321,0,0,0,1.321,1.321,1.321,1.321,0,0,0,1.321-1.321,5.65,5.65,0,0,0-4.727-5.588l-33.742-5.674a7.754,7.754,0,0,0-2.583,0l-33.741,5.674a5.65,5.65,0,0,0-4.727,5.588V1599.2a61.152,61.152,0,0,0,21.587,46.677,1.314,1.314,0,0,0,.855.314,1.318,1.318,0,0,0,1.008-.466A1.322,1.322,0,0,0-488.347,1643.861Z" fill="#00223d"/>
      <path id="Trazado_27249" data-name="Trazado 27249" d="M-437.32,1609.523a9.376,9.376,0,0,1,1.5.123,1.321,1.321,0,0,0,1.057-.288,1.322,1.322,0,0,0,.477-.987c.009-.406.013-.766.013-1.1V1591.31a4.81,4.81,0,0,0-4.023-4.756l-17.5-2.943a1.321,1.321,0,0,0-1.016.249,1.323,1.323,0,0,0-.517.909,9.258,9.258,0,0,1-3.821,6.5,1.321,1.321,0,0,0-.307,1.844,1.321,1.321,0,0,0,1.843.307,11.923,11.923,0,0,0,4.676-6.987l16.2,2.725a2.174,2.174,0,0,1,1.819,2.15v15.577q-.2-.007-.4-.007a11.906,11.906,0,0,0-11.892,11.893,11.874,11.874,0,0,0,6.714,10.707,47.16,47.16,0,0,1-14.206,16.1l-6.151,4.366a6.428,6.428,0,0,1-7.434,0l-6.151-4.366a47.16,47.16,0,0,1-14.206-16.1,11.875,11.875,0,0,0,6.714-10.707,11.906,11.906,0,0,0-11.893-11.892q-.2,0-.4.007V1591.31a2.174,2.174,0,0,1,1.82-2.15l16.3-2.74a11.87,11.87,0,0,0,11.589,9.214,12.132,12.132,0,0,0,1.351-.076,1.321,1.321,0,0,0,1.164-1.462,1.321,1.321,0,0,0-1.461-1.165,9.444,9.444,0,0,1-1.054.06,9.229,9.229,0,0,1-9.193-8.237,1.322,1.322,0,0,0-.516-.911,1.32,1.32,0,0,0-1.017-.249l-17.6,2.959a4.809,4.809,0,0,0-4.023,4.756v15.961c0,.333,0,.683.013,1.1a1.323,1.323,0,0,0,.476.987,1.324,1.324,0,0,0,1.058.288,9.369,9.369,0,0,1,1.5-.123,9.26,9.26,0,0,1,9.25,9.25,9.236,9.236,0,0,1-6.327,8.775,1.323,1.323,0,0,0-.8.747,1.322,1.322,0,0,0,.037,1.1,49.8,49.8,0,0,0,15.7,18.345l6.151,4.366a9.053,9.053,0,0,0,5.246,1.67,9.053,9.053,0,0,0,5.246-1.67l6.152-4.366a49.8,49.8,0,0,0,15.7-18.345,1.322,1.322,0,0,0,.037-1.1,1.322,1.322,0,0,0-.8-.747,9.236,9.236,0,0,1-6.327-8.775A9.261,9.261,0,0,1-437.32,1609.523Z" transform="translate(-5.313 -6.469)" fill="#00223d"/>
    </g>
    <rect id="Rectángulo_4345" data-name="Rectángulo 4345" width="113" height="113" transform="translate(729 2539)" fill="none"/>
  </g>
</svg>
