<svg xmlns="http://www.w3.org/2000/svg" width="113" height="113" viewBox="0 0 113 113">
  <g id="Grupo_17337" data-name="Grupo 17337" transform="translate(-378 -5918)">
    <g id="Grupo_17333" data-name="Grupo 17333" transform="translate(0 506)">
      <rect id="Rectángulo_4354" data-name="Rectángulo 4354" width="113" height="113" transform="translate(378 5412)" fill="none"/>
    </g>
    <g id="Grupo_17323" data-name="Grupo 17323" transform="translate(395 5935)">
      <g id="Grupo_17318" data-name="Grupo 17318" transform="translate(1.529 1.529)">
        <path id="Trazado_27474" data-name="Trazado 27474" d="M-155.416,1209.076l-7.147,7.148a4.041,4.041,0,0,0,0,5.7l4.746,4.751,1.2-1.2,10.446-10.446,1.2-1.2-4.75-4.747A4.043,4.043,0,0,0-155.416,1209.076Z" transform="translate(163.737 -1207.903)" fill="#ffda8f" fill-rule="evenodd"/>
      </g>
      <g id="Grupo_17319" data-name="Grupo 17319" transform="translate(8.65 8.65)">
        <path id="Trazado_27475" data-name="Trazado 27475" d="M-118.129,1229.3c-8.474-8.474-16.077-2.31-19.479-5.713l-3.039-3.038-10.446,10.446,3.039,3.038c3.4,3.4-2.761,11.005,5.713,19.48l3.7,3.7,6.185-6.185a12.591,12.591,0,0,1,3.684-8.157,12.591,12.591,0,0,1,8.158-3.684l6.185-6.185Z" transform="translate(151.094 -1220.546)" fill="#b7eabc" fill-rule="evenodd"/>
      </g>
      <g id="Grupo_17320" data-name="Grupo 17320" transform="translate(21.099 21.099)">
        <path id="Trazado_27476" data-name="Trazado 27476" d="M-87.794,1259.629l-16.983-16.978-6.185,6.185a12.592,12.592,0,0,0-8.158,3.684,12.6,12.6,0,0,0-3.684,8.158l-6.185,6.185,16.978,16.983,6.19-6.19a12.63,12.63,0,0,0,8.158-3.68,12.635,12.635,0,0,0,3.68-8.158Z" transform="translate(128.989 -1242.651)" fill="#ff7d95" fill-rule="evenodd"/>
      </g>
      <g id="Grupo_17321" data-name="Grupo 17321" transform="translate(38.077 38.077)">
        <path id="Trazado_27477" data-name="Trazado 27477" d="M-84.494,1287.146a12.63,12.63,0,0,1-8.158,3.68l-6.19,6.19,12.393,12.388a7.073,7.073,0,0,0,5.015,2.08,7.092,7.092,0,0,0,7.092-7.1,7.089,7.089,0,0,0,7.091-7.091,7.093,7.093,0,0,0,7.1-7.091,7.075,7.075,0,0,0-2.081-5.015L-74.625,1272.8l-6.189,6.19A12.633,12.633,0,0,1-84.494,1287.146Z" transform="translate(98.842 -1272.798)" fill="#b7eabc" fill-rule="evenodd"/>
      </g>
      <g id="Grupo_17322" data-name="Grupo 17322" transform="translate(0 0)">
        <path id="Trazado_27478" data-name="Trazado 27478" d="M-88.161,1260.672a8.566,8.566,0,0,0-2.529-6.1l-12.347-12.347c-.014-.015-.026-.032-.042-.046s-.03-.028-.046-.042l-4.124-4.124a1.529,1.529,0,0,0-2.163,0,1.529,1.529,0,0,0,0,2.162l3.086,3.086-5.106,5.106a1.53,1.53,0,0,0-.445.989,11.109,11.109,0,0,1-3.233,7.166,11.112,11.112,0,0,1-7.17,3.237,1.53,1.53,0,0,0-.99.445l-5.106,5.106-14.818-14.818,5.1-5.1a1.527,1.527,0,0,0,.445-.989,11.075,11.075,0,0,1,3.239-7.168,11.074,11.074,0,0,1,7.168-3.24,1.53,1.53,0,0,0,.99-.445l5.1-5.1,1.936,1.936a1.525,1.525,0,0,0,1.081.448,1.526,1.526,0,0,0,1.081-.448,1.53,1.53,0,0,0,0-2.163l-3.016-3.016h0l-3.7-3.7c-5.675-5.674-11.06-5.344-14.993-5.1-2.334.143-3.692.185-4.486-.609l-1.958-1.957.12-.119a1.532,1.532,0,0,0,.448-1.082,1.529,1.529,0,0,0-.448-1.081l-4.75-4.746a5.517,5.517,0,0,0-3.929-1.622,5.519,5.519,0,0,0-3.929,1.622l-7.147,7.148a5.517,5.517,0,0,0-1.622,3.929,5.516,5.516,0,0,0,1.621,3.929l4.746,4.751a1.529,1.529,0,0,0,1.081.448h0a1.529,1.529,0,0,0,1.081-.448l.119-.119,1.958,1.957c.794.794.752,2.153.609,4.486-.24,3.933-.571,9.319,5.1,14.993l3.7,3.7h0l16.938,16.938c.014.015.026.03.04.044s.029.026.043.039l12.349,12.349a8.567,8.567,0,0,0,6.1,2.528,8.634,8.634,0,0,0,8.5-7.213,8.639,8.639,0,0,0,7.092-7.091,8.635,8.635,0,0,0,7.213-8.5Zm-74.508-41.02a2.48,2.48,0,0,1-.726-1.767,2.478,2.478,0,0,1,.726-1.766l7.147-7.148a2.48,2.48,0,0,1,1.767-.726,2.48,2.48,0,0,1,1.767.726l3.669,3.665L-159,1223.321Zm10.485,13.424c.158-2.586.307-5.029-1.5-6.835l-1.958-1.957,8.284-8.284,1.958,1.957c1.807,1.807,4.25,1.657,6.835,1.5,3.724-.227,7.944-.486,12.644,4.214l2.617,2.616-4.708,4.707a14.144,14.144,0,0,0-8.555,4.081,14.136,14.136,0,0,0-4.081,8.555l-4.707,4.707-2.617-2.616c-4.7-4.7-4.442-8.921-4.214-12.644Zm56.761,32.989a8.582,8.582,0,0,0-2.356-4.4,1.53,1.53,0,0,0-2.163,0,1.53,1.53,0,0,0,0,2.163,5.54,5.54,0,0,1,1.63,3.935,5.568,5.568,0,0,1-5.562,5.562,5.541,5.541,0,0,1-3.935-1.63,1.529,1.529,0,0,0-2.163,0,1.529,1.529,0,0,0,0,2.163,8.587,8.587,0,0,0,4.4,2.355,5.573,5.573,0,0,1-5.393,4.2,5.53,5.53,0,0,1-3.934-1.633l-11.309-11.309,4.709-4.709a14.182,14.182,0,0,0,8.557-4.079,14.178,14.178,0,0,0,4.075-8.552l4.709-4.709,11.309,11.309a5.528,5.528,0,0,1,1.633,3.934,5.572,5.572,0,0,1-4.2,5.394Z" transform="translate(166.453 -1205.187)" fill="#00223d"/>
        <path id="Trazado_27479" data-name="Trazado 27479" d="M-96.5,1262.634a1.53,1.53,0,0,0-2.163,0l-10.03,10.03a1.529,1.529,0,0,0,0,2.163,1.524,1.524,0,0,0,1.081.448,1.525,1.525,0,0,0,1.081-.448L-96.5,1264.8A1.53,1.53,0,0,0-96.5,1262.634Z" transform="translate(141.42 -1230.086)" fill="#00223d"/>
        <path id="Trazado_27480" data-name="Trazado 27480" d="M-89.431,1271.87l-10.03,10.03a1.528,1.528,0,0,0,0,2.162,1.525,1.525,0,0,0,1.081.448,1.524,1.524,0,0,0,1.081-.448l10.031-10.03a1.529,1.529,0,0,0,0-2.162A1.529,1.529,0,0,0-89.431,1271.87Z" transform="translate(137.385 -1234.12)" fill="#00223d"/>
        <path id="Trazado_27481" data-name="Trazado 27481" d="M-74.4,1256.655a1.516,1.516,0,0,0,1.075.446,1.53,1.53,0,0,0,1.084-.451,1.534,1.534,0,0,0,0-2.167,1.529,1.529,0,0,0-2.163,0,1.529,1.529,0,0,0,0,2.162Z" transform="translate(126.442 -1226.525)" fill="#00223d"/>
      </g>
    </g>
  </g>
</svg>
