<?xml version="1.0" encoding="utf-8"?>
<!-- Generator: Adobe Illustrator 25.2.1, SVG Export Plug-In . SVG Version: 6.00 Build 0)  -->
<svg version="1.1" id="Layer_1" xmlns="http://www.w3.org/2000/svg" xmlns:xlink="http://www.w3.org/1999/xlink" x="0px" y="0px"
	 viewBox="0 0 113 113" style="enable-background:new 0 0 113 113;" xml:space="preserve">
<style type="text/css">
	.st0{fill:#FFCD00;}
	.st1{fill:#EBBF00;}
	.st2{fill:#6D6E71;}
	.st3{fill:#F7941D;}
	.st4{fill:#006DF0;}
	.st5{fill:#005ECE;}
	.st6{fill:#FFBCAB;}
	.st7{fill:#F15A29;}
	.st8{fill:#00223D;}
	.st9{fill:none;}
</style>
<g id="Credit_card-2" transform="translate(631 1614)">
	<path id="Trazado_27854" class="st0" d="M-529.2-1580.9v18.7c0,3.4-2.8,6.2-6.2,6.2c0,0,0,0,0,0h-56c-3.4,0-6.2-2.8-6.2-6.2
		c0,0,0,0,0,0v-18.7H-529.2z"/>
	<path id="Trazado_27855" class="st1" d="M-557.2-1556h21.8c3.4,0,6.2-2.8,6.2-6.2c0,0,0,0,0,0v-21.8
		C-529.2-1568.5-541.7-1556-557.2-1556C-557.2-1556-557.2-1556-557.2-1556L-557.2-1556z"/>
	<path id="Trazado_27856" class="st0" d="M-597.7-1590.2v3.1h68.5v-3.1c0-3.4-2.8-6.2-6.2-6.2h-56
		C-594.9-1596.4-597.7-1593.7-597.7-1590.2z"/>
	<path id="Trazado_27857" class="st2" d="M-597.7-1587.1h68.5v6.2h-68.5V-1587.1z"/>
	<g>
		<ellipse id="Elipse_1065_1_" class="st3" cx="-540.1" cy="-1566.9" rx="4.7" ry="4.7"/>
		<path d="M-540.1-1561.7c-2.8,0-5.2-2.3-5.2-5.2s2.3-5.2,5.2-5.2s5.2,2.3,5.2,5.2S-537.2-1561.7-540.1-1561.7z M-540.1-1571
			c-2.3,0-4.2,1.9-4.2,4.2s1.9,4.2,4.2,4.2s4.2-1.9,4.2-4.2S-537.8-1571-540.1-1571z"/>
	</g>
	<path id="Trazado_27858" class="st4" d="M-619.4-1546.7v29.6h15.6v-29.6H-619.4z"/>
	<path id="Trazado_27859" class="st5" d="M-608.6-1546.7h4.7v29.6h-4.7V-1546.7z"/>
	<path id="Trazado_27860" class="st6" d="M-555-1538.1l19.4-11.2c2.2-1.3,5.1-0.6,6.4,1.6c1.3,2.2,0.6,5.1-1.6,6.4
		c0,0-0.1,0-0.1,0.1l-35.2,21.9c-2.3,1.5-5.1,2.1-7.8,1.8l-26.3-2.6c-0.4,0-0.8-0.1-1.2-0.1h-2.5v-21.8h1.9c0.8,0,1.6-0.2,2.3-0.4
		l9-3.6c3.5-1.4,7.4-1.7,11.1-0.9l21.1,4.8c2.5,0.7,4,3.2,3.3,5.7l0,0c-0.7,2.5-3.2,4-5.7,3.3l0,0l-15-2.9"/>
	<g>
		<ellipse id="Elipse_1066_1_" class="st7" cx="-547.9" cy="-1566.9" rx="4.7" ry="4.7"/>
		<path d="M-547.9-1561.7c-2.8,0-5.2-2.3-5.2-5.2s2.3-5.2,5.2-5.2s5.2,2.3,5.2,5.2S-545-1561.7-547.9-1561.7z M-547.9-1571
			c-2.3,0-4.2,1.9-4.2,4.2s1.9,4.2,4.2,4.2s4.2-1.9,4.2-4.2S-545.6-1571-547.9-1571z"/>
	</g>
	<g id="Grupo_17496" transform="translate(0 0)">
		<path id="Trazado_27861" class="st8" d="M-591.4-1554.4h56c4.3,0,7.8-3.5,7.8-7.8v-28c0-4.3-3.5-7.8-7.8-7.8h-56
			c-4.3,0-7.8,3.5-7.8,7.8v28C-599.2-1557.9-595.7-1554.4-591.4-1554.4z M-535.4-1557.5h-56c-2.6,0-4.7-2.1-4.7-4.7c0,0,0,0,0,0
			v-17.1h65.4v17.1C-530.8-1559.6-532.8-1557.5-535.4-1557.5C-535.4-1557.5-535.4-1557.5-535.4-1557.5z M-596.1-1585.6h65.4v3.1
			h-65.4V-1585.6z M-591.4-1594.9h56c2.6,0,4.7,2.1,4.7,4.7v1.6h-65.4v-1.6C-596.1-1592.8-594-1594.9-591.4-1594.9z"/>
		<path id="Trazado_27863" class="st8" d="M-568.1-1563.8h-20.2c-0.9,0-1.6,0.7-1.6,1.6c0,0.9,0.7,1.6,1.6,1.6h20.2
			c0.9,0,1.6-0.7,1.6-1.6C-566.5-1563.1-567.2-1563.8-568.1-1563.8C-568.1-1563.8-568.1-1563.8-568.1-1563.8z"/>
		<path id="Trazado_27864" class="st8" d="M-588.3-1565.3h1.6c0.9,0,1.6-0.7,1.6-1.6c0-0.9-0.7-1.6-1.6-1.6h-1.6
			c-0.9,0-1.6,0.7-1.6,1.6C-589.9-1566-589.2-1565.3-588.3-1565.3z"/>
		<path id="Trazado_27865" class="st8" d="M-582.1-1565.3h1.6c0.9,0,1.6-0.7,1.6-1.6c0-0.9-0.7-1.6-1.6-1.6h-1.6
			c-0.9,0-1.6,0.7-1.6,1.6C-583.7-1566-583-1565.3-582.1-1565.3z"/>
		<path id="Trazado_27866" class="st8" d="M-575.9-1565.3h1.6c0.9,0,1.6-0.7,1.6-1.6c0-0.9-0.7-1.6-1.6-1.6h-1.6
			c-0.9,0-1.6,0.7-1.6,1.6C-577.4-1566-576.7-1565.3-575.9-1565.3C-575.9-1565.3-575.9-1565.3-575.9-1565.3z"/>
		<path id="Trazado_27867" class="st8" d="M-568.1-1568.4h-1.6c-0.9,0-1.6,0.7-1.6,1.6c0,0.9,0.7,1.6,1.6,1.6h1.6
			c0.9,0,1.6-0.7,1.6-1.6C-566.5-1567.7-567.2-1568.4-568.1-1568.4z"/>
		<path id="Trazado_27868" class="st8" d="M-527.8-1548.4c-1.7-3-5.5-4-8.5-2.3l-17.8,10.3c-0.8-1.6-2.3-2.7-4-3.2l-21.1-4.8
			c-4-0.9-8.2-0.6-12,0.9l-9,3.6c-0.6,0.2-1.1,0.3-1.7,0.3h-0.4v-3.1c0-0.9-0.7-1.6-1.6-1.6l0,0h-15.6c-0.9,0-1.6,0.7-1.6,1.6l0,0
			v29.6c0,0.9,0.7,1.6,1.6,1.6l0,0h15.6c0.9,0,1.6-0.7,1.6-1.6v0v-1.6h0.9c0.4,0,0.7,0,1.1,0.1l26.3,2.6c0.5,0,0.9,0.1,1.4,0.1
			c2.6,0,5.2-0.7,7.4-2.1l35.1-21.9C-527.1-1541.6-526.1-1545.4-527.8-1548.4L-527.8-1548.4z M-605.4-1518.6h-12.4v-26.5h12.4
			V-1518.6z M-531.7-1542.5l-35.2,21.9c-2,1.3-4.4,1.8-6.8,1.6l-26.3-2.6c-0.5,0-0.9-0.1-1.4-0.1h-0.9v-18.7h0.4c1,0,2-0.2,2.9-0.6
			l9-3.6c3.2-1.3,6.8-1.6,10.2-0.8l21,4.8c1.2,0.3,2.1,1.3,2.3,2.6c0,0.1,0,0.1,0,0.2c0,0.4,0,0.7-0.1,1.1c-0.5,1.7-2.2,2.7-3.9,2.2
			c0,0,0,0,0,0l0,0l-15-2.9c-0.8-0.1-1.7,0.4-1.8,1.3c-0.1,0.8,0.4,1.6,1.2,1.8l14.9,2.9c3.3,0.9,6.7-1.1,7.6-4.4c0,0,0,0,0,0l0,0
			c0.1-0.4,0.2-0.8,0.2-1.2l18.6-10.8c1.5-0.9,3.4-0.3,4.3,1.1c0.3,0.5,0.4,1,0.4,1.5C-530.1-1544.1-530.7-1543.1-531.7-1542.5
			L-531.7-1542.5z"/>
		<path id="Trazado_27869" class="st8" d="M-611.7-1542c-0.9,0-1.6,0.7-1.6,1.6l0,0v1.6c0,0.9,0.7,1.6,1.6,1.6s1.6-0.7,1.6-1.6v-1.6
			C-610.1-1541.3-610.8-1542-611.7-1542L-611.7-1542z"/>
	</g>
</g>
<rect id="Rectángulo_4370" class="st9" width="113" height="113"/>
</svg>
