<svg xmlns="http://www.w3.org/2000/svg" width="113" height="113" viewBox="0 0 113 113">
  <g id="Grupo_17505" data-name="Grupo 17505" transform="translate(-268 -1358)">
    <g id="Grupo_17487" data-name="Grupo 17487" transform="translate(282 1372)">
      <g id="Grupo_17485" data-name="Grupo 17485" transform="translate(1.358 1.358)">
        <g id="Grupo_17469" data-name="Grupo 17469" transform="translate(5.431 69.185)">
          <path id="Trazado_27769" data-name="Trazado 27769" d="M1815.53,449.41V461.7H1793.8V449.478l.027-.04a16.323,16.323,0,0,0,21.7-.027Z" transform="translate(-1793.803 -449.41)" fill="#969faa"/>
        </g>
        <g id="Grupo_17470" data-name="Grupo 17470" transform="translate(61.784 32.59)">
          <path id="Trazado_27770" data-name="Trazado 27770" d="M1875.168,402.3l.679,5.418-.082.014h-9.343l-.082-.014.679-5.418Z" transform="translate(-1866.341 -402.304)" fill="#dfb28b"/>
        </g>
        <g id="Grupo_17471" data-name="Grupo 17471" transform="translate(59.747 38.008)">
          <path id="Trazado_27771" data-name="Trazado 27771" d="M1875.262,409.278l2.036,16.309h-13.579l2.037-16.309.082.014h9.343Z" transform="translate(-1863.719 -409.278)" fill="#d3a06c"/>
        </g>
        <g id="Grupo_17472" data-name="Grupo 17472" transform="translate(8.147 8.148)">
          <path id="Trazado_27772" data-name="Trazado 27772" d="M1805.446,370.842v5.431H1797.3v-5.431Z" transform="translate(-1797.299 -370.842)" fill="#ccd1d9"/>
        </g>
        <g id="Grupo_17473" data-name="Grupo 17473" transform="translate(21.726)">
          <path id="Trazado_27773" data-name="Trazado 27773" d="M1821.568,360.354l1.357,13.579h-8.147l1.358-13.579Z" transform="translate(-1814.778 -360.354)" fill="#ccd1d9"/>
        </g>
        <g id="Grupo_17474" data-name="Grupo 17474" transform="translate(13.579 13.579)">
          <path id="Trazado_27774" data-name="Trazado 27774" d="M1804.291,405.222V377.833h19.01v13.579h-8.147v5.432h-5.432v8.379a16.042,16.042,0,0,0-5.431,0Z" transform="translate(-1804.291 -377.833)" fill="#dfb28b"/>
        </g>
        <g id="Grupo_17475" data-name="Grupo 17475" transform="translate(5.431 13.579)">
          <path id="Trazado_27775" data-name="Trazado 27775" d="M1801.951,377.833v27.389a16.105,16.105,0,0,0-8.121,3.884l-.027-.041V377.833Z" transform="translate(-1793.803 -377.833)" fill="#cf9e76"/>
        </g>
        <g id="Grupo_17476" data-name="Grupo 17476" transform="translate(24.442 27.158)">
          <path id="Trazado_27776" data-name="Trazado 27776" d="M1834.569,395.312v5.432h-16.295v-5.432h16.295Z" transform="translate(-1818.274 -395.312)" fill="#fcd770"/>
        </g>
        <g id="Grupo_17477" data-name="Grupo 17477" transform="translate(19.01 32.59)">
          <path id="Trazado_27777" data-name="Trazado 27777" d="M1838.44,402.3v21.727h-13.81a16.031,16.031,0,0,0-1.955-5.446,16.269,16.269,0,0,0-11.393-7.9V402.3h27.158Z" transform="translate(-1811.282 -402.304)" fill="#ffeaa7"/>
        </g>
        <g id="Grupo_17478" data-name="Grupo 17478" transform="translate(32.359 54.317)">
          <path id="Trazado_27778" data-name="Trazado 27778" d="M1874.864,430.271V435.7h-46.4a16.1,16.1,0,0,0,0-5.431h46.4Z" transform="translate(-1828.464 -430.271)" fill="#ccd1d9"/>
        </g>
        <g id="Grupo_17479" data-name="Grupo 17479" transform="translate(27.158 59.748)">
          <path id="Trazado_27779" data-name="Trazado 27779" d="M1826.97,437.262a16.021,16.021,0,0,1-1.955,5.445,16.748,16.748,0,0,1-3.245,3.992v12.289h51.6V437.262Z" transform="translate(-1821.77 -437.262)" fill="#e6e9ed"/>
        </g>
        <g id="Grupo_17480" data-name="Grupo 17480" transform="translate(0 40.737)">
          <ellipse id="Elipse_1043" data-name="Elipse 1043" cx="16.295" cy="16.295" rx="16.295" ry="16.295" fill="#69d6f4"/>
        </g>
        <g id="Grupo_17481" data-name="Grupo 17481" transform="translate(65.179 67.896)">
          <path id="Trazado_27780" data-name="Trazado 27780" d="M1870.711,447.75h8.147v13.579h-8.147Z" transform="translate(-1870.711 -447.75)" fill="#aab2bd"/>
        </g>
        <g id="Grupo_17482" data-name="Grupo 17482" transform="translate(48.884 67.896)">
          <path id="Trazado_27781" data-name="Trazado 27781" d="M1849.736,447.75h8.148v13.579h-8.148Z" transform="translate(-1849.736 -447.75)" fill="#aab2bd"/>
        </g>
        <g id="Grupo_17483" data-name="Grupo 17483" transform="translate(32.589 67.896)">
          <path id="Trazado_27782" data-name="Trazado 27782" d="M1828.761,447.75h8.148v13.579h-8.148Z" transform="translate(-1828.761 -447.75)" fill="#aab2bd"/>
        </g>
        <g id="Grupo_17484" data-name="Grupo 17484" transform="translate(48.884 8.148)">
          <path id="Trazado_27783" data-name="Trazado 27783" d="M1857.884,381.705a5.432,5.432,0,1,1,0-10.863h10.184a4.758,4.758,0,0,1,4.753,4.752v.679h4.073a5.432,5.432,0,0,1,0,10.864h-4.073a2.724,2.724,0,0,0-2.716,2.715v1.358h-5.432v-1.358a2.724,2.724,0,0,0-2.716-2.715h-9.505a2.737,2.737,0,0,1-2.716-2.716,2.724,2.724,0,0,1,2.716-2.716Z" transform="translate(-1849.736 -370.842)" fill="#ccd1d9"/>
        </g>
      </g>
      <g id="Grupo_17486" data-name="Grupo 17486" transform="translate(0 0)">
        <path id="Trazado_27784" data-name="Trazado 27784" d="M1858.232,391.2h-10.545l-2.716,21.727h-11.022V391.2h-5.431v-5.431h-8.148v-13.58h-2.845l-1.358-13.579h-7.891l-1.358,13.579h-2.843v-5.431h-10.863v5.431H1790.5v32.1a17.584,17.584,0,0,0,0,25.417V442.8h76.043V412.923h-5.59Zm-2.4,2.716.339,2.716h-6.428l.34-2.716Zm-6.428,5.432h7.107l1.7,13.579h-10.5Zm-18.173,13.579h-11.356a17.691,17.691,0,0,0-13.086-13.086v-5.924h24.442Zm-23.473,18.115a18.794,18.794,0,0,0,1.889-4.536h4.581A14.982,14.982,0,0,1,1807.76,431.038ZM1791.2,426.5h4.581a18.769,18.769,0,0,0,1.889,4.536A15,15,0,0,1,1791.2,426.5Zm6.471-23.548a18.771,18.771,0,0,0-1.889,4.537H1791.2A15,15,0,0,1,1797.674,402.954Zm.969-19.905h-5.432v-2.716h5.432Zm0,2.716v2.715h-5.432v-2.715Zm0,5.431v2.716h-5.432V391.2Zm12.191,24.442a37.224,37.224,0,0,0-.555-5.431H1816a14.824,14.824,0,0,1,1.58,5.431Zm-13.52,0a33.733,33.733,0,0,1,.625-5.431h9.556a33.609,33.609,0,0,1,.625,5.431Zm10.805,2.716a33.8,33.8,0,0,1-.625,5.432h-9.556a33.551,33.551,0,0,1-.625-5.432Zm1.529-10.863a18.771,18.771,0,0,0-1.889-4.537,14.977,14.977,0,0,1,6.469,4.537Zm-2.846,0h-8.173c1.071-3.358,2.627-5.432,4.086-5.432S1805.731,404.132,1806.8,407.491Zm-11.648,2.716a37.306,37.306,0,0,0-.555,5.431h-6.75a14.794,14.794,0,0,1,1.58-5.431Zm-.555,8.147a37.318,37.318,0,0,0,.555,5.432h-5.726a14.829,14.829,0,0,1-1.58-5.432Zm4.032,8.148h8.174c-1.071,3.358-2.628,5.431-4.086,5.431S1799.7,429.859,1798.631,426.5ZM1816,423.786h-5.725a37.115,37.115,0,0,0,.556-5.432h6.75a14.815,14.815,0,0,1-1.581,5.432Zm9.8-32.59h-13.579V388.48H1825.8Zm-8.148-5.431h-8.147V391.2h-5.432v8.217c-.449-.036-.9-.069-1.358-.069s-.908.033-1.357.069V374.9h16.294Zm-6.918-24.443h2.972l1.086,10.863h-5.146Zm-14.808,8.148h5.432v2.715h-5.432Zm2.716,5.431v2.716h-5.432V374.9Zm-5.432,21.727h5.432v3.208a17.528,17.528,0,0,0-5.432,2.308Zm0,35.22a17.527,17.527,0,0,0,19.011,0v8.233h-19.011Zm32.59,8.233h-5.432V429.217h5.432Zm16.295,0h-5.432V429.217h5.432Zm16.3,0h-5.432V429.217h5.432Zm2.715,0V426.5h-10.863v13.579h-5.432V426.5h-10.863v13.579h-5.431V426.5h-10.864v13.579h-2.715V429.7a17.645,17.645,0,0,0,4.939-8.635h43.945v19.011Zm2.716-21.727H1820.3c.035-.449.069-.9.069-1.358s-.034-.908-.069-1.358h43.522Z" transform="translate(-1785.064 -358.606)" fill="#00223d"/>
        <path id="Trazado_27785" data-name="Trazado 27785" d="M1881.184,374.525h-2.752a6.12,6.12,0,0,0-6.074-5.431h-3.395v2.716h3.395a3.4,3.4,0,0,1,3.4,3.394v2.037h5.431a4.074,4.074,0,1,1,0,8.148h-4.073a4.078,4.078,0,0,0-4.074,4.073v1.358h2.716v-1.358a1.359,1.359,0,0,1,1.358-1.357h4.073a6.79,6.79,0,1,0,0-13.58Z" transform="translate(-1803.784 -360.946)" fill="#00223d"/>
        <path id="Trazado_27786" data-name="Trazado 27786" d="M1852.062,388.1h9.505a1.359,1.359,0,0,1,1.358,1.357v1.358h2.716v-1.358a4.079,4.079,0,0,0-4.074-4.073h-9.505a1.358,1.358,0,0,1,0-2.716h8.147v-2.716h-2.715a4.074,4.074,0,1,1,0-8.147h4.073v-2.716h-4.073a6.8,6.8,0,0,0-6.79,6.789,6.718,6.718,0,0,0,1.393,4.074h-.035a4.074,4.074,0,0,0,0,8.148Z" transform="translate(-1799.104 -360.946)" fill="#00223d"/>
        <path id="Trazado_27787" data-name="Trazado 27787" d="M1837.5,407.548h2.716v2.716H1837.5Z" transform="translate(-1796.764 -369.526)" fill="#00223d"/>
        <path id="Trazado_27788" data-name="Trazado 27788" d="M1816.526,407.548h2.716v2.716h-2.716Z" transform="translate(-1792.084 -369.526)" fill="#00223d"/>
        <path id="Trazado_27789" data-name="Trazado 27789" d="M1823.518,407.548h2.715v2.716h-2.715Z" transform="translate(-1793.644 -369.526)" fill="#00223d"/>
        <path id="Trazado_27790" data-name="Trazado 27790" d="M1830.509,407.548h2.716v2.716h-2.716Z" transform="translate(-1795.204 -369.526)" fill="#00223d"/>
        <path id="Trazado_27791" data-name="Trazado 27791" d="M1837.5,414.539h2.716v2.716H1837.5Z" transform="translate(-1796.764 -371.086)" fill="#00223d"/>
        <path id="Trazado_27792" data-name="Trazado 27792" d="M1830.509,414.539h2.716v2.716h-2.716Z" transform="translate(-1795.204 -371.086)" fill="#00223d"/>
        <path id="Trazado_27793" data-name="Trazado 27793" d="M1830.509,421.531h2.716v2.716h-2.716Z" transform="translate(-1795.204 -372.646)" fill="#00223d"/>
        <path id="Trazado_27794" data-name="Trazado 27794" d="M1837.5,421.531h2.716v2.716H1837.5Z" transform="translate(-1796.764 -372.646)" fill="#00223d"/>
      </g>
    </g>
    <rect id="Rectángulo_4341" data-name="Rectángulo 4341" width="113" height="113" transform="translate(268 1358)" fill="none"/>
  </g>
</svg>
