<svg xmlns="http://www.w3.org/2000/svg" width="113" height="113" viewBox="0 0 113 113">
  <g id="Grupo_17502" data-name="Grupo 17502" transform="translate(-516 -1358)">
    <g id="Dairy_Product" data-name="Dairy Product" transform="translate(530 1372)">
      <g id="Filled" transform="translate(1.315 1.315)">
        <path id="Trazado_27795" data-name="Trazado 27795" d="M637.343,381h23.678v60.511H637.343Z" transform="translate(-637.343 -359.949)" fill="#e2dbd5"/>
        <path id="Trazado_27796" data-name="Trazado 27796" d="M661.021,372.955H637.343l7.893-13.155h23.678Z" transform="translate(-637.343 -351.908)" fill="#efebe8"/>
        <path id="Trazado_27797" data-name="Trazado 27797" d="M691.336,433.466H675.5V372.955l7.92-13.155,7.92,13.155Z" transform="translate(-651.818 -351.908)" fill="#d4ccc7"/>
        <path id="Trazado_27798" data-name="Trazado 27798" d="M683.416,433.466H675.5V372.955l7.92-13.155Z" transform="translate(-651.818 -351.908)" fill="#c6bab3"/>
        <path id="Trazado_27799" data-name="Trazado 27799" d="M637.343,402.192h23.678v34.2H637.343Z" transform="translate(-637.343 -367.99)" fill="#ea6049"/>
        <path id="Trazado_27800" data-name="Trazado 27800" d="M717.888,347.083h15.785v10.524H717.888Z" transform="translate(-667.9 -347.083)" fill="#ffead2"/>
        <path id="Trazado_27801" data-name="Trazado 27801" d="M709.409,408.765V385.087l.265-2.631a13.168,13.168,0,0,1,5-7.893s2.631-2.631-1.283-5.9c-1.7-1.424-1.769-4.629,1.09-4.62h16.17c2.754-.014,2.859,3.141,1.09,4.62-3.914,3.272-1.283,5.9-1.283,5.9a13.157,13.157,0,0,1,5.262,10.524v23.678Z" transform="translate(-664.684 -353.516)" fill="#f09b73"/>
        <path id="Trazado_27802" data-name="Trazado 27802" d="M709.409,410.306v9.435h26.309V396.062a13.15,13.15,0,0,0-.369-3.093A34.212,34.212,0,0,1,709.409,410.306Z" transform="translate(-664.684 -364.491)" fill="#e58b6c"/>
        <path id="Trazado_27803" data-name="Trazado 27803" d="M650.061,347.083h23.678v7.892H650.061Z" transform="translate(-642.168 -347.083)" fill="#d4ccc7"/>
        <path id="Trazado_27804" data-name="Trazado 27804" d="M723.626,415.2c-5.049,1.365-6.675-5.394-2.823-7.332l-2.185-5.677h-9.209v47.357c7.893,0,19.457-.974,24.994-6.358Z" transform="translate(-664.684 -367.99)" fill="#eed60f"/>
        <path id="Trazado_27805" data-name="Trazado 27805" d="M699.759,402.192l-4.581,11.9c5.847.961,2.358,10.509-2.782,7.226l-4.251,11.04a4,4,0,0,1-2.562,6.656l-1.609,4.178a22.777,22.777,0,0,0,31.571,0Z" transform="translate(-655.034 -367.99)" fill="#f8e868"/>
        <path id="Trazado_27806" data-name="Trazado 27806" d="M685.282,458.888a22.787,22.787,0,0,0,30.76-.75L709.67,441.59a32.912,32.912,0,0,1-24.388,17.3Z" transform="translate(-655.53 -382.937)" fill="#f6e23d"/>
        <ellipse id="Elipse_1044" data-name="Elipse 1044" cx="2.631" cy="2.631" rx="2.631" ry="2.631" transform="translate(47.356 67.088)" fill="#f8e868"/>
        <ellipse id="Elipse_1045" data-name="Elipse 1045" cx="2.631" cy="2.631" rx="2.631" ry="2.631" transform="translate(43.41 57.88)" fill="#f6e23d"/>
        <ellipse id="Elipse_1046" data-name="Elipse 1046" cx="2.631" cy="2.631" rx="2.631" ry="2.631" transform="translate(36.833 71.035)" fill="#f6e23d"/>
        <g id="Grupo_17489" data-name="Grupo 17489" transform="translate(36.833 57.879)">
          <path id="Trazado_27807" data-name="Trazado 27807" d="M717.595,457.812a2.623,2.623,0,0,1,1.292.34,2.6,2.6,0,0,0,.024-.34,2.631,2.631,0,1,0-3.922,2.291A2.631,2.631,0,0,1,717.595,457.812Z" transform="translate(-703.125 -445.972)" fill="#eed60f"/>
          <path id="Trazado_27808" data-name="Trazado 27808" d="M711.236,442.975a2.621,2.621,0,0,1,1.291.34,2.564,2.564,0,0,0,.024-.34,2.631,2.631,0,1,0-3.922,2.291A2.63,2.63,0,0,1,711.236,442.975Z" transform="translate(-700.713 -440.343)" fill="#eed60f"/>
          <path id="Trazado_27809" data-name="Trazado 27809" d="M700.638,464.171a2.62,2.62,0,0,1,1.291.34,2.593,2.593,0,0,0,.024-.34,2.631,2.631,0,1,0-3.922,2.291A2.63,2.63,0,0,1,700.638,464.171Z" transform="translate(-696.692 -448.384)" fill="#eed60f"/>
        </g>
        <path id="Trazado_27810" data-name="Trazado 27810" d="M737.15,357.607V347.083h-4.008a14.454,14.454,0,0,1-6.09,10.524Z" transform="translate(-671.377 -347.083)" fill="#faddc3"/>
        <ellipse id="Elipse_1047" data-name="Elipse 1047" cx="2.631" cy="2.631" rx="2.631" ry="2.631" transform="translate(42.095 42.095)" fill="#fcf5be"/>
        <ellipse id="Elipse_1048" data-name="Elipse 1048" cx="1.315" cy="1.315" rx="1.315" ry="1.315" transform="translate(46.041 48.672)" fill="#fcf5be"/>
        <ellipse id="Elipse_1049" data-name="Elipse 1049" cx="3.289" cy="3.289" rx="3.289" ry="3.289" transform="translate(53.934 19.732)" fill="#f2bba5"/>
        <ellipse id="Elipse_1050" data-name="Elipse 1050" cx="1.973" cy="1.973" rx="1.973" ry="1.973" transform="translate(60.511 26.309)" fill="#f2bba5"/>
        <ellipse id="Elipse_1051" data-name="Elipse 1051" cx="2.631" cy="2.631" rx="2.631" ry="2.631" transform="translate(6.577 11.839)" fill="#fff"/>
        <ellipse id="Elipse_1052" data-name="Elipse 1052" cx="1.315" cy="1.315" rx="1.315" ry="1.315" transform="translate(11.839 17.101)" fill="#fff"/>
        <path id="Trazado_27811" data-name="Trazado 27811" d="M637.343,431.936v8.779h23.678V413.581A35.574,35.574,0,0,1,637.343,431.936Z" transform="translate(-637.343 -372.311)" fill="#de513e"/>
        <path id="Trazado_27812" data-name="Trazado 27812" d="M726.366,431.867,729,460.807h18.417l2.631-28.94Z" transform="translate(-671.117 -379.249)" fill="#81c784"/>
        <ellipse id="Elipse_1053" data-name="Elipse 1053" cx="2.631" cy="2.631" rx="2.631" ry="2.631" transform="translate(57.88 56.565)" fill="#c8e6c9"/>
        <ellipse id="Elipse_1054" data-name="Elipse 1054" cx="1.315" cy="1.315" rx="1.315" ry="1.315" transform="translate(63.142 61.826)" fill="#c8e6c9"/>
        <path id="Trazado_27813" data-name="Trazado 27813" d="M730.2,466.439h18.417l1.793-19.728a28.26,28.26,0,0,1-20.874,12.422Z" transform="translate(-672.319 -384.88)" fill="#66bb6a"/>
        <path id="Trazado_27814" data-name="Trazado 27814" d="M658.977,426.749a6.577,6.577,0,1,1-13.155,0c0-3.632,6.577-11.839,6.577-11.839S658.977,423.116,658.977,426.749Z" transform="translate(-640.56 -372.815)" fill="#fff"/>
        <path id="Trazado_27815" data-name="Trazado 27815" d="M659.373,431.065a12.1,12.1,0,0,1-11.531,5.673,6.576,6.576,0,0,0,11.9-3.86A5.755,5.755,0,0,0,659.373,431.065Z" transform="translate(-641.326 -378.944)" fill="#efebe8"/>
      </g>
      <g id="Outline" transform="translate(0 0)">
        <path id="Trazado_27816" data-name="Trazado 27816" d="M715.475,455.7a1.316,1.316,0,0,0,1.315-1.316c0-2.517-5.262-1.28-5.262,2.631s5.262,5.156,5.262,2.631a1.316,1.316,0,0,0-1.315-1.316,1.315,1.315,0,1,1,0-2.631Z" transform="translate(-664.173 -385.978)" fill="#00223d"/>
        <path id="Trazado_27817" data-name="Trazado 27817" d="M713.063,442.172a3.947,3.947,0,1,0-3.947,3.946A3.947,3.947,0,0,0,713.063,442.172Zm-5.262,0a1.316,1.316,0,1,1,1.316,1.316A1.315,1.315,0,0,1,707.8,442.172Z" transform="translate(-661.76 -380.345)" fill="#00223d"/>
        <path id="Trazado_27818" data-name="Trazado 27818" d="M698.518,459.421a3.947,3.947,0,1,0,3.946,3.947A3.947,3.947,0,0,0,698.518,459.421Zm0,5.262a1.315,1.315,0,1,1,1.316-1.316A1.316,1.316,0,0,1,698.518,464.683Z" transform="translate(-657.74 -388.386)" fill="#00223d"/>
        <path id="Trazado_27819" data-name="Trazado 27819" d="M705.879,446.273a21.625,21.625,0,0,1-21.162-4.264l1.015-2.639a5.358,5.358,0,0,0,3.109-8.074l3.474-9.024c5.68,1.754,9.06-7.34,3.789-9.843l2.85-7.4,3.87,10.05a1.315,1.315,0,0,0,2.455-.945l-4.409-11.45h6.389l1.482,3.85c-3.96,3.31-1.208,10.73,4.773,9.113a1.315,1.315,0,0,0-.667-2.545l-.02,0c-3.48.94-4.363-3.643-1.889-4.887a1.315,1.315,0,0,0,.636-1.648l-2.185-5.676a1.315,1.315,0,0,0-1.228-.843c-9.453,0-9.993-.309-10.436.843-4.536,12.262-5.052,12.052-4.494,13.024a1.315,1.315,0,0,0,.928.645c2.846.468,2.144,3.866.617,4.942a2.083,2.083,0,0,1-2.478-.122,1.316,1.316,0,0,0-1.817.4,1.347,1.347,0,0,0-.118.235l-4.251,11.04a1.315,1.315,0,0,0,.284,1.389,2.681,2.681,0,0,1-1.7,4.427,1.314,1.314,0,0,0-1.148.84l-1.608,4.178a1.314,1.314,0,0,0,.311,1.416,24.093,24.093,0,0,0,24.469,5.457,1.316,1.316,0,0,0-.843-2.492Z" transform="translate(-652.915 -365.849)" fill="#00223d"/>
        <path id="Trazado_27820" data-name="Trazado 27820" d="M750.263,429.747h-28.94a1.315,1.315,0,1,0,0,2.631h1.43l2.522,27.744a1.315,1.315,0,0,0,1.309,1.2H745a1.316,1.316,0,0,0,1.31-1.2l.957-10.536a1.316,1.316,0,0,0-2.617-.272l0,.035-.848,9.338H727.786l-2.392-26.309h20.8l-.59,6.493a1.315,1.315,0,0,0,2.62.238l.612-6.731h1.429a1.315,1.315,0,1,0,0-2.631Z" transform="translate(-667.389 -377.129)" fill="#00223d"/>
        <path id="Trazado_27821" data-name="Trazado 27821" d="M708.768,376.507a1.315,1.315,0,0,0,1.553-1.025h0a11.836,11.836,0,0,1,4.5-7.1,1.324,1.324,0,0,0,.141-.122c1.746-1.748,2-5.023-1.369-7.842a1.894,1.894,0,0,1-.658-1.871c.043-.117.151-.428.9-.426,15.931.3,16.73-.467,17.064.446a1.839,1.839,0,0,1-.647,1.85,6.327,6.327,0,0,0-2.614,4.491,4.578,4.578,0,0,0,1.386,3.474,11.9,11.9,0,0,1,4.735,9.471,1.315,1.315,0,1,0,2.631,0,14.544,14.544,0,0,0-5.679-11.494c-1.075-1.332-.079-2.83,1.228-3.924,2.381-1.99,2.242-5.973-.811-6.8v-9.35a1.316,1.316,0,0,0-1.316-1.316H714.029a1.316,1.316,0,0,0-1.316,1.316v9.349c-3.084.822-3.2,4.81-.811,6.8,1.326,1.108,2.3,2.6,1.229,3.924a14.468,14.468,0,0,0-5.388,8.6,1.315,1.315,0,0,0,1.025,1.552Zm6.576-28.913H728.5v2.631H719.29a1.315,1.315,0,0,0,0,2.631H728.5v2.631H715.344Z" transform="translate(-662.726 -344.963)" fill="#00223d"/>
        <path id="Trazado_27822" data-name="Trazado 27822" d="M652.91,432.522a1.315,1.315,0,0,0-1.315-1.315,5.268,5.268,0,0,1-5.262-5.262c0-2,2.905-6.541,5.262-9.689,2.356,3.147,5.262,7.685,5.262,9.689a1.315,1.315,0,1,0,2.631,0c0-3.979-6.163-11.785-6.866-12.661a1.316,1.316,0,0,0-1.849-.2,1.38,1.38,0,0,0-.2.2c-.7.876-6.866,8.682-6.866,12.661C643.7,433.2,652.91,435.7,652.91,432.522Z" transform="translate(-638.44 -370.696)" fill="#00223d"/>
        <path id="Trazado_27823" data-name="Trazado 27823" d="M665.479,426.521h-3.946V367.691l6.593-10.989,6.616,10.989V380.48a1.315,1.315,0,1,0,2.631,0V367.326c0-.669.063-.133-7.948-13.565v-7.482a1.315,1.315,0,0,0-1.315-1.316H644.432a1.316,1.316,0,0,0-1.316,1.316v7.529l-1.052,1.754a1.315,1.315,0,0,0,2.242,1.377l.014-.024.856-1.428h20.61l-6.314,10.524h-4.517a1.315,1.315,0,1,0,0,2.631H658.9v10.524H637.855V368.641h11.839a1.315,1.315,0,1,0,0-2.631H638.862l.045-.075a1.315,1.315,0,0,0-2.256-1.353c-1.3,2.177-1.427,2.258-1.427,2.743v60.511a1.315,1.315,0,0,0,1.315,1.315h28.94a1.315,1.315,0,1,0,0-2.631Zm-19.732-73.665v-5.262h21.048v5.262ZM658.9,426.521H637.855V416H658.9Zm0-13.155H637.855V381.8H658.9Z" transform="translate(-635.224 -344.963)" fill="#00223d"/>
        <ellipse id="Elipse_1055" data-name="Elipse 1055" cx="1.315" cy="1.315" rx="1.315" ry="1.315" transform="translate(3.946 14.47)" fill="#00223d"/>
        <ellipse id="Elipse_1056" data-name="Elipse 1056" cx="1.315" cy="1.315" rx="1.315" ry="1.315" transform="translate(17.101 59.196)" fill="#00223d"/>
        <ellipse id="Elipse_1057" data-name="Elipse 1057" cx="1.315" cy="1.315" rx="1.315" ry="1.315" transform="translate(71.034 36.833)" fill="#00223d"/>
        <ellipse id="Elipse_1058" data-name="Elipse 1058" cx="1.315" cy="1.315" rx="1.315" ry="1.315" transform="translate(77.612 65.773)" fill="#00223d"/>
        <path id="Trazado_27824" data-name="Trazado 27824" d="M751,412.79a1.315,1.315,0,0,0-1.315,1.316v5.262a1.315,1.315,0,1,0,2.631,0v-5.262A1.316,1.316,0,0,0,751,412.79Z" transform="translate(-678.648 -370.695)" fill="#00223d"/>
      </g>
    </g>
    <rect id="Rectángulo_4366" data-name="Rectángulo 4366" width="113" height="113" transform="translate(516 1358)" fill="none"/>
  </g>
</svg>
