<svg xmlns="http://www.w3.org/2000/svg" width="113" height="113" viewBox="0 0 113 113">
  <g id="Grupo_17553" data-name="Grupo 17553" transform="translate(-710 4155)">
    <rect id="Rectángulo_4371" data-name="Rectángulo 4371" width="113" height="113" transform="translate(710 -4155)" fill="none"/>
    <g id="Grupo_17526" data-name="Grupo 17526" transform="translate(722 -4143)">
      <path id="Trazado_27893" data-name="Trazado 27893" d="M931.84,390.943l-2.923.625,2.11,9.9,2.52-2.519Z" transform="translate(-846.149 -361.424)" fill="#c7c7c5"/>
      <path id="Trazado_27894" data-name="Trazado 27894" d="M842.9,437.665l-29.892-29.892,56.8-56.8,26.9,2.99,2.989,26.9Z" transform="translate(-811.517 -349.483)" fill="#ffb531"/>
      <path id="Trazado_27895" data-name="Trazado 27895" d="M903.419,381.815l-2.989-26.9-6.945-.772c-7.75,38.24-47.92,56.546-68.024,63.308l21.162,21.162Z" transform="translate(-815.237 -350.428)" fill="#ffa912"/>
      <path id="Trazado_27896" data-name="Trazado 27896" d="M921.3,366.756a2.989,2.989,0,1,1-2.989-2.989A2.99,2.99,0,0,1,921.3,366.756Z" transform="translate(-842.088 -353.304)" fill="#e8770c"/>
      <g id="Grupo_17525" data-name="Grupo 17525" transform="translate(10.902 48.416)">
        <path id="Trazado_27897" data-name="Trazado 27897" d="M826.427,427.607l9.714-9.714,2.113,2.113-9.714,9.714Z" transform="translate(-826.427 -417.893)" fill="#f98500"/>
        <path id="Trazado_27898" data-name="Trazado 27898" d="M833.032,434.215l9.714-9.715,2.114,2.114-9.714,9.714Z" transform="translate(-828.401 -419.867)" fill="#f98500"/>
        <path id="Trazado_27899" data-name="Trazado 27899" d="M839.64,440.823l9.714-9.715,2.113,2.113-9.714,9.715Z" transform="translate(-830.375 -421.842)" fill="#f98500"/>
        <path id="Trazado_27900" data-name="Trazado 27900" d="M846.247,447.43l9.715-9.714,2.113,2.113-9.714,9.715Z" transform="translate(-832.349 -423.816)" fill="#f98500"/>
        <path id="Trazado_27901" data-name="Trazado 27901" d="M852.855,454.038l9.715-9.714,2.113,2.113-9.714,9.714Z" transform="translate(-834.324 -425.79)" fill="#f98500"/>
      </g>
      <path id="Trazado_27902" data-name="Trazado 27902" d="M868.431,382.977l14.946-14.946L904.3,388.956,889.356,403.9Z" transform="translate(-828.076 -354.578)" fill="#ffcb73"/>
      <path id="Trazado_27903" data-name="Trazado 27903" d="M923.168,460.914,909.15,446.9l-4.484,4.484L918.684,465.4a3.171,3.171,0,0,0,4.483-4.484Z" transform="translate(-838.903 -378.143)" fill="#348fd9"/>
      <path id="Trazado_27904" data-name="Trazado 27904" d="M914.256,452,909.15,446.9l-4.484,4.484,5.32,5.32A22.572,22.572,0,0,0,914.256,452Z" transform="translate(-838.903 -378.143)" fill="#2d7dbf"/>
      <path id="Trazado_27905" data-name="Trazado 27905" d="M900.48,422.422A22.42,22.42,0,1,1,878.061,400,22.42,22.42,0,0,1,900.48,422.422Z" transform="translate(-824.254 -364.131)" fill="#348fd9"/>
      <path id="Trazado_27906" data-name="Trazado 27906" d="M897.05,424.969a16.441,16.441,0,1,1-16.441-16.441A16.441,16.441,0,0,1,897.05,424.969Z" transform="translate(-826.802 -366.679)" fill="#5ac6d4"/>
      <path id="Trazado_27907" data-name="Trazado 27907" d="M895.334,426.243a13.452,13.452,0,1,1-13.452-13.452A13.452,13.452,0,0,1,895.334,426.243Z" transform="translate(-828.076 -367.953)" fill="#60d1e0"/>
      <path id="Trazado_27908" data-name="Trazado 27908" d="M886.561,425.386h-2.989a1.5,1.5,0,0,1-1.495-1.495V422.4a1.5,1.5,0,0,1,1.495-1.495h2.989a1.494,1.494,0,0,1,1.494,1.495h2.989a4.484,4.484,0,0,0-4.484-4.484v-2.989h-2.989v2.989a4.484,4.484,0,0,0-4.484,4.484v1.494a4.484,4.484,0,0,0,4.484,4.484h2.989a1.494,1.494,0,0,1,1.494,1.494v1.495a1.494,1.494,0,0,1-1.494,1.494h-2.989a1.5,1.5,0,0,1-1.495-1.494h-2.989a4.484,4.484,0,0,0,4.484,4.483v2.989h2.989v-2.989a4.484,4.484,0,0,0,4.484-4.483v-1.495A4.484,4.484,0,0,0,886.561,425.386Z" transform="translate(-831.26 -368.59)" fill="#f35244"/>
      <path id="Trazado_27909" data-name="Trazado 27909" d="M848.882,383.859H838.42l1.494,7.473-10.462-7.473H818.99a5.979,5.979,0,0,1-5.979-5.978V356.956a5.979,5.979,0,0,1,5.979-5.979h29.893a5.979,5.979,0,0,1,5.979,5.979v20.925A5.979,5.979,0,0,1,848.882,383.859Z" transform="translate(-811.517 -349.483)" fill="#60d1e0"/>
      <path id="Trazado_27910" data-name="Trazado 27910" d="M852.419,352.1c-9.216,16.082-26.7,25.4-37.336,29.979a5.941,5.941,0,0,0,4.526,2.112h10.463l10.462,7.473-1.494-7.473H849.5a5.979,5.979,0,0,0,5.978-5.979V357.293A5.952,5.952,0,0,0,852.419,352.1Z" transform="translate(-812.136 -349.82)" fill="#5ac6d4"/>
      <path id="Trazado_27911" data-name="Trazado 27911" d="M852.288,381.923H820.9a1.494,1.494,0,0,1-1.494-1.494V359.5H822.4v19.43h29.892Z" transform="translate(-813.428 -352.031)" fill="#3fb7c7"/>
      <path id="Trazado_27912" data-name="Trazado 27912" d="M843.447,376.272a1.5,1.5,0,0,1-1.148-.536l-6.192-7.431-4.868,7.3a1.493,1.493,0,0,1-1.2.665,1.561,1.561,0,0,1-1.238-.6l-3.294-4.384-3.289,4.384-2.391-1.794,4.484-5.978a1.547,1.547,0,0,1,2.391,0l3.216,4.289,4.807-7.212a1.5,1.5,0,0,1,2.392-.128l6.077,7.294,6.415-11.544,2.613,1.449L844.753,375.5a1.5,1.5,0,0,1-1.165.763A1.362,1.362,0,0,1,843.447,376.272Z" transform="translate(-813.555 -352.359)" fill="#f35244"/>
      <path id="Trazado_27913" data-name="Trazado 27913" d="M930,391.771l-2.52,2.519,1.77,8.307a2.06,2.06,0,1,1-4.068.625L920.024,368.2a1.495,1.495,0,1,0-2.956.44l5.149,34.975a5.049,5.049,0,1,0,9.956-1.637Z" transform="translate(-842.602 -354.242)" fill="#d6d6d4"/>
      <path id="Trazado_27914" data-name="Trazado 27914" d="M841.21,454.831a1.5,1.5,0,0,0,2.114,0l7.473-7.473-2.113-2.113-6.417,6.416-27.779-27.779L831.367,407l-2.113-2.113-17.935,17.935a1.5,1.5,0,0,0,0,2.113Z" transform="translate(-810.88 -365.592)" fill="#00223d"/>
      <path id="Trazado_27915" data-name="Trazado 27915" d="M920.478,380.069l-2.989-26.9a1.5,1.5,0,0,0-1.322-1.322l-26.9-2.989a1.514,1.514,0,0,0-1.221.429l-10.463,10.463,2.113,2.113,9.954-9.954,25.01,2.777,2.777,25-5.865,5.866-2.84-19.1a4.5,4.5,0,1,0-3.005.114l2.312,15.544-20.869-20.863a1.493,1.493,0,0,0-2.113,0l-7.474,7.473,2.113,2.113,6.417-6.416,18.811,18.811-3.427,3.427,2.113,2.113,4.484-4.483a1.425,1.425,0,0,0,.212-.318l.628,4.219-2.953,2.953,2.113,2.113,1.387-1.388.949,6.37a5.049,5.049,0,1,0,9.956-1.637l-2.751-12.888,2.416-2.415A1.494,1.494,0,0,0,920.478,380.069ZM907.036,360.8a1.495,1.495,0,1,1-1.495,1.495A1.495,1.495,0,0,1,907.036,360.8Zm10.422,36.4a2.06,2.06,0,1,1-4.068.625l-1.272-8.6,3.006-3.006Z" transform="translate(-830.81 -348.846)" fill="#00223d"/>
      <path id="Trazado_27916" data-name="Trazado 27916" d="M826.427,427.607l9.714-9.714,2.113,2.113-9.714,9.714Z" transform="translate(-815.525 -369.477)" fill="#00223d"/>
      <path id="Trazado_27917" data-name="Trazado 27917" d="M833.031,434.214l9.714-9.714,2.115,2.113-9.715,9.714Z" transform="translate(-817.499 -371.451)" fill="#00223d"/>
      <path id="Trazado_27918" data-name="Trazado 27918" d="M839.64,442.541l5.679-5.679,2.114,2.113-5.68,5.679Z" transform="translate(-819.473 -375.145)" fill="#00223d"/>
      <path id="Trazado_27919" data-name="Trazado 27919" d="M846.247,449.85l4.037-4.036,2.113,2.113-4.035,4.037Z" transform="translate(-821.448 -377.82)" fill="#00223d"/>
      <path id="Trazado_27920" data-name="Trazado 27920" d="M852.855,456.9l2.989-2.989,2.113,2.113-2.989,2.989Z" transform="translate(-823.422 -380.241)" fill="#00223d"/>
      <path id="Trazado_27921" data-name="Trazado 27921" d="M877.422,445.719a23.755,23.755,0,0,0,14.139-4.672l10.78,10.78a4.665,4.665,0,0,0,6.6-6.6L897.909,434.2l-.191.191a23.89,23.89,0,1,0-20.3,11.328Zm29.4,1.623a1.676,1.676,0,0,1-2.37,2.371l-10.591-10.59a24.111,24.111,0,0,0,2.271-2.47Zm-29.4-46.462A20.925,20.925,0,1,1,856.5,421.8,20.924,20.924,0,0,1,877.422,400.88Z" transform="translate(-823.616 -363.514)" fill="#00223d"/>
      <path id="Trazado_27922" data-name="Trazado 27922" d="M879.971,442.268a17.935,17.935,0,1,0-17.935-17.935A17.935,17.935,0,0,0,879.971,442.268Zm0-32.882a14.946,14.946,0,1,1-14.946,14.946A14.946,14.946,0,0,1,879.971,409.386Z" transform="translate(-826.165 -366.042)" fill="#00223d"/>
      <path id="Trazado_27923" data-name="Trazado 27923" d="M886.561,432.858h-2.989a1.5,1.5,0,0,1-1.495-1.494h-2.989a4.484,4.484,0,0,0,4.484,4.483v2.989h2.989v-2.989a4.484,4.484,0,0,0,4.484-4.483v-1.495a4.484,4.484,0,0,0-4.484-4.484h-2.989a1.5,1.5,0,0,1-1.495-1.495V422.4a1.5,1.5,0,0,1,1.495-1.495h2.989a1.494,1.494,0,0,1,1.494,1.495h2.989a4.484,4.484,0,0,0-4.484-4.484v-2.989h-2.989v2.989a4.484,4.484,0,0,0-4.484,4.484v1.494a4.484,4.484,0,0,0,4.484,4.484h2.989a1.494,1.494,0,0,1,1.494,1.494v1.495A1.494,1.494,0,0,1,886.561,432.858Z" transform="translate(-831.26 -368.59)" fill="#00223d"/>
      <path id="Trazado_27924" data-name="Trazado 27924" d="M818.353,384.717h9.984l10.072,7.194a1.49,1.49,0,0,0,.868.28,1.515,1.515,0,0,0,.812-.239,1.494,1.494,0,0,0,.653-1.555l-1.135-5.68h8.639a7.482,7.482,0,0,0,7.473-7.473V356.319a7.482,7.482,0,0,0-7.473-7.473H818.353a7.482,7.482,0,0,0-7.473,7.473v20.925A7.482,7.482,0,0,0,818.353,384.717Zm-4.484-28.4a4.484,4.484,0,0,1,4.484-4.484h29.893a4.484,4.484,0,0,1,4.483,4.484v20.925a4.484,4.484,0,0,1-4.483,4.483H837.783a1.494,1.494,0,0,0-1.465,1.794l.747,3.768-7.386-5.276a1.485,1.485,0,0,0-.864-.285H818.353a4.484,4.484,0,0,1-4.484-4.483Z" transform="translate(-810.88 -348.846)" fill="#00223d"/>
      <path id="Trazado_27925" data-name="Trazado 27925" d="M820.9,381.923h31.387v-2.989H822.4v-3.986l2.989-3.985,3.289,4.384a1.589,1.589,0,0,0,1.235.6,1.494,1.494,0,0,0,1.2-.665l4.868-7.3,6.191,7.431a1.5,1.5,0,0,0,1.149.536,1.18,1.18,0,0,0,.141,0,1.493,1.493,0,0,0,1.165-.762L852.1,361.73l-2.613-1.449-6.415,11.545L837,364.531a1.472,1.472,0,0,0-1.231-.543,1.5,1.5,0,0,0-1.163.663l-4.807,7.213-3.216-4.289a1.547,1.547,0,0,0-2.391,0l-1.794,2.391V359.5h-2.989v20.925A1.494,1.494,0,0,0,820.9,381.923Z" transform="translate(-813.428 -352.031)" fill="#00223d"/>
    </g>
  </g>
</svg>
