<svg xmlns="http://www.w3.org/2000/svg" width="113" height="113" viewBox="0 0 113 113">
  <g id="Grupo_17847" data-name="Grupo 17847" transform="translate(-272 -8150)">
    <circle id="Elipse_1041" data-name="Elipse 1041" cx="51" cy="51" r="51" transform="translate(277 8156)" fill="#f3ff7e"/>
    <g id="Grupo_17349" data-name="Grupo 17349" transform="translate(-117 841)">
      <g id="Grupo_17351" data-name="Grupo 17351" transform="translate(11 -85)">
        <g id="Grupo_17352" data-name="Grupo 17352">
          <g id="Grupo_17345" data-name="Grupo 17345" transform="translate(0 403)">
            <g id="Grupo_17343" data-name="Grupo 17343" transform="translate(0 560)">
              <g id="Grupo_17342" data-name="Grupo 17342">
                <g id="Grupo_17335" data-name="Grupo 17335" transform="translate(0 1019)">
                  <rect id="Rectángulo_4354" data-name="Rectángulo 4354" width="113" height="113" transform="translate(378 5412)" fill="none"/>
                </g>
              </g>
            </g>
          </g>
          <g id="Grupo_17350" data-name="Grupo 17350" transform="translate(-438.951 6727.498)">
            <path id="Trazado_27538" data-name="Trazado 27538" d="M867.713,750.656a10.6,10.6,0,0,0-5.177-2.963l-7.34-1.759,0,0,0,0v-4.481h-8.962v4.495h0l-7.32,1.749a10.633,10.633,0,0,0-8.163,10.343v11.992h16.226Z" transform="translate(-1.015 -19.923)" fill="#78d2fa"/>
            <path id="Trazado_27539" data-name="Trazado 27539" d="M864.114,741.453v4.6L859.463,757.2l-4.646-11.125v-4.617Z" transform="translate(-9.74 -19.923)" fill="#ffb487"/>
            <path id="Trazado_27540" data-name="Trazado 27540" d="M866.387,717.236v6.206a9.989,9.989,0,0,1-9.99,9.99h0a9.99,9.99,0,0,1-9.99-9.99v-6.206Z" transform="translate(-6.691 -11.143)" fill="#ffcdac"/>
            <path id="Trazado_27541" data-name="Trazado 27541" d="M866.387,713.266v-2.405a9.989,9.989,0,0,0-9.99-9.989h0a9.99,9.99,0,0,0-9.99,9.989v2.405h6.886a23.821,23.821,0,0,0,12.243-3.387h0" transform="translate(-6.691 -5.21)" fill="#878791"/>
            <path id="Trazado_27542" data-name="Trazado 27542" d="M910.447,750.656a10.6,10.6,0,0,1,5.178-2.963l7.339-1.759,0,0,0,0v-4.481h8.962v4.495h0l7.32,1.749a10.633,10.633,0,0,1,8.163,10.343v11.992H931.184Z" transform="translate(-29.91 -19.923)" fill="#e9f857"/>
            <path id="Trazado_27543" data-name="Trazado 27543" d="M877.508,755.615l-10.223,2.449a14.812,14.812,0,0,0-11.361,14.4V782.3h55.633v-9.824a14.812,14.812,0,0,0-11.371-14.407l-10.2-2.436Z" transform="translate(-10.142 -25.057)" fill="#ff5a5a"/>
            <g id="Grupo_17347" data-name="Grupo 17347" transform="translate(866.959 721.53)">
              <path id="Trazado_27544" data-name="Trazado 27544" d="M939.079,741.453v4.617L934.432,757.2l-4.651-11.141v-4.6Z" transform="translate(-903.879 -741.453)" fill="#ffb487"/>
              <path id="Trazado_27545" data-name="Trazado 27545" d="M895.806,767.073l6.656-15.111a5.492,5.492,0,0,1-.775-2.817v-1.453H889.919v1.453a5.491,5.491,0,0,1-.773,2.813Z" transform="translate(-889.146 -743.715)" fill="#ffb487"/>
            </g>
            <path id="Trazado_27546" data-name="Trazado 27546" d="M905.592,710.594v9.6a13.914,13.914,0,0,1-13.914,13.914h0a13.914,13.914,0,0,1-13.914-13.914v-9.6Z" transform="translate(-18.06 -8.735)" fill="#ffcdac"/>
            <path id="Trazado_27547" data-name="Trazado 27547" d="M891.678,689.3h0a13.914,13.914,0,0,0-13.915,13.914v3.349h6.8a15.287,15.287,0,0,0,11.717-5.468h0l9.308,5.468v-3.349A13.913,13.913,0,0,0,891.678,689.3Z" transform="translate(-18.06 -1.015)" fill="#f9a825"/>
            <path id="Trazado_27548" data-name="Trazado 27548" d="M921.432,717.236v6.206a9.99,9.99,0,0,0,9.99,9.99h0a9.99,9.99,0,0,0,9.99-9.99v-6.206Z" transform="translate(-33.892 -11.143)" fill="#ffcdac"/>
            <path id="Trazado_27549" data-name="Trazado 27549" d="M921.432,713.266v-2.405a9.99,9.99,0,0,1,9.99-9.989h0a9.99,9.99,0,0,1,9.99,9.989v2.405h-6.886a23.82,23.82,0,0,1-12.243-3.387h0" transform="translate(-33.892 -5.21)" fill="#878791"/>
            <path id="Trazado_27550" data-name="Trazado 27550" d="M898.5,794.68a1.785,1.785,0,1,0,1.261.523A1.8,1.8,0,0,0,898.5,794.68Z" transform="translate(-24.933 -39.221)" fill="#00223d"/>
            <path id="Trazado_27551" data-name="Trazado 27551" d="M909.751,726.039l-5.951-1.422v-2.36a11.775,11.775,0,0,0,5.5-9.958v-6.648a11.767,11.767,0,0,0-20.583-7.8,15.726,15.726,0,0,0-15.084-11.35h0a15.726,15.726,0,0,0-15.094,11.381,11.766,11.766,0,0,0-20.61,7.769V712.3a11.774,11.774,0,0,0,5.5,9.958v2.36l-5.951,1.422a12.377,12.377,0,0,0-9.533,12.078v11.992a1.784,1.784,0,0,0,1.784,1.784H844v5.352a1.784,1.784,0,0,0,1.784,1.784h19.57a1.784,1.784,0,0,0,0-3.568h-7.964v-7.851a1.784,1.784,0,1,0-3.567,0v7.851h-6.254v-8.048a12.987,12.987,0,0,1,9.992-12.669l8.774-2.1,5.645,12.843a1.782,1.782,0,0,0,1.633,1.066h0a1.784,1.784,0,0,0,1.633-1.066l5.639-12.825,8.748,2.09a12.985,12.985,0,0,1,10,12.671v1.991a1.791,1.791,0,0,0,0,1.4v4.654h-6.218v-7.851a1.784,1.784,0,1,0-3.568,0v7.851H881.11a1.784,1.784,0,0,0,0,3.568h20.306a1.784,1.784,0,0,0,1.784-1.784v-5.352h14.3a1.784,1.784,0,0,0,1.784-1.784V738.116A12.378,12.378,0,0,0,909.751,726.039Zm-9.514.082-2.724,6.522-2.687-6.435a1.676,1.676,0,0,0,.013-.2c0-.017,0-.033,0-.05v-2.2a11.685,11.685,0,0,0,5.395,0v2.269C900.233,726.057,900.235,726.089,900.237,726.121Zm-34.655,1.433a12.4,12.4,0,0,0-3.645-1.52l-5.972-1.43v-2.339a11.863,11.863,0,0,0,3.687-3.676,15.817,15.817,0,0,0,5.93,6.341Zm-4.076-16.094v-4.126h5.019a17.024,17.024,0,0,0,12.057-4.984l7.175,4.215v5.314a12.129,12.129,0,0,1-24.251-.419Zm20.128,13.5a15.81,15.81,0,0,0,5.971-6.343,11.866,11.866,0,0,0,3.667,3.645V724.6l-5.972,1.43a12.388,12.388,0,0,0-3.666,1.533v-2.6Zm15.9-4.458a8.215,8.215,0,0,1-8.206-8.206v-.291c.006-.182.01-4.8.01-4.8a25.607,25.607,0,0,0,11.3,2.629h5.1V712.3A8.216,8.216,0,0,1,897.53,720.505Zm0-23.06a8.215,8.215,0,0,1,8.206,8.206v.621h-5.1a22.042,22.042,0,0,1-10.979-2.93A8.222,8.222,0,0,1,897.53,697.446ZM861.505,702.2a12.131,12.131,0,0,1,24.261,0v.233l-6.62-3.89a1.783,1.783,0,0,0-2.271.392,13.472,13.472,0,0,1-10.35,4.831h-5.02ZM841.5,705.651a8.207,8.207,0,0,1,16.081-2.309,22.042,22.042,0,0,1-10.979,2.93h-5.1v-.621Zm0,4.189h5.1a25.607,25.607,0,0,0,11.31-2.633V712.3a8.206,8.206,0,0,1-16.412,0Zm8.206,14.233a11.753,11.753,0,0,0,2.692-.314v2.153c0,.034,0,.067,0,.1a1.648,1.648,0,0,0,.011.168l-2.7,6.462L847,726.154c0-.043.005-.085.005-.129v-2.269A11.745,11.745,0,0,0,849.706,724.073ZM844,747.411v.913h-5.345V740.4a1.784,1.784,0,0,0-3.568,0v7.925h-3.568V738.116a8.822,8.822,0,0,1,6.794-8.608l5.654-1.351,3.691,8.84A16.56,16.56,0,0,0,844,747.411Zm12.729-16.139a16.726,16.726,0,0,0-3.016,1.037l1.738-4.161L861.1,729.5a8.818,8.818,0,0,1,1.279.413Zm16.883,9.06-4.462-10.149V726.5a15.71,15.71,0,0,0,8.916.017V730.2Zm11.207-10.4a8.841,8.841,0,0,1,1.312-.426l5.641-1.352,1.745,4.179a16.8,16.8,0,0,0-3.057-1.053Zm30.9,18.393h-3.568V740.4a1.784,1.784,0,0,0-3.568,0v7.925H903.2v-.9a16.562,16.562,0,0,0-3.647-10.4l3.7-8.864,5.668,1.354a8.822,8.822,0,0,1,6.795,8.608Z" transform="translate(0 0)" fill="#00223d"/>
          </g>
        </g>
      </g>
    </g>
  </g>
</svg>
