<svg xmlns="http://www.w3.org/2000/svg" width="113" height="113" viewBox="0 0 113 113">
  <g id="Grupo_17340" data-name="Grupo 17340" transform="translate(-378 -6431)">
    <g id="Grupo_17342" data-name="Grupo 17342">
      <g id="Grupo_17335" data-name="Grupo 17335" transform="translate(0 1019)">
        <rect id="Rectángulo_4354" data-name="Rectángulo 4354" width="113" height="113" transform="translate(378 5412)" fill="none"/>
      </g>
      <g id="Grupo_17341" data-name="Grupo 17341" transform="translate(397.331 6445.949)">
        <path id="Trazado_27482" data-name="Trazado 27482" d="M-567.561,1238.195v-16.717a7.791,7.791,0,0,1,7.791-7.791,7.791,7.791,0,0,1,7.791,7.791v13.471a3.246,3.246,0,0,1-3.246,3.246Z" transform="translate(624.693 -1212.063)" fill="#feda9b"/>
        <path id="Trazado_27483" data-name="Trazado 27483" d="M-589.079,1213.686h-55.509a7.791,7.791,0,0,0-7.791,7.791v60.054a3.246,3.246,0,0,0,3.246,3.246h52.263v-63.3a7.791,7.791,0,0,1,7.791-7.791" transform="translate(654.002 -1212.063)" fill="#fff"/>
        <path id="Trazado_27484" data-name="Trazado 27484" d="M-590.817,1308.513l-2.388-5.731a16.428,16.428,0,0,1-1.264-6.32v-12.585a3.442,3.442,0,0,1,3.443-3.442,3.441,3.441,0,0,1,3.266,2.354l2.446,7.339a4.339,4.339,0,0,0,4.116,2.966,4.338,4.338,0,0,0,4.338-4.338v-31.741l4.939,4.929a22.067,22.067,0,0,1,6.477,15.617v17.254a31.976,31.976,0,0,1-3.084,13.7" transform="translate(633.991 -1227.035)" fill="#ffd0bb"/>
        <g id="Grupo_17324" data-name="Grupo 17324" transform="translate(10.334 10.388)">
          <path id="Trazado_27485" data-name="Trazado 27485" d="M-630.3,1237.467h-7.142a1.623,1.623,0,0,1-1.623-1.623V1228.7a1.623,1.623,0,0,1,1.623-1.623h7.142a1.623,1.623,0,0,1,1.623,1.623v7.141A1.623,1.623,0,0,1-630.3,1237.467Z" transform="translate(639.069 -1227.079)" fill="#36d28f"/>
          <path id="Trazado_27486" data-name="Trazado 27486" d="M-630.3,1267.228h-7.142a1.623,1.623,0,0,1-1.623-1.623v-7.141a1.623,1.623,0,0,1,1.623-1.623h7.142a1.623,1.623,0,0,1,1.623,1.623v7.141A1.623,1.623,0,0,1-630.3,1267.228Z" transform="translate(639.069 -1237.363)" fill="#36d28f"/>
          <path id="Trazado_27487" data-name="Trazado 27487" d="M-630.3,1296.988h-7.142a1.623,1.623,0,0,1-1.623-1.623v-7.141a1.623,1.623,0,0,1,1.623-1.623h7.142a1.623,1.623,0,0,1,1.623,1.623v7.141A1.623,1.623,0,0,1-630.3,1296.988Z" transform="translate(639.069 -1247.647)" fill="#36d28f"/>
        </g>
        <path id="Trazado_27488" data-name="Trazado 27488" d="M-589.936,1211.206h-55.509a9.425,9.425,0,0,0-9.414,9.414v60.054a4.875,4.875,0,0,0,4.869,4.869h21.317a1.623,1.623,0,0,0,1.623-1.623,1.623,1.623,0,0,0-1.623-1.623H-649.99a1.625,1.625,0,0,1-1.623-1.623V1220.62a6.175,6.175,0,0,1,6.168-6.168h48.406a9.375,9.375,0,0,0-2.311,6.168v52.306a2.718,2.718,0,0,1-2.715,2.715,2.713,2.713,0,0,1-2.576-1.856l-2.446-7.34a5.059,5.059,0,0,0-4.806-3.463,5.071,5.071,0,0,0-5.066,5.065v1.264h-8.413a1.623,1.623,0,0,0-1.623,1.623,1.623,1.623,0,0,0,1.623,1.623h8.413v8.075a17.955,17.955,0,0,0,1.389,6.945l2.387,5.731a1.623,1.623,0,0,0,1.5,1,1.619,1.619,0,0,0,.624-.125,1.623,1.623,0,0,0,.874-2.123l-2.388-5.731a14.732,14.732,0,0,1-1.139-5.7v-12.586a1.821,1.821,0,0,1,1.82-1.819,1.817,1.817,0,0,1,1.726,1.244l2.446,7.339a5.955,5.955,0,0,0,5.656,4.077,5.968,5.968,0,0,0,5.961-5.962V1245.1l2.169,2.165a20.305,20.305,0,0,1,6,14.468v17.254a30.542,30.542,0,0,1-2.927,13,1.623,1.623,0,0,0,.771,2.162,1.624,1.624,0,0,0,2.162-.771,33.816,33.816,0,0,0,3.24-14.395v-17.254a23.528,23.528,0,0,0-6.954-16.766l-4.462-4.454v-1.551h10.713a4.875,4.875,0,0,0,4.869-4.87V1220.62A9.425,9.425,0,0,0-589.936,1211.206Zm6.168,22.886a1.625,1.625,0,0,1-1.623,1.623H-596.1V1220.62a6.175,6.175,0,0,1,6.168-6.168,6.175,6.175,0,0,1,6.168,6.168Z" transform="translate(654.859 -1211.206)" fill="#00223d"/>
        <path id="Trazado_27489" data-name="Trazado 27489" d="M-604.874,1319.833a1.636,1.636,0,0,0-1.148.475,1.638,1.638,0,0,0-.475,1.148,1.634,1.634,0,0,0,.475,1.147,1.637,1.637,0,0,0,1.148.476,1.637,1.637,0,0,0,1.147-.476,1.635,1.635,0,0,0,.476-1.147,1.639,1.639,0,0,0-.476-1.148A1.636,1.636,0,0,0-604.874,1319.833Z" transform="translate(638.148 -1248.742)" fill="#00223d"/>
        <path id="Trazado_27490" data-name="Trazado 27490" d="M-627.915,1227.845a3.25,3.25,0,0,0-3.246-3.246H-638.3a3.25,3.25,0,0,0-3.246,3.246v7.141a3.25,3.25,0,0,0,3.246,3.246h7.142a3.25,3.25,0,0,0,3.246-3.246Zm-3.246,7.141H-638.3v-7.141h7.142l0,7.141Z" transform="translate(650.26 -1215.834)" fill="#00223d"/>
        <path id="Trazado_27491" data-name="Trazado 27491" d="M-627.915,1257.606a3.25,3.25,0,0,0-3.246-3.246H-638.3a3.25,3.25,0,0,0-3.246,3.246v7.141a3.25,3.25,0,0,0,3.246,3.246h7.142a3.25,3.25,0,0,0,3.246-3.246Zm-3.246,7.141H-638.3v-7.141h7.142l0,7.141Z" transform="translate(650.26 -1226.118)" fill="#00223d"/>
        <path id="Trazado_27492" data-name="Trazado 27492" d="M-631.161,1284.121H-638.3a3.249,3.249,0,0,0-3.246,3.246v7.141a3.249,3.249,0,0,0,3.246,3.246h7.142a3.249,3.249,0,0,0,3.246-3.246v-7.141A3.249,3.249,0,0,0-631.161,1284.121Zm0,10.387H-638.3v-7.141h7.142l0,7.141Z" transform="translate(650.26 -1236.402)" fill="#00223d"/>
        <path id="Trazado_27493" data-name="Trazado 27493" d="M-588.131,1243.717a1.623,1.623,0,0,0,1.623-1.623,1.623,1.623,0,0,0-1.623-1.623H-599.32a1.623,1.623,0,0,0-1.623,1.623,1.623,1.623,0,0,0,1.623,1.623Z" transform="translate(636.228 -1221.318)" fill="#00223d"/>
        <path id="Trazado_27494" data-name="Trazado 27494" d="M-610.661,1243.717a1.636,1.636,0,0,0,1.148-.475,1.637,1.637,0,0,0,.475-1.148,1.636,1.636,0,0,0-.475-1.147,1.637,1.637,0,0,0-1.148-.476,1.633,1.633,0,0,0-1.147.476,1.63,1.63,0,0,0-.476,1.147,1.632,1.632,0,0,0,.476,1.148A1.632,1.632,0,0,0-610.661,1243.717Z" transform="translate(640.147 -1221.318)"/>
        <path id="Trazado_27495" data-name="Trazado 27495" d="M-610.662,1273.478h18.612a1.623,1.623,0,0,0,1.623-1.623,1.623,1.623,0,0,0-1.623-1.623h-18.612a1.623,1.623,0,0,0-1.623,1.623A1.623,1.623,0,0,0-610.662,1273.478Z" transform="translate(640.148 -1231.603)" fill="#00223d"/>
      </g>
    </g>
  </g>
</svg>
