<svg xmlns="http://www.w3.org/2000/svg" width="113" height="113" viewBox="0 0 113 113">
  <g id="Grupo_17501" data-name="Grupo 17501" transform="translate(-389 -1598)">
    <g id="Grupo_17495" data-name="Grupo 17495" transform="translate(404 1614)">
      <path id="Trazado_27840" data-name="Trazado 27840" d="M1667.135,372.381H1726.1l-7.641,31.842-43.484.124Z" transform="translate(-1643.402 -359.663)" fill="#eaeaea"/>
      <path id="Trazado_27841" data-name="Trazado 27841" d="M1677.212,413.433l.727,2.965,43.484-.123.707-2.947Z" transform="translate(-1646.368 -371.715)" fill="#cbcbcb"/>
      <path id="Trazado_27842" data-name="Trazado 27842" d="M1712.2,417.13h-50.721a8.813,8.813,0,0,1-2.065-17.381l-8.669-35.359a.421.421,0,0,0-.409-.321H1638.2a2.95,2.95,0,0,1,0-5.9h12.134a6.307,6.307,0,0,1,6.139,4.816l9.116,37.178a4.233,4.233,0,0,1-4.111,5.242,2.912,2.912,0,0,0,0,5.825H1712.2a2.95,2.95,0,0,1,0,5.9Z" transform="translate(-1634.017 -355.48)" fill="#dd636e"/>
      <g id="Grupo_17493" data-name="Grupo 17493" transform="translate(1.232 4.161)">
        <g id="Grupo_17492" data-name="Grupo 17492">
          <path id="Trazado_27843" data-name="Trazado 27843" d="M1719.462,434.472H1668.74a8.826,8.826,0,0,1-8.687-7.34,8.813,8.813,0,0,0,8.687,10.3h50.721a2.947,2.947,0,0,0,2.55-4.428,2.946,2.946,0,0,1-2.55,1.472Z" transform="translate(-1642.513 -379.939)" fill="#da4a54"/>
          <path id="Trazado_27844" data-name="Trazado 27844" d="M1650.333,362.548a.821.821,0,0,0-.821-.821H1638.2a2.947,2.947,0,0,1-2.55-1.472,2.938,2.938,0,0,0-.39,1.713,3.005,3.005,0,0,0,3.023,2.715h12.051v-2.135Z" transform="translate(-1635.249 -360.255)" fill="#da4a54"/>
        </g>
      </g>
      <ellipse id="Elipse_1061" data-name="Elipse 1061" cx="9.794" cy="9.794" rx="9.794" ry="9.794" transform="translate(57.174 61.65)" fill="#8c808a"/>
      <path id="Trazado_27845" data-name="Trazado 27845" d="M1724.318,461.822a9.8,9.8,0,0,1-9.683-8.316,9.9,9.9,0,0,0-.111,1.478A9.794,9.794,0,1,0,1734,453.506a9.8,9.8,0,0,1-9.682,8.316Z" transform="translate(-1657.35 -383.54)" fill="#7b7179"/>
      <ellipse id="Elipse_1062" data-name="Elipse 1062" cx="9.794" cy="9.794" rx="9.794" ry="9.794" transform="translate(26.338 61.65)" fill="#8c808a"/>
      <path id="Trazado_27846" data-name="Trazado 27846" d="M1680.62,461.822a9.8,9.8,0,0,1-9.683-8.316,9.9,9.9,0,0,0-.111,1.478,9.794,9.794,0,1,0,19.477-1.478,9.8,9.8,0,0,1-9.683,8.316Z" transform="translate(-1644.488 -383.54)" fill="#7b7179"/>
      <path id="Trazado_27847" data-name="Trazado 27847" d="M1633.5,354.358" transform="translate(-1633.503 -354.358)" fill="#7b7179"/>
      <ellipse id="Elipse_1063" data-name="Elipse 1063" cx="4.743" cy="4.743" rx="4.743" ry="4.743" transform="translate(31.389 66.701)" fill="#f9ef63"/>
      <path id="Trazado_27848" data-name="Trazado 27848" d="M1682.727,456.77a4.743,4.743,0,0,1-4.507-3.264,4.743,4.743,0,1,0,9.013,0A4.743,4.743,0,0,1,1682.727,456.77Z" transform="translate(-1646.595 -383.54)" fill="#f1d333"/>
      <ellipse id="Elipse_1064" data-name="Elipse 1064" cx="4.743" cy="4.743" rx="4.743" ry="4.743" transform="translate(62.225 66.701)" fill="#f9ef63"/>
      <path id="Trazado_27849" data-name="Trazado 27849" d="M1726.425,456.77a4.743,4.743,0,0,1-4.506-3.264,4.743,4.743,0,1,0,9.013,0A4.743,4.743,0,0,1,1726.425,456.77Z" transform="translate(-1659.457 -383.54)" fill="#f1d333"/>
      <g id="Grupo_17494" data-name="Grupo 17494" transform="translate(0 1.458)">
        <path id="Trazado_27850" data-name="Trazado 27850" d="M1718.948,417.95h-20.392a1.232,1.232,0,0,0,0,2.464h20.392a1.718,1.718,0,1,1,0,3.437h-50.721a7.581,7.581,0,0,1-1.776-14.952,1.231,1.231,0,0,0,.907-1.491l-5.218-21.281a1.232,1.232,0,0,0-2.393.586l4.941,20.153a10.046,10.046,0,0,0,3.538,19.448h1.735a11.023,11.023,0,0,0-3.553,11.966,1.232,1.232,0,0,0,2.344-.76,8.571,8.571,0,1,1,2.319,3.629,1.232,1.232,0,1,0-1.677,1.8,11.023,11.023,0,1,0,14.442-16.64H1700.8a11.026,11.026,0,1,0,13.873,0h4.276a4.182,4.182,0,1,0,0-8.364Zm-2.651,16.926a8.562,8.562,0,1,1-8.562-8.562A8.572,8.572,0,0,1,1716.3,434.876Z" transform="translate(-1640.767 -364.89)" fill="#00223d"/>
        <path id="Trazado_27851" data-name="Trazado 27851" d="M1717.166,366.922a1.231,1.231,0,0,0-.967-.469h-58l-1.048-4.274a7.537,7.537,0,0,0-7.336-5.755h-12.134a4.182,4.182,0,0,0,0,8.364h11.5l2.2,8.992a1.232,1.232,0,1,0,2.393-.586l-2.356-9.61a1.65,1.65,0,0,0-1.605-1.26h-12.134a1.718,1.718,0,0,1,0-3.437h12.134a5.078,5.078,0,0,1,4.943,3.878l9.116,37.178a3,3,0,0,1-2.915,3.716,4.144,4.144,0,1,0,0,8.288h25.4a1.232,1.232,0,0,0,0-2.464h-25.4a1.681,1.681,0,0,1,0-3.361,5.47,5.47,0,0,0,5.463-5.245l42.136-.12a1.231,1.231,0,0,0,1.194-.944l7.642-31.842a1.231,1.231,0,0,0-.231-1.05Zm-7.033,20.759h-7.488l1.595-8.15h7.849Zm-7.921-10.614h-7.727l.708-8.15h8.613Zm-9.574,21.274.711-8.2h6.3l-1.6,8.18Zm-17.136.049-1.612-8.244h6.3l.715,8.229Zm-9.463.027-2.027-8.271h7.367l1.615,8.251Zm15.492-21.349-.708-8.15h11.9l-.708,8.15Zm10.267,2.464-.708,8.15h-8.637l-.708-8.15Zm-11.818,8.15h-6.572l-1.594-8.15h7.459Zm-.921-10.614h-7.727l-1.595-8.15h8.614ZM1670.9,387.68h-7.489l-2-8.15h7.894Zm11.77,2.464h8.21l-.713,8.2-6.783.019Zm10.9-2.464.708-8.15h7.46l-1.595,8.15Zm-26.336-18.764,1.594,8.15h-8.016l-2-8.15Zm40.359,29.382-7.02.02,1.6-8.173h7.378Zm5.1-21.232h-7.958l1.594-8.15h8.32Z" transform="translate(-1633.503 -356.424)" fill="#00223d"/>
        <path id="Trazado_27852" data-name="Trazado 27852" d="M1682.213,459.083a5.975,5.975,0,1,0-5.975-5.974A5.982,5.982,0,0,0,1682.213,459.083Zm0-9.485a3.511,3.511,0,1,1-3.511,3.511A3.515,3.515,0,0,1,1682.213,449.6Z" transform="translate(-1646.081 -383.123)" fill="#00223d"/>
        <path id="Trazado_27853" data-name="Trazado 27853" d="M1725.911,459.083a5.975,5.975,0,1,0-5.974-5.974A5.981,5.981,0,0,0,1725.911,459.083Zm0-9.485a3.511,3.511,0,1,1-3.511,3.511A3.515,3.515,0,0,1,1725.911,449.6Z" transform="translate(-1658.943 -383.123)" fill="#00223d"/>
      </g>
    </g>
    <rect id="Rectángulo_4371" data-name="Rectángulo 4371" width="113" height="113" transform="translate(389 1598)" fill="none"/>
  </g>
</svg>
