<svg xmlns="http://www.w3.org/2000/svg" width="113" height="113" viewBox="0 0 113 113">
  <g id="Grupo_17552" data-name="Grupo 17552" transform="translate(-715 4042)">
    <rect id="Rectángulo_4372" data-name="Rectángulo 4372" width="113" height="113" transform="translate(715 -4042)" fill="none"/>
    <g id="Grupo_17543" data-name="Grupo 17543" transform="translate(725 -4031)">
      <g id="Grupo_17541" data-name="Grupo 17541" transform="translate(4.727 1.333)">
        <g id="Grupo_17527" data-name="Grupo 17527" transform="translate(59.707 42.969)">
          <path id="Trazado_27926" data-name="Trazado 27926" d="M736.695,95.728l2.766,5.6,6.184.9-4.475,4.362,1.056,6.159-5.531-2.908-5.531,2.908,1.057-6.159-4.475-4.362,6.184-.9Z" transform="translate(-727.745 -95.728)" fill="#ffe07d"/>
        </g>
        <g id="Grupo_17528" data-name="Grupo 17528" transform="translate(3.514 29.606)">
          <path id="Trazado_27927" data-name="Trazado 27927" d="M663.316,78.278l2.766,5.6,6.184.9-4.475,4.362,1.056,6.159-5.531-2.908L657.785,95.3l1.057-6.159-4.475-4.362,6.184-.9Z" transform="translate(-654.367 -78.278)" fill="#ffe07d"/>
        </g>
        <g id="Grupo_17534" data-name="Grupo 17534" transform="translate(28.858)">
          <g id="Grupo_17533" data-name="Grupo 17533">
            <g id="Grupo_17529" data-name="Grupo 17529">
              <path id="Trazado_27928" data-name="Trazado 27928" d="M693.066,45.872c-6.485,0-5.559-6.254-5.559-6.254h5.559l.287,3.021Z" transform="translate(-687.461 -39.618)" fill="#ffd064"/>
            </g>
            <g id="Grupo_17530" data-name="Grupo 17530" transform="translate(18.087)">
              <path id="Trazado_27929" data-name="Trazado 27929" d="M711.366,45.872c6.486,0,5.559-6.254,5.559-6.254h-5.559l-.286,3.021Z" transform="translate(-711.08 -39.618)" fill="#ffd064"/>
            </g>
            <g id="Grupo_17531" data-name="Grupo 17531" transform="translate(5.593)">
              <path id="Trazado_27930" data-name="Trazado 27930" d="M694.765,39.618v9.135a6.4,6.4,0,0,0,6.4,6.4h0a6.4,6.4,0,0,0,6.4-6.4V39.618Z" transform="translate(-694.765 -39.618)" fill="#ffe07d"/>
            </g>
            <g id="Grupo_17532" data-name="Grupo 17532" transform="translate(5.448 21.719)">
              <path id="Trazado_27931" data-name="Trazado 27931" d="M694.576,74.442a6.463,6.463,0,0,1,12.925,0Z" transform="translate(-694.576 -67.979)" fill="#ffe07d"/>
            </g>
          </g>
        </g>
        <g id="Grupo_17540" data-name="Grupo 17540" transform="translate(0 36.199)">
          <g id="Grupo_17539" data-name="Grupo 17539">
            <g id="Grupo_17538" data-name="Grupo 17538">
              <g id="Grupo_17535" data-name="Grupo 17535" transform="translate(27.136 0.001)">
                <path id="Trazado_27932" data-name="Trazado 27932" d="M712.348,139.244H685.213V88.984a2.094,2.094,0,0,1,2.094-2.1h22.948a2.094,2.094,0,0,1,2.094,2.1v50.26Z" transform="translate(-685.213 -86.889)" fill="#c3ddff"/>
              </g>
              <path id="Trazado_27933" data-name="Trazado 27933" d="M715.738,86.888h-7.113a2.1,2.1,0,0,1,2.094,2.1v50.261h7.113V88.984A2.1,2.1,0,0,0,715.738,86.888Z" transform="translate(-663.56 -86.888)" fill="#a4ccff"/>
              <g id="Grupo_17536" data-name="Grupo 17536" transform="translate(54.456 31.451)">
                <path id="Trazado_27934" data-name="Trazado 27934" d="M748.025,148.863H720.888V130.054a2.1,2.1,0,0,1,2.094-2.1H745.93a2.1,2.1,0,0,1,2.094,2.1v18.809Z" transform="translate(-720.888 -127.958)" fill="#b3e59f"/>
              </g>
              <path id="Trazado_27935" data-name="Trazado 27935" d="M751.413,127.958H744.3a2.1,2.1,0,0,1,2.094,2.1v18.809h7.113V130.054A2.1,2.1,0,0,0,751.413,127.958Z" transform="translate(-671.915 -96.507)" fill="#95d6a4"/>
              <g id="Grupo_17537" data-name="Grupo 17537" transform="translate(0 17.518)">
                <path id="Trazado_27936" data-name="Trazado 27936" d="M676.914,144.6H649.778V111.858a2.1,2.1,0,0,1,2.094-2.1H674.82a2.1,2.1,0,0,1,2.094,2.1Z" transform="translate(-649.778 -109.763)" fill="#ff8086"/>
              </g>
              <path id="Trazado_27937" data-name="Trazado 27937" d="M680.3,109.763H673.19a2.1,2.1,0,0,1,2.094,2.1V144.6H682.4V111.858A2.1,2.1,0,0,0,680.3,109.763Z" transform="translate(-655.261 -92.245)" fill="#e5646e"/>
            </g>
          </g>
        </g>
      </g>
      <g id="Grupo_17542" data-name="Grupo 17542" transform="translate(0 0)">
        <path id="Trazado_27938" data-name="Trazado 27938" d="M730.379,106.649l-.937,5.468a1.333,1.333,0,0,0,1.934,1.406l4.911-2.582,4.91,2.582a1.333,1.333,0,0,0,1.934-1.406l-.937-5.468,3.973-3.873a1.334,1.334,0,0,0-.74-2.274l-5.49-.8-2.455-4.975a1.334,1.334,0,0,0-2.392,0L732.635,99.7l-5.49.8a1.333,1.333,0,0,0-.739,2.274Zm3.334-4.406a1.333,1.333,0,0,0,1-.729l1.57-3.181,1.569,3.181a1.333,1.333,0,0,0,1,.729l3.51.51-2.539,2.476a1.333,1.333,0,0,0-.384,1.181l.6,3.5-3.139-1.65a1.334,1.334,0,0,0-1.241,0l-3.139,1.65.6-3.5a1.333,1.333,0,0,0-.384-1.181l-2.539-2.476Z" transform="translate(-662.903 -51.018)" fill="#00223d"/>
        <path id="Trazado_27939" data-name="Trazado 27939" d="M657,89.2l-.938,5.468A1.334,1.334,0,0,0,658,96.074l4.91-2.582,4.91,2.582a1.334,1.334,0,0,0,1.935-1.406l-.937-5.468,3.972-3.873a1.334,1.334,0,0,0-.739-2.275l-5.49-.8L664.1,77.28a1.334,1.334,0,0,0-2.392,0l-2.456,4.975-5.489.8a1.334,1.334,0,0,0-.74,2.275Zm3.334-4.406a1.333,1.333,0,0,0,1-.73l1.57-3.18,1.57,3.18a1.335,1.335,0,0,0,1,.73l3.51.51-2.539,2.476a1.332,1.332,0,0,0-.384,1.18l.6,3.5-3.139-1.65a1.334,1.334,0,0,0-1.241,0l-3.139,1.65.6-3.5a1.334,1.334,0,0,0-.384-1.181L656.825,85.3Z" transform="translate(-645.717 -46.931)" fill="#00223d"/>
        <path id="Trazado_27940" data-name="Trazado 27940" d="M691.282,46.724v1.621a7.74,7.74,0,0,0,6.4,7.611V59.7a7.813,7.813,0,0,0-6.423,6.36h-1.867a1.334,1.334,0,0,0,0,2.667h19.148a1.334,1.334,0,0,0,0-2.667h-1.921a7.815,7.815,0,0,0-6.269-6.332V55.957a7.74,7.74,0,0,0,6.4-7.611V46.71a6.219,6.219,0,0,0,4.032-2.044,7.694,7.694,0,0,0,1.5-5.652,1.333,1.333,0,0,0-1.319-1.138H686.967a1.333,1.333,0,0,0-1.319,1.138,7.693,7.693,0,0,0,1.5,5.652A6.247,6.247,0,0,0,691.282,46.724Zm12.605,19.333h-9.906a5.13,5.13,0,0,1,9.906,0Zm4.865-23.134a3.469,3.469,0,0,1-2.012,1.083V40.544h2.9A4.2,4.2,0,0,1,708.752,42.924Zm-14.8-2.379h10.124v4.765a1.214,1.214,0,0,0,0,.31v2.726a5.062,5.062,0,0,1-10.124,0v-7.8Zm-2.667,0v3.481a3.532,3.532,0,0,1-2.1-1.09,4.194,4.194,0,0,1-.9-2.391Z" transform="translate(-653.438 -37.877)" fill="#00223d"/>
        <path id="Trazado_27941" data-name="Trazado 27941" d="M733.318,137.5h-2.06V120.028a3.432,3.432,0,0,0-3.428-3.429H704.882a3.4,3.4,0,0,0-.944.136V88.576a3.433,3.433,0,0,0-3.428-3.429H677.562a3.432,3.432,0,0,0-3.427,3.429v14.176a3.413,3.413,0,0,0-.76-.088H650.427A3.432,3.432,0,0,0,647,106.093v10.426a1.334,1.334,0,0,0,2.667,0V106.093a.762.762,0,0,1,.761-.761h22.947a.762.762,0,0,1,.76.761V137.5H649.666V123.1a1.334,1.334,0,0,0-2.667,0v14.4h-2.06a1.334,1.334,0,0,0,0,2.667h88.38a1.334,1.334,0,0,0,0-2.667Zm-56.516,0V88.576a.761.761,0,0,1,.76-.762H700.51a.761.761,0,0,1,.76.762V137.5H676.8Zm27.32,0V120.028a.761.761,0,0,1,.76-.762H727.83a.762.762,0,0,1,.761.762V137.5Z" transform="translate(-643.605 -48.948)" fill="#00223d"/>
      </g>
    </g>
  </g>
</svg>
