<svg xmlns="http://www.w3.org/2000/svg" width="113" height="113" viewBox="0 0 113 113">
  <g id="Grupo_17524" data-name="Grupo 17524" transform="translate(-375 -2587)">
    <g id="Grupo_17523" data-name="Grupo 17523" transform="translate(-905.72 1870.52)">
      <g id="Grupo_17514" data-name="Grupo 17514" transform="translate(1291.125 732.886)">
        <path id="Trazado_27881" data-name="Trazado 27881" d="M1365.2,773.481l6.1-6.648a40.131,40.131,0,1,0,0,13.3Z" transform="translate(-1291.589 -733.35)" fill="#97d729"/>
        <g id="Grupo_17506" data-name="Grupo 17506" transform="translate(0)">
          <path id="Trazado_27882" data-name="Trazado 27882" d="M1297.465,773.481a40.183,40.183,0,0,1,37.193-40.023q-1.455-.106-2.938-.108a40.131,40.131,0,1,0,0,80.262q1.482,0,2.938-.108a40.182,40.182,0,0,1-37.193-40.023Z" transform="translate(-1291.589 -733.35)" fill="#8bc727"/>
        </g>
        <g id="Grupo_17507" data-name="Grupo 17507" transform="translate(9.51 9.51)">
          <circle id="Elipse_1067" data-name="Elipse 1067" cx="30.621" cy="30.621" r="30.621" fill="#fff"/>
        </g>
        <g id="Grupo_17508" data-name="Grupo 17508" transform="translate(9.51 9.51)">
          <path id="Trazado_27883" data-name="Trazado 27883" d="M1310.061,776.618a30.663,30.663,0,0,1,27.709-30.482c-.959-.091-1.929-.139-2.912-.139a30.622,30.622,0,0,0,0,61.243c.983,0,1.953-.049,2.912-.14a30.663,30.663,0,0,1-27.709-30.482Z" transform="translate(-1304.237 -745.997)" fill="#fff3de"/>
        </g>
        <g id="Grupo_17509" data-name="Grupo 17509" transform="translate(19.02 19.019)">
          <circle id="Elipse_1068" data-name="Elipse 1068" cx="21.112" cy="21.112" r="21.112" fill="#0593fc"/>
        </g>
        <g id="Grupo_17510" data-name="Grupo 17510" transform="translate(19.02 19.019)">
          <path id="Trazado_27884" data-name="Trazado 27884" d="M1322.7,779.756a21.143,21.143,0,0,1,18.2-20.91,21.112,21.112,0,1,0,0,41.821A21.144,21.144,0,0,1,1322.7,779.756Z" transform="translate(-1316.884 -758.644)" fill="#0182fc"/>
        </g>
        <g id="Grupo_17511" data-name="Grupo 17511" transform="translate(28.53 28.529)">
          <circle id="Elipse_1069" data-name="Elipse 1069" cx="11.602" cy="11.602" r="11.602" fill="#fff"/>
        </g>
        <g id="Grupo_17512" data-name="Grupo 17512" transform="translate(28.529 28.529)">
          <path id="Trazado_27885" data-name="Trazado 27885" d="M1334.879,782.893a11.6,11.6,0,0,1,8.928-11.289,11.6,11.6,0,1,0,0,22.577A11.6,11.6,0,0,1,1334.879,782.893Z" transform="translate(-1329.531 -771.292)" fill="#fff3de"/>
        </g>
        <g id="Grupo_17513" data-name="Grupo 17513" transform="translate(36.382 36.382)">
          <path id="Trazado_27886" data-name="Trazado 27886" d="M1343.724,789.233a3.749,3.749,0,1,1,3.749-3.749A3.753,3.753,0,0,1,1343.724,789.233Z" transform="translate(-1339.975 -781.735)" fill="#fe646f"/>
        </g>
      </g>
      <g id="Grupo_17515" data-name="Grupo 17515" transform="translate(1364.737 765.908)">
        <path id="Trazado_27887" data-name="Trazado 27887" d="M1409.044,777.267h-13.037l-6.518,7.109,6.518,7.109h13.037l-5.143-7.109Z" transform="translate(-1389.488 -777.267)" fill="#b3dafe"/>
      </g>
      <g id="Grupo_17516" data-name="Grupo 17516" transform="translate(1364.737 765.908)">
        <path id="Trazado_27888" data-name="Trazado 27888" d="M1401.912,777.267h-5.906l-6.518,7.109,6.518,7.109h5.906l-6.519-7.109Z" transform="translate(-1389.488 -777.267)" fill="#8ac9fe"/>
      </g>
      <g id="Grupo_17517" data-name="Grupo 17517" transform="translate(1345.016 793.656)">
        <circle id="Elipse_1070" data-name="Elipse 1070" cx="3.898" cy="3.898" r="3.898" fill="#fe646f"/>
      </g>
      <g id="Grupo_17518" data-name="Grupo 17518" transform="translate(1345.016 793.656)">
        <path id="Trazado_27889" data-name="Trazado 27889" d="M1367.09,818.068a3.9,3.9,0,0,1,1.983-3.393,3.9,3.9,0,1,0,0,6.787A3.9,3.9,0,0,1,1367.09,818.068Z" transform="translate(-1363.26 -814.17)" fill="#fd4755"/>
      </g>
      <g id="Grupo_17519" data-name="Grupo 17519" transform="translate(1353.959 739.078)">
        <circle id="Elipse_1071" data-name="Elipse 1071" cx="3.898" cy="3.898" r="3.898" fill="#fe646f"/>
      </g>
      <g id="Grupo_17520" data-name="Grupo 17520" transform="translate(1353.959 739.077)">
        <path id="Trazado_27890" data-name="Trazado 27890" d="M1379.038,745.483a3.893,3.893,0,0,1,1.957-3.377,3.9,3.9,0,1,0,0,6.754A3.894,3.894,0,0,1,1379.038,745.483Z" transform="translate(-1375.154 -741.584)" fill="#fd4755"/>
      </g>
      <g id="Grupo_17521" data-name="Grupo 17521" transform="translate(1305.114 747.792)">
        <circle id="Elipse_1072" data-name="Elipse 1072" cx="3.898" cy="3.898" r="3.898" fill="#fe646f"/>
      </g>
      <g id="Grupo_17522" data-name="Grupo 17522" transform="translate(1305.114 747.792)">
        <path id="Trazado_27891" data-name="Trazado 27891" d="M1314.107,757.072a3.894,3.894,0,0,1,1.941-3.368,3.9,3.9,0,1,0,0,6.736A3.893,3.893,0,0,1,1314.107,757.072Z" transform="translate(-1310.193 -753.174)" fill="#fd4755"/>
      </g>
      <path id="Trazado_27892" data-name="Trazado 27892" d="M1381.9,774.423h1.41a1.406,1.406,0,1,0,0-2.812h-1.41l3.529-4.878a1.406,1.406,0,0,0-1.139-2.23h-12.38a41.446,41.446,0,0,0-9.461-18.879,5.3,5.3,0,0,0-7.773-6.89,41.522,41.522,0,1,0-26.832,75.681,1.406,1.406,0,0,0,.229-2.8,38.724,38.724,0,1,1,24.878-70.653,5.3,5.3,0,0,0,7.494,6.645,38.614,38.614,0,0,1,8.88,18.328l-5.208,5.68h-.868a32.008,32.008,0,0,0-51.161-24.237,5.3,5.3,0,0,0-7.261,7.572,32.011,32.011,0,0,0,40.733,46.715,5.3,5.3,0,0,0,8.309-5.99,31.931,31.931,0,0,0,9.379-21.248h.868l5.208,5.68a38.8,38.8,0,0,1-34.918,31.51,1.406,1.406,0,0,0,.112,2.808c.038,0,.076,0,.114,0a41.616,41.616,0,0,0,37.276-32.884h12.382a1.406,1.406,0,0,0,1.139-2.229Zm-26.537-31.447a2.493,2.493,0,1,1,2.493,2.493A2.5,2.5,0,0,1,1355.365,742.976Zm16.509,24.338h9.666l-3.108,4.3h-10.5ZM1309.013,749.2a2.493,2.493,0,1,1-2.493,2.493A2.5,2.5,0,0,1,1309.013,749.2Zm39.9,50.849a2.493,2.493,0,1,1,2.492-2.493A2.5,2.5,0,0,1,1348.915,800.047Zm3.268-6.666a5.3,5.3,0,0,0-8.263,5.958,29.2,29.2,0,0,1-36.836-42.709,5.3,5.3,0,0,0,6.783-7.073,29.2,29.2,0,0,1,46.57,22.055h-6.709a22.631,22.631,0,0,0-9.218-16.787,1.406,1.406,0,1,0-1.659,2.271,19.809,19.809,0,0,1,8.057,14.516h-6.721a13.008,13.008,0,1,0-12.931,14.414,12.888,12.888,0,0,0,5.586-1.259,1.406,1.406,0,1,0-1.208-2.538,10.1,10.1,0,0,1-4.377.986,10.2,10.2,0,1,1,10.1-11.6h-5.138a5.155,5.155,0,1,0,0,2.812h5.14a10.17,10.17,0,0,1-1.421,3.947,1.406,1.406,0,1,0,2.391,1.478,12.967,12.967,0,0,0,1.863-5.425h6.724a19.706,19.706,0,1,1-13.513-20.13,1.406,1.406,0,0,0,.879-2.672,22.518,22.518,0,1,0,15.451,22.8h6.708A29.119,29.119,0,0,1,1352.183,793.381Zm-20.926-18.958h1.87a2.343,2.343,0,1,1,0-2.812h-1.87a1.406,1.406,0,1,0,0,2.812Zm40.618,4.3-3.94-4.3h10.5l3.109,4.3Z" fill="#00223d"/>
    </g>
    <rect id="Rectángulo_4371" data-name="Rectángulo 4371" width="113" height="113" transform="translate(375 2587)" fill="none"/>
  </g>
</svg>
