<svg xmlns="http://www.w3.org/2000/svg" width="113" height="113" viewBox="0 0 113 113">
  <g id="Grupo_17256" data-name="Grupo 17256" transform="translate(-729 -2259)">
    <rect id="Rect치ngulo_4347" data-name="Rect치ngulo 4347" width="113" height="113" transform="translate(729 2259)" fill="none"/>
    <g id="Grupo_17230" data-name="Grupo 17230" transform="translate(518.749 697.274)">
      <path id="Trazado_27181" data-name="Trazado 27181" d="M234.413,1652.875a1.52,1.52,0,0,0-1.521,1.521v24.04h25.6v-25.56Z" transform="translate(-4.36 -29.97)" fill="#54a0ff"/>
      <path id="Trazado_27182" data-name="Trazado 27182" d="M239.544,1652.875h-5.131a1.52,1.52,0,0,0-1.521,1.521v24.04h5.131V1654.4A1.52,1.52,0,0,1,239.544,1652.875Z" transform="translate(-4.36 -29.97)" fill="#338def"/>
      <path id="Trazado_27183" data-name="Trazado 27183" d="M341.972,1669.359H317.889v15.83h25.6V1670.88A1.52,1.52,0,0,0,341.972,1669.359Z" transform="translate(-39.184 -36.723)" fill="#ff6b6b"/>
      <path id="Trazado_27184" data-name="Trazado 27184" d="M317.889,1669.359h5.131v15.83h-5.131Z" transform="translate(-39.184 -36.723)" fill="#ee5253"/>
      <path id="Trazado_27185" data-name="Trazado 27185" d="M341.486,1627.82a5.288,5.288,0,1,1-5.288-5.288A5.287,5.287,0,0,1,341.486,1627.82Z" transform="translate(-44.518 -17.538)" fill="#ffcdbf"/>
      <path id="Trazado_27186" data-name="Trazado 27186" d="M336.852,1640.448h-5.985a5.682,5.682,0,0,0-5.665,5.665v6.563a.965.965,0,0,0,.965.965h15.385a.965.965,0,0,0,.965-.965v-6.563A5.681,5.681,0,0,0,336.852,1640.448Z" transform="translate(-42.18 -24.878)" fill="#ff6b6b"/>
      <path id="Trazado_27187" data-name="Trazado 27187" d="M328.65,1652.676v-6.563a5.682,5.682,0,0,1,5.665-5.665h-3.448a5.682,5.682,0,0,0-5.665,5.665v6.563a.965.965,0,0,0,.965.965h3.448A.965.965,0,0,1,328.65,1652.676Z" transform="translate(-42.18 -24.878)" fill="#ee5253"/>
      <path id="Trazado_27188" data-name="Trazado 27188" d="M299.421,1628.764H277.2a1.52,1.52,0,0,0-1.521,1.521v38.272h25.259v-38.272A1.52,1.52,0,0,0,299.421,1628.764Z" transform="translate(-21.891 -20.091)" fill="#feca57"/>
      <path id="Trazado_27189" data-name="Trazado 27189" d="M282.335,1628.764H277.2a1.52,1.52,0,0,0-1.521,1.521v38.272h5.131v-38.272A1.52,1.52,0,0,1,282.335,1628.764Z" transform="translate(-21.891 -20.091)" fill="#f4b537"/>
      <path id="Trazado_27190" data-name="Trazado 27190" d="M308.374,1701.718h-82.06a1.815,1.815,0,0,1-1.81-1.809v-2.214a1.816,1.816,0,0,1,1.81-1.81h82.06a1.816,1.816,0,0,1,1.81,1.81v2.214A1.815,1.815,0,0,1,308.374,1701.718Z" transform="translate(-0.923 -47.591)" fill="#3e4b5a"/>
      <path id="Trazado_27191" data-name="Trazado 27191" d="M229.807,1699.909v-2.214a1.816,1.816,0,0,1,1.81-1.81h-5.3a1.816,1.816,0,0,0-1.81,1.81v2.214a1.815,1.815,0,0,0,1.81,1.809h5.3A1.815,1.815,0,0,1,229.807,1699.909Z" transform="translate(-0.923 -47.591)" fill="#303f49"/>
      <path id="Trazado_27192" data-name="Trazado 27192" d="M298.723,1587.226a5.288,5.288,0,1,1-5.288-5.288A5.288,5.288,0,0,1,298.723,1587.226Z" transform="translate(-26.998 -0.906)" fill="#ffcdbf"/>
      <path id="Trazado_27193" data-name="Trazado 27193" d="M294.089,1599.853H288.1a5.682,5.682,0,0,0-5.666,5.666v6.563a.965.965,0,0,0,.965.965h15.385a.965.965,0,0,0,.965-.965v-6.563A5.682,5.682,0,0,0,294.089,1599.853Z" transform="translate(-24.659 -8.246)" fill="#feca57"/>
      <path id="Trazado_27194" data-name="Trazado 27194" d="M285.887,1612.081v-6.563a5.682,5.682,0,0,1,5.666-5.666H288.1a5.682,5.682,0,0,0-5.666,5.666v6.563a.965.965,0,0,0,.965.965h3.448A.965.965,0,0,1,285.887,1612.081Z" transform="translate(-24.659 -8.246)" fill="#f4b537"/>
      <path id="Trazado_27195" data-name="Trazado 27195" d="M255.9,1611.349a5.287,5.287,0,1,1-5.287-5.287A5.287,5.287,0,0,1,255.9,1611.349Z" transform="translate(-9.456 -10.79)" fill="#ffcdbf"/>
      <g id="Grupo_17229" data-name="Grupo 17229" transform="translate(235.874 1581.032)">
        <path id="Trazado_27196" data-name="Trazado 27196" d="M336.151,1627.82a5.284,5.284,0,0,1,2.668-4.592,5.288,5.288,0,1,0,0,9.184A5.285,5.285,0,0,1,336.151,1627.82Z" transform="translate(-280.393 -1598.57)" fill="#ffbeab"/>
        <path id="Trazado_27197" data-name="Trazado 27197" d="M293.388,1587.226a5.283,5.283,0,0,1,2.668-4.592,5.287,5.287,0,1,0,0,9.184A5.286,5.286,0,0,1,293.388,1587.226Z" transform="translate(-262.873 -1581.938)" fill="#ffbeab"/>
        <path id="Trazado_27198" data-name="Trazado 27198" d="M250.57,1611.349a5.283,5.283,0,0,1,2.668-4.592,5.288,5.288,0,1,0,0,9.184A5.282,5.282,0,0,1,250.57,1611.349Z" transform="translate(-245.33 -1591.822)" fill="#ffbeab"/>
      </g>
      <path id="Trazado_27199" data-name="Trazado 27199" d="M251.271,1623.977h-5.985a5.682,5.682,0,0,0-5.666,5.666v6.563a.966.966,0,0,0,.965.965H255.97a.965.965,0,0,0,.965-.965v-6.563A5.681,5.681,0,0,0,251.271,1623.977Z" transform="translate(-7.116 -18.13)" fill="#54a0ff"/>
      <path id="Trazado_27200" data-name="Trazado 27200" d="M243.068,1636.206v-6.563a5.682,5.682,0,0,1,5.665-5.666h-3.448a5.682,5.682,0,0,0-5.666,5.666v6.563a.965.965,0,0,0,.965.964h3.448A.964.964,0,0,1,243.068,1636.206Z" transform="translate(-7.116 -18.13)" fill="#338def"/>
      <path id="Trazado_27201" data-name="Trazado 27201" d="M322.95,1637.855v6.563a2.26,2.26,0,0,0,2.258,2.258h15.385a2.26,2.26,0,0,0,2.258-2.258v-6.563a6.969,6.969,0,0,0-4.964-6.666,6.581,6.581,0,1,0-9.972,0A6.969,6.969,0,0,0,322.95,1637.855Zm9.95-14.947a3.995,3.995,0,0,1,.007,7.989h-.013a3.995,3.995,0,0,1,.006-7.989Zm-7.365,14.947a4.378,4.378,0,0,1,4.373-4.372h5.984a4.378,4.378,0,0,1,4.373,4.372v6.235H338.5v-6.438a1.293,1.293,0,1,0-2.586,0v6.438h-6.019v-6.438a1.293,1.293,0,1,0-2.586,0v6.438h-1.77Z" transform="translate(-41.257 -16.632)" fill="#00223d"/>
      <path id="Trazado_27202" data-name="Trazado 27202" d="M280.187,1597.259v6.563a2.261,2.261,0,0,0,2.258,2.258H297.83a2.261,2.261,0,0,0,2.259-2.258v-6.563a6.971,6.971,0,0,0-4.964-6.666,6.58,6.58,0,1,0-9.973,0A6.97,6.97,0,0,0,280.187,1597.259Zm9.951-14.947a3.995,3.995,0,1,1-3.994,3.995A4,4,0,0,1,290.138,1582.312Zm-7.365,14.947a4.377,4.377,0,0,1,4.372-4.372h5.985a4.376,4.376,0,0,1,4.372,4.372v6.235h-1.77v-6.439a1.293,1.293,0,0,0-2.586,0v6.439h-6.017v-6.439a1.293,1.293,0,0,0-2.586,0v6.439h-1.77Z" transform="translate(-23.737)" fill="#00223d"/>
      <path id="Trazado_27203" data-name="Trazado 27203" d="M237.368,1621.383v6.563a2.261,2.261,0,0,0,2.259,2.258h15.385a2.261,2.261,0,0,0,2.258-2.258v-6.563a6.969,6.969,0,0,0-4.964-6.666,6.58,6.58,0,1,0-9.973,0A6.97,6.97,0,0,0,237.368,1621.383Zm9.951-14.947a3.995,3.995,0,0,1,0,7.989h-.007a3.995,3.995,0,0,1,0-7.989Zm-7.365,14.947a4.377,4.377,0,0,1,4.372-4.372h5.985a4.377,4.377,0,0,1,4.372,4.372v6.235h-1.77v-6.439a1.293,1.293,0,0,0-2.586,0v6.439H244.31v-6.439a1.293,1.293,0,0,0-2.586,0v6.439h-1.769Z" transform="translate(-6.194 -9.884)" fill="#00223d"/>
      <path id="Trazado_27204" data-name="Trazado 27204" d="M295.653,1639.831a.631.631,0,0,0-.334.08l-1.516.919a.685.685,0,0,0-.333.608c0,.5.429.9.851.621l.332-.207v5.847c0,.735,1.792.735,1.792,0v-7.306C296.446,1640.049,296.021,1639.831,295.653,1639.831Z" transform="translate(-29.179 -24.625)" fill="#00223d"/>
      <path id="Trazado_27205" data-name="Trazado 27205" d="M253.882,1670.294a2.48,2.48,0,0,0-2.676-2.377,2.377,2.377,0,0,0-2.6,2.2c0,.724.345.931.8.931.586,0,.942-.322.942-.656a.783.783,0,0,1,.861-.861.8.8,0,0,1,.873.816c0,1.459-3.618,2.492-3.618,4.3v1.115c0,.333.46.551.781.551h4.089c.287,0,.54-.379.54-.792s-.253-.77-.54-.77h-3.009v-.1C250.333,1673.6,253.882,1672.786,253.882,1670.294Z" transform="translate(-10.743 -36.132)" fill="#00223d"/>
      <path id="Trazado_27206" data-name="Trazado 27206" d="M338.125,1682.815c-.517,0-1.022-.126-1.022-.666,0-.436-.184-.6-.919-.6-.632,0-.85.138-.85.655,0,.965.759,2.171,2.734,2.171,1.608,0,2.906-.712,2.906-2.6v-.218a1.666,1.666,0,0,0-1.171-1.689,2.017,2.017,0,0,0,.884-1.883c0-1.551-1.1-2.08-2.561-2.08-1.976,0-2.619,1.16-2.619,2.056,0,.551.1.724.931.724.666,0,.838-.264.838-.655,0-.448.287-.585.851-.585.47,0,.85.161.85.827,0,.93-.459.988-.9.988-.391,0-.517.344-.517.689s.126.689.517.689c.632,0,1.1.15,1.1.92v.218C339.181,1682.528,338.905,1682.815,338.125,1682.815Z" transform="translate(-46.33 -39.408)" fill="#00223d"/>
      <path id="Trazado_27207" data-name="Trazado 27207" d="M307.415,1666.345h-1.849v-3.6a1.293,1.293,0,0,0-2.586,0v3.6H280.307V1653.1h22.446a.227.227,0,0,1,.227.227v3.378a1.293,1.293,0,0,0,2.586,0v-3.378a2.817,2.817,0,0,0-2.813-2.813H280.307v-21.15a2.817,2.817,0,0,0-2.814-2.813H255.276a2.817,2.817,0,0,0-2.813,2.813v11.419H230.016a2.817,2.817,0,0,0-2.813,2.813v22.747h-1.849a3.106,3.106,0,0,0-3.1,3.1v2.042a3.106,3.106,0,0,0,3.1,3.1h37.711a1.293,1.293,0,1,0,0-2.586H225.354a.524.524,0,0,1-.517-.517v-2.042a.525.525,0,0,1,.517-.517h82.061a.525.525,0,0,1,.517.517v2.042a.524.524,0,0,1-.517.517H269.1a1.293,1.293,0,0,0,0,2.586h38.315a3.107,3.107,0,0,0,3.1-3.1v-2.042A3.107,3.107,0,0,0,307.415,1666.345ZM229.79,1643.6a.227.227,0,0,1,.227-.227h22.446v22.974H229.79Zm25.259-14.233a.228.228,0,0,1,.227-.227h22.217a.228.228,0,0,1,.228.227v36.979H255.048Z" transform="translate(0 -19.185)" fill="#00223d"/>
    </g>
    <rect id="Rect치ngulo_4348" data-name="Rect치ngulo 4348" width="113" height="113" transform="translate(729 2259)" fill="none"/>
  </g>
</svg>
