<svg xmlns="http://www.w3.org/2000/svg" width="113" height="113" viewBox="0 0 113 113">
  <g id="Grupo_17249" data-name="Grupo 17249" transform="translate(-284 -2539)">
    <rect id="Rectángulo_4345" data-name="Rectángulo 4345" width="113" height="113" transform="translate(284 2539)" fill="none"/>
    <g id="Grupo_17248" data-name="Grupo 17248" transform="translate(601.533 988.473)">
      <path id="Trazado_27259" data-name="Trazado 27259" d="M-298.514,1647.491l48.157-26.723-11.769-6.255,24.161-15.552-10.156-5.3,27.551-24.115-46.9,23.549,11.656,6.2-23.395,14.686,12.322,6.549Z" transform="translate(-1.435 -1.436)" fill="#f7a139"/>
      <path id="Trazado_27260" data-name="Trazado 27260" d="M-261.14,1633.726a1.578,1.578,0,0,0,.84-.243l6.848-4.3a1.584,1.584,0,0,0,.5-2.184,1.583,1.583,0,0,0-2.184-.5l-6.848,4.3a1.584,1.584,0,0,0-.5,2.184A1.584,1.584,0,0,0-261.14,1633.726Z" transform="translate(-18.448 -28.394)" fill="#00223d"/>
      <path id="Trazado_27261" data-name="Trazado 27261" d="M-268.548,1642.255a1.578,1.578,0,0,0,.839-.242l.031-.02a1.584,1.584,0,0,0,.5-2.184,1.585,1.585,0,0,0-2.184-.5l-.032.02a1.584,1.584,0,0,0-.5,2.183A1.584,1.584,0,0,0-268.548,1642.255Z" transform="translate(-14.926 -34.482)" fill="#00223d"/>
      <path id="Trazado_27262" data-name="Trazado 27262" d="M-220.691,1567.228a1.583,1.583,0,0,0-2.025-.531l-46.9,23.549a1.584,1.584,0,0,0-.873,1.4,1.583,1.583,0,0,0,.84,1.418l9.238,4.91-21.076,13.23a1.583,1.583,0,0,0-.741,1.4,1.585,1.585,0,0,0,.84,1.342l10.264,5.456-29.857,25.454a1.585,1.585,0,0,0-.274,2.109,1.583,1.583,0,0,0,1.3.681,1.583,1.583,0,0,0,.768-.2l48.156-26.722a1.585,1.585,0,0,0,.815-1.4,1.585,1.585,0,0,0-.84-1.385l-9.383-4.987,21.889-14.089a1.585,1.585,0,0,0,.725-1.4,1.584,1.584,0,0,0-.849-1.333l-8.1-4.227,25.809-22.589A1.584,1.584,0,0,0-220.691,1567.228Zm-29.909,23.807a1.585,1.585,0,0,0-.53,1.38,1.585,1.585,0,0,0,.84,1.217l7.739,4.038-21.869,14.077a1.585,1.585,0,0,0-.725,1.4,1.584,1.584,0,0,0,.839,1.333l9.194,4.887-31.756,17.622,19.575-16.688a1.584,1.584,0,0,0,.547-1.378,1.584,1.584,0,0,0-.831-1.227l-9.9-5.264,21.076-13.23a1.584,1.584,0,0,0,.741-1.4,1.582,1.582,0,0,0-.839-1.341l-8.949-4.756,33.052-16.6Z" transform="translate(0)" fill="#00223d"/>
      <path id="Trazado_27263" data-name="Trazado 27263" d="M-191.878,1670.08l-.033.018a1.584,1.584,0,0,0-.614,2.155,1.583,1.583,0,0,0,1.386.814,1.576,1.576,0,0,0,.769-.2l.033-.018a1.584,1.584,0,0,0,.614-2.155A1.584,1.584,0,0,0-191.878,1670.08Z" transform="translate(-51.724 -49.131)" fill="#00223d"/>
      <path id="Trazado_27264" data-name="Trazado 27264" d="M-205.9,1674.322l-7.069,3.923a1.584,1.584,0,0,0-.617,2.154,1.584,1.584,0,0,0,1.387.815,1.58,1.58,0,0,0,.767-.2l7.069-3.923a1.585,1.585,0,0,0,.617-2.154A1.584,1.584,0,0,0-205.9,1674.322Z" transform="translate(-41.712 -51.148)" fill="#00223d"/>
    </g>
  </g>
</svg>
