<svg xmlns="http://www.w3.org/2000/svg" width="113" height="113" viewBox="0 0 113 113">
  <g id="Grupo_17250" data-name="Grupo 17250" transform="translate(-284 -2391)">
    <rect id="Rectángulo_4344" data-name="Rectángulo 4344" width="113" height="113" transform="translate(284 2391)" fill="none"/>
    <g id="Grupo_17236" data-name="Grupo 17236" transform="translate(218.171 822.001)">
      <g id="Grupo_17234" data-name="Grupo 17234" transform="translate(81.379 1578.427)">
        <path id="Trazado_27208" data-name="Trazado 27208" d="M133.971,1581.1a7.345,7.345,0,0,0-10.387,0l-.534.533a.649.649,0,0,1-.92,0l-.533-.533a7.359,7.359,0,0,0-1.278-1.019h-.792l-4.681,5.427v3.789l10.476,9.393,1.185.262,7.464-7.464a7.345,7.345,0,0,0,0-10.387Z" transform="translate(-90.773 -1578.951)" fill="#ff72c7"/>
        <g id="Grupo_17231" data-name="Grupo 17231" transform="translate(18.285 0.001)">
          <path id="Trazado_27209" data-name="Trazado 27209" d="M116.92,1591.49a7.343,7.343,0,0,1,1.277-11.406,7.344,7.344,0,0,0-9.109,11.406l10.849,10.849.005.005a.749.749,0,0,0,1.054,0l.006-.005,3.384-3.384-7.464-7.464Z" transform="translate(-106.936 -1578.952)" fill="#ff4fb9"/>
        </g>
        <path id="Trazado_27210" data-name="Trazado 27210" d="M151.062,1639.332l-1.241.048-4.527,3.582-15.819-14.472-1.375-.6a18.507,18.507,0,0,0-7.66,4.62l-1.35,1.35a1.645,1.645,0,0,1-2.328,0l-1.351-1.35a18.586,18.586,0,0,0-19.3-4.4l-2.2,1.6-5.476,13.5.923,3.11,16.436,17.2h33.711l1.469,1.019,5.749-5.749a18.586,18.586,0,0,0,4.338-19.462Z" transform="translate(-83.688 -1591.859)" fill="#ffafe2"/>
        <g id="Grupo_17232" data-name="Grupo 17232" transform="translate(0 36.255)">
          <path id="Trazado_27211" data-name="Trazado 27211" d="M95.391,1653.189a18.135,18.135,0,0,1-1.016-24.692,18.592,18.592,0,0,0-6.984,30.681l5.746,5.747,2.5-1.017h10.468Z" transform="translate(-81.948 -1628.497)" fill="#ff94d5"/>
        </g>
        <path id="Trazado_27212" data-name="Trazado 27212" d="M140.884,1656.338a13.207,13.207,0,0,0-18.677,0l-.959.96a1.17,1.17,0,0,1-1.654,0l-.96-.96a13.214,13.214,0,0,0-20.9,2.956l26.692,27.927,3.02.162,16.025-16.025a13.21,13.21,0,0,0-2.585-15.019Z" transform="translate(-86.182 -1598.673)" fill="#ff94d5"/>
        <path id="Trazado_27213" data-name="Trazado 27213" d="M126.483,1689.195l-.014-.014-27.445-27.445a18.327,18.327,0,0,1-1.245-1.377,13.225,13.225,0,0,0-1.009,13.113l21.7,21.7.013.013a1.9,1.9,0,0,0,2.668,0l.012-.013,5.677-5.676a2.884,2.884,0,0,1-.36-.3Z" transform="translate(-85.58 -1600.789)" fill="#ff72c7"/>
        <path id="Trazado_27214" data-name="Trazado 27214" d="M152.636,1603.695l-5.286,10.093,3.121,5.827,5.739,5.253h16.533l1.235.912,4.06-4.06a10.932,10.932,0,1,0-15.46-15.46l-.795.794a.968.968,0,0,1-1.369,0l-.794-.794a10.875,10.875,0,0,0-5.43-2.955Z" transform="translate(-99.492 -1585.418)" fill="#ff94d5"/>
        <g id="Grupo_17233" data-name="Grupo 17233" transform="translate(41.466 17.642)">
          <path id="Trazado_27215" data-name="Trazado 27215" d="M150.891,1620.064a11.249,11.249,0,0,1,0-15.908,11.451,11.451,0,0,1,.956-.852,10.931,10.931,0,0,0-10.03,18.416l4.06,4.06,1.264-.912H155.7l-4.8-4.8Z" transform="translate(-138.615 -1603.061)" fill="#ff72c7"/>
        </g>
        <path id="Trazado_27216" data-name="Trazado 27216" d="M149.8,1620.223c-.13.131-.253.266-.372.4l1.6,2.992,14.678,13.436,1.316.243,7.514-7.514a7.654,7.654,0,0,0-11.844-9.56l-.556.556a.678.678,0,0,1-.959,0l-.556-.556a7.654,7.654,0,0,0-10.824,0Z" transform="translate(-100.049 -1589.421)" fill="#ff72c7"/>
        <path id="Trazado_27217" data-name="Trazado 27217" d="M153.105,1624.542a11.2,11.2,0,0,1-2.841-4.79,7.651,7.651,0,0,0-2.173,10.507l12.087,12.087.008.007a1.113,1.113,0,0,0,1.569,0l.008-.007,4.573-4.573-13.231-13.231Z" transform="translate(-99.364 -1589.896)" fill="#ff4fb9"/>
      </g>
      <g id="Grupo_17235" data-name="Grupo 17235" transform="translate(79.829 1576.998)">
        <path id="Trazado_27218" data-name="Trazado 27218" d="M118.252,1602.828l.012.012a2.182,2.182,0,0,0,3.073-.006l.011-.01,10.844-10.844a8.774,8.774,0,0,0,0-12.414h0a8.787,8.787,0,0,0-12.393-.019,8.778,8.778,0,0,0-12.395,12.433Zm-8.823-21.237a5.92,5.92,0,0,1,8.362,0c.591.591,1.027,1.144,2.007,1.144a2.669,2.669,0,0,0,2.006-1.144,5.92,5.92,0,0,1,8.362,0h0a5.909,5.909,0,0,1,0,8.362L119.8,1600.321l-10.368-10.368a5.91,5.91,0,0,1,0-8.362Z" transform="translate(-86.536 -1576.998)" fill="#00223d"/>
        <path id="Trazado_27219" data-name="Trazado 27219" d="M113.153,1680.293l.014.014a3.327,3.327,0,0,0,4.692,0l.014-.014,13.606-13.607a1.433,1.433,0,0,0-2.026-2.026l-13.608,13.609-.01.01a.459.459,0,0,1-.632.012l-.024-.023-21.519-21.52a11.773,11.773,0,0,1,19.052-13.174c.937.937,1.507,1.722,2.8,1.722s1.86-.782,2.8-1.722a11.773,11.773,0,0,1,19.052,13.177l-3.178,3.178a1.433,1.433,0,0,0,2.027,2.026l9.11-9.11a20.113,20.113,0,0,0,4.963-20.087l10.547-10.547a12.365,12.365,0,0,0-17.487-17.486l-.465.466a12.565,12.565,0,0,0-6.38-3.759,1.433,1.433,0,1,0-.653,2.79,9.473,9.473,0,0,1,4.54,2.529c.816.816,1.324,1.5,2.492,1.5s1.681-.686,2.492-1.5a9.5,9.5,0,0,1,13.434,13.434l-.42.42a9.08,9.08,0,0,0-15.506-5.9,9.081,9.081,0,0,0-15.506,5.9c-.638-.639-.429-.432-.649-.661a9.5,9.5,0,0,1,3.31-15.253,1.433,1.433,0,1,0-1.1-2.648,12.368,12.368,0,0,0-5.6,18.223,22.319,22.319,0,0,0-7.678,5.62.213.213,0,0,1-.3,0l-1.35-1.35a19.886,19.886,0,0,0-14.154-5.863c-17.765,0-26.732,21.594-14.155,34.172Zm18.882-63.583a6.217,6.217,0,0,1,8.8,0l.556.556a2.113,2.113,0,0,0,2.985,0,6.548,6.548,0,0,1,4.955-2.378,6.229,6.229,0,0,1,5.3,9.473l-11.748,11.748-11.748-11.748a6.249,6.249,0,0,1,.9-7.651Zm-44.305,9.851a17.171,17.171,0,0,1,24.256,0l1.35,1.35a3.077,3.077,0,0,0,4.354,0,19.234,19.234,0,0,1,7.6-5.338l15.784,15.784.009.009a2.547,2.547,0,0,0,3.583.01l.019-.018,3.255-3.255a17.241,17.241,0,0,1-4.644,15.715l-2.057,2.057a14.635,14.635,0,0,0-24.954-11.327l-.773.773-.773-.773a14.636,14.636,0,0,0-24.953,11.327l-2.056-2.056a17.171,17.171,0,0,1,0-24.256Z" transform="translate(-79.829 -1583.466)" fill="#00223d"/>
      </g>
    </g>
  </g>
</svg>
