<svg xmlns="http://www.w3.org/2000/svg" width="113" height="113" viewBox="0 0 113 113">
  <g id="Grupo_17464" data-name="Grupo 17464" transform="translate(-287 -9038)">
    <g id="Grupo_17362" data-name="Grupo 17362" transform="translate(301 9049.986)">
      <g id="Grupo_17360" data-name="Grupo 17360" transform="translate(1.335 1.334)">
        <g id="Grupo_17359" data-name="Grupo 17359">
          <path id="Trazado_27627" data-name="Trazado 27627" d="M945.645,2034.515h-33.7a5.9,5.9,0,0,1-5.9-5.9v-5.9h45.256Z" transform="translate(-906.053 -1960.803)" fill="#d3dcfb"/>
          <path id="Trazado_27628" data-name="Trazado 27628" d="M982.719,1970.863v41.279H911.95a5.9,5.9,0,0,1-5.9-5.9v-35.382l41.281-14.743Z" transform="translate(-906.053 -1944.326)" fill="#ebf5fc"/>
          <g id="Grupo_17358" data-name="Grupo 17358" transform="translate(5.899 32.433)">
            <path id="Trazado_27629" data-name="Trazado 27629" d="M918.364,1989.441h-3.05a1.424,1.424,0,0,1-1.423-1.424v-3.049a1.424,1.424,0,0,1,1.423-1.424h3.05a1.424,1.424,0,0,1,1.424,1.424v3.049A1.424,1.424,0,0,1,918.364,1989.441Z" transform="translate(-913.891 -1983.544)" fill="#3c58a0"/>
            <path id="Trazado_27630" data-name="Trazado 27630" d="M934.034,1989.441h-3.05a1.424,1.424,0,0,1-1.424-1.424v-3.049a1.425,1.425,0,0,1,1.424-1.424h3.05a1.424,1.424,0,0,1,1.424,1.424v3.049A1.424,1.424,0,0,1,934.034,1989.441Z" transform="translate(-917.768 -1983.544)" fill="#3c58a0"/>
            <path id="Trazado_27631" data-name="Trazado 27631" d="M949.705,1989.441h-3.049a1.424,1.424,0,0,1-1.424-1.424v-3.049a1.424,1.424,0,0,1,1.424-1.424h3.049a1.424,1.424,0,0,1,1.424,1.424v3.049A1.424,1.424,0,0,1,949.705,1989.441Z" transform="translate(-921.645 -1983.544)" fill="#3c58a0"/>
            <path id="Trazado_27632" data-name="Trazado 27632" d="M965.376,1989.441h-3.05a1.424,1.424,0,0,1-1.424-1.424v-3.049a1.424,1.424,0,0,1,1.424-1.424h3.05a1.424,1.424,0,0,1,1.424,1.424v3.049A1.424,1.424,0,0,1,965.376,1989.441Z" transform="translate(-925.522 -1983.544)" fill="#3c58a0"/>
            <path id="Trazado_27633" data-name="Trazado 27633" d="M981.045,1989.441H978a1.424,1.424,0,0,1-1.423-1.424v-3.049a1.424,1.424,0,0,1,1.423-1.424h3.049a1.424,1.424,0,0,1,1.424,1.424v3.049A1.424,1.424,0,0,1,981.045,1989.441Z" transform="translate(-929.398 -1983.544)" fill="#3c58a0"/>
            <path id="Trazado_27634" data-name="Trazado 27634" d="M996.715,1989.441h-3.05a1.424,1.424,0,0,1-1.424-1.424v-3.049a1.424,1.424,0,0,1,1.424-1.424h3.05a1.424,1.424,0,0,1,1.424,1.424v3.049A1.424,1.424,0,0,1,996.715,1989.441Z" transform="translate(-933.275 -1983.544)" fill="#3c58a0"/>
            <path id="Trazado_27635" data-name="Trazado 27635" d="M918.364,2005.112h-3.05a1.424,1.424,0,0,1-1.423-1.424v-3.05a1.424,1.424,0,0,1,1.423-1.424h3.05a1.424,1.424,0,0,1,1.424,1.424v3.05A1.424,1.424,0,0,1,918.364,2005.112Z" transform="translate(-913.891 -1987.421)" fill="#3c58a0"/>
            <path id="Trazado_27636" data-name="Trazado 27636" d="M934.034,2005.112h-3.05a1.425,1.425,0,0,1-1.424-1.424v-3.05a1.424,1.424,0,0,1,1.424-1.424h3.05a1.424,1.424,0,0,1,1.424,1.424v3.05A1.424,1.424,0,0,1,934.034,2005.112Z" transform="translate(-917.768 -1987.421)" fill="#3c58a0"/>
            <path id="Trazado_27637" data-name="Trazado 27637" d="M949.705,2005.112h-3.049a1.424,1.424,0,0,1-1.424-1.424v-3.05a1.424,1.424,0,0,1,1.424-1.424h3.049a1.424,1.424,0,0,1,1.424,1.424v3.05A1.424,1.424,0,0,1,949.705,2005.112Z" transform="translate(-921.645 -1987.421)" fill="#3c58a0"/>
            <path id="Trazado_27638" data-name="Trazado 27638" d="M966.8,2005.112v-4.423a1.475,1.475,0,0,0-1.474-1.474h-2.949a1.474,1.474,0,0,0-1.474,1.474v2.949a1.474,1.474,0,0,0,1.474,1.474Z" transform="translate(-925.522 -1987.421)" fill="#3c58a0"/>
            <path id="Trazado_27639" data-name="Trazado 27639" d="M918.364,2020.783h-3.05a1.424,1.424,0,0,1-1.423-1.424v-3.049a1.424,1.424,0,0,1,1.423-1.424h3.05a1.424,1.424,0,0,1,1.424,1.424v3.049A1.424,1.424,0,0,1,918.364,2020.783Z" transform="translate(-913.891 -1991.298)" fill="#3c58a0"/>
            <path id="Trazado_27640" data-name="Trazado 27640" d="M934.034,2020.783h-3.05a1.424,1.424,0,0,1-1.424-1.424v-3.049a1.424,1.424,0,0,1,1.424-1.424h3.05a1.424,1.424,0,0,1,1.424,1.424v3.049A1.424,1.424,0,0,1,934.034,2020.783Z" transform="translate(-917.768 -1991.298)" fill="#3c58a0"/>
            <path id="Trazado_27641" data-name="Trazado 27641" d="M949.705,2020.783h-3.049a1.424,1.424,0,0,1-1.424-1.424v-3.049a1.424,1.424,0,0,1,1.424-1.424h3.049a1.424,1.424,0,0,1,1.424,1.424v3.049A1.424,1.424,0,0,1,949.705,2020.783Z" transform="translate(-921.645 -1991.298)" fill="#3c58a0"/>
          </g>
          <path id="Trazado_27642" data-name="Trazado 27642" d="M997.012,1983.544h-3.05a1.412,1.412,0,0,0-.521.1,1.424,1.424,0,0,1,.9,1.324v3.049a1.423,1.423,0,0,1-.9,1.324,1.412,1.412,0,0,0,.521.1h3.05a1.424,1.424,0,0,0,1.424-1.424v-3.049A1.424,1.424,0,0,0,997.012,1983.544Z" transform="translate(-927.673 -1951.11)" fill="#2a428c"/>
          <path id="Trazado_27643" data-name="Trazado 27643" d="M981.341,1983.544h-3.05a1.411,1.411,0,0,0-.521.1,1.424,1.424,0,0,1,.9,1.324v3.049a1.423,1.423,0,0,1-.9,1.324,1.411,1.411,0,0,0,.521.1h3.05a1.424,1.424,0,0,0,1.424-1.424v-3.049A1.424,1.424,0,0,0,981.341,1983.544Z" transform="translate(-923.796 -1951.11)" fill="#2a428c"/>
          <path id="Trazado_27644" data-name="Trazado 27644" d="M965.673,1983.544h-3.049a1.415,1.415,0,0,0-.522.1,1.424,1.424,0,0,1,.9,1.324v3.049a1.423,1.423,0,0,1-.9,1.324,1.415,1.415,0,0,0,.522.1h3.049a1.424,1.424,0,0,0,1.424-1.424v-3.049A1.424,1.424,0,0,0,965.673,1983.544Z" transform="translate(-919.919 -1951.11)" fill="#2a428c"/>
          <path id="Trazado_27645" data-name="Trazado 27645" d="M950,1983.544h-3.049a1.408,1.408,0,0,0-.521.1,1.424,1.424,0,0,1,.9,1.324v3.049a1.423,1.423,0,0,1-.9,1.324,1.408,1.408,0,0,0,.521.1H950a1.424,1.424,0,0,0,1.424-1.424v-3.049A1.424,1.424,0,0,0,950,1983.544Z" transform="translate(-916.042 -1951.11)" fill="#2a428c"/>
          <path id="Trazado_27646" data-name="Trazado 27646" d="M934.331,1983.544h-3.05a1.412,1.412,0,0,0-.522.1,1.424,1.424,0,0,1,.9,1.324v3.049a1.423,1.423,0,0,1-.9,1.324,1.412,1.412,0,0,0,.522.1h3.05a1.424,1.424,0,0,0,1.424-1.424v-3.049A1.424,1.424,0,0,0,934.331,1983.544Z" transform="translate(-912.165 -1951.11)" fill="#2a428c"/>
          <path id="Trazado_27647" data-name="Trazado 27647" d="M918.66,1983.544h-3.05a1.412,1.412,0,0,0-.522.1,1.424,1.424,0,0,1,.9,1.324v3.049a1.423,1.423,0,0,1-.9,1.324,1.412,1.412,0,0,0,.522.1h3.05a1.424,1.424,0,0,0,1.424-1.424v-3.049A1.424,1.424,0,0,0,918.66,1983.544Z" transform="translate(-908.288 -1951.11)" fill="#2a428c"/>
          <path id="Trazado_27648" data-name="Trazado 27648" d="M918.66,1999.215h-3.05a1.412,1.412,0,0,0-.522.1,1.424,1.424,0,0,1,.9,1.324v3.05a1.424,1.424,0,0,1-.9,1.324,1.414,1.414,0,0,0,.522.1h3.05a1.424,1.424,0,0,0,1.424-1.424v-3.05a1.424,1.424,0,0,0-1.424-1.424Z" transform="translate(-908.288 -1954.987)" fill="#2a428c"/>
          <path id="Trazado_27649" data-name="Trazado 27649" d="M918.66,2014.886h-3.05a1.412,1.412,0,0,0-.522.1,1.424,1.424,0,0,1,.9,1.324v3.049a1.422,1.422,0,0,1-.9,1.323,1.415,1.415,0,0,0,.522.1h3.05a1.424,1.424,0,0,0,1.424-1.424v-3.049a1.424,1.424,0,0,0-1.424-1.424Z" transform="translate(-908.288 -1958.864)" fill="#2a428c"/>
          <path id="Trazado_27650" data-name="Trazado 27650" d="M934.331,1999.215h-3.05a1.412,1.412,0,0,0-.522.1,1.424,1.424,0,0,1,.9,1.324v3.05a1.424,1.424,0,0,1-.9,1.324,1.414,1.414,0,0,0,.522.1h3.05a1.424,1.424,0,0,0,1.424-1.424v-3.05a1.424,1.424,0,0,0-1.424-1.424Z" transform="translate(-912.165 -1954.987)" fill="#2a428c"/>
          <path id="Trazado_27651" data-name="Trazado 27651" d="M934.331,2014.886h-3.05a1.412,1.412,0,0,0-.522.1,1.424,1.424,0,0,1,.9,1.324v3.049a1.422,1.422,0,0,1-.9,1.323,1.414,1.414,0,0,0,.522.1h3.05a1.424,1.424,0,0,0,1.424-1.424v-3.049a1.424,1.424,0,0,0-1.424-1.424Z" transform="translate(-912.165 -1958.864)" fill="#2a428c"/>
          <path id="Trazado_27652" data-name="Trazado 27652" d="M950,1999.215h-3.049a1.408,1.408,0,0,0-.521.1,1.424,1.424,0,0,1,.9,1.324v3.05a1.424,1.424,0,0,1-.9,1.324,1.411,1.411,0,0,0,.521.1H950a1.424,1.424,0,0,0,1.424-1.424v-3.05a1.424,1.424,0,0,0-1.424-1.424Z" transform="translate(-916.042 -1954.987)" fill="#2a428c"/>
          <path id="Trazado_27653" data-name="Trazado 27653" d="M967.1,2005.112v-4.474a1.424,1.424,0,0,0-1.424-1.424h-3.049a1.415,1.415,0,0,0-.522.1,1.424,1.424,0,0,1,.9,1.324v3.05a1.423,1.423,0,0,1-.9,1.324,1.418,1.418,0,0,0,.522.1Z" transform="translate(-919.919 -1954.987)" fill="#2a428c"/>
          <path id="Trazado_27654" data-name="Trazado 27654" d="M950,2014.886h-3.049a1.408,1.408,0,0,0-.521.1,1.424,1.424,0,0,1,.9,1.324v3.049a1.422,1.422,0,0,1-.9,1.323,1.411,1.411,0,0,0,.521.1H950a1.424,1.424,0,0,0,1.424-1.424v-3.049a1.424,1.424,0,0,0-1.424-1.424Z" transform="translate(-916.042 -1958.864)" fill="#2a428c"/>
          <path id="Trazado_27655" data-name="Trazado 27655" d="M1002.478,1973.441v42.985h4.1v-41.279Z" transform="translate(-929.908 -1948.611)" fill="#d3dcfb"/>
          <path id="Trazado_27656" data-name="Trazado 27656" d="M982.719,1968.924v-14.743a5.9,5.9,0,0,0-5.9-5.9H911.95a5.9,5.9,0,0,0-5.9,5.9v14.743Z" transform="translate(-906.053 -1942.387)" fill="#ff4155"/>
          <path id="Trazado_27657" data-name="Trazado 27657" d="M936.93,1951.506a3.686,3.686,0,0,1-7.371,0v-7.372a3.686,3.686,0,0,1,7.371,0Z" transform="translate(-911.868 -1940.449)" fill="#ebf5fc"/>
          <path id="Trazado_27658" data-name="Trazado 27658" d="M981.987,1951.506a3.686,3.686,0,0,1-7.372,0v-7.372a3.686,3.686,0,0,1,7.372,0Z" transform="translate(-923.015 -1940.449)" fill="#ebf5fc"/>
          <path id="Trazado_27659" data-name="Trazado 27659" d="M978.84,1940.449a3.667,3.667,0,0,0-2.045.62,3.681,3.681,0,0,1,1.641,3.065v7.372a3.68,3.68,0,0,1-1.641,3.065,3.685,3.685,0,0,0,5.73-3.065v-7.372A3.685,3.685,0,0,0,978.84,1940.449Z" transform="translate(-923.554 -1940.449)" fill="#d3dcfb"/>
          <path id="Trazado_27660" data-name="Trazado 27660" d="M933.784,1940.449a3.667,3.667,0,0,0-2.045.62,3.681,3.681,0,0,1,1.641,3.065v7.372a3.681,3.681,0,0,1-1.641,3.065,3.685,3.685,0,0,0,5.73-3.065v-7.372a3.686,3.686,0,0,0-3.686-3.685Z" transform="translate(-912.408 -1940.449)" fill="#d3dcfb"/>
          <path id="Trazado_27661" data-name="Trazado 27661" d="M998.74,1948.285h-4.095a5.9,5.9,0,0,1,5.9,5.9v14.743h4.095v-14.743A5.9,5.9,0,0,0,998.74,1948.285Z" transform="translate(-927.97 -1942.387)" fill="#e80054"/>
        </g>
        <circle id="Elipse_1035" data-name="Elipse 1035" cx="22.114" cy="22.114" r="22.114" transform="translate(38.333 44.228)" fill="#4fabf7"/>
        <circle id="Elipse_1036" data-name="Elipse 1036" cx="16.217" cy="16.217" r="16.217" transform="translate(44.23 50.124)" fill="#ebf5fc"/>
        <path id="Trazado_27662" data-name="Trazado 27662" d="M985.7,1999.215c-.691,0-1.373.033-2.047.1a22.113,22.113,0,0,1,0,44.037c.674.062,1.356.095,2.047.095a22.114,22.114,0,0,0,0-44.228Z" transform="translate(-925.25 -1954.987)" fill="#1886ea"/>
        <path id="Trazado_27663" data-name="Trazado 27663" d="M985.7,2007.051a16.412,16.412,0,0,0-2.046.128,16.218,16.218,0,0,1,0,32.177,16.412,16.412,0,0,0,2.046.128,16.216,16.216,0,1,0,0-32.432Z" transform="translate(-925.251 -1956.926)" fill="#d3dcfb"/>
        <circle id="Elipse_1037" data-name="Elipse 1037" cx="2.949" cy="2.949" r="2.949" transform="translate(57.498 63.393)" fill="#ffdd40"/>
      </g>
      <g id="Grupo_17361" data-name="Grupo 17361">
        <path id="Trazado_27664" data-name="Trazado 27664" d="M914.875,1990.337h3.05a2.762,2.762,0,0,0,2.759-2.758v-3.049a2.762,2.762,0,0,0-2.759-2.758h-3.05a2.761,2.761,0,0,0-2.758,2.758v3.049A2.761,2.761,0,0,0,914.875,1990.337Zm-.089-5.808a.089.089,0,0,1,.089-.089h3.05a.089.089,0,0,1,.089.089v3.049a.089.089,0,0,1-.089.089h-3.05a.089.089,0,0,1-.089-.089Z" transform="translate(-906.218 -1949.338)" fill="#00223d"/>
        <path id="Trazado_27665" data-name="Trazado 27665" d="M930.546,1990.337h3.05a2.761,2.761,0,0,0,2.758-2.758v-3.049a2.761,2.761,0,0,0-2.758-2.758h-3.05a2.761,2.761,0,0,0-2.758,2.758v3.049A2.761,2.761,0,0,0,930.546,1990.337Zm-.089-5.808a.089.089,0,0,1,.089-.089h3.05a.089.089,0,0,1,.089.089v3.049a.089.089,0,0,1-.089.089h-3.05a.089.089,0,0,1-.089-.089Z" transform="translate(-910.095 -1949.338)" fill="#00223d"/>
        <path id="Trazado_27666" data-name="Trazado 27666" d="M946.217,1990.337h3.049a2.761,2.761,0,0,0,2.758-2.758v-3.049a2.761,2.761,0,0,0-2.758-2.758h-3.049a2.761,2.761,0,0,0-2.758,2.758v3.049A2.761,2.761,0,0,0,946.217,1990.337Zm-.089-5.808a.089.089,0,0,1,.089-.089h3.049a.089.089,0,0,1,.089.089v3.049a.089.089,0,0,1-.089.089h-3.049a.089.089,0,0,1-.089-.089Z" transform="translate(-913.972 -1949.338)" fill="#00223d"/>
        <path id="Trazado_27667" data-name="Trazado 27667" d="M964.938,1990.337a2.761,2.761,0,0,0,2.758-2.758v-3.049a2.761,2.761,0,0,0-2.758-2.758h-3.049a2.761,2.761,0,0,0-2.758,2.758v3.049a2.761,2.761,0,0,0,2.758,2.758Zm-3.138-2.758v-3.049a.089.089,0,0,1,.089-.089h3.049a.089.089,0,0,1,.089.089v3.049a.089.089,0,0,1-.089.089h-3.049A.089.089,0,0,1,961.8,1987.579Z" transform="translate(-917.849 -1949.338)" fill="#00223d"/>
        <path id="Trazado_27668" data-name="Trazado 27668" d="M980.606,1990.337a2.762,2.762,0,0,0,2.759-2.758v-3.049a2.762,2.762,0,0,0-2.759-2.758h-3.05a2.761,2.761,0,0,0-2.758,2.758v3.049a2.761,2.761,0,0,0,2.758,2.758Zm-3.138-2.758v-3.049a.089.089,0,0,1,.089-.089h3.05a.089.089,0,0,1,.089.089v3.049a.089.089,0,0,1-.089.089h-3.05A.089.089,0,0,1,977.467,1987.579Z" transform="translate(-921.725 -1949.338)" fill="#00223d"/>
        <path id="Trazado_27669" data-name="Trazado 27669" d="M996.277,1990.337a2.761,2.761,0,0,0,2.758-2.758v-3.049a2.761,2.761,0,0,0-2.758-2.758h-3.05a2.761,2.761,0,0,0-2.758,2.758v3.049a2.761,2.761,0,0,0,2.758,2.758Zm-3.138-2.758v-3.049a.089.089,0,0,1,.089-.089h3.05a.089.089,0,0,1,.089.089v3.049a.089.089,0,0,1-.089.089h-3.05A.089.089,0,0,1,993.138,1987.579Z" transform="translate(-925.602 -1949.338)" fill="#00223d"/>
        <path id="Trazado_27670" data-name="Trazado 27670" d="M912.117,2003.25a2.761,2.761,0,0,0,2.758,2.758h3.05a2.762,2.762,0,0,0,2.759-2.758v-3.05a2.762,2.762,0,0,0-2.759-2.758h-3.05a2.761,2.761,0,0,0-2.758,2.758Zm2.67-3.05a.089.089,0,0,1,.089-.089h3.05a.089.089,0,0,1,.089.089v3.05a.089.089,0,0,1-.089.089h-3.05a.089.089,0,0,1-.089-.089Z" transform="translate(-906.218 -1953.215)" fill="#00223d"/>
        <path id="Trazado_27671" data-name="Trazado 27671" d="M927.788,2003.25a2.761,2.761,0,0,0,2.758,2.758h3.05a2.761,2.761,0,0,0,2.758-2.758v-3.05a2.761,2.761,0,0,0-2.758-2.758h-3.05a2.761,2.761,0,0,0-2.758,2.758Zm2.669-3.05a.089.089,0,0,1,.089-.089h3.05a.089.089,0,0,1,.089.089v3.05a.089.089,0,0,1-.089.089h-3.05a.089.089,0,0,1-.089-.089Z" transform="translate(-910.095 -1953.215)" fill="#00223d"/>
        <path id="Trazado_27672" data-name="Trazado 27672" d="M943.459,2003.25a2.761,2.761,0,0,0,2.758,2.758h3.049a2.761,2.761,0,0,0,2.758-2.758v-3.05a2.761,2.761,0,0,0-2.758-2.758h-3.049a2.761,2.761,0,0,0-2.758,2.758Zm2.669-3.05a.089.089,0,0,1,.089-.089h3.049a.089.089,0,0,1,.089.089v3.05a.089.089,0,0,1-.089.089h-3.049a.089.089,0,0,1-.089-.089Z" transform="translate(-913.972 -1953.215)" fill="#00223d"/>
        <path id="Trazado_27673" data-name="Trazado 27673" d="M912.117,2018.921a2.761,2.761,0,0,0,2.758,2.758h3.05a2.762,2.762,0,0,0,2.759-2.758v-3.049a2.762,2.762,0,0,0-2.759-2.758h-3.05a2.761,2.761,0,0,0-2.758,2.758Zm2.67-3.049a.089.089,0,0,1,.089-.089h3.05a.089.089,0,0,1,.089.089v3.049a.089.089,0,0,1-.089.089h-3.05a.089.089,0,0,1-.089-.089Z" transform="translate(-906.218 -1957.091)" fill="#00223d"/>
        <path id="Trazado_27674" data-name="Trazado 27674" d="M927.788,2018.921a2.761,2.761,0,0,0,2.758,2.758h3.05a2.761,2.761,0,0,0,2.758-2.758v-3.049a2.761,2.761,0,0,0-2.758-2.758h-3.05a2.761,2.761,0,0,0-2.758,2.758Zm2.669-3.049a.089.089,0,0,1,.089-.089h3.05a.089.089,0,0,1,.089.089v3.049a.089.089,0,0,1-.089.089h-3.05a.089.089,0,0,1-.089-.089Z" transform="translate(-910.095 -1957.091)" fill="#00223d"/>
        <path id="Trazado_27675" data-name="Trazado 27675" d="M943.459,2018.921a2.761,2.761,0,0,0,2.758,2.758h3.049a2.761,2.761,0,0,0,2.758-2.758v-3.049a2.761,2.761,0,0,0-2.758-2.758h-3.049a2.761,2.761,0,0,0-2.758,2.758Zm2.669-3.049a.089.089,0,0,1,.089-.089h3.049a.089.089,0,0,1,.089.089v3.049a.089.089,0,0,1-.089.089h-3.049a.089.089,0,0,1-.089-.089Z" transform="translate(-913.972 -1957.091)" fill="#00223d"/>
        <path id="Trazado_27676" data-name="Trazado 27676" d="M983.615,1990.824V1951.8a7.24,7.24,0,0,0-7.232-7.232H965.92v-.876a5.02,5.02,0,1,0-10.04,0v.877H932.011v-.877a5.021,5.021,0,0,0-10.041,0v.877H911.511a7.24,7.24,0,0,0-7.232,7.232v20.919a1.335,1.335,0,0,0,2.669,0v-4.841h74v20.365a23.4,23.4,0,0,0-26.819-2.072v-.463a2.812,2.812,0,0,0-2.809-2.809h-2.949a2.812,2.812,0,0,0-2.809,2.809v2.949a2.811,2.811,0,0,0,2.418,2.779,23.341,23.341,0,0,0-5.366,14.912c0,.047,0,.093,0,.139h-31.1a4.567,4.567,0,0,1-4.562-4.561v-23.867a1.335,1.335,0,0,0-2.669,0v29.764a7.239,7.239,0,0,0,7.232,7.232h3.229a1.335,1.335,0,0,0,0-2.67h-3.229a4.567,4.567,0,0,1-4.562-4.562v-.29a7.2,7.2,0,0,0,4.562,1.626h31.27a23.322,23.322,0,0,0,.621,3.227H920.079a1.335,1.335,0,1,0,0,2.67h24.21a23.445,23.445,0,1,0,39.326-24.233ZM958.549,1943.7a2.351,2.351,0,0,1,4.7,0v7.372a2.351,2.351,0,1,1-4.7,0Zm-33.91,0a2.351,2.351,0,0,1,4.7,0v7.372a2.351,2.351,0,1,1-4.7,0Zm-13.128,3.546h10.459v3.227h-1.614a1.335,1.335,0,1,0,0,2.67h2.063a5.018,5.018,0,0,0,9.143,0h2.063a1.335,1.335,0,0,0,0-2.67h-1.614v-3.227h23.869v3.227h-1.614a1.335,1.335,0,0,0,0,2.67h2.064a5.017,5.017,0,0,0,9.142,0h2.063a1.335,1.335,0,1,0,0-2.67H965.92v-3.227h10.463a4.567,4.567,0,0,1,4.562,4.562v7.511h-74V1951.8a4.567,4.567,0,0,1,4.562-4.562Zm-4.562,17.97v-3.227h74v3.227Zm41.281,20.5a.139.139,0,0,1,.139-.139h2.949a.139.139,0,0,1,.139.139v2.308q-.474.378-.927.78h-2.161a.139.139,0,0,1-.139-.139v-2.949Zm17.831,41.419a20.779,20.779,0,1,1,20.779-20.779A20.8,20.8,0,0,1,966.061,2027.13Z" transform="translate(-904.279 -1938.676)" fill="#00223d"/>
        <path id="Trazado_27677" data-name="Trazado 27677" d="M980.6,2005.277a17.551,17.551,0,1,0,17.551,17.552A17.571,17.571,0,0,0,980.6,2005.277Zm0,32.433a14.882,14.882,0,1,1,14.882-14.882A14.9,14.9,0,0,1,980.6,2037.71Z" transform="translate(-918.818 -1955.153)" fill="#00223d"/>
        <path id="Trazado_27678" data-name="Trazado 27678" d="M992.333,2023.432h-3.3a4.3,4.3,0,0,0-2.735-2.735v-6.25a1.335,1.335,0,0,0-2.669,0v6.25a4.283,4.283,0,1,0,5.4,5.4h3.3a1.335,1.335,0,1,0,0-2.67Zm-7.371,2.948a1.614,1.614,0,1,1,1.614-1.614A1.615,1.615,0,0,1,984.962,2026.38Z" transform="translate(-923.18 -1957.091)" fill="#00223d"/>
      </g>
    </g>
    <g id="Grupo_17457" data-name="Grupo 17457" transform="translate(-91 2047)">
      <g id="Grupo_17343" data-name="Grupo 17343" transform="translate(0 560)">
        <g id="Grupo_17342" data-name="Grupo 17342">
          <g id="Grupo_17335" data-name="Grupo 17335" transform="translate(0 1019)">
            <rect id="Rectángulo_4354" data-name="Rectángulo 4354" width="113" height="113" transform="translate(378 5412)" fill="none"/>
          </g>
        </g>
      </g>
    </g>
  </g>
</svg>
