<svg xmlns="http://www.w3.org/2000/svg" width="113" height="113" viewBox="0 0 113 113">
  <g id="Grupo_17468" data-name="Grupo 17468" transform="translate(-1010 -8638)">
    <g id="Grupo_17357" data-name="Grupo 17357" transform="translate(1016 8650)">
      <path id="Trazado_27610" data-name="Trazado 27610" d="M771.714,2016.2l24.387,10.95V1983.5l-21.006-10.95Z" transform="translate(-745.851 -1938.831)" fill="#44c868"/>
      <path id="Trazado_27611" data-name="Trazado 27611" d="M773.523,1994.45l22.578,34.315-24.387-10.95Z" transform="translate(-745.851 -1940.45)" fill="#7ee5f2"/>
      <path id="Trazado_27612" data-name="Trazado 27612" d="M769.768,2016.2l-24.387,10.95,7.9-43.536,19.872-11.062Z" transform="translate(-743.905 -1938.831)" fill="#4ce166"/>
      <path id="Trazado_27613" data-name="Trazado 27613" d="M749.486,2006.128l22.091-11.678-1.81,23.365-24.387,10.95Z" transform="translate(-743.905 -1940.45)" fill="#a8eefc"/>
      <path id="Trazado_27614" data-name="Trazado 27614" d="M824.11,2016.2l24.387,10.95-7.9-43.536L820.73,1972.55Z" transform="translate(-749.474 -1938.831)" fill="#44c868"/>
      <path id="Trazado_27615" data-name="Trazado 27615" d="M821.811,1986.224l24.336,28.268-5.464-30.131-3.012-1.676Z" transform="translate(-749.553 -1939.581)" fill="#7ee5f2"/>
      <path id="Trazado_27616" data-name="Trazado 27616" d="M822.434,2016.2l-24.387,10.95V1983.5l21.007-10.95Z" transform="translate(-747.797 -1938.831)" fill="#4ce166"/>
      <path id="Trazado_27617" data-name="Trazado 27617" d="M749.814,2005.466l22.091-11.678.643-8.3-21.131,11.136Z" transform="translate(-744.233 -1939.788)" fill="#ffdb56"/>
      <g id="Grupo_17356" data-name="Grupo 17356" transform="translate(27.672 37.806)">
        <path id="Trazado_27618" data-name="Trazado 27618" d="M796.251,1988.628l-21.94-3.14-.643,8.3,22.577,34.315v-12.478l-13.472-21.232,13.478,1.614Z" transform="translate(-773.668 -1977.594)" fill="#ffbb24"/>
        <path id="Trazado_27619" data-name="Trazado 27619" d="M821.766,1985.8l15.859-3.54-9.517-5.3-6.9,1.614Z" transform="translate(-777.181 -1976.964)" fill="#ffbb24"/>
      </g>
      <path id="Trazado_27620" data-name="Trazado 27620" d="M820.857,1996.279l-.856-11.05h0l-.505-6.522-21.442,9.42v7.379l14.006-6.1Z" transform="translate(-747.798 -1939.286)" fill="#ffdb56"/>
      <path id="Trazado_27621" data-name="Trazado 27621" d="M822.612,1996.855l25.965,31.323-2.431-13.4-24.336-28.268Z" transform="translate(-749.553 -1939.863)" fill="#ffbb24"/>
      <path id="Trazado_27622" data-name="Trazado 27622" d="M796.62,1937.734a19.158,19.158,0,0,0-19.158,19.158c0,16.113,19.158,30.939,19.158,30.939s19.159-14.826,19.159-30.939A19.159,19.159,0,0,0,796.62,1937.734Zm0,26.8a7.641,7.641,0,1,1,7.641-7.641A7.641,7.641,0,0,1,796.62,1964.534Z" transform="translate(-746.276 -1936.259)" fill="#ff4a4a"/>
      <path id="Trazado_27623" data-name="Trazado 27623" d="M797.937,1937.734a19.355,19.355,0,0,0-2.655.184,19.161,19.161,0,0,1,16.5,18.975c0,12.343-11.243,23.931-16.5,28.677,1.607,1.45,2.655,2.261,2.655,2.261s19.159-14.826,19.159-30.938A19.159,19.159,0,0,0,797.937,1937.734Z" transform="translate(-747.593 -1936.259)" fill="#e7343f"/>
      <path id="Trazado_27624" data-name="Trazado 27624" d="M798.047,2018.03l8.4,8.7-8.4,3.773Z" transform="translate(-747.797 -1942.192)" fill="#ffdb56"/>
      <path id="Trazado_27625" data-name="Trazado 27625" d="M843.975,2025.36c.007-.009.015-.018.022-.027a1.526,1.526,0,0,0,.117-.188.567.567,0,0,0,.026-.056,1.368,1.368,0,0,0,.062-.146c.008-.025.016-.051.023-.077.013-.046.024-.093.033-.14.005-.027.01-.054.013-.081a1.368,1.368,0,0,0,.011-.152c0-.024,0-.048,0-.073a1.469,1.469,0,0,0-.021-.227l-5.888-32.464a1.475,1.475,0,1,0-2.9.526l2.489,13.727-19.193-22.294,12.909-2.881,1.911,1.064.83,4.577a1.475,1.475,0,0,0,2.9-.526l-.955-5.263a1.473,1.473,0,0,0-.734-1.026h0l-19.874-11.063h0a1.408,1.408,0,0,0-.174-.082c-.019-.007-.038-.012-.056-.019-.042-.015-.083-.029-.126-.04-.023-.006-.047-.009-.072-.014s-.076-.015-.114-.019a.641.641,0,0,0-.078-.006c-.037,0-.074,0-.111,0l-.08,0c-.036,0-.073.006-.109.011l-.08.014c-.035.006-.07.015-.106.025l-.079.023c-.034.012-.068.025-.1.039l-.078.034-.033.016-3.37,1.756a28.682,28.682,0,0,0,3.773-13.533,20.634,20.634,0,1,0-41.267,0,28.77,28.77,0,0,0,3.846,13.669l-3.631-1.892c-.011-.006-.023-.01-.034-.016s-.05-.023-.075-.033-.068-.028-.1-.04-.052-.016-.078-.023-.07-.019-.106-.025-.053-.01-.08-.014a1.084,1.084,0,0,0-.108-.01l-.081,0c-.036,0-.072,0-.108,0s-.055,0-.082.007-.073.011-.109.019-.052.009-.077.016c-.041.01-.08.023-.12.037-.02.006-.042.012-.062.02a1.574,1.574,0,0,0-.174.082h0l-19.871,11.061a1.474,1.474,0,0,0-.734,1.026h0l-5.6,30.862h0a1.475,1.475,0,0,0,2.9.526l1.679-9.259,19.091-10.092-1.536,19.824-21.033,9.444.74-4.083a1.475,1.475,0,1,0-2.9-.526l-1.241,6.838a1.475,1.475,0,0,0,2.056,1.609l23.783-10.678,23.773,10.674h0l.008,0c.013.007.027.01.041.016l.066.026.065.022.043.012.056.014c.031.007.062.013.093.018l.045.008.03,0c.05.006.1.008.149.009h.028a1.284,1.284,0,0,0,.179-.013h.022l.033-.007a1.278,1.278,0,0,0,.138-.031l.038-.009h0l.012,0a1.41,1.41,0,0,0,.169-.063l23.782-10.678h0l23.784,10.679c.022.01.046.019.07.027s.046.02.07.027a.939.939,0,0,0,.094.026.567.567,0,0,0,.058.016c.037.008.076.014.114.02.014,0,.027,0,.041.006a1.478,1.478,0,0,0,.157.008h0a1.5,1.5,0,0,0,.214-.018l.05-.008a1.4,1.4,0,0,0,.209-.053l.013,0a1.451,1.451,0,0,0,.135-.055l.037-.021c.037-.019.072-.04.109-.062s.071-.043.1-.068c.012-.009.025-.015.036-.024s.048-.043.073-.066.04-.033.058-.052A1.591,1.591,0,0,0,843.975,2025.36Zm-41.193-6.448-7.27-7.53v-18.054l12.321-5.362,7.592,5.928,1.448,18.692Zm-7.27,3.264v-6.547l4.409,4.567Zm-5.786-36.324c1.228,1.139,2.223,1.986,2.836,2.49v2.354l-11.822-1.415a1.475,1.475,0,0,0-1.421,2.255l13.242,20.87v7.125l-19.593-29.779.24-3.1.243-3.127Zm11.142-2.259,13.307-5.847.943,12.165-6.16-4.81a1.477,1.477,0,0,0-1.5-.19l-11.943,5.2v-1.617A69.424,69.424,0,0,0,800.868,1983.594Zm17.012,3.782-.017-.219L839,2011.711l1.355,7.473-22.076-26.631Zm-1.153-14.892,1.609.9-1.512.354Zm-33.251,20.1,9.086,1.087V2006.9Zm-10.878,1.972,17.424,26.483-18.82-8.451Zm46.078,3.1,18.949,22.86-17.8-7.991Zm9.126-19-10.418,2.325-.331-4.266,5.114-1.2,5.634,3.135Zm-14.056-6.449.188,2.432-8.313,3.652q1.238-1.535,2.309-3.053Zm-19.614-33.108a17.7,17.7,0,0,1,17.684,17.684c0,13.232-13.959,25.89-17.684,29.031-3.725-3.141-17.684-15.8-17.684-29.031A17.7,17.7,0,0,1,794.132,1939.091Zm-10.71,40.142c.945,1.129,1.887,2.177,2.794,3.138l-12.535-1.794.648-8.377,6.114,3.187Q781.8,1977.3,783.421,1979.233Zm-12.074-6.749-.423,5.473-.23,2.959-17.731,9.345,1.522-8.39ZM751.362,1999.1l.91-5.02.023-.13,18.13-9.555-.373,4.824Z" transform="translate(-743.788 -1936.141)" fill="#00223d"/>
      <path id="Trazado_27626" data-name="Trazado 27626" d="M806.538,1957.695a9.127,9.127,0,0,0-9.117-9.117,1.475,1.475,0,1,0,0,2.95,6.165,6.165,0,1,1-4.4,1.845,1.475,1.475,0,1,0-2.1-2.067,9.117,9.117,0,1,0,15.62,6.389Z" transform="translate(-747.077 -1937.06)" fill="#00223d"/>
    </g>
    <g id="Grupo_17455" data-name="Grupo 17455" transform="translate(632 1647)">
      <g id="Grupo_17343" data-name="Grupo 17343" transform="translate(0 560)">
        <g id="Grupo_17342" data-name="Grupo 17342">
          <g id="Grupo_17335" data-name="Grupo 17335" transform="translate(0 1019)">
            <rect id="Rectángulo_4354" data-name="Rectángulo 4354" width="113" height="113" transform="translate(378 5412)" fill="none"/>
          </g>
        </g>
      </g>
    </g>
  </g>
</svg>
