<svg xmlns="http://www.w3.org/2000/svg" width="113" height="113" viewBox="0 0 113 113">
  <g id="Grupo_17462" data-name="Grupo 17462" transform="translate(-1003 -9037)">
    <g id="Grupo_17452" data-name="Grupo 17452" transform="translate(1016 9050)">
      <g id="Grupo_17450" data-name="Grupo 17450" transform="translate(1.405 1.406)">
        <g id="Grupo_17406" data-name="Grupo 17406" transform="translate(61.408 36.544)">
          <path id="Trazado_27725" data-name="Trazado 27725" d="M1340.726,1969.292l3.247,7.576-3.247,6.479-3.247-6.479Z" transform="translate(-1337.479 -1969.292)" fill="#fcd770"/>
        </g>
        <g id="Grupo_17407" data-name="Grupo 17407" transform="translate(64.655 33.733)">
          <path id="Trazado_27726" data-name="Trazado 27726" d="M1348.006,1965.045l2.572.52-3.964,7.913-.984,1.953-3.247-7.576Z" transform="translate(-1342.384 -1965.045)" fill="#ef6c00"/>
        </g>
        <g id="Grupo_17408" data-name="Grupo 17408" transform="translate(58.176 33.579)">
          <path id="Trazado_27727" data-name="Trazado 27727" d="M1333.452,1966.372a4.108,4.108,0,0,0-.309-1.56h.014l5.918,2.965-3.247,7.576-.984-1.953-2.249-4.484a4.2,4.2,0,0,0,.857-2.544Z" transform="translate(-1332.595 -1964.812)" fill="#ef6c00"/>
        </g>
        <g id="Grupo_17409" data-name="Grupo 17409" transform="translate(64.655 67.466)">
          <path id="Trazado_27728" data-name="Trazado 27728" d="M1353.629,2018.819v14.055h-11.245v-16.866h11.245Z" transform="translate(-1342.384 -2016.008)" fill="#aab2bd"/>
        </g>
        <g id="Grupo_17410" data-name="Grupo 17410" transform="translate(75.9 70.278)">
          <path id="Trazado_27729" data-name="Trazado 27729" d="M1364.993,2020.255v4.216a4.21,4.21,0,0,1-4.216,4.217h-1.405v-8.433Z" transform="translate(-1359.372 -2020.255)" fill="#f0d0b4"/>
        </g>
        <g id="Grupo_17411" data-name="Grupo 17411" transform="translate(64.655 34.857)">
          <path id="Trazado_27730" data-name="Trazado 27730" d="M1353.629,1999.353h-11.245v-16.867l7.028-1.405,1.237-6.213,2.98.59v-8.714l.52.1a9.856,9.856,0,0,1,7.913,9.656v24.259a1.41,1.41,0,0,1-1.405,1.406h-7.028Z" transform="translate(-1342.384 -1966.744)" fill="#4fc1e9"/>
        </g>
        <g id="Grupo_17412" data-name="Grupo 17412" transform="translate(49.236 39.355)">
          <path id="Trazado_27731" data-name="Trazado 27731" d="M1327.481,1983.378l7.028,1.405v10.879a9.856,9.856,0,0,0-7.913-9.656l-.52-.1-3.05-.6-2.572-.52-1.35-6.774-.014-.014a8.449,8.449,0,0,0,3.7-4.455h.478v4.216l2.979-.59Z" transform="translate(-1319.09 -1973.539)" fill="#4fc1e9"/>
        </g>
        <g id="Grupo_17413" data-name="Grupo 17413" transform="translate(53.411 37.682)">
          <path id="Trazado_27732" data-name="Trazado 27732" d="M1330.161,1971.012l2.249,4.484-4.035.815-2.979.591v-4.217h1.405a4.206,4.206,0,0,0,2.98-1.237,3.619,3.619,0,0,0,.379-.436Z" transform="translate(-1325.397 -1971.012)" fill="#3bafda"/>
        </g>
        <g id="Grupo_17414" data-name="Grupo 17414" transform="translate(56.39 42.166)">
          <path id="Trazado_27733" data-name="Trazado 27733" d="M1334.916,1979.739l3.247,6.479-7.028-1.405-1.237-6.213,4.034-.815Z" transform="translate(-1329.898 -1977.786)" fill="#3bafda"/>
        </g>
        <g id="Grupo_17415" data-name="Grupo 17415" transform="translate(64.655 42.166)">
          <path id="Trazado_27734" data-name="Trazado 27734" d="M1346.615,1977.786l4.034.815-1.237,6.213-7.028,1.405,3.247-6.479Z" transform="translate(-1342.384 -1977.786)" fill="#3bafda"/>
        </g>
        <g id="Grupo_17416" data-name="Grupo 17416" transform="translate(68.886 34.253)">
          <path id="Trazado_27735" data-name="Trazado 27735" d="M1355.79,1966.435v8.714l-2.98-.59-4.034-.815,3.964-7.913Z" transform="translate(-1348.776 -1965.831)" fill="#3bafda"/>
        </g>
        <g id="Grupo_17417" data-name="Grupo 17417" transform="translate(41.731 53.41)">
          <path id="Trazado_27736" data-name="Trazado 27736" d="M1311,1994.773l3.247,7.576-3.247,6.479-3.247-6.479Z" transform="translate(-1307.751 -1994.773)" fill="#fcd770"/>
        </g>
        <g id="Grupo_17418" data-name="Grupo 17418" transform="translate(44.978 50.599)">
          <path id="Trazado_27737" data-name="Trazado 27737" d="M1318.278,1990.526l2.572.52-3.964,7.913-.984,1.954-3.247-7.576Z" transform="translate(-1312.656 -1990.526)" fill="#ffc729"/>
        </g>
        <g id="Grupo_17419" data-name="Grupo 17419" transform="translate(36.783 50.599)">
          <path id="Trazado_27738" data-name="Trazado 27738" d="M1302.848,1990.526l5.622,2.811-3.247,7.576-.984-1.954-3.964-7.913Z" transform="translate(-1300.276 -1990.526)" fill="#ffc729"/>
        </g>
        <g id="Grupo_17421" data-name="Grupo 17421" transform="translate(44.978 51.724)">
          <g id="Grupo_17420" data-name="Grupo 17420">
            <path id="Trazado_27739" data-name="Trazado 27739" d="M1312.656,2024.834v-16.867l7.028-1.406,1.237-6.212,2.98.59v-8.715l.52.1a9.857,9.857,0,0,1,7.913,9.656v22.854h-19.678Z" transform="translate(-1312.656 -1992.225)" fill="#f9a825"/>
          </g>
        </g>
        <g id="Grupo_17423" data-name="Grupo 17423" transform="translate(33.733 59.848)">
          <g id="Grupo_17422" data-name="Grupo 17422">
            <path id="Trazado_27740" data-name="Trazado 27740" d="M1299.885,2010.711l7.028,1.406v16.866h-5.622V2023a9.87,9.87,0,0,0-5.622-8.9v-9.009l2.979-.59Z" transform="translate(-1295.669 -2004.499)" fill="#f9a825"/>
          </g>
        </g>
        <g id="Grupo_17425" data-name="Grupo 17425" transform="translate(36.713 59.033)">
          <g id="Grupo_17424" data-name="Grupo 17424">
            <path id="Trazado_27741" data-name="Trazado 27741" d="M1305.188,2005.221l3.247,6.48-7.028-1.406-1.237-6.212,4.034-.816Z" transform="translate(-1300.17 -2003.267)" fill="#ef6c00"/>
          </g>
        </g>
        <g id="Grupo_17427" data-name="Grupo 17427" transform="translate(44.978 59.033)">
          <g id="Grupo_17426" data-name="Grupo 17426">
            <path id="Trazado_27742" data-name="Trazado 27742" d="M1316.887,2003.267l4.034.816-1.237,6.212-7.028,1.406,3.247-6.48Z" transform="translate(-1312.656 -2003.267)" fill="#ef6c00"/>
          </g>
        </g>
        <g id="Grupo_17429" data-name="Grupo 17429" transform="translate(33.733 51.12)">
          <g id="Grupo_17428" data-name="Grupo 17428">
            <path id="Trazado_27743" data-name="Trazado 27743" d="M1298.718,1991.312l3.964,7.913-4.034.815-2.979.59v-8.715Z" transform="translate(-1295.669 -1991.312)" fill="#ef6c00"/>
          </g>
        </g>
        <g id="Grupo_17431" data-name="Grupo 17431" transform="translate(49.209 51.12)">
          <g id="Grupo_17430" data-name="Grupo 17430">
            <path id="Trazado_27744" data-name="Trazado 27744" d="M1326.062,1991.916v8.715l-2.98-.59-4.034-.815,3.964-7.913Z" transform="translate(-1319.048 -1991.312)" fill="#ef6c00"/>
          </g>
        </g>
        <g id="Grupo_17433" data-name="Grupo 17433" transform="translate(0 67.972)">
          <g id="Grupo_17432" data-name="Grupo 17432">
            <path id="Trazado_27745" data-name="Trazado 27745" d="M1254.545,2033.133h-9.839v-5.988a9.869,9.869,0,0,1,5.622-8.9,10.423,10.423,0,0,1,2.291-.759l3.584-.717,3.964,7.927,4.216,8.433Z" transform="translate(-1244.706 -2016.772)" fill="#cddc39"/>
          </g>
        </g>
        <g id="Grupo_17435" data-name="Grupo 17435" transform="translate(19.678 67.972)">
          <g id="Grupo_17434" data-name="Grupo 17434">
            <path id="Trazado_27746" data-name="Trazado 27746" d="M1288.49,2018.248a9.869,9.869,0,0,1,5.622,8.9v5.988h-19.678l4.217-8.433,3.964-7.927,3.584.717a10.413,10.413,0,0,1,2.292.759Z" transform="translate(-1274.434 -2016.772)" fill="#cddc39"/>
          </g>
        </g>
        <g id="Grupo_17436" data-name="Grupo 17436" transform="translate(15.461 75.899)">
          <path id="Trazado_27747" data-name="Trazado 27747" d="M1276.5,2028.748l-4.217,8.433-4.217-8.433Z" transform="translate(-1268.064 -2028.748)" fill="#ffeaa7"/>
        </g>
        <g id="Grupo_17437" data-name="Grupo 17437" transform="translate(50.6)">
          <path id="Trazado_27748" data-name="Trazado 27748" d="M1332.394,1922.516l-1.363.338a5.65,5.65,0,0,0-4.259,5.285h-1.406a4.137,4.137,0,0,0-2.9,1.167v-.015l-.829-2.474a9.854,9.854,0,0,1-.492-3.064,9.693,9.693,0,0,1,9.67-9.67h8.771a9.67,9.67,0,0,1,9.67,9.67,9.833,9.833,0,0,1-.492,3.064l-.829,2.474a4.229,4.229,0,0,0-2.9-1.152h-1.405a2.819,2.819,0,0,0-2.811-2.811h-5.622a2.831,2.831,0,0,1-2.811-2.811Z" transform="translate(-1321.15 -1914.083)" fill="#b27946"/>
        </g>
        <g id="Grupo_17438" data-name="Grupo 17438" transform="translate(30.922 16.866)">
          <path id="Trazado_27749" data-name="Trazado 27749" d="M1302.666,1948l-1.364.337a5.652,5.652,0,0,0-4.259,5.285h-1.405a4.226,4.226,0,0,0-2.9,1.153l-.829-2.474a9.853,9.853,0,0,1-.492-3.064,9.693,9.693,0,0,1,9.67-9.67h8.771a8.023,8.023,0,0,1,1.434.126,9.672,9.672,0,0,1,8.208,8.953,4.2,4.2,0,0,1,.028.59,9.828,9.828,0,0,1-.492,3.064l-.829,2.474a4.226,4.226,0,0,0-2.9-1.153h-1.405a2.819,2.819,0,0,0-2.811-2.81h-5.622a2.832,2.832,0,0,1-2.811-2.811Z" transform="translate(-1291.422 -1939.564)" fill="#b27946"/>
        </g>
        <g id="Grupo_17439" data-name="Grupo 17439" transform="translate(5.622 33.733)">
          <path id="Trazado_27750" data-name="Trazado 27750" d="M1281.311,1991.751v9.009a10.42,10.42,0,0,0-2.291-.759l-3.584-.717-.717-.14a2.827,2.827,0,0,1-2.207-2.207l-.984-4.933-.014-.014a8.376,8.376,0,0,0,4.175-7.267V1979.1a2.819,2.819,0,0,0-2.811-2.811h-5.622a2.832,2.832,0,0,1-2.811-2.811l-1.363.338a5.634,5.634,0,0,0-4.259,5.453v5.454a8.355,8.355,0,0,0,2.474,5.96,7.725,7.725,0,0,0,1.7,1.307l-.014.014-.984,4.933a2.828,2.828,0,0,1-2.207,2.207l-.717.14-3.584.717a10.431,10.431,0,0,0-2.291.759V1979.1a14.056,14.056,0,0,1,28.111,0v12.65Z" transform="translate(-1253.2 -1965.045)" fill="#656d78"/>
        </g>
        <g id="Grupo_17440" data-name="Grupo 17440" transform="translate(72.611 14.055)">
          <path id="Trazado_27751" data-name="Trazado 27751" d="M1359.266,1942.513a4.206,4.206,0,0,1-2.98,1.237H1354.4a8.492,8.492,0,0,0,.478-2.811v-5.623h1.405a4.214,4.214,0,0,1,2.98,7.2Z" transform="translate(-1354.403 -1935.317)" fill="#f0d0b4"/>
        </g>
        <g id="Grupo_17441" data-name="Grupo 17441" transform="translate(57.712 25.946)">
          <path id="Trazado_27752" data-name="Trazado 27752" d="M1333.215,1953.871a4.216,4.216,0,0,0-.028-.59h.014a8.371,8.371,0,0,0,5.636,2.165,8.267,8.267,0,0,0,4.259-1.167l.014.014,1.35,6.775-5.622,2.811-5.918-2.965h-.014a3.9,3.9,0,0,0-1.012-1.5l.829-2.474a9.835,9.835,0,0,0,.492-3.064Z" transform="translate(-1331.894 -1953.281)" fill="#f0d0b4"/>
        </g>
        <g id="Grupo_17442" data-name="Grupo 17442" transform="translate(56.208 8.433)">
          <path id="Trazado_27753" data-name="Trazado 27753" d="M1346.5,1932.445v5.622a8.372,8.372,0,0,1-4.175,7.266,8.267,8.267,0,0,1-4.259,1.167,8.371,8.371,0,0,1-5.636-2.165h-.014a9.49,9.49,0,0,0-2.8-6.212l.015-.014v-5.665a5.65,5.65,0,0,1,4.259-5.285l1.363-.337a2.831,2.831,0,0,0,2.811,2.811h5.622a2.819,2.819,0,0,1,2.811,2.811Z" transform="translate(-1329.622 -1926.823)" fill="#f0d0b4"/>
        </g>
        <g id="Grupo_17443" data-name="Grupo 17443" transform="translate(50.796 14.055)">
          <path id="Trazado_27754" data-name="Trazado 27754" d="M1326.873,1940.939v.042l-.015.014a9.406,9.406,0,0,0-5.411-2.741v-.014a4.293,4.293,0,0,1,1.125-1.757,4.137,4.137,0,0,1,2.9-1.167h1.406v5.623Z" transform="translate(-1321.447 -1935.317)" fill="#f0d0b4"/>
        </g>
        <g id="Grupo_17444" data-name="Grupo 17444" transform="translate(39.355 43.811)">
          <path id="Trazado_27755" data-name="Trazado 27755" d="M1314.057,1980.285l1.35,6.774-5.622,2.811-5.622-2.811,1.35-6.774.014-.015a8.354,8.354,0,0,0,8.518,0Z" transform="translate(-1304.162 -1980.27)" fill="#f0d0b4"/>
        </g>
        <g id="Grupo_17445" data-name="Grupo 17445" transform="translate(52.933 30.922)">
          <path id="Trazado_27756" data-name="Trazado 27756" d="M1329.538,1967.994a4.206,4.206,0,0,1-2.98,1.237h-1.883a8.5,8.5,0,0,0,.478-2.811V1960.8h1.405a4.226,4.226,0,0,1,2.9,1.153,3.891,3.891,0,0,1,1.012,1.5,4.108,4.108,0,0,1,.309,1.56,4.2,4.2,0,0,1-.857,2.544,3.628,3.628,0,0,1-.379.436Z" transform="translate(-1324.675 -1960.798)" fill="#f0d0b4"/>
        </g>
        <g id="Grupo_17446" data-name="Grupo 17446" transform="translate(36.544 25.3)">
          <path id="Trazado_27757" data-name="Trazado 27757" d="M1316.782,1957.927v5.622a8.371,8.371,0,0,1-4.175,7.266,8.353,8.353,0,0,1-8.517,0,7.723,7.723,0,0,1-1.7-1.307,8.351,8.351,0,0,1-2.474-5.96v-5.622a5.652,5.652,0,0,1,4.259-5.285l1.364-.337a2.832,2.832,0,0,0,2.811,2.811h5.622a2.819,2.819,0,0,1,2.811,2.811Z" transform="translate(-1299.915 -1952.305)" fill="#f0d0b4"/>
        </g>
        <g id="Grupo_17447" data-name="Grupo 17447" transform="translate(30.922 30.922)">
          <path id="Trazado_27758" data-name="Trazado 27758" d="M1297.044,1966.42a8.5,8.5,0,0,0,.478,2.811h-1.883a4.217,4.217,0,0,1,0-8.434h1.405v5.622Z" transform="translate(-1291.422 -1960.798)" fill="#f0d0b4"/>
        </g>
        <g id="Grupo_17448" data-name="Grupo 17448" transform="translate(11.498 60.678)">
          <path id="Trazado_27759" data-name="Trazado 27759" d="M1278.437,2013.046l-3.964,7.927h-8.434l-3.964-7.927.717-.14A2.828,2.828,0,0,0,1265,2010.7l.984-4.933.014-.014a8.359,8.359,0,0,0,8.517,0l.014.014.984,4.933a2.827,2.827,0,0,0,2.207,2.207Z" transform="translate(-1262.076 -2005.752)" fill="#f0d0b4"/>
        </g>
        <g id="Grupo_17449" data-name="Grupo 17449" transform="translate(11.245 42.166)">
          <path id="Trazado_27760" data-name="Trazado 27760" d="M1278.56,1983.408v5.622a8.376,8.376,0,0,1-4.175,7.267,8.358,8.358,0,0,1-8.518,0,7.731,7.731,0,0,1-1.7-1.307,8.356,8.356,0,0,1-2.474-5.96v-5.453a5.634,5.634,0,0,1,4.259-5.453l1.363-.338a2.832,2.832,0,0,0,2.811,2.811h5.622A2.819,2.819,0,0,1,1278.56,1983.408Z" transform="translate(-1261.694 -1977.786)" fill="#f0d0b4"/>
        </g>
      </g>
      <g id="Grupo_17451" data-name="Grupo 17451">
        <path id="Trazado_27761" data-name="Trazado 27761" d="M1340.23,1945.216a1.407,1.407,0,0,1-1.405-1.405h-2.811a4.216,4.216,0,1,0,8.433,0h-2.81A1.408,1.408,0,0,1,1340.23,1945.216Z" transform="translate(-1274.17 -1922.727)" fill="#00223d"/>
        <path id="Trazado_27762" data-name="Trazado 27762" d="M1320.688,1946.949l-5.229-1.046-.991-4.95a9.893,9.893,0,0,0,3.05-3.694h.965a5.628,5.628,0,0,0,5.622-5.622,5.558,5.558,0,0,0-1.146-3.364l.578-1.73a11.082,11.082,0,0,0-10.512-14.584h-8.763a11.082,11.082,0,0,0-10.512,14.584l.569,1.706a5.673,5.673,0,0,0-.388.606c-.194-.01-.386-.029-.584-.029h-8.763a11.081,11.081,0,0,0-10.512,14.583l.578,1.73a5.563,5.563,0,0,0-1.146,3.364,5.666,5.666,0,0,0,.081.807,15.447,15.447,0,0,0-25.381,11.843v20.83a11.275,11.275,0,0,0-5.622,9.725v7.394h78.71v-5.622a5.629,5.629,0,0,0,5.622-5.622v-2.811a2.814,2.814,0,0,0,2.811-2.811v-24.263a11.274,11.274,0,0,0-9.039-11.025Zm-13.45,49.343h-5.622v-16.866H1298.8v16.866h-8.433v-14.308l6.817-1.363,1.152-5.757,3.275.655v-8.606a8.446,8.446,0,0,1,5.622,7.929Zm-33.734-5.622v1.074a11.959,11.959,0,0,1-.923,4.548h-6.64l6.681-13.361,2.538.508a8.455,8.455,0,0,1,6.777,8.269v4.584h-6.366a14.774,14.774,0,0,0,.743-4.548v-1.074Zm-9.839-16.866a7.036,7.036,0,0,1-7.028-7.028v-5.449a4.21,4.21,0,0,1,3.174-4.085,4.222,4.222,0,0,0,3.854,2.506h5.622a1.406,1.406,0,0,1,1.405,1.406v5.622a7.035,7.035,0,0,1-7.027,7.028Zm-3.876,5.466.642-3.212a9.68,9.68,0,0,0,6.468,0l.643,3.212a4.2,4.2,0,0,0,2.288,2.955l-2.817,5.634h-6.7l-2.816-5.634a4.2,4.2,0,0,0,2.288-2.955Zm5.819,11.4-1.943,3.885-1.942-3.885Zm13.518-44.978v4.216a9.855,9.855,0,0,0,.113,1.406h-.113a2.811,2.811,0,0,1,0-5.623Zm0,8.433h.963a9.9,9.9,0,0,0,3.05,3.694l-.991,4.951-3.022.6v-2.221a15.37,15.37,0,0,0-1.875-7.374,5.534,5.534,0,0,0,1.875.346Zm19.677-4.217v-4.216a2.811,2.811,0,0,1,0,5.623h-.113A9.855,9.855,0,0,0,1298.8,1949.909Zm0-21.083v1.449a10.989,10.989,0,0,0-1.765-.8A2.785,2.785,0,0,1,1298.8,1928.826Zm8.026,21.748-1.532,3.577-1.532-3.057a5.556,5.556,0,0,0,.578-1.763Zm7.632-2,.294.059-2.767,5.521-1.534-3.577Zm-35.335,17.67.867-.173,2.664,5.314-3.531.706Zm9.839-6.493a9.788,9.788,0,0,0,3.234-.557l.8,4-4.034,2.017-4.034-2.017.8-4A9.789,9.789,0,0,0,1288.966,1959.748Zm-1.7,14.557,1.7-3.962,1.7,3.962-1.7,3.388Zm5.045-3.288-1.534-3.577,4.006-2,.294.059Zm-9.167-5.58,4.007,2-1.534,3.577-2.768-5.521Zm.818,8.55,2.457,4.9-3.288-.658-.784-3.92Zm10,0,1.615.323-.784,3.92-3.287.658Zm1.306-2.6,2.664-5.314.867.173v5.847Zm5.136-7.687-4.627-.926-.991-4.952a9.978,9.978,0,0,0,1.2-1.037v1.869l3.277-.655Zm6.536-6.258,1.7-3.962,1.7,3.962-1.7,3.389Zm-5.226-4.151.615,1.228-3.531.707v-1.1A5.554,5.554,0,0,0,1301.72,1953.287Zm1.922,3.834,2.455,4.9-3.286-.658-.784-3.92Zm-7.648-7.212a7.028,7.028,0,1,1-14.055,0v-5.449a4.212,4.212,0,0,1,3.174-4.086,4.223,4.223,0,0,0,3.854,2.507h5.622a1.407,1.407,0,0,1,1.405,1.405Zm-16.866,32.075v-7.027l.465-.093,1.152,5.757,6.816,1.363v14.308h-2.811v-4.584A11.273,11.273,0,0,0,1279.127,1981.984Zm22.918-17.906,5.193,1.039v2.315a11.23,11.23,0,0,0-5.193-3.354Zm11.6-6.956,1.615.323-.784,3.918-3.287.658Zm1.306-2.606,2.664-5.316.867.174v5.849Zm-2.274-8.2-4.033,2.017-4.89-2.444a5.722,5.722,0,0,0-.473-.753l.578-1.73a11.009,11.009,0,0,0,.386-1.568,9.758,9.758,0,0,0,7.632.483Zm2.994-13.278a6.994,6.994,0,0,1-11.334,5.518,11.031,11.031,0,0,0-2.721-6.006v-4.963a4.208,4.208,0,0,1,3.181-4.086,4.215,4.215,0,0,0,3.847,2.51h5.622a1.407,1.407,0,0,1,1.405,1.405Zm2.811,1.405h-.113a9.836,9.836,0,0,0,.113-1.405v-4.216a2.811,2.811,0,1,1,0,5.622Zm-14.22-19.678h8.763a8.269,8.269,0,0,1,7.844,10.883l-.261.784a5.6,5.6,0,0,0-2.125-.423h-.259a4.21,4.21,0,0,0-3.958-2.811h-5.622a1.406,1.406,0,0,1,0-2.811h1.406v-2.811h-1.406a4.21,4.21,0,0,0-4.04,3.075l-.475.12a7,7,0,0,0-5.123,5.24h-.2a5.594,5.594,0,0,0-2.122.432l-.264-.792a8.269,8.269,0,0,1,7.844-10.886Zm-19.678,16.866h8.763a8.269,8.269,0,0,1,7.844,10.883l-.262.784a5.612,5.612,0,0,0-2.125-.423h-.259a4.211,4.211,0,0,0-3.958-2.811h-5.622a1.406,1.406,0,0,1,0-2.811h1.406v-2.811h-1.406a4.224,4.224,0,0,0-4.061,3.081l-.453.114a7,7,0,0,0-5.124,5.24h-.2a5.609,5.609,0,0,0-2.125.423l-.261-.784a8.27,8.27,0,0,1,7.844-10.885Zm-33.568,29.517a12.65,12.65,0,0,1,25.3,0v19.679c-.2-.052-.4-.109-.606-.149l-4.309-.862a1.4,1.4,0,0,1-1.1-1.1l-.807-4.031a9.823,9.823,0,0,0,4.014-7.912v-5.622a4.222,4.222,0,0,0-4.217-4.217h-5.622a1.406,1.406,0,0,1,0-2.811h1.406v-2.81h-1.406a4.222,4.222,0,0,0-4.06,3.08l-.454.114a7.017,7.017,0,0,0-5.324,6.817v5.449a9.82,9.82,0,0,0,4.013,7.911l-.807,4.031a1.4,1.4,0,0,1-1.1,1.1l-4.308.862c-.205.042-.405.1-.606.15Zm-5.622,30.554a8.454,8.454,0,0,1,6.779-8.269l2.538-.508,6.681,13.361h-6.642a11.959,11.959,0,0,1-.923-4.548v-1.074h-2.811v1.074a14.775,14.775,0,0,0,.744,4.548h-6.366Zm64.655,4.584v-14.055h8.433v14.055Zm14.055-8.433a2.814,2.814,0,0,1-2.811,2.811v-5.622h2.811Zm2.811-5.622h-5.622v-19.678h-2.811v16.866h-8.433v-14.308l6.817-1.364,1.152-5.757,3.275.655v-8.606a8.447,8.447,0,0,1,5.622,7.93Z" transform="translate(-1242.583 -1911.959)" fill="#00223d"/>
        <path id="Trazado_27763" data-name="Trazado 27763" d="M1348.754,2005.391h2.811v2.811h-2.811Z" transform="translate(-1278.477 -1943.546)" fill="#00223d"/>
        <path id="Trazado_27764" data-name="Trazado 27764" d="M1348.754,1996.9h2.811v2.811h-2.811Z" transform="translate(-1278.477 -1940.675)" fill="#00223d"/>
        <path id="Trazado_27765" data-name="Trazado 27765" d="M1310.5,1970.7a1.408,1.408,0,0,1-1.405-1.406h-2.811a4.216,4.216,0,1,0,8.433,0h-2.811A1.408,1.408,0,0,1,1310.5,1970.7Z" transform="translate(-1264.12 -1931.342)" fill="#00223d"/>
        <path id="Trazado_27766" data-name="Trazado 27766" d="M1272.281,1996.179a1.407,1.407,0,0,1-1.405-1.406h-2.811a4.217,4.217,0,1,0,8.433,0h-2.811A1.408,1.408,0,0,1,1272.281,1996.179Z" transform="translate(-1251.198 -1939.957)" fill="#00223d"/>
        <path id="Trazado_27767" data-name="Trazado 27767" d="M1319.026,2030.872h2.811v2.811h-2.811Z" transform="translate(-1268.427 -1952.161)" fill="#00223d"/>
        <path id="Trazado_27768" data-name="Trazado 27768" d="M1319.026,2022.378h2.811v2.811h-2.811Z" transform="translate(-1268.427 -1949.289)" fill="#00223d"/>
      </g>
    </g>
    <g id="Grupo_17460" data-name="Grupo 17460" transform="translate(625 2046)">
      <g id="Grupo_17343" data-name="Grupo 17343" transform="translate(0 560)">
        <g id="Grupo_17342" data-name="Grupo 17342">
          <g id="Grupo_17335" data-name="Grupo 17335" transform="translate(0 1019)">
            <rect id="Rectángulo_4354" data-name="Rectángulo 4354" width="113" height="113" transform="translate(378 5412)" fill="none"/>
          </g>
        </g>
      </g>
    </g>
  </g>
</svg>
