<svg xmlns="http://www.w3.org/2000/svg" width="113" height="113" viewBox="0 0 113 113">
  <g id="Grupo_17461" data-name="Grupo 17461" transform="translate(-768 -9038)">
    <g id="Grupo_17405" data-name="Grupo 17405" transform="translate(781 9051)">
      <g id="Grupo_17403" data-name="Grupo 17403" transform="translate(1.406 1.405)">
        <g id="Grupo_17385" data-name="Grupo 17385" transform="translate(0 18.269)">
          <path id="Trazado_27704" data-name="Trazado 27704" d="M1101.523,1962.082a5.56,5.56,0,0,1,.886,3.022,5.631,5.631,0,1,1-.886-3.022Z" transform="translate(-1091.166 -1959.483)" fill="#fcd770"/>
        </g>
        <g id="Grupo_17386" data-name="Grupo 17386" transform="translate(15.459 8.432)">
          <path id="Trazado_27705" data-name="Trazado 27705" d="M1119.5,1945.031a5.62,5.62,0,0,1,5.621,5.621,5.323,5.323,0,0,1-.3,1.771,5.617,5.617,0,1,1-5.326-7.392Z" transform="translate(-1113.876 -1945.031)" fill="#fcd770"/>
        </g>
        <g id="Grupo_17387" data-name="Grupo 17387" transform="translate(30.917 12.648)">
          <path id="Trazado_27706" data-name="Trazado 27706" d="M1150.638,1958.252a7.126,7.126,0,0,1-1.166,3.892h-.014a7.024,7.024,0,0,1-12.873-3.892,7.284,7.284,0,0,1,.351-2.221h.015a7.023,7.023,0,0,1,13.688,2.221Z" transform="translate(-1136.585 -1951.225)" fill="#fcd770"/>
        </g>
        <g id="Grupo_17388" data-name="Grupo 17388" transform="translate(50.592 26.701)">
          <path id="Trazado_27707" data-name="Trazado 27707" d="M1172.333,1972.8a4.165,4.165,0,0,1,1.588,3.289,4.216,4.216,0,0,1-8.432,0,4.3,4.3,0,0,1,.7-2.333,4.206,4.206,0,0,1,6.141-.956Z" transform="translate(-1165.489 -1971.87)" fill="#fcd770"/>
        </g>
        <g id="Grupo_17389" data-name="Grupo 17389" transform="translate(61.835)">
          <path id="Trazado_27708" data-name="Trazado 27708" d="M1191.842,1932.644a9.838,9.838,0,0,1,0,19.675,9.669,9.669,0,0,1-6.141-2.165,9.83,9.83,0,0,1,6.141-17.51Z" transform="translate(-1182.005 -1932.644)" fill="#ffc729"/>
        </g>
        <g id="Grupo_17390" data-name="Grupo 17390" transform="translate(67.456 5.621)">
          <circle id="Elipse_1040" data-name="Elipse 1040" cx="4.216" cy="4.216" r="4.216" fill="#fcd770"/>
        </g>
        <g id="Grupo_17391" data-name="Grupo 17391" transform="translate(16.864 25.296)">
          <path id="Trazado_27709" data-name="Trazado 27709" d="M1124.372,1969.806v17.285a21.3,21.3,0,0,0-8.432,0v-17.285Z" transform="translate(-1115.94 -1969.806)" fill="#ffeaa7"/>
        </g>
        <g id="Grupo_17392" data-name="Grupo 17392" transform="translate(33.714 32.323)">
          <path id="Trazado_27710" data-name="Trazado 27710" d="M1149.14,1980.128v25.3h-.758a19.441,19.441,0,0,0-.843-2.445,21.157,21.157,0,0,0-4.581-6.83,21.7,21.7,0,0,0-2.263-1.968l.014-.014v-14.04Z" transform="translate(-1140.694 -1980.128)" fill="#ffeaa7"/>
        </g>
        <g id="Grupo_17393" data-name="Grupo 17393" transform="translate(50.592 40.755)">
          <path id="Trazado_27711" data-name="Trazado 27711" d="M1165.489,1992.515h8.432v16.864h-8.432Z" transform="translate(-1165.489 -1992.515)" fill="#ffeaa7"/>
        </g>
        <g id="Grupo_17394" data-name="Grupo 17394" transform="translate(67.456 25.296)">
          <path id="Trazado_27712" data-name="Trazado 27712" d="M1198.695,1969.806v33.376l-2.81-1.054h-5.621v-32.322Z" transform="translate(-1190.263 -1969.806)" fill="#ffeaa7"/>
        </g>
        <g id="Grupo_17395" data-name="Grupo 17395" transform="translate(47.781 63.24)">
          <path id="Trazado_27713" data-name="Trazado 27713" d="M1161.36,2025.548h25.3v5.621h-25.3Z" transform="translate(-1161.36 -2025.548)" fill="#ff826e"/>
        </g>
        <g id="Grupo_17396" data-name="Grupo 17396" transform="translate(47.781 57.618)">
          <path id="Trazado_27714" data-name="Trazado 27714" d="M1164.17,2017.289h22.485v5.622h-25.3v-5.622Z" transform="translate(-1161.36 -2017.289)" fill="#b4dd7f"/>
        </g>
        <g id="Grupo_17397" data-name="Grupo 17397" transform="translate(73.077 57.618)">
          <path id="Trazado_27715" data-name="Trazado 27715" d="M1208.442,2021.013a2.023,2.023,0,0,1,0,3.795l-9.922,3.724v-11.243l2.811,1.054Z" transform="translate(-1198.521 -2017.289)" fill="#aab2bd"/>
        </g>
        <g id="Grupo_17398" data-name="Grupo 17398" transform="translate(41.401 57.618)">
          <path id="Trazado_27716" data-name="Trazado 27716" d="M1152.745,2017.289h5.622v11.243h-6.38a21.211,21.211,0,0,0,0-11.243Z" transform="translate(-1151.987 -2017.289)" fill="#aab2bd"/>
        </g>
        <g id="Grupo_17399" data-name="Grupo 17399" transform="translate(0 47.781)">
          <path id="Trazado_27717" data-name="Trazado 27717" d="M1127.7,2018.3h5.621a21.08,21.08,0,0,1-42.159,0h5.621a15.57,15.57,0,0,1,1.167-5.917h.014a15.38,15.38,0,0,1,8.362-8.362V2004a15.591,15.591,0,0,1,11.833,0v.014a15.371,15.371,0,0,1,8.362,8.362h.014A15.579,15.579,0,0,1,1127.7,2018.3Z" transform="translate(-1091.166 -2002.838)" fill="#69d6f4"/>
        </g>
        <g id="Grupo_17400" data-name="Grupo 17400" transform="translate(0 42.16)">
          <path id="Trazado_27718" data-name="Trazado 27718" d="M1132.567,2010.038a19.434,19.434,0,0,0-.843-2.445,21.153,21.153,0,0,0-4.581-6.83,21.714,21.714,0,0,0-2.262-1.968,20.706,20.706,0,0,0-4.568-2.614,21.043,21.043,0,0,0-3.851-1.18,21.3,21.3,0,0,0-8.432,0,21.079,21.079,0,0,0-16.864,20.659h5.621a15.571,15.571,0,0,1,1.167-5.917h.014a15.38,15.38,0,0,1,8.362-8.362v-.014a15.591,15.591,0,0,1,11.833,0v.014a15.371,15.371,0,0,1,8.362,8.362h.014a15.58,15.58,0,0,1,1.166,5.917h5.621a21.218,21.218,0,0,0-.758-5.622Z" transform="translate(-1091.166 -1994.58)" fill="#b4dd7f"/>
        </g>
        <g id="Grupo_17401" data-name="Grupo 17401" transform="translate(18.269 53.403)">
          <path id="Trazado_27719" data-name="Trazado 27719" d="M1123.626,2017.884v11.158a4.191,4.191,0,0,0-5.621,0v-11.158a9.605,9.605,0,0,1,2.811-6.788A9.608,9.608,0,0,1,1123.626,2017.884Z" transform="translate(-1118.005 -2011.096)" fill="#ff826e"/>
        </g>
        <g id="Grupo_17402" data-name="Grupo 17402" transform="translate(16.864 70.267)">
          <path id="Trazado_27720" data-name="Trazado 27720" d="M1122.967,2036.966a4.081,4.081,0,0,1,1.405,3.12,4.216,4.216,0,0,1-8.432,0,4.082,4.082,0,0,1,1.406-3.12v-.014a4.191,4.191,0,0,1,5.621,0Z" transform="translate(-1115.94 -2035.87)" fill="#ff826e"/>
        </g>
      </g>
      <g id="Grupo_17404" data-name="Grupo 17404">
        <path id="Trazado_27721" data-name="Trazado 27721" d="M1123.713,2016.948a10.919,10.919,0,0,0-3.222-7.778l-.993-.993-.994.993a10.924,10.924,0,0,0-3.222,7.778v10.616a5.566,5.566,0,0,0-1.4,3.679,5.621,5.621,0,1,0,9.837-3.679Zm-4.216-4.591a8.135,8.135,0,0,1,1.405,4.592v8.874a5.464,5.464,0,0,0-1.405-.2,5.521,5.521,0,0,0-1.406.2v-8.874A8.135,8.135,0,0,1,1119.5,2012.358Zm0,21.7a2.811,2.811,0,1,1,2.811-2.811A2.814,2.814,0,0,1,1119.5,2034.055Z" transform="translate(-1097.011 -1955.356)" fill="#00223d"/>
        <path id="Trazado_27722" data-name="Trazado 27722" d="M1174,2003.875l-6.2-2.326v-33.808h-11.243v32.323h-5.621V1983.2h-11.242v16.864h-5.621v-25.3h-11.243v12.88a22.337,22.337,0,0,0-5.621-2.3v-17.6h-11.243v17.6a22.472,22.472,0,1,0,26.967,28.771h30.906L1174,2010.3a3.433,3.433,0,0,0,0-6.429Zm-34.311-1h22.485v2.811h-22.485Zm0,5.621h22.485v2.811h-22.485Zm19.674-37.944h5.621V2000.5l-1.15-.431h-4.471ZM1142.5,1986.01h5.621v14.053H1142.5Zm-45.893,13.355-2.6-1.075a19.7,19.7,0,0,1,2.721-4.066l1.991,1.991A16.919,16.919,0,0,0,1096.611,1999.365Zm-1.073,2.6a16.717,16.717,0,0,0-.756,3.722h-2.8a19.521,19.521,0,0,1,.947-4.8Zm5.177-7.732-1.993-1.992a19.721,19.721,0,0,1,4.066-2.721l1.072,2.589A16.829,16.829,0,0,0,1100.715,1994.231Zm5.743-3.194-1.077-2.6a19.538,19.538,0,0,1,4.8-.947v2.806A16.728,16.728,0,0,0,1106.458,1991.037Zm6.534-3.55a19.537,19.537,0,0,1,4.8.947l-1.078,2.6a16.726,16.726,0,0,0-3.723-.744Zm7.4,2.031a19.719,19.719,0,0,1,4.065,2.721l-1.992,1.992a16.946,16.946,0,0,0-3.146-2.124Zm6.052,4.708a19.7,19.7,0,0,1,2.72,4.066l-2.6,1.075a16.9,16.9,0,0,0-2.115-3.148Zm3.8,6.657a19.521,19.521,0,0,1,.948,4.8h-2.8a16.636,16.636,0,0,0-.758-3.722Zm-4.6-23.3h5.621v18.65a22.633,22.633,0,0,0-5.621-6.663Zm-16.864-7.027h5.621V1984.8a20.309,20.309,0,0,0-5.621,0Zm2.811,56.214a19.685,19.685,0,0,1-19.6-18.269h5.55v-1.405a14.053,14.053,0,1,1,28.107,0v1.405h5.55a19.686,19.686,0,0,1-19.6,18.269Zm22.075-23.891h3.221v8.432h-3.221a21.848,21.848,0,0,0,0-8.432Zm39.355,4.8-8.028,3.01V2003.5l8.026,3.009a.623.623,0,0,1,0,1.167Z" transform="translate(-1089.101 -1942.445)" fill="#00223d"/>
        <path id="Trazado_27723" data-name="Trazado 27723" d="M1193.819,1950.081a5.621,5.621,0,1,0-5.621-5.621A5.627,5.627,0,0,0,1193.819,1950.081Zm0-8.432a2.811,2.811,0,1,1-2.811,2.81A2.813,2.813,0,0,1,1193.819,1941.649Z" transform="translate(-1120.742 -1933.217)" fill="#00223d"/>
        <path id="Trazado_27724" data-name="Trazado 27724" d="M1096.128,1962.9a7.035,7.035,0,0,0,7.027-7.027,6.964,6.964,0,0,0-.481-2.5l3.87-2.463a6.972,6.972,0,0,0,11.1-1.374l2.484.829a8.35,8.35,0,0,0-.11,1.293,8.421,8.421,0,0,0,14.56,5.775l5.448,3.632a5.536,5.536,0,0,0-.334,1.836,5.621,5.621,0,1,0,10.106-3.354l6.519-8.149a11.23,11.23,0,1,0-2.2-1.753l-6.509,8.138a5.516,5.516,0,0,0-6.025.943l-5.444-3.63a8.426,8.426,0,0,0-15.131-7.4l-2.482-.828a6.764,6.764,0,0,0,.084-.834,7.027,7.027,0,0,0-14.053,0,6.945,6.945,0,0,0,.481,2.5l-3.87,2.463a7.021,7.021,0,1,0-5.043,11.9Zm66.05-29.512a8.432,8.432,0,1,1-8.432,8.432A8.44,8.44,0,0,1,1162.178,1933.39Zm-16.864,26.7a2.811,2.811,0,1,1-2.811,2.811A2.813,2.813,0,0,1,1145.314,1960.092Zm-16.864-14.054a5.622,5.622,0,1,1-5.621,5.622A5.627,5.627,0,0,1,1128.451,1946.038Zm-16.864-4.216a4.216,4.216,0,1,1-4.216,4.216A4.221,4.221,0,0,1,1111.587,1941.822Zm-15.459,9.838a4.216,4.216,0,1,1-4.216,4.216A4.221,4.221,0,0,1,1096.128,1951.66Z" transform="translate(-1089.101 -1930.58)" fill="#00223d"/>
      </g>
    </g>
    <g id="Grupo_17459" data-name="Grupo 17459" transform="translate(390 2047)">
      <g id="Grupo_17343" data-name="Grupo 17343" transform="translate(0 560)">
        <g id="Grupo_17342" data-name="Grupo 17342">
          <g id="Grupo_17335" data-name="Grupo 17335" transform="translate(0 1019)">
            <rect id="Rectángulo_4354" data-name="Rectángulo 4354" width="113" height="113" transform="translate(378 5412)" fill="none"/>
          </g>
        </g>
      </g>
    </g>
  </g>
</svg>
