<svg xmlns="http://www.w3.org/2000/svg" width="113" height="113" viewBox="0 0 113 113">
  <g id="Grupo_17798" data-name="Grupo 17798" transform="translate(-2319 4454)">
    <g id="Grupo_17790" data-name="Grupo 17790" transform="translate(-0.781 -4697.16)">
      <path id="Trazado_28357" data-name="Trazado 28357" d="M2348.175,325.372v4.871h-9.741a2.436,2.436,0,0,1,0-4.871Z" fill="#aa6f51"/>
      <path id="Trazado_28358" data-name="Trazado 28358" d="M2348.175,269.2v4.87h-9.741a2.435,2.435,0,1,1,0-4.87Z" fill="#aa6f51"/>
      <path id="Trazado_28359" data-name="Trazado 28359" d="M2397.2,276.587h-20.862v46.269H2397.2V276.587Z" fill="#ffd478"/>
      <path id="Trazado_28360" data-name="Trazado 28360" d="M2392.334,276.587h-36.853v46.269h36.853V296.069l-4.871-6.089,4.871-6.088Z" fill="#ffe7ad"/>
      <path id="Trazado_28361" data-name="Trazado 28361" d="M2392.334,296.069h-4.871l-7.3-7.306,12.176,2.435Z" fill="#ffa061"/>
      <path id="Trazado_28362" data-name="Trazado 28362" d="M2387.463,296.069h-27.112V291.2l2.435-2.435h24.677Z" fill="#ffbb6e"/>
      <path id="Trazado_28363" data-name="Trazado 28363" d="M2392.334,291.2h-4.871l-4.87-3.653,4.87-3.653h4.871Z" fill="#597dcf"/>
      <path id="Trazado_28364" data-name="Trazado 28364" d="M2360.351,283.892h27.112V291.2h-27.112Z" fill="#6a90e7"/>
      <path id="Trazado_28365" data-name="Trazado 28365" d="M2404.51,279.022H2397.2l-4.87-7.387,4.87-7.387h7.306Z" fill="#ffe7ad"/>
      <path id="Trazado_28366" data-name="Trazado 28366" d="M2348.175,264.248H2397.2v14.774h-49.029Z" fill="#fff2d4"/>
      <path id="Trazado_28367" data-name="Trazado 28367" d="M2414.251,325.372h-4.871v4.871h4.871a2.436,2.436,0,0,0,0-4.871Z" fill="#995e49"/>
      <path id="Trazado_28368" data-name="Trazado 28368" d="M2411.816,327.808a2.436,2.436,0,0,0-2.436-2.436h-4.87v4.871h4.87A2.436,2.436,0,0,0,2411.816,327.808Z" fill="#aa6f51"/>
      <path id="Trazado_28369" data-name="Trazado 28369" d="M2404.51,335.2H2397.2l-4.87-7.387,4.87-7.387h7.306Z" fill="#ffe7ad"/>
      <path id="Trazado_28370" data-name="Trazado 28370" d="M2348.175,320.421H2397.2V335.2h-49.029Z" fill="#fff2d4"/>
      <path id="Trazado_28371" data-name="Trazado 28371" d="M2345.74,259.378v24.514a4.87,4.87,0,0,0,4.87-4.87V264.248A4.87,4.87,0,0,0,2345.74,259.378Z" fill="#ffa061"/>
      <path id="Trazado_28372" data-name="Trazado 28372" d="M2345.74,315.55v24.515a4.87,4.87,0,0,0,4.87-4.87V320.421A4.871,4.871,0,0,0,2345.74,315.55Z" fill="#ffa061"/>
      <path id="Trazado_28373" data-name="Trazado 28373" d="M2414.251,269.2h-4.871v4.87h4.871a2.435,2.435,0,1,0,0-4.87Z" fill="#995e49"/>
      <path id="Trazado_28374" data-name="Trazado 28374" d="M2411.816,271.635a2.436,2.436,0,0,0-2.436-2.435h-4.87v4.87h4.87A2.436,2.436,0,0,0,2411.816,271.635Z" fill="#aa6f51"/>
      <path id="Trazado_28375" data-name="Trazado 28375" d="M2406.945,259.378v24.514a4.869,4.869,0,0,1-4.87-4.87V264.248A4.87,4.87,0,0,1,2406.945,259.378Z" fill="#ffa061"/>
      <path id="Trazado_28376" data-name="Trazado 28376" d="M2406.945,315.55v24.515a4.869,4.869,0,0,1-4.87-4.87V320.421A4.87,4.87,0,0,1,2406.945,315.55Z" fill="#ffa061"/>
      <path id="Trazado_28377" data-name="Trazado 28377" d="M2414.251,324.155h-6.088V315.55a1.217,1.217,0,0,0-1.218-1.217,6.1,6.1,0,0,0-5.965,4.87h-2.558V280.24h2.558a6.1,6.1,0,0,0,5.965,4.87,1.218,1.218,0,0,0,1.218-1.218v-8.6h6.088a3.653,3.653,0,1,0,0-7.306h-6.088v-8.6a1.218,1.218,0,0,0-1.218-1.218,6.1,6.1,0,0,0-5.965,4.871h-49.275a6.1,6.1,0,0,0-5.965-4.871,1.218,1.218,0,0,0-1.218,1.218v8.6h-6.088a3.653,3.653,0,1,0,0,7.306h6.088v8.6a1.218,1.218,0,0,0,1.218,1.218,6.1,6.1,0,0,0,5.965-4.87h2.558V319.2h-2.558a6.1,6.1,0,0,0-5.965-4.87,1.217,1.217,0,0,0-1.218,1.217v8.605h-6.088a3.653,3.653,0,1,0,0,7.306h6.088v8.6a1.218,1.218,0,0,0,1.218,1.218,6.1,6.1,0,0,0,5.965-4.871h49.274a6.1,6.1,0,0,0,5.966,4.871,1.218,1.218,0,0,0,1.218-1.218v-8.6h6.088a3.653,3.653,0,0,0,0-7.306Zm0-53.738a1.218,1.218,0,0,1,0,2.436h-6.088v-2.436Zm-75.817,2.436a1.218,1.218,0,1,1,0-2.436h6.088v2.436Zm10.958,6.169a3.658,3.658,0,0,1-2.435,3.444V260.8a3.658,3.658,0,0,1,2.435,3.444Zm-10.958,50a1.217,1.217,0,1,1,0-2.435h6.088v2.435Zm10.958,6.17a3.659,3.659,0,0,1-2.435,3.444V316.977a3.657,3.657,0,0,1,2.435,3.444Zm51.465-13.557v12.339h-49.029V321.638Zm2.435-57.39a3.659,3.659,0,0,1,2.435-3.444v21.662a3.659,3.659,0,0,1-2.435-3.444ZM2355.481,277.8h-3.653V265.466h49.029V277.8h-40.506a1.218,1.218,0,1,0,0,2.436h35.636V319.2H2356.7V279.022A1.217,1.217,0,0,0,2355.481,277.8Zm50.246,60.835a3.66,3.66,0,0,1-2.435-3.444V320.421a3.658,3.658,0,0,1,2.435-3.444Zm8.524-9.614h-6.088V326.59h6.088a1.217,1.217,0,0,1,0,2.435Z" fill="#00223d"/>
      <path id="Trazado_28378" data-name="Trazado 28378" d="M2360.351,297.286h31.983a1.217,1.217,0,0,0,1.217-1.217V283.892a1.217,1.217,0,0,0-1.217-1.217h-31.983a1.217,1.217,0,0,0-1.218,1.217v12.177A1.217,1.217,0,0,0,2360.351,297.286Zm1.218-2.435v-2.435h29.547v2.435Zm29.547-9.741v4.87h-29.547v-4.87Z" fill="#00223d"/>
      <path id="Trazado_28379" data-name="Trazado 28379" d="M2360.351,302.157h13.556a1.218,1.218,0,1,0,0-2.436h-13.556a1.218,1.218,0,1,0,0,2.436Z" fill="#00223d"/>
      <path id="Trazado_28380" data-name="Trazado 28380" d="M2392.334,299.721h-13.556a1.218,1.218,0,1,0,0,2.436h13.556a1.218,1.218,0,0,0,0-2.436Z" fill="#00223d"/>
      <path id="Trazado_28381" data-name="Trazado 28381" d="M2360.351,307.027h13.556a1.217,1.217,0,1,0,0-2.435h-13.556a1.217,1.217,0,1,0,0,2.435Z" fill="#00223d"/>
      <path id="Trazado_28382" data-name="Trazado 28382" d="M2392.334,304.592h-13.556a1.217,1.217,0,1,0,0,2.435h13.556a1.217,1.217,0,0,0,0-2.435Z" fill="#00223d"/>
      <path id="Trazado_28383" data-name="Trazado 28383" d="M2360.351,311.9h13.556a1.218,1.218,0,1,0,0-2.436h-13.556a1.218,1.218,0,1,0,0,2.436Z" fill="#00223d"/>
      <path id="Trazado_28384" data-name="Trazado 28384" d="M2392.334,309.462h-13.556a1.218,1.218,0,1,0,0,2.436h13.556a1.218,1.218,0,0,0,0-2.436Z" fill="#00223d"/>
      <path id="Trazado_28385" data-name="Trazado 28385" d="M2360.351,316.768h13.556a1.217,1.217,0,1,0,0-2.435h-13.556a1.217,1.217,0,1,0,0,2.435Z" fill="#00223d"/>
      <path id="Trazado_28386" data-name="Trazado 28386" d="M2392.334,314.333h-13.556a1.217,1.217,0,1,0,0,2.435h13.556a1.217,1.217,0,0,0,0-2.435Z" fill="#00223d"/>
    </g>
    <rect id="Rectángulo_4425" data-name="Rectángulo 4425" width="113" height="113" transform="translate(2319 -4454)" fill="none"/>
  </g>
</svg>
