<svg xmlns="http://www.w3.org/2000/svg" width="113" height="113" viewBox="0 0 113 113">
  <g id="Grupo_17801" data-name="Grupo 17801" transform="translate(-2448 4806)">
    <g id="Grupo_17789" data-name="Grupo 17789" transform="translate(41.149 -4948.486)">
      <g id="Grupo_17788" data-name="Grupo 17788">
        <g id="Grupo_17777" data-name="Grupo 17777">
          <path id="Trazado_28345" data-name="Trazado 28345" d="M2475.535,228.478h17.307V235.9h-17.307Z" fill="#5cd6b3"/>
        </g>
        <g id="Grupo_17778" data-name="Grupo 17778">
          <path id="Trazado_28346" data-name="Trazado 28346" d="M2433.5,228.478h17.307V235.9H2433.5Z" fill="#5cd6b3"/>
        </g>
        <g id="Grupo_17779" data-name="Grupo 17779">
          <path id="Trazado_28347" data-name="Trazado 28347" d="M2433.5,202.517V186.446a2.489,2.489,0,0,1,2.472-2.472,2.48,2.48,0,0,1,2.473,2.472v-2.472a2.465,2.465,0,0,1,2.139-2.435,15.658,15.658,0,0,0,2.806,4.907v.013a15.075,15.075,0,0,0,2.373,2.324l2.633,2.077,3.029,2.4,1.854,1.446v18.358a23.333,23.333,0,0,1-2.472,10.471v4.945H2433.5v-4.945l-3.424-4.117a12.36,12.36,0,0,1-2.856-7.417c-.3-6.824-1.137-14.427-1.137-14.427a1.239,1.239,0,0,1,1.236-1.236A6.183,6.183,0,0,1,2433.5,202.517Z" fill="#f0d0b4"/>
        </g>
        <g id="Grupo_17780" data-name="Grupo 17780">
          <path id="Trazado_28348" data-name="Trazado 28348" d="M2492.842,202.517a6.183,6.183,0,0,1,6.181-6.181,1.24,1.24,0,0,1,1.237,1.236s-.841,7.6-1.138,14.427a12.362,12.362,0,0,1-2.855,7.417l-3.425,4.117v4.945h-17.307v-4.945a23.337,23.337,0,0,1-2.472-10.471V194.7l1.854-1.446,3.029-2.4,2.633-2.077a15.091,15.091,0,0,0,2.374-2.324v-.013a15.677,15.677,0,0,0,2.806-4.907,2.465,2.465,0,0,1,2.138,2.435v2.472a2.48,2.48,0,0,1,2.473-2.472,2.489,2.489,0,0,1,2.472,2.472Z" fill="#f0d0b4"/>
        </g>
        <g id="Grupo_17781" data-name="Grupo 17781">
          <path id="Trazado_28349" data-name="Trazado 28349" d="M2486.661,176.2v.025a16.073,16.073,0,0,1-.9,5.316,15.677,15.677,0,0,1-2.806,4.907v.013a15.091,15.091,0,0,1-2.374,2.324l-2.633,2.077-3.029,2.4c-.259-.26-.593-.581-.927-.927a7.381,7.381,0,0,0-5.242-2.176h-1.866l-1.076-3.227a4.814,4.814,0,0,0,2.176-2.979l.087.025h1.446a2.213,2.213,0,0,0,1.632-.729,2.538,2.538,0,0,0,.68-1.743,2.5,2.5,0,0,0-.693-1.756l.693-2.534a4,4,0,0,0,.111-.94,3.857,3.857,0,0,0-2.547-3.634l-5.241-1.9a5.871,5.871,0,0,0-6.725,2l-.631.828a2.385,2.385,0,0,0-2.386,2.386,9.96,9.96,0,0,0,.408,2.5c.2.754.4,1.3.4,1.3a2.5,2.5,0,0,0-.692,1.756,2.533,2.533,0,0,0,.68,1.743,2.21,2.21,0,0,0,1.631.729h1.447l.086-.025a4.819,4.819,0,0,0,2.176,2.979l-1.075,3.227H2457.6a7.381,7.381,0,0,0-5.242,2.176c-.333.346-.667.667-.927.927l-3.029-2.4-2.633-2.077a15.075,15.075,0,0,1-2.373-2.324v-.013a15.658,15.658,0,0,1-2.806-4.907,16.048,16.048,0,0,1-.9-5.316V176.2a15.987,15.987,0,0,1,2.435-8.48,12.763,12.763,0,0,1,19.854-2.25l1.2,1.2,1.2-1.2a12.756,12.756,0,0,1,19.854,2.25,15.98,15.98,0,0,1,2.435,8.48Z" fill="#ff826e"/>
        </g>
        <g id="Grupo_17782" data-name="Grupo 17782">
          <path id="Trazado_28350" data-name="Trazado 28350" d="M2459.465,190.155l3.708,4.117,3.709-4.117h1.866a7.381,7.381,0,0,1,5.242,2.176c.334.346.668.667.927.927l-1.854,1.446v.013l-9.89,7.8-9.89-7.8V194.7l-1.854-1.446c.26-.26.594-.581.927-.927a7.381,7.381,0,0,1,5.242-2.176Z" fill="#fcd770"/>
        </g>
        <g id="Grupo_17783" data-name="Grupo 17783">
          <path id="Trazado_28351" data-name="Trazado 28351" d="M2460.342,176.557a4.628,4.628,0,0,0-1.9,2.534l-.21-.062h-1.4a2.217,2.217,0,0,0-1.619.717s-.2-.544-.4-1.3a9.96,9.96,0,0,1-.408-2.5,2.385,2.385,0,0,1,2.386-2.386l.631-.828a5.871,5.871,0,0,1,6.725-2l5.241,1.9a3.857,3.857,0,0,1,2.547,3.634,4,4,0,0,1-.111.94l-.693,2.534a2.217,2.217,0,0,0-1.619-.717h-1.4a14.611,14.611,0,0,1-5.217-1.236,23.42,23.42,0,0,1-2.559-1.236Z" fill="#656d78"/>
        </g>
        <g id="Grupo_17784" data-name="Grupo 17784">
          <path id="Trazado_28352" data-name="Trazado 28352" d="M2459.465,190.155l1.075-3.227a4.968,4.968,0,0,0,5.266,0l1.076,3.227-3.709,4.117Z" fill="#f0d0b4"/>
        </g>
        <g id="Grupo_17785" data-name="Grupo 17785">
          <path id="Trazado_28353" data-name="Trazado 28353" d="M2471.134,179.746a2.5,2.5,0,0,1,.693,1.756,2.538,2.538,0,0,1-.68,1.743,2.213,2.213,0,0,1-1.632.729h-1.446l-.087-.025a4.906,4.906,0,0,0,.136-1.137v-3.783h1.4a2.217,2.217,0,0,1,1.619.717Z" fill="#f0d0b4"/>
        </g>
        <g id="Grupo_17786" data-name="Grupo 17786">
          <path id="Trazado_28354" data-name="Trazado 28354" d="M2460.54,186.928a4.819,4.819,0,0,1-2.176-2.979,4.973,4.973,0,0,1-.136-1.137v-2.361a4.533,4.533,0,0,1,.21-1.36,4.628,4.628,0,0,1,1.9-2.534,23.42,23.42,0,0,0,2.559,1.236,14.611,14.611,0,0,0,5.217,1.236v3.783a4.906,4.906,0,0,1-.136,1.137,4.814,4.814,0,0,1-2.176,2.979,4.968,4.968,0,0,1-5.266,0Z" fill="#f0d0b4"/>
        </g>
        <g id="Grupo_17787" data-name="Grupo 17787">
          <path id="Trazado_28355" data-name="Trazado 28355" d="M2458.228,182.812a4.973,4.973,0,0,0,.136,1.137l-.086.025h-1.447a2.21,2.21,0,0,1-1.631-.729,2.533,2.533,0,0,1-.68-1.743,2.5,2.5,0,0,1,.692-1.756,2.217,2.217,0,0,1,1.619-.717h1.4l.21.062a4.533,4.533,0,0,0-.21,1.36Z" fill="#f0d0b4"/>
        </g>
      </g>
      <path id="Trazado_28356" data-name="Trazado 28356" d="M2499.023,195.1a7.38,7.38,0,0,0-4.945,1.9V186.446a3.695,3.695,0,0,0-5.089-3.435,3.716,3.716,0,0,0-1.725-2.238,17.115,17.115,0,0,0-1.987-13.707,13.918,13.918,0,0,0-11.872-6.58,14.1,14.1,0,0,0-9.9,4.1l-.33.33-.33-.33a14.1,14.1,0,0,0-9.9-4.1,13.92,13.92,0,0,0-11.873,6.58,17.13,17.13,0,0,0-1.989,13.707,3.717,3.717,0,0,0-1.722,2.237,3.7,3.7,0,0,0-5.089,3.436V197a7.377,7.377,0,0,0-4.945-1.9,2.474,2.474,0,0,0-2.472,2.472l.007.136c.007.077.843,7.641,1.131,14.345a13.741,13.741,0,0,0,3.14,8.162l3.139,3.765v13.151h19.779V223.82a24.791,24.791,0,0,0,2.473-10.762v-15.8l8.653,6.831,8.654-6.831v15.8a24.787,24.787,0,0,0,2.472,10.762v13.311h19.779V223.98l3.14-3.768a13.73,13.73,0,0,0,3.139-8.16c.288-6.7,1.124-14.268,1.131-14.345l.008-.135a2.475,2.475,0,0,0-2.473-2.472Zm-55.858-26.722a11.459,11.459,0,0,1,9.776-5.42,11.612,11.612,0,0,1,8.154,3.379l2.078,2.078,2.078-2.078a11.615,11.615,0,0,1,8.154-3.379,11.459,11.459,0,0,1,9.776,5.42,14.785,14.785,0,0,1-3.37,19.428l-4.8,3.792-.139-.14a8.72,8.72,0,0,0-6.125-2.539h-.973l-.518-1.555a6.1,6.1,0,0,0,1.6-2.154h.661a3.635,3.635,0,0,0,3.547-3.708,3.8,3.8,0,0,0-.574-2.011l.532-1.981a5.108,5.108,0,0,0-3.209-6.037l-5.239-1.905a7.127,7.127,0,0,0-8.138,2.423l-.3.4a3.631,3.631,0,0,0-2.962,3.565,13.372,13.372,0,0,0,.662,3.58,3.8,3.8,0,0,0-.554,1.97,3.634,3.634,0,0,0,3.546,3.708h.661a6.118,6.118,0,0,0,1.6,2.154l-.518,1.555h-.973a8.717,8.717,0,0,0-6.125,2.541l-.139.139-4.8-3.792a14.787,14.787,0,0,1-3.369-19.429Zm13.664,14.36a1.249,1.249,0,0,1,0-2.473H2457c0,.063-.012.126-.012.189v2.284Zm.81-4.945h-.81a3.4,3.4,0,0,0-.878.128,8.78,8.78,0,0,1-.3-1.97,1.153,1.153,0,0,1,1.153-1.153h.619l.993-1.326a4.749,4.749,0,0,1,5.315-1.581l5.24,1.9a2.643,2.643,0,0,1,1.661,3.094l-.274,1.018a3.4,3.4,0,0,0-.837-.115h-1.4c-3.149,0-7.108-2.282-7.148-2.3l-.661-.385-.639.419a5.916,5.916,0,0,0-2.031,2.27Zm11.715,2.472h.163a1.249,1.249,0,0,1,0,2.473h-.163Zm-9.889.189a3.4,3.4,0,0,1,1.014-2.421,20.767,20.767,0,0,0,6.4,2.151v2.63a3.709,3.709,0,0,1-7.417,0Zm1.822,8.143a5.687,5.687,0,0,0,3.773,0l.421,1.266-2.308,2.564-2.308-2.564Zm-26.547,46.062v-4.945h14.835v4.945Zm17.307-21.6a22.282,22.282,0,0,1-2.342,9.921l-.13.262v4H2434.74v-4.156l-3.711-4.454a11.251,11.251,0,0,1-2.569-6.684c-.27-6.29-1.015-13.314-1.13-14.375a4.951,4.951,0,0,1,4.938,4.945v6.8l2.312,1.733a11.226,11.226,0,0,1,3.932,5.457l2.345-.782a13.686,13.686,0,0,0-4.794-6.652l-1.323-.992V186.446a1.236,1.236,0,0,1,2.473,0v17.307h2.472V183.974a1.21,1.21,0,0,1,.267-.741,17.008,17.008,0,0,0,2.206,3.67v16.85h2.472V189.418c.127.108.241.226.373.33l2.1,1.658v12.347h2.473v-10.4l2.472,1.952Zm1.253-19.911a6.214,6.214,0,0,1,4.3-1.756h1.312l4.259,4.732,4.259-4.732h1.313a6.219,6.219,0,0,1,4.3,1.756l-9.874,7.795Zm23.471,41.512v-4.945h14.835v4.945Zm21.116-22.712a11.255,11.255,0,0,1-2.567,6.683l-3.714,4.455v4.156h-14.835v-4l-.129-.261a22.284,22.284,0,0,1-2.343-9.922V195.309l2.472-1.952v10.4h2.473V191.406l2.1-1.658c.131-.1.245-.223.373-.33v14.335h2.473V186.9a17.07,17.07,0,0,0,2.2-3.671,1.2,1.2,0,0,1,.268.742v19.779h2.473V186.446a1.236,1.236,0,1,1,2.472,0V208.08l-1.323.993a13.686,13.686,0,0,0-4.794,6.652l2.345.782a11.231,11.231,0,0,1,3.933-5.456l2.311-1.735v-6.8a4.952,4.952,0,0,1,4.938-4.945c-.115,1.061-.859,8.085-1.129,14.375Z" fill="#00223d"/>
    </g>
    <rect id="Rectángulo_4371" data-name="Rectángulo 4371" width="113" height="113" transform="translate(2448 -4806)" fill="none"/>
  </g>
</svg>
