<svg xmlns="http://www.w3.org/2000/svg" width="113" height="113" viewBox="0 0 113 113">
  <g id="Grupo_17611" data-name="Grupo 17611" transform="translate(-576 -7080)">
    <g id="Grupo_17580" data-name="Grupo 17580" transform="translate(597 7091)">
      <rect id="Rectángulo_4397" data-name="Rectángulo 4397" width="14.122" height="7.564" transform="translate(44.623 28.968)" fill="#80c4ec"/>
      <path id="Trazado_28061" data-name="Trazado 28061" d="M900.308,181.564v-8.83H889.637v8.83l1.659,2.043v16.344h7.354V183.607Z" transform="translate(-843.289 -170.982)" fill="#c3c1c7"/>
      <path id="Trazado_28062" data-name="Trazado 28062" d="M869.522,274a40.769,40.769,0,0,1-14.206-2.378,27.128,27.128,0,0,0-6.245-1.19l-1.89-.135v-25.93l1.788-.219a21.91,21.91,0,0,0,11.3-4.469c3.752-2.553,7.975-5.448,17.144-5.87v7.063h19.512a4.514,4.514,0,0,1,.01,9.028,4.512,4.512,0,0,1-2.843,8.01,4.512,4.512,0,0,1-2.843,8.01,4.512,4.512,0,0,1-2.851,8.011S870.775,274,869.522,274Z" transform="translate(-832.791 -186.084)" fill="#ffc388"/>
      <path id="Trazado_28063" data-name="Trazado 28063" d="M887.344,237.194h14.122V225.082l-3.128-1.357v-4.784h-7.866v4.784l-3.128,1.357Z" transform="translate(-842.722 -182.408)" fill="#f15d43"/>
      <rect id="Rectángulo_4398" data-name="Rectángulo 4398" width="12.639" height="33.042" transform="translate(1.751 54.873)" fill="#5796d1"/>
      <path id="Trazado_28064" data-name="Trazado 28064" d="M838.21,252.3a1.742,1.742,0,0,1-.342-.033,1.849,1.849,0,0,1-.327-.1,1.8,1.8,0,0,1-.3-.161,1.653,1.653,0,0,1-.266-.219,1.636,1.636,0,0,1-.217-.266,1.734,1.734,0,0,1-.261-1.314,1.737,1.737,0,0,1,.1-.327,1.772,1.772,0,0,1,.161-.3,1.679,1.679,0,0,1,.483-.483,1.782,1.782,0,0,1,.63-.261,1.749,1.749,0,0,1,.685,0,1.783,1.783,0,0,1,.63.261,1.839,1.839,0,0,1,.266.217,1.862,1.862,0,0,1,.218.266,1.834,1.834,0,0,1,.161.3,1.756,1.756,0,0,1,.1.327,1.7,1.7,0,0,1,.033.343,1.734,1.734,0,0,1-.133.668,1.819,1.819,0,0,1-.161.3,1.776,1.776,0,0,1-.218.266,1.8,1.8,0,0,1-.266.219,1.826,1.826,0,0,1-.3.161,1.87,1.87,0,0,1-.327.1A1.769,1.769,0,0,1,838.21,252.3Z" transform="translate(-830.14 -189.791)" fill="#00223d"/>
      <path id="Trazado_28065" data-name="Trazado 28065" d="M898.463,229.708a6.272,6.272,0,0,0-6.265-6.265H888.56V213.081a1.75,1.75,0,0,0-1.054-1.606l-2.074-.9v-1.884h1.377a1.751,1.751,0,0,0,1.751-1.751v-7.564a1.751,1.751,0,0,0-1.751-1.752h-1.633V183.654l1.267-1.561a1.753,1.753,0,0,0,.391-1.1v-8.83a1.752,1.752,0,0,0-1.752-1.752H874.412a1.752,1.752,0,0,0-1.752,1.752v8.83a1.753,1.753,0,0,0,.391,1.1l1.267,1.561v13.971h-1.633a1.752,1.752,0,0,0-1.752,1.752v7.564a1.752,1.752,0,0,0,1.752,1.751h1.377v1.884l-2.074.9a1.751,1.751,0,0,0-1.055,1.606v3.408a30.276,30.276,0,0,0-16.34,6.038l-.038.026a20.186,20.186,0,0,1-10.352,4.156V225.28a1.752,1.752,0,0,0-1.751-1.752H829.816a1.752,1.752,0,0,0-1.752,1.752v33.042a1.752,1.752,0,0,0,1.752,1.752h12.638a1.752,1.752,0,0,0,1.752-1.752V256.5h.013a25.775,25.775,0,0,1,5.77,1.089,42.6,42.6,0,0,0,14.807,2.484c1.242,0,18.162-.068,18.874-.071a6.268,6.268,0,0,0,5.76-8.732,6.266,6.266,0,0,0,2.843-8.01,6.27,6.27,0,0,0,2.843-8.011A6.273,6.273,0,0,0,898.463,229.708Zm-24.025-24.519v-4.062h10.62v4.062Zm2.993-23.26-1.268-1.561v-6.458h7.169v6.458l-1.267,1.561a1.747,1.747,0,0,0-.391,1.1v14.593h-3.852V183.032A1.752,1.752,0,0,0,877.431,181.928Zm4.5,26.763v3.033a1.752,1.752,0,0,0,1.054,1.607l2.074.9v9.212h-10.62v-9.212l2.074-.9a1.752,1.752,0,0,0,1.054-1.607v-3.033ZM840.7,256.571h-2.816v-19.1a1.752,1.752,0,1,0-3.5,0v19.1h-2.816v-29.54H840.7Zm51.5-24.1H878.073a1.751,1.751,0,0,0,0,3.5h13.422a2.76,2.76,0,0,1-2.134,4.507,1.913,1.913,0,0,0-.219.014H877.994a1.751,1.751,0,1,0,0,3.5h10.67a2.761,2.761,0,0,1-2.145,4.494,1.759,1.759,0,0,0-.3.026h-8.04a1.752,1.752,0,0,0,0,3.5h7.656a2.761,2.761,0,0,1-2.169,4.48c-.176,0-17.633.071-18.867.071a38.989,38.989,0,0,1-13.562-2.256l-.073-.027a28.876,28.876,0,0,0-6.691-1.281l-.263-.019v-22.75l.249-.03a23.658,23.658,0,0,0,12.073-4.76l.038-.026c3.442-2.343,6.994-4.76,14.37-5.42v5.191a1.752,1.752,0,0,0,1.752,1.751H892.2a2.763,2.763,0,0,1,.006,5.525Z" transform="translate(-828.064 -170.407)" fill="#00223d"/>
    </g>
    <rect id="Rectángulo_4402" data-name="Rectángulo 4402" width="113" height="113" transform="translate(576 7080)" fill="none"/>
  </g>
</svg>
