<svg xmlns="http://www.w3.org/2000/svg" width="113" height="113" viewBox="0 0 113 113">
  <g id="Grupo_17614" data-name="Grupo 17614" transform="translate(-167 -8237)">
    <g id="Page-1" transform="translate(185 8255)">
      <g id="_001---Tractor" data-name="001---Tractor" transform="translate(0)">
        <path id="Shape" d="M1148.921,125.232h75.3V142.11a2.6,2.6,0,0,1-2.6,2.6h-70.11a2.6,2.6,0,0,1-2.6-2.6Z" transform="translate(-1147.623 -68.105)" fill="sienna"/>
        <path id="Shape-2" data-name="Shape" d="M1258.115,125.232v19.475h1.3a2.6,2.6,0,0,0,2.6-2.6V125.232Z" transform="translate(-1185.408 -68.105)" fill="#783e22"/>
        <path id="Shape-3" data-name="Shape" d="M1164.5,77.584a15.58,15.58,0,1,0,15.528,16.878c.039-.428.052-.857.052-1.3A15.58,15.58,0,0,0,1164.5,77.584Zm0,25.967a10.387,10.387,0,1,1,10.387-10.387A10.387,10.387,0,0,1,1164.5,103.551Z" transform="translate(-1147.624 -51.617)" fill="#37474f"/>
        <path id="Shape-4" data-name="Shape" d="M1167.249,85.525a10.387,10.387,0,1,0,10.387,10.387A10.387,10.387,0,0,0,1167.249,85.525Zm0,12.983a2.6,2.6,0,1,1,2.6-2.6A2.6,2.6,0,0,1,1167.249,98.508Z" transform="translate(-1150.371 -54.365)" fill="#ffdc00"/>
        <path id="Shape-5" data-name="Shape" d="M1171.714,85.525a10.307,10.307,0,0,0-1.948.19,10.387,10.387,0,0,1,0,20.394,10.387,10.387,0,1,0,1.948-20.584Z" transform="translate(-1154.836 -54.365)" fill="#fec108"/>
        <circle id="Oval" cx="2.597" cy="2.597" r="2.597" transform="translate(14.282 38.95)" fill="#cfd8dc"/>
        <path id="Shape-6" data-name="Shape" d="M1250.407,95.846a11.677,11.677,0,0,0-21.994,4.038,10.665,10.665,0,0,0-.078,1.3,11.685,11.685,0,0,0,23.37,0A11.534,11.534,0,0,0,1250.407,95.846Zm-10.387,11.828a6.492,6.492,0,1,1,6.492-6.492A6.492,6.492,0,0,1,1240.02,107.674Z" transform="translate(-1175.103 -55.741)" fill="#37474f"/>
        <circle id="Oval-2" data-name="Oval" cx="6.492" cy="6.492" r="6.492" transform="translate(58.425 38.95)" fill="#ffdc00"/>
        <path id="Shape-7" data-name="Shape" d="M1245.172,97.437a6.427,6.427,0,0,0-1.948.331,6.447,6.447,0,0,1,0,12.321,6.407,6.407,0,0,0,1.948.332,6.492,6.492,0,0,0,0-12.984Z" transform="translate(-1180.256 -58.487)" fill="#fec108"/>
        <path id="Shape-8" data-name="Shape" d="M1188.38,90.416v1.3h-5.245c.039-.428.052-.857.052-1.3a15.6,15.6,0,0,0-22.63-13.905l-2.662-4.453a20.434,20.434,0,0,1,8.738-2.389c.325-.013.649-.026.974-.026a20.774,20.774,0,0,1,20.774,20.774Z" transform="translate(-1150.728 -48.869)" fill="#545c60"/>
        <path id="Shape-9" data-name="Shape" d="M1156.851,73.335a18.8,18.8,0,0,0-1.974,1.182" transform="translate(-1149.684 -50.147)" fill="none" stroke="#00223d" stroke-linecap="round" stroke-linejoin="round" stroke-width="17.067"/>
        <path id="Shape-10" data-name="Shape" d="M1241.613,73.537v2.6h-15.58v7.712a11.673,11.673,0,0,0-6.414,9.166h-15.658v-2.6a20.61,20.61,0,0,0-1.038-6.492h7.53a1.3,1.3,0,0,0,1.3-1.3V69.642h25.967A3.9,3.9,0,0,1,1241.613,73.537Z" transform="translate(-1166.31 -48.869)" fill="#008a00"/>
        <path id="Shape-11" data-name="Shape" d="M1228.912,87.281a11.671,11.671,0,0,0-6.414,9.166h3.895a11.672,11.672,0,0,1,6.414-9.166V79.569h-3.895Z" transform="translate(-1173.083 -52.304)" fill="#007900"/>
        <path id="Shape-12" data-name="Shape" d="M1254.069,69.642h-3.9a3.9,3.9,0,0,1,3.9,3.895v2.6h3.9v-2.6A3.9,3.9,0,0,0,1254.069,69.642Z" transform="translate(-1182.66 -48.869)" fill="#007900"/>
        <path id="Shape-13" data-name="Shape" d="M1253.842,79.569v12.84a11.669,11.669,0,0,0-15.58-5.128V79.569Z" transform="translate(-1178.538 -52.304)" fill="#7f8e94"/>
        <path id="Shape-14" data-name="Shape" d="M1256.13,79.569v8.488a11.727,11.727,0,0,1,3.9,4.352V79.569Z" transform="translate(-1184.721 -52.304)" fill="#545c60"/>
        <path id="Shape-15" data-name="Shape" d="M1246.2,86.061V79.569" transform="translate(-1181.286 -52.304)" fill="none" stroke="#00223d" stroke-linejoin="round" stroke-width="17.067"/>
        <g id="Grupo_17608" data-name="Grupo 17608">
          <path id="Shape-16" data-name="Shape" d="M1208.179,47.8V75.069a1.3,1.3,0,0,1-1.3,1.3h-7.53a20.844,20.844,0,0,0-6.751-9.724V47.8Z" transform="translate(-1162.737 -41.312)" fill="#02a9f4"/>
          <path id="Shape-17" data-name="Shape" d="M1209.78,47.8V75.069a1.3,1.3,0,0,1-1.3,1.3h3.9a1.3,1.3,0,0,0,1.3-1.3V47.8Z" transform="translate(-1168.233 -41.312)" fill="#0377bc"/>
          <path id="Shape-18" data-name="Shape" d="M1185.213,47.8V66.642a20.666,20.666,0,0,0-12.984-4.557c-.324,0-.649.013-.974.026l3.571-14.308Z" transform="translate(-1155.352 -41.312)" fill="#02a9f4"/>
          <path id="Shape-19" data-name="Shape" d="M1205.2,42.459a2.615,2.615,0,0,1-2.6,2.6h-27.265a2.6,2.6,0,0,1-2.6-2.6,2.616,2.616,0,0,1,2.6-2.6h27.265A2.6,2.6,0,0,1,1205.2,42.459Z" transform="translate(-1155.867 -38.564)" fill="#008a00"/>
          <path id="Shape-20" data-name="Shape" d="M1216.347,39.862h-3.9a2.6,2.6,0,0,1,2.6,2.6,2.615,2.615,0,0,1-2.6,2.6h3.9a2.615,2.615,0,0,0,2.6-2.6A2.6,2.6,0,0,0,1216.347,39.862Z" transform="translate(-1169.607 -38.564)" fill="#007900"/>
          <path id="Shape-21" data-name="Shape" d="M1212.3,105.378v3.895a2.6,2.6,0,0,1-2.6,2.6h-2.6a2.6,2.6,0,0,1-2.6-2.6v-3.895Z" transform="translate(-1166.859 -61.235)" fill="#9e9e9e"/>
          <path id="Shape-22" data-name="Shape" d="M1209.437,105.378v3.895a2.6,2.6,0,0,1-1.948,2.5,2.505,2.505,0,0,0,.649.094h2.6a2.6,2.6,0,0,0,2.6-2.6v-3.895Z" transform="translate(-1167.89 -61.235)" fill="#707070"/>
          <path id="Shape-23" data-name="Shape" d="M1166.562,83.54a11.685,11.685,0,1,0,11.685,11.685A11.685,11.685,0,0,0,1166.562,83.54Zm0,20.773a9.088,9.088,0,1,1,9.089-9.088A9.088,9.088,0,0,1,1166.562,104.313Z" transform="translate(-1149.684 -53.678)" fill="#00223d"/>
          <path id="Shape-24" data-name="Shape" d="M1170.684,95.452a3.895,3.895,0,1,0,3.9,3.895A3.9,3.9,0,0,0,1170.684,95.452Zm0,5.193a1.3,1.3,0,1,1,1.3-1.3A1.3,1.3,0,0,1,1170.684,100.645Z" transform="translate(-1153.806 -57.8)" fill="#00223d"/>
          <path id="Shape-25" data-name="Shape" d="M1242.081,95.452a7.79,7.79,0,1,0,7.79,7.79A7.79,7.79,0,0,0,1242.081,95.452Zm0,12.983a5.193,5.193,0,1,1,5.193-5.193A5.193,5.193,0,0,1,1242.081,108.435Z" transform="translate(-1177.164 -57.8)" fill="#00223d"/>
          <circle id="Oval-3" data-name="Oval" cx="1.298" cy="1.298" r="1.298" transform="translate(63.618 44.143)" fill="#00223d"/>
          <path id="Shape-26" data-name="Shape" d="M1223.677,80.18h1.3a1.3,1.3,0,0,0,0-2.6h-1.3a1.3,1.3,0,0,0,0,2.6Z" transform="translate(-1173.042 -51.617)" fill="#00223d"/>
          <path id="Shape-27" data-name="Shape" d="M1146.936,95a1.3,1.3,0,0,0,1.3,1.3h14.96L1156.116,114a1.3,1.3,0,0,0,.723,1.688,1.314,1.314,0,0,0,.483.093,1.3,1.3,0,0,0,1.207-.815l7.463-18.66H1176.8a1.3,1.3,0,0,0,0-2.6h-4.025a16.887,16.887,0,0,0,7.7-11.686h2.813v3.895a3.9,3.9,0,0,0,3.9,3.9h2.6a3.9,3.9,0,0,0,3.9-3.9v-2.6h5.194a12.96,12.96,0,0,0,5.226,10.387h-22.1a1.3,1.3,0,0,0,0,2.6h2.6v18.177a1.3,1.3,0,0,0,2.6,0V96.3h18.6l7.462,18.66a1.3,1.3,0,0,0,1.207.815,1.323,1.323,0,0,0,.483-.092,1.3,1.3,0,0,0,.723-1.688l-7.078-17.7h14.961a1.3,1.3,0,1,0,0-2.6h-3.927a12.9,12.9,0,0,0,3.927-16.009V62.545a5.193,5.193,0,0,0-5.193-5.193h-24.669V45.667a3.895,3.895,0,1,0,0-7.79h-27.265a3.895,3.895,0,0,0-1.577,7.45l-3.025,12.125a22.255,22.255,0,0,0-10.412,3.722,1.3,1.3,0,1,0,1.465,2.15c.26-.175.519-.331.779-.492l1.345,2.236a16.831,16.831,0,0,0-.13,28.638h-6.621a1.3,1.3,0,0,0-1.3,1.3Zm44.144-9.089a1.3,1.3,0,0,1-1.3,1.3h-2.6a1.3,1.3,0,0,1-1.3-1.3v-2.6h5.194Zm20.773,7.791a10.387,10.387,0,1,1,10.387-10.387A10.387,10.387,0,0,1,1211.853,93.705Zm-1.3-27.266V70.4a12.8,12.8,0,0,0-2.6.532V66.44Zm5.193,0v4.494a12.79,12.79,0,0,0-2.6-.532V66.44Zm5.194,0v7.623a13.087,13.087,0,0,0-2.6-1.971V66.44Zm-2.6-6.491a2.6,2.6,0,0,1,2.6,2.6v1.3h-16.879a1.3,1.3,0,0,0,0,2.6h1.3v5.652a13.011,13.011,0,0,0-6.232,8.63h-13.243v-1.3a21.934,21.934,0,0,0-.649-5.194h5.843a2.6,2.6,0,0,0,2.6-2.6V59.949ZM1191.08,71.634h-6.64a22.128,22.128,0,0,0-6.344-9.008V45.667h12.984ZM1164.5,57.387l2.924-11.72h8.074V60.728A21.906,21.906,0,0,0,1164.5,57.387Zm1.91-16.913h27.265a1.3,1.3,0,1,1,0,2.6h-27.265a1.3,1.3,0,0,1,0-2.6Zm-10.466,21.143a19.463,19.463,0,0,1,27.344,17.808h-2.6a16.879,16.879,0,0,0-23.406-15.564Zm-6.413,17.808a14.282,14.282,0,1,1,14.282,14.282A14.282,14.282,0,0,1,1149.532,79.424Z" transform="translate(-1146.936 -37.877)" fill="#00223d"/>
          <path id="Shape-28" data-name="Shape" d="M1199.853,60.251a1.3,1.3,0,0,1-.779-2.337l5.193-3.895a1.3,1.3,0,1,1,1.558,2.078l-5.194,3.895A1.3,1.3,0,0,1,1199.853,60.251Z" transform="translate(-1164.798 -43.373)" fill="#f5f5f5"/>
          <path id="Shape-29" data-name="Shape" d="M1199.853,72.163a1.3,1.3,0,0,1-.779-2.337l5.193-3.895a1.3,1.3,0,1,1,1.558,2.077l-5.194,3.895A1.3,1.3,0,0,1,1199.853,72.163Z" transform="translate(-1164.798 -47.495)" fill="#f5f5f5"/>
          <path id="Shape-30" data-name="Shape" d="M1180,60.946a1.3,1.3,0,0,1-.918-2.216l2.6-2.6a1.3,1.3,0,0,1,1.836,1.836l-2.6,2.6a1.3,1.3,0,0,1-.917.381Z" transform="translate(-1157.928 -44.068)" fill="#f5f5f5"/>
        </g>
      </g>
    </g>
    <rect id="Rectángulo_4406" data-name="Rectángulo 4406" width="113" height="113" transform="translate(167 8237)" fill="none"/>
  </g>
</svg>
