<svg xmlns="http://www.w3.org/2000/svg" width="113" height="113" viewBox="0 0 113 113">
  <g id="Grupo_17617" data-name="Grupo 17617" transform="translate(-167 -7835)">
    <g id="Grupo_17600" data-name="Grupo 17600" transform="translate(179 7863)">
      <g id="Grupo_17598" data-name="Grupo 17598" transform="translate(1.296 1.302)">
        <g id="Grupo_17597" data-name="Grupo 17597">
          <g id="Grupo_17583" data-name="Grupo 17583" transform="translate(56.477 38.721)">
            <path id="Trazado_28078" data-name="Trazado 28078" d="M1023.928,806.33c1.3,2.553,3.047,6.587,5.646,8.085l-1.187,5.537h5.187l1.964-9.082a8.586,8.586,0,0,1-3.733-2.583,9.954,9.954,0,0,1-2.027-4.094Z" transform="translate(-1023.928 -804.193)" fill="#df95c0"/>
          </g>
          <g id="Grupo_17584" data-name="Grupo 17584" transform="translate(1.34 2.652)">
            <path id="Trazado_28079" data-name="Trazado 28079" d="M973.355,765.1c-.383-21.412-33.288-21.416-33.674,0-.679,6.529,3.892,12.431,10.636,12.439h12.4a10.59,10.59,0,0,0,5.372-1.454c3.941-2.5,5.6-6.249,5.264-10.984Z" transform="translate(-939.615 -749.038)" fill="#eab8d5"/>
          </g>
          <g id="Grupo_17585" data-name="Grupo 17585" transform="translate(1.34 11.844)">
            <path id="Trazado_28080" data-name="Trazado 28080" d="M969.295,776.975a10.584,10.584,0,0,1-5.372,1.454h-12.4c-6.744-.008-11.315-5.911-10.637-12.439a19.207,19.207,0,0,1,.267-2.9,17.253,17.253,0,0,0-1.47,6.867c-.679,6.529,3.892,12.431,10.636,12.439h12.4a10.59,10.59,0,0,0,5.372-1.454,10.765,10.765,0,0,0,5.214-8.176,11.217,11.217,0,0,1-4.01,4.2Z" transform="translate(-939.615 -763.095)" fill="#df95c0"/>
          </g>
          <g id="Grupo_17586" data-name="Grupo 17586" transform="translate(12.997 3.845)">
            <path id="Trazado_28081" data-name="Trazado 28081" d="M1006.992,752.074c-9.066-2.272-18.174-1.067-27.084,1.32a8.716,8.716,0,0,1-2.738,3.8,16.6,16.6,0,0,1,2.354,8.534c.339,4.736-1.324,8.484-5.264,10.984a10.59,10.59,0,0,1-5.372,1.454H957.441c.491,5.028,3.622,10.525,9.212,16.859a4.107,4.107,0,0,1,1.148,2.841V801.5h10.3l5.562-11.665a56.794,56.794,0,0,0,23.108-4.094c.929,3.07,2.573,5.643,5.761,6.677l-1.965,9.082h5.124l2.781-11.665a52.1,52.1,0,0,0,4.716-6.726,9.9,9.9,0,0,0,1.033-3.8c2.822-11.556-4.966-24.8-17.227-27.235Z" transform="translate(-957.441 -750.864)" fill="#eab8d5"/>
          </g>
          <g id="Grupo_17588" data-name="Grupo 17588" transform="translate(39.218 32.431)">
            <g id="Grupo_17587" data-name="Grupo 17587">
              <path id="Trazado_28082" data-name="Trazado 28082" d="M1031.106,804.959c-6.666,0-7.322-6.8-7.549-10.384H1019.9l.171,2.83a65.5,65.5,0,0,1-18.186,3.7,13.27,13.27,0,0,0,.193-3.937h-3.568a20.712,20.712,0,0,1-.971,7.791,56.8,56.8,0,0,0,23.108-4.094c.745,2.46,2.467,5.727,5.546,6.506l-.63,4.073h5.187Z" transform="translate(-997.536 -794.575)" fill="#df95c0"/>
            </g>
          </g>
          <g id="Grupo_17589" data-name="Grupo 17589" transform="translate(24.492)">
            <path id="Trazado_28083" data-name="Trazado 28083" d="M983.252,755.161c3.658-2.6,3.66-8.654,3.66-8.654a1.5,1.5,0,0,0-1.5-1.5c-4.719-.152-6.877.218-10.4,3.568a15.1,15.1,0,0,1,8.234,6.582Z" transform="translate(-975.018 -744.983)" fill="#df95c0"/>
          </g>
          <g id="Grupo_17590" data-name="Grupo 17590" transform="translate(12.997 13.307)">
            <path id="Trazado_28084" data-name="Trazado 28084" d="M976.609,797.5a10.188,10.188,0,0,0-1.174-2.86c-1.272-1.814-1.107-5.81-1.086-8.269,8.609-2.849,8.641-14.892,4.281-21.04,2.656,8.072-.237,17.084-9.741,17.845-2.49.2-9.032.008-11.447,0,.491,5.028,3.622,10.525,9.211,16.858a4.125,4.125,0,0,1,.84,1.291H980.57l1.824-3.824Zm-7.351,0a42.011,42.011,0,0,1-6.928-10.518c.43-.013,9.347.037,9.418-.044-.032,4.528-.084,5.98,2.161,10.562Z" transform="translate(-957.441 -765.331)" fill="#df95c0"/>
          </g>
          <g id="Grupo_17591" data-name="Grupo 17591">
            <path id="Trazado_28085" data-name="Trazado 28085" d="M941.226,755.161c-3.658-2.6-3.66-8.654-3.66-8.654a1.5,1.5,0,0,1,1.5-1.5c4.718-.152,6.877.218,10.4,3.568A15.1,15.1,0,0,0,941.226,755.161Z" transform="translate(-937.566 -744.983)" fill="#df95c0"/>
          </g>
          <g id="Grupo_17592" data-name="Grupo 17592" transform="translate(10.464 16.893)">
            <path id="Trazado_28086" data-name="Trazado 28086" d="M967.552,779.875H955.131a1.541,1.541,0,0,1-1.564-1.517,7.778,7.778,0,0,1,15.549,0A1.541,1.541,0,0,1,967.552,779.875Z" transform="translate(-953.567 -770.815)" fill="#df95c0"/>
          </g>
          <g id="Grupo_17593" data-name="Grupo 17593" transform="translate(23.378 49.3)">
            <path id="Trazado_28087" data-name="Trazado 28087" d="M973.315,820.37h5.179v5.18h-5.179Z" transform="translate(-973.315 -820.37)" fill="#48474a"/>
          </g>
          <g id="Grupo_17594" data-name="Grupo 17594" transform="translate(60.936 49.3)">
            <path id="Trazado_28088" data-name="Trazado 28088" d="M1035.933,825.55h-5.187l1.017-5.18h5.291Z" transform="translate(-1030.746 -820.37)" fill="#48474a"/>
          </g>
          <g id="Grupo_17595" data-name="Grupo 17595" transform="translate(66.122 49.3)">
            <path id="Trazado_28089" data-name="Trazado 28089" d="M1043.864,825.55h-5.187l1.017-5.18h5.29Z" transform="translate(-1038.677 -820.37)" fill="#68676b"/>
          </g>
          <g id="Grupo_17596" data-name="Grupo 17596" transform="translate(28.558 49.3)">
            <path id="Trazado_28090" data-name="Trazado 28090" d="M986.415,825.55h-5.18v-5.18H988.8Z" transform="translate(-981.235 -820.37)" fill="#68676b"/>
          </g>
        </g>
      </g>
      <g id="Grupo_17599" data-name="Grupo 17599">
        <path id="Trazado_28091" data-name="Trazado 28091" d="M954.419,780.478H966.84c6.385-.707,1.34-12.118-6.211-11.654C953.078,768.36,948.035,779.771,954.419,780.478Zm6.21-9.061a6.373,6.373,0,0,1,6.478,6.246.251.251,0,0,1-.267.221h-2.408v-2.6h-2.593v2.6h-2.527v-2.6h-2.593v2.6h-2.3a.251.251,0,0,1-.267-.221,6.373,6.373,0,0,1,6.478-6.246Z" transform="translate(-941.095 -751.926)" fill="#00223d"/>
        <path id="Trazado_28092" data-name="Trazado 28092" d="M975.361,764.774h2.594v2.593h-2.594Z" transform="translate(-949.349 -750.53)" fill="#00223d"/>
        <path id="Trazado_28093" data-name="Trazado 28093" d="M951.567,764.774h2.594v2.593h-2.594Z" transform="translate(-941.115 -750.53)" fill="#00223d"/>
        <path id="Trazado_28094" data-name="Trazado 28094" d="M1055.031,799.441l2.277,1.241a20.741,20.741,0,0,0,1.167-2.535l-2.423-.924a18.244,18.244,0,0,1-1.021,2.219Z" transform="translate(-976.918 -761.758)" fill="#00223d"/>
        <path id="Trazado_28095" data-name="Trazado 28095" d="M1019.265,755.639a20.647,20.647,0,0,0,4.658.517v-2.594a18.309,18.309,0,0,1-3.308-.294c1.359-3.312-.093-6.166-3.372-6.367a3.9,3.9,0,0,0-1.959,7.249h0a9.821,9.821,0,0,0,1.327.649,14.931,14.931,0,0,1-2.921,2.414c-9.5-12.223-23.885-11.61-39.314-8.39a14.662,14.662,0,0,0,.188-3.007,2.8,2.8,0,0,0-2.793-2.793c-4.357-.175-7.422.255-10.689,3.4a17.309,17.309,0,0,0-5.2-.795,19.9,19.9,0,0,0-6.774.813,11.965,11.965,0,0,0-5.448-3.113l-.61,2.52a8.367,8.367,0,0,1,3.373,1.7,17.485,17.485,0,0,0-5.925,4.992c-1.757-1.786-2.728-6.929-2.1-6.929h2.363v-2.593H938.4a2.8,2.8,0,0,0-2.794,2.793,11.218,11.218,0,0,0,3.456,8.966,18.829,18.829,0,0,0-2.072,10.023,11.944,11.944,0,0,0,11.754,11.929c.814,4.879,3.859,10.194,9.408,16.464a2.8,2.8,0,0,1,.787,1.944v4.925h12.415l5.548-11.636a55.672,55.672,0,0,0,15.7-1.891c1.242,2.5,2.722,5.546,4.949,7.275l-1.339,6.252h12.937l2.961-12.419,2.389-3.407-2.123-1.489-2.673,3.813-1.365,5.73h-2.607l.752-3.478c-5.367-1.424-6.5-5.626-6.727-12.095h-2.593a31.154,31.154,0,0,0,.551,5.47,55.234,55.234,0,0,1-19.969,3.659,28.064,28.064,0,0,0,.621-6.535h-2.594c.1,6.014-1.086,7.838-3.584,12.979h-5.453c.171-4.259-2.55-5.6-2.545-9.3v-3.68H961.6a50.611,50.611,0,0,0,.12,5.232c-1.791-.638-5.307-2.32-5.321-2.329l2.223,3.285a16.7,16.7,0,0,0,4.047,2.031,8.619,8.619,0,0,1,1.475,4.761h-3.423c-4.8-5.529-8.631-11.216-9.334-15.556h9.941a11.924,11.924,0,0,0,6.028-1.632l-1.311-2.237a9.329,9.329,0,0,1-4.716,1.277h-12.4a9.351,9.351,0,0,1-9.34-9.34c-.8-8.74,5.867-16.635,14.781-16.583a14.956,14.956,0,0,1,16.3,14.78c.186,3.126-.409,6.171-2.746,8.416l1.831,1.837a12.743,12.743,0,0,0,3.508-10.253,17.261,17.261,0,0,0-2.1-8.273,11.136,11.136,0,0,0,2.229-2.995c15.172-3.539,30.548-4.524,39.039,8.22a21.249,21.249,0,0,1,2.97,16.318l2.519.615a23.733,23.733,0,0,0-2.8-17.509,16.09,16.09,0,0,0,4.153-3.745Zm-2.022-6.144a1.3,1.3,0,0,1,0,2.593A1.3,1.3,0,0,1,1017.243,749.495ZM999.42,797.477l.555-2.586h2.541l-.559,2.586Zm8.3-2.586-.617,2.586h-2.492l.559-2.586Zm-4.252-4.4-.39,1.8H999.97c-2.127-1.071-3.618-4.062-4.832-6.482q1.641-.508,3.28-1.111A9.974,9.974,0,0,0,1003.467,790.494Zm-32.515,4.4-1.233,2.586h-2.983v-2.586Zm-6.81,0v2.586h-2.607c0-.105.005-2.584-.006-2.586Zm5.572-42.388a17.486,17.486,0,0,0-5.939-4.973c2.3-2.01,5.123-1.988,8-1.911a.2.2,0,0,1,.2.2,8.709,8.709,0,0,1-2.257,6.684Z" transform="translate(-935.585 -742.992)" fill="#00223d"/>
      </g>
    </g>
    <rect id="Rectángulo_4401" data-name="Rectángulo 4401" width="113" height="113" transform="translate(167 7835)" fill="none"/>
  </g>
</svg>
