<svg viewBox="0 0 64 64" xmlns="http://www.w3.org/2000/svg"><path d="m5 12v46a1 1 0 0 0 1 1h49a1 1 0 0 0 1-1v-46a1 1 0 0 0 -1-1h-49a1 1 0 0 0 -1 1z" fill="#c2c2c2"/><path d="m55 59.5h-49a1.5 1.5 0 0 1 -1.5-1.5v-46a1.5 1.5 0 0 1 1.5-1.5h49a1.5 1.5 0 0 1 1.5 1.5v46a1.5 1.5 0 0 1 -1.5 1.5zm-49-48a.5.5 0 0 0 -.5.5v46a.5.5 0 0 0 .5.5h49a.5.5 0 0 0 .5-.5v-46a.5.5 0 0 0 -.5-.5z" fill="#212a41"/><path d="m8 21h51a0 0 0 0 1 0 0v37a1 1 0 0 1 -1 1h-49a1 1 0 0 1 -1-1v-37a0 0 0 0 1 0 0z" fill="#e0e0e0"/><path d="m58 59.5h-49a1.5 1.5 0 0 1 -1.5-1.5v-37a.5.5 0 0 1 .5-.5h51a.5.5 0 0 1 .5.5v37a1.5 1.5 0 0 1 -1.5 1.5zm-49.5-38v36.5a.5.5 0 0 0 .5.5h49a.5.5 0 0 0 .5-.5v-36.5z" fill="#212a41"/><path d="m10 56.5a.5.5 0 0 1 -.5-.5v-33a.5.5 0 0 1 1 0v33a.5.5 0 0 1 -.5.5z" fill="#fefefe"/><path d="m57 56.5a.5.5 0 0 1 -.5-.5v-33a.5.5 0 0 1 1 0v33a.5.5 0 0 1 -.5.5z" fill="#c2c2c2"/><path d="m56 21h-51v-9a1 1 0 0 1 1-1h49a1 1 0 0 1 1 1z" fill="#b51040"/><path d="m56 21.5h-51a.5.5 0 0 1 -.5-.5v-9a1.5 1.5 0 0 1 1.5-1.5h49a1.5 1.5 0 0 1 1.5 1.5v9a.5.5 0 0 1 -.5.5zm-50.5-1h50v-8.5a.5.5 0 0 0 -.5-.5h-49a.5.5 0 0 0 -.5.5z" fill="#212a41"/><path d="m59 21h-51v-9a1 1 0 0 1 1-1h49a1 1 0 0 1 1 1z" fill="#d32e5e"/><path d="m59 21.5h-51a.5.5 0 0 1 -.5-.5v-9a1.5 1.5 0 0 1 1.5-1.5h49a1.5 1.5 0 0 1 1.5 1.5v9a.5.5 0 0 1 -.5.5zm-50.5-1h50v-8.5a.5.5 0 0 0 -.5-.5h-49a.5.5 0 0 0 -.5.5z" fill="#212a41"/><path d="m57 19.5a.5.5 0 0 1 -.5-.5v-6a.5.5 0 0 1 1 0v6a.5.5 0 0 1 -.5.5z" fill="#b51040"/><path d="m10 19.5a.5.5 0 0 1 -.5-.5v-6a.5.5 0 0 1 1 0v6a.5.5 0 0 1 -.5.5z" fill="#f14c7c"/><rect fill="#e0e0e0" height="12" rx="1" width="3" x="17" y="5"/><path d="m19 17.5h-1a1.5 1.5 0 0 1 -1.5-1.5v-10a1.5 1.5 0 0 1 1.5-1.5h1a1.5 1.5 0 0 1 1.5 1.5v10a1.5 1.5 0 0 1 -1.5 1.5zm-1-12a.5.5 0 0 0 -.5.5v10a.5.5 0 0 0 .5.5h1a.5.5 0 0 0 .5-.5v-10a.5.5 0 0 0 -.5-.5z" fill="#212a41"/><rect fill="#e0e0e0" height="12" rx="1" width="3" x="32" y="5"/><path d="m34 17.5h-1a1.5 1.5 0 0 1 -1.5-1.5v-10a1.5 1.5 0 0 1 1.5-1.5h1a1.5 1.5 0 0 1 1.5 1.5v10a1.5 1.5 0 0 1 -1.5 1.5zm-1-12a.5.5 0 0 0 -.5.5v10a.5.5 0 0 0 .5.5h1a.5.5 0 0 0 .5-.5v-10a.5.5 0 0 0 -.5-.5z" fill="#212a41"/><rect fill="#e0e0e0" height="12" rx="1" width="3" x="47" y="5"/><path d="m49 17.5h-1a1.5 1.5 0 0 1 -1.5-1.5v-10a1.5 1.5 0 0 1 1.5-1.5h1a1.5 1.5 0 0 1 1.5 1.5v10a1.5 1.5 0 0 1 -1.5 1.5zm-1-12a.5.5 0 0 0 -.5.5v10a.5.5 0 0 0 .5.5h1a.5.5 0 0 0 .5-.5v-10a.5.5 0 0 0 -.5-.5z" fill="#212a41"/><circle cx="19" cy="29" fill="#f9ac2f" r="3"/><path d="m19 32.5a3.5 3.5 0 1 1 3.5-3.5 3.5 3.5 0 0 1 -3.5 3.5zm0-6a2.5 2.5 0 1 0 2.5 2.5 2.5 2.5 0 0 0 -2.5-2.5z" fill="#212a41"/><circle cx="19" cy="40" fill="#f9ac2f" r="3"/><path d="m19 43.5a3.5 3.5 0 1 1 3.5-3.5 3.5 3.5 0 0 1 -3.5 3.5zm0-6a2.5 2.5 0 1 0 2.5 2.5 2.5 2.5 0 0 0 -2.5-2.5z" fill="#212a41"/><circle cx="19" cy="51" fill="#f9ac2f" r="3"/><g fill="#212a41"><path d="m19 54.5a3.5 3.5 0 1 1 3.5-3.5 3.5 3.5 0 0 1 -3.5 3.5zm0-6a2.5 2.5 0 1 0 2.5 2.5 2.5 2.5 0 0 0 -2.5-2.5z"/><path d="m53 27.5h-26a.5.5 0 0 1 0-1h26a.5.5 0 0 1 0 1z"/><path d="m43 31.5h-16a.5.5 0 0 1 0-1h16a.5.5 0 0 1 0 1z"/><path d="m43 42.5h-16a.5.5 0 0 1 0-1h16a.5.5 0 0 1 0 1z"/><path d="m53 38.5h-26a.5.5 0 0 1 0-1h26a.5.5 0 0 1 0 1z"/><path d="m53 49.5h-26a.5.5 0 0 1 0-1h26a.5.5 0 0 1 0 1z"/><path d="m43 53.5h-16a.5.5 0 0 1 0-1h16a.5.5 0 0 1 0 1z"/><path d="m19 29.5a.489.489 0 0 1 -.191-.038.5.5 0 0 1 -.309-.462v-3a.5.5 0 0 1 1 0v1.793l1.146-1.147a.5.5 0 0 1 .708.708l-2 2a.5.5 0 0 1 -.354.146z"/><path d="m22 40.5h-3a.5.5 0 0 1 -.5-.5v-3a.5.5 0 0 1 1 0v2.5h2.5a.5.5 0 0 1 0 1z"/><path d="m21 53.5a.5.5 0 0 1 -.354-.146l-2-2a.5.5 0 0 1 -.146-.354v-3a.5.5 0 0 1 1 0v2.793l1.854 1.853a.5.5 0 0 1 -.354.854z"/></g></svg>