<svg xmlns="http://www.w3.org/2000/svg" width="113" height="113" viewBox="0 0 113 113">
  <g id="Grupo_17615" data-name="Grupo 17615" transform="translate(-167 -8100)">
    <g id="Grupo_17607" data-name="Grupo 17607" transform="translate(179 8125)">
      <path id="Trazado_28110" data-name="Trazado 28110" d="M1386.724,79.294h-5.4v-18.9a2.7,2.7,0,0,1,5.4,0Z" transform="translate(-1317.901 -56.385)" fill="#e2ae83"/>
      <path id="Trazado_28111" data-name="Trazado 28111" d="M1385.327,58.025a2.7,2.7,0,0,0-4,2.365v18.9h2.609v-18.9A2.7,2.7,0,0,1,1385.327,58.025Z" transform="translate(-1317.901 -56.385)" fill="#d39c72"/>
      <path id="Trazado_28112" data-name="Trazado 28112" d="M1377.708,86.6h10.8V92h-10.8Z" transform="translate(-1316.988 -63.687)" fill="#356487"/>
      <path id="Trazado_28113" data-name="Trazado 28113" d="M1377.708,86.6h3.478V92h-3.478Z" transform="translate(-1316.988 -63.687)" fill="#20526b"/>
      <path id="Trazado_28114" data-name="Trazado 28114" d="M1381.322,93.823h5.4v5.4h-5.4Z" transform="translate(-1317.901 -65.512)" fill="#e2ae83"/>
      <path id="Trazado_28115" data-name="Trazado 28115" d="M1381.322,93.823h2.609v5.4h-2.609Z" transform="translate(-1317.901 -65.512)" fill="#d39c72"/>
      <path id="Trazado_28116" data-name="Trazado 28116" d="M1381.284,128.057a19.544,19.544,0,0,1-10.8-17.48V101.05h21.606v9.528A19.543,19.543,0,0,1,1381.284,128.057Z" transform="translate(-1315.163 -67.338)" fill="#89b4c9"/>
      <path id="Trazado_28117" data-name="Trazado 28117" d="M1373.96,110.578V101.05h-3.478v9.528a19.542,19.542,0,0,0,10.8,17.48,19.683,19.683,0,0,0,1.739-.985A19.541,19.541,0,0,1,1373.96,110.578Z" transform="translate(-1315.163 -67.338)" fill="#77a8bc"/>
      <path id="Trazado_28118" data-name="Trazado 28118" d="M1328.87,101.012l-.57-1.141a17.48,17.48,0,0,0-15.634-9.662l.57,1.141A17.478,17.478,0,0,0,1328.87,101.012Z" transform="translate(-1300.559 -64.599)" fill="#8af9ba"/>
      <path id="Trazado_28119" data-name="Trazado 28119" d="M1334.347,101.012l.57-1.141a17.478,17.478,0,0,1,15.633-9.662l-.569,1.141A17.479,17.479,0,0,1,1334.347,101.012Z" transform="translate(-1306.035 -64.599)" fill="#8af9ba"/>
      <ellipse id="Elipse_1080" data-name="Elipse 1080" cx="5.401" cy="10.803" rx="5.401" ry="10.803" transform="translate(13.787 6.514) rotate(-30.001)" fill="#ef6074"/>
      <ellipse id="Elipse_1081" data-name="Elipse 1081" cx="10.803" cy="5.401" rx="10.803" ry="5.401" transform="translate(22.677 19.825) rotate(-59.999)" fill="#e2546c"/>
      <ellipse id="Elipse_1082" data-name="Elipse 1082" cx="5.401" cy="10.803" rx="5.401" ry="10.803" transform="translate(22.91 1.304)" fill="#ef6074"/>
      <path id="Trazado_28120" data-name="Trazado 28120" d="M1330.6,68.491c0-4.749,1.533-8.779,3.662-10.227a3.075,3.075,0,0,0-1.738-.575c-2.984,0-5.4,4.836-5.4,10.8s2.418,10.8,5.4,10.8a3.075,3.075,0,0,0,1.738-.575c-2.129-1.448-3.662-5.479-3.662-10.228Z" transform="translate(-1304.21 -56.385)" fill="#e2546c"/>
      <path id="Trazado_28121" data-name="Trazado 28121" d="M1305.439,131.266a5.4,5.4,0,0,1,5.4-5.4h5.4a5.4,5.4,0,0,1,5.4-5.4h5.4a22.916,22.916,0,0,1,32.408,0h5.4a5.4,5.4,0,0,1,5.4,5.4h5.4a5.4,5.4,0,0,1,5.4,5.4Z" transform="translate(-1298.733 -70.546)" fill="#e2ae83"/>
      <g id="Grupo_17606" data-name="Grupo 17606" transform="translate(6.706 43.206)">
        <g id="Grupo_17605" data-name="Grupo 17605">
          <g id="Grupo_17602" data-name="Grupo 17602" transform="translate(21.606)">
            <path id="Trazado_28122" data-name="Trazado 28122" d="M1339.564,120.463a22.814,22.814,0,0,1,13.6-6.563,22.874,22.874,0,0,0-18.813,6.563Z" transform="translate(-1334.347 -113.752)" fill="#d39c72"/>
          </g>
          <g id="Grupo_17603" data-name="Grupo 17603" transform="translate(0 12.112)">
            <path id="Trazado_28123" data-name="Trazado 28123" d="M1316.057,129.958h-5.217a5.4,5.4,0,0,0-5.4,5.4h5.217A5.4,5.4,0,0,1,1316.057,129.958Z" transform="translate(-1305.439 -129.958)" fill="#d39c72"/>
          </g>
          <g id="Grupo_17604" data-name="Grupo 17604" transform="translate(10.803 6.711)">
            <path id="Trazado_28124" data-name="Trazado 28124" d="M1325.11,128.132a5.4,5.4,0,0,1,5.4-5.4h-5.217a5.4,5.4,0,0,0-5.4,5.4Z" transform="translate(-1319.893 -122.731)" fill="#d39c72"/>
          </g>
        </g>
      </g>
      <path id="Trazado_28125" data-name="Trazado 28125" d="M1384.194,115.36h-4.224a6.717,6.717,0,0,0-6.579-5.4h-1.7a20.951,20.951,0,0,0,3-10.775V89.656a1.3,1.3,0,0,0-1.3-1.3h-6.8V85.559h1.4a1.3,1.3,0,0,0,1.3-1.3v-5.4a1.3,1.3,0,0,0-1.3-1.3h-1.4V71.591a1.3,1.3,0,0,0-2.609,0v5.958h-2.793v-17.6a1.4,1.4,0,0,1,2.793,0v5.958a1.3,1.3,0,0,0,2.609,0V59.949a4.005,4.005,0,0,0-8.01,0v17.6h-1.4a1.3,1.3,0,0,0-1.3,1.3v5.4a1.3,1.3,0,0,0,1.3,1.3h1.4v2.793h-6.8a1.3,1.3,0,0,0-1.3,1.3c0,3.369-.084,6.751.01,10.118a24.193,24.193,0,0,0-6.514-1.744,1.3,1.3,0,0,0-.321,2.589,21.728,21.728,0,0,1,12.609,6.164,1.3,1.3,0,0,0,.922.383h5.4a4.1,4.1,0,0,1,4.1,4.1,1.3,1.3,0,0,0,1.3,1.3h5.4a4.106,4.106,0,0,1,3.886,2.792h-72.588a4.105,4.105,0,0,1,3.886-2.792h5.4a1.3,1.3,0,0,0,1.3-1.3,4.1,4.1,0,0,1,4.1-4.1h5.4a1.318,1.318,0,0,0,.925-.384,21.379,21.379,0,0,1,12.592-6.161,1.3,1.3,0,0,0-.321-2.588,23.916,23.916,0,0,0-11.89,4.937V93.616a19.194,19.194,0,0,0,16.067-11.479,1.3,1.3,0,0,0-1.167-1.887,19.1,19.1,0,0,0-14.9,7.35V80.1c6.437-.916,11.228-9.943,11.569-15.616.3-4.972-3.582-8.017-8.208-5.251-2.4-4.171-6.926-4.17-9.329,0-4.625-2.769-8.505.314-8.209,5.251.348,5.793,5.151,14.7,11.569,15.616v7.5a19.1,19.1,0,0,0-14.9-7.35,1.3,1.3,0,0,0-1.167,1.888,20.177,20.177,0,0,0,4.2,6.129,1.3,1.3,0,0,0,1.83-1.859,16.14,16.14,0,0,1-2.638-3.4,16.054,16.054,0,0,1,11.759,7.888,16.269,16.269,0,0,1-4.822-1.459,1.3,1.3,0,1,0-1.135,2.349,18.927,18.927,0,0,0,6.877,1.826v10.944h-4.1a6.887,6.887,0,0,0-6.579,5.4h-4.223a6.717,6.717,0,0,0-6.579,5.4h-4.225a1.3,1.3,0,0,0,0,2.608h86.423a1.3,1.3,0,0,0,0-2.608Zm-25.7-35.2h8.2v2.793h-8.2Zm2.7,5.4h2.793v2.793h-2.793Zm5.4,20.329V95.058a1.3,1.3,0,0,0-2.609,0V104.7a12.11,12.11,0,0,0-2.793-.148v-9.5a1.3,1.3,0,1,0-2.608,0v9.5h-.864a24.306,24.306,0,0,0-4.525-3.42,18.2,18.2,0,0,1-.105-1.953V90.96h19v8.224a18.331,18.331,0,0,1-3.08,10.139,6.731,6.731,0,0,0-2.413-3.434Zm-27.831-22.88A16.056,16.056,0,0,1,1327,90.9a16.058,16.058,0,0,1,11.764-7.895Zm-4.79-22.122c3.184,2.159-1.81,11.555-3.395,13.358a20.842,20.842,0,0,0-.069-12.6C1331.914,60.732,1333.2,60.439,1333.973,60.887Zm-9.195-2.335c1.934,0,4.1,4.063,4.1,9.5s-2.163,9.5-4.1,9.5-4.1-4.063-4.1-9.5S1322.844,58.552,1324.779,58.552Zm-9.194,2.336c.517-.732,2.06-.155,3.463.756a20.838,20.838,0,0,0-.068,12.6C1318.22,73.382,1312.464,65.306,1315.584,60.887Z" transform="translate(-1296.467 -55.944)" fill="#00223d"/>
    </g>
    <rect id="Rectángulo_4405" data-name="Rectángulo 4405" width="113" height="113" transform="translate(167 8100)" fill="none"/>
  </g>
</svg>
