<svg xmlns="http://www.w3.org/2000/svg" width="113" height="113" viewBox="0 0 113 113">
  <g id="Grupo_17612" data-name="Grupo 17612" transform="translate(-350 -7080)">
    <g id="Grupo_17579" data-name="Grupo 17579" transform="translate(362 7091)">
      <g id="Grupo_17578" data-name="Grupo 17578" transform="translate(1.314 1.314)">
        <g id="Grupo_17576" data-name="Grupo 17576">
          <path id="Trazado_28051" data-name="Trazado 28051" d="M817.011,60.962v57.992a7.707,7.707,0,0,0,7.707,7.707H885.2a7.707,7.707,0,0,0,7.707-7.707V47.329a7.707,7.707,0,0,0-7.707-7.707H838.35Z" transform="translate(-817.011 -39.622)" fill="#f9f6f9"/>
          <g id="Grupo_17575" data-name="Grupo 17575">
            <path id="Trazado_28052" data-name="Trazado 28052" d="M829.508,132.1h-4.79a7.707,7.707,0,0,1-7.707-7.707V66.4l4.791-4.791V124.39A7.706,7.706,0,0,0,829.508,132.1Z" transform="translate(-817.011 -45.058)" fill="#dddaec"/>
            <path id="Trazado_28053" data-name="Trazado 28053" d="M817.011,60.962h13.634a7.707,7.707,0,0,0,7.706-7.707V39.622" transform="translate(-817.011 -39.622)" fill="#dddaec"/>
          </g>
        </g>
        <g id="Grupo_17577" data-name="Grupo 17577" transform="translate(48.096 14.222)">
          <path id="Trazado_28054" data-name="Trazado 28054" d="M920.668,72.9,902.251,91.316c.054-1-5.454-2.244-6.747-1.759.485-1.293-2.623-4.964-3.626-4.9-.358.021-1.816-6.577-2.812-6.523l18.417-18.417a4.091,4.091,0,0,1,5.786,0l7.4,7.4a4.093,4.093,0,0,1,0,5.786Z" transform="translate(-882.924 -58.516)" fill="#e28086"/>
          <path id="Trazado_28055" data-name="Trazado 28055" d="M891.878,84.655c-.358.021-1.816-6.577-2.812-6.523l18.417-18.417a4.091,4.091,0,0,1,5.786,0l1.359,1.359L892.667,83.037Z" transform="translate(-882.924 -58.516)" fill="#dd636e"/>
          <path id="Trazado_28056" data-name="Trazado 28056" d="M900.927,97.757l-12.48,4.031-4.735-4.735,4.031-12.48a3.635,3.635,0,0,1,3.6,4.906,3.634,3.634,0,0,1,4.678,4.679,3.634,3.634,0,0,1,4.906,3.6Z" transform="translate(-881.6 -64.957)" fill="#f6eeda"/>
          <path id="Trazado_28057" data-name="Trazado 28057" d="M885.664,99.006l-1.953-1.953,4.032-12.48a3.635,3.635,0,0,1,3.6,4.906l-3.36,6.884Z" transform="translate(-881.599 -64.957)" fill="#efe1c1"/>
          <path id="Trazado_28058" data-name="Trazado 28058" d="M887.936,105.324l-3.322,3.321a1.429,1.429,0,0,1-2.357-.53l-.79-2.213-.42-1.175a2.461,2.461,0,0,1,.578-2.565l1.575-1.574a3.351,3.351,0,0,1,4.088-.507,3.406,3.406,0,0,1,.647.507,3.349,3.349,0,0,1,0,4.736Z" transform="translate(-880.906 -68.676)" fill="#4a80aa"/>
          <path id="Trazado_28059" data-name="Trazado 28059" d="M887.289,100.081l-5.821,5.821-.419-1.175a2.458,2.458,0,0,1,.578-2.565l1.574-1.574A3.351,3.351,0,0,1,887.289,100.081Z" transform="translate(-880.906 -68.676)" fill="#407093"/>
        </g>
      </g>
      <path id="Trazado_28060" data-name="Trazado 28060" d="M903.348,61.081l-7.4-7.4a5.361,5.361,0,0,0-2.166-1.32V46.9a9.03,9.03,0,0,0-9.019-9.021H837.919a1.314,1.314,0,0,0-.929.385L815.651,59.6a1.311,1.311,0,0,0-.385.929v57.992a9.03,9.03,0,0,0,9.019,9.021h60.481a9.03,9.03,0,0,0,9.019-9.021V78.287l4.515-4.515a1.313,1.313,0,0,0-1.858-1.857L884.716,83.643a4.945,4.945,0,0,0-4.081-2.568,4.939,4.939,0,0,0-4.678-4.677,4.945,4.945,0,0,0-2.568-4.081L890.164,55.54a2.782,2.782,0,0,1,3.929,0l7.4,7.4a2.774,2.774,0,0,1,0,3.926l-1.357,1.357a1.313,1.313,0,0,0,1.857,1.858l1.357-1.356a5.4,5.4,0,0,0,0-7.643Zm-66.743-18.72V52.824a6.4,6.4,0,0,1-6.392,6.393H819.75Zm36.885,36.5a1.313,1.313,0,0,0,1.39.3,2.319,2.319,0,0,1,2.986,2.987,1.314,1.314,0,0,0,1.691,1.691,2.311,2.311,0,0,1,3.017,1.451l-8.591,2.775c.01-.124.017-.249.017-.376a4.663,4.663,0,0,0-4.662-4.662c-.126,0-.251.006-.376.016l2.775-8.59a2.314,2.314,0,0,1,1.451,3.018,1.315,1.315,0,0,0,.3,1.39Zm-17.652,21h14.134a32.4,32.4,0,0,1-2.782,3.784c-2.495,2.9-6.418,6.318-11.352,6.848Zm0-2.626V84.023h10.047l-.251.779-1.167,1.167a3.79,3.79,0,0,0-.885,3.935l1.21,3.388a2.742,2.742,0,0,0,4.522,1.017l2.915-2.914,1.877-.607a36.916,36.916,0,0,1-2.621,6.446ZM869.89,72.1a1.315,1.315,0,0,0-.32.525h0L866.735,81.4h-10.9V61.884a20.8,20.8,0,0,1,15.626,8.641Zm.888,17.031-3.322,3.322c-.023.062-.2.023-.19-.043l-1.21-3.388a1.152,1.152,0,0,1,.269-1.195l1.575-1.575a2.035,2.035,0,0,1,2.878,2.878ZM853.212,81.4H833.7a20.9,20.9,0,0,1,19.511-19.511Zm0,2.627V97.236H837.558A33.587,33.587,0,0,1,833.7,84.024Zm35.095-30.343L873.345,68.644a23.4,23.4,0,0,0-17.506-9.39v-3.7a1.314,1.314,0,1,0-2.627,0v3.7A23.526,23.526,0,0,0,831.07,81.4h-5.213a1.314,1.314,0,0,0,0,2.627h5.21a35.8,35.8,0,0,0,3.564,13.212h-2.285a1.314,1.314,0,0,0,0,2.627h3.663a36.126,36.126,0,0,0,3.441,5,1.313,1.313,0,1,0,2.026-1.672,32.915,32.915,0,0,1-2.4-3.329h14.14v10.631A15.626,15.626,0,0,1,845,106.743a1.314,1.314,0,0,0-1.669,2.029,18.327,18.327,0,0,0,9.883,4.359v3.724a1.314,1.314,0,0,0,2.627,0v-3.721c4.725-.418,9.314-3.083,13.345-7.776a35.862,35.862,0,0,0,3.858-5.5h3.664a1.314,1.314,0,1,0,0-2.627h-2.288a38.864,38.864,0,0,0,2.672-7.41l7.288-2.355.008,0,.021-.007h0a1.312,1.312,0,0,0,.525-.32l6.227-6.227v37.608a6.4,6.4,0,0,1-6.392,6.394H824.285a6.4,6.4,0,0,1-6.392-6.394V61.844h12.321a9.03,9.03,0,0,0,9.019-9.02V40.5h45.533a6.4,6.4,0,0,1,6.392,6.394V52.19a5.374,5.374,0,0,0-2.851,1.491Z" transform="translate(-815.266 -37.877)" fill="#00223d"/>
    </g>
    <rect id="Rectángulo_4374" data-name="Rectángulo 4374" width="113" height="113" transform="translate(350 7080)" fill="none"/>
  </g>
</svg>
