<svg xmlns="http://www.w3.org/2000/svg" width="113" height="113" viewBox="0 0 113 113">
  <g id="Grupo_17613" data-name="Grupo 17613" transform="translate(-181 -8382)">
    <g id="Grupo_17609" data-name="Grupo 17609" transform="translate(199 8400)">
      <path id="Trazado_28126" data-name="Trazado 28126" d="M1006.173,115.788l29.213,12.476,29.212-12.476V90.835l-29.212-12.476-29.213,12.476Z" transform="translate(-996.436 -51.885)" fill="#ffc15a"/>
      <path id="Trazado_28127" data-name="Trazado 28127" d="M1080.047,97.445V122.39l-29.212,12.476-.018-.008V109.914l29.213-12.476Z" transform="translate(-1011.885 -58.488)" fill="#ffcb7c"/>
      <path id="Trazado_28128" data-name="Trazado 28128" d="M1064.6,90.835h0l-29.212,12.476-29.213-12.476h0l29.213-12.476Z" transform="translate(-996.436 -51.885)" fill="#8690a6"/>
      <path id="Trazado_28129" data-name="Trazado 28129" d="M1080.056,97.437h0l-29.212,12.476,8.216,8.267,29.213-13.085Z" transform="translate(-1011.894 -58.487)" fill="#ffedd1"/>
      <path id="Trazado_28130" data-name="Trazado 28130" d="M1001.826,97.437h0l29.213,12.476-8.216,8.267L993.61,105.1Z" transform="translate(-992.089 -58.487)" fill="#ffedd1"/>
      <path id="Trazado_28131" data-name="Trazado 28131" d="M1080.056,86.461h0l-29.212-12.476,8.216-8.266L1088.273,78.8Z" transform="translate(-1011.894 -47.511)" fill="#ffc15a"/>
      <path id="Trazado_28132" data-name="Trazado 28132" d="M1001.885,86.461h0L1031.1,73.984l-8.216-8.266L993.669,78.8Z" transform="translate(-992.109 -47.511)" fill="#ffc15a"/>
      <path id="Trazado_28133" data-name="Trazado 28133" d="M1050.582,67.812V40.2h-14V67.812h-6.777l13.776,13.776,13.776-13.776Z" transform="translate(-1004.614 -38.682)" fill="#91def5"/>
      <path id="Trazado_28134" data-name="Trazado 28134" d="M1061.678,76.827l7.021-6.545a1.521,1.521,0,0,0-.417-2.5l-29.51-13.2V39.4a1.521,1.521,0,0,0-1.522-1.521h-14a1.521,1.521,0,0,0-1.521,1.521V54.577l-29.511,13.2a1.521,1.521,0,0,0-.416,2.5l7,6.528-7.042,6.563a1.522,1.522,0,0,0,.416,2.5l7.316,3.277v12.629a1.52,1.52,0,0,0,.923,1.4l29.212,12.476a1.522,1.522,0,0,0,1.2,0l8.995-3.841a1.522,1.522,0,0,0-1.195-2.8l-6.876,2.936V92.993l5.616,5.65a1.525,1.525,0,0,0,1.7.317l18.853-8.445v10.261l-8.1,3.458a1.521,1.521,0,1,0,1.195,2.8l9.021-3.853a1.521,1.521,0,0,0,.925-1.4V89.151l7.316-3.277a1.521,1.521,0,0,0,.415-2.5Zm-32.5,5.032a1.521,1.521,0,0,0,2.152,0l10.782-10.782,13.462,5.75-25.339,10.822-25.321-10.814,13.482-5.758Zm35.769-12.238-5.812,5.417-14.7-6.28.676-.676a1.521,1.521,0,0,0-1.076-2.6h-5.256V57.91Zm-40.171-2.614V40.92h4.879V55.145a1.521,1.521,0,1,0,3.043,0V40.92h3.033V67.007a1.522,1.522,0,0,0,1.522,1.521h3.1l-10.1,10.1-10.1-10.1h3.1A1.521,1.521,0,0,0,1024.775,67.007Zm-3.043-9.1v7.575h-5.256a1.522,1.522,0,0,0-1.076,2.6l.677.676-14.7,6.28-5.812-5.417Zm-20.4,20.7,26.24,11.206-5.893,5.93L995.52,84.033Zm1.209,11.9,18.853,8.445a1.525,1.525,0,0,0,1.7-.317l5.616-5.65v18.958l-26.169-11.176Zm56.312-3.75h0l-20.067,8.988-5.893-5.93,26.24-11.206,5.813,5.418Z" transform="translate(-991.283 -37.877)" fill="#00223d"/>
      <path id="Trazado_28135" data-name="Trazado 28135" d="M1072.36,142.831a1.524,1.524,0,1,0,1.075.446A1.532,1.532,0,0,0,1072.36,142.831Z" transform="translate(-1018.813 -74.195)" fill="#00223d"/>
      <path id="Trazado_28136" data-name="Trazado 28136" d="M1051.479,74.306a1.52,1.52,0,1,0-1.076-.445A1.532,1.532,0,0,0,1051.479,74.306Z" transform="translate(-1011.587 -49.43)" fill="#00223d"/>
    </g>
    <rect id="Rectángulo_4407" data-name="Rectángulo 4407" width="113" height="113" transform="translate(181 8382)" fill="none"/>
  </g>
</svg>
