<svg xmlns="http://www.w3.org/2000/svg" width="113" height="113" viewBox="0 0 113 113">
  <g id="Grupo_17610" data-name="Grupo 17610" transform="translate(-782 -7080)">
    <g id="Grupo_17581" data-name="Grupo 17581" transform="translate(796 7094)">
      <path id="Trazado_28066" data-name="Trazado 28066" d="M1038.9,262.672V243.057l-8.406-16.812h-22.417l-1.4,18.213-9.807,21.016,8.406-2.8,9.106-13.009a8.389,8.389,0,0,0,1.088-2.162l3.816-11.449,9.807,9.807,2.8,19.614Z" transform="translate(-995.466 -187.015)" fill="#718799"/>
      <path id="Trazado_28067" data-name="Trazado 28067" d="M1043.541,206.093a11.049,11.049,0,0,1-3.584,8.148l-6.648,6.1-2.376-2.376h-21.016v-7a5.606,5.606,0,0,1-5.6-5.6v-4.2a8.406,8.406,0,0,1,8.406-8.407h20.214a7,7,0,0,1,5.7,2.933l2.851,3.991A11.035,11.035,0,0,1,1043.541,206.093Z" transform="translate(-997.307 -178.731)" fill="#ffa100"/>
      <path id="Trazado_28068" data-name="Trazado 28068" d="M1079.508,258.113v.519h-.518a39.639,39.639,0,0,1-26.1-9.807l-50.437-63.047v-4.2h4.2l63.046,50.437a39.633,39.633,0,0,1,9.807,26.1Z" transform="translate(-996.847 -175.97)" fill="#4f5dff"/>
      <path id="Trazado_28069" data-name="Trazado 28069" d="M996.867,277.44v4.2h14.01v-2.8l-5.6-4.2Z" transform="translate(-995.466 -198.981)" fill="#d1e4ff"/>
      <path id="Trazado_28070" data-name="Trazado 28070" d="M1028.989,191.842h0a4.2,4.2,0,0,1-4.2-4.2v-1.4l2.8-2.8h5.6v4.2A4.2,4.2,0,0,1,1028.989,191.842Z" transform="translate(-1002.37 -176.43)" fill="#ffceb6"/>
      <path id="Trazado_28071" data-name="Trazado 28071" d="M1033.193,181.6l1.161-2.324a2.266,2.266,0,0,0,.239-1.014h0a2.267,2.267,0,0,0-2.267-2.266h-3.337a4.2,4.2,0,0,0-4.2,4.2v4.2l2.8-2.8Z" transform="translate(-1002.37 -174.589)" fill="#c47220"/>
      <path id="Trazado_28072" data-name="Trazado 28072" d="M1026.647,206.712l2.512-2.512a.991.991,0,0,1,.7-.29h0a.99.99,0,0,1,.991.991h0v1.811h4.2v4.2a2.8,2.8,0,0,1-2.8,2.8h-5.6Z" transform="translate(-1002.83 -181.493)" fill="#ffceb6"/>
      <rect id="Rectángulo_4399" data-name="Rectángulo 4399" width="11.208" height="7.005" transform="translate(12.609 25.219)" fill="#ffa100"/>
      <path id="Trazado_28073" data-name="Trazado 28073" d="M1096.076,274.681v.519h-.518a39.639,39.639,0,0,1-26.1-9.807l7.415-7.415,1.983-1.982,7.415-7.415a39.634,39.634,0,0,1,9.807,26.1Z" transform="translate(-1013.415 -192.538)" fill="#ffc431"/>
      <path id="Trazado_28074" data-name="Trazado 28074" d="M1034.113,222.522l-4.412,1.1a1.573,1.573,0,0,0-1.192,1.527h0a1.573,1.573,0,0,0,1.573,1.573h1.229l-2.8,2.8,2.306,2.306a2.8,2.8,0,0,0,3.875.084l4.6-4.218Z" transform="translate(-1003.29 -186.095)" fill="#ffceb6"/>
      <path id="Trazado_28075" data-name="Trazado 28075" d="M1043.4,277.44v4.2h14.01v-2.8l-7.005-4.2Z" transform="translate(-1006.972 -198.981)" fill="#d1e4ff"/>
      <path id="Trazado_28076" data-name="Trazado 28076" d="M1051.365,208.8a11.049,11.049,0,0,1-3.584,8.148l-6.648,6.1-5.178-5.179,14.164-14.164A11.009,11.009,0,0,1,1051.365,208.8Z" transform="translate(-1005.131 -181.442)" fill="#ffa100"/>
      <circle id="Elipse_1079" data-name="Elipse 1079" cx="2.802" cy="2.802" r="2.802" transform="translate(67.25 67.25)" fill="#ffa100"/>
      <rect id="Rectángulo_4400" data-name="Rectángulo 4400" width="2.802" height="2.802" transform="translate(56.041 81.261)" fill="#00223d"/>
      <path id="Trazado_28077" data-name="Trazado 28077" d="M1068.914,229.248a1.37,1.37,0,0,0-.179-.171l-27.444-21.956a12.441,12.441,0,0,0-.97-12.872l-2.851-3.991a8.419,8.419,0,0,0-6.84-3.52h-3.578a5.612,5.612,0,0,0,.178-1.4v-3.873l1.014-2.027a3.669,3.669,0,0,0-3.281-5.309h-3.337a5.611,5.611,0,0,0-5.6,5.6v5.6a5.572,5.572,0,0,0,.177,1.4h-.277v.087l-10.233-8.187a1.4,1.4,0,0,0-.875-.307h-4.2a1.4,1.4,0,0,0-1.4,1.4v4.2a1.4,1.4,0,0,0,.306.875l3.9,4.872a9.719,9.719,0,0,0-2.8,6.863v4.2a7.018,7.018,0,0,0,5.6,6.865V213.3l-1.378,17.906-9.7,20.785a1.4,1.4,0,0,0-.131.592v4.2a1.4,1.4,0,0,0,1.4,1.4h14.011a1.4,1.4,0,0,0,1.4-1.4v-2.8a1.4,1.4,0,0,0-.561-1.122l-4.519-3.39,8.329-11.9a9.774,9.774,0,0,0,1.269-2.522l3.1-9.3,7.874,7.874,2.722,19.053v4.1a1.4,1.4,0,0,0,1.4,1.4h14.01a1.4,1.4,0,0,0,1.4-1.4v-2.8a1.405,1.405,0,0,0-.68-1.2l-6.325-3.795V235.216l10.115,12.643a1.442,1.442,0,0,0,.172.179,41.019,41.019,0,0,0,12.124,7.352h-5.6v2.8h21.016a1.4,1.4,0,0,0,1.4-1.4v-.518A41.028,41.028,0,0,0,1068.914,229.248Zm7.341,26.131a38.226,38.226,0,0,1-23.136-8.486l6.334-6.334,1.812,1.812a4.2,4.2,0,1,0,1.981-1.981l-1.812-1.812,6.334-6.334A38.219,38.219,0,0,1,1076.255,255.379Zm-11.2-12.6a1.4,1.4,0,1,1-1.4,1.4A1.4,1.4,0,0,1,1065.058,242.78Zm-29.868-50.892,2.851,3.991a9.654,9.654,0,0,1-1.332,12.728l-5.66,5.189-3.238-3.239,6.793-6.793a1.4,1.4,0,0,0,0-1.981,1.338,1.338,0,0,0-.115-.1l-13.462-10.77a5.7,5.7,0,0,0,.6.033,5.576,5.576,0,0,0,3.7-1.4h5.3A5.615,5.615,0,0,1,1035.19,191.888Zm-9.731,27.032a1.4,1.4,0,0,1-1.938-.042l-1.315-1.315,1.811-1.812a1.4,1.4,0,0,0-.991-2.391H1021.8a.173.173,0,0,1-.042-.34l3.643-.91,3.582,3.582Zm-6.37-6.961h-10.073v-4.2h8.854l2.336,2.92A2.966,2.966,0,0,0,1019.089,211.958Zm1.136-12.029,1.4-1.4v.82a1.4,1.4,0,0,0,1.4,1.4h2.8v2.8a1.4,1.4,0,0,1-1.4,1.4h-4.2Zm4.887,9.363-2.02.505-1.633-2.042h2.969a4.208,4.208,0,0,0,4.2-4.2v-2.97l2.884,2.307ZM1024.4,197.2l.936.749h-.91v-.41a2.436,2.436,0,0,0-.026-.339Zm-5.578-11.86v-.821l1.981-1.981h3.623v2.8a2.8,2.8,0,0,1-5.6,0Zm2.8-8.407h3.337a.865.865,0,0,1,.775,1.253l-.775,1.549h-4.738a1.4,1.4,0,0,0-.991.41l-.41.41v-.82A2.806,2.806,0,0,1,1021.626,176.931Zm-19.615,4.2h2.311l17.524,14.02a2.372,2.372,0,0,0-1.5.691l-2.1,2.1h-4.631l-11.6-14.5Zm1.4,19.614v-4.2a6.95,6.95,0,0,1,1.769-4.653l4.843,6.054h-2.409v2.8h9.807v4.2h-9.807A4.208,4.208,0,0,1,1003.412,200.749Zm5.6,53.94v.7H997.808V253.6l6.752-2.251Zm35.026.093v.608h-11.208v-1.854l5.479-2.191Zm-7.005-5.944-4.47,1.788-2.55-17.85a1.4,1.4,0,0,0-.4-.793l-9.807-9.807a1.4,1.4,0,0,0-2.319.547l-3.817,11.449a6.983,6.983,0,0,1-.906,1.8l-8.84,12.629-4.877,1.626,8.43-18.064a1.41,1.41,0,0,0,.127-.485l1.3-16.92h10.362a3.007,3.007,0,0,0,.871.9l-.912.912a1.4,1.4,0,0,0,0,1.982l2.306,2.306a4.194,4.194,0,0,0,5.812.126l.636-.583,9.049,11.311Zm-6.979-30.333,8.543-7.832a12.112,12.112,0,0,0,1.14-1.2l26.021,20.816-14.6,14.6Z" transform="translate(-995.006 -174.129)" fill="#00223d"/>
    </g>
    <rect id="Rectángulo_4403" data-name="Rectángulo 4403" width="113" height="113" transform="translate(782 7080)" fill="none"/>
  </g>
</svg>
