<svg id="Layer_1" data-name="Layer 1" xmlns="http://www.w3.org/2000/svg" xmlns:xlink="http://www.w3.org/1999/xlink" width="309.77" height="202.29" viewBox="0 0 309.77 202.29">
  <defs>
    <style>
      .cls-1 {
        fill: none;
      }

      .cls-2 {
        clip-path: url(#clip-path);
      }

      .cls-3 {
        fill: #f4efe1;
      }

      .cls-4 {
        fill: #fff;
      }

      .cls-5 {
        fill: #b0c181;
      }

      .cls-6 {
        fill: #7b7b2a;
      }

      .cls-7 {
        fill: #93b72a;
      }

      .cls-8 {
        fill: #ff8555;
      }

      .cls-9 {
        fill: #95503d;
      }

      .cls-10 {
        fill: #9c2e48;
      }

      .cls-11 {
        fill: #5a3b47;
      }

      .cls-12 {
        fill: #b5d949;
      }

      .cls-13 {
        fill: #7c9c08;
      }

      .cls-14 {
        fill: #ffcf31;
      }

      .cls-15 {
        fill: #ffb125;
      }

      .cls-16 {
        fill: #f99683;
      }

      .cls-17 {
        fill: #ff6b40;
      }

      .cls-18 {
        fill: #ad3e54;
      }

      .cls-19 {
        fill: #d0ab40;
      }
    </style>
    <clipPath id="clip-path">
      <rect class="cls-1" width="309.77" height="202.29"/>
    </clipPath>
  </defs>
  <g class="cls-2">
    <g>
      <g>
        <g>
          <path class="cls-3" d="M63.23,201.59H304c-.67-28.53-2-58.2-16-83-5.9-10.45-14.6-20.11-26.15-23.37s-26,2.07-29.61,13.49C216.5,85.32,198,63.3,174.71,47.38S122.94,22,94.93,25.22s-55,20.46-66.11,46.39c-9.23,21.56-7,46.42-.67,69C34.53,163.5,45.64,186.08,63.23,201.59Z"/>
          <g>
            <path class="cls-4" d="M141.8,75.16c-2.55.56-5.1,1.75-7.66,1.24-3.78-.76-6.38-5-10.24-5-3.43,0-6.6,3.49-9.81,2.28-1.36-.52-2.29-1.78-3.52-2.56-2.87-1.84-6.66-.77-9.75.66S94.49,75,91.13,74.41c-3.84-.63-6.48-4.11-9.86-6-5.2-3-11.78-2.13-17.43-.11-3.19,1.13-7.25,2.4-9.51-.11a11.57,11.57,0,0,1-1.68-3.48c-2.84-6.94-11.41-10-18.83-9-6.42.9-12.18,4.18-17.68,7.71V77.94H134.85a46.77,46.77,0,0,1,13.77-.49C147.62,75,144.35,74.6,141.8,75.16Z"/>
            <path class="cls-4" d="M291.7,121.21a17.15,17.15,0,0,0-4.57-4.87c-2.83-1.89-7-2.29-9.46,0-1.48,1.37-2.75,3.7-4.72,3.28-1.14-.24-1.83-1.37-2.74-2.1-2.18-1.77-5.37-1.13-8.09-.41l-11.14,3a27.18,27.18,0,0,1-6.16,1.14c-2.77.08-5.49-.69-8.23-1.13-9-1.46-18.1.54-27,2.52,27.24,0,54.42-.05,82.08.55Z"/>
          </g>
        </g>
        <g>
          <g>
            <path class="cls-5" d="M18.74,188.14c-3-.26-4.7-4.11-3.81-7s3.46-5,6-6.73,5.21-3.47,6.69-6.14c2.07-3.73,2-9.36,6-10.85,2.95-1.1,6.24,1.05,9.33.45,4.47-.86,6.08-6.63,10-8.93,7.67-4.48,16.84,6.63,25.4,4.24,10.28-2.86,9.38-21.6,19.91-23.37,7.92-1.33,14.63,9,22.4,7,3.42-.9,5.82-4,9.12-5.34,7.06-2.78,14.51,3.7,22.09,3.46,6-.18,11-4.51,16.34-7.34,15.92-8.44,35.11,3.84,52.4,8.92,10.52,3.09,21.25-1.2,31.77,1.89,6.58,1.93,13.24,3.9,19.14,7.39,4.94,2.92,9.21,6.83,13.45,10.7,3.58,3.28,7.24,6.67,9.4,11,3.6,7.21,2.53,15.75,1.38,23.72-37-31.11-87.74-42.09-136-39.58s-95,17.29-140.86,32.69Z"/>
            <g>
              <g>
                <path class="cls-6" d="M43.69,161.86c1.8-.78,2.84-3,4.78-3.29,1.48-.2,2.85.86,4.34.88s3-1.19,4.08-2.44,2.07-2.65,3.59-3.28c1.85-.76,4-.14,5.86.48l18,5.85a123.53,123.53,0,0,0-34.54,4.74,78.11,78.11,0,0,0-30.4,16.7c-.73-1.19-.07-2.78.93-3.75s2.31-1.59,3.29-2.58c1.25-1.26,1.92-3.06,3.33-4.13,1.25-.95,2.93-1.19,4.19-2.12,2.39-1.76,2.9-5.61,5.68-6.67C39,161.43,41.57,162.78,43.69,161.86Z"/>
                <g>
                  <path class="cls-6" d="M54.25,115.28a1.06,1.06,0,0,0-.46-1.71c.44.11.71-.58.44-.95a1.74,1.74,0,0,0-1.22-.5.6.6,0,1,0-.93-.75.71.71,0,0,0-1.3-.58.64.64,0,0,0-.4-.74.63.63,0,0,0-.75.37,1.71,1.71,0,0,0-1.37-.49,3,3,0,0,0-.42,0,.4.4,0,0,0,.16-.32.21.21,0,0,0,0-.11.87.87,0,0,0,.5-.21.85.85,0,0,0,.11-1.06.93.93,0,0,0,1.13-.35.92.92,0,0,0-.2-1.17.89.89,0,0,0,.39-.95.87.87,0,0,0-.79-.65.9.9,0,0,0,.15-1.79.84.84,0,0,0,.27-1,.83.83,0,0,0-.93-.44,1.2,1.2,0,0,0-1.31-1.78.81.81,0,1,0-1.45-.68,1.08,1.08,0,1,0-2-.84,1.53,1.53,0,0,0-1.48-1.46c-.09.27-.19.53-.28.8a.88.88,0,0,0-1.74.22,1.21,1.21,0,0,0-1.23-.5,1.22,1.22,0,0,0-.92,1,.56.56,0,0,0-1.09.23.68.68,0,0,0-.76,0,.74.74,0,0,0-.12-.83L36.14,98a1,1,0,0,0,.21-.5,1.08,1.08,0,0,0-.77-1.12.73.73,0,0,0-.65-1.3A.77.77,0,1,0,33.86,94,2.9,2.9,0,0,0,33,92.26a1.11,1.11,0,0,0-1.66.21,1.49,1.49,0,0,0-1.19-1,1.45,1.45,0,0,0-1.39.65,1.29,1.29,0,0,0-2.17.07.93.93,0,0,0-1.82.23,1.07,1.07,0,0,0-1.13-.31,1,1,0,0,0-.7.94,1,1,0,0,0-1,1,.77.77,0,0,0-.87.87c-.17-.3-.67-.1-.82.21s-.15.7-.36,1l0,0a.73.73,0,0,0-.26-.38.55.55,0,0,0-.66.1,1.23,1.23,0,1,0-2.44,0,1.25,1.25,0,0,0-1.26-.81,1.23,1.23,0,0,0-1.09,1,1.39,1.39,0,0,0-2.36,1,1.09,1.09,0,0,0-1.48,1,1.15,1.15,0,0,0-.94,1.6,1.23,1.23,0,0,0-1.09.83A3.48,3.48,0,0,0,8.18,102l.06,1.77a.84.84,0,0,0,0,1c-.39.14-.36.73-.08,1a4.77,4.77,0,0,0,.8.6,2.17,2.17,0,0,0-1.27.92.57.57,0,0,0-.77.81.61.61,0,0,0-.81.12.6.6,0,0,0,.13.81.64.64,0,0,0-.79.29.62.62,0,0,0,.25.79.62.62,0,0,0-.64.42.61.61,0,0,0,.3.71.71.71,0,0,0,.22,1.39.49.49,0,1,0,.49.83.85.85,0,0,0,0,.87,6,6,0,0,0-1.2.86.65.65,0,0,0-.67.86.68.68,0,0,0-1,.36,1.7,1.7,0,0,0,.09,1.21.62.62,0,0,0-.49.5.64.64,0,0,0,.31.64.8.8,0,0,0,.25,1.34.71.71,0,0,0,0,.65,1.23,1.23,0,0,0-.27,2,2.62,2.62,0,0,0-.36,1.42l.63.2a.81.81,0,0,0,.41,1.38,1,1,0,0,0,.61,1.54A1.24,1.24,0,0,0,5.51,129a.86.86,0,0,0,.56,1.43,1,1,0,0,0,.86,1.39.89.89,0,0,0,1,1.45c-.33.27-.07.84.32,1s.84.17,1.22.38a6.36,6.36,0,0,1,.92.88c.32.29.85.46,1.15.16a.86.86,0,0,0,.2,1.06.84.84,0,0,0,1.07,0c-.21.15-.14.51.06.67a1.26,1.26,0,0,0,.74.19l.3,0a19.84,19.84,0,0,0,6.8,7.95A55.28,55.28,0,0,0,25.49,153c.26,7.65.5,15.52,0,23.47h3.93a205.23,205.23,0,0,1-1.57-30.59,18,18,0,0,0,3.87-2.68,8.5,8.5,0,0,0,8.93-7.17,1.27,1.27,0,0,0,1.84-1,1.35,1.35,0,0,0,1.6-1.06,1,1,0,0,0,1-1.39,1.06,1.06,0,0,0,1.17-.39,1.08,1.08,0,0,0,0-1.24,1,1,0,0,0,1.08-.48,1,1,0,0,0-.27-1.16,1,1,0,0,0,.54-1.78,1.19,1.19,0,0,0,.08-1.51.29.29,0,0,0,.4-.24.28.28,0,0,0-.38-.26L49,124.23h0a.57.57,0,0,0,.42-.78,1.45,1.45,0,0,0,2.6-1.21,1.25,1.25,0,0,0,1-1.79,2.64,2.64,0,0,0,.83-3.18,1.11,1.11,0,0,0,.86-.87A1.14,1.14,0,0,0,54.25,115.28ZM14.4,137.62a2,2,0,0,0,2.4.19,1.11,1.11,0,0,0,1.7,0,.29.29,0,0,0,.07.08A25.53,25.53,0,0,0,20,143.85,15.09,15.09,0,0,1,14.4,137.62ZM25.73,151a15.93,15.93,0,0,1-2-2.14,23.23,23.23,0,0,1-3.83-6.92,25.4,25.4,0,0,1-1-3.84.63.63,0,0,0,.67-.48,1.53,1.53,0,0,0,1,.1,1.05,1.05,0,0,0,.11.43.64.64,0,0,0,.75.24.74.74,0,1,0,1.25.79.62.62,0,0,0,1.23.06.93.93,0,0,0,.92.79.89.89,0,0,0,.61-.3C25.49,143.1,25.79,147.58,25.73,151Zm2-7c.05-1.74-.14-3.44-.07-5.17a1.51,1.51,0,0,0,1.32.46.77.77,0,0,0,.42-1,.73.73,0,0,0,1.29-.59c.25.43,1.07.14,1-.35a.86.86,0,0,0,.82-.18.67.67,0,0,0,.17-.63.56.56,0,0,0,.68-.1.76.76,0,0,0,1.28.49.5.5,0,0,0,.24.45A15,15,0,0,1,27.71,144Zm10.45-4.08a7.63,7.63,0,0,1-5.62,2.31,26.7,26.7,0,0,0,3.14-5,1.45,1.45,0,0,0,2.08-.51A2,2,0,0,0,40,136.7,8.46,8.46,0,0,1,38.16,139.93Z"/>
                  <g>
                    <path class="cls-7" d="M11.69,111.48a3.26,3.26,0,0,1,1.3-2.32,2,2,0,0,0-1.5.77A1.14,1.14,0,0,0,11.69,111.48Z"/>
                    <path class="cls-7" d="M9.7,113.93A2.17,2.17,0,0,1,10,111.5a1.29,1.29,0,0,0-1.19,1.09A1.27,1.27,0,0,0,9.7,113.93Z"/>
                    <path class="cls-7" d="M13.45,111.58a1.94,1.94,0,0,0-1.08,3.56,3.23,3.23,0,0,1-.06-2A2.87,2.87,0,0,1,13.45,111.58Z"/>
                    <path class="cls-7" d="M10.18,115.68a1.21,1.21,0,0,0,.13,2.32A3,3,0,0,1,10.18,115.68Z"/>
                    <path class="cls-7" d="M8.34,118.3A1.45,1.45,0,0,0,8.88,120c.14.09.36.13.42,0s-.05-.22-.13-.31C8.85,119.24,8.15,118.76,8.34,118.3Z"/>
                    <path class="cls-7" d="M13.47,119a1.14,1.14,0,0,0-.29,2.06.35.35,0,0,0,.26.07c.16-.05.17-.27.14-.44A10.44,10.44,0,0,0,13.47,119Z"/>
                    <path class="cls-7" d="M16.38,101.75a1.19,1.19,0,0,0-.47,2.17,1.68,1.68,0,0,1,0-1.13A4.49,4.49,0,0,1,16.38,101.75Z"/>
                    <path class="cls-7" d="M18.85,99a1.13,1.13,0,0,0-1.26,1.88C17.51,100.19,18.34,99.37,18.85,99Z"/>
                    <path class="cls-7" d="M18.93,101a1.19,1.19,0,0,0-1.15.67A1.21,1.21,0,0,0,18,103,2.35,2.35,0,0,1,18.93,101Z"/>
                    <path class="cls-7" d="M20.81,99.37a1.79,1.79,0,0,0-.23,1.18c0,.17.14.38.31.33a2.7,2.7,0,0,1,1.35-1.68.63.63,0,0,0-.74-.38A1.14,1.14,0,0,0,20.81,99.37Z"/>
                    <path class="cls-7" d="M19.24,105.17a5.73,5.73,0,0,1,.06-1.24,1.8,1.8,0,0,1,.58-1.06,1.31,1.31,0,0,0-1.12.93A1.33,1.33,0,0,0,19.24,105.17Z"/>
                    <path class="cls-7" d="M22.23,97.38a1.57,1.57,0,0,1,1.62-1.06A1,1,0,0,0,22.46,96,1,1,0,0,0,22.23,97.38Z"/>
                    <path class="cls-7" d="M25.33,98.93a1.09,1.09,0,0,0-1.18,1.83,1.13,1.13,0,0,1,.21-1.12A2.74,2.74,0,0,1,25.33,98.93Z"/>
                  </g>
                </g>
              </g>
              <path class="cls-6" d="M293.6,175.6a12.74,12.74,0,0,0,.3-4.3,4.34,4.34,0,0,0-2.36-3.41c-.66-.28-1.44-.37-1.89-.92-.65-.79-.26-2.17-1-2.82-1-.79-2.38.38-3.61.21-1.87-.26-2-3.12-3.68-4.06-1.16-.66-2.64-.12-4-.34-3.3-.53-4.23-5.16-7.25-6.59a4,4,0,0,1-1.57-.91c-.53-.65-.36-1.59-.54-2.41-.37-1.69-2.21-2.64-3.91-3s-3.52-.34-5-1.18c-1.92-1.06-3.29-3.41-5.48-3.41-1.19,0-2.27.75-3.46.83a8.51,8.51,0,0,1-3.2-.79,13.29,13.29,0,0,0-11.13,1.25c10.43,1.85,20.24,6.35,29.22,12s17.18,12.37,25.36,19.09Z"/>
              <g>
                <path class="cls-6" d="M213.47,136.64c-2.47-1.83-5.33-3.77-8.37-3.25-1.64.28-3.18,1.27-4.84,1.1-2-.21-3.78-2.09-5.73-1.58-1.09.29-1.9,1.27-3,1.45-1.48.23-2.74-1.05-4.19-1.43-3.24-.84-5.92,2.88-9.24,3.31-3.07.39-6.14-2.11-9.07-1.14-1.81.59-3.22,2.44-5.12,2.36-1.26-.06-2.4-1-3.65-.84s-2.09,1.27-3.18,1.85c-1.81,1-4,.36-6.07.38-4.85.05-8.85,3.64-12.34,7l49.55-7.71c7.67-1.19,15.45-2.39,23.17-1.57Z"/>
                <g>
                  <path class="cls-6" d="M192,96.75a1.4,1.4,0,0,0-1.08-.8,1.2,1.2,0,0,0,.48-1.38,1.18,1.18,0,0,0-1.24-.75,1.21,1.21,0,0,0-1.25-2,1,1,0,0,0-.17-1.28,1,1,0,0,0-1.29,0,1.24,1.24,0,0,0-.57-1.23,1.26,1.26,0,0,0-1.36,0,2.37,2.37,0,0,0-2.72-.31.59.59,0,0,0-.28-.19,3.15,3.15,0,0,0,3.16-2.45,1.07,1.07,0,0,0,1.21-.5,1.08,1.08,0,0,0-.25-1.29,1.36,1.36,0,0,0,.39-2.58,1,1,0,0,0-.24-1.93,1.11,1.11,0,1,0-.88-2,1.62,1.62,0,0,0-1.34-.69.81.81,0,0,0,.36-.47.9.9,0,0,0-.63-1,.9.9,0,0,0,.32-1.34l-.61,0a.85.85,0,0,0-.26-1.67c.46,0,.4-.82,0-1a1.47,1.47,0,0,0-1.26.35c.31-.58-.44-1.26-1.09-1.16a2.75,2.75,0,0,0-1.53,1.17,2.49,2.49,0,0,0,.63-1.53l-.58-.16a1,1,0,1,0-1.1-1.59,1.32,1.32,0,1,0-1.47-2.19,1.34,1.34,0,0,0-2.13-1.63,1.22,1.22,0,0,0-.76-1.21,1.24,1.24,0,0,0-1.38.41,1.43,1.43,0,0,0-1.25-1,1.45,1.45,0,0,0-1.37.85,1.48,1.48,0,0,0-2.19.87s-.06-.06-.1-.09a1.21,1.21,0,0,0-.8-1.44,1.19,1.19,0,0,0-1.41.83.7.7,0,1,0-1.39,0,1.37,1.37,0,0,0-2.2.15,1.29,1.29,0,0,0-2,1,1.86,1.86,0,0,0-1.95-.37,1.88,1.88,0,0,0-1.12,1.64,1.24,1.24,0,0,0-1.86,1.41,1.52,1.52,0,0,0-1.46.95,1.51,1.51,0,0,0,.47,1.67,1,1,0,0,0-.72,1.63,1.06,1.06,0,0,0-1.18.47,1,1,0,0,0,.12,1.14c-.22-.17-.7,0-.61.35a1,1,0,0,0-.94-.81,1,1,0,0,0-.88.88,1,1,0,0,0-1-.8,1,1,0,0,0-.88.88,1.27,1.27,0,0,0-1.78,1.69.9.9,0,0,0-1.11-.41,1.77,1.77,0,0,0,0,2.17,1.23,1.23,0,0,0-.92,2.28,1,1,0,0,0-.62,1.07,1,1,0,0,0,.35.59s-.06,0-.08,0a.74.74,0,0,0-.1.6.92.92,0,0,0-.57,0,1,1,0,0,0-.48,1.19,1.05,1.05,0,0,0-1.85.77.94.94,0,0,0-.35,1.83,2.79,2.79,0,0,0-1.76,1.19,1.33,1.33,0,0,0,.52,1.85,2.27,2.27,0,0,0,.32,3.85,3.45,3.45,0,0,0-1,1.9c0,.72.63,1.5,1.32,1.3a1.66,1.66,0,0,0,1,2.5,1.56,1.56,0,0,0-.28,1.35.65.65,0,0,0,.73.3,1,1,0,0,0,1.39,1.27,1,1,0,0,0,1.23,1.51,1,1,0,0,0,.26,1.21,1,1,0,0,0,1.23,0,.79.79,0,0,0,1.4.72,1,1,0,0,0,1.81.22,1.15,1.15,0,0,0,.84,1,1.17,1.17,0,0,0,1.2-.43,1.15,1.15,0,0,0,2-.41,1,1,0,0,0,1.65.32,4.86,4.86,0,0,0,1.37-.23,2,2,0,0,0,.14,2.39,1.13,1.13,0,0,0,1.67,1.44,1.33,1.33,0,0,0,1.47,1.57l.21-.33.07.11a1.23,1.23,0,0,0,.88,1.26,2.17,2.17,0,0,0,.51,0,7.56,7.56,0,0,0,1.73,1.18,10.82,10.82,0,0,0,4.7,1.14,19.7,19.7,0,0,0,2.63,1.61,118.23,118.23,0,0,1-.21,20.81h3.22c-.41-6.64-.49-13.65-.6-20a12.73,12.73,0,0,0,1.45-1,5.18,5.18,0,0,0,.75-.73A10.34,10.34,0,0,0,181.5,108a1,1,0,0,0,.58-.13,1.06,1.06,0,0,0,.46-1.19.88.88,0,0,0,1.25.08.87.87,0,0,0,0-1.25,2.27,2.27,0,0,0,1.34-2.45l.38.86.92-.27c-.13.51.61.89,1.08.66a2.11,2.11,0,0,0,.9-1.26c.08.2.16.4.25.6a2.14,2.14,0,0,0,1.49-1.75.74.74,0,0,0,.85-.26.72.72,0,0,0-.09-.89,2,2,0,0,0,.44-3.05C191.76,97.79,192.11,97.19,192,96.75Zm-29.18,16a6.09,6.09,0,0,1-1.31-.81c.19-.19.54-.53.56-.8a1,1,0,0,0,1.05,1,1,1,0,0,0,.82-1.17,1.19,1.19,0,0,0,.16.08,15,15,0,0,0,2.42,2.67A9.31,9.31,0,0,1,162.78,112.77Zm7.56,2.08a14.48,14.48,0,0,1-5.59-3.65,1.23,1.23,0,0,0,1-.53,1.36,1.36,0,0,0,1.83-.69,1,1,0,0,0,1.8-.75.7.7,0,0,0,.84.34A23,23,0,0,1,170.34,114.85Zm2.24-.06a43.42,43.42,0,0,1-.13-7.57s.61.23.61.22c.24.19.31.09.6,0a1.67,1.67,0,0,0,2.72.59c-.27.36,0,.82.36,1.06a10.28,10.28,0,0,1-.69,2.23A6.57,6.57,0,0,1,172.58,114.79Zm3-1.15a21.88,21.88,0,0,0,1.89-4.47,2.85,2.85,0,0,0,1.4-1.07,2.5,2.5,0,0,0,1.83-.32A7.42,7.42,0,0,1,175.6,113.64Z"/>
                  <g>
                    <path class="cls-7" d="M157.7,70.05A1.9,1.9,0,0,1,158.83,68a1.18,1.18,0,0,0-1.13,2.06Z"/>
                    <path class="cls-7" d="M156.16,70.73a1.6,1.6,0,0,0-1.34.92,1.63,1.63,0,0,0,.17,1.62,3,3,0,0,1,.26-1.18C155.44,71.73,155.76,70.67,156.16,70.73Z"/>
                    <path class="cls-7" d="M160.3,70.81A1.82,1.82,0,0,0,158.61,74,3.45,3.45,0,0,1,160.3,70.81Z"/>
                    <path class="cls-7" d="M148.12,78.77a2.12,2.12,0,0,1,.41-2.68,1.85,1.85,0,0,0-1.24,1.25A1.21,1.21,0,0,0,148.12,78.77Z"/>
                    <path class="cls-7" d="M151.69,75.86a1.31,1.31,0,0,0-1.61,2A2.35,2.35,0,0,1,151.69,75.86Z"/>
                    <path class="cls-7" d="M150.27,79.53a1.53,1.53,0,0,0-2.11,2.08C148.37,80.81,149.45,79.56,150.27,79.53Z"/>
                    <path class="cls-7" d="M145.5,84.57c0,.12.11.25.23.24s.18-.23.17-.39a2,2,0,0,1,.93-1.81,1,1,0,0,0-1.28.49A1.87,1.87,0,0,0,145.5,84.57Z"/>
                    <path class="cls-7" d="M142.35,87.8a1.59,1.59,0,0,1,1.44-1.94,1.33,1.33,0,0,0-1.7.23,1.34,1.34,0,0,0,0,1.72Z"/>
                  </g>
                </g>
              </g>
            </g>
          </g>
          <g>
            <g>
              <rect class="cls-8" x="185.37" y="124.49" width="2.05" height="6.05"/>
              <rect class="cls-8" x="220.78" y="124.49" width="2.05" height="6.05"/>
            </g>
            <polygon class="cls-9" points="216.63 110.03 204.81 103.63 203.56 103.63 191.74 110.03 186.33 120.13 186.33 139.47 222.04 139.47 222.04 120.13 216.63 110.03"/>
            <polygon class="cls-9" points="219.7 121.92 219.7 120.31 215 111.54 204.73 105.98 203.64 105.98 193.38 111.54 188.67 120.31 188.67 121.92 219.7 121.92"/>
            <g>
              <path class="cls-10" d="M206.77,106.37h-4.84l-1.53.85H208Z"/>
              <path class="cls-10" d="M209.89,108.46H198.22l-1.55.92h14.67Z"/>
              <path class="cls-10" d="M217.06,114.6H191.3c-.11.2-.22.4-.34.59h26.46C217.3,115,217.17,114.8,217.06,114.6Z"/>
              <path class="cls-10" d="M186.49,122.31a.35.35,0,0,1-.16.16v.3H222v-.46Z"/>
              <rect class="cls-10" x="186.33" y="125.25" width="35.72" height="0.98"/>
              <rect class="cls-10" x="186.33" y="128.85" width="35.72" height="0.59"/>
              <rect class="cls-10" x="186.33" y="132.05" width="35.72" height="0.33"/>
              <rect class="cls-10" x="186.33" y="139.11" width="35.72" height="0.36"/>
              <rect class="cls-10" x="186.33" y="136.88" width="35.72" height="0.39"/>
              <path class="cls-10" d="M218.67,117.94H189.39c-.07.13-.14.26-.22.39H218.9Z"/>
              <path class="cls-10" d="M215.33,111.83l-.82-.49H193.57l-.62.41-.14.24h22.63Z"/>
            </g>
            <polygon class="cls-11" points="215 111.54 204.73 105.98 203.64 105.98 193.38 111.54 188.67 120.31 188.67 121.92 189.1 121.92 193.38 113.96 203.64 108.4 204.73 108.4 215 113.96 219.27 121.92 219.7 121.92 219.7 120.31 215 111.54"/>
            <polygon class="cls-8" points="219.5 120.54 214.79 111.75 204.61 106.24 203.76 106.24 193.58 111.75 188.87 120.54 187.95 120.05 192.81 110.98 203.5 105.19 204.87 105.19 215.56 110.98 220.42 120.05 219.5 120.54"/>
            <g>
              <rect class="cls-3" x="200.66" y="115.98" width="2.74" height="2.74"/>
              <rect class="cls-3" x="204.51" y="115.98" width="2.74" height="2.74"/>
            </g>
          </g>
          <g>
            <path class="cls-12" d="M310.52,206.3V206c0-21-15-35.23-47.44-54.74-35.56-21.41-64.62-17.06-105.72-11.12-23.37,3.37-46,10.46-69.16,15.15a224.46,224.46,0,0,1-28.76,4.08A55,55,0,0,0,9.09,206c0,.1,0,.19,0,.29Z"/>
            <path class="cls-7" d="M310,206.26V206c0-19.91-15-33.39-47.44-51.89-35.56-20.29-64.62-16.16-105.72-10.54-23.37,3.2-46,9.92-69.16,14.36a234.92,234.92,0,0,1-28.76,3.88C33.3,163.45,12.43,181.93,8.56,206c0,.09,0,.19,0,.27Z"/>
            <g>
              <path class="cls-12" d="M43,166.9a7.9,7.9,0,0,0-6.14,3.19A13.59,13.59,0,0,0,43,166.9Z"/>
              <path class="cls-12" d="M48.81,164.38A5.64,5.64,0,0,0,45,166.07a9.63,9.63,0,0,0,5.68-1.79C50.52,164.27,49,164.38,48.81,164.38Z"/>
              <path class="cls-12" d="M43.28,168.69a3.23,3.23,0,0,0,2.78-1A2.35,2.35,0,0,0,43.28,168.69Z"/>
            </g>
            <g>
              <path class="cls-12" d="M204.31,139.76a12.48,12.48,0,0,0-7.95,1.61,29.25,29.25,0,0,0,10.6-1.19C206.56,140.06,204.72,139.82,204.31,139.76Z"/>
              <path class="cls-12" d="M214,140.25a8,8,0,0,0-5.16.47C211.15,141.33,211.65,140.89,214,140.25Z"/>
              <path class="cls-12" d="M215.75,141.87a16.25,16.25,0,0,0,7.84-.06A13.11,13.11,0,0,0,215.75,141.87Z"/>
              <path class="cls-12" d="M187.56,141.53a13.46,13.46,0,0,0,5.06-.06A8.4,8.4,0,0,0,187.56,141.53Z"/>
              <path class="cls-12" d="M181.88,142.5a15.46,15.46,0,0,0-7.9,1.69A15,15,0,0,0,181.88,142.5Z"/>
            </g>
          </g>
          <g>
            <path class="cls-6" d="M265.17,65.66a1.19,1.19,0,0,0-.36-2,1.06,1.06,0,0,0-.08-1,1.87,1.87,0,0,0,.86-1,1.92,1.92,0,0,0-.46-2,4,4,0,0,0,.53-2.1l-.93-.3a1.2,1.2,0,0,0-.61-2,1.53,1.53,0,0,0-.89-2.28,1.86,1.86,0,0,0-1.69-2.49,1.27,1.27,0,0,0-.82-2.11,1.47,1.47,0,0,0-1.27-2.06,1.32,1.32,0,0,0-1.4-2.14c.49-.4.09-1.24-.48-1.52s-1.25-.26-1.8-.57a7.7,7.7,0,0,1-1.37-1.31c-.47-.42-1.25-.67-1.71-.23a1.21,1.21,0,0,0-1.87-1.5.66.66,0,0,0-.09-1,1.86,1.86,0,0,0-1.09-.29l-4.79-.26a1.64,1.64,0,0,0-2.52,0,1,1,0,0,0-1.69.32,2.27,2.27,0,0,0-1.52-.14,1.33,1.33,0,0,0-.17-.64.94.94,0,0,0-1.1-.35A1.1,1.1,0,1,0,236,35.58a.91.91,0,0,0-1.82-.09,1.32,1.32,0,0,0-2.63.1,2.11,2.11,0,0,0-3.29.43,1.09,1.09,0,1,0-2,.77,1.07,1.07,0,0,0-1.9.87.83.83,0,0,0-1.47.53,1.21,1.21,0,0,0-1.21.27,1,1,0,0,0-.25.92.85.85,0,0,0-1,.15,1.13,1.13,0,0,0-1.9-.72.7.7,0,0,0-1.36-.29,2.13,2.13,0,0,0-3.3.59,2.93,2.93,0,0,0-4.22,1.1,1.87,1.87,0,0,0-2.76,1.49,2,2,0,0,0-2.36,1.57,1.5,1.5,0,0,0-1.54,2,1.57,1.57,0,0,0-1.73,2.42A1.38,1.38,0,0,0,200,50.16a1.49,1.49,0,0,0-1.33,1,1.51,1.51,0,0,0,.53,1.6A1.79,1.79,0,0,0,199.1,55a.43.43,0,0,0-.59.35.44.44,0,0,0,.57.39l-1.86,1.89s-.05,0-.07,0a.82.82,0,0,0-.61,1.14,2.15,2.15,0,0,0-3.85,1.79,1.85,1.85,0,0,0-1.48,2.65A3.91,3.91,0,0,0,190,68a1.61,1.61,0,0,0-.54,3,1.56,1.56,0,0,0,.69,2.53c-.66-.16-1.06.87-.65,1.41a2.5,2.5,0,0,0,1.81.73.88.88,0,1,0,1.36,1.12,1.06,1.06,0,0,0,1.94.86.92.92,0,0,0,.58,1.09.93.93,0,0,0,1.12-.54,2.5,2.5,0,0,0,2,.71,3.33,3.33,0,0,0,.63,0,.66.66,0,0,0-.24.48.44.44,0,0,0,.06.16,1.2,1.2,0,0,0-.9,1.89,1.35,1.35,0,0,0-1.67.51,1.37,1.37,0,0,0,.3,1.73,1.29,1.29,0,0,0-.58,1.4,1.31,1.31,0,0,0,1.17,1,1.33,1.33,0,0,0-.22,2.64,1.25,1.25,0,0,0-.41,1.47,1.22,1.22,0,0,0,1.38.66,1.78,1.78,0,0,0,1.94,2.64,1.19,1.19,0,1,0,2.15,1,1.59,1.59,0,1,0,2.92,1.26,2.26,2.26,0,0,0,2.2,2.15l.4-1.17a1.3,1.3,0,0,0,2.58-.33,1.75,1.75,0,0,0,3.18-.7.85.85,0,0,0,1,.61.87.87,0,0,0,.64-1,1,1,0,0,0,1.11,0,1.12,1.12,0,0,0,.18,1.23.46.46,0,0,0,.13.08,1.56,1.56,0,0,0-.31.75,1.62,1.62,0,0,0,1.14,1.65,1.12,1.12,0,0,0-.35,1.39,1.1,1.1,0,0,0,1.32.52,1.2,1.2,0,0,0-.1,1.69,1.18,1.18,0,0,0,1.68-.07,4.25,4.25,0,0,0,1.21,2.54,1.64,1.64,0,0,0,2.46-.31A2.21,2.21,0,0,0,225,106.1a2.17,2.17,0,0,0,2.06-1,1.76,1.76,0,0,0,1.72.82c.25,4.74.41,9.48.52,14.22a10.32,10.32,0,0,1-4.56-5.89c-.32.06-.63.17-.67.48a1.93,1.93,0,0,0,.18.94,13,13,0,0,0,5.1,6.28c.2,10.14.61,27-.48,30.77-.58,2-2.75,3.15-4.61,4.15a46.15,46.15,0,0,1-6.3,2.81c.42,1.09,7.18-1.94,10.08-3.16.83,1.09-2,2.89-2.81,3.43.66.88,2.46-.51,3.46-1.24a3.42,3.42,0,0,1,1.58-.88,2.56,2.56,0,0,1,2,1,3.93,3.93,0,0,0,1.8,1.34c.62-.07-.21-.6-.32-.9a.39.39,0,0,1,.54-.47,15.36,15.36,0,0,0,6.87,1.07.2.2,0,0,0,.06-.39,14.59,14.59,0,0,1-2.57-1.19.2.2,0,0,1,.16-.37,14.92,14.92,0,0,0,6.38,0,.29.29,0,0,0-.06-.57,17.68,17.68,0,0,1-5.79-1,9.09,9.09,0,0,1-3-1.8,5.18,5.18,0,0,1-1.6-3.51q-1.08-19-1.42-38a31.91,31.91,0,0,0,3.55-3.32,17.54,17.54,0,0,0,6.1-4.34,13.73,13.73,0,0,0,3-5.12,1.78,1.78,0,0,0,2.74-1.22,2.05,2.05,0,0,0,3.49-1.46,1.61,1.61,0,0,0,2.19-1.45,1.7,1.7,0,0,0,1.39-2.37,1.78,1.78,0,0,0,1.61-1.22,5.26,5.26,0,0,0,.21-2.13c0-.87-.06-1.75-.1-2.62a1.23,1.23,0,0,0,0-1.54c.58-.2.53-1.08.12-1.52a7.45,7.45,0,0,0-1.18-.89,3.24,3.24,0,0,0,1.88-1.36.86.86,0,0,0,1.08-.11.87.87,0,0,0,.05-1.09.89.89,0,0,0,1.2-.18.9.9,0,0,0-.19-1.2.92.92,0,0,0,1.16-.42.93.93,0,0,0-.37-1.18.91.91,0,0,0,1-.61.92.92,0,0,0-.45-1,1,1,0,0,0-.32-2.06.72.72,0,1,0-.73-1.22,1.29,1.29,0,0,0,.06-1.3,8.6,8.6,0,0,0,1.78-1.27,1,1,0,0,0,1-1.26,1,1,0,0,0,1.47-.55,2.51,2.51,0,0,0-.14-1.78.9.9,0,0,0,.27-1.68Zm-31.84,45.52c0-2.1-.1-4.21-.12-6.32a1.55,1.55,0,0,0,1.46.29,1.58,1.58,0,0,0,1-1.39,1.44,1.44,0,0,0,1.47-1.5,1.12,1.12,0,0,0,1.27-1.28c.26.45,1,.15,1.23-.31s.21-1,.52-1.46a.46.46,0,0,0,.07-.07,1.3,1.3,0,0,0,.14.32,15.2,15.2,0,0,1-7.08,11.72Zm5.07-3.52a24.44,24.44,0,0,0,2.83-7.89.78.78,0,0,0,.38-.21,1.93,1.93,0,0,0,1.55,1.92,1.89,1.89,0,0,0,1.86-1A12,12,0,0,1,238.4,107.66Z"/>
            <g>
              <path class="cls-7" d="M196.79,62.41a4.41,4.41,0,0,1,1.77-3.17,2.79,2.79,0,0,0-2.05,1A1.56,1.56,0,0,0,196.79,62.41Z"/>
              <path class="cls-7" d="M194.06,65.76a3,3,0,0,1,.41-3.32,1.69,1.69,0,0,0-.41,3.32Z"/>
              <path class="cls-7" d="M199.19,62.55a2.64,2.64,0,0,0-1.48,4.86,4.49,4.49,0,0,1-.09-2.69A4,4,0,0,1,199.19,62.55Z"/>
              <path class="cls-7" d="M194.73,68.15a1.65,1.65,0,0,0,.18,3.16A4.08,4.08,0,0,1,194.73,68.15Z"/>
              <path class="cls-7" d="M192.22,71.71A2,2,0,0,0,193,74c.18.12.48.18.56,0s-.07-.31-.17-.44C192.91,73,192,72.34,192.22,71.71Z"/>
              <path class="cls-7" d="M199.21,72.69a1.61,1.61,0,0,0-1.1,1.29,1.58,1.58,0,0,0,.7,1.53.44.44,0,0,0,.36.09c.22-.07.23-.37.2-.59A13.63,13.63,0,0,0,199.21,72.69Z"/>
              <path class="cls-7" d="M203.18,49.13a1.68,1.68,0,0,0-1.33,1.27,1.65,1.65,0,0,0,.69,1.69,2.26,2.26,0,0,1,0-1.54A7.07,7.07,0,0,1,203.18,49.13Z"/>
              <path class="cls-7" d="M206.56,45.33a1.55,1.55,0,0,0-1.72,2.57C204.73,47,205.86,45.89,206.56,45.33Z"/>
              <path class="cls-7" d="M206.66,48.13a1.59,1.59,0,0,0-1.25,2.71A3.2,3.2,0,0,1,206.66,48.13Z"/>
              <path class="cls-7" d="M209.23,45.89a2.52,2.52,0,0,0-.32,1.61c0,.23.2.52.43.45a3.68,3.68,0,0,1,1.84-2.3.87.87,0,0,0-1-.51A1.49,1.49,0,0,0,209.23,45.89Z"/>
              <path class="cls-7" d="M207.09,53.8a7.26,7.26,0,0,1,.07-1.68,2.47,2.47,0,0,1,.8-1.45,1.73,1.73,0,0,0-.87,3.13Z"/>
              <path class="cls-7" d="M211.17,43.17a2.13,2.13,0,0,1,2.21-1.44,1.33,1.33,0,1,0-2.21,1.44Z"/>
              <path class="cls-7" d="M215.39,45.29a1.48,1.48,0,0,0-1.6,2.5,1.53,1.53,0,0,1,.28-1.53A4,4,0,0,1,215.39,45.29Z"/>
            </g>
          </g>
        </g>
        <ellipse class="cls-13" cx="195.95" cy="171.08" rx="7.54" ry="3.18"/>
        <g>
          <g>
            <path class="cls-13" d="M219.17,197.22c0,1-4.4,1.8-9.82,1.8s-9.82-.81-9.82-1.8,4.39-1.8,9.82-1.8S219.17,196.23,219.17,197.22Z"/>
            <g>
              <g>
                <g>
                  <path class="cls-14" d="M207.6,195.74a.51.51,0,0,1,.33-.17,1.55,1.55,0,0,1,.48,0,.89.89,0,0,1,.41-.18,2.81,2.81,0,0,1,1.07.16,1.6,1.6,0,0,0,1.06,0,.91.91,0,0,1-.11.16.4.4,0,0,1-.19.38,1.26,1.26,0,0,1-.55.11l-2.1.05a.52.52,0,0,1-.42-.12A.3.3,0,0,1,207.6,195.74Z"/>
                  <path class="cls-4" d="M207.4,196.25a1,1,0,0,0,.5,0,2.88,2.88,0,0,1-.39-.3A.45.45,0,0,0,207.4,196.25Z"/>
                  <path class="cls-4" d="M212.51,196.6a.14.14,0,0,1-.11,0,2.36,2.36,0,0,1-.45-.08.73.73,0,0,1,.21-.44.75.75,0,0,1,.34.34C212.53,196.5,212.55,196.56,212.51,196.6Z"/>
                  <path class="cls-15" d="M207.62,196.14a1.37,1.37,0,0,1,.52-.2,5.05,5.05,0,0,1,1.23,0,1.56,1.56,0,0,0,1.06-.22,1.25,1.25,0,0,0,.34-.73,8.39,8.39,0,0,0,.3-1.87,3.14,3.14,0,0,0-.53-1.85.67.67,0,0,1-.16-.39h2.29a2.69,2.69,0,0,1-.32,1.35,2.55,2.55,0,0,0-.49,1.12,2,2,0,0,0,.41,1c-.14.24-.63-.5-.89.42a.86.86,0,0,0,.17,1c.13.11.46.17.59.29a.52.52,0,0,1,.08.52.35.35,0,0,1-.37.17c-.15,0-.4-.28-.54-.33a3.44,3.44,0,0,0-1.74.1,9.81,9.81,0,0,1-1.08.21c-.16,0-.57.27-.72.23s-.44-.16-.48-.31S207.48,196.24,207.62,196.14Z"/>
                  <path class="cls-4" d="M207.3,197a1,1,0,0,0,.51-.05,2,2,0,0,1-.4-.29A.45.45,0,0,0,207.3,197Z"/>
                </g>
                <path class="cls-4" d="M212.41,184.41a7.83,7.83,0,0,0-1.7-.68c-1.11-.29-2.71-.53-2.7.53a4.6,4.6,0,0,0,.57,1.71,17.64,17.64,0,0,1,1.49,5.25c.06.58,1,.36,2.07,1,.76.44.41-.45.75-.86a7.5,7.5,0,0,0,1.57-3.48,2.52,2.52,0,0,0-.23-1.74A4.44,4.44,0,0,0,212.41,184.41Z"/>
              </g>
              <g>
                <path class="cls-4" d="M212.11,179.9c-1.75-.21-3.75-.62-4.61-2.16s-.12-3.66-.61-5.44a4,4,0,0,0-2.15-2.48,3.38,3.38,0,0,0-.42-.13,1.35,1.35,0,0,0-.7-.25,7.23,7.23,0,0,0-2.62.22.44.44,0,0,0-.3.51,10.33,10.33,0,0,0,.55,1.82,4.13,4.13,0,0,0,1.38,1.81l.1,0a18.07,18.07,0,0,1,0,2.85c-.2,2.34-.63,4.71-.2,7a9.23,9.23,0,0,0,4,6,8.59,8.59,0,0,0,7.06,1,9.69,9.69,0,0,0,5.22-4.21,14.53,14.53,0,0,0,2-6.49A30.61,30.61,0,0,1,212.11,179.9Z"/>
                <path class="cls-3" d="M216.48,185.1a6,6,0,0,0,2.43-1.7,4.79,4.79,0,0,1-1,1.83,4,4,0,0,0,1.84-1.68,9.43,9.43,0,0,1-5.51,6.54,8,8,0,0,1-4.35.56,7.48,7.48,0,0,1-4-2.07,8.56,8.56,0,0,1-2.23-3.92l1.13,1.24a5.86,5.86,0,0,1-1.35-3.5,9.52,9.52,0,0,0,2.51,3.06,4.88,4.88,0,0,1-1-1.79,6.84,6.84,0,0,0,2.06,1.19,1.88,1.88,0,0,1-.87-1.24c3.64,4.38,7.69,2.29,11.18.56C217,184.49,216.75,184.79,216.48,185.1Z"/>
              </g>
              <g>
                <path class="cls-15" d="M208.36,197a.79.79,0,0,1,.39-.17,1.72,1.72,0,0,1,.5,0,1.3,1.3,0,0,1,.47-.18,2.66,2.66,0,0,1,1,.16,1.6,1.6,0,0,0,1.06,0,1.29,1.29,0,0,1-.17.16.63.63,0,0,1-.32.38,1.58,1.58,0,0,1-.59.11l-2.13.05c-.15,0-.31,0-.37-.12A.37.37,0,0,1,208.36,197Z"/>
                <path class="cls-4" d="M208,197.52a1.21,1.21,0,0,0,.53,0,1.64,1.64,0,0,1-.29-.3A.73.73,0,0,0,208,197.52Z"/>
                <path class="cls-4" d="M213,197.87a.17.17,0,0,1-.12,0,1.66,1.66,0,0,1-.41-.08,1.14,1.14,0,0,1,.35-.44.46.46,0,0,1,.23.34A.14.14,0,0,1,213,197.87Z"/>
                <path class="cls-14" d="M208.24,197.41a1.93,1.93,0,0,1,.6-.2,5.76,5.76,0,0,1,1.24,0,2,2,0,0,0,1.14-.21,2.16,2.16,0,0,0,.6-.74,11.35,11.35,0,0,0,1-1.87,2.79,2.79,0,0,0,.13-1.85.5.5,0,0,1,0-.38h2.29a4.09,4.09,0,0,1-.8,1.35,3.82,3.82,0,0,0-.88,1.11,1.6,1.6,0,0,0,0,1c-.23.24-.45-.5-1,.42-.23.35-.38.72-.18,1,.09.11.41.17.49.29a.54.54,0,0,1-.1.53.52.52,0,0,1-.43.16c-.15,0-.3-.28-.43-.33a3.62,3.62,0,0,0-1.77.1,11.78,11.78,0,0,1-1.16.21c-.16,0-.66.28-.8.23s-.38-.15-.36-.31S208.08,197.51,208.24,197.41Z"/>
                <path class="cls-4" d="M207.63,198.24a1.17,1.17,0,0,0,.52,0,1.58,1.58,0,0,1-.28-.3A.73.73,0,0,0,207.63,198.24Z"/>
              </g>
              <path class="cls-4" d="M215.23,185.5a6.24,6.24,0,0,0-1.67-.29c-1.09,0-2.68.11-2.72,1.18a3.8,3.8,0,0,0,.49,1.59,14.59,14.59,0,0,1,1.24,5c0,.57,1,.12,2,.5.74.27.44-.55.79-1a10.31,10.31,0,0,0,1.74-3.9,2.34,2.34,0,0,0-.14-1.71A3,3,0,0,0,215.23,185.5Z"/>
              <g>
                <path class="cls-4" d="M207.76,180.4a1.54,1.54,0,0,1,1.33,1.06,5,5,0,0,1,.24,2.07,9.21,9.21,0,0,0,0,2.1,2.38,2.38,0,0,0,1.14,1.68,2.83,2.83,0,0,0,2,.08,11.11,11.11,0,0,0,4-2,3.68,3.68,0,0,0,1.65-2.22.42.42,0,0,0,0-.27c-.11-.16-.38-.09-.54,0s-.32.29-.52.26a12.18,12.18,0,0,0,1-.94.77.77,0,0,0,.19-.28.28.28,0,0,0-.09-.3.42.42,0,0,0-.31,0l-2,.5a.51.51,0,0,1,.31-.26,1,1,0,0,0,.36-.22c.08-.11.09-.3,0-.36a.31.31,0,0,0-.19,0l-1.16.09c.24-.08.25-.45.07-.63a1,1,0,0,0-.7-.22,8.5,8.5,0,0,1-2.86-.31,11.82,11.82,0,0,1-1.27-.67,2.46,2.46,0,0,0-1.36-.38Z"/>
                <path class="cls-3" d="M211.47,187.78a2.32,2.32,0,0,1-1.08-.24,2.56,2.56,0,0,1-1.27-1.86,7.27,7.27,0,0,1-.07-1.86l0-.3a4.65,4.65,0,0,0-.23-2,1.33,1.33,0,0,0-1.08-.9.25.25,0,0,1-.26-.26.25.25,0,0,1,.25-.26h0a1.8,1.8,0,0,1,1.55,1.23,5.17,5.17,0,0,1,.26,2.17l0,.3a7.7,7.7,0,0,0,.06,1.74,2.08,2.08,0,0,0,1,1.5,2.54,2.54,0,0,0,1.77,0,10.45,10.45,0,0,0,3.87-2,3.48,3.48,0,0,0,1.55-2c0-.08,0-.1,0-.1s-.08,0-.16.1l-.06,0a.81.81,0,0,1-.66.25.25.25,0,0,1-.21-.18.27.27,0,0,1,.08-.27,10.21,10.21,0,0,0,.94-.92.59.59,0,0,0,.13-.17l-.09,0-2,.5a.28.28,0,0,1-.26-.08.26.26,0,0,1,0-.28.81.81,0,0,1,.45-.39l.21-.1-1.12.09a.24.24,0,0,1-.27-.21.26.26,0,0,1,.17-.3.2.2,0,0,0,0-.07.15.15,0,0,0,0-.12.84.84,0,0,0-.53-.15h-.67a6.35,6.35,0,0,1-2.28-.31,7,7,0,0,1-.9-.47l-.39-.22a2.23,2.23,0,0,0-1.22-.35.26.26,0,1,1,0-.52,2.72,2.72,0,0,1,1.51.41l.41.23a6.46,6.46,0,0,0,.82.43,6,6,0,0,0,2.1.27l.68,0a1.28,1.28,0,0,1,.88.29.75.75,0,0,1,.2.52l.68-.05a.52.52,0,0,1,.33.05.44.44,0,0,1,.23.3.57.57,0,0,1,0,.26l1-.25a.67.67,0,0,1,.51,0,.56.56,0,0,1,.2.6,1.08,1.08,0,0,1-.24.37l-.13.15a.45.45,0,0,1,.24.19.59.59,0,0,1,.08.45,4,4,0,0,1-1.75,2.39,11.15,11.15,0,0,1-4.06,2.06A4.22,4.22,0,0,1,211.47,187.78Z"/>
              </g>
              <g>
                <path class="cls-14" d="M200.85,170a4.58,4.58,0,0,0-1.24.74c-.06.06-.13.12-.12.2s.09.14.16.18c.56.3,1.13.57,1.71.82A7.72,7.72,0,0,0,200.85,170Z"/>
                <path class="cls-16" d="M202.75,173.34a3.41,3.41,0,0,0-.42-1.66c-.29-.49-1.11-1.43-1.32-1l-.18,2.81a2.68,2.68,0,0,0,0,.8,1,1,0,0,0,.43.64.93.93,0,0,0,1.15-.32A1.93,1.93,0,0,0,202.75,173.34Z"/>
                <path class="cls-16" d="M202.79,169.44c-.39-.06-1,.07-1,0a3.24,3.24,0,0,1,.6-.57,6.36,6.36,0,0,1,2.21-.71.43.43,0,0,1,.43.11c.06.07.06.17.1.25.12.26.48.24.75.33a1.1,1.1,0,0,1,.66.89,7.2,7.2,0,0,1-.11,1.73A7.89,7.89,0,0,0,202.79,169.44Z"/>
                <g>
                  <path class="cls-11" d="M203.57,170.75a.33.33,0,1,1-.33-.33A.33.33,0,0,1,203.57,170.75Z"/>
                  <path class="cls-4" d="M203.48,170.65a.14.14,0,0,1-.14.14.14.14,0,0,1-.14-.14.14.14,0,0,1,.14-.14A.15.15,0,0,1,203.48,170.65Z"/>
                </g>
              </g>
            </g>
          </g>
          <g>
            <path class="cls-13" d="M165.42,199.59c0,1-4.56,1.83-10.19,1.83s-10.2-.82-10.2-1.83,4.57-1.83,10.2-1.83S165.42,198.58,165.42,199.59Z"/>
            <g>
              <g>
                <g>
                  <path class="cls-14" d="M159.41,198.09a.59.59,0,0,0-.34-.18,2,2,0,0,0-.49,0,.93.93,0,0,0-.42-.18,2.79,2.79,0,0,0-1.06.16,1.58,1.58,0,0,1-1,0,.61.61,0,0,0,.12.16.44.44,0,0,0,.21.38,1.19,1.19,0,0,0,.56.1l2.11.06c.14,0,.32,0,.4-.12A.29.29,0,0,0,159.41,198.09Z"/>
                  <path class="cls-4" d="M159.65,198.6a1.1,1.1,0,0,1-.51,0,2.69,2.69,0,0,0,.37-.3A.48.48,0,0,1,159.65,198.6Z"/>
                  <path class="cls-4" d="M154.56,199a.14.14,0,0,0,.11,0,2.14,2.14,0,0,0,.44-.08.82.82,0,0,0-.23-.44.73.73,0,0,0-.33.34A.14.14,0,0,0,154.56,199Z"/>
                  <path class="cls-15" d="M159.42,198.49a1.47,1.47,0,0,0-.54-.2,5.05,5.05,0,0,0-1.23,0,1.62,1.62,0,0,1-1.07-.22,1.37,1.37,0,0,1-.39-.73,8.58,8.58,0,0,1-.42-1.87,3,3,0,0,1,.4-1.85.59.59,0,0,0,.14-.39H154a2.77,2.77,0,0,0,.41,1.35,2.69,2.69,0,0,1,.56,1.12,1.89,1.89,0,0,1-.34,1c.16.24.59-.51.92.42a.85.85,0,0,1-.1,1c-.13.12-.46.18-.58.3a.51.51,0,0,0,0,.52.42.42,0,0,0,.39.17c.14,0,.37-.28.51-.33a3.48,3.48,0,0,1,1.75.1,10.16,10.16,0,0,0,1.1.21c.15,0,.58.27.73.23s.42-.16.46-.31S159.56,198.59,159.42,198.49Z"/>
                  <path class="cls-4" d="M159.8,199.32a1,1,0,0,1-.52,0,1.76,1.76,0,0,0,.37-.29A.53.53,0,0,1,159.8,199.32Z"/>
                </g>
                <path class="cls-3" d="M155.22,194c.5.06.82.38,1.17,0a11.09,11.09,0,0,0,3-5.46,2.08,2.08,0,0,0-.16-1.63,2,2,0,0,0-1.41-.66,6.77,6.77,0,0,0-2.2.07,2.09,2.09,0,0,0-1.1.49,2.39,2.39,0,0,0-.51,1.33,10.92,10.92,0,0,0,0,5.33C154.15,194,154.64,193.89,155.22,194Z"/>
              </g>
              <path class="cls-4" d="M165.12,181.45c-.22-2-1.26-3.77-2.13-5.58a11.61,11.61,0,0,1-1.23-3.93,6.24,6.24,0,0,0,.82-2.19,12,12,0,0,0,.18-2.08.78.78,0,0,0-1-.77,6.14,6.14,0,0,0-2.25,1.21,3.69,3.69,0,0,0-1.31,3h-.06c-.63,3.14.07,3.91-1.13,5l-.66,1.16c-4.79,2.85-6.87,2-12.3.76.14.26.29.52.44.78a1.91,1.91,0,0,0-.74,1.79,1.87,1.87,0,0,0,1.24,1.47l-.4-.15a3.58,3.58,0,0,0,.44,2.67l-.6-.26a8.54,8.54,0,0,0,4,6,11.15,11.15,0,0,0,8.81.75A12.26,12.26,0,0,0,163,187.7,8.34,8.34,0,0,0,165.12,181.45Z"/>
              <g>
                <g>
                  <path class="cls-15" d="M154,199.59a.65.65,0,0,0-.34-.17,1.62,1.62,0,0,0-.49,0,.93.93,0,0,0-.42-.18,3,3,0,0,0-1.06.17,1.6,1.6,0,0,1-1.06,0l.12.16a.44.44,0,0,0,.22.38,1.13,1.13,0,0,0,.55.11l2.11,0A.46.46,0,0,0,154,200,.29.29,0,0,0,154,199.59Z"/>
                  <path class="cls-4" d="M154.23,200.1a1,1,0,0,1-.52,0,2.2,2.2,0,0,0,.37-.3A.53.53,0,0,1,154.23,200.1Z"/>
                  <path class="cls-4" d="M149.13,200.46a.23.23,0,0,0,.12,0,1.63,1.63,0,0,0,.44-.08.76.76,0,0,0-.23-.43.7.7,0,0,0-.33.33S149.09,200.42,149.13,200.46Z"/>
                  <path class="cls-14" d="M154,200a1.47,1.47,0,0,0-.54-.2,5.63,5.63,0,0,0-1.23,0,1.64,1.64,0,0,1-1.08-.21,1.6,1.6,0,0,1-.39-.74,9.18,9.18,0,0,1-.41-1.87,3,3,0,0,1,.4-1.85.62.62,0,0,0,.14-.38h-2.3a3,3,0,0,0,.42,1.35,2.78,2.78,0,0,1,.56,1.11,1.89,1.89,0,0,1-.35,1.05c.16.23.6-.51.93.41a.87.87,0,0,1-.11,1c-.12.11-.45.17-.57.29a.53.53,0,0,0-.05.53.4.4,0,0,0,.38.17c.15,0,.38-.29.52-.34a3.49,3.49,0,0,1,1.75.1,8.06,8.06,0,0,0,1.09.21c.16,0,.59.28.74.23s.42-.15.45-.31S154.14,200.09,154,200Z"/>
                  <path class="cls-4" d="M154.37,200.82a1.1,1.1,0,0,1-.51,0,2.2,2.2,0,0,0,.37-.3A.48.48,0,0,1,154.37,200.82Z"/>
                </g>
                <path class="cls-4" d="M149.51,194.81c.34.06.87.54,1.18.39a10.85,10.85,0,0,0,4.09-3.64,4.4,4.4,0,0,0,1-3,3.28,3.28,0,0,0-2.13-2.47,5.5,5.5,0,0,0-3.36,0,2,2,0,0,0-1,.5,2.42,2.42,0,0,0-.42.85A17.78,17.78,0,0,0,148,191a7.23,7.23,0,0,0,.46,3.63C148.69,195,149.05,194.72,149.51,194.81Z"/>
              </g>
              <g>
                <path class="cls-3" d="M160.1,177.43a5.1,5.1,0,0,1,.77,2.5,7.88,7.88,0,0,1-4.64,7.72,1.92,1.92,0,0,1,.28-1,4.13,4.13,0,0,1-2.06.88.93.93,0,0,1-.78-.16c-.2-.18-.16-.6.11-.65a6.54,6.54,0,0,1-3.77.09.81.81,0,0,1,.59-.39,3.36,3.36,0,0,1-2.65-.65l.47-.38a2.26,2.26,0,0,1-.82-.16.8.8,0,0,1-.51-.63.5.5,0,0,1,.49-.55,1.42,1.42,0,0,1-.83-1.16,4.17,4.17,0,0,1,.13-1.49,20.91,20.91,0,0,0,9.58-2.14,8.83,8.83,0,0,0,3.38-2.59Z"/>
                <g>
                  <path class="cls-4" d="M153.45,179.6l-4.5.48a.82.82,0,0,0-.37.1.28.28,0,0,0-.13.33c.06.14.25.17.4.18l1.16.07a4.94,4.94,0,0,0-1.72.5.8.8,0,0,0-.43.42.53.53,0,0,0,.36.58,1.21,1.21,0,0,0,.73,0,3,3,0,0,1,.73-.14,3.17,3.17,0,0,0-1.15.67,1.06,1.06,0,0,0-.21,1.24,1.37,1.37,0,0,0,.74.49,6.06,6.06,0,0,0,4.74-.3,1.56,1.56,0,0,0-.76.51c-.16.26-.1.69.19.78a.77.77,0,0,0,.55-.11,13,13,0,0,0,1.56-1c-.21.25-.42.6-.24.86s.62.18.86,0,.38-.54.64-.74a.47.47,0,0,0,.06.66.75.75,0,0,0,.71.09,1.72,1.72,0,0,0,.62-.41,7.42,7.42,0,0,0,2.45-4.11,6.21,6.21,0,0,0-1.36-5.09l-.91.86Z"/>
                  <path class="cls-3" d="M153.36,185.79a.69.69,0,0,1-.2,0,.66.66,0,0,1-.42-.41.93.93,0,0,1,0-.44,6.33,6.33,0,0,1-3.73-.15,1.63,1.63,0,0,1-.87-.59,1.31,1.31,0,0,1,.24-1.55l0-.05a1.22,1.22,0,0,1-.26-.06.8.8,0,0,1-.51-.9,1,1,0,0,1,.56-.58l.32-.15a.52.52,0,0,1-.28-.27.54.54,0,0,1,.23-.65.94.94,0,0,1,.49-.14l4.49-.48a.26.26,0,1,1,.06.51l-4.5.49a.62.62,0,0,0-.26.06s0,0,.15,0l1.16.07a.26.26,0,0,1,0,.52,4.39,4.39,0,0,0-1.63.48c-.11.05-.27.14-.29.25s.07.22.19.27a1,1,0,0,0,.58,0l.15,0a2.32,2.32,0,0,1,.64-.11.26.26,0,0,1,.1.5,2.92,2.92,0,0,0-1.06.61.82.82,0,0,0-.18.92,1.22,1.22,0,0,0,.6.38,5.85,5.85,0,0,0,4.18-.12,4.07,4.07,0,0,1,.38-.17.26.26,0,0,1,.34.13.27.27,0,0,1-.12.34l-.37.17a.89.89,0,0,0-.29.25.39.39,0,0,0,0,.3.15.15,0,0,0,.08.09.53.53,0,0,0,.35-.1,12.41,12.41,0,0,0,1.53-.92.26.26,0,0,1,.35.38c-.21.24-.29.45-.23.55a.14.14,0,0,0,.1.05.54.54,0,0,0,.37-.14,1.89,1.89,0,0,0,.25-.31,2.39,2.39,0,0,1,.4-.45.27.27,0,0,1,.36,0,.26.26,0,0,1,0,.36.15.15,0,0,0,0,.11.23.23,0,0,0,.08.17.48.48,0,0,0,.46,0,1.61,1.61,0,0,0,.53-.36,7.13,7.13,0,0,0,2.36-4,5.86,5.86,0,0,0-1.13-4.66l-.7.67a.27.27,0,0,1-.37,0,.25.25,0,0,1,0-.36l.91-.86a.23.23,0,0,1,.19-.07.23.23,0,0,1,.19.09,6.42,6.42,0,0,1,1.42,5.31,7.76,7.76,0,0,1-2.53,4.26,2.13,2.13,0,0,1-.71.46,1,1,0,0,1-1-.14.79.79,0,0,1-.14-.17,1.21,1.21,0,0,1-.21.24,1,1,0,0,1-.78.28.68.68,0,0,1-.48-.28.71.71,0,0,1-.11-.32c-.28.18-.58.34-.87.49A1.23,1.23,0,0,1,153.36,185.79Z"/>
                </g>
              </g>
              <g>
                <path class="cls-14" d="M163.49,167.67a5.53,5.53,0,0,0-.74,1.07,4.48,4.48,0,0,0-.14-1.5,2.22,2.22,0,0,1,1.14-.12C163.78,167.33,163.62,167.51,163.49,167.67Z"/>
                <path class="cls-16" d="M162.74,168.61c.21.64.07,1.34.45,1.91a3.8,3.8,0,0,1,.87,1.82,1.14,1.14,0,0,1-.19.72.67.67,0,0,1-.67.26,1.76,1.76,0,0,0-.16.86c0,.3-.16.64-.45.7s-.58-.28-.71-.59C161.17,172.69,161.8,170.09,162.74,168.61Z"/>
                <path class="cls-16" d="M161.82,166.85a2.74,2.74,0,0,0-2.36-.91,1.16,1.16,0,0,0-.49.1.42.42,0,0,0-.25.4.28.28,0,0,0,.34.25,2.51,2.51,0,0,0-1.81,2.14.57.57,0,0,0,.23.59,2,2,0,0,0,1.33-.4A6.46,6.46,0,0,1,161.82,166.85Z"/>
              </g>
              <g>
                <path class="cls-11" d="M161.43,167.9a.36.36,0,0,0-.35,0,.64.64,0,0,0-.27.52c0,.23.07.5.29.55s.43-.16.5-.38A.58.58,0,0,0,161.43,167.9Z"/>
                <path class="cls-4" d="M161.17,168.35a.14.14,0,0,0-.15,0,.23.23,0,0,0-.11.22c0,.09,0,.21.12.23s.18-.07.21-.16S161.26,168.4,161.17,168.35Z"/>
              </g>
            </g>
          </g>
          <g>
            <path class="cls-13" d="M273.44,201.81c0,1-4.46,1.87-10,1.87s-10-.84-10-1.87,4.47-1.87,10-1.87S273.44,200.77,273.44,201.81Z"/>
            <g>
              <path class="cls-14" d="M251.37,180.1a4.28,4.28,0,0,0,1.25,1,7.73,7.73,0,0,0-.24-1.44,1.74,1.74,0,0,0-1,.25s-.06,0-.06.06A.12.12,0,0,0,251.37,180.1Z"/>
              <g>
                <g>
                  <path class="cls-4" d="M258.11,201.54a.76.76,0,0,0,.42,0,1.48,1.48,0,0,1-.31-.25A.43.43,0,0,0,258.11,201.54Z"/>
                  <path class="cls-14" d="M258.3,201.12a.5.5,0,0,1,.28-.14,1.35,1.35,0,0,1,.4,0,.72.72,0,0,1,.35-.15,4.08,4.08,0,0,1,.87.13,1.43,1.43,0,0,0,.87,0,.6.6,0,0,1-.09.13.4.4,0,0,1-.18.32,1,1,0,0,1-.46.08l-1.74.05c-.12,0-.26,0-.33-.1A.26.26,0,0,1,258.3,201.12Z"/>
                  <path class="cls-4" d="M262.3,201.83s-.06,0-.09,0a1.44,1.44,0,0,1-.36-.07.6.6,0,0,1,.19-.36.59.59,0,0,1,.26.28S262.34,201.8,262.3,201.83Z"/>
                  <path class="cls-15" d="M258.3,201.45a1.29,1.29,0,0,1,.44-.16,4.88,4.88,0,0,1,1,0,1.34,1.34,0,0,0,.89-.17,1.2,1.2,0,0,0,.32-.61,7.3,7.3,0,0,0,.34-1.54,2.42,2.42,0,0,0-.33-1.52.5.5,0,0,1-.11-.32h1.89a2.4,2.4,0,0,1-.34,1.11,2.3,2.3,0,0,0-.47.92,1.61,1.61,0,0,0,.29.86c-.13.19-.49-.42-.76.34a.72.72,0,0,0,.08.81c.11.09.38.14.47.24a.42.42,0,0,1,.05.43.33.33,0,0,1-.32.14c-.12,0-.31-.24-.43-.27a2.84,2.84,0,0,0-1.44.08,6.51,6.51,0,0,1-.9.17c-.13,0-.48.23-.6.19s-.35-.13-.38-.25S258.18,201.53,258.3,201.45Z"/>
                  <path class="cls-4" d="M258,202.13a.76.76,0,0,0,.42,0,1.48,1.48,0,0,1-.31-.25A.43.43,0,0,0,258,202.13Z"/>
                </g>
                <path class="cls-4" d="M258.77,192.19a1.93,1.93,0,0,0,0,1.74,10.79,10.79,0,0,0,1.94,3.34c.3.35.56.09,1.07.13s1.09.22,1.3-.06a6.18,6.18,0,0,0,1.21-3.07,2.86,2.86,0,0,0-.18-1.67,2.55,2.55,0,0,0-1.61-1.32,3.87,3.87,0,0,0-1.92.09A3.09,3.09,0,0,0,258.77,192.19Z"/>
              </g>
              <g>
                <path class="cls-4" d="M274.72,188l.36-.47a6.49,6.49,0,0,0-3.85.87l.52-1.32a24.74,24.74,0,0,0-2.67,1.35,12.38,12.38,0,0,0-10.27-3.91,6.32,6.32,0,0,1-1.85-2.85,5,5,0,0,0-.31-1.62,2.62,2.62,0,0,0-1-1.44,2,2,0,0,0-1.59-.12,5.89,5.89,0,0,0-1.44.77c-.3.2-.64.46-.62.82a1,1,0,0,0,.19.49c.38.63.76,1.27,1.15,1.9a1.4,1.4,0,0,0,.1.16c0,.75-.05,1.51-.1,2.24a18.83,18.83,0,0,0-.07,4.5,6,6,0,0,0,.59,1.79,6.29,6.29,0,0,0,.82,2.21,8,8,0,0,0,5.7,3.29,12.88,12.88,0,0,0,10.09-2.93,2.68,2.68,0,0,0,.3-.28c.52-.4,1-.83,1.5-1.26,1.56-1.35,3.23-2.73,5.26-3.08A2.19,2.19,0,0,0,274.72,188Z"/>
                <path class="cls-3" d="M269.41,193.15a1.13,1.13,0,0,0,.53-.86l-.53.14c.12-.08,0-.3-.1-.35a.57.57,0,0,0-.42.07l-2.82,1.17c.07-.17.13-.33.19-.5a8.2,8.2,0,0,1-7,.12,2.32,2.32,0,0,0-.62-.23.68.68,0,0,0-.63.17.41.41,0,0,0,0,.59,2.21,2.21,0,0,1-1.41-.82,2.08,2.08,0,0,0-.32-.4.43.43,0,0,0-.47-.07c-.15.08-.18.34,0,.41a9.58,9.58,0,0,1-1.44-1.61,4.17,4.17,0,0,0,1,2.52,7,7,0,0,0,2.14,1.71,10.56,10.56,0,0,0,13-2.3Z"/>
              </g>
              <g>
                <path class="cls-14" d="M261,203a1.29,1.29,0,0,1,.44-.16,4.34,4.34,0,0,1,1,0,1.33,1.33,0,0,0,.88-.18,1.21,1.21,0,0,0,.32-.6,7.53,7.53,0,0,0,.34-1.55,2.44,2.44,0,0,0-.33-1.52.5.5,0,0,1-.11-.32h1.89a2.48,2.48,0,0,1-.34,1.12,2.24,2.24,0,0,0-.46.91,1.5,1.5,0,0,0,.28.86c-.13.2-.49-.41-.76.35a.72.72,0,0,0,.08.8c.11.09.38.14.48.24a.46.46,0,0,1,0,.44.34.34,0,0,1-.32.13c-.12,0-.31-.23-.42-.27a2.82,2.82,0,0,0-1.44.08,5.61,5.61,0,0,1-.91.17c-.12,0-.48.23-.6.19s-.35-.12-.38-.25S260.89,203,261,203Z"/>
                <path class="cls-4" d="M261.48,193.69a1.93,1.93,0,0,0,0,1.74,11,11,0,0,0,1.94,3.34c.3.36.56.09,1.07.13s1.09.22,1.3-.06a6.15,6.15,0,0,0,1.21-3.06,2.81,2.81,0,0,0-.18-1.68,2.58,2.58,0,0,0-1.61-1.32,3.87,3.87,0,0,0-1.92.1A3.08,3.08,0,0,0,261.48,193.69Z"/>
              </g>
              <g>
                <path class="cls-4" d="M258.78,186.61a4.09,4.09,0,0,0,.2,3.56,5.1,5.1,0,0,0,2.8,2.28,6.86,6.86,0,0,0,3.65.14c.22-.06.5-.21.43-.43a.4.4,0,0,0-.15-.19l-1-.85a3.38,3.38,0,0,1,.84,0,.86.86,0,0,0,.75-.28c.16-.23,0-.64-.27-.61a1.79,1.79,0,0,0,1.12,0c.35-.16.55-.67.27-.93.24,0,.38-.31.28-.53a1.09,1.09,0,0,0-.54-.45.36.36,0,0,0,.47-.23.58.58,0,0,0-.16-.55,1.69,1.69,0,0,0-.49-.33l-1.36-.72Z"/>
                <path class="cls-3" d="M263.8,193a6.38,6.38,0,0,1-2.1-.34,5.33,5.33,0,0,1-2.95-2.4,4.33,4.33,0,0,1-.21-3.79.26.26,0,0,1,.34-.13.26.26,0,0,1,.14.35,3.78,3.78,0,0,0,.19,3.32,4.84,4.84,0,0,0,2.66,2.16,6.45,6.45,0,0,0,3.5.13.45.45,0,0,0,.25-.13s-.06,0-.08,0l-1-.85a.27.27,0,0,1-.08-.27.26.26,0,0,1,.19-.19,2.16,2.16,0,0,1,.67,0l.24,0c.11,0,.41,0,.52-.17a.14.14,0,0,0,0-.13.11.11,0,0,0,0-.06l-.1,0a.26.26,0,0,1,0-.51.57.57,0,0,1,.26,0,1.24,1.24,0,0,0,.77,0,.45.45,0,0,0,.25-.32.18.18,0,0,0,0-.18.26.26,0,0,1-.05-.3.24.24,0,0,1,.25-.15.17.17,0,0,0,0-.16c-.05-.13-.23-.23-.41-.32h0a.25.25,0,0,1-.11-.35.26.26,0,0,1,.35-.12h0a.14.14,0,0,0,.1-.08.3.3,0,0,0-.1-.29,1.29,1.29,0,0,0-.42-.28l-1.36-.71a.28.28,0,0,1-.12-.36.28.28,0,0,1,.36-.11l1.36.72a1.71,1.71,0,0,1,.57.39.84.84,0,0,1,.21.8.76.76,0,0,1-.13.23.83.83,0,0,1,.19.26.7.7,0,0,1-.07.67l-.08.09a.74.74,0,0,1,0,.33,1,1,0,0,1-.54.72,1.44,1.44,0,0,1-.64.11.65.65,0,0,1-.11.41,1.09,1.09,0,0,1-1,.39h-.1l.46.39a.65.65,0,0,1,.23.31.48.48,0,0,1,0,.39,1,1,0,0,1-.59.37A7.46,7.46,0,0,1,263.8,193Z"/>
              </g>
              <g>
                <path class="cls-16" d="M252.79,181.38a6.16,6.16,0,0,0,.21,2.93,1,1,0,0,0,.74.71.88.88,0,0,0,.85-.61,1.83,1.83,0,0,0-.17-1.59C254.15,182.34,253,180.92,252.79,181.38Z"/>
                <path class="cls-16" d="M257.14,180.58a.43.43,0,0,1-.1.27.34.34,0,0,1-.45,0,1.18,1.18,0,0,1-.26-.43,4.13,4.13,0,0,0-1.66-1.87,1.74,1.74,0,0,1,2-.17c.18.11.35.3.3.5s-.14.23-.15.36a.58.58,0,0,0,.12.32A1.83,1.83,0,0,1,257.14,180.58Z"/>
                <g>
                  <path class="cls-11" d="M254,180.62a1,1,0,0,0-.11-.46.31.31,0,0,0-.59.12,1.33,1.33,0,0,0,.19.72.3.3,0,0,0,.35.11C254,181,254,180.81,254,180.62Z"/>
                  <path class="cls-4" d="M253.83,180.36a.28.28,0,0,0,0-.13s-.08-.07-.12,0-.05,0-.06.08,0,.07,0,.11a.24.24,0,0,0,.05.1.1.1,0,0,0,.1,0C253.83,180.48,253.83,180.42,253.83,180.36Z"/>
                </g>
              </g>
            </g>
          </g>
          <g>
            <path class="cls-13" d="M243.74,187.35c0,1-3.83,1.87-8.54,1.87s-8.54-.84-8.54-1.87,3.82-1.88,8.54-1.88S243.74,186.31,243.74,187.35Z"/>
            <g>
              <g>
                <g>
                  <path class="cls-14" d="M230.35,185.53a.43.43,0,0,1,.28-.15,1.35,1.35,0,0,1,.4,0,.58.58,0,0,1,.35-.15,8.24,8.24,0,0,1,.87.14,1.51,1.51,0,0,0,.87,0,.64.64,0,0,1-.1.13.36.36,0,0,1-.17.32,1.18,1.18,0,0,1-.46.09l-1.74,0c-.12,0-.26,0-.33-.1A.23.23,0,0,1,230.35,185.53Z"/>
                  <path class="cls-4" d="M234.35,186.24a.13.13,0,0,1-.09,0,1.51,1.51,0,0,1-.37-.07.7.7,0,0,1,.19-.36.57.57,0,0,1,.27.28A.12.12,0,0,1,234.35,186.24Z"/>
                  <path class="cls-15" d="M230.34,185.85a1.42,1.42,0,0,1,.45-.16,4.88,4.88,0,0,1,1,0,.92.92,0,0,0,1.21-.78,7.3,7.3,0,0,0,.34-1.54,2.42,2.42,0,0,0-.33-1.52.58.58,0,0,1-.12-.32h1.89a2.29,2.29,0,0,1-.34,1.11,2.35,2.35,0,0,0-.46.92,1.51,1.51,0,0,0,.29.86c-.14.19-.5-.42-.77.34a.72.72,0,0,0,.09.81c.1.09.38.14.47.24a.4.4,0,0,1,0,.43.31.31,0,0,1-.31.14c-.12,0-.31-.23-.43-.27a2.84,2.84,0,0,0-1.44.08,7.12,7.12,0,0,1-.9.17c-.13,0-.48.23-.61.19s-.35-.12-.37-.25S230.23,185.93,230.34,185.85Z"/>
                  <path class="cls-4" d="M230,186.53a.75.75,0,0,0,.42,0,1.76,1.76,0,0,1-.3-.24A.4.4,0,0,0,230,186.53Z"/>
                  <path class="cls-4" d="M230.15,185.94a.79.79,0,0,0,.43,0,1.26,1.26,0,0,1-.31-.25A.5.5,0,0,0,230.15,185.94Z"/>
                </g>
                <path class="cls-4" d="M236,175.65c-.55-.31-.81-1-1.43-1s-2.05,2.26-2.45,2.87a2.36,2.36,0,0,0-.11,1.83,11.16,11.16,0,0,0,.87,2.36c.19.38.48.24.9.3s.82.28,1.14,0a6.54,6.54,0,0,0,1.76-2.42C237,178.62,236.86,176.14,236,175.65Z"/>
              </g>
              <g>
                <path class="cls-4" d="M247.09,175a3.54,3.54,0,0,0-1.37-.24l1.14-.26c.14,0,.3-.09.31-.23s-.13-.2-.24-.24a4.11,4.11,0,0,0-2.85-.12c.08-.16.29-.2.46-.25s.37-.21.31-.38-.23-.18-.38-.18a9.35,9.35,0,0,0-4.57,1.42,8.24,8.24,0,0,0-3.2-3.61,13,13,0,0,0-4.59-1.3c-.11,0-.35-.38-.44-.47l-.44-.52a7,7,0,0,1-.5-.94,4,4,0,0,1-.82-1.89,8,8,0,0,0-.23-1.47,2,2,0,0,0-.62-.58,1.64,1.64,0,0,0-2.06.21,3.11,3.11,0,0,0-.85,2,1.63,1.63,0,0,0,.55,1.56c.16.09.58-.1.6.92a13,13,0,0,0,.51,4.56h.07c0,.13,0,.26,0,.39a10.18,10.18,0,0,0,1.71,4.82,8.84,8.84,0,0,0,5.41,3.26c1.51.3,3.31-1.09,5-2.07a51.67,51.67,0,0,1,5.59-1.74c.39-.09.87-.28.9-.69a.65.65,0,0,0-.4-.59,1.89,1.89,0,0,0-.75-.14,10.4,10.4,0,0,0,1.63-.46c.24-.09.52-.28.46-.52A.52.52,0,0,0,247.09,175Z"/>
                <path class="cls-3" d="M239.46,178.28c.24-.07.3-.42.17-.64a1.58,1.58,0,0,0-.57-.48,3.45,3.45,0,0,1-1.18-1.28l-.08.11a2.78,2.78,0,0,0-2-1.05,2.87,2.87,0,0,1-2-1c-.05-.07-.12-.15-.19-.12s-.05.09-.05.15a6.62,6.62,0,0,0,.61,2.83l-1.2-1a.37.37,0,0,0-.19-.09c-.18,0-.23.26-.16.43s.2.34.15.51a.36.36,0,0,1-.36.21,1.23,1.23,0,0,1-.42-.14l-1.14-.58a.48.48,0,0,1-.86.31c-.14-.16-.16-.41-.31-.57a1.35,1.35,0,0,0-.45-.27,2.37,2.37,0,0,1-.89-1.35,10.14,10.14,0,0,0,2.06,4.12,7.65,7.65,0,0,0,2.79,2.19,5.25,5.25,0,0,0,3.49.31,9.51,9.51,0,0,0,3.21-2l-.45-.09a1.11,1.11,0,0,0,.63-.57Z"/>
              </g>
              <g>
                <g>
                  <path class="cls-15" d="M232.61,186.79a.59.59,0,0,1,.28-.15,1.41,1.41,0,0,1,.41,0,.73.73,0,0,1,.34-.14,2.41,2.41,0,0,1,.88.13,1.3,1.3,0,0,0,.87,0l-.1.14a.34.34,0,0,1-.18.31,1,1,0,0,1-.46.09l-1.74,0a.35.35,0,0,1-.33-.1A.24.24,0,0,1,232.61,186.79Z"/>
                  <path class="cls-4" d="M236.61,187.5a.13.13,0,0,1-.09,0,1.53,1.53,0,0,1-.36-.07.61.61,0,0,1,.19-.35.55.55,0,0,1,.27.27S236.65,187.47,236.61,187.5Z"/>
                  <path class="cls-14" d="M232.61,187.12a1.12,1.12,0,0,1,.44-.17,4.34,4.34,0,0,1,1,0,1.33,1.33,0,0,0,.88-.18,1.21,1.21,0,0,0,.32-.6,7.53,7.53,0,0,0,.34-1.55,2.45,2.45,0,0,0-.33-1.52.48.48,0,0,1-.11-.32h1.89a2.44,2.44,0,0,1-.34,1.12,2.24,2.24,0,0,0-.46.91,1.55,1.55,0,0,0,.28.87c-.13.19-.49-.42-.76.34a.7.7,0,0,0,.09.8c.1.1.37.14.47.24a.46.46,0,0,1,0,.44.35.35,0,0,1-.32.14c-.12,0-.31-.24-.42-.28a2.94,2.94,0,0,0-1.44.08,7,7,0,0,1-.91.18c-.12,0-.48.22-.6.19s-.35-.13-.38-.26S232.49,187.2,232.61,187.12Z"/>
                  <path class="cls-4" d="M232.3,187.8a.86.86,0,0,0,.42,0,1.72,1.72,0,0,1-.31-.24A.39.39,0,0,0,232.3,187.8Z"/>
                  <path class="cls-4" d="M232.42,187.21a.85.85,0,0,0,.42,0,2.34,2.34,0,0,1-.31-.24A.39.39,0,0,0,232.42,187.21Z"/>
                </g>
                <path class="cls-4" d="M238.25,176.91c-.55-.3-.81-1-1.44-1s-2.05,2.27-2.44,2.87a2.32,2.32,0,0,0-.11,1.83,10.93,10.93,0,0,0,.86,2.36c.2.38.48.24.91.31s.82.27,1.14-.05a6.59,6.59,0,0,0,1.76-2.41C239.25,179.88,239.13,177.41,238.25,176.91Z"/>
              </g>
              <g>
                <path class="cls-4" d="M232.5,171.65a13,13,0,0,0,1.93,4.23,4.08,4.08,0,0,0,1.56,1.47c.11,0,.25.07.32,0s0-.2-.06-.28l-1-1.56a4.07,4.07,0,0,0,1.78,1.75.35.35,0,0,0,.35,0c.15-.1.09-.34,0-.5a10.36,10.36,0,0,0-.92-1.35,3.92,3.92,0,0,0,2,1.36.49.49,0,0,0,.5-.06c.15-.17,0-.44-.13-.62a13.78,13.78,0,0,0-1.58-1.66l.74.26a.37.37,0,0,0,.29,0c.15-.08.1-.33,0-.46s-.29-.23-.33-.41a1,1,0,0,0,.44.31.37.37,0,0,0,.45-.18.55.55,0,0,0-.12-.44,5,5,0,0,0-.89-1Z"/>
                <path class="cls-3" d="M236.17,177.65a.74.74,0,0,1-.28-.06,4.34,4.34,0,0,1-1.68-1.57,13.24,13.24,0,0,1-2-4.3.27.27,0,0,1,.19-.32.25.25,0,0,1,.32.19,12.65,12.65,0,0,0,1.89,4.14,4.25,4.25,0,0,0,1.28,1.29l-.47-.71a4.64,4.64,0,0,1-.45-.7.26.26,0,0,1,.45-.26l.43.65a3.91,3.91,0,0,0,1.24,1l.06,0a.51.51,0,0,0-.05-.12,8.39,8.39,0,0,0-.82-1.22.86.86,0,0,0-.07-.1.26.26,0,0,1,0-.36.27.27,0,0,1,.37,0l.07.09a3.62,3.62,0,0,0,1.79,1.18.55.55,0,0,0,.24,0,.62.62,0,0,0-.14-.29,14,14,0,0,0-1.55-1.63.27.27,0,0,1-.05-.33.27.27,0,0,1,.31-.11l.74.26h0l0,0a.34.34,0,0,0-.09-.08.88.88,0,0,1-.3-.45.26.26,0,0,1,.13-.29.27.27,0,0,1,.31,0,.87.87,0,0,0,.32.24.15.15,0,0,0,.13,0s0,0-.09-.2a4.73,4.73,0,0,0-.84-.95.26.26,0,1,1,.34-.39,4.64,4.64,0,0,1,.93,1.05.76.76,0,0,1,.15.66.56.56,0,0,1-.43.36.74.74,0,0,1,0,.21.49.49,0,0,1-.23.33.67.67,0,0,1-.19,0,12.26,12.26,0,0,1,.82.94c.29.36.34.72.12,1a.7.7,0,0,1-.76.13,4.2,4.2,0,0,1-.74-.29.52.52,0,0,1-.74.72l-.3-.16a.49.49,0,0,1-.06.16A.42.42,0,0,1,236.17,177.65Z"/>
              </g>
              <g>
                <path class="cls-16" d="M227.82,168a7.63,7.63,0,0,0,.21,1.16,1.41,1.41,0,0,0,.18.44.51.51,0,0,0,.4.23c.31,0,.48-.35.56-.65a5.18,5.18,0,0,0-.12-3,2.11,2.11,0,0,0-1.21,1.09A1.83,1.83,0,0,0,227.82,168Z"/>
                <path class="cls-16" d="M226.48,164.78c-1.48-1,.06-.91.21-1.42a2.51,2.51,0,0,1,.38-.54.56.56,0,0,1,.48-.25c.19,0,.36,0,.32.19.09-.14.19-.1.34-.18a.36.36,0,0,1,.47,0,.45.45,0,0,1,.09.26c0,.24.19.55.23.8A3.5,3.5,0,0,0,226.48,164.78Z"/>
                <g>
                  <path class="cls-11" d="M227.91,165.16l-.1,0a.38.38,0,0,0-.42.3.38.38,0,0,0,.25.4.36.36,0,0,0,.27-.67Z"/>
                  <path class="cls-4" d="M227.86,165.19h0a.15.15,0,0,0-.17.12.15.15,0,0,0,.1.16.15.15,0,0,0,.11-.27Z"/>
                </g>
                <path class="cls-14" d="M226.91,166.85a.59.59,0,0,1-.13,0,.15.15,0,0,1,0-.18c0-.06,0-.12,0-.18a.22.22,0,0,0-.12-.18.79.79,0,0,0-.22-.06.53.53,0,0,0-.43,0,.5.5,0,0,0-.13.19,2.25,2.25,0,0,0-.19,1.25l.66-.1a.76.76,0,0,0,.42-.15.55.55,0,0,0,.17-.23.5.5,0,0,0,.08-.2A.2.2,0,0,0,226.91,166.85Z"/>
              </g>
            </g>
          </g>
          <g>
            <g>
              <g>
                <path class="cls-4" d="M195.66,169.09l.24,0a.17.17,0,0,0,0-.18.16.16,0,0,0-.17-.06Z"/>
                <path class="cls-14" d="M195.36,168.79c-.17-.11,0-.42.07-.61.12-.37.31-.79.43-1.16a7.89,7.89,0,0,0,.21-1.35c0-.18-.56-.21-.74-.2a.41.41,0,0,0-.33.3,1.48,1.48,0,0,0,0,.47,8.85,8.85,0,0,1-.05,1.71,1.24,1.24,0,0,1-.54.74c-.6.35-1.4,0-2,.29-.09,0-.2.12-.19.22s.18.21.31.2c.45,0,.48-.17,1.48-.27.09,0,.19-.08.25,0a.15.15,0,0,1,0,.19.51.51,0,0,1-.18.09q-.73.25-1.44.57a1.18,1.18,0,0,0-.35.23.39.39,0,0,0-.11.39.4.4,0,0,0,.43.23c.17,0,.23-.26.38-.35.57-.36,1.24-.59,1.8-1,0,.33-.54.63-.81.83s-.62.44-.42.68c.65.33,1.17-.47,1.6-1.21.1-.16.14-.33.31-.42a1.11,1.11,0,0,1,.29-.14c.11,0,.22-.12.2-.23s-.13-.15-.23-.16A.76.76,0,0,1,195.36,168.79Z"/>
                <path class="cls-4" d="M192.3,169.1a.36.36,0,0,0-.17.3.21.21,0,0,0,.21-.09A.16.16,0,0,0,192.3,169.1Z"/>
                <path class="cls-4" d="M192.13,170.48a.82.82,0,0,0,0,.41l.35-.23a.34.34,0,0,0,0-.22.14.14,0,0,0-.19-.08A.17.17,0,0,0,192.13,170.48Z"/>
                <path class="cls-4" d="M193.42,171.23s.06,0,.09,0l.21-.15a.24.24,0,0,0-.21-.2.67.67,0,0,0-.1.3S193.4,171.22,193.42,171.23Z"/>
              </g>
              <path class="cls-4" d="M194.76,166c.14.23.63.11.89.23s.46.34.73.13a4.79,4.79,0,0,0,1.68-4.67,2,2,0,0,0-1.13-1.61,1.47,1.47,0,0,0-1.21.18A3.42,3.42,0,0,0,194,162.7,4.79,4.79,0,0,0,194.76,166Z"/>
            </g>
            <g>
              <path class="cls-4" d="M208.54,148.67a3.33,3.33,0,0,0-4.16-.64,1.85,1.85,0,0,1,.87-1.27,3.57,3.57,0,0,0-3.85,1.7,4.11,4.11,0,0,1,.51-1.78,5.28,5.28,0,0,0-2.12,3.74c-.19,1.11-.2,2.25-.32,3.37a20.5,20.5,0,0,0-3.5-.2,7.85,7.85,0,0,0-3.81,1.11,8.73,8.73,0,0,0-3.22,4.62,15.9,15.9,0,0,0-.69,2.9,7.67,7.67,0,0,0-.16,1.07,30.33,30.33,0,0,0,0,4.67,1.48,1.48,0,0,0-.21.54,4.47,4.47,0,0,0,1.17,3.94.77.77,0,0,0,.73.32.9.9,0,0,0,.4-.35,6.77,6.77,0,0,0,1-1.61,2.26,2.26,0,0,0,0-1.82,1.63,1.63,0,0,0-.36-.46,7,7,0,0,1,2.07-2.56l1.62-.17a10,10,0,0,0,5.63-1.92,7.37,7.37,0,0,0,2.23-4.27,10,10,0,0,0,.15-1.64,4.23,4.23,0,0,0,1.38-1.77c.5-1.15.64-2.42,1-3.61a4.2,4.2,0,0,1,2.31-2.81,4.88,4.88,0,0,0-2-.08A4.5,4.5,0,0,1,208.54,148.67Z"/>
              <path class="cls-3" d="M192.72,165.11a11.78,11.78,0,0,1,2.58-.34l-1.84.51a9.55,9.55,0,0,0,5.69-1.32,6.61,6.61,0,0,0,3.11-4.82,1.17,1.17,0,0,1-.67.84,1.59,1.59,0,0,0,.59-1.74,5.67,5.67,0,0,1-2.29,3.06,16.11,16.11,0,0,1-3.48,1.72,18.53,18.53,0,0,0-3.51,1.67,5.3,5.3,0,0,1,1.88-.46Z"/>
            </g>
            <g>
              <g>
                <path class="cls-4" d="M198.26,171.66l.24.05a.17.17,0,0,0,0-.17.15.15,0,0,0-.16-.07Z"/>
                <path class="cls-14" d="M198,171.36c-.17-.1,0-.42.08-.61.11-.37.3-.78.42-1.16a7.74,7.74,0,0,0,.21-1.35c0-.18-.55-.21-.73-.2a.39.39,0,0,0-.33.3,1.29,1.29,0,0,0,0,.48,8,8,0,0,1,0,1.7,1.23,1.23,0,0,1-.55.74c-.6.35-1.4,0-2,.29-.1,0-.2.12-.19.23s.17.2.31.19c.45,0,.48-.17,1.47-.27.09,0,.19-.07.25,0a.14.14,0,0,1,0,.19.35.35,0,0,1-.17.09q-.74.25-1.44.57a1.23,1.23,0,0,0-.36.23.39.39,0,0,0-.11.39.4.4,0,0,0,.43.23c.18,0,.23-.26.38-.35.58-.36,1.24-.59,1.8-1,0,.33-.53.63-.8.83s-.62.44-.43.68c.65.34,1.18-.47,1.6-1.2.1-.17.14-.34.31-.42a.89.89,0,0,1,.29-.15c.11,0,.23-.12.21-.23s-.14-.15-.24-.16A.52.52,0,0,1,198,171.36Z"/>
                <path class="cls-4" d="M194.89,171.67a.37.37,0,0,0-.16.3.21.21,0,0,0,.21-.09A.16.16,0,0,0,194.89,171.67Z"/>
                <path class="cls-4" d="M194.72,173.05a1.13,1.13,0,0,0-.05.41l.36-.23a.56.56,0,0,0,0-.22.15.15,0,0,0-.19-.08A.19.19,0,0,0,194.72,173.05Z"/>
                <path class="cls-4" d="M196,173.8s.06,0,.08,0l.22-.16a.28.28,0,0,0-.22-.2.82.82,0,0,0-.1.3S196,173.79,196,173.8Z"/>
              </g>
              <path class="cls-4" d="M197.36,168.56c.14.23.63.11.89.23s.45.34.72.13c1.37-1.06,2.75-5.52,2.43-7.37a2,2,0,0,0-1.13-1.61,1.47,1.47,0,0,0-1.21.18c-.94.52-2.3,4.11-2.48,5.15A4.84,4.84,0,0,0,197.36,168.56Z"/>
            </g>
            <g>
              <path class="cls-4" d="M193.31,162.21a8.48,8.48,0,0,0,6.49-.86,2.59,2.59,0,0,0,.71-.5,1,1,0,0,0,.28-.81l-.2,0a.71.71,0,0,1-.52.43,3.56,3.56,0,0,0,1.48-2.59l-.3.3a2,2,0,0,0,.57-1.35,2.15,2.15,0,0,0,0-.67.7.7,0,0,0-.38-.54.43.43,0,0,0-.57.22.42.42,0,0,0,.25-.6.66.66,0,0,0-.64-.3,1.94,1.94,0,0,0-.71.25c.14-.12.05-.37-.11-.45a.77.77,0,0,0-.54,0,8.4,8.4,0,0,0-3,1.59,24.13,24.13,0,0,0-2.48,2.37Z"/>
              <path class="cls-3" d="M195.38,162.8a6.63,6.63,0,0,1-2.15-.34.26.26,0,0,1-.17-.33.26.26,0,0,1,.33-.16,8.41,8.41,0,0,0,6.29-.85,2.46,2.46,0,0,0,.64-.45l.05-.06a1.06,1.06,0,0,1-.25.09.26.26,0,0,1-.29-.16.25.25,0,0,1,.09-.31,3.31,3.31,0,0,0,1.27-1.82.29.29,0,0,1-.14-.08.26.26,0,0,1,0-.36l.17-.17a2.28,2.28,0,0,0,.33-1,1.68,1.68,0,0,0,0-.59.43.43,0,0,0-.22-.34h0a.53.53,0,0,1-.39.24.25.25,0,0,1-.28-.34.6.6,0,0,1,.28-.33.08.08,0,0,0,0,0,.41.41,0,0,0-.39-.17,1.67,1.67,0,0,0-.62.23.27.27,0,0,1-.33-.09.27.27,0,0,1,0-.34s0,0-.05,0a.65.65,0,0,0-.36,0,8,8,0,0,0-2.93,1.53,24.73,24.73,0,0,0-2.45,2.35l-.38-.36a26,26,0,0,1,2.51-2.4,8.47,8.47,0,0,1,3.12-1.63,1,1,0,0,1,.73,0,.64.64,0,0,1,.26.28,1.45,1.45,0,0,1,.41-.1.92.92,0,0,1,.9.44.58.58,0,0,1,.08.22l.12,0a1,1,0,0,1,.53.73,2.39,2.39,0,0,1,0,.76,4.08,4.08,0,0,1-.26,1v0a3.94,3.94,0,0,1-.81,2,.29.29,0,0,1,0,.1,1.2,1.2,0,0,1-.33,1,2.94,2.94,0,0,1-.79.56A9.86,9.86,0,0,1,195.38,162.8Z"/>
            </g>
            <g>
              <path class="cls-16" d="M191.26,170s0,0-.07.07a2.75,2.75,0,0,0,0,2.5c.11.21.32.43.53.35s.24-.31.24-.52a3.69,3.69,0,0,0-.57-2.32S191.31,170,191.26,170Z"/>
              <path class="cls-16" d="M188.05,167.56a2.64,2.64,0,0,0-.89,1.09,1.42,1.42,0,0,0-.18.56.58.58,0,0,0,.22.51.38.38,0,0,0,.52-.09,5.17,5.17,0,0,0-.22,1.4,1.86,1.86,0,0,0,.47,1.3c.2.2.53.33.74.16a.7.7,0,0,0,.16-.66C188.76,170.51,188.17,168.88,188.05,167.56Z"/>
              <g>
                <path class="cls-11" d="M190.39,171.34a.62.62,0,0,0,.31-.91A.62.62,0,0,0,190.39,171.34Z"/>
                <path class="cls-4" d="M190.51,170.9a.22.22,0,0,0,.1-.32A.22.22,0,0,0,190.51,170.9Z"/>
              </g>
              <path class="cls-14" d="M190.56,171.79a.92.92,0,0,0-.4.27,1.79,1.79,0,0,1-.38.3.42.42,0,0,1-.46,0,.3.3,0,0,0,0,.29.7.7,0,0,0,.14.27,4.3,4.3,0,0,0,.71.77A4.45,4.45,0,0,0,190.56,171.79Z"/>
            </g>
          </g>
          <g>
            <path class="cls-13" d="M193.91,196.21c0,1.26-5.59,2.29-12.48,2.29s-12.48-1-12.48-2.29,5.58-2.29,12.48-2.29S193.91,195,193.91,196.21Z"/>
            <g>
              <g>
                <g>
                  <path class="cls-14" d="M184.73,195.28a1,1,0,0,0-.35-.15,1.57,1.57,0,0,0-.43,0,1,1,0,0,0-.42-.15,2.1,2.1,0,0,0-.87.14,1.42,1.42,0,0,1-.91,0,1,1,0,0,0,.15.14.58.58,0,0,0,.29.33,1.17,1.17,0,0,0,.51.09l1.85,0c.13,0,.27,0,.31-.11S184.83,195.37,184.73,195.28Z"/>
                  <path class="cls-4" d="M185.08,195.72a.92.92,0,0,1-.46,0,1.48,1.48,0,0,0,.24-.26A.68.68,0,0,1,185.08,195.72Z"/>
                  <path class="cls-4" d="M180.77,196a.12.12,0,0,0,.11,0,.26.26,0,1,0,0-.44.36.36,0,0,0-.18.29A.13.13,0,0,0,180.77,196Z"/>
                  <path class="cls-15" d="M184.85,195.63a1.82,1.82,0,0,0-.53-.17,4.91,4.91,0,0,0-1.08,0,1.75,1.75,0,0,1-1-.18,2.07,2.07,0,0,1-.54-.64,10.91,10.91,0,0,1-.91-1.62,2.47,2.47,0,0,1-.18-1.6.47.47,0,0,0,0-.33h-2a3.7,3.7,0,0,0,.75,1.17,4,4,0,0,1,.81,1,1.39,1.39,0,0,1,0,.9c.21.21.37-.44.92.36.21.31.36.63.19.85s-.34.15-.41.25a.49.49,0,0,0,.11.46.48.48,0,0,0,.38.14c.12,0,.24-.25.35-.29a3.29,3.29,0,0,1,1.54.09,9.33,9.33,0,0,0,1,.18c.14,0,.59.24.7.2s.32-.13.31-.26S185,195.71,184.85,195.63Z"/>
                  <path class="cls-4" d="M185.41,196.34a.87.87,0,0,1-.45,0,1,1,0,0,0,.23-.26A.75.75,0,0,1,185.41,196.34Z"/>
                </g>
                <path class="cls-3" d="M180.7,187.92a3.94,3.94,0,0,0-1.52-2.43,3.14,3.14,0,0,0-2.15-.34,9.26,9.26,0,0,0-2.1.7l.16,1.07a8.79,8.79,0,0,0,4.27,5.48c.43.24.64.06,1-.25s.67-.07.69-.43A13.48,13.48,0,0,0,180.7,187.92Z"/>
              </g>
              <g>
                <path class="cls-4" d="M195.51,183.16l0,0a10.51,10.51,0,0,0-5.8-2.65c-1.95-.3-3.94-.31-5.9-.47a8.07,8.07,0,0,1-3.26-3.39,18.11,18.11,0,0,1-1.2-3.76,11.66,11.66,0,0,0-1.41-3.68,4.52,4.52,0,0,0-3.17-2.15c.16.45.32.9.49,1.35A8,8,0,0,0,173,168a1,1,0,0,0-.87.28c-.19.25,0,.73.32.63l-1.43.39,1.26.55-.46.12a3.85,3.85,0,0,1,.92,1.63c.2,1.06-.49,2.06-1,3a13.18,13.18,0,0,0,.11,11.65c1.84,3.17,5.41,4.1,9.08,4a10.22,10.22,0,0,0,6.33-2.5,13.73,13.73,0,0,1,5.65-1.21v0a4.64,4.64,0,0,0,2.17,2.09.32.32,0,0,0,.26.07.31.31,0,0,0,.16-.14,5.78,5.78,0,0,0,1.22-2.8A2.83,2.83,0,0,0,195.51,183.16Z"/>
                <path class="cls-3" d="M185.45,187.87a8.56,8.56,0,0,1-3.82.82,5.06,5.06,0,0,0,2.48-1.28,4.14,4.14,0,0,1-2.65,0l1-.56a2.42,2.42,0,0,1-1.6-.47,2.18,2.18,0,0,0,1.47-1.12l-1,.33,1.5-1.93a4.5,4.5,0,0,1-4.27.37,7.46,7.46,0,0,1-3.29-2.93,22,22,0,0,1-1.9-4l-.61,1.16c-.07-.59-.14-1.19-.2-1.79a18.18,18.18,0,0,0-.68,4.33,6.5,6.5,0,0,1-.5-2.54,2.89,2.89,0,0,0-.37,1.68c-.07-.55-.13-1.09-.2-1.63a7.36,7.36,0,0,0,.43,4.5,12.2,12.2,0,0,0,2.71,4.5,9,9,0,0,0,11.58,1,4.18,4.18,0,0,1-2,.61A4.31,4.31,0,0,0,185.45,187.87Z"/>
              </g>
              <g>
                <g>
                  <path class="cls-15" d="M180.74,196.51a.64.64,0,0,0-.36-.17,1.62,1.62,0,0,0-.49,0,1.05,1.05,0,0,0-.44-.18,2.64,2.64,0,0,0-1,.16,1.61,1.61,0,0,1-1.06,0,1.07,1.07,0,0,0,.14.16.47.47,0,0,0,.25.38,1.41,1.41,0,0,0,.57.11l2.11.05a.43.43,0,0,0,.4-.12A.32.32,0,0,0,180.74,196.51Z"/>
                  <path class="cls-4" d="M181,197a1.15,1.15,0,0,1-.52,0,2,2,0,0,0,.34-.3A.57.57,0,0,1,181,197Z"/>
                  <path class="cls-4" d="M176,197.37a.17.17,0,0,0,.12,0,2,2,0,0,0,.43-.08.84.84,0,0,0-.28-.44.65.65,0,0,0-.29.34A.16.16,0,0,0,176,197.37Z"/>
                  <path class="cls-14" d="M180.79,196.91a1.64,1.64,0,0,0-.56-.2,5.72,5.72,0,0,0-1.24,0,1.78,1.78,0,0,1-1.09-.21,1.65,1.65,0,0,1-.47-.74,9.08,9.08,0,0,1-.61-1.87A2.9,2.9,0,0,1,177,192a.59.59,0,0,0,.1-.38h-2.3a3.32,3.32,0,0,0,.56,1.35,3.12,3.12,0,0,1,.67,1.11,1.72,1.72,0,0,1-.23,1c.18.24.54-.5,1,.42.16.35.24.72,0,1-.11.11-.44.17-.54.29a.51.51,0,0,0,0,.53.43.43,0,0,0,.4.16c.14,0,.34-.28.48-.33a3.54,3.54,0,0,1,1.76.1,10.34,10.34,0,0,0,1.11.21c.16,0,.62.28.76.23s.41-.15.43-.31S180.94,197,180.79,196.91Z"/>
                  <path class="cls-4" d="M181.25,197.74a1.15,1.15,0,0,1-.52,0,2,2,0,0,0,.34-.3A.57.57,0,0,1,181.25,197.74Z"/>
                </g>
                <path class="cls-4" d="M171.72,185.12a.27.27,0,0,0-.34-.15,10.46,10.46,0,0,0,3.94,7.93.84.84,0,0,0,.91-.06c.2-.12.79.15.85-.07a15.32,15.32,0,0,0,.27-3,7.74,7.74,0,0,0-.26-2.84,3.92,3.92,0,0,0-1.69-2.25,2.67,2.67,0,0,0-2.73,0Z"/>
              </g>
              <g>
                <path class="cls-4" d="M179.66,178.1a10.69,10.69,0,0,0-1.61-2.06c-.13-.13-.29-.27-.47-.23s-.31.38-.23.61.26.43.32.67a8.25,8.25,0,0,0-2.55-2.8,4,4,0,0,0,.63,2.34,2.24,2.24,0,0,0-.83-1.17.46.46,0,0,0-.43-.11c-.17.06-.22.28-.24.47a8.16,8.16,0,0,0,1.09,4.85l-1.23-1c-.14-.11-.32-.22-.47-.14s-.17.38-.1.58a8.92,8.92,0,0,0,1.71,3,1.21,1.21,0,0,0-1.09-.63,2,2,0,0,0,1.16,2,5.63,5.63,0,0,0,2.41.42.86.86,0,0,0-.59,0,.43.43,0,0,0-.27.49c.07.26.4.33.67.34a6.71,6.71,0,0,0,5.4-2.5Z"/>
                <path class="cls-3" d="M177.75,186.06h-.22c-.5,0-.82-.21-.91-.54a.52.52,0,0,1,0-.35,4.29,4.29,0,0,1-1.43-.39,2.22,2.22,0,0,1-1.3-2.27.28.28,0,0,1,.25-.21h.12a9.41,9.41,0,0,1-1-2.08c-.14-.42,0-.76.23-.9a.74.74,0,0,1,.75.17l.32.26a8.52,8.52,0,0,1-.6-4c0-.37.17-.61.41-.7a.62.62,0,0,1,.51.05,3.64,3.64,0,0,1,0-.87.26.26,0,0,1,.14-.22.24.24,0,0,1,.26,0,8.29,8.29,0,0,1,1.89,1.75h0a.53.53,0,0,1,.37-.28.82.82,0,0,1,.72.31,10.86,10.86,0,0,1,1.64,2.11.26.26,0,0,1-.08.36.27.27,0,0,1-.36-.09,11,11,0,0,0-1.57-2c-.16-.16-.22-.16-.24-.16a.29.29,0,0,0,0,.27,1.26,1.26,0,0,0,.13.26,1.69,1.69,0,0,1,.19.43.25.25,0,0,1-.15.31.27.27,0,0,1-.33-.12,8,8,0,0,0-2.05-2.4,4,4,0,0,0,.22,1,2.43,2.43,0,0,1,.39.77.28.28,0,0,1-.14.32.27.27,0,0,1-.33-.1,4.22,4.22,0,0,1-.38-.73,2.22,2.22,0,0,0-.38-.37c-.12-.08-.17-.08-.18-.08s-.06,0-.08.25a7.85,7.85,0,0,0,1.05,4.69.27.27,0,0,1-.05.33.26.26,0,0,1-.33,0l-1.23-1c-.14-.12-.19-.12-.2-.12a.71.71,0,0,0,0,.27,8.65,8.65,0,0,0,1.37,2.6,1.42,1.42,0,0,1,.32.41.27.27,0,0,1-.08.34.28.28,0,0,1-.35,0l-.27-.33a1,1,0,0,0-.39-.19,1.8,1.8,0,0,0,1.05,1.46,4.3,4.3,0,0,0,1.71.37,1.17,1.17,0,0,1,.66,0,.25.25,0,0,1,.18.29.26.26,0,0,1-.26.22l-.5,0a.18.18,0,0,0-.11.17c0,.08.2.14.43.15a6.45,6.45,0,0,0,5.19-2.4.25.25,0,0,1,.36,0,.26.26,0,0,1,.05.37A7,7,0,0,1,177.75,186.06Z"/>
              </g>
              <g>
                <path class="cls-16" d="M193.06,186.5a7.89,7.89,0,0,1-.39,1.4,1.47,1.47,0,0,0,.21,1.37,1,1,0,0,0,.81.29,1.2,1.2,0,0,0,.76-.41,1,1,0,0,0,.26-.82,1.92,1.92,0,0,0-.51-.85C193.8,187,193.38,186.51,193.06,186.5Z"/>
                <path class="cls-16" d="M195.41,183.77a.94.94,0,0,1,1.24-.58,1.38,1.38,0,0,1,.79,1.24,2.78,2.78,0,0,1-.42,1.47c-.25.46-.55.88-.78,1.35l-.28-.07a6.26,6.26,0,0,0-.36-2.46A1.7,1.7,0,0,1,195.41,183.77Z"/>
                <g>
                  <path class="cls-11" d="M194.82,186.34c0,.22-.11.4-.24.4s-.24-.18-.24-.4.11-.39.24-.39S194.82,186.13,194.82,186.34Z"/>
                  <path class="cls-4" d="M194.69,186.19c0,.09,0,.16-.1.16s-.1-.07-.1-.16,0-.17.1-.17S194.69,186.1,194.69,186.19Z"/>
                </g>
                <path class="cls-14" d="M194.62,188.36a4,4,0,0,0,.68,1.19,13.7,13.7,0,0,0,.5-1.4A3,3,0,0,1,194.62,188.36Z"/>
              </g>
            </g>
          </g>
          <g>
            <ellipse class="cls-13" cx="254.02" cy="174.8" rx="6.71" ry="2.05"/>
            <g>
              <g>
                <g>
                  <path class="cls-4" d="M252.21,174l.24,0a.17.17,0,0,0,0-.18.16.16,0,0,0-.17-.06Z"/>
                  <path class="cls-14" d="M251.91,173.66c-.17-.11,0-.42.07-.61.12-.37.31-.79.43-1.16a7.85,7.85,0,0,0,.21-1.36c0-.18-.56-.2-.74-.19a.39.39,0,0,0-.33.3,1.48,1.48,0,0,0,0,.47,8.85,8.85,0,0,1,0,1.71,1.27,1.27,0,0,1-.54.74c-.6.35-1.4,0-2,.28-.09,0-.2.13-.19.23s.18.21.31.2a13.18,13.18,0,0,1,1.48-.28c.09,0,.19-.07.25,0a.14.14,0,0,1,0,.18.52.52,0,0,1-.18.1,14.86,14.86,0,0,0-1.44.57,1,1,0,0,0-.35.23.39.39,0,0,0-.11.39.41.41,0,0,0,.43.23c.17,0,.23-.26.38-.35.57-.37,1.24-.6,1.8-1,0,.33-.54.63-.81.83s-.62.44-.42.68c.65.33,1.17-.47,1.6-1.21.1-.17.14-.33.31-.42a1.11,1.11,0,0,1,.29-.14c.11,0,.22-.12.2-.23s-.13-.15-.23-.16A.76.76,0,0,1,251.91,173.66Z"/>
                  <path class="cls-4" d="M248.85,174a.39.39,0,0,0-.17.3.21.21,0,0,0,.21-.09A.15.15,0,0,0,248.85,174Z"/>
                  <path class="cls-4" d="M248.68,175.35a.79.79,0,0,0-.05.4l.35-.22a.36.36,0,0,0,0-.23.16.16,0,0,0-.19-.08A.22.22,0,0,0,248.68,175.35Z"/>
                  <path class="cls-4" d="M250,176.1s.06,0,.09,0l.21-.16a.24.24,0,0,0-.21-.19.63.63,0,0,0-.1.3S250,176.09,250,176.1Z"/>
                </g>
                <path class="cls-4" d="M251.31,170.86c.14.22.63.11.89.23s.46.34.73.13a4.77,4.77,0,0,0,1.68-4.67,2,2,0,0,0-1.13-1.61,1.47,1.47,0,0,0-1.21.18,3.38,3.38,0,0,0-1.73,2.44A4.81,4.81,0,0,0,251.31,170.86Z"/>
              </g>
              <path class="cls-4" d="M261.35,161.18a6.25,6.25,0,0,0,.75-3.14,1.65,1.65,0,0,0-.14-.7.65.65,0,0,0-.56-.38c-.12.46-.25.93-.37,1.4a1.05,1.05,0,0,0-.71-1.09.73.73,0,0,0-.89.76c0-.36-.55-.49-.84-.27a1.59,1.59,0,0,0-.47,1,17.51,17.51,0,0,1-.54,1.74,6.28,6.28,0,0,0-2.74-1.68,13.68,13.68,0,0,0-2.91-.53,12.13,12.13,0,0,1-1.68-3.85.78.78,0,0,1,0-.16,2.52,2.52,0,0,0-.3-1.32,1.62,1.62,0,0,0-1.05-.81,1.89,1.89,0,0,0-1.75.71,5.64,5.64,0,0,0-.9,1.76,1.06,1.06,0,0,0-.06.85.81.81,0,0,0,.4.3,27.62,27.62,0,0,1-.5,5.31,3.55,3.55,0,0,0-.06.47,7.43,7.43,0,0,0,.48,3.93,7.06,7.06,0,0,0,4.36,4.28,7.57,7.57,0,0,0,6.5-.83l.32-.23a8.32,8.32,0,0,0,3.05-3.46,23.48,23.48,0,0,0,1.66-5A1.5,1.5,0,0,0,261.35,161.18Z"/>
              <path class="cls-3" d="M251.22,166.83a3.6,3.6,0,0,0-.28-.4.43.43,0,0,0-.45-.12c-.15.06-.21.3-.07.39a.92.92,0,0,1-.65-.62c-.1-.3-.13-.62-.22-.92a1,1,0,0,0-.56-.7l-.08,1a2,2,0,0,0-.7-.7.65.65,0,0,0-.86.22,1,1,0,0,0,.15.84.2.2,0,0,0-.29-.12.33.33,0,0,0-.13.33.93.93,0,0,0,.15.34,9.1,9.1,0,0,0,.87,1.17,7.1,7.1,0,0,0,11.71-1.64l-.67.19a.73.73,0,0,0,.16-.3.24.24,0,0,0-.15-.28c-.12,0-.22.07-.3.15a6.15,6.15,0,0,1-4.77,1.8,2.48,2.48,0,0,1-1.5-.52.77.77,0,0,0-.32-.22c-.13,0-.3.07-.27.2s.15.16.16.26a.17.17,0,0,1-.17.19.42.42,0,0,1-.26-.08A1.6,1.6,0,0,1,251.22,166.83Z"/>
              <g>
                <g>
                  <path class="cls-4" d="M256.59,175.26l.24.06a.15.15,0,0,0,0-.18.16.16,0,0,0-.16-.07Z"/>
                  <path class="cls-14" d="M256.29,175c-.17-.1,0-.41.07-.6.12-.38.31-.79.42-1.16a7.14,7.14,0,0,0,.22-1.36c0-.18-.56-.2-.74-.2a.4.4,0,0,0-.33.31,1.48,1.48,0,0,0,0,.47,8.87,8.87,0,0,1,0,1.71,1.27,1.27,0,0,1-.54.74c-.6.34-1.41,0-2,.28-.1,0-.2.12-.19.23s.18.2.31.19c.45,0,.48-.17,1.47-.27.09,0,.2-.07.26,0a.15.15,0,0,1,0,.18.44.44,0,0,1-.18.09,14.93,14.93,0,0,0-1.44.58,1.2,1.2,0,0,0-.36.22.42.42,0,0,0-.1.4.39.39,0,0,0,.42.22c.18,0,.23-.25.38-.35.58-.36,1.25-.59,1.8-1,0,.34-.53.64-.8.84s-.62.44-.43.67c.66.34,1.18-.46,1.61-1.2.09-.17.13-.33.31-.42a1.32,1.32,0,0,1,.29-.15.22.22,0,0,0,.2-.23c0-.1-.13-.14-.23-.15A.58.58,0,0,1,256.29,175Z"/>
                  <path class="cls-4" d="M253.22,175.27a.39.39,0,0,0-.16.3.21.21,0,0,0,.21-.09A.16.16,0,0,0,253.22,175.27Z"/>
                  <path class="cls-4" d="M253.06,176.65a1,1,0,0,0-.06.41l.36-.22a.45.45,0,0,0,0-.23.15.15,0,0,0-.19-.08A.17.17,0,0,0,253.06,176.65Z"/>
                  <path class="cls-4" d="M254.35,177.41s.06,0,.08,0l.22-.16a.27.27,0,0,0-.21-.2.89.89,0,0,0-.11.31A.1.1,0,0,0,254.35,177.41Z"/>
                </g>
                <path class="cls-4" d="M255.69,172.16c.14.23.63.12.89.23s.46.35.73.14a4.82,4.82,0,0,0,1.68-4.68,2,2,0,0,0-1.14-1.61,1.46,1.46,0,0,0-1.2.19,3.38,3.38,0,0,0-1.73,2.44A4.77,4.77,0,0,0,255.69,172.16Z"/>
              </g>
              <g>
                <path class="cls-4" d="M252.53,159.53a10.08,10.08,0,0,0-.7,4.28,3.62,3.62,0,0,0,.83,2.37,3,3,0,0,0,3.28.43,4.75,4.75,0,0,0,2.71-3l-.79.15a1.11,1.11,0,0,0,.79-1.29,3.16,3.16,0,0,0-1.28.3,1.58,1.58,0,0,0,.53-.35.52.52,0,0,0,.09-.6.67.67,0,0,0-.72-.18,2.06,2.06,0,0,1-.77.14.39.39,0,0,0,.52-.33.45.45,0,0,0-.46-.44Z"/>
                <path class="cls-3" d="M254.52,167.15a2.79,2.79,0,0,1-2.05-.79,3.77,3.77,0,0,1-.9-2.54,10.54,10.54,0,0,1,.71-4.38.27.27,0,0,1,.34-.15.26.26,0,0,1,.15.34,10,10,0,0,0-.68,4.16,3.3,3.3,0,0,0,.76,2.21,2.78,2.78,0,0,0,3,.37,4.5,4.5,0,0,0,2.41-2.44l-.34.06a.28.28,0,0,1-.31-.2.27.27,0,0,1,.2-.31.87.87,0,0,0,.61-.76,3,3,0,0,0-.93.25.26.26,0,0,1-.35-.12.27.27,0,0,1,.13-.35,1.44,1.44,0,0,0,.45-.28.3.3,0,0,0,.06-.29c-.06-.1-.26-.1-.43-.06l-.18,0-.31.08a.66.66,0,0,1-.46,0,.26.26,0,0,1,.15-.5h.16a.14.14,0,0,0,.06-.08.16.16,0,0,0-.05-.11.2.2,0,0,0-.14-.06.26.26,0,1,1,0-.52.71.71,0,0,1,.73.62.87.87,0,0,1,.93.31.72.72,0,0,1,.08.56l.35,0a.25.25,0,0,1,.26.2,1.33,1.33,0,0,1-.15,1l.09.07a.28.28,0,0,1,.06.25,5,5,0,0,1-2.86,3.19A4,4,0,0,1,254.52,167.15Z"/>
              </g>
              <g>
                <g>
                  <path class="cls-14" d="M246.51,155.24l-.42,1,.89-.38.06,0a.13.13,0,0,0,0-.12C246.92,155.45,246.66,155.47,246.51,155.24Z"/>
                  <path class="cls-14" d="M246.35,154.63a.19.19,0,0,0-.11.09l-.65.92a4.12,4.12,0,0,0,1.4-.09,2.08,2.08,0,0,0-.49-.85A.19.19,0,0,0,246.35,154.63Z"/>
                </g>
                <path class="cls-16" d="M248.5,154.74a3,3,0,0,0-.71.56,2.7,2.7,0,0,0-.51,1.53c0,.38,0,.84.31,1a.73.73,0,0,0,.61.06,1.32,1.32,0,0,0,.51-.36,2.3,2.3,0,0,0,.22-2.76.31.31,0,0,0-.18-.16A.33.33,0,0,0,248.5,154.74Z"/>
                <path class="cls-16" d="M247.23,152.22a1.37,1.37,0,0,1,.1-.41.43.43,0,0,1,.34-.24.25.25,0,0,1,.25.27,1,1,0,0,1,.38-.52c.2-.1.51,0,.49.24a.57.57,0,0,1,.78.29,1.55,1.55,0,0,1,.05.93,1.88,1.88,0,0,0-2.53.95A11,11,0,0,1,247.23,152.22Z"/>
                <g>
                  <path class="cls-11" d="M248.41,154.3a.53.53,0,0,0,.34-.28.28.28,0,0,0-.16-.37c-.2-.06-.35.19-.42.39s-.06.17,0,.23A.23.23,0,0,0,248.41,154.3Z"/>
                  <path class="cls-4" d="M248.45,154a.17.17,0,0,0,.12-.1.1.1,0,0,0,0-.13c-.07,0-.13.07-.15.14s0,.06,0,.08S248.42,154,248.45,154Z"/>
                </g>
              </g>
            </g>
          </g>
        </g>
      </g>
      <g>
        <g>
          <path class="cls-14" d="M72.76,104.64h34.91c.43-8.6,2.5-18.13,6.16-25.12,4.46-8.53,5.53-13.76-.75-21-2.11-2.45-7.24-4.2-10.4-6.24-1.48,3.67-3.61,6.64-6.75,8-7.35,2.45-14-1.77-18.39-7.76-3.18,1.94-8,3.66-10,6-6.28,7.29-5.22,12.52-.75,21C70.46,86.55,72.12,95.79,72.76,104.64Z"/>
          <path class="cls-11" d="M113.94,79.47l-.4-.33A12.53,12.53,0,0,0,116.37,72l.52,0A13.06,13.06,0,0,1,113.94,79.47Z"/>
          <path class="cls-11" d="M92.36,62.56c-.41,0-.83,0-1.27-.05a18.27,18.27,0,0,1-8.9-3.3,43,43,0,0,1-5.79-6l.4-.33a42.55,42.55,0,0,0,5.72,6A17.66,17.66,0,0,0,91.13,62a9.71,9.71,0,0,0,7.36-2.13,15.66,15.66,0,0,0,5-7.08l.49.2a16.19,16.19,0,0,1-5.14,7.3A9.93,9.93,0,0,1,92.36,62.56Z"/>
        </g>
        <g>
          <g>
            <path class="cls-8" d="M142.65,127.49c-.4-.94-2-2.13-2.69-2.89-5.56-11-9.56-22-14.07-33.45A46.84,46.84,0,0,0,115,97.62a247.82,247.82,0,0,0,17.71,29.12c-.15,2.56,0,3.35.56,4.72s1.43,3.47,1.25,5c3.27.28,6.44-1,9.46-2.77A23.36,23.36,0,0,0,142.65,127.49Z"/>
            <path class="cls-8" d="M138.1,127.3c-.08,1.67,1.31,3,2.65,4s2.87,2,3.28,3.64c.12.46.26,1.07.73,1.1a.79.79,0,0,0,.7-.51c.45-.9-.31-3.3-.83-4.17-1.8-3-.26-3.53-2.87-5.42-.78-.56-1.12-1.8-2.27-1.8Z"/>
            <path class="cls-17" d="M129.66,100.36q-1.95-4.58-3.77-9.21A46.84,46.84,0,0,0,115,97.62c3.48,6.54,7.11,13,11,19.24C123.32,109.75,122.53,103.35,129.66,100.36Z"/>
            <path class="cls-17" d="M141.91,132.78a2.48,2.48,0,0,0-.3-2.66,6.16,6.16,0,0,0-5.38-2.74,2.85,2.85,0,0,1-.27,2.09,9.24,9.24,0,0,0-.83,2,5.92,5.92,0,0,0,.55,3.19,12.48,12.48,0,0,0,5-1A2.8,2.8,0,0,0,141.91,132.78Z"/>
            <g>
              <path class="cls-11" d="M130.91,154.47l0-1.29a31.26,31.26,0,0,1,1-10.77,21.81,21.81,0,0,1,2.81-6.95,7.73,7.73,0,0,1,5.92-3.74,7.29,7.29,0,0,1,4.63,1.76,15.23,15.23,0,0,1,3.25,4c2.67,4.37,4.1,11.46,4.33,16.54l-1,.05c-.23-4.95-1.61-11.83-4.18-16a14,14,0,0,0-3-3.7,6,6,0,0,0-3.93-1.52,6.84,6.84,0,0,0-5.09,3.28,20.78,20.78,0,0,0-2.65,6.61,30.56,30.56,0,0,0-1,10.49l0,1.3Z"/>
              <path class="cls-8" d="M152.32,153.66c.27-1.74-4.43-3.22-10.51-3.22s-10.78,1.48-10.51,3.22c.13.79,2.64,16.85,2.71,17.29.14.92,3.63,1.64,7.8,1.64s7.66-.72,7.8-1.64C149.68,170.51,152.19,154.45,152.32,153.66Z"/>
              <path class="cls-15" d="M147.79,166.68c.34-5.12.9-10.22,1.51-15.32a21.67,21.67,0,0,0-4-.74v21.79a16.7,16.7,0,0,0,2.27-.38C147.61,170.25,147.68,168.46,147.79,166.68Z"/>
              <ellipse class="cls-11" cx="141.72" cy="153.28" rx="9.62" ry="2.02"/>
            </g>
            <g>
              <path class="cls-8" d="M135.75,138.4a1.21,1.21,0,0,0,.57-.78,1.7,1.7,0,0,0,.07-.74c-.2-.67-.8-1.08-1.11-1.71a2.15,2.15,0,0,0-.81-1c-.39-.2-1,0-1.06.41a17.13,17.13,0,0,0,1.31,3.13,1.66,1.66,0,0,0,.4.55A.67.67,0,0,0,135.75,138.4Z"/>
              <path class="cls-8" d="M138.67,137.49c.2-1.41-1.12-2.49-1.61-3.83-.3-.83-1.21-.7-1.73-.53a8.32,8.32,0,0,0,1.83,4.72c.17.22.41.44.68.38S138.64,137.77,138.67,137.49Z"/>
              <path class="cls-8" d="M137.9,132.92a7.23,7.23,0,0,0,1.67,4.35.84.84,0,0,0,.56.37c.3,0,.52-.27.64-.55a2.93,2.93,0,0,0,0-2.1,6.24,6.24,0,0,0-1.16-1.8A1.3,1.3,0,0,0,137.9,132.92Z"/>
              <path class="cls-8" d="M141.78,136.69a.88.88,0,0,0,.57.36c.38,0,.62-.42.68-.79a3.47,3.47,0,0,0-.29-2,7.87,7.87,0,0,0-1.09-1.71,1.57,1.57,0,0,0-.38-.39.54.54,0,0,0-.52,0,.73.73,0,0,0-.27.6A5.35,5.35,0,0,0,141.78,136.69Z"/>
            </g>
          </g>
          <g>
            <path class="cls-15" d="M121,75.82c-1.64-4.94-3.21-10-6.05-14.36-1.34-2.05-3.37-4.12-5.81-3.87a5.47,5.47,0,0,0-3.37,2c-3,3.45-3.08,8.66-2,13.15,1.28,5.53,3.86,10.65,6.44,15.71,2.39,4.71,4.5,10.15,7,14.81,3.33-2.58,8.22-4.14,12.15-5.74C126.69,90.82,123.27,82.62,121,75.82Z"/>
            <path class="cls-11" d="M116.75,102.44l-.3-.42a33.08,33.08,0,0,1,12.23-5.66l.12.51A32.72,32.72,0,0,0,116.75,102.44Z"/>
          </g>
        </g>
        <g>
          <g>
            <path class="cls-18" d="M110.11,120.09c-.43-3.07-1.41-6.32-1.43-9.41l-23.86.13a34.44,34.44,0,0,0-5,18.56c0,6.8,1.49,13.52,3.38,20,2.11,7.32,6.54,13.84,9.18,21,2.6,11.26,5.58,18.81,6.8,38.15,7.32,1,12.28.79,21.17-2.09-1.57-23.78-3.31-43.77-7.16-64.19Z"/>
            <path class="cls-10" d="M79.78,129.37c0,6.8,1.49,13.52,3.38,20,2.11,7.32,6.54,13.84,9.18,21,2.6,11.26,5.58,18.81,6.8,38.15a41.41,41.41,0,0,0,10.28.4c-6-31.1-13.15-61.81-28.17-90.2A38.84,38.84,0,0,0,79.78,129.37Z"/>
            <path class="cls-11" d="M110.37,210A539.76,539.76,0,0,0,93,144l.5-.17a541.35,541.35,0,0,1,17.34,66.05Z"/>
          </g>
          <g>
            <path class="cls-18" d="M96,110.81l-24-1.83a103,103,0,0,0-5.3,9c-1.64,3.49-2.86,6.53-3.16,10.08h0v.32a21.71,21.71,0,0,0-.05,2.3c0,.72.11,1.58.21,2.48.85,25.4,4,44.39,2.58,73.48,7.58,5.23,15.16,3.75,23.92,1.39,3.09-24.21.65-42.05,3-63.15,1.56-5.34,2-10.93,2.7-16.47C96.48,122.69,96,116.68,96,110.81Z"/>
            <path class="cls-11" d="M70.58,208.67a193.91,193.91,0,0,1-.08-30.39c.23-3,.54-6.13.84-9.12a171.12,171.12,0,0,0,1.22-20.55c-.08-3.76-.41-7.57-.73-11.26-.28-3.23-.57-6.57-.69-9.86-.32-8.63.68-15.27,3.14-20.89l.47.21c-2.42,5.55-3.4,12.11-3.09,20.66.12,3.28.41,6.61.69,9.84.32,3.69.66,7.52.74,11.29a174.14,174.14,0,0,1-1.23,20.62c-.3,3-.61,6.07-.84,9.1a194,194,0,0,0,.08,30.3Z"/>
            <path class="cls-10" d="M71.42,164.13c2.09-14.64-2.09-29.27-3.14-43.91a38.48,38.48,0,0,1,.54-6.37c-.78,1.34-1.52,2.71-2.18,4.13-1.64,3.49-2.86,6.53-3.16,10.08h0c0,.11,0,.21,0,.32a21.71,21.71,0,0,0-.05,2.3c0,.72.11,1.58.21,2.48.85,25.4,4,44.39,2.58,73.48a20.62,20.62,0,0,0,3.8,2.07C69.54,193.85,69.64,179,71.42,164.13Z"/>
            <path class="cls-11" d="M91.59,167.82c-.79-13,2.09-26.78,5-38.59l.51.13c-2.91,11.77-5.78,25.54-5,38.43Z"/>
          </g>
        </g>
        <g>
          <path class="cls-18" d="M107.94,114.71a3.29,3.29,0,0,0,.84-2.21,186.93,186.93,0,0,1,4.32-23.25c2-7.65.44-10.69-1.89-23.32-11.3,1.37-19.76,2.24-31.13,1.59.69,7.81-1.11,15.61-3.28,23.15s-4.73,15-5.65,22.8c11.45,1.8,23.11,1.77,34.7,1.74A3.13,3.13,0,0,0,107.94,114.71Z"/>
          <path class="cls-10" d="M111.3,126c-.7-.33-1.3-4.12-1.55-5.69-.34-2.08-1.83-3.77-3.24-5.35C95.05,102,85,87.17,81.57,70.22l-2.33,4.56Q77,87.23,74.84,99.67l-2.07,4.07C75.68,112.31,81.83,119.5,89,125s15.4,9.49,23.63,13.25A69.07,69.07,0,0,1,111.3,126Z"/>
          <path class="cls-18" d="M85.42,69.27A82.6,82.6,0,0,0,75.6,52.84l-1.53,1a60,60,0,0,1,6.72,15.92A16.43,16.43,0,0,1,85.42,69.27Z"/>
          <path class="cls-18" d="M110.92,67.7c.43-4.17-.49-8.35-1.4-12.45L106.45,54a62.26,62.26,0,0,1,.84,13.5Z"/>
          <path class="cls-11" d="M84.59,69.42l0-.52h.07c8.33-.59,14.91-1.05,23.26-2.34l.08.52c-8.37,1.29-15,1.75-23.3,2.34Z"/>
          <path class="cls-11" d="M98.8,86.77a25.9,25.9,0,0,1-7-1c-2.17-.56-3-5.64-2.74-8.09v-.23l20.05-1.28,0,.24a15.07,15.07,0,0,1,0,4.88c-.35,1.85-2.1,3-3.51,3.64C103.12,86.06,101.43,86.77,98.8,86.77Zm-9.24-8.85c-.13,2.4.64,6.88,2.37,7.32a25.49,25.49,0,0,0,6.87,1c2.52,0,4.17-.69,6.65-1.81,1.29-.59,2.9-1.63,3.2-3.26a14,14,0,0,0,0-4.48Z"/>
        </g>
        <g>
          <g>
            <path class="cls-4" d="M125.17,137.76c0,.24-.09.49-.13.73a.67.67,0,0,0,.06.54c.18.25.6.13.75-.13a1.42,1.42,0,0,0,.08-.89,1,1,0,0,0-.15-.49.37.37,0,0,0-.46-.11A.54.54,0,0,0,125.17,137.76Z"/>
            <path class="cls-4" d="M127,145.63a2.09,2.09,0,0,0-.49-1.66,2.55,2.55,0,0,0-.3,1.51c0,.3.26.66.53.56A.47.47,0,0,0,127,145.63Z"/>
            <path class="cls-4" d="M127,154.88a1.66,1.66,0,0,0,.59-2.39A2.55,2.55,0,0,0,127,154.88Z"/>
            <path class="cls-4" d="M130,141.19a1.4,1.4,0,0,0,.1,1.65,1,1,0,0,0,.44-.86A1,1,0,0,0,130,141.19Z"/>
            <path class="cls-4" d="M128.34,160.82a1.05,1.05,0,0,0,.17-1.61A1.9,1.9,0,0,0,128.34,160.82Z"/>
          </g>
          <g>
            <g>
              <path class="cls-8" d="M129.93,135.84a10.36,10.36,0,0,0-1.17-4.58c-.37-.71-2.28-4.24-3.07-4.52-1.37-.48-2.71-1-4.12-1.37a30.1,30.1,0,0,1-6.92-2.66c-3.38-2.49-8.55-6.24-9.92-7.3a121.35,121.35,0,0,1-17-16.71c-3.52,3.21-7.08,6.56-10.36,10.15a42.59,42.59,0,0,0,3.71,3.33c6.14,4.92,23,13.23,31.46,17.55.36.66.59,1.37,1,2.11.5.92,2.42,2,3.92,2.25a6.59,6.59,0,0,1,3.91,2.75c1,1.33,1.33,2.78,2.44,4.38a1,1,0,0,0,.82.54c.86,0,.62-.93.67-1.26.28.44,1.14,1.42,1.66,1.37.86-.08.46-.71.44-1.29.26.41,1,1.33,1.42,1.17s.68-1.25.33-2.21a.73.73,0,0,0,1-.25A28.65,28.65,0,0,0,129.93,135.84Z"/>
              <path class="cls-17" d="M91,102.36q-1.65-1.81-3.23-3.66c-3.52,3.21-7.08,6.56-10.36,10.15a42.59,42.59,0,0,0,3.71,3.33A57.83,57.83,0,0,0,90.15,118c-1.91-1.93-3.92-3.67-5.14-6.1C83.36,107.73,87.57,104.91,91,102.36Z"/>
            </g>
            <g>
              <path class="cls-14" d="M89.29,98.92c-1-1.15-2-2.3-2.89-3.44-6.26-7.63-6.87-14.7-8.53-25.7-.44-2.87-.51-4.49-1.49-6.88s-6-4.48-8.43-3.49a6.13,6.13,0,0,0-2.57,2.43A24.37,24.37,0,0,0,61.6,76a37.46,37.46,0,0,0,3.6,14.33c3.41,7.48,8.32,15.61,13.89,21.2A47.13,47.13,0,0,1,89.29,98.92Z"/>
              <path class="cls-11" d="M78.63,77.36a30.12,30.12,0,0,0-2.89-12.69l.47-.22a30.51,30.51,0,0,1,2.94,12.91Z"/>
              <path class="cls-15" d="M64.65,63.06A24.7,24.7,0,0,0,61.6,76a37.46,37.46,0,0,0,3.6,14.33c3.41,7.48,8.32,15.61,13.89,21.2.74-1.3,1.56-2.58,2.43-3.85C69.5,95.32,61.3,79.67,64.65,63.06Z"/>
              <path class="cls-11" d="M78.19,110.32l-.47-.23A33.83,33.83,0,0,1,88.39,97.56l.3.43A33.13,33.13,0,0,0,78.19,110.32Z"/>
            </g>
          </g>
        </g>
        <g>
          <path class="cls-19" d="M98.38,10.53c-7.52-5-17.74-1-21.41,3.36,1.38,4.33,1.53,7.47,1.87,12l.49,4c7.21-4,14.27-7.38,22.46-8.52C98.87,17.28,99.84,15.31,98.38,10.53Z"/>
          <path class="cls-11" d="M98.77,12C91,11.23,83.28,13.05,78,17.92a71.32,71.32,0,0,1,.86,8l.49,4c7.21-4,14.27-7.38,22.46-8.52C99.19,17.72,99.67,15.76,98.77,12Z"/>
          <path class="cls-19" d="M101,12.45a47.37,47.37,0,0,0-16.33,3.23,31.13,31.13,0,0,0-13.21,9.93,12.32,12.32,0,0,0-2.61,5.84,6,6,0,0,0,2.38,5.66c1.5,1,3.41,1,5.19.93,11.22-.39,22.59-2.86,32.05-8.89a22.37,22.37,0,0,0,7.32-6.86c.91-1.48,1.56-3.31,1-4.94a6.08,6.08,0,0,0-3.59-3.13C109.31,12.6,105.08,12.32,101,12.45Z"/>
          <path class="cls-6" d="M101.34,17.83c-1.82,0-3.54-.72-5.32-1.12A16.29,16.29,0,0,0,84,19a20.72,20.72,0,0,0-7.81,9.66c-.78,1.88-1.28,4.11-.29,5.89A5.24,5.24,0,0,0,79.45,37a13.3,13.3,0,0,0,4.45,0,42.51,42.51,0,0,0,18.63-6.71,14.26,14.26,0,0,0,3.91-3.71,6.87,6.87,0,0,0,1.19-5.14,4.61,4.61,0,0,0-3.58-3.63A17.53,17.53,0,0,0,101.34,17.83Z"/>
          <path class="cls-14" d="M70.17,34.71a9.49,9.49,0,0,1,.92-7.22A18.5,18.5,0,0,1,75.93,22a37.87,37.87,0,0,1,22-8.79l0,.52a37.32,37.32,0,0,0-21.7,8.68,17.88,17.88,0,0,0-4.71,5.34,9,9,0,0,0-.88,6.82Z"/>
          <path class="cls-14" d="M115.33,17.55a4.76,4.76,0,0,0-2.52-2.34A29.32,29.32,0,0,0,99.6,13.46l0-.52A29.86,29.86,0,0,1,113,14.72a5.32,5.32,0,0,1,2.8,2.63Z"/>
        </g>
        <g>
          <path class="cls-11" d="M101.37,24.73a7.27,7.27,0,0,0-3.8-3.05,12.7,12.7,0,0,0-4.9-.65,20.47,20.47,0,0,0-11.22,3.89,9.8,9.8,0,0,0-3.77,4.59A4.92,4.92,0,0,0,79.1,35c.45.32,1,.66,1,1.21a2,2,0,0,1-.46,1,3.13,3.13,0,0,0,.25,3.39,5.65,5.65,0,0,0,2.94,2c1.19.4,2.56.62,3.34,1.61.55.69.72,1.67,1.42,2.21a3.06,3.06,0,0,0,3,0A15.57,15.57,0,0,0,97,41.29a30.48,30.48,0,0,0,3.9-7.16,18.3,18.3,0,0,0,1.35-4.68A7.69,7.69,0,0,0,101.37,24.73Z"/>
          <g>
            <path class="cls-8" d="M95.93,60.22c3.14-1.35,5.27-4.32,6.75-8a10.64,10.64,0,0,1-1.34-1c-2.65-2.38-5.68-6.07-5.48-13.85l-9,.27c.19,6.59-4.93,11.2-7.58,13.58a11.56,11.56,0,0,1-1.72,1.24C81.91,58.45,88.58,62.67,95.93,60.22Z"/>
            <path class="cls-17" d="M102.68,52.23a10.64,10.64,0,0,1-1.34-1c-2.65-2.38-5.68-6.07-5.48-13.85l-8.92.26c-.26,8.58,5,15.34,9.08,22.54C99.11,58.8,101.21,55.86,102.68,52.23Z"/>
            <path class="cls-11" d="M98.61,48.17c-1.63-2.37-2.88-5.7-2.75-10.8l-8.57.25C88.49,43.06,93,48.67,98.61,48.17Z"/>
          </g>
          <g>
            <g>
              <path class="cls-8" d="M103.17,26.81a7,7,0,0,1,0,3.13,8.74,8.74,0,0,0-.61,2.32c0,.94.39,1.58.46,2.52a7.29,7.29,0,0,1-1.34,4.58c-.79,1.3-1.21,2.55-2,3.85a5.2,5.2,0,0,1-2,2.16,4.46,4.46,0,0,1-2.91.06A16.35,16.35,0,0,1,82.38,31.8a11.65,11.65,0,0,1,1.14-7.33,10.22,10.22,0,0,1,4.55-4.1,14,14,0,0,1,6.05-1.23,9.76,9.76,0,0,1,5.52,1.51A9.3,9.3,0,0,1,103.17,26.81Z"/>
              <path class="cls-11" d="M93.6,16.93c1.28-.3,2.47-1.08,3.78-1a3.2,3.2,0,0,1,2.76,1.77c.5,1,.78,4.36.09,5.27a4.69,4.69,0,0,0-2.81-1.79c-.89-.06-1.15-.36-1.73.32a37.91,37.91,0,0,1-2.47,3.14c-1.57,1.55-3.42.64-4.78,2.39A5.83,5.83,0,0,0,87.82,31c.28,1.08-.19,1.35,0,2.45a7.16,7.16,0,0,1-.75,4.1,21.43,21.43,0,0,1-2.28,3.55A30.28,30.28,0,0,1,80,30.45c-.4-1.74-.6-3.72.42-5.19C81,24.4,82,23.83,82.59,23c1.11-1.49,1.12-3.68,2.46-5A5.48,5.48,0,0,1,89.2,16.9,15.83,15.83,0,0,0,93.6,16.93Z"/>
              <path class="cls-11" d="M99.68,20.15a1.08,1.08,0,0,1,.92-.93,3.2,3.2,0,0,1,1.4.15,5,5,0,0,1,1.72.68,1.75,1.75,0,0,1,.81,1.57c-.08.66-.64,1.16-.79,1.81-.2.88.41,1.72.75,2.56a4.32,4.32,0,0,1-1.77,5.44c.57-4.56-.59-8.63-2.49-8.63C99.78,22.8,99.66,20.6,99.68,20.15Z"/>
            </g>
            <g>
              <path class="cls-11" d="M98.57,38.16l-.17-.5c.27-.09.54-.16.8-.22s.5-.12.76-.21l.27-.09c.58-.19,1.08-.36,1.24-.84.11-.32-.22-1-.42-1.46l-.14-.31a6,6,0,0,0-.5-.91A5.26,5.26,0,0,1,99.65,32a3.39,3.39,0,0,1,.69-2.53l.43.3a2.89,2.89,0,0,0-.61,2.13,4.82,4.82,0,0,0,.69,1.44,8.21,8.21,0,0,1,.54,1l.14.3a3,3,0,0,1,.44,1.84c-.24.74-1,1-1.58,1.18l-.26.08c-.27.1-.54.16-.8.23S98.83,38.07,98.57,38.16Z"/>
              <path class="cls-11" d="M94.59,39.45a10.52,10.52,0,0,0,3.86.48,1.38,1.38,0,0,1-1.1,1.14,2.18,2.18,0,0,1-1.61-.39A5,5,0,0,1,94.59,39.45Z"/>
              <g>
                <path class="cls-11" d="M91,29.41,90.75,29a10.23,10.23,0,0,1,5.32-1.51h0V28h0A9.69,9.69,0,0,0,91,29.41Z"/>
                <path class="cls-11" d="M94.41,31.52a1.25,1.25,0,0,0,.69-.14,1,1,0,0,0,.34-.48,1,1,0,0,0,0-.62A.51.51,0,0,0,95,29.9a.64.64,0,0,0-.4.18,2.32,2.32,0,0,0-.67.79.47.47,0,0,0-.07.45C94,31.49,94.22,31.52,94.41,31.52Z"/>
              </g>
              <g>
                <path class="cls-11" d="M100.9,29.23l-.25-.46a4.12,4.12,0,0,1,3-.34l-.13.5A3.66,3.66,0,0,0,100.9,29.23Z"/>
                <path class="cls-11" d="M101.49,32.46a.89.89,0,0,0,.56-.11.73.73,0,0,0,.26-.38.76.76,0,0,0,0-.49.38.38,0,0,0-.35-.3.49.49,0,0,0-.32.14,2.14,2.14,0,0,0-.54.62.41.41,0,0,0,0,.37C101.16,32.44,101.34,32.46,101.49,32.46Z"/>
              </g>
            </g>
          </g>
        </g>
      </g>
    </g>
  </g>
</svg>
