<svg xmlns="http://www.w3.org/2000/svg" width="151" height="151" viewBox="0 0 151 151">
  <g id="Grupo_17133" data-name="Grupo 17133" transform="translate(1191 4686)">
    <g id="Grupo_17129" data-name="Grupo 17129" transform="translate(-1831 -2268)">
      <rect id="Rect치ngulo_4278" data-name="Rect치ngulo 4278" width="151" height="151" transform="translate(640 -2418)" fill="none"/>
      <rect id="Rect치ngulo_4284" data-name="Rect치ngulo 4284" width="135" height="135" transform="translate(648 -2410)" fill="none"/>
    </g>
    <g id="Grupo_17126" data-name="Grupo 17126" transform="translate(-2532.306 -5471.109)">
      <g id="Grupo_16603" data-name="Grupo 16603" transform="translate(1364.106 797.012)">
        <g id="Grupo_16602" data-name="Grupo 16602" transform="translate(0 11.424)">
          <path id="Trazado_25875" data-name="Trazado 25875" d="M1465.12,804.752a3.918,3.918,0,0,1,3.918,3.918V915.832a3.918,3.918,0,0,1-3.918,3.918H1367.5a3.918,3.918,0,0,1-3.918-3.918V808.67a3.918,3.918,0,0,1,3.918-3.918Z" transform="translate(-1363.58 -804.752)" fill="#b5adb6"/>
          <path id="Trazado_25876" data-name="Trazado 25876" d="M1386.906,908.272a3.92,3.92,0,0,1-3.92-3.918v-99.6H1367.5a3.918,3.918,0,0,0-3.918,3.918V915.832a3.918,3.918,0,0,0,3.918,3.918h97.621a3.918,3.918,0,0,0,3.918-3.918v-7.56Z" transform="translate(-1363.58 -804.752)" fill="#a79ba7"/>
          <path id="Trazado_25877" data-name="Trazado 25877" d="M1378.531,804.752V816.49a9.769,9.769,0,0,0,9.759,9.759H1432.9a9.769,9.769,0,0,0,9.759-9.757V804.752Z" transform="translate(-1357.868 -804.752)" fill="#a79ba7"/>
          <path id="Trazado_25878" data-name="Trazado 25878" d="M1459.319,812.287v95.718a2.026,2.026,0,0,1-2.026,2.026h-86.178a2.025,2.025,0,0,1-2.026-2.026V812.287a2.025,2.025,0,0,1,2.026-2.026h86.178a2.026,2.026,0,0,1,2.026,2.026Z" transform="translate(-1361.475 -802.647)" fill="#efedef"/>
          <path id="Trazado_25879" data-name="Trazado 25879" d="M1378.531,810.261v4.124a9.769,9.769,0,0,0,9.759,9.759H1432.9a9.769,9.769,0,0,0,9.759-9.757v-4.125Z" transform="translate(-1357.868 -802.647)" fill="#e5e1e5"/>
          <path id="Trazado_25880" data-name="Trazado 25880" d="M1388.923,906.167a8.04,8.04,0,0,1-8.039-8.039V810.261h-9.768a2.025,2.025,0,0,0-2.026,2.026v95.718a2.026,2.026,0,0,0,2.026,2.026h86.178a2.026,2.026,0,0,0,2.026-2.026v-1.838Z" transform="translate(-1361.475 -802.647)" fill="#e5e1e5"/>
          <circle id="Elipse_939" data-name="Elipse 939" cx="6.456" cy="6.456" r="6.456" transform="translate(22.483 86.478)" fill="#fd8087"/>
          <circle id="Elipse_940" data-name="Elipse 940" cx="5.739" cy="5.739" r="5.739" transform="translate(18.613 28.303)" fill="#86e8d0"/>
        </g>
        <path id="Trazado_25881" data-name="Trazado 25881" d="M1431.5,801.12h-13.45a1.775,1.775,0,0,1-1.473-.777,8.756,8.756,0,0,0-14.514,0,1.771,1.771,0,0,1-1.472.777h-13.7a4.683,4.683,0,0,0-4.684,4.684v13.844a4.683,4.683,0,0,0,4.684,4.684H1431.5a4.683,4.683,0,0,0,4.682-4.684V805.8a4.683,4.683,0,0,0-4.684-4.684Z" transform="translate(-1356.465 -796.486)" fill="#99e6fc"/>
        <path id="Trazado_25882" data-name="Trazado 25882" d="M1395.54,817.905a5.917,5.917,0,0,1-5.917-5.917v-12.15h-2.736a4.683,4.683,0,0,0-4.684,4.684v13.844a4.683,4.683,0,0,0,4.684,4.684H1431.5a4.683,4.683,0,0,0,4.682-4.684V817.9H1395.54Z" transform="translate(-1356.465 -795.205)" fill="#62dbfb"/>
        <circle id="Elipse_941" data-name="Elipse 941" cx="4.693" cy="4.693" r="4.693" transform="translate(48.036 10.597)" fill="#f9f7f8"/>
        <circle id="Elipse_942" data-name="Elipse 942" cx="5.275" cy="5.275" r="5.275" transform="translate(71.11 83.915)" fill="#86e8d0"/>
      </g>
      <g id="Grupo_16604" data-name="Grupo 16604" transform="translate(1362.203 795.109)">
        <path id="Trazado_25883" data-name="Trazado 25883" d="M1387.413,826.761h4.289a1.9,1.9,0,0,0,0-3.808h-4.289a2.783,2.783,0,0,1-2.781-2.779V806.33a2.783,2.783,0,0,1,2.781-2.779h13.7a3.675,3.675,0,0,0,3.049-1.614,6.852,6.852,0,0,1,11.362,0,3.673,3.673,0,0,0,3.049,1.614h13.451a2.782,2.782,0,0,1,2.779,2.779v13.845a2.781,2.781,0,0,1-2.779,2.778h-32.216a1.9,1.9,0,0,0,0,3.808h32.215a6.594,6.594,0,0,0,6.587-6.585V806.33a6.594,6.594,0,0,0-6.587-6.587h-13.388a10.659,10.659,0,0,0-17.585,0h-13.641a6.594,6.594,0,0,0-6.587,6.587v13.844a6.594,6.594,0,0,0,6.587,6.587Z" transform="translate(-1355.088 -795.109)" fill="#00223d"/>
        <path id="Trazado_25884" data-name="Trazado 25884" d="M1410.154,809.373a6.6,6.6,0,1,0-6.6,6.6A6.605,6.605,0,0,0,1410.154,809.373Zm-9.387,0a2.79,2.79,0,1,1,2.79,2.79,2.792,2.792,0,0,1-2.79-2.79Z" transform="translate(-1348.924 -792.18)" fill="#00223d"/>
        <path id="Trazado_25885" data-name="Trazado 25885" d="M1465.646,803.375H1451.44a1.9,1.9,0,0,0,0,3.806h14.206a2.017,2.017,0,0,1,2.015,2.015V916.358a2.018,2.018,0,0,1-2.015,2.015h-97.621a2.018,2.018,0,0,1-2.015-2.015V809.2a2.017,2.017,0,0,1,2.015-2.015h14.206a1.9,1.9,0,1,0,0-3.806h-14.206a5.828,5.828,0,0,0-5.821,5.821V916.358a5.829,5.829,0,0,0,5.821,5.821h97.621a5.828,5.828,0,0,0,5.821-5.821V809.2a5.827,5.827,0,0,0-5.821-5.821Z" transform="translate(-1362.203 -791.951)" fill="#00223d"/>
        <path id="Trazado_25886" data-name="Trazado 25886" d="M1424.722,908.655a1.9,1.9,0,0,0,0,3.806h14.069a1.9,1.9,0,0,0,1.9-1.9V810.787a1.9,1.9,0,0,0-1.9-1.9h-10.51a1.9,1.9,0,1,0,0,3.806h8.607v95.964Z" transform="translate(-1339.045 -789.846)" fill="#00223d"/>
        <path id="Trazado_25887" data-name="Trazado 25887" d="M1380.126,808.884h-10.51a1.9,1.9,0,0,0-1.9,1.9v99.771a1.9,1.9,0,0,0,1.9,1.9h68.05a1.9,1.9,0,0,0,0-3.806h-66.147V812.69h8.607a1.9,1.9,0,1,0,0-3.806Z" transform="translate(-1360.098 -789.846)" fill="#00223d"/>
        <path id="Trazado_25888" data-name="Trazado 25888" d="M1403.079,833.143a1.9,1.9,0,0,0,2,3.24c.937-.579,1.888-1.128,2.822-1.629l3.056-1.639-.38,1.61a1.9,1.9,0,0,0,1.417,2.289,1.826,1.826,0,0,0,.438.051,1.9,1.9,0,0,0,1.851-1.466l1.461-6.2a1.9,1.9,0,0,0-1.416-2.29l-5.68-1.338a1.9,1.9,0,1,0-.874,3.705l1.328.312-3,1.609c-1,.538-2.019,1.125-3.023,1.744Z" transform="translate(-1346.932 -783.414)" fill="#00223d"/>
        <path id="Trazado_25889" data-name="Trazado 25889" d="M1393.248,844.037a1.9,1.9,0,0,0-2.622.6,57.458,57.458,0,0,0-4.089,7.82,1.9,1.9,0,1,0,3.5,1.5,53.746,53.746,0,0,1,3.817-7.3,1.9,1.9,0,0,0-.605-2.623Z" transform="translate(-1352.965 -776.526)" fill="#00223d"/>
        <path id="Trazado_25890" data-name="Trazado 25890" d="M1394.573,844.686a1.9,1.9,0,0,0,1.453-.673,53.675,53.675,0,0,1,6.395-6.362,1.9,1.9,0,0,0-2.448-2.916,57.384,57.384,0,0,0-6.849,6.816,1.9,1.9,0,0,0,1.45,3.135Z" transform="translate(-1350.563 -780.14)" fill="#00223d"/>
        <path id="Trazado_25891" data-name="Trazado 25891" d="M1423.306,821.392l-2.792,2.829-2.829-2.792a1.9,1.9,0,1,0-2.674,2.71l2.829,2.792-2.792,2.829a1.9,1.9,0,0,0,2.709,2.674l2.793-2.829,2.827,2.792a1.9,1.9,0,1,0,2.674-2.71l-2.829-2.792,2.792-2.829a1.9,1.9,0,0,0-2.709-2.674Z" transform="translate(-1342.244 -785.284)" fill="#00223d"/>
        <path id="Trazado_25892" data-name="Trazado 25892" d="M1402.358,849.213l1.531,1.512-1.512,1.531a1.9,1.9,0,1,0,2.71,2.674l1.512-1.531,1.531,1.512a1.9,1.9,0,1,0,2.674-2.71l-1.533-1.512,1.512-1.531a1.9,1.9,0,1,0-2.709-2.673l-1.512,1.531-1.531-1.512a1.9,1.9,0,0,0-2.674,2.709Z" transform="translate(-1347.078 -775.697)" fill="#00223d"/>
        <path id="Trazado_25893" data-name="Trazado 25893" d="M1386.83,874.056a4.565,4.565,0,0,1,4.46,3.636,1.9,1.9,0,0,0,3.73-.761,8.387,8.387,0,0,0-6.28-6.457,53.6,53.6,0,0,1,1.8-13.4,1.9,1.9,0,0,0-3.678-.981,57.347,57.347,0,0,0-1.931,14.373,8.358,8.358,0,0,0,1.9,16.5,8.286,8.286,0,0,0,3.369-.709,1.9,1.9,0,1,0-1.536-3.483,4.553,4.553,0,1,1-1.834-8.719Z" transform="translate(-1355.988 -772.348)" fill="#00223d"/>
        <path id="Trazado_25894" data-name="Trazado 25894" d="M1383.312,823.854a7.642,7.642,0,1,0,7.643,7.643A7.65,7.65,0,0,0,1383.312,823.854Zm0,11.478a3.836,3.836,0,1,1,3.837-3.835A3.84,3.84,0,0,1,1383.312,835.332Z" transform="translate(-1357.057 -784.127)" fill="#00223d"/>
        <path id="Trazado_25895" data-name="Trazado 25895" d="M1420.833,855.826a7.179,7.179,0,0,0-1.8,14.129c.073,1.314.116,2.587.094,3.23a1.906,1.906,0,0,0,.361,2.191,1.947,1.947,0,0,0,2.2.4c1.259-.576,1.435-1.657,1.167-5.888a7.178,7.178,0,0,0-2.019-14.067Zm0,10.551a3.372,3.372,0,1,1,3.372-3.372A3.376,3.376,0,0,1,1420.833,866.377Z" transform="translate(-1342.546 -771.912)" fill="#00223d"/>
      </g>
    </g>
  </g>
</svg>
