<svg xmlns="http://www.w3.org/2000/svg" width="151" height="151" viewBox="0 0 151 151">
  <g id="Grupo_17134" data-name="Grupo 17134" transform="translate(1401 4870)">
    <g id="Grupo_17120" data-name="Grupo 17120" transform="translate(-2041 -2452)">
      <rect id="Rect치ngulo_4278" data-name="Rect치ngulo 4278" width="151" height="151" transform="translate(640 -2418)" fill="none"/>
      <rect id="Rect치ngulo_4284" data-name="Rect치ngulo 4284" width="135" height="135" transform="translate(648 -2410)" fill="none"/>
    </g>
    <g id="Grupo_17123" data-name="Grupo 17123" transform="translate(-2420.775 -5737.944)">
      <path id="Trazado_25817" data-name="Trazado 25817" d="M1135.507,1007.319h-94.456V885.875h62.971l31.485,31.485Z" transform="translate(0.249 1.245)" fill="#fcf05a"/>
      <path id="Trazado_25818" data-name="Trazado 25818" d="M1147.507,994.821h-94.456V877.875h62.971l31.485,31.485Z" transform="translate(1.743 0.249)" fill="#fdbd40"/>
      <path id="Trazado_25819" data-name="Trazado 25819" d="M1109.051,909.361h31.485l-31.485-31.485Z" transform="translate(8.714 0.249)" fill="#f49e21"/>
      <g id="Grupo_16577" data-name="Grupo 16577" transform="translate(1066.038 898.365)">
        <path id="Trazado_25820" data-name="Trazado 25820" d="M1069.8,966.373h-4.5a2.249,2.249,0,1,1,0-4.5h4.5a2.249,2.249,0,1,1,0,4.5Z" transform="translate(-1063.051 -887.659)" fill="#e9686a"/>
        <path id="Trazado_25821" data-name="Trazado 25821" d="M1131.275,966.373H1077.3a2.249,2.249,0,1,1,0-4.5h53.975a2.249,2.249,0,1,1,0,4.5Z" transform="translate(-1061.557 -887.659)" fill="#e9686a"/>
        <path id="Trazado_25822" data-name="Trazado 25822" d="M1069.8,954.373h-4.5a2.249,2.249,0,1,1,0-4.5h4.5a2.249,2.249,0,1,1,0,4.5Z" transform="translate(-1063.051 -889.153)" fill="#e9686a"/>
        <path id="Trazado_25823" data-name="Trazado 25823" d="M1131.275,954.373H1077.3a2.249,2.249,0,1,1,0-4.5h53.975a2.249,2.249,0,1,1,0,4.5Z" transform="translate(-1061.557 -889.153)" fill="#e9686a"/>
        <path id="Trazado_25824" data-name="Trazado 25824" d="M1069.8,942.373h-4.5a2.249,2.249,0,1,1,0-4.5h4.5a2.249,2.249,0,1,1,0,4.5Z" transform="translate(-1063.051 -890.647)" fill="#e9686a"/>
        <path id="Trazado_25825" data-name="Trazado 25825" d="M1131.275,942.373H1077.3a2.249,2.249,0,1,1,0-4.5h53.975a2.249,2.249,0,1,1,0,4.5Z" transform="translate(-1061.557 -890.647)" fill="#e9686a"/>
        <path id="Trazado_25826" data-name="Trazado 25826" d="M1069.8,930.373h-4.5a2.249,2.249,0,1,1,0-4.5h4.5a2.249,2.249,0,1,1,0,4.5Z" transform="translate(-1063.051 -892.141)" fill="#e9686a"/>
        <path id="Trazado_25827" data-name="Trazado 25827" d="M1131.275,930.373H1077.3a2.249,2.249,0,1,1,0-4.5h53.975a2.249,2.249,0,1,1,0,4.5Z" transform="translate(-1061.557 -892.141)" fill="#e9686a"/>
        <path id="Trazado_25828" data-name="Trazado 25828" d="M1069.8,918.373h-4.5a2.249,2.249,0,0,1,0-4.5h4.5a2.249,2.249,0,1,1,0,4.5Z" transform="translate(-1063.051 -893.634)" fill="#e9686a"/>
        <path id="Trazado_25829" data-name="Trazado 25829" d="M1131.275,918.373H1077.3a2.249,2.249,0,1,1,0-4.5h53.975a2.249,2.249,0,0,1,0,4.5Z" transform="translate(-1061.557 -893.634)" fill="#e9686a"/>
        <path id="Trazado_25830" data-name="Trazado 25830" d="M1065.051,895.875h13.494v13.494h-13.494Z" transform="translate(-1062.802 -895.875)" fill="#e9686a"/>
      </g>
      <path id="Trazado_25831" data-name="Trazado 25831" d="M1065.3,966.373h4.5a2.249,2.249,0,1,0,0-4.5h-4.5a2.249,2.249,0,1,0,0,4.5Z" transform="translate(2.988 10.705)" fill="#00223d"/>
      <path id="Trazado_25832" data-name="Trazado 25832" d="M1131.275,961.875H1077.3a2.249,2.249,0,1,0,0,4.5h53.975a2.249,2.249,0,1,0,0-4.5Z" transform="translate(4.481 10.705)" fill="#00223d"/>
      <path id="Trazado_25833" data-name="Trazado 25833" d="M1065.3,954.373h4.5a2.249,2.249,0,1,0,0-4.5h-4.5a2.249,2.249,0,1,0,0,4.5Z" transform="translate(2.988 9.212)" fill="#00223d"/>
      <path id="Trazado_25834" data-name="Trazado 25834" d="M1131.275,949.875H1077.3a2.249,2.249,0,1,0,0,4.5h53.975a2.249,2.249,0,1,0,0-4.5Z" transform="translate(4.481 9.212)" fill="#00223d"/>
      <path id="Trazado_25835" data-name="Trazado 25835" d="M1065.3,942.373h4.5a2.249,2.249,0,1,0,0-4.5h-4.5a2.249,2.249,0,1,0,0,4.5Z" transform="translate(2.988 7.718)" fill="#00223d"/>
      <path id="Trazado_25836" data-name="Trazado 25836" d="M1131.275,937.875H1077.3a2.249,2.249,0,1,0,0,4.5h53.975a2.249,2.249,0,1,0,0-4.5Z" transform="translate(4.481 7.718)" fill="#00223d"/>
      <path id="Trazado_25837" data-name="Trazado 25837" d="M1065.3,930.373h4.5a2.249,2.249,0,1,0,0-4.5h-4.5a2.249,2.249,0,1,0,0,4.5Z" transform="translate(2.988 6.224)" fill="#00223d"/>
      <path id="Trazado_25838" data-name="Trazado 25838" d="M1131.275,925.875H1077.3a2.249,2.249,0,1,0,0,4.5h53.975a2.249,2.249,0,1,0,0-4.5Z" transform="translate(4.481 6.224)" fill="#00223d"/>
      <path id="Trazado_25839" data-name="Trazado 25839" d="M1065.3,918.373h4.5a2.249,2.249,0,1,0,0-4.5h-4.5a2.249,2.249,0,0,0,0,4.5Z" transform="translate(2.988 4.73)" fill="#00223d"/>
      <path id="Trazado_25840" data-name="Trazado 25840" d="M1075.051,916.124a2.249,2.249,0,0,0,2.249,2.249h53.975a2.249,2.249,0,0,0,0-4.5H1077.3A2.25,2.25,0,0,0,1075.051,916.124Z" transform="translate(4.481 4.73)" fill="#00223d"/>
      <path id="Trazado_25841" data-name="Trazado 25841" d="M1041.3,1010.813h94.456a2.248,2.248,0,0,0,2.249-2.249V997.319h11.245a2.248,2.248,0,0,0,2.249-2.249V909.61c0-.05-.025-.092-.029-.142a2.118,2.118,0,0,0-.115-.578c-.025-.072-.043-.142-.074-.211a2.238,2.238,0,0,0-.45-.659l-31.485-31.485a2.242,2.242,0,0,0-.659-.45c-.07-.031-.139-.049-.209-.074a2.266,2.266,0,0,0-.583-.117c-.038.007-.081-.018-.13-.018h-62.971a2.25,2.25,0,0,0-2.249,2.249v6.747H1041.3a2.25,2.25,0,0,0-2.249,2.249v121.444a2.249,2.249,0,0,0,2.249,2.249Zm102.521-103.452h-23.808V883.553Zm-86.778-26.988h58.473V909.61a2.249,2.249,0,0,0,2.249,2.249H1147v80.963h-89.958Zm-13.494,9h9v105.7a2.249,2.249,0,0,0,2.249,2.249h78.714v9h-89.958Z" transform="translate(0 0)" fill="#00223d"/>
      <path id="Trazado_25842" data-name="Trazado 25842" d="M1065.3,911.867h13.494a2.248,2.248,0,0,0,2.249-2.249V896.124a2.249,2.249,0,0,0-2.249-2.249H1065.3a2.25,2.25,0,0,0-2.249,2.249v13.494A2.249,2.249,0,0,0,1065.3,911.867Zm2.249-13.494h9v9h-9Z" transform="translate(2.988 2.241)" fill="#00223d"/>
    </g>
  </g>
</svg>
