<svg xmlns="http://www.w3.org/2000/svg" width="174.5" height="276.551" viewBox="0 0 174.5 276.551">
  <g id="Grupo_17035" data-name="Grupo 17035" transform="translate(1350.5 5646.028)">
    <g id="Grupo_17034" data-name="Grupo 17034" transform="translate(-1583 -6802.477)">
      <g id="Grupo_16611" data-name="Grupo 16611" transform="translate(232.5 1214.251)">
        <g id="Grupo_16610" data-name="Grupo 16610" transform="translate(7.658 0)">
          <g id="Grupo_16607" data-name="Grupo 16607">
            <path id="Trazado_25896" data-name="Trazado 25896" d="M1558.083,725.88c-3.812,1.035-7.936,1.358-11.661,2.638,6.327-5.439,5.961-13.812,10.191-20.2a63.3,63.3,0,0,1,4.011-5.413c-2.567,5.143-1.461,11.827-4.4,16.8a21.748,21.748,0,0,1-4.551,5.474c.592-.018,1.089-.539,1.6-.862,4.8-4.786,11.061-6.118,16.222-10a15.656,15.656,0,0,0,4.89-6.152C1573.409,716.081,1565.524,723.5,1558.083,725.88Z" transform="translate(-1436.422 -638.802)" fill="#64accd"/>
            <path id="Trazado_25897" data-name="Trazado 25897" d="M1573.663,696.746c-2.341,3.324-5.169,6.439-7.336,9.816.235-2.663.54-5.97-.487-8.511a73.842,73.842,0,0,1-3.908-17.031l.052-2.3c1.367,6.127,7.39,10.365,7,17.232a14.659,14.659,0,0,1-.67,4.551l.1.1.278-.314c.888-3.367,1.349-6.918,2.733-10.052,1.976-4.542,4.438-9.12,3.429-14.585C1577.85,682.108,1576.944,690.724,1573.663,696.746Z" transform="translate(-1434.736 -641.764)" fill="#64accd"/>
            <path id="Trazado_25898" data-name="Trazado 25898" d="M1570.359,663.6a20.9,20.9,0,0,1,1.933,20.017,34.652,34.652,0,0,0-2.245,8.232,15.6,15.6,0,0,1-.427-1.705c-1.558-6-7.266-10.287-9.607-15.952a29.28,29.28,0,0,1-1.706-5.779c2.5,4.612,8.65,7,10.321,12.088.687,1.314.662,2.9,1.087,4.29a.175.175,0,0,0,.165-.147,59.873,59.873,0,0,1,.183-15.925c-.017-2.8-.295-5.536-1.861-7.693C1569.2,661.612,1569.653,662.734,1570.359,663.6Z" transform="translate(-1435.13 -643.354)" fill="#64accd"/>
            <path id="Trazado_25899" data-name="Trazado 25899" d="M1568.11,663.365c1.062,4.691-.461,9.269.5,13.994l-.061.026c-2.559-5.021-7.972-7.371-11.7-11.391a16.277,16.277,0,0,1-3.639-8.364c2.159,5.152,7.9,6.284,11.218,10.609,1.114,1.009,1.48,2.4,2.185,3.533l.1-.114c-1.888-4.054-2.541-8.632-3.838-12.966a10.125,10.125,0,0,0-3.742-4.9C1563.454,654.671,1567.222,659.214,1568.11,663.365Z" transform="translate(-1435.683 -644.141)" fill="#64accd"/>
            <path id="Trazado_25900" data-name="Trazado 25900" d="M1557.123,653.177c3.263,2.925,4.751,6.736,5.718,10.643l.531,1.253a47.423,47.423,0,0,1-12.106-12.844l-3.69-3.751C1550.839,649.853,1554.329,650.689,1557.123,653.177Z" transform="translate(-1436.296 -644.718)" fill="#64accd"/>
            <path id="Trazado_25901" data-name="Trazado 25901" d="M1490.079,649.043c-3.289,2.872-5.57,6.509-8,9.9-2.175,2.706-4.978,4.49-7.449,6.8,1.34-2.767,1.375-6.057,3.281-8.6C1480.611,652.428,1485.606,650.784,1490.079,649.043Z" transform="translate(-1444.226 -644.657)" fill="#64accd"/>
            <path id="Trazado_25902" data-name="Trazado 25902" d="M1472.675,658.457a11.185,11.185,0,0,1,5.9-3.943c-4.42,3.037-4.133,8.476-5.543,13.011-.434,1.671-1.209,3.22-1.6,4.917l.113.113a15.634,15.634,0,0,1,3.638-5.37c3.159-2.9,7.781-4.718,9.339-8.982-.079,5.944-5.048,10.644-9.818,13.976a19.761,19.761,0,0,0-4.916,5.909c-.123-1.506.234-3.02.121-4.63C1469.385,668.246,1469,662.32,1472.675,658.457Z" transform="translate(-1444.775 -644.062)" fill="#64accd"/>
            <path id="Trazado_25903" data-name="Trazado 25903" d="M1464.3,675.449c-.13-5.256,2.055-9.581,5.127-13.5.1-.043.165-.138.287-.113-3.386,5.161-.592,11.645-.741,17.519l-.444,6c.061.052.061.217.209.149a13.447,13.447,0,0,0,.384-2.055c.809-4.856,5.013-8.284,8.677-11.635a9.532,9.532,0,0,0,1.9-2.794,24.533,24.533,0,0,1-2.071,7.083c-2.855,5.57-8.145,10.157-9.095,16.526C1468.048,686.509,1463.879,681.94,1464.3,675.449Z" transform="translate(-1445.351 -643.267)" fill="#64accd"/>
            <path id="Trazado_25904" data-name="Trazado 25904" d="M1462.027,681.366a22.792,22.792,0,0,1,1.384-4.874c-1.367,6.963,3.324,11.975,4.873,18.041.644,2.236.793,4.681,1.715,6.8.086.043.156-.052.217-.113-2.289-6.432,1-12.4,4.334-17.406a17.09,17.09,0,0,0,1.671-4.447c.339,2.9-.375,6.249-.8,9.26-.809,3.846-2.019,7.484-3.072,11.209a18.026,18.026,0,0,0-.147,7.388l-.34-.262c-2.428-4.49-7.24-8.006-8.668-12.914A27.16,27.16,0,0,1,1462.027,681.366Z" transform="translate(-1445.631 -641.673)" fill="#64accd"/>
            <path id="Trazado_25905" data-name="Trazado 25905" d="M1461.818,693.258c.514,7.4,8.46,11.3,12.158,17.414a18.691,18.691,0,0,0,2.785,3.681c-.2-.775-.915-1.453-1.2-2.254a16.106,16.106,0,0,1-1.436-8.72c.357-3.777,1.949-7.293,1.34-11.243,3.246,6.97,2.245,15.69,4.064,23.235.47,1.663,1.427,3.133,2.044,4.718-6.649-4.543-15.708-8.842-18.658-17.145C1461.67,700.1,1461.54,696.539,1461.818,693.258Z" transform="translate(-1445.632 -639.973)" fill="#64accd"/>
            <path id="Trazado_25906" data-name="Trazado 25906" d="M1465.385,709c3.716,8.381,12.967,9.077,19.207,14.186a15.958,15.958,0,0,0,3.629,2.471l.061-.07a21.3,21.3,0,0,1-4.081-4.447c-3.629-5.056-2.358-12.14-5.073-17.605a42,42,0,0,1,6.222,9.425c2.229,5.491,3.081,11.687,8.224,15.856-5.57-1.836-12.106-1.332-17.023-4.761C1471.181,720.747,1466.377,715.142,1465.385,709Z" transform="translate(-1445.231 -638.733)" fill="#64accd"/>
            <path id="Trazado_25907" data-name="Trazado 25907" d="M1473.965,723.324c5.935,6.763,15.656,4.5,23.576,6.275a11.216,11.216,0,0,0,3.324.418c-.923-.592-2.262-.54-3.272-1.071-6.213-2.175-7.144-8.9-10.5-13.428,4.291,2.863,7.928,6.719,11.888,10.443a20.872,20.872,0,0,0,9.921,4.395c-.878.3-2.01.217-2.95.47-6.492,1.592-13.732,4.212-20.616,1.871A20.1,20.1,0,0,1,1473.965,723.324Z" transform="translate(-1444.298 -637.431)" fill="#64accd"/>
            <path id="Trazado_25908" data-name="Trazado 25908" d="M1553.6,737.636c-6.718,2.507-13.68-.1-18.9-4.072-2.132-1.331-4.012-3.281-6.753-3.108a10.024,10.024,0,0,0-2.785.27,52.212,52.212,0,0,1,14.133,9.8,22.14,22.14,0,0,1-2.585,2.324c-4.142-4.491-8.763-8.8-13.933-11.313a9.455,9.455,0,0,0-2.872,1.218A43.1,43.1,0,0,0,1508.455,743l-2.7-2.2a49.705,49.705,0,0,1,14.212-10.121c-5.091-1.593-8.415,2.654-12.271,4.83-4.517,3.142-10.99,4.612-16.43,2.454a17.671,17.671,0,0,1-7.876-5.4c4.273,2.95,10.669,3.255,15.534,1.358,6.536-2.855,13.332-6.44,21.19-4.718,1.245.027,2.428,1.254,3.595.2a25.149,25.149,0,0,1,17.519,2.21l5.2,2.063c4.83,1.793,11.078,1.3,15.2-1.645A18.035,18.035,0,0,1,1553.6,737.636Z" transform="translate(-1443.273 -635.999)" fill="#64accd"/>
            <path id="Trazado_25909" data-name="Trazado 25909" d="M1555.5,732.218c-7.52,2.837-15.073-.635-22.279-1.8l-1.393-.183v-.043c3.447-.775,6.789-1.81,9.547-4.273,4.029-3.9,7.615-7.894,12.1-10.948-3.324,4.256-3.681,10.339-9.163,13.072-1.366.9-3.09,1.044-4.481,1.714,2,.052,3.821-.67,5.813-.853,7.354-1.166,15.812.027,20.947-6.256C1564.682,727.032,1559.888,730.686,1555.5,732.218Z" transform="translate(-1438.008 -637.49)" fill="#64accd"/>
            <path id="Trazado_25910" data-name="Trazado 25910" d="M1566.363,713.632c-2.942,1.94-5.978,3.742-8.842,5.944v-.252c4.386-7.276,2.263-17.267,4.943-25.23l.992-2.689c-.531,4.969,1.628,9.19,1.471,14.194a15.949,15.949,0,0,1-2.742,8.085h.278c2.15-2.811,3.821-5.779,6.327-8.476,3.88-3.734,7.841-7.58,8.354-12.784C1578.442,701.1,1573.586,708.715,1566.363,713.632Z" transform="translate(-1435.215 -640.052)" fill="#64accd"/>
            <path id="Trazado_25911" data-name="Trazado 25911" d="M1563.134,670.568a44.925,44.925,0,0,0-40.223-25.481,47.273,47.273,0,0,0-20.312,4.822c-10.992,5.247-20,16.656-22.984,27.944-4.943,19.005,1.758,38.256,18.068,49.439,11.722,8.424,30.424,10.034,43.6,3.568,11.687-4.9,21.729-16.979,24.785-28.911a44.315,44.315,0,0,0-2.934-31.381m2.072,15.76c.139.757-.061,1.671.365,2.288l-6.439.122a.832.832,0,0,1-.522.208l.191-.278a35.257,35.257,0,0,0-3.411-13.854c-.052-1.915-1.923-3.22-2.7-4.891-1.436-.983-1.879-2.715-3.489-3.586-.305-.339-.453-.9-.915-1l.766-.165a52.11,52.11,0,0,0,4.413-4.777c6.683,7.5,10.913,16,11.74,25.934m-18.163,24.141c-.54-.522-.566-1.584-1.558-1.549-.313-.052-.452.269-.452.53-.009.166.026.34-.07.436l-2.028-1.784c.967-.479,1.671-1.784,2.4-2.724a28.749,28.749,0,0,0,3.907-8.52.866.866,0,0,0,1.027.07.811.811,0,0,0,.149-1.027l-.741-.792a23.091,23.091,0,0,0,.314-4.012l.5.14c2.072-.018,4.187.122,6.2-.088l-.3.357a33.181,33.181,0,0,1-8.973,21.269c.262-.792-.5-1.462-.382-2.306m-5.23,6.439c-1.157-1.088.713-1.983,1.07-2.95-.208-1.061-1.349-1.626-2.263-1.922-.409-.244-.287-.775-.3-1.141a3.7,3.7,0,0,0,1-1.271l.156.427,2.742,2.846a1.407,1.407,0,0,0,.748,1.479c.314.149.644-.131.923-.043h-.156a30.12,30.12,0,0,1-3.995,3.325l-.3.426c-.148-.445.766-.653.383-1.175m-12.479-34.6c-.357.139-.74.391-1.141.2a2.724,2.724,0,0,0-1.488-1.009c-.418.121-.722.661-1.235.374.817-.888,2.245-1.018,2.846-2.236a4.223,4.223,0,0,0,.252-1.784c-.21-.271-.557-.513-.853-.271-.427.732-1.453.888-1.949,1.68l-1.575-.54c-.271-1.479.1-3.342-.314-4.62a24.1,24.1,0,0,0,2.663.539,22.107,22.107,0,0,1,6.362,2.907,4.579,4.579,0,0,0-1.332,1.062c-.026.408.418.286.6.539l.426-.165c-.687,1.741-3.01,1.47-3.263,3.325m1.87,18.483c-.043.809-1.183.784-1.723,1.331-.3-.1-.034-.417,0-.591.54-.436.949-.854,1.723-.741m12.645-21.39c.723.148,1.184,1.044,1.9,1.183a11.8,11.8,0,0,1,1.262,3.386c-.592.652-.653,2.157-1.95,1.906-.295-.705.574-1.123.392-1.8.235-.174.592-.271.643-.592-.043-.679-.9-.548-1.036-1.244-.252-.366-.713-.323-1.061-.461-.836-.409-1.653,1.714-1.872.043a.628.628,0,0,0,.218-.853c-.723-.4-.793-1.428-1.6-1.819-1.088.009-2.1-.47-3.168-.235-.705-.147-1.506-.609-2.028.113-.052.565-.348,1.036-.426,1.558a1.543,1.543,0,0,1-.627-.644c1.985-2.184,4.23-4.386,6.292-6.527l.113-.269a26.712,26.712,0,0,1,3,3.96c.156.87-1.5,1.748-.053,2.3m3.9,11.835c-.374,1.21-.339,2.593-.635,3.812a3.721,3.721,0,0,1-.217.653,4.411,4.411,0,0,0-1.558-2.211c-.732-.4-.279-1.4-.958-1.88l-.7-.679a9.475,9.475,0,0,0,4.065.3m-9.3-18.954a52.227,52.227,0,0,0-3.7,3.968l-.156-.487a19.625,19.625,0,0,0-10.026-4.073l-.582.122.034-6.057-.2-.488a40.084,40.084,0,0,1,7.171,1.515,26,26,0,0,1,8.051,4.656l.522.217-1.114.626m-6.127,33.053a22.03,22.03,0,0,1,5.6,1.279,1.531,1.531,0,0,0,1.209-.375c-.1-.739.784-1.079.705-1.8.374-.644.1-1.5.626-2.044a3.065,3.065,0,0,0-.531-2.254c-.487-.3-.931.1-1.4.156-.53.391-.33,1.592-1.28,1.331a.843.843,0,0,1-.957.235c-.078-.113-.226-.131-.156-.262.635-.356,1.827-.122,1.932-1.183.487-.427,1.253-.253,1.705-.757a8.155,8.155,0,0,1,.966-1.505,2.914,2.914,0,0,0,.122-.7c.122.314.122.74.513.914.54.165.748-.261.967-.6-.018-.174.13-.436.322-.253.565.435,1.332.061,1.983.1a6.271,6.271,0,0,1,1.767-.3,20.238,20.238,0,0,1-3.255,6.875c-.574.7-1.061,1.428-1.688,2.1-.191-.513-.174-1.21-.609-1.671l-.278.061c-.357.713-1.079,1.323-.984,2.141-.531.844-1.879.139-2.663.591-.966.288-1.488-.652-2.245-.844-.854-.383-1.836-.391-2.638-.809a.4.4,0,0,1,.262-.435m-4.16-57.524a41.749,41.749,0,0,1,23.679,11.2l-.766.33c-1.228,1.3-2.663,2.376-3.376,3.9-.079-.427-.705-.714-.915-1.132a4.676,4.676,0,0,0-2.358-3c-.878-.165-1.07-1.488-2.14-1.061-.906-.766-2.019-.21-2.89.217v.1a33.267,33.267,0,0,0-14.089-4.291c-.227,0-.357.2-.636.165.279-.174.131-.722.114-1.018-.149-.226-.393-.5-.723-.33a1.087,1.087,0,0,0-.183.548,33.615,33.615,0,0,0-.061-6.161,31.8,31.8,0,0,0,4.343.531m-1.723,8.955a36,36,0,0,1,10.816,3.089c.532.792,1.532,1.166,1.654,2.15-.5,1.366,1.8,1.34.766,2.724-.07.444.313.7.461,1.027.131.383-.07.957.374,1.184.809.173,1.149-.9,1.967-.6a3.721,3.721,0,0,1,1.245,3.168,2.224,2.224,0,0,0,1.409,1.5c1.323-.391.723,1.062,1.6,1.462,1.036.122,1.557,1.436,2.689,1.323a28.564,28.564,0,0,1,2.445,2.715.469.469,0,0,0,.279.47c.548.122.879-.244,1.323-.278a32.009,32.009,0,0,1,2.933,11.556l.2.418c-2.167-.009-4.36.018-6.553.158-.07-1.28.017-2.611-.687-3.63a4.449,4.449,0,0,0,.357-2.3c-.113-.348-.409-.043-.557,0a6.841,6.841,0,0,0-1.193,2.455,3.744,3.744,0,0,0-.33,3.168l.261.26-2.488-.043c.6-.374-.514-1.114.078-1.714l1.149-.217c.357-.845,1.245-1.437,1.227-2.42a2.125,2.125,0,0,0,.574-2.184c-.54-1.235.923-2.462-.192-3.638.1-.348-.139-.835-.548-.809-.357-.1-.766,0-.766-.487.218-.3.732-.628.618-1.123-.26-.322-.687-.034-1.026-.052-.088-.54.9-1.123.043-1.61-.6-.1-.948.644-1.531.374a.672.672,0,0,1-.226-.914l-1.349-1.662c-.13-.148-.5.113-.522-.217.079-1.323-1.514-2.054-1.619-3.35-.5-.452-.086-1.288-.731-1.662-.357-.271-.748-.583-1.253-.384a13.824,13.824,0,0,0-1.95-2.288.463.463,0,0,0-.513.192c.113.626.854.975.809,1.671a.282.282,0,0,0-.278.1,3.341,3.341,0,0,0,1.044,1.6,26.336,26.336,0,0,0-12.009-4.813,6.691,6.691,0,0,0-2.559-.1c.183-1.94.07-4.142.105-6.231l-.236-.409c.836.445,1.724.235,2.69.375m-3.751,25.707.374.191c-.461.036-1-.261-1.391.07-.27.2-.079.557,0,.818.8.3.975,1.619,2.053,1.1.435.1,1,.2,1.14.705.67.235.757,1.384,1.628,1.122-.052.436-.2,1.175.323,1.5-.131.393-.619.549-.584,1.028-.121.139-.243.365-.1.539.827.1.775,1.028,1.166,1.558a1.456,1.456,0,0,0,.6,1.662,6.158,6.158,0,0,1-.775,2.072c-.853.426-2.28-.635-2.593.9-.5.548-.07,1.723-1.027,1.784a7.029,7.029,0,0,1-4.926-1.357c.9-.461,2.463.182,2.785-1.166a.825.825,0,0,0,.235-.862,4.705,4.705,0,0,0,.783-1.489c-.33-.33-.183-.513-.113-.9-.9-.948-2.15-.452-3.324-.426-.687.391-.018,1.156-.488,1.635-.887.122-.9.992-1.531,1.5a1.175,1.175,0,0,1-.618-.992h.113a.329.329,0,0,0,.235.375c.853.138.582-.827.853-1.253.13-.54,1.375-1.262.374-1.645-.052-.235.131-.513-.165-.653-.314.14-.836.14-.87.6a.939.939,0,0,1-.339,1.079h-.2a.463.463,0,0,0-.314-.548c-.5.026-.931.4-1.436.269a11.022,11.022,0,0,1-2.263.314c-.088-.427.592-.287.722-.679-.121-.68.323-1.08.619-1.567.165-.174.522-.113.722-.044.183.174.357.331.618.262l.219-.384c.67.409.3,2.333,1.619,1.515a11.334,11.334,0,0,1,.382-2.576c-.314-.714.443-1.01.687-1.5.7.061.618-.723.914-1.079a4.25,4.25,0,0,0,2.837-1.681c-.269-.548-.1-1.348-.548-1.792.5-.165,1.253-.392,1.61,0m-1.018,41.389-.635-.427c-8.294-.443-15.4-3.837-21.592-9.259,1-.113,1.375,1.227,2.472.9,1.21-.147,2.149-1.1,3.41-.9.635.009,1.419,0,1.8-.6.183-.679-.513-1.009-.652-1.54a25.678,25.678,0,0,0,14.393,5.395l.531-.217V723.1l.27.766m-23.385-32.182-.33-.531a2.537,2.537,0,0,0,2.141.192c-1.1.366-.687,1.705-1.132,2.541-.078.391.549.5.479.914-.557.253-.609.836-.853,1.254.3-1.489-.262-2.89-.3-4.369m-6.77,7.7c-.61.07-.445.731-.687,1.07.052-1.549-.653-3.089-.854-4.647l-.487-4.125-.28-.365a54.42,54.42,0,0,0,6.223.148l.478-.226a4.3,4.3,0,0,0,.488,3.281c-.235-.269-.6-1.044-1.166-1.027-1.14.078-1.244,1.558-2.375,1.619a4.308,4.308,0,0,0-1.263,2.932c.4.427-.322.861-.078,1.34m4.552-10.322-.592-.234-6.1.121c.566-6.831,2.436-13.106,6.387-18.519l2.4-3.063.051-.426a44.673,44.673,0,0,0,4.717,4.717,26.982,26.982,0,0,0-7.137,16.744c.1.217.009.5.271.661m25.333-26.029a11.787,11.787,0,0,0-3.525.271,26.575,26.575,0,0,0-13.384,6.787l-.165-.418c-1.5-1.393-2.855-3.133-4.5-4.194,1.436-.836,2.68-2.089,4.09-3.046a34.024,34.024,0,0,1,17.44-5.823,42.834,42.834,0,0,0,.043,6.423M1511.39,696.7a.363.363,0,0,0,.539.278c.253-.348-.539-.93.043-1.131.366.418.183,1.079.409,1.54a1.274,1.274,0,0,1,.183.879,15.1,15.1,0,0,0-1.888,2.184c-.409-1-1.288-1.793-1.688-2.828-.635-1.166-.975-2.5-1.6-3.638.522.662,1.967-.1,1.967,1.175.078.079.217.052.313.052.192-.2.226-.217.436-.1.122.208.644.321.235.592a1.439,1.439,0,0,0,1.053,1m6.631,17.406,1.061.5c-3.864-.948-8.032-2.288-11.383-5.082-.574-.33-.957-1.1-1.653-1.149a34.29,34.29,0,0,0,4.438-4.542c.583,1.07,1.827,1.644,2.8,2.358,1.679.783,3.437,2.22,5.422,1.8a4.019,4.019,0,0,0-1.68,1.105c-.269.6-.192,1.488-.974,1.748.034,1.279,1.174,2.35,1.967,3.264m-14.22-7.867-.244-1.384c-1.262-1.149-.861-3.107-1.07-4.56-.879-.705-.192-1.872-.775-2.672,0-1.3-2.037-1.741-1.418-3.176-.227-.339-.54-.818-.253-1.271.4-.479,1.28.061,1.54-.644l.183-1.192c.461-.244,1.123.339,1.393-.3.427-1.122-1.662-2.48.131-3.072.626-.052,1.445-.2,1.671.549a5.181,5.181,0,0,1,.052,2.628c.592.218.07.732.07,1.105-.393.165-.714.513-1.132.391-.183-.278-.5-.8-.922-.765-.33.487.14.957.088,1.506-.131.3-.036.661-.226.9a1.038,1.038,0,0,0-.549-.147c-.374.2-.139.6-.043.862.4.244.687.609,1.157.635l.235-.271a15.6,15.6,0,0,1,.3-1.975l.652.321a22.451,22.451,0,0,0,3.438,7.667l.853.845a60.537,60.537,0,0,0-5.735,5.838v.044c-.026-.088-.078-.445-.365-.3-.174-.844,1.235-.609.974-1.558m3.1-26.413a4.862,4.862,0,0,0-1.5,1.567c-.54.332-1.244.323-1.68.915,0,.243.287.557-.035.74-.522.5-1.593-.131-1.836.8-.088.835-1.071,1.287-.983,2.211-.574.365-.461,1.061-.4,1.6.3.374-.14,1.009.4,1.287a5.417,5.417,0,0,0-2.821.113,19.694,19.694,0,0,0,.54-3.333,26.575,26.575,0,0,1,6-12.367,56.566,56.566,0,0,0,4.935,4.613c-1.262.034-1.3,1.9-2.62,1.853m13.75,24.063c-.287.522-.043,1.271-.217,1.879a17,17,0,0,1-8.032-3.724c1.34-1.436,3.176-2.855,4.133-4.422.14.714.976,1.044,1.55,1.375,1.2.531,2.654,1.358,4,.793a3.41,3.41,0,0,0-.313.278c.374.383-.278.783.174,1.131.069.3-.287.262-.323.479.21.4-.052,1.105.565,1.262a.363.363,0,0,1-.243.565c-.452-.078-1.062-.113-1.3.384m-7.18-6.684a3.08,3.08,0,0,0,.922-1.47l.749.391c-.7.036-1.052.731-1.61,1.123l-.061-.044m6.231-18.18c-.13-.3.236-.644-.113-.844-1.018.461-.652,1.61-1.339,2.341-.113.583-.871.3-1.219.6a.845.845,0,0,0-1.193-.156c-.521,0-.617-1.089-1.174-.522-.165.182-.079.583-.5.409-.078-.149-.243-.166-.374-.271,0-.33.574-.3.374-.679-.409-.714-1.278-.6-1.784-1.14h-.522a15.117,15.117,0,0,1,9.538-4.474,14.072,14.072,0,0,0,.339,4.856c-.574-.7-1.332.174-2.036-.122m1.758-7.214c-1.166-.261-2.263.253-3.376.357a20.539,20.539,0,0,0-6.78,3.533,4.294,4.294,0,0,1-.357.487c-1.54-1.348-3.046-3.246-4.751-4.42a26.054,26.054,0,0,1,14.881-6.327l.382-.234a31.025,31.025,0,0,0,0,6.6M1497.291,656a43.622,43.622,0,0,1,24.019-8.5l-.192.635.061,5.361.217.513a35.478,35.478,0,0,0-22.809,9.617l-.113.287a38.367,38.367,0,0,0-4.926-4.734h-.2c1.375-.809,2.576-2.236,3.943-3.176m-16.6,28.927a43.854,43.854,0,0,1,11.426-24.376l.147.6c1.532,1.5,3.038,3.089,4.483,4.456-1.245.826-1.976,2.262-2.968,3.4a36.3,36.3,0,0,0-6.71,19.127l.157.863a45.7,45.7,0,0,0-6.9,0c.278-1.349.113-2.742.366-4.073M1485.856,711a45.352,45.352,0,0,1-5.484-19.59l6.214.052.583-.226a7.683,7.683,0,0,0-.043,1.253l-.053-.07c-.165.131.149.2.1.339a37.347,37.347,0,0,0,1.079,6.789l.314.479a11.537,11.537,0,0,1-1-1.367,2.75,2.75,0,0,0-1.436.531c.226.644-.4.436-.7.61a1.4,1.4,0,0,0-.452-.418c-.479.034-.949.07-1.175.531.079.339-.3.5-.435.765-.131,1-.47,2.324.278,3.151a2.558,2.558,0,0,0,.923,1.87c.208.044.321-.13.461-.2.618.452.931,1.54,1.818,1.332.279-.131.192-.4.279-.592.452.461.688,1.418,1.549,1.34.235.217.33.635.7.644.939-.244.6,1.061,1.287,1.445.54.339.836,1.14,1.61.757l.271-.34c.252.183.043.628.269.879a3.051,3.051,0,0,0,1.872,1.428,15.57,15.57,0,0,0,2.071,2.14l-.522.235-4.456,4.578c-2.019-2.733-4.343-5.387-5.917-8.345m31.424,21.164a45.266,45.266,0,0,1-23.775-11.139l4.587-4.612.07-.278a35.259,35.259,0,0,0,22.765,9.824l.7-.173-.226.339v6.039l.339.531a38.978,38.978,0,0,0-4.456-.531m5.4-25.29a2.053,2.053,0,0,1-1.288-.147c-.217-.027-.13-.244-.217-.384.653.027.966-.765,1.653-.644.427-.365.488-.957,1.044-1.174-.174-.565.54-.192.687-.531.2-.165.47-.375.74-.217.444.661,1.375.382,1.81,1.122.235.079.3-.156.278-.313v-.271c.714-.069,1.08.967,1.846.271a.537.537,0,0,0,0-.653c-.088-.043-.21-.1-.227-.208.506-.226.827.792,1.437.435.53-.435.869-.966,1.574-.966l.149.2c.113,1.349-1.027,2.15-2.037,2.742-.653.278-1.818.183-1.776,1.235-.722.68-1.427-.4-2.366-.121-.409-.21-.009-.836-.583-.949-.931.4-2.054-.488-2.724.574m1.636,11.322c.817.339,2.2-.339,2.646.583-.235.5-.644.992-.479,1.6.323.827.818,1.915,1.87,1.985a1.816,1.816,0,0,0,.976.583c-1.767.287-3.717.208-5.352.757a44.962,44.962,0,0,0,0-5.509l-.331-.5c.314.052.461.321.671.5m.1,14.272-.435.278a52.373,52.373,0,0,0,0-7.006c1.113.384,2.305-.052,3.473-.052l3.419-.6c1.689.33,2.907,3.089,4.786,1.409.635-.774,1.784-.713,2.175-1.784,1.106-.4,1.358-1.522,2.15-2.236.723-2.1,3.115-2.4,4.535-3.864,1.07-.931,2.446-1.706,3.062-2.941l.114.53,4.716,4.482a43.354,43.354,0,0,1-28,11.783m40.972-40.9a43.07,43.07,0,0,1-11.149,27.256l-.182.33a46.482,46.482,0,0,0-4.978-4.882,15.152,15.152,0,0,0,2.645-2.872,36.3,36.3,0,0,0,7.075-19.834l-.226-.592.384.262,6.353-.027.33-.165Z" transform="translate(-1443.857 -645.087)" fill="#64accd"/>
            <path id="Trazado_25912" data-name="Trazado 25912" d="M1536.328,655.425a.92.92,0,0,0,.156.661c.949.331,1.044,1.7,2.236,1.384.384-.409-.226-.835-.1-1.348a1.37,1.37,0,0,0-1.018-.793C1537.147,655.765,1536.763,654.921,1536.328,655.425Z" transform="translate(-1437.519 -643.981)" fill="#64accd"/>
            <path id="Trazado_25913" data-name="Trazado 25913" d="M1520.256,652.178c1.157,1.506,3.236.671,4.7.384a2.869,2.869,0,0,0,2.916-.766v-.156c-.766-1.062-2.193-1.227-3.49-1.34l-3.211,1.384c-.278-.1-.8-.244-.966.113C1520.056,651.909,1520.2,652.065,1520.256,652.178Z" transform="translate(-1439.279 -644.52)" fill="#64accd"/>
            <g id="Grupo_16606" data-name="Grupo 16606" transform="translate(0 118.538)">
              <path id="Trazado_25914" data-name="Trazado 25914" d="M1449.608,755.715v6.317a.554.554,0,0,0,.1.357.7.7,0,0,0,.357.2v.244h-2.854v-.244a.735.735,0,0,0,.352-.2.583.583,0,0,0,.1-.362v-8.8a.539.539,0,0,0-.1-.348.7.7,0,0,0-.352-.2v-.244h3.306v.244a.355.355,0,0,0-.3.348.631.631,0,0,0,.2.4l5.4,5.962v-6.166a.531.531,0,0,0-.1-.348.691.691,0,0,0-.352-.2v-.244h2.854v.244a.7.7,0,0,0-.357.2.531.531,0,0,0-.1.348v8.8a.575.575,0,0,0,.1.362.73.73,0,0,0,.357.2v.244h-3.068v-.244a.32.32,0,0,0,.3-.326c0-.1-.117-.278-.348-.535Z" transform="translate(-1447.207 -751.955)" fill="#00223d"/>
              <path id="Trazado_25915" data-name="Trazado 25915" d="M1466.431,760.187h-4.447l-.647,1.458a1.266,1.266,0,0,0-.135.478c0,.227.156.379.474.466v.244h-3.229v-.244a.826.826,0,0,0,.439-.213,2.253,2.253,0,0,0,.348-.591l3.586-7.989a1.552,1.552,0,0,0,.174-.605.53.53,0,0,0-.418-.5v-.244h3.464v.244c-.278.086-.417.235-.417.448a1.17,1.17,0,0,0,.134.5l3.725,8.007a2.732,2.732,0,0,0,.413.7.855.855,0,0,0,.473.247v.244h-3.594v-.244c.314-.055.47-.213.47-.47a1.278,1.278,0,0,0-.143-.473Zm-.613-1.427-1.576-3.7-1.61,3.7Z" transform="translate(-1445.985 -751.955)" fill="#00223d"/>
              <path id="Trazado_25916" data-name="Trazado 25916" d="M1479.1,759.277l1.357,2.189-.183.135a.556.556,0,0,0-.326-.2,2.43,2.43,0,0,0-.727.365,9.992,9.992,0,0,1-2.071,1.01,6.825,6.825,0,0,1-2,.26,5.932,5.932,0,0,1-3.791-1.166,4.787,4.787,0,0,1-1.375-1.68,5.548,5.548,0,0,1-.579-2.537,5.339,5.339,0,0,1,1.037-3.281,5.5,5.5,0,0,1,4.717-2.093,6.674,6.674,0,0,1,1.988.262,9.9,9.9,0,0,1,2.076,1.022,2.5,2.5,0,0,0,.727.361.549.549,0,0,0,.326-.2l.183.14-1.357,2.171-.2-.14a1.873,1.873,0,0,0,.013-.2.6.6,0,0,0-.178-.414,3.159,3.159,0,0,0-.635-.466,5.131,5.131,0,0,0-2.681-.757,3.871,3.871,0,0,0-2.671.888,3.734,3.734,0,0,0,0,5.43,3.872,3.872,0,0,0,2.671.888,5.1,5.1,0,0,0,2.681-.762,2.94,2.94,0,0,0,.635-.47.584.584,0,0,0,.178-.414,1.8,1.8,0,0,0-.013-.2Z" transform="translate(-1444.794 -751.972)" fill="#00223d"/>
              <path id="Trazado_25917" data-name="Trazado 25917" d="M1481.5,762.032v-8.8a.532.532,0,0,0-.1-.348.716.716,0,0,0-.357-.2v-.244h3.047v.244a.613.613,0,0,0-.353.2.561.561,0,0,0-.1.354v8.8a.555.555,0,0,0,.1.362.653.653,0,0,0,.349.2v.244h-3.047v-.244a.751.751,0,0,0,.357-.2A.576.576,0,0,0,1481.5,762.032Z" transform="translate(-1443.528 -751.955)" fill="#00223d"/>
              <path id="Trazado_25918" data-name="Trazado 25918" d="M1491.092,752.285a5.541,5.541,0,0,1,4.056,1.471,5.284,5.284,0,0,1,1.583,3.972,5.366,5.366,0,0,1-.762,2.785,5.2,5.2,0,0,1-4.865,2.528,5.49,5.49,0,0,1-4.033-1.47,5.1,5.1,0,0,1-1.218-1.88,5.7,5.7,0,0,1-.366-2.032,5.555,5.555,0,0,1,.757-2.855A5.241,5.241,0,0,1,1491.092,752.285Zm.009,1.775a3.267,3.267,0,0,0-2.333.88,3.908,3.908,0,0,0,0,5.447,3.556,3.556,0,0,0,4.682,0,3.369,3.369,0,0,0,.844-1.284,3.823,3.823,0,0,0,.262-1.4,3.569,3.569,0,0,0-1.105-2.766A3.4,3.4,0,0,0,1491.1,754.06Z" transform="translate(-1443.046 -751.972)" fill="#00223d"/>
              <path id="Trazado_25919" data-name="Trazado 25919" d="M1505.233,761.727c.231.257.348.436.348.535a.324.324,0,0,1-.3.326v.244h3.063v-.244a.733.733,0,0,1-.353-.2.575.575,0,0,1-.1-.362v-8.8a.532.532,0,0,1,.1-.348.7.7,0,0,1,.353-.2v-.244h-2.855v.244a.7.7,0,0,1,.357.2.532.532,0,0,1,.1.348V759.4l-5.395-5.962a.644.644,0,0,1-.2-.4.35.35,0,0,1,.3-.348v-.244h-3.312v.244a.7.7,0,0,1,.357.2.532.532,0,0,1,.1.348v8.8a.576.576,0,0,1-.1.362.732.732,0,0,1-.357.2v.244h2.855v-.244a.7.7,0,0,1-.353-.2.553.553,0,0,1-.1-.357v-6.317Z" transform="translate(-1441.756 -751.955)" fill="#00223d"/>
              <path id="Trazado_25920" data-name="Trazado 25920" d="M1515.753,758.32a.442.442,0,0,1,.327.11.847.847,0,0,1,.191.378h.226v-2.629h-.226a.854.854,0,0,1-.191.384.46.46,0,0,1-.327.1H1511.8V754.2h6.1a.438.438,0,0,1,.326.109.817.817,0,0,1,.192.379h.226V752h-.226a.841.841,0,0,1-.192.378.438.438,0,0,1-.326.109H1509.2v.244a.69.69,0,0,1,.351.2.549.549,0,0,1,.1.356v8.79a.575.575,0,0,1-.1.361.722.722,0,0,1-.351.2v.244h8.872a.475.475,0,0,1,.326.1.844.844,0,0,1,.183.384h.226v-2.681h-.226a.834.834,0,0,1-.183.383.463.463,0,0,1-.326.105H1511.8V758.32Z" transform="translate(-1440.467 -752.003)" fill="#00223d"/>
              <path id="Trazado_25921" data-name="Trazado 25921" d="M1528.676,753.356l-1.162,2.449-.209-.122c0-.052.009-.091.009-.121,0-.175-.135-.361-.409-.558a4.9,4.9,0,0,0-2.994-.945,4.172,4.172,0,0,0-1.34.2,1.608,1.608,0,0,0-.679.457.991.991,0,0,0-.262.662.808.808,0,0,0,.662.8,10.542,10.542,0,0,0,1.476.226l1.126.122a8.74,8.74,0,0,1,1.619.309,3.7,3.7,0,0,1,1.1.557,2.556,2.556,0,0,1,.771.979,3.175,3.175,0,0,1-.379,3.25,3.573,3.573,0,0,1-1.875,1.145,7.075,7.075,0,0,1-2.023.283,8.114,8.114,0,0,1-3.829-1,1.871,1.871,0,0,0-.483-.2.592.592,0,0,0-.287.166l-.2-.113,1.058-2.554.2.109v.1a.881.881,0,0,0,.3.636,3.81,3.81,0,0,0,1.44.756,5.79,5.79,0,0,0,1.849.323,3.569,3.569,0,0,0,1.623-.339,1.6,1.6,0,0,0,.592-.5,1.113,1.113,0,0,0,.222-.652.75.75,0,0,0-.519-.732,6.481,6.481,0,0,0-1.475-.278l-1.1-.122a14.752,14.752,0,0,1-1.567-.235,3.945,3.945,0,0,1-.914-.353,2.467,2.467,0,0,1-1.018-1.031,2.9,2.9,0,0,1-.336-1.418,2.987,2.987,0,0,1,.845-2.184,4.49,4.49,0,0,1,3.342-1.136,7.173,7.173,0,0,1,1.745.205,12.053,12.053,0,0,1,2.022.748,2.09,2.09,0,0,0,.51.179.61.61,0,0,0,.352-.179Z" transform="translate(-1439.37 -751.972)" fill="#00223d"/>
              <path id="Trazado_25922" data-name="Trazado 25922" d="M1543.027,753.242v5.826a4.373,4.373,0,0,1-.57,2.477q-1.038,1.482-4.264,1.479a6.6,6.6,0,0,1-3.572-.8,2.379,2.379,0,0,1-1-1.262,5.83,5.83,0,0,1-.274-1.894v-5.826a.542.542,0,0,0-.1-.356.691.691,0,0,0-.351-.2v-.244h3.046v.244a.62.62,0,0,0-.352.2.551.551,0,0,0-.1.362v5.182a6.973,6.973,0,0,0,.091,1.327,1.581,1.581,0,0,0,.348.723,3.944,3.944,0,0,0,4.7,0,1.574,1.574,0,0,0,.344-.723,6.948,6.948,0,0,0,.091-1.327v-5.182a.549.549,0,0,0-.1-.356.7.7,0,0,0-.353-.2v-.244h2.872v.244a.718.718,0,0,0-.356.2A.549.549,0,0,0,1543.027,753.242Z" transform="translate(-1437.892 -751.955)" fill="#00223d"/>
              <path id="Trazado_25923" data-name="Trazado 25923" d="M1546.59,755.715v6.317a.554.554,0,0,0,.1.357.711.711,0,0,0,.357.2v.244h-2.855v-.244a.732.732,0,0,0,.352-.2.574.574,0,0,0,.1-.362v-8.8a.531.531,0,0,0-.1-.348.7.7,0,0,0-.352-.2v-.244h3.307v.244a.35.35,0,0,0-.3.348.647.647,0,0,0,.2.4l5.4,5.962v-6.166a.532.532,0,0,0-.1-.348.7.7,0,0,0-.353-.2v-.244h2.855v.244a.709.709,0,0,0-.357.2.532.532,0,0,0-.1.348v8.8a.576.576,0,0,0,.1.362.743.743,0,0,0,.357.2v.244h-3.069v-.244a.32.32,0,0,0,.3-.326c0-.1-.113-.278-.349-.535Z" transform="translate(-1436.664 -751.955)" fill="#00223d"/>
              <path id="Trazado_25924" data-name="Trazado 25924" d="M1556.494,762.032v-8.8a.532.532,0,0,0-.1-.348.693.693,0,0,0-.357-.2v-.244h3.047v.244a.647.647,0,0,0-.352.2.559.559,0,0,0-.1.354v8.8a.549.549,0,0,0,.1.362.651.651,0,0,0,.348.2v.244h-3.047v-.244a.726.726,0,0,0,.357-.2A.576.576,0,0,0,1556.494,762.032Z" transform="translate(-1435.376 -751.955)" fill="#00223d"/>
              <path id="Trazado_25925" data-name="Trazado 25925" d="M1561.156,762.032v-8.79a.55.55,0,0,0-.1-.356.7.7,0,0,0-.357-.2v-.244h5.447a6.85,6.85,0,0,1,2.751.436,4.034,4.034,0,0,1,2.037,2.084,6.391,6.391,0,0,1,.522,2.671,5.234,5.234,0,0,1-1.554,4.094,3.824,3.824,0,0,1-1.527.849,8.1,8.1,0,0,1-2.229.256H1560.7v-.244a.73.73,0,0,0,.357-.2A.576.576,0,0,0,1561.156,762.032Zm2.141-.9h2.684a3.958,3.958,0,0,0,1.928-.375q1.377-.8,1.375-3.12a3.917,3.917,0,0,0-.744-2.571,2.272,2.272,0,0,0-1-.705,4.757,4.757,0,0,0-1.558-.208H1563.3Z" transform="translate(-1434.869 -751.955)" fill="#00223d"/>
              <path id="Trazado_25926" data-name="Trazado 25926" d="M1578.751,760.187h-4.45l-.644,1.458a1.3,1.3,0,0,0-.14.478c0,.227.161.379.479.466v.244h-3.229v-.244a.843.843,0,0,0,.439-.213,2.151,2.151,0,0,0,.344-.591l3.59-7.989a1.547,1.547,0,0,0,.174-.605.529.529,0,0,0-.418-.5v-.244h3.463v.244c-.278.086-.417.235-.417.448a1.167,1.167,0,0,0,.134.5l3.725,8.007a2.6,2.6,0,0,0,.414.7.856.856,0,0,0,.474.247v.244h-3.595v-.244c.314-.055.47-.213.47-.47a1.279,1.279,0,0,0-.143-.473Zm-.613-1.427-1.576-3.7-1.61,3.7Z" transform="translate(-1433.775 -751.955)" fill="#00223d"/>
              <path id="Trazado_25927" data-name="Trazado 25927" d="M1591.7,753.356l-1.162,2.449-.208-.122a.766.766,0,0,0,.008-.121c0-.175-.134-.361-.409-.558a4.9,4.9,0,0,0-2.993-.945,4.177,4.177,0,0,0-1.341.2,1.61,1.61,0,0,0-.679.457.99.99,0,0,0-.26.662.813.813,0,0,0,.661.8,10.569,10.569,0,0,0,1.476.226l1.126.122a8.706,8.706,0,0,1,1.619.309,3.767,3.767,0,0,1,1.1.557,2.585,2.585,0,0,1,.766.979,3.177,3.177,0,0,1-.378,3.25,3.564,3.564,0,0,1-1.876,1.145,7.032,7.032,0,0,1-2.024.283,8.128,8.128,0,0,1-3.829-1,1.92,1.92,0,0,0-.479-.2.6.6,0,0,0-.29.166l-.205-.113,1.058-2.554.2.109v.1a.882.882,0,0,0,.3.636,3.81,3.81,0,0,0,1.44.756,5.79,5.79,0,0,0,1.849.323,3.565,3.565,0,0,0,1.623-.339,1.592,1.592,0,0,0,.592-.5,1.113,1.113,0,0,0,.222-.652.75.75,0,0,0-.518-.732,6.506,6.506,0,0,0-1.476-.278l-1.1-.122a14.353,14.353,0,0,1-1.561-.235,3.884,3.884,0,0,1-.919-.353,2.473,2.473,0,0,1-1.018-1.031,2.944,2.944,0,0,1-.335-1.418,2.985,2.985,0,0,1,.844-2.184,4.49,4.49,0,0,1,3.342-1.136,7.224,7.224,0,0,1,1.75.205,12.216,12.216,0,0,1,2.019.748,2.09,2.09,0,0,0,.509.179.594.594,0,0,0,.353-.179Z" transform="translate(-1432.519 -751.972)" fill="#00223d"/>
            </g>
          </g>
        </g>
        <g id="Grupo_16609" data-name="Grupo 16609" transform="translate(0 151.994)">
          <path id="Trazado_25928" data-name="Trazado 25928" d="M853.128,2203.621c.726,0,1.452,0,2.179,0h170.115c.726,0,1.452,0,2.179,0q0,33.041.014,66.081c0,.545-.123.668-.668.668q-86.582-.022-173.164,0c-.545,0-.668-.123-.668-.668Q853.138,2236.662,853.128,2203.621ZM968.707,2239.3c0,4.772.008,9.545-.011,14.316,0,.541.095.806.7.735a11.973,11.973,0,0,1,1.379-.01c1.581,0,1.581,0,1.581-1.578,0-4.36.01-8.721-.013-13.081,0-.542.13-.726.682-.69a14.415,14.415,0,0,0,2.178,0c.705-.061.886.175.881.876-.033,4.554,0,9.109-.033,13.662,0,.686.2.873.854.825a18.98,18.98,0,0,1,2.252,0c.462.021.618-.105.617-.6q-.022-14.353-.015-28.706a4.653,4.653,0,0,0-.791-2.6,5.665,5.665,0,0,0-6.355-2.347,5.514,5.514,0,0,0-3.931,5.394C968.764,2230.091,968.707,2234.695,968.707,2239.3Zm-32.981-2.237c0,5.474.011,10.948-.015,16.422,0,.618.175.788.768.743a12.268,12.268,0,0,1,2.1,0c.7.068.822-.206.818-.842-.025-4.6,0-9.2-.031-13.806,0-.667.195-.818.813-.781.893.052,1.792.016,2.688.012,2.52-.01,3.915-1.4,3.918-3.906q.007-5.486,0-10.972c0-2.5-1.4-3.886-3.931-3.893-2.131-.006-4.263.022-6.394-.016-.606-.011-.757.157-.754.759C935.736,2226.208,935.726,2231.634,935.726,2237.06Zm-62.181.077c0-4.289.01-8.578-.013-12.866,0-.576.162-.758.734-.724a22.376,22.376,0,0,0,2.4,0c.489-.024.611.148.6.616-.028,1.429-.008,2.859-.012,4.289,0,.283-.017.52.4.51.969-.023,1.938-.009,2.907-.007.213,0,.39-.031.382-.3a25.619,25.619,0,0,0-.144-4.782,5.539,5.539,0,0,0-6.121-4.1,5.45,5.45,0,0,0-4.826,5.387c-.006,7.85.064,15.7-.039,23.551a5.8,5.8,0,0,0,5.308,5.74,5.411,5.411,0,0,0,5.819-5.248c.022-1.114-.009-2.229.013-3.343.008-.4-.1-.559-.522-.545-.871.029-1.745.033-2.616,0-.449-.018-.578.119-.568.568.03,1.332-.02,2.666.024,4,.02.609-.1.881-.779.817a13.69,13.69,0,0,0-2.178,0c-.6.04-.784-.146-.78-.761C873.557,2245.666,873.545,2241.4,873.545,2237.137Zm28.743-.076c0,4.458-.007,8.916,0,13.374a3.6,3.6,0,0,0,3.6,3.766c2.325.044,4.652,0,6.977.021.379,0,.51-.109.5-.491a18.659,18.659,0,0,1,.007-2.179c.057-.679-.12-.912-.852-.891-1.961.058-3.924.007-5.887.029-.46.005-.629-.107-.626-.6q.029-5.306,0-10.611c0-.517.161-.655.66-.644,1.429.03,2.859,0,4.288.02.454.008.651-.092.625-.6a23.476,23.476,0,0,1,0-2.4c.023-.468-.151-.565-.58-.558-1.429.024-2.859-.011-4.288.02-.507.011-.713-.074-.708-.656.03-3.513.024-7.026,0-10.539,0-.48.139-.607.609-.6,2.035.024,4.071-.015,6.1.026.6.012.741-.186.708-.737a19.832,19.832,0,0,1,0-2.179c.024-.483-.141-.611-.616-.606-2.18.024-4.361.006-6.541.012-2.594.007-3.978,1.4-3.979,4.011Q902.285,2230.556,902.288,2237.061Zm100.469-.005v2.835q0,6.8,0,13.592c0,.352-.1.718.5.714,3.368-.023,6.735-.015,10.1,0,.339,0,.468-.1.467-.45q-.014-4.87,0-9.739c0-.417-.18-.47-.524-.464-.848.017-1.7.037-2.543-.006-.524-.027-.643.158-.636.655.027,1.938,0,3.877.02,5.814.005.455-.093.65-.593.624a18.982,18.982,0,0,0-2.324,0c-.6.042-.765-.14-.763-.751.024-6.105.015-12.21.015-18.316,0-3.586-.013-7.172.013-10.757,0-.6-.089-.883-.776-.821a15.092,15.092,0,0,1-2.251,0c-.561-.033-.73.132-.727.716C1002.766,2226.153,1002.756,2231.6,1002.756,2237.056Z" transform="translate(-853.114 -2203.616)" fill="#314d7e"/>
          <path id="Trazado_25929" data-name="Trazado 25929" d="M1648.017,2334.771c0-4.6.057-9.206-.021-13.808a5.513,5.513,0,0,1,3.931-5.394,5.665,5.665,0,0,1,6.355,2.347,4.651,4.651,0,0,1,.79,2.6q.009,14.353.015,28.706c0,.492-.155.618-.617.6a19.03,19.03,0,0,0-2.251,0c-.652.048-.859-.139-.854-.825.032-4.554,0-9.108.033-13.662,0-.7-.176-.937-.882-.876a14.446,14.446,0,0,1-2.178,0c-.552-.036-.685.148-.682.69.023,4.36.013,8.72.013,13.081,0,1.578,0,1.578-1.581,1.578a11.92,11.92,0,0,0-1.38.01c-.608.071-.7-.194-.7-.735C1648.025,2344.316,1648.017,2339.544,1648.017,2334.771Zm3.652-9.718c0,1.766.018,3.532-.012,5.3-.008.489.147.613.611.594.87-.034,1.742-.025,2.612,0,.369.009.508-.095.507-.484q-.018-5.407,0-10.814c0-.387-.138-.5-.508-.486-.87.022-1.743.032-2.612,0-.47-.019-.618.116-.61.6C1651.686,2321.521,1651.669,2323.287,1651.669,2325.053Z" transform="translate(-1532.424 -2299.09)" fill="#fcfcfd"/>
          <path id="Trazado_25930" data-name="Trazado 25930" d="M1421.222,2333.5c0-5.426.01-10.851-.014-16.277,0-.6.148-.77.754-.759,2.131.038,4.263.01,6.394.016,2.526.007,3.929,1.4,3.931,3.893q0,5.486,0,10.972c0,2.508-1.4,3.9-3.918,3.906-.9,0-1.795.04-2.688-.013-.619-.036-.818.114-.813.781.033,4.6.006,9.2.031,13.806,0,.635-.12.91-.818.842a12.267,12.267,0,0,0-2.1,0c-.593.044-.771-.125-.768-.743C1421.232,2344.448,1421.222,2338.974,1421.222,2333.5Zm7.407-7.558c0-1.791-.012-3.583.009-5.374.005-.432-.1-.6-.56-.58-.87.037-1.743.032-2.614,0-.432-.015-.526.155-.525.549q.017,5.374,0,10.749c0,.378.113.5.494.494.871-.024,1.744-.037,2.614,0,.495.024.6-.157.592-.615C1428.615,2329.428,1428.629,2327.685,1428.629,2325.942Z" transform="translate(-1338.609 -2300.056)" fill="#fcfcfd"/>
          <path id="Trazado_25931" data-name="Trazado 25931" d="M971.683,2331.859c0,4.264.012,8.529-.014,12.793,0,.615.183.8.78.76a13.749,13.749,0,0,1,2.178,0c.682.064.8-.208.779-.817-.044-1.331.005-2.665-.024-4-.01-.45.118-.586.568-.568.871.034,1.745.031,2.616,0,.427-.014.53.148.522.545-.022,1.114.009,2.229-.013,3.343a5.41,5.41,0,0,1-5.819,5.248,5.8,5.8,0,0,1-5.308-5.74c.1-7.849.033-15.7.039-23.551a5.45,5.45,0,0,1,4.826-5.387,5.539,5.539,0,0,1,6.121,4.1,25.62,25.62,0,0,1,.144,4.783c.008.273-.168.3-.381.3-.969,0-1.939-.016-2.907.007-.415.01-.4-.227-.4-.51,0-1.429-.016-2.859.012-4.289.009-.468-.112-.64-.6-.616a22.312,22.312,0,0,1-2.4,0c-.572-.034-.737.148-.734.724C971.694,2323.282,971.683,2327.571,971.683,2331.859Z" transform="translate(-951.252 -2298.339)" fill="#fcfcfd"/>
          <path id="Trazado_25932" data-name="Trazado 25932" d="M1191.312,2333.528q0-6.505,0-13.01c0-2.608,1.385-4,3.979-4.011,2.18-.005,4.361.013,6.541-.012.474-.005.64.123.616.606a19.873,19.873,0,0,0,0,2.179c.033.552-.109.749-.708.737-2.034-.041-4.07,0-6.1-.026-.47-.006-.612.121-.609.6.02,3.513.026,7.026,0,10.539,0,.583.2.668.708.657,1.429-.031,2.859,0,4.288-.02.43-.007.6.089.58.558a23.471,23.471,0,0,0,0,2.4c.027.5-.17.6-.625.6-1.429-.024-2.859.01-4.288-.02-.5-.01-.663.127-.66.644q.031,5.306,0,10.612c0,.493.167.6.626.6,1.962-.022,3.926.029,5.887-.029.732-.022.909.211.852.891a18.672,18.672,0,0,0-.007,2.179c.013.382-.118.494-.5.491-2.326-.016-4.652.023-6.977-.021a3.6,3.6,0,0,1-3.6-3.766C1191.305,2342.444,1191.312,2337.986,1191.312,2333.528Z" transform="translate(-1142.138 -2300.083)" fill="#fcfcfd"/>
          <path id="Trazado_25933" data-name="Trazado 25933" d="M1882.252,2333.2c0-5.451.01-10.9-.014-16.353,0-.584.167-.749.727-.716a15.094,15.094,0,0,0,2.251,0c.687-.063.781.22.776.821-.026,3.585-.013,7.171-.013,10.757,0,6.105.009,12.211-.015,18.316,0,.611.16.793.763.751a18.984,18.984,0,0,1,2.325,0c.5.027.6-.169.593-.624-.022-1.938.007-3.876-.02-5.814-.007-.5.112-.681.636-.655.846.043,1.7.023,2.543.006.344-.007.526.047.524.464q-.023,4.869,0,9.739c0,.353-.127.451-.467.45-3.368-.01-6.735-.018-10.1,0-.607,0-.5-.362-.5-.714q0-6.8,0-13.592Z" transform="translate(-1732.61 -2299.762)" fill="#fcfcfd"/>
          <path id="Trazado_25934" data-name="Trazado 25934" d="M1673.193,2347.51c0-1.766.017-3.532-.011-5.3-.008-.483.14-.619.61-.6.869.035,1.742.025,2.612,0,.37-.01.509.1.508.486q-.017,5.407,0,10.814c0,.389-.138.493-.507.484-.871-.022-1.743-.031-2.612,0-.464.019-.62-.106-.611-.594C1673.211,2351.043,1673.193,2349.276,1673.193,2347.51Z" transform="translate(-1553.948 -2321.547)" fill="#314d7e"/>
          <path id="Trazado_25935" data-name="Trazado 25935" d="M1450.566,2346.652c0,1.743-.014,3.486.01,5.229.006.457-.1.638-.592.615-.87-.041-1.743-.028-2.614,0-.382.01-.5-.116-.495-.495q.018-5.374,0-10.749c0-.394.093-.564.525-.549.87.031,1.744.036,2.614,0,.465-.02.565.148.56.58C1450.554,2343.069,1450.566,2344.861,1450.566,2346.652Z" transform="translate(-1360.547 -2320.766)" fill="#314d7e"/>
        </g>
      </g>
      <g id="Grupo_16612" data-name="Grupo 16612" transform="translate(252.203 1156.449)">
        <path id="Trazado_25936" data-name="Trazado 25936" d="M2262.1,1487.964c0-5.365.01-10.729-.014-16.094,0-.6.146-.761.746-.751,2.106.038,4.215.01,6.323.016,2.5.007,3.885,1.381,3.887,3.85q0,5.425,0,10.849c0,2.48-1.383,3.852-3.875,3.862-.886,0-1.774.039-2.657-.012-.612-.036-.809.113-.8.773.033,4.55.006,9.1.031,13.651,0,.628-.119.9-.809.832a12.16,12.16,0,0,0-2.082,0c-.587.044-.763-.124-.76-.735C2262.111,1498.79,2262.1,1493.377,2262.1,1487.964Zm7.325-7.473c0-1.771-.012-3.543.009-5.314,0-.427-.094-.593-.554-.573-.86.037-1.724.032-2.584,0-.428-.015-.521.153-.519.542q.016,5.314,0,10.628c0,.374.112.5.489.489.861-.024,1.724-.036,2.584,0,.49.023.592-.156.586-.608C2269.411,1483.938,2269.425,1482.215,2269.425,1480.491Z" transform="translate(-2203.498 -1471.119)" fill="#314d7e"/>
        <path id="Trazado_25937" data-name="Trazado 25937" d="M2405.779,1487.961q0-6.432,0-12.865c0-2.578,1.369-3.959,3.935-3.966,2.156-.005,4.312.012,6.468-.012.469-.005.633.122.608.6a19.768,19.768,0,0,0,0,2.155c.032.545-.108.741-.7.729-2.012-.04-4.025,0-6.037-.026-.465-.005-.6.12-.6.595.02,3.474.026,6.947,0,10.421-.005.576.2.66.7.649,1.413-.031,2.827,0,4.24-.02.425-.007.6.088.573.552a23.052,23.052,0,0,0,0,2.37c.026.5-.168.6-.618.589-1.413-.024-2.827.011-4.24-.019-.494-.01-.655.126-.653.637q.031,5.246,0,10.493c0,.487.165.6.62.593,1.94-.022,3.882.028,5.82-.029.724-.021.9.209.842.881a18.549,18.549,0,0,0-.007,2.155c.013.378-.117.489-.491.486-2.3-.016-4.6.023-6.9-.02a3.562,3.562,0,0,1-3.556-3.724C2405.772,1496.777,2405.779,1492.369,2405.779,1487.961Z" transform="translate(-2313.376 -1471.119)" fill="#314d7e"/>
        <path id="Trazado_25938" data-name="Trazado 25938" d="M2122.507,1488.01c0-5.39.01-10.78-.014-16.17,0-.577.165-.74.719-.708a14.949,14.949,0,0,0,2.226,0c.679-.062.772.218.768.812-.026,3.545-.013,7.091-.013,10.636,0,6.037.01,12.074-.014,18.111,0,.6.159.784.755.743a18.787,18.787,0,0,1,2.3,0c.5.026.592-.167.587-.617-.022-1.916.007-3.833-.02-5.749-.007-.491.111-.674.629-.648.836.043,1.677.023,2.514.006.34-.007.52.046.518.458q-.022,4.815,0,9.63c0,.349-.126.446-.461.445-3.33-.009-6.659-.017-9.989.005-.6,0-.5-.357-.5-.706q0-6.72,0-13.439Z" transform="translate(-2096.755 -1471.119)" fill="#314d7e"/>
        <path id="Trazado_25939" data-name="Trazado 25939" d="M2554.12,1495.873a57.437,57.437,0,0,1-.373,5.994,4.4,4.4,0,0,1-3.744,3.749,4.633,4.633,0,0,1-4.958-1.935,7.257,7.257,0,0,1-.894-5.79c.156-.87,1.1-.861,1.877-.824a1.3,1.3,0,0,1,1.355,1.438,20.938,20.938,0,0,0,.074,2.256c.242,1.73,2.128,1.672,2.451,1.032,1.452-2.881.494-6.095.65-9.172.117-2.314-1.806-1.54-3-1.689-2.427-.3-3.537-1.691-3.554-4.042-.021-3.013-.051-6.027.022-9.038a5.044,5.044,0,0,1,3.41-4.937,4.443,4.443,0,0,1,5.122,1.322c1.635,1.708,1.583,3.873,1.381,6.03-.092.978-.837,1.131-1.637,1.126s-1.548-.123-1.63-1.12c-.072-.874-.053-1.755-.1-2.632-.057-1.179-.834-1.375-1.82-1.351s-1.311.62-1.317,1.452c-.02,2.762-.014,5.523,0,8.285.005.86.4,1.492,1.34,1.417,5.379-.43,5.414,3.157,5.243,6.918-.023.5,0,1,0,1.506Z" transform="translate(-2419.027 -1472.235)" fill="#314d7e"/>
        <path id="Trazado_25940" data-name="Trazado 25940" d="M2016.437,1490.48q0,6.937,0,13.875c0,1.13.1,2.314-1.616,2.339s-1.69-1.14-1.691-2.278q-.018-14.062-.006-28.125c0-1.24.2-2.262,1.82-2.149,1.7.118,1.489,1.37,1.492,2.463C2016.447,1481.23,2016.438,1485.855,2016.437,1490.48Z" transform="translate(-2013.118 -1473.424)" fill="#314d7e"/>
      </g>
    </g>
  </g>
</svg>
