<svg xmlns="http://www.w3.org/2000/svg" width="113" height="113" viewBox="0 0 113 113">
  <g id="Grupo_17799" data-name="Grupo 17799" transform="translate(-2319 4632)">
    <g id="Grupo_17797" data-name="Grupo 17797" transform="translate(-21 -68.833)">
      <path id="Trazado_28316" data-name="Trazado 28316" d="M2301.072,103.221l3.843,8.965-3.843,5.123,3.843,5.122-3.843,8.966,25.614-14.088Z" transform="translate(58.209 -4601.001)" fill="#e34e4b"/>
      <path id="Trazado_28317" data-name="Trazado 28317" d="M2304.915,124.473l21.771-5.122-21.771-5.123-3.843,5.123Z" transform="translate(58.209 -4603.043)" fill="#de4542"/>
      <circle id="Elipse_1089" data-name="Elipse 1089" cx="19.211" cy="19.211" r="19.211" transform="translate(2395.141 -4543.886)" fill="#50b6cf"/>
      <path id="Trazado_28318" data-name="Trazado 28318" d="M2379.647,55.327a19.2,19.2,0,0,1-32.223,20.384,19.2,19.2,0,1,0,32.223-20.384Z" transform="translate(49.609 -4592.116)" fill="#3cadc9"/>
      <circle id="Elipse_1090" data-name="Elipse 1090" cx="12.807" cy="12.807" r="12.807" transform="translate(2401.544 -4537.483)" fill="#ded8d0"/>
      <circle id="Elipse_1091" data-name="Elipse 1091" cx="6.404" cy="6.404" r="6.404" transform="translate(2407.948 -4531.079)" fill="#f5a947"/>
      <g id="Grupo_17774" data-name="Grupo 17774" transform="translate(2358 -4545.167)">
        <path id="Trazado_28319" data-name="Trazado 28319" d="M2299.757,117.785l3.4,4.531L2299.6,130.6a1.28,1.28,0,0,0,1.794,1.626l25.614-14.088a1.279,1.279,0,0,0,0-2.244L2301.4,101.807a1.281,1.281,0,0,0-1.794,1.626l3.551,8.284-3.4,4.531a1.279,1.279,0,0,0,0,1.537Zm5.788,5.454,12.023-2.829-14.145,7.779Zm12.023-9.615-12.023-2.829-2.122-4.95Zm-12.424-.292,15.657,3.685-15.657,3.684-2.763-3.684Z" transform="translate(-2299.5 -55.543)" fill="#00223d"/>
        <path id="Trazado_28320" data-name="Trazado 28320" d="M2358.185,45.04a20.5,20.5,0,0,0-20.427,19.211h-3.377l-3.466-3.467L2329.1,62.6l1.656,1.656h-5.233a13.447,13.447,0,1,0,0,26.895h14.2l3.467,3.467L2345,92.8l-1.656-1.656h24.444a7.044,7.044,0,1,1,0,14.088h-11.636l-3.467-3.466-1.811,1.811,1.656,1.656h-19.961v2.562h19.961l-1.656,1.656,1.811,1.811,3.467-3.467h11.636a9.605,9.605,0,1,0,0-19.211h-24.444L2345,86.928l-1.811-1.811-3.467,3.466h-14.2a10.886,10.886,0,1,1,0-21.772h5.233l-1.656,1.656,1.812,1.811,3.466-3.466h3.377a20.48,20.48,0,1,0,20.427-21.772Zm0,38.421a17.94,17.94,0,0,1-17.865-16.649h3.843a14.088,14.088,0,1,0,0-2.562h-3.843a17.921,17.921,0,1,1,17.865,19.21Zm-2.937-13.182,3.843-3.842a1.281,1.281,0,0,0,0-1.811l-3.843-3.842-1.811,1.811,1.656,1.656h-8.359a11.526,11.526,0,1,1,0,2.562h8.359l-1.656,1.656Z" transform="translate(-2301.834 -45.04)" fill="#00223d"/>
        <path id="Trazado_28321" data-name="Trazado 28321" d="M2376.373,68.449a7.694,7.694,0,0,0-7.685-7.685v2.562a5.123,5.123,0,1,1,0,10.246v2.562A7.693,7.693,0,0,0,2376.373,68.449Z" transform="translate(-2312.336 -47.957)" fill="#00223d"/>
      </g>
    </g>
    <rect id="Rectángulo_4424" data-name="Rectángulo 4424" width="113" height="113" transform="translate(2319 -4632)" fill="none"/>
  </g>
</svg>
