<svg xmlns="http://www.w3.org/2000/svg" width="113" height="113" viewBox="0 0 113 113">
  <g id="Grupo_17773" data-name="Grupo 17773" transform="translate(-192 -5581)">
    <g id="Grupo_17345" data-name="Grupo 17345" transform="translate(-186 -1410)">
      <g id="Grupo_17343" data-name="Grupo 17343" transform="translate(0 560)">
        <g id="Grupo_17342" data-name="Grupo 17342">
          <g id="Grupo_17335" data-name="Grupo 17335" transform="translate(0 1019)">
            <rect id="Rectángulo_4354" data-name="Rectángulo 4354" width="113" height="113" transform="translate(378 5412)" fill="none"/>
          </g>
        </g>
      </g>
    </g>
    <g id="Grupo_17772" data-name="Grupo 17772" transform="translate(-1894.429 5418.326)">
      <g id="Grupo_17708" data-name="Grupo 17708" transform="translate(2173.425 229.179)">
        <path id="Trazado_28247" data-name="Trazado 28247" d="M2196.932,257.136v-15.2h-5.527v15.2" transform="translate(-2191.405 -241.937)" fill="#c18e59"/>
      </g>
      <g id="Grupo_17709" data-name="Grupo 17709" transform="translate(2115.394 227.798)">
        <path id="Trazado_28248" data-name="Trazado 28248" d="M2174.541,270.617V250.471a7.472,7.472,0,0,0-5.851-6.974l-12.11-3.278h-19.344l-12.111,3.279a7.469,7.469,0,0,0-5.851,6.972v20.146" transform="translate(-2119.273 -240.22)" fill="#f9d18b"/>
      </g>
      <g id="Grupo_17710" data-name="Grupo 17710" transform="translate(2112.63 252.669)">
        <path id="Trazado_28249" data-name="Trazado 28249" d="M2115.838,271.134h12.436v5.526h-12.436Z" transform="translate(-2115.838 -271.134)" fill="#f5b953"/>
      </g>
      <g id="Grupo_17711" data-name="Grupo 17711" transform="translate(2112.63 238.851)">
        <path id="Trazado_28250" data-name="Trazado 28250" d="M2117.219,274.685h1.382a2.762,2.762,0,0,0,2.763-2.763V253.959H2118.6a2.763,2.763,0,0,0-2.764,2.764v17.962" transform="translate(-2115.838 -253.959)" fill="#db9b7c"/>
      </g>
      <g id="Grupo_17712" data-name="Grupo 17712" transform="translate(2101.576 244.378)">
        <path id="Trazado_28251" data-name="Trazado 28251" d="M2113.152,264.974a1.382,1.382,0,0,0,1.382-1.381V262.21a1.382,1.382,0,0,0-1.382-1.381h-8.291a2.763,2.763,0,0,0-2.763,2.764v11.053a2.763,2.763,0,0,0,2.763,2.763h8.291a1.382,1.382,0,0,0,1.382-1.381v-1.382a1.382,1.382,0,0,0-1.382-1.381,1.382,1.382,0,0,0,1.382-1.381V270.5a1.382,1.382,0,0,0-1.382-1.381,1.383,1.383,0,0,0,1.382-1.382v-1.381A1.383,1.383,0,0,0,2113.152,264.974Z" transform="translate(-2102.098 -260.829)" fill="#efbe9a"/>
      </g>
      <g id="Grupo_17713" data-name="Grupo 17713" transform="translate(2160.99 252.669)">
        <path id="Trazado_28252" data-name="Trazado 28252" d="M2175.948,271.134h9.672v5.526h-9.672Z" transform="translate(-2175.948 -271.134)" fill="#f5b953"/>
      </g>
      <g id="Grupo_17714" data-name="Grupo 17714" transform="translate(2167.898 238.851)">
        <path id="Trazado_28253" data-name="Trazado 28253" d="M2188.68,274.685H2187.3a2.763,2.763,0,0,1-2.763-2.763V253.959h2.763a2.763,2.763,0,0,1,2.764,2.764v17.962" transform="translate(-2184.535 -253.959)" fill="#db9b7c"/>
      </g>
      <g id="Grupo_17715" data-name="Grupo 17715" transform="translate(2172.044 244.378)">
        <path id="Trazado_28254" data-name="Trazado 28254" d="M2191.069,264.974a1.382,1.382,0,0,1-1.381-1.381V262.21a1.382,1.382,0,0,1,1.381-1.381h8.291a2.763,2.763,0,0,1,2.763,2.764v11.053a2.763,2.763,0,0,1-2.763,2.763h-8.291a1.382,1.382,0,0,1-1.381-1.381v-1.382a1.382,1.382,0,0,1,1.381-1.381,1.382,1.382,0,0,1-1.381-1.381V270.5a1.382,1.382,0,0,1,1.381-1.381,1.382,1.382,0,0,1-1.381-1.382v-1.381A1.382,1.382,0,0,1,2191.069,264.974Z" transform="translate(-2189.688 -260.829)" fill="#efbe9a"/>
      </g>
      <g id="Grupo_17716" data-name="Grupo 17716" transform="translate(2130.592 229.179)">
        <path id="Trazado_28255" data-name="Trazado 28255" d="M2163.035,241.937l-6.908,12.435-5.527-5.527-5.526,5.527-6.909-12.435" transform="translate(-2138.164 -241.937)" fill="#f5b953"/>
      </g>
      <g id="Grupo_17717" data-name="Grupo 17717" transform="translate(2136.119 229.179)">
        <path id="Trazado_28256" data-name="Trazado 28256" d="M2145.034,241.937l6.908,6.908,6.909-6.908" transform="translate(-2145.034 -241.937)" fill="#efbe9a"/>
      </g>
      <g id="Grupo_17718" data-name="Grupo 17718" transform="translate(2125.066 228.647)">
        <path id="Trazado_28257" data-name="Trazado 28257" d="M2167.219,242.977l-5.527-1.7v21.258h-24.871V241.276l-5.526,1.7v30.61h35.924Z" transform="translate(-2131.295 -241.276)" fill="#3d98f7"/>
      </g>
      <g id="Grupo_17719" data-name="Grupo 17719" transform="translate(2155.463 238.851)">
        <path id="Trazado_28258" data-name="Trazado 28258" d="M2169.078,253.959h5.527v5.527h-5.527Z" transform="translate(-2169.078 -253.959)" fill="#8bd2f5"/>
      </g>
      <g id="Grupo_17720" data-name="Grupo 17720" transform="translate(2125.066 238.851)">
        <path id="Trazado_28259" data-name="Trazado 28259" d="M2131.295,253.959h5.526v5.527h-5.526Z" transform="translate(-2131.295 -253.959)" fill="#8bd2f5"/>
      </g>
      <g id="Grupo_17721" data-name="Grupo 17721" transform="translate(2122.302 178.056)">
        <path id="Trazado_28260" data-name="Trazado 28260" d="M2169.311,192.209v-5.527a8.29,8.29,0,0,0-8.291-8.29H2136.15a8.289,8.289,0,0,0-8.29,8.29v5.527" transform="translate(-2127.86 -178.392)" fill="#f9d18b"/>
      </g>
      <g id="Grupo_17722" data-name="Grupo 17722" transform="translate(2115.394 191.873)">
        <path id="Trazado_28261" data-name="Trazado 28261" d="M2171.777,195.566h-49.741a2.762,2.762,0,0,0-2.763,2.764v2.764h55.268V198.33A2.763,2.763,0,0,0,2171.777,195.566Z" transform="translate(-2119.273 -195.566)" fill="#f5b953"/>
      </g>
      <g id="Grupo_17723" data-name="Grupo 17723" transform="translate(2122.302 197.4)">
        <path id="Trazado_28262" data-name="Trazado 28262" d="M2130.624,209.344h-2.763v-6.908h8.29v1.381A5.527,5.527,0,0,1,2130.624,209.344Z" transform="translate(-2127.86 -202.436)" fill="#976947"/>
      </g>
      <g id="Grupo_17724" data-name="Grupo 17724" transform="translate(2155.463 197.4)">
        <path id="Trazado_28263" data-name="Trazado 28263" d="M2174.6,209.344h2.764v-6.908h-8.291v1.381A5.527,5.527,0,0,0,2174.6,209.344Z" transform="translate(-2169.078 -202.436)" fill="#976947"/>
      </g>
      <g id="Grupo_17725" data-name="Grupo 17725" transform="translate(2119.539 204.308)">
        <path id="Trazado_28264" data-name="Trazado 28264" d="M2129.952,211.023a5.527,5.527,0,0,0,0,11.054" transform="translate(-2124.425 -211.023)" fill="#db9b7c"/>
      </g>
      <g id="Grupo_17726" data-name="Grupo 17726" transform="translate(2160.99 204.308)">
        <path id="Trazado_28265" data-name="Trazado 28265" d="M2175.948,211.023a5.527,5.527,0,1,1,0,11.054" transform="translate(-2175.948 -211.023)" fill="#db9b7c"/>
      </g>
      <g id="Grupo_17727" data-name="Grupo 17727" transform="translate(2125.066 197.4)">
        <path id="Trazado_28266" data-name="Trazado 28266" d="M2161.692,202.436v1.381a5.527,5.527,0,0,0,5.527,5.527v8.291a17.962,17.962,0,1,1-35.924,0v-8.291a5.527,5.527,0,0,0,5.526-5.527v-1.381" transform="translate(-2131.295 -202.436)" fill="#efbe9a"/>
      </g>
      <g id="Grupo_17728" data-name="Grupo 17728" transform="translate(2145.791 201.545)">
        <circle id="Elipse_1087" data-name="Elipse 1087" cx="5.527" cy="5.527" r="5.527" fill="#ebf7fe"/>
      </g>
      <g id="Grupo_17729" data-name="Grupo 17729" transform="translate(2129.211 201.545)">
        <circle id="Elipse_1088" data-name="Elipse 1088" cx="5.527" cy="5.527" r="5.527" fill="#ebf7fe"/>
      </g>
      <g id="Grupo_17730" data-name="Grupo 17730" transform="translate(2123.684 197.4)">
        <path id="Trazado_28267" data-name="Trazado 28267" d="M2148.921,236.979a19.366,19.366,0,0,1-19.344-19.344v-8.291a1.382,1.382,0,0,1,1.382-1.381,4.15,4.15,0,0,0,4.145-4.146v-1.381h2.763v1.381a6.919,6.919,0,0,1-5.527,6.769v7.048a16.581,16.581,0,0,0,33.162,0v-7.048a6.921,6.921,0,0,1-5.527-6.769v-1.381h2.763v1.381a4.15,4.15,0,0,0,4.145,4.146,1.382,1.382,0,0,1,1.382,1.381v8.291A19.366,19.366,0,0,1,2148.921,236.979Z" transform="translate(-2129.577 -202.436)" fill="#00223d"/>
      </g>
      <g id="Grupo_17731" data-name="Grupo 17731" transform="translate(2162.372 197.4)">
        <path id="Trazado_28268" data-name="Trazado 28268" d="M2177.666,202.436h2.763v8.291h-2.763Z" transform="translate(-2177.666 -202.436)" fill="#00223d"/>
      </g>
      <g id="Grupo_17732" data-name="Grupo 17732" transform="translate(2120.92 197.4)">
        <path id="Trazado_28269" data-name="Trazado 28269" d="M2126.142,202.436h2.763v8.291h-2.763Z" transform="translate(-2126.142 -202.436)" fill="#00223d"/>
      </g>
      <g id="Grupo_17733" data-name="Grupo 17733" transform="translate(2118.156 202.927)">
        <path id="Trazado_28270" data-name="Trazado 28270" d="M2129.616,223.123a6.908,6.908,0,1,1,0-13.817v2.764a4.145,4.145,0,1,0,0,8.29Z" transform="translate(-2122.707 -209.306)" fill="#00223d"/>
      </g>
      <g id="Grupo_17734" data-name="Grupo 17734" transform="translate(2160.99 202.927)">
        <path id="Trazado_28271" data-name="Trazado 28271" d="M2175.948,223.123v-2.764a4.145,4.145,0,1,0,0-8.29v-2.764a6.908,6.908,0,1,1,0,13.817Z" transform="translate(-2175.948 -209.306)" fill="#00223d"/>
      </g>
      <g id="Grupo_17735" data-name="Grupo 17735" transform="translate(2144.41 200.163)">
        <path id="Trazado_28272" data-name="Trazado 28272" d="M2162.248,219.688a6.908,6.908,0,1,1,6.908-6.908A6.916,6.916,0,0,1,2162.248,219.688Zm0-11.053a4.145,4.145,0,1,0,4.145,4.145A4.15,4.15,0,0,0,2162.248,208.635Z" transform="translate(-2155.339 -205.871)" fill="#00223d"/>
      </g>
      <g id="Grupo_17736" data-name="Grupo 17736" transform="translate(2127.829 200.163)">
        <path id="Trazado_28273" data-name="Trazado 28273" d="M2141.638,219.688a6.908,6.908,0,1,1,6.909-6.908A6.916,6.916,0,0,1,2141.638,219.688Zm0-11.053a4.145,4.145,0,1,0,4.145,4.145A4.15,4.15,0,0,0,2141.638,208.635Z" transform="translate(-2134.73 -205.871)" fill="#00223d"/>
      </g>
      <g id="Grupo_17737" data-name="Grupo 17737" transform="translate(2140.265 205.69)">
        <path id="Trazado_28274" data-name="Trazado 28274" d="M2150.187,212.741h5.526V215.5h-5.526Z" transform="translate(-2150.187 -212.741)" fill="#00223d"/>
      </g>
      <g id="Grupo_17738" data-name="Grupo 17738" transform="translate(2114.011 190.492)">
        <path id="Trazado_28275" data-name="Trazado 28275" d="M2174.2,202.139h-55.268a1.382,1.382,0,0,1-1.382-1.381v-2.764a4.15,4.15,0,0,1,4.145-4.145h49.741a4.15,4.15,0,0,1,4.146,4.145v2.764A1.382,1.382,0,0,1,2174.2,202.139Zm-53.886-2.764h52.5v-1.381a1.384,1.384,0,0,0-1.382-1.381H2121.7a1.384,1.384,0,0,0-1.381,1.381Z" transform="translate(-2117.555 -193.849)" fill="#00223d"/>
      </g>
      <g id="Grupo_17739" data-name="Grupo 17739" transform="translate(2120.92 176.674)">
        <path id="Trazado_28276" data-name="Trazado 28276" d="M2170.357,191.873h-2.763v-5.527a6.917,6.917,0,0,0-6.909-6.908h-24.871a6.916,6.916,0,0,0-6.908,6.908v5.527h-2.763v-5.527a9.683,9.683,0,0,1,9.672-9.672h24.871a9.683,9.683,0,0,1,9.673,9.672Z" transform="translate(-2126.142 -176.674)" fill="#00223d"/>
      </g>
      <g id="Grupo_17740" data-name="Grupo 17740" transform="translate(2129.385 228.507)">
        <path id="Trazado_28277" data-name="Trazado 28277" d="M2155.833,255.591a1.382,1.382,0,0,1-.977-.405l-4.55-4.55-4.55,4.55a1.381,1.381,0,0,1-2.184-.307l-6.909-12.435,2.415-1.342,6.02,10.834,4.23-4.231a1.382,1.382,0,0,1,1.954,0l4.231,4.231,6.019-10.834,2.415,1.342-6.908,12.435a1.379,1.379,0,0,1-1.015.7A1.246,1.246,0,0,1,2155.833,255.591Z" transform="translate(-2136.663 -241.102)" fill="#00223d"/>
      </g>
      <g id="Grupo_17741" data-name="Grupo 17741" transform="translate(2135.142 228.202)">
        <path id="Trazado_28278" data-name="Trazado 28278" d="M2151.705,249.99a1.381,1.381,0,0,1-.977-.4l-6.908-6.909,1.954-1.953,5.931,5.932,5.932-5.932,1.954,1.953-6.908,6.909A1.382,1.382,0,0,1,2151.705,249.99Z" transform="translate(-2143.82 -240.723)" fill="#00223d"/>
      </g>
      <g id="Grupo_17742" data-name="Grupo 17742" transform="translate(2129.211 229.179)">
        <path id="Trazado_28279" data-name="Trazado 28279" d="M2162.7,264.044h-24.871a1.381,1.381,0,0,1-1.382-1.381V241.937h2.763v19.344h22.107V241.937h2.763v20.726A1.382,1.382,0,0,1,2162.7,264.044Z" transform="translate(-2136.447 -241.937)" fill="#00223d"/>
      </g>
      <g id="Grupo_17743" data-name="Grupo 17743" transform="translate(2155.463 242.997)">
        <path id="Trazado_28280" data-name="Trazado 28280" d="M2169.078,259.112h5.527v2.763h-5.527Z" transform="translate(-2169.078 -259.112)" fill="#00223d"/>
      </g>
      <g id="Grupo_17744" data-name="Grupo 17744" transform="translate(2155.463 237.47)">
        <path id="Trazado_28281" data-name="Trazado 28281" d="M2169.078,252.242h5.527v2.764h-5.527Z" transform="translate(-2169.078 -252.242)" fill="#00223d"/>
      </g>
      <g id="Grupo_17745" data-name="Grupo 17745" transform="translate(2125.066 242.997)">
        <path id="Trazado_28282" data-name="Trazado 28282" d="M2131.295,259.112h5.526v2.763h-5.526Z" transform="translate(-2131.295 -259.112)" fill="#00223d"/>
      </g>
      <g id="Grupo_17746" data-name="Grupo 17746" transform="translate(2125.066 237.47)">
        <path id="Trazado_28283" data-name="Trazado 28283" d="M2131.295,252.242h5.526v2.764h-5.526Z" transform="translate(-2131.295 -252.242)" fill="#00223d"/>
      </g>
      <g id="Grupo_17747" data-name="Grupo 17747" transform="translate(2114.037 226.477)">
        <path id="Trazado_28284" data-name="Trazado 28284" d="M2120.342,251.05l-2.756-.2a9.734,9.734,0,0,1,6.8-8.55l12.11-3.725.813,2.642-12.11,3.725a6.951,6.951,0,0,0-4.858,6.105Z" transform="translate(-2117.586 -238.578)" fill="#00223d"/>
      </g>
      <g id="Grupo_17748" data-name="Grupo 17748" transform="translate(2123.684 230.561)">
        <path id="Trazado_28285" data-name="Trazado 28285" d="M2166.883,275.434h-35.924a1.382,1.382,0,0,1-1.382-1.382v-30.4h2.763v29.016H2165.5V243.655h2.763v30.4A1.382,1.382,0,0,1,2166.883,275.434Z" transform="translate(-2129.577 -243.655)" fill="#00223d"/>
      </g>
      <g id="Grupo_17749" data-name="Grupo 17749" transform="translate(2118.156 256.813)">
        <path id="Trazado_28286" data-name="Trazado 28286" d="M2122.707,276.286h6.909v2.763h-6.909Z" transform="translate(-2122.707 -276.286)" fill="#00223d"/>
      </g>
      <g id="Grupo_17750" data-name="Grupo 17750" transform="translate(2118.156 251.286)">
        <path id="Trazado_28287" data-name="Trazado 28287" d="M2122.707,269.416h6.909v2.764h-6.909Z" transform="translate(-2122.707 -269.416)" fill="#00223d"/>
      </g>
      <g id="Grupo_17751" data-name="Grupo 17751" transform="translate(2160.99 256.813)">
        <path id="Trazado_28288" data-name="Trazado 28288" d="M2175.948,276.286h6.908v2.763h-6.908Z" transform="translate(-2175.948 -276.286)" fill="#00223d"/>
      </g>
      <g id="Grupo_17752" data-name="Grupo 17752" transform="translate(2160.99 251.286)">
        <path id="Trazado_28289" data-name="Trazado 28289" d="M2175.948,269.416h6.908v2.764h-6.908Z" transform="translate(-2175.948 -269.416)" fill="#00223d"/>
      </g>
      <g id="Grupo_17753" data-name="Grupo 17753" transform="translate(2129.211 254.05)">
        <path id="Trazado_28290" data-name="Trazado 28290" d="M2136.447,272.851h27.634v2.764h-27.634Z" transform="translate(-2136.447 -272.851)" fill="#00223d"/>
      </g>
      <g id="Grupo_17754" data-name="Grupo 17754" transform="translate(2152.294 226.477)">
        <path id="Trazado_28291" data-name="Trazado 28291" d="M2182.108,251.05a6.95,6.95,0,0,0-4.86-6.105l-12.109-3.725.812-2.642,12.111,3.725a9.734,9.734,0,0,1,6.8,8.55Z" transform="translate(-2165.139 -238.578)" fill="#00223d"/>
      </g>
      <g id="Grupo_17755" data-name="Grupo 17755" transform="translate(2170.662 242.997)">
        <path id="Trazado_28292" data-name="Trazado 28292" d="M2199.024,278.456h-8.291a2.767,2.767,0,0,1-2.763-2.764V274.31a2.766,2.766,0,0,1,2.763-2.763h1.382v2.763h-1.382v1.382h8.291a1.383,1.383,0,0,0,1.381-1.382V263.257a1.383,1.383,0,0,0-1.381-1.382h-8.291v1.382h5.527v2.763h-5.527a2.767,2.767,0,0,1-2.763-2.763v-1.382a2.766,2.766,0,0,1,2.763-2.763h8.291a4.15,4.15,0,0,1,4.145,4.145V274.31A4.15,4.15,0,0,1,2199.024,278.456Z" transform="translate(-2187.97 -259.112)" fill="#00223d"/>
      </g>
      <g id="Grupo_17756" data-name="Grupo 17756" transform="translate(2170.662 247.142)">
        <path id="Trazado_28293" data-name="Trazado 28293" d="M2196.26,271.172h-5.527a2.766,2.766,0,0,1-2.763-2.763v-1.381a2.766,2.766,0,0,1,2.763-2.764h1.382v2.764h-1.382v1.381h5.527Z" transform="translate(-2187.97 -264.264)" fill="#00223d"/>
      </g>
      <g id="Grupo_17757" data-name="Grupo 17757" transform="translate(2170.662 251.286)">
        <path id="Trazado_28294" data-name="Trazado 28294" d="M2196.26,276.324h-5.527a2.766,2.766,0,0,1-2.763-2.763V272.18a2.767,2.767,0,0,1,2.763-2.764h1.382v2.764h-1.382v1.382h5.527Z" transform="translate(-2187.97 -269.416)" fill="#00223d"/>
      </g>
      <g id="Grupo_17758" data-name="Grupo 17758" transform="translate(2166.517 237.47)">
        <path id="Trazado_28295" data-name="Trazado 28295" d="M2188.345,275.731h-1.382a4.15,4.15,0,0,1-4.145-4.145V253.623a1.38,1.38,0,0,1,1.381-1.381h2.763a4.15,4.15,0,0,1,4.146,4.145v2.764h-2.763v-2.764a1.383,1.383,0,0,0-1.382-1.381h-1.381v16.58a1.383,1.383,0,0,0,1.381,1.381h1.382Z" transform="translate(-2182.818 -252.242)" fill="#00223d"/>
      </g>
      <g id="Grupo_17759" data-name="Grupo 17759" transform="translate(2100.195 242.997)">
        <path id="Trazado_28296" data-name="Trazado 28296" d="M2112.816,278.456h-8.291a4.15,4.15,0,0,1-4.145-4.146V263.257a4.149,4.149,0,0,1,4.145-4.145h8.291a2.766,2.766,0,0,1,2.764,2.763v1.382a2.767,2.767,0,0,1-2.764,2.763h-5.527v-2.763h5.527v-1.382h-8.291a1.383,1.383,0,0,0-1.381,1.382V274.31a1.383,1.383,0,0,0,1.381,1.382h8.291V274.31h-1.382v-2.763h1.382a2.766,2.766,0,0,1,2.764,2.763v1.382A2.767,2.767,0,0,1,2112.816,278.456Z" transform="translate(-2100.381 -259.112)" fill="#00223d"/>
      </g>
      <g id="Grupo_17760" data-name="Grupo 17760" transform="translate(2107.103 247.142)">
        <path id="Trazado_28297" data-name="Trazado 28297" d="M2114.495,271.172h-5.527v-2.763h5.527v-1.381h-1.382v-2.764h1.382a2.766,2.766,0,0,1,2.763,2.764v1.381A2.766,2.766,0,0,1,2114.495,271.172Z" transform="translate(-2108.968 -264.264)" fill="#00223d"/>
      </g>
      <g id="Grupo_17761" data-name="Grupo 17761" transform="translate(2107.103 251.286)">
        <path id="Trazado_28298" data-name="Trazado 28298" d="M2114.495,276.324h-5.527v-2.763h5.527V272.18h-1.382v-2.764h1.382a2.767,2.767,0,0,1,2.763,2.764v1.382A2.766,2.766,0,0,1,2114.495,276.324Z" transform="translate(-2108.968 -269.416)" fill="#00223d"/>
      </g>
      <g id="Grupo_17762" data-name="Grupo 17762" transform="translate(2111.248 237.47)">
        <path id="Trazado_28299" data-name="Trazado 28299" d="M2118.266,275.731h-1.382v-2.763h1.382a1.383,1.383,0,0,0,1.381-1.381v-16.58h-1.381a1.383,1.383,0,0,0-1.382,1.381v2.764h-2.763v-2.764a4.15,4.15,0,0,1,4.146-4.145h2.763a1.381,1.381,0,0,1,1.382,1.381v17.962A4.15,4.15,0,0,1,2118.266,275.731Z" transform="translate(-2114.12 -252.242)" fill="#00223d"/>
      </g>
      <g id="Grupo_17763" data-name="Grupo 17763" transform="translate(2172.044 227.798)">
        <path id="Trazado_28300" data-name="Trazado 28300" d="M2197.978,256.8h-2.762V242.984h-2.764v11.053h-2.763V241.6a1.381,1.381,0,0,1,1.381-1.381h5.527a1.381,1.381,0,0,1,1.381,1.381Z" transform="translate(-2189.688 -240.22)" fill="#00223d"/>
      </g>
      <g id="Grupo_17764" data-name="Grupo 17764" transform="translate(2166.517 202.927)">
        <path id="Trazado_28301" data-name="Trazado 28301" d="M2193.872,235.558h-2.764v-8.291a1.382,1.382,0,0,1,1.382-1.381,6.909,6.909,0,1,0-5.15-2.3l-2.059,1.843a9.671,9.671,0,1,1,8.591,3.126Z" transform="translate(-2182.818 -209.306)" fill="#00223d"/>
      </g>
      <g id="Grupo_17765" data-name="Grupo 17765" transform="translate(2105.721 212.599)">
        <path id="Trazado_28302" data-name="Trazado 28302" d="M2107.25,221.328h2.764v31.779h-2.764Z" transform="translate(-2107.25 -221.328)" fill="#00223d"/>
      </g>
      <g id="Grupo_17766" data-name="Grupo 17766" transform="translate(2099.429 212.831)">
        <path id="Trazado_28303" data-name="Trazado 28303" d="M2105.821,232.95l-.913-2.282a14.61,14.61,0,0,0-5.479-6.752l1.533-2.3a17.362,17.362,0,0,1,6.512,8.025l.913,2.284Z" transform="translate(-2099.429 -221.616)" fill="#00223d"/>
      </g>
      <g id="Grupo_17767" data-name="Grupo 17767" transform="translate(2099.429 221.121)">
        <path id="Trazado_28304" data-name="Trazado 28304" d="M2105.821,243.255l-.913-2.282a14.607,14.607,0,0,0-5.479-6.752l1.533-2.3a17.347,17.347,0,0,1,6.512,8.027l.913,2.282Z" transform="translate(-2099.429 -231.921)" fill="#00223d"/>
      </g>
      <g id="Grupo_17768" data-name="Grupo 17768" transform="translate(2099.429 229.412)">
        <path id="Trazado_28305" data-name="Trazado 28305" d="M2105.821,253.56l-.913-2.282a14.609,14.609,0,0,0-5.479-6.753l1.533-2.3a17.346,17.346,0,0,1,6.512,8.026l.913,2.282Z" transform="translate(-2099.429 -242.226)" fill="#00223d"/>
      </g>
      <g id="Grupo_17769" data-name="Grupo 17769" transform="translate(2105.821 212.831)">
        <path id="Trazado_28306" data-name="Trazado 28306" d="M2109.939,232.95l-2.565-1.025.913-2.284a17.357,17.357,0,0,1,6.511-8.025l1.533,2.3a14.6,14.6,0,0,0-5.479,6.752Z" transform="translate(-2107.374 -221.616)" fill="#00223d"/>
      </g>
      <g id="Grupo_17770" data-name="Grupo 17770" transform="translate(2105.821 221.121)">
        <path id="Trazado_28307" data-name="Trazado 28307" d="M2109.939,243.255l-2.565-1.025.913-2.282a17.348,17.348,0,0,1,6.511-8.027l1.533,2.3a14.588,14.588,0,0,0-5.479,6.752Z" transform="translate(-2107.374 -231.921)" fill="#00223d"/>
      </g>
      <g id="Grupo_17771" data-name="Grupo 17771" transform="translate(2105.821 229.412)">
        <path id="Trazado_28308" data-name="Trazado 28308" d="M2109.939,253.56l-2.565-1.026.913-2.282a17.347,17.347,0,0,1,6.511-8.026l1.533,2.3a14.594,14.594,0,0,0-5.479,6.753Z" transform="translate(-2107.374 -242.226)" fill="#00223d"/>
      </g>
    </g>
  </g>
</svg>
