<svg xmlns="http://www.w3.org/2000/svg" width="113" height="113" viewBox="0 0 113 113">
  <g id="Grupo_17802" data-name="Grupo 17802" transform="translate(-2447 4683)">
    <g id="Fill_out_line" data-name="Fill out line" transform="translate(48.689 -4720.579)">
      <path id="Trazado_28309" data-name="Trazado 28309" d="M2469.155,113.494l-15.479,15.479-11.257-11.257,5.629-5.629v-8.443l9.85-9.85a5.945,5.945,0,0,1,1.738,3.891c.007.11.01.219.01.33a5.954,5.954,0,0,1-1.748,4.222Z" fill="#f4ceaf"/>
      <path id="Trazado_28310" data-name="Trazado 28310" d="M2455.083,105.051l11.257,11.257,7.036-7.036-11.257-11.257Z" fill="#f4ceaf"/>
      <path id="Trazado_28311" data-name="Trazado 28311" d="M2421.311,136.009l22.515-22.515,15.479,15.479-7.036,7.036Z" fill="#8acce7"/>
      <rect id="Rectángulo_4419" data-name="Rectángulo 4419" width="5.97" height="19.9" transform="translate(2466.341 116.309) rotate(-45)" fill="#ad7d4d"/>
      <rect id="Rectángulo_4420" data-name="Rectángulo 4420" width="5.97" height="39.801" transform="translate(2422.719 72.686) rotate(-45)" fill="#ad7d4d"/>
      <path id="Trazado_28312" data-name="Trazado 28312" d="M2450.862,69.872l16.886-16.886,19.7,19.7-14.776,14.775a2.984,2.984,0,0,1-4.221,0h0Z" fill="#eebe33"/>
      <path id="Trazado_28313" data-name="Trazado 28313" d="M2426.94,76.908l19-19a2.984,2.984,0,0,1,4.221,0h0l19.7,19.7h0a2.987,2.987,0,0,0-4.222,0h0l-19,19Z" fill="#eedc9a"/>
      <path id="Trazado_28314" data-name="Trazado 28314" d="M2470.733,79.722a2.974,2.974,0,0,1-.874,2.111l-1.407,1.407a2.983,2.983,0,0,0,0,4.22h0l-6.333-6.332,3.518-3.518a2.985,2.985,0,0,1,5.1,2.111Z" fill="#e88604"/>
      <path id="Trazado_28315" data-name="Trazado 28315" d="M2462.119,83.119l5.338,5.338a4.4,4.4,0,0,0,6.211,0l14.776-14.776a1.408,1.408,0,0,0,0-1.99l-19.7-19.7a1.406,1.406,0,0,0-1.99,0l-10.262,10.262-5.337-5.337a4.4,4.4,0,0,0-6.212,0l-13.78,13.78-3.227-3.226a1.406,1.406,0,0,0-1.99,0l-4.222,4.221a1.408,1.408,0,0,0,0,1.99l27.149,27.149-1.819,1.819a1.414,1.414,0,0,0-.413.995v7.86l-1.407,1.407-.412-.412a1.408,1.408,0,0,0-1.99,0l-21.108,21.108,1.991,1.99,20.112-20.113,13.489,13.489-4.634,4.634,1.99,1.99,5.629-5.629a1.406,1.406,0,0,0,0-1.99l-1.819-1.819,7.86-7.86,13.077,13.076a1.406,1.406,0,0,0,1.99,0l4.221-4.221a1.406,1.406,0,0,0,0-1.99l-13.076-13.077,1.819-1.819a1.408,1.408,0,0,0,0-1.99L2463.114,97.02a1.408,1.408,0,0,0-1.99,0l-.123.124a7.318,7.318,0,0,0-2.108-4.345,1.406,1.406,0,0,0-1.99,0l-1.819,1.819-2.232-2.231Zm6.745-2.281-1.407,1.407a4.35,4.35,0,0,0-.908,1.324l-2.439-2.44,2.522-2.523a1.578,1.578,0,0,1,2.232,2.232Zm-1.116-25.862,17.711,17.71-13.781,13.78a1.578,1.578,0,0,1-2.231-2.231l1.407-1.407a4.393,4.393,0,0,0,0-6.212l-12.373-12.373Zm-20.816,3.93a1.58,1.58,0,0,1,2.231,0l16.8,16.8a4.355,4.355,0,0,0-1.323.908l-18,18-17.71-17.71ZM2426.94,70.455l2.231,2.231-2.231,2.232-2.231-2.232Zm55.7,55.7-2.231,2.231-12.082-12.081,2.231-2.232ZM2462.119,100l9.268,9.268-5.046,5.046-9.267-9.268,1.819-1.819h0l0,0Zm-4.377-4.066a4.571,4.571,0,0,1-.839,5.3l-2.815,2.814a1.408,1.408,0,0,0,0,1.99,6.558,6.558,0,0,1,0,9.267l1.991,1.991a9.342,9.342,0,0,0,2.737-6.531l5.535,5.536-7.86,7.86-9.268-9.268,1.82-1.819a1.408,1.408,0,0,0,.412-1v-7.86Zm-4.649.669-2.231,2.231-2.231-2.231,2.231-2.231Z" fill="#00223d"/>
    </g>
    <rect id="Rectángulo_4422" data-name="Rectángulo 4422" width="113" height="113" transform="translate(2447 -4683)" fill="none"/>
  </g>
</svg>
