<svg xmlns="http://www.w3.org/2000/svg" width="113" height="113" viewBox="0 0 113 113">
  <g id="Grupo_17683" data-name="Grupo 17683" transform="translate(-91 -3812)">
    <g id="Grupo_17682" data-name="Grupo 17682" transform="translate(-1854.848 3460.417)">
      <g id="Grupo_17650" data-name="Grupo 17650" transform="translate(1965.025 365.019)">
        <path id="Trazado_28205" data-name="Trazado 28205" d="M2028.433,442.584H1982.5v2.871a5.742,5.742,0,1,1-11.484,0V370.81a5.742,5.742,0,0,0-5.742-5.742h53.113a10.049,10.049,0,0,1,10.048,10.048Z" transform="translate(-1965.272 -365.068)" fill="#fff"/>
      </g>
      <g id="Grupo_17653" data-name="Grupo 17653" transform="translate(1976.509 442.535)">
        <g id="Grupo_17652" data-name="Grupo 17652">
          <g id="Grupo_17651" data-name="Grupo 17651">
            <path id="Trazado_28206" data-name="Trazado 28206" d="M2028.829,445.25h-45.936v2.871a5.742,5.742,0,0,1-5.741,5.742h51.678a5.743,5.743,0,0,0,5.742-5.742V445.25Z" transform="translate(-1977.151 -445.25)" fill="#8e8e8e"/>
          </g>
        </g>
      </g>
      <g id="Grupo_17655" data-name="Grupo 17655" transform="translate(1959.283 365.019)">
        <g id="Grupo_17654" data-name="Grupo 17654">
          <path id="Trazado_28207" data-name="Trazado 28207" d="M1970.816,382.294h-11.484V370.81a5.742,5.742,0,0,1,11.484,0Z" transform="translate(-1959.332 -365.068)" fill="#8e8e8e"/>
        </g>
      </g>
      <g id="Grupo_17657" data-name="Grupo 17657" transform="translate(1976.509 413.825)">
        <g id="Grupo_17656" data-name="Grupo 17656">
          <circle id="Elipse_1083" data-name="Elipse 1083" cx="11.484" cy="11.484" r="11.484" fill="#f6ff9b"/>
        </g>
      </g>
      <g id="Grupo_17659" data-name="Grupo 17659" transform="translate(1982.251 419.567)">
        <g id="Grupo_17658" data-name="Grupo 17658">
          <circle id="Elipse_1084" data-name="Elipse 1084" cx="5.742" cy="5.742" r="5.742" fill="#cddc39"/>
        </g>
      </g>
      <g id="Grupo_17660" data-name="Grupo 17660" transform="translate(2023.866 415.264)">
        <path id="Trazado_28208" data-name="Trazado 28208" d="M2026.136,420.63l3.589-3.589,17.941,17.941-3.589,3.589Z" transform="translate(-2026.136 -417.041)" fill="#ef6c00"/>
      </g>
      <g id="Grupo_17661" data-name="Grupo 17661" transform="translate(2013.819 405.215)">
        <path id="Trazado_28209" data-name="Trazado 28209" d="M2015.744,416.693l10.046-10.047,7.176,7.176L2022.92,423.87Z" transform="translate(-2015.744 -406.647)" fill="#ef6c00"/>
      </g>
      <g id="Grupo_17662" data-name="Grupo 17662" transform="translate(2008.078 413.825)">
        <path id="Trazado_28210" data-name="Trazado 28210" d="M2009.8,419.86l4.307-4.307,10.046,10.047-4.307,4.307Z" transform="translate(-2009.805 -415.553)" fill="#ef6c00"/>
      </g>
      <g id="Grupo_17663" data-name="Grupo 17663" transform="translate(2022.433 399.474)">
        <path id="Trazado_28211" data-name="Trazado 28211" d="M2024.654,405.014l4.306-4.306,10.047,10.046-4.306,4.306Z" transform="translate(-2024.654 -400.708)" fill="#ef6c00"/>
      </g>
      <g id="Grupo_17664" data-name="Grupo 17664" transform="translate(1957.848 363.583)">
        <path id="Trazado_28212" data-name="Trazado 28212" d="M2028.187,452.583h-51.678a7.186,7.186,0,0,1-7.178-7.177V383.68h-10.048a1.434,1.434,0,0,1-1.435-1.436V370.76a7.177,7.177,0,0,1,14.354,0v74.646a4.306,4.306,0,1,0,8.613,0v-2.871a1.435,1.435,0,0,1,1.436-1.435h51.678a1.435,1.435,0,0,1,1.436,1.435v2.871A7.185,7.185,0,0,1,2028.187,452.583Zm-45.939-2.87h45.939a4.311,4.311,0,0,0,4.306-4.307V443.97h-48.806v1.436a7.141,7.141,0,0,1-1.438,4.307Zm-21.53-68.9h8.613V370.76a4.306,4.306,0,0,0-8.613,0Z" transform="translate(-1957.848 -363.583)" fill="#00223d"/>
      </g>
      <g id="Grupo_17665" data-name="Grupo 17665" transform="translate(2026.751 423.156)">
        <path id="Trazado_28213" data-name="Trazado 28213" d="M2029.121,425.2h2.871v19.379h-2.871Z" transform="translate(-2029.121 -425.205)" fill="#00223d"/>
      </g>
      <g id="Grupo_17666" data-name="Grupo 17666" transform="translate(1965.025 363.583)">
        <path id="Trazado_28214" data-name="Trazado 28214" d="M2029.869,400.906H2027V373.631a7.185,7.185,0,0,0-7.177-7.177h-54.549v-2.871h54.549a10.061,10.061,0,0,1,10.048,10.048Z" transform="translate(-1965.272 -363.583)" fill="#00223d"/>
      </g>
      <g id="Grupo_17667" data-name="Grupo 17667" transform="translate(2006.654 412.389)">
        <path id="Trazado_28215" data-name="Trazado 28215" d="M2019.817,431.295a1.434,1.434,0,0,1-1.015-.421l-10.048-10.048a1.434,1.434,0,0,1,0-2.03l4.306-4.307a1.436,1.436,0,0,1,2.03,0l10.048,10.048a1.433,1.433,0,0,1,0,2.03l-4.307,4.307A1.431,1.431,0,0,1,2019.817,431.295ZM2011.8,419.81l8.019,8.018,2.277-2.277-8.019-8.018Z" transform="translate(-2008.332 -414.068)" fill="#00223d"/>
      </g>
      <g id="Grupo_17668" data-name="Grupo 17668" transform="translate(2021.009 398.034)">
        <path id="Trazado_28216" data-name="Trazado 28216" d="M2034.665,416.446a1.431,1.431,0,0,1-1.015-.421L2023.6,405.977a1.436,1.436,0,0,1,0-2.03l4.307-4.306a1.434,1.434,0,0,1,2.03,0l10.048,10.048a1.434,1.434,0,0,1,0,2.029l-4.307,4.307A1.43,1.43,0,0,1,2034.665,416.446Zm-8.018-11.484,8.018,8.019,2.277-2.277-8.018-8.019Z" transform="translate(-2023.181 -399.219)" fill="#00223d"/>
      </g>
      <g id="Grupo_17669" data-name="Grupo 17669" transform="translate(2012.806 404.2)">
        <path id="Trazado_28217" data-name="Trazado 28217" d="M2014.7,415.643l10.047-10.047,2.029,2.03-10.045,10.046Z" transform="translate(-2014.696 -405.597)" fill="#00223d"/>
      </g>
      <g id="Grupo_17670" data-name="Grupo 17670" transform="translate(2019.982 411.378)">
        <path id="Trazado_28218" data-name="Trazado 28218" d="M2022.119,423.068l10.046-10.046,2.029,2.029L2024.148,425.1Z" transform="translate(-2022.119 -413.022)" fill="#00223d"/>
      </g>
      <g id="Grupo_17671" data-name="Grupo 17671" transform="translate(2022.865 414.246)">
        <path id="Trazado_28219" data-name="Trazado 28219" d="M2044.06,439.971a1.435,1.435,0,0,1-1.015-.421L2025.1,421.607l2.03-2.03,16.929,16.929,1.558-1.558-16.929-16.929,2.03-2.03,17.944,17.944a1.436,1.436,0,0,1,0,2.03l-3.589,3.589A1.435,1.435,0,0,1,2044.06,439.971Z" transform="translate(-2025.101 -415.988)" fill="#00223d"/>
      </g>
      <g id="Grupo_17672" data-name="Grupo 17672" transform="translate(1976.509 389.422)">
        <path id="Trazado_28220" data-name="Trazado 28220" d="M1977.151,390.311h47.371v2.87h-47.371Z" transform="translate(-1977.151 -390.311)" fill="#00223d"/>
      </g>
      <g id="Grupo_17673" data-name="Grupo 17673" transform="translate(1976.509 400.906)">
        <path id="Trazado_28221" data-name="Trazado 28221" d="M1977.151,402.19h41.629v2.87h-41.629Z" transform="translate(-1977.151 -402.19)" fill="#00223d"/>
      </g>
      <g id="Grupo_17674" data-name="Grupo 17674" transform="translate(1976.509 395.164)">
        <path id="Trazado_28222" data-name="Trazado 28222" d="M1977.151,396.25h47.371v2.871h-47.371Z" transform="translate(-1977.151 -396.25)" fill="#00223d"/>
      </g>
      <g id="Grupo_17675" data-name="Grupo 17675" transform="translate(1976.509 377.938)">
        <path id="Trazado_28223" data-name="Trazado 28223" d="M1977.151,378.432h47.371v2.87h-47.371Z" transform="translate(-1977.151 -378.432)" fill="#00223d"/>
      </g>
      <g id="Grupo_17676" data-name="Grupo 17676" transform="translate(1976.509 372.196)">
        <path id="Trazado_28224" data-name="Trazado 28224" d="M1977.151,372.492h47.371v2.871h-47.371Z" transform="translate(-1977.151 -372.492)" fill="#00223d"/>
      </g>
      <g id="Grupo_17677" data-name="Grupo 17677" transform="translate(1976.509 383.68)">
        <path id="Trazado_28225" data-name="Trazado 28225" d="M1977.151,384.371h47.371v2.871h-47.371Z" transform="translate(-1977.151 -384.371)" fill="#00223d"/>
      </g>
      <g id="Grupo_17678" data-name="Grupo 17678" transform="translate(1976.509 406.648)">
        <path id="Trazado_28226" data-name="Trazado 28226" d="M1977.151,408.129h38.758V411h-38.758Z" transform="translate(-1977.151 -408.129)" fill="#00223d"/>
      </g>
      <g id="Grupo_17679" data-name="Grupo 17679" transform="translate(1975.074 412.389)">
        <path id="Trazado_28227" data-name="Trazado 28227" d="M1988.586,439.907a12.92,12.92,0,1,1,12.918-12.92A12.934,12.934,0,0,1,1988.586,439.907Zm0-22.968a10.048,10.048,0,1,0,10.048,10.048A10.061,10.061,0,0,0,1988.586,416.939Z" transform="translate(-1975.666 -414.068)" fill="#00223d"/>
      </g>
      <g id="Grupo_17680" data-name="Grupo 17680" transform="translate(1980.815 418.132)">
        <path id="Trazado_28228" data-name="Trazado 28228" d="M1988.783,434.362a7.177,7.177,0,1,1,7.177-7.177A7.186,7.186,0,0,1,1988.783,434.362Zm0-11.483a4.306,4.306,0,1,0,4.306,4.306A4.312,4.312,0,0,0,1988.783,422.879Z" transform="translate(-1981.605 -420.008)" fill="#00223d"/>
      </g>
      <g id="Grupo_17681" data-name="Grupo 17681" transform="translate(2003.783 431.05)">
        <path id="Trazado_28229" data-name="Trazado 28229" d="M2022.589,440.549h-5.742a5.747,5.747,0,0,1-4.864-2.691,9.467,9.467,0,0,1-6.62,2.691v-2.871a6.6,6.6,0,0,0,5.5-2.944l.482-.724a1.435,1.435,0,0,1,2.63.8,2.874,2.874,0,0,0,2.871,2.871h5.742Z" transform="translate(-2005.363 -433.37)" fill="#00223d"/>
      </g>
    </g>
    <rect id="Rectángulo_4379" data-name="Rectángulo 4379" width="113" height="113" transform="translate(91 3812)" fill="none"/>
  </g>
</svg>
