<svg xmlns="http://www.w3.org/2000/svg" width="113" height="113" viewBox="0 0 113 113">
  <g id="Grupo_17842" data-name="Grupo 17842" transform="translate(-2316 4806)">
    <g id="Grupo_17776" data-name="Grupo 17776" transform="translate(11.306 -4945.858)">
      <path id="Trazado_28322" data-name="Trazado 28322" d="M2335.215,166.9v26.957a2.7,2.7,0,0,1-2.7,2.7h-2.7a2.7,2.7,0,0,1-2.7-2.7V166.9a2.7,2.7,0,0,1,2.7-2.7h2.7A2.7,2.7,0,0,1,2335.215,166.9Z" fill="#9da0df"/>
      <path id="Trazado_28323" data-name="Trazado 28323" d="M2332.519,164.206c-2.951,0-2.918-.028-3.369.088a2.7,2.7,0,0,1,2.022,2.608v26.957a2.694,2.694,0,0,1-2.022,2.608c.457.117.433.088,3.369.088a2.7,2.7,0,0,0,2.7-2.7V166.9A2.7,2.7,0,0,0,2332.519,164.206Z" fill="#8286c6"/>
      <path id="Trazado_28324" data-name="Trazado 28324" d="M2378.347,173.559V187.2a2.7,2.7,0,0,1-2.611,2.694l-13.194.412-.388-.946a5.392,5.392,0,0,0-10.746,0l-.537,1.31-15.656.491V169.6l40.521,1.267A2.7,2.7,0,0,1,2378.347,173.559Z" fill="#9da0df"/>
      <path id="Trazado_28325" data-name="Trazado 28325" d="M2339.259,169.724v21.313l-4.044.127V169.6Z" fill="#8286c6"/>
      <path id="Trazado_28326" data-name="Trazado 28326" d="M2378.347,173.559V187.2a2.7,2.7,0,0,1-2.611,2.694l-6.824.214V189.9a2.7,2.7,0,0,0,2.7-2.7V173.559a2.7,2.7,0,0,0-2.612-2.694c-.131-.006.342.01-2.78-.088v-.211l9.52.3A2.7,2.7,0,0,1,2378.347,173.559Z" fill="#8286c6"/>
      <path id="Trazado_28327" data-name="Trazado 28327" d="M2327.128,168.25v24.262c-4.467,0-8.087-5.432-8.087-12.131S2322.661,168.25,2327.128,168.25Z" fill="#edebfd"/>
      <path id="Trazado_28328" data-name="Trazado 28328" d="M2389.13,177.685v5.391a2.7,2.7,0,0,1-2.7,2.7h-8.087V174.989h8.087A2.7,2.7,0,0,1,2389.13,177.685Z" fill="#696ead"/>
      <path id="Trazado_28329" data-name="Trazado 28329" d="M2386.434,174.989h-4.043a2.7,2.7,0,0,1,2.7,2.7v5.391a2.7,2.7,0,0,1-2.7,2.7h4.043a2.7,2.7,0,0,0,2.7-2.7v-5.391A2.7,2.7,0,0,0,2386.434,174.989Z" fill="#505795"/>
      <path id="Trazado_28330" data-name="Trazado 28330" d="M2389.13,177.685h8.087v5.391h-8.087Z" fill="#9da0df"/>
      <path id="Trazado_28331" data-name="Trazado 28331" d="M2389.13,177.685h4.044v5.391h-4.044Z" fill="#8286c6"/>
      <path id="Trazado_28332" data-name="Trazado 28332" d="M2402.609,177.685v5.391a2.7,2.7,0,1,1-5.392,0v-5.391a2.7,2.7,0,1,1,5.392,0Z" fill="#696ead"/>
      <path id="Trazado_28333" data-name="Trazado 28333" d="M2398.566,175.352a2.682,2.682,0,0,1,1.347,2.333v5.391a2.692,2.692,0,0,1-1.348,2.333,2.7,2.7,0,0,0,4.044-2.333v-5.391A2.7,2.7,0,0,0,2398.566,175.352Z" fill="#505795"/>
      <path id="Trazado_28334" data-name="Trazado 28334" d="M2362.173,189.816a5.392,5.392,0,1,1-5.392-5.392A5.4,5.4,0,0,1,2362.173,189.816Z" fill="#f1cc76"/>
      <path id="Trazado_28335" data-name="Trazado 28335" d="M2362.154,189.363a5.4,5.4,0,0,0-7.4-4.546,5.4,5.4,0,0,1,0,10A5.4,5.4,0,0,0,2362.154,189.363Z" fill="#ebb15d"/>
      <path id="Trazado_28336" data-name="Trazado 28336" d="M2359.477,194.486V228.9h-5.392V194.486A5.4,5.4,0,0,0,2359.477,194.486Z" fill="#696ead"/>
      <path id="Trazado_28337" data-name="Trazado 28337" d="M2359.477,194.486v4.044a5.4,5.4,0,0,1-5.392,0v-4.044A5.4,5.4,0,0,0,2359.477,194.486Z" fill="#505795"/>
      <path id="Trazado_28338" data-name="Trazado 28338" d="M2356.781,195.207v33.7h2.7V194.486A5.369,5.369,0,0,1,2356.781,195.207Z" fill="#505795"/>
      <path id="Trazado_28339" data-name="Trazado 28339" d="M2354.085,194.486v2.96c-6.053,15.7-5.73,14.862-12.13,31.458h-6.74c14.721-35.948,15.074-36.811,16.193-39.541a5.393,5.393,0,0,0,2.677,5.123Z" fill="#696ead"/>
      <path id="Trazado_28340" data-name="Trazado 28340" d="M2378.347,228.9h-6.739c-6.3-16.329-6.006-15.572-12.131-31.458v-2.96a5.39,5.39,0,0,0,2.677-5.123Z" fill="#696ead"/>
      <g id="Grupo_17775" data-name="Grupo 17775">
        <path id="Trazado_28341" data-name="Trazado 28341" d="M2362.542,190.309c-1-2.439.516.259-1.53,2.847l14.639,35.748h2.7Z" fill="#505795"/>
        <path id="Trazado_28342" data-name="Trazado 28342" d="M2354.085,194.486v2.96l-4.043,10.487V192.7c1.005-2.455.689-1.682,1.366-3.334A5.393,5.393,0,0,0,2354.085,194.486Z" fill="#505795"/>
        <path id="Trazado_28343" data-name="Trazado 28343" d="M2363.521,192.7v15.233l-4.044-10.487v-2.96a5.39,5.39,0,0,0,2.677-5.123Z" fill="#505795"/>
      </g>
      <path id="Trazado_28344" data-name="Trazado 28344" d="M2399.913,173.641a4.051,4.051,0,0,0-3.812,2.7h-5.855a4.049,4.049,0,0,0-3.812-2.7H2379.7a4.026,4.026,0,0,0-3.917-4.124l-39.215-1.226V166.9a4.048,4.048,0,0,0-4.044-4.044h-2.7a4.049,4.049,0,0,0-4.044,4.179c-7.7,1.527-10.676,14.893-5.492,22.669a8.79,8.79,0,0,0,5.492,4.018,4.05,4.05,0,0,0,4.044,4.179h2.7a4.048,4.048,0,0,0,4.044-4.044V192.47l12.273-.385-14.525,35.471h-3.139a1.348,1.348,0,1,0,0,2.7h51.219a1.348,1.348,0,0,0,0-2.7h-3.139L2364.525,191.6l11.253-.351a4.026,4.026,0,0,0,3.917-4.124h6.74a4.049,4.049,0,0,0,3.811-2.7h5.856a4.043,4.043,0,0,0,7.855-1.348v-5.391a4.048,4.048,0,0,0-4.044-4.044Zm-79.524,6.74c0-5.109,2.358-9.525,5.391-10.556v21.111C2322.747,189.9,2320.389,185.49,2320.389,180.381Zm13.478,13.478a1.349,1.349,0,0,1-1.348,1.348h-2.7a1.349,1.349,0,0,1-1.348-1.348V166.9a1.349,1.349,0,0,1,1.348-1.348h2.7a1.349,1.349,0,0,1,1.348,1.348Zm26.958,10.829,8.818,22.868h-8.818Zm-.015-15.219a4.043,4.043,0,1,1-4.029-3.7,4.052,4.052,0,0,1,4.029,3.7Zm-8.072,38.087h-8.819l8.819-22.868Zm-15.514,0c14.688-35.868,13.929-34.04,13.948-34.011a6.83,6.83,0,0,0,1.566,1.663V197.2l-11.708,30.36Zm18.209,0V196.42a6.87,6.87,0,0,0,2.7,0v31.136Zm17.1,0-11.708-30.36v-1.988a6.844,6.844,0,0,0,1.567-1.665c.017-.026-.649-1.628,13.947,34.013ZM2377,187.2a1.34,1.34,0,0,1-1.3,1.346l-12.231.383a6.739,6.739,0,0,0-13.374.094l-.134.329-13.392.418V170.988l39.131,1.224a1.341,1.341,0,0,1,1.3,1.347Zm9.435-2.779H2379.7v-8.087h6.739a1.349,1.349,0,0,1,1.348,1.348v5.391A1.349,1.349,0,0,1,2386.434,184.424Zm4.044-5.391h5.392v2.7h-5.392Zm10.783,4.043a1.348,1.348,0,0,1-2.7,0v-5.391a1.348,1.348,0,0,1,2.7,0Z" fill="#00223d"/>
      <circle id="Elipse_1092" data-name="Elipse 1092" cx="1.348" cy="1.348" r="1.348" transform="translate(2355.433 188.468)" fill="#00223d"/>
    </g>
    <rect id="Rectángulo_4423" data-name="Rectángulo 4423" width="113" height="113" transform="translate(2316 -4806)" fill="none"/>
  </g>
</svg>
