<svg xmlns="http://www.w3.org/2000/svg" width="113" height="113" viewBox="0 0 113 113">
  <g id="Grupo_17692" data-name="Grupo 17692" transform="translate(-115 -4515)">
    <rect id="Rectángulo_4379" data-name="Rectángulo 4379" width="113" height="113" transform="translate(115 4515)" fill="none"/>
    <g id="Grupo_17691" data-name="Grupo 17691" transform="translate(-1962.751 4182.063)">
      <g id="Grupo_17689" data-name="Grupo 17689" transform="translate(2088.128 362.314)">
        <g id="Grupo_17684" data-name="Grupo 17684" transform="translate(21.681 1.262)">
          <path id="Trazado_28230" data-name="Trazado 28230" d="M2176.453,389.457l-2.388-19.4-4.474.551v0l-8.674-4.882a5.23,5.23,0,0,0-3.044-.649l-13.7,1.267a5.226,5.226,0,0,0-4.037,2.579l-9.655,16.616a2.3,2.3,0,0,0,1.174,3.3l.4.149a8.569,8.569,0,0,0,2.321.518l-1.223,1.065L2130.7,392.7l-6.96,5.937a2.974,2.974,0,0,0-.289,4.2l.706.808a3.822,3.822,0,0,0,5.391.369l2.66,3.051a3.815,3.815,0,0,0,5.391.368l2.658,3.051a3.823,3.823,0,0,0,5.395.371l1.443,1.248a3.824,3.824,0,0,0,5.394.371l1.964-1.712,16.5-12.854.018-.016,6.511-.006Z" transform="translate(-2122.723 -365.054)" fill="#f29f5c"/>
          <path id="Trazado_28231" data-name="Trazado 28231" d="M2169.38,408l-.017.016-16.5,12.854-1.963,1.713a3.824,3.824,0,0,1-5.394-.37l-1.444-1.248a3.824,3.824,0,0,1-5.394-.371l-2.657-3.052a3.815,3.815,0,0,1-5.391-.368l-2.66-3.051a3.822,3.822,0,0,1-4.733.226,2.973,2.973,0,0,0,.236,3.595l.706.808a3.822,3.822,0,0,0,5.391.369l2.66,3.051a3.815,3.815,0,0,0,5.391.368l2.657,3.051a3.824,3.824,0,0,0,5.394.371l1.444,1.248a3.824,3.824,0,0,0,5.395.371l1.963-1.713,16.5-12.854.018-.016,6.511-.006-.72-5.853Z" transform="translate(-2122.724 -380.162)" fill="#d37d42"/>
        </g>
        <g id="Grupo_17685" data-name="Grupo 17685" transform="translate(12.709 2.029)">
          <path id="Trazado_28232" data-name="Trazado 28232" d="M2167.361,401.715l-8.843-7.625-2.459-2.119-1.76-1.515-7.565-6.521.874-7.437a5.133,5.133,0,0,0-3.729-5.546l-16.491-4.564a3.817,3.817,0,0,0-4.415,1.938l-2.074,4.048-8.9-.6-2.28,19.41-.991,8.435,8.665.576.019.016,18.1,15.6,1.973,1.7a3.823,3.823,0,0,0,5.392-.4l2.64-3.063a3.824,3.824,0,0,0,5.392-.4l2.64-3.066a3.816,3.816,0,0,0,5.389-.4l2.644-3.066a3.821,3.821,0,0,0,5.389-.4l.7-.813A2.973,2.973,0,0,0,2167.361,401.715Z" transform="translate(-2108.726 -366.25)" fill="#f9c295"/>
          <path id="Trazado_28233" data-name="Trazado 28233" d="M2182.8,420.274l-2.694-2.322a3.155,3.155,0,0,1-.131,3.958l-.744.863a4.058,4.058,0,0,1-5.721.422l-2.806,3.255a4.051,4.051,0,0,1-5.72.422l-2.8,3.255a4.058,4.058,0,0,1-5.724.426l-2.8,3.252a4.029,4.029,0,0,1-1.922,1.24l1.193,1.029a3.823,3.823,0,0,0,5.392-.4l2.64-3.064a3.823,3.823,0,0,0,5.392-.4l2.64-3.066a3.816,3.816,0,0,0,5.389-.4l2.643-3.066a3.822,3.822,0,0,0,5.389-.4l.7-.813A2.973,2.973,0,0,0,2182.8,420.274Z" transform="translate(-2124.162 -384.809)" fill="#e59f6a"/>
        </g>
        <g id="Grupo_17687" data-name="Grupo 17687" transform="translate(20.082 34.594)">
          <g id="Grupo_17686" data-name="Grupo 17686">
            <path id="Trazado_28234" data-name="Trazado 28234" d="M2121.972,418.409l-1.049,1.385a3.425,3.425,0,0,0,.663,4.8h0a3.426,3.426,0,0,0,4.8-.662l1.049-1.385a3.426,3.426,0,0,0-.662-4.8h0A3.427,3.427,0,0,0,2121.972,418.409Z" transform="translate(-2120.228 -417.052)" fill="#f29f5c"/>
            <path id="Trazado_28235" data-name="Trazado 28235" d="M2131.419,422.953l-1.976,2.608a3.426,3.426,0,0,0,.663,4.8h0a3.426,3.426,0,0,0,4.8-.663l1.975-2.608a3.426,3.426,0,0,0-.663-4.8h0A3.426,3.426,0,0,0,2131.419,422.953Z" transform="translate(-2123.286 -418.683)" fill="#f29f5c"/>
            <path id="Trazado_28236" data-name="Trazado 28236" d="M2140.655,427.93l-2.692,3.555a3.426,3.426,0,0,0,.663,4.8h0a3.426,3.426,0,0,0,4.8-.663l2.692-3.555a3.425,3.425,0,0,0-.663-4.8h0A3.425,3.425,0,0,0,2140.655,427.93Z" transform="translate(-2126.345 -420.469)" fill="#f29f5c"/>
            <path id="Trazado_28237" data-name="Trazado 28237" d="M2149.332,434.061l-2.848,3.76a3.426,3.426,0,0,0,.663,4.8h0a3.425,3.425,0,0,0,4.8-.663l2.848-3.761a3.425,3.425,0,0,0-.663-4.8h0A3.425,3.425,0,0,0,2149.332,434.061Z" transform="translate(-2129.403 -422.67)" fill="#f29f5c"/>
          </g>
        </g>
        <path id="Trazado_28238" data-name="Trazado 28238" d="M2173.763,370.607l-8.674-4.882a5.229,5.229,0,0,0-3.044-.649l-13.7,1.267a5.227,5.227,0,0,0-4.037,2.579l-9.655,16.616a2.3,2.3,0,0,0,1.175,3.3l.395.149a8.584,8.584,0,0,0,9.84-2.8l3.7-4.813s8.891,10.294,18.681-1.728" transform="translate(-2105.213 -363.792)" fill="#f29f5c"/>
        <path id="Trazado_28239" data-name="Trazado 28239" d="M2216.423,363.085l4.537,36.856-10.61,1.306a3.658,3.658,0,0,1-4.078-3.183l-3.643-29.6a3.658,3.658,0,0,1,3.184-4.078Z" transform="translate(-2129.716 -363.085)" fill="#5c9cee"/>
        <path id="Trazado_28240" data-name="Trazado 28240" d="M2211.949,414.4a4.011,4.011,0,0,1-4.4-3.094l.5,4.069a3.658,3.658,0,0,0,4.077,3.183l10.61-1.306-.507-4.119Z" transform="translate(-2131.491 -380.394)" fill="#3580d3"/>
        <path id="Trazado_28241" data-name="Trazado 28241" d="M2093.437,363.085l-4.537,36.856,10.609,1.306a3.659,3.659,0,0,0,4.078-3.184l3.643-29.6a3.658,3.658,0,0,0-3.183-4.078Z" transform="translate(-2088.9 -363.085)" fill="#ed5575"/>
        <path id="Trazado_28242" data-name="Trazado 28242" d="M2099.759,414.833l-10.341-1.273-.519,4.218,10.609,1.306a3.659,3.659,0,0,0,4.078-3.184l.385-3.126A4.3,4.3,0,0,1,2099.759,414.833Z" transform="translate(-2088.9 -380.922)" fill="#cc3a60"/>
        <g id="Grupo_17688" data-name="Grupo 17688" transform="translate(4.625 28.125)">
          <circle id="Elipse_1085" data-name="Elipse 1085" cx="2.662" cy="2.662" r="2.662" transform="translate(76.523 0)" fill="#ebeef2"/>
          <circle id="Elipse_1086" data-name="Elipse 1086" cx="2.662" cy="2.662" r="2.662" fill="#ebeef2"/>
        </g>
      </g>
      <g id="Grupo_17690" data-name="Grupo 17690" transform="translate(2086.751 360.937)">
        <path id="Trazado_28243" data-name="Trazado 28243" d="M2133.769,406.538a4.8,4.8,0,0,1-5.618-3.93,4.774,4.774,0,0,0-3.557-.929,4.9,4.9,0,0,0-.915.218,10.127,10.127,0,0,1-8.1-5.392,4.8,4.8,0,0,0-6.252.388l-5.041-.335,3.089-25.094,5.535.376c.031,0,.063,0,.094,0a1.376,1.376,0,0,0,1.225-.749l2.074-4.047a2.449,2.449,0,0,1,2.822-1.238l3.081.852a1.377,1.377,0,0,0,.734-2.654l-3.081-.851a5.214,5.214,0,0,0-6.006,2.635l-1.661,3.241-4.48-.3.106-.862a5.04,5.04,0,0,0-4.382-5.612l-10.609-1.305a1.377,1.377,0,1,0-.336,2.733l10.609,1.306a2.281,2.281,0,0,1,1.985,2.543l-3.643,29.595a2.285,2.285,0,0,1-2.543,1.986L2088.3,397.8a1.377,1.377,0,1,0-.336,2.733l10.609,1.306a5.024,5.024,0,0,0,5.026-2.57l3.771.251a4.8,4.8,0,0,0,4.261,7,4.876,4.876,0,0,0,.667-.046l.043-.006q0,.021,0,.042a4.8,4.8,0,0,0,4.752,4.144,4.837,4.837,0,0,0,.707-.054,4.793,4.793,0,0,0,4.754,4.19,4.893,4.893,0,0,0,.705-.053c0,.015,0,.03.005.046a4.8,4.8,0,0,0,4.747,4.147,4.869,4.869,0,0,0,.667-.046,4.772,4.772,0,0,0,3.172-1.858l2.848-3.761A4.808,4.808,0,0,0,2133.769,406.538Zm-21.853-2.79a2.049,2.049,0,0,1-1.914-3.267l1.049-1.385a2.049,2.049,0,0,1,3.266,2.474l-1.049,1.385A2.036,2.036,0,0,1,2111.917,403.748Zm3.945,3.74a2.047,2.047,0,0,1-.4-2.87l1.049-1.385h0l.927-1.223a2.048,2.048,0,0,1,3.266,2.474l-1.975,2.608A2.051,2.051,0,0,1,2115.861,407.488Zm5.462,4.137a2.049,2.049,0,0,1-.4-2.869h0l1.975-2.609h0l.717-.946a2.049,2.049,0,0,1,3.267,2.473l-2.693,3.555h0A2.051,2.051,0,0,1,2121.323,411.625Zm11.18-.021-2.848,3.761a2.049,2.049,0,1,1-3.267-2.474l2.692-3.555v0l.155-.2a2.049,2.049,0,0,1,3.266,2.474Z" transform="translate(-2086.751 -360.937)" fill="#00223d"/>
        <path id="Trazado_28244" data-name="Trazado 28244" d="M2197.054,399a1.377,1.377,0,0,0-1.535-1.2l-10.609,1.306a2.284,2.284,0,0,1-2.543-1.986l-.108-.883h0l-.025-.2-3.51-28.507a2.281,2.281,0,0,1,1.985-2.543l10.61-1.306a1.377,1.377,0,0,0-.336-2.733l-10.61,1.306a5.041,5.041,0,0,0-4.417,5.128l-2.676.329-8.285-4.662a6.573,6.573,0,0,0-3.846-.821h-.009l-2.493.231a1.377,1.377,0,0,0,.254,2.742l2.5-.231a3.831,3.831,0,0,1,2.242.478l8.59,4.834a1.377,1.377,0,0,0,.927.218l3.107-.383,2.279,18.514.789,6.4-4.957,0a1.378,1.378,0,0,0-.9.335l-.383.3-12.444-10.725c2.844-.817,5.554-2.795,8.089-5.907a1.377,1.377,0,0,0-2.136-1.739c-2.833,3.479-5.812,5.27-8.853,5.322-4.431.083-7.687-3.591-7.717-3.626a1.378,1.378,0,0,0-2.135.061l-3.7,4.814a7.164,7.164,0,0,1-8.261,2.351l-.395-.149a.919.919,0,0,1-.471-1.322l9.654-16.616a3.858,3.858,0,0,1,2.975-1.9l5.715-.529a1.377,1.377,0,1,0-.254-2.742l-5.715.528a6.618,6.618,0,0,0-5.1,3.258l-9.654,16.616a3.674,3.674,0,0,0,1.878,5.282l.395.149a10.021,10.021,0,0,0,3.549.653,9.9,9.9,0,0,0,7.87-3.9l2.759-3.591a13.6,13.6,0,0,0,7.759,3.394l17.982,15.5a1.6,1.6,0,0,1,.168,2.253l-.7.813a2.45,2.45,0,0,1-3.449.253,1.386,1.386,0,0,0-.18-.13l-4.668-4.025a1.377,1.377,0,0,0-1.8,2.086l3.794,3.271-1.73,2.008a2.439,2.439,0,0,1-3.448.255l-.021-.016-4.337-3.74a1.377,1.377,0,0,0-1.8,2.086l3.315,2.858-1.74,2.022a2.45,2.45,0,0,1-2.142.833,1.377,1.377,0,0,0-.322,2.735,5.287,5.287,0,0,0,.61.036,5.2,5.2,0,0,0,3.939-1.806l1.861-2.161a5.2,5.2,0,0,0,6.169-1.3l1.864-2.163a5.211,5.211,0,0,0,6.168-1.3l.7-.814a4.351,4.351,0,0,0-.456-6.137l-1.13-.974,4.131,0a5.043,5.043,0,0,0,4.941,4.094,5.16,5.16,0,0,0,.618-.038l10.61-1.306A1.377,1.377,0,0,0,2197.054,399Z" transform="translate(-2103.064 -360.937)" fill="#00223d"/>
        <path id="Trazado_28245" data-name="Trazado 28245" d="M2217.38,404.811a4.039,4.039,0,1,0,4.039,4.038A4.043,4.043,0,0,0,2217.38,404.811Zm0,5.324a1.285,1.285,0,1,1,1.285-1.285A1.287,1.287,0,0,1,2217.38,410.135Z" transform="translate(-2132.193 -376.686)" fill="#00223d"/>
        <path id="Trazado_28246" data-name="Trazado 28246" d="M2102.044,408.849a4.038,4.038,0,1,0-4.038,4.039A4.043,4.043,0,0,0,2102.044,408.849Zm-5.323,0a1.285,1.285,0,1,1,1.285,1.285A1.286,1.286,0,0,1,2096.721,408.849Z" transform="translate(-2089.341 -376.686)" fill="#00223d"/>
      </g>
    </g>
  </g>
</svg>
