<svg xmlns="http://www.w3.org/2000/svg" width="517.968" height="283.442" viewBox="0 0 517.968 283.442">
  <g id="Grupo_17197" data-name="Grupo 17197" transform="translate(-877.796 -1507.884)">
    <g id="Grupo_17117" data-name="Grupo 17117" transform="translate(1208.491 1782.051)">
      <path id="Trazado_26951" data-name="Trazado 26951" d="M1194.713,1695.919c0,.974-13.484,1.763-30.114,1.763s-30.114-.789-30.114-1.763,13.482-1.762,30.114-1.762S1194.713,1694.946,1194.713,1695.919Z" transform="translate(-1087.371 -1694.157)" fill="#232f33"/>
      <path id="Trazado_26952" data-name="Trazado 26952" d="M1162.7,1695.919c0,.974-13.482,1.763-30.114,1.763s-30.114-.789-30.114-1.763,13.484-1.762,30.114-1.762S1162.7,1694.946,1162.7,1695.919Z" transform="translate(-1102.475 -1694.157)" fill="#232f33"/>
    </g>
    <g id="Grupo_17118" data-name="Grupo 17118" transform="translate(950.646 1786.345)">
      <path id="Trazado_26953" data-name="Trazado 26953" d="M1025.75,1699.826c0,.973-13.482,1.762-30.114,1.762s-30.114-.789-30.114-1.762,13.482-1.762,30.114-1.762S1025.75,1698.853,1025.75,1699.826Z" transform="translate(-909.252 -1696.607)" fill="#232f33"/>
      <path id="Trazado_26954" data-name="Trazado 26954" d="M977.119,1698.531c0,.805-11.154,1.459-24.914,1.459s-24.914-.654-24.914-1.459,11.155-1.457,24.914-1.457S977.119,1697.726,977.119,1698.531Z" transform="translate(-927.291 -1697.074)" fill="#232f33"/>
    </g>
    <g id="Grupo_17119" data-name="Grupo 17119" transform="translate(1062.824 1785.937)">
      <path id="Trazado_26955" data-name="Trazado 26955" d="M1125.5,1699.127c0,1.286-17.833,2.33-39.83,2.33s-39.83-1.044-39.83-2.33,17.833-2.33,39.83-2.33S1125.5,1697.839,1125.5,1699.127Z" transform="translate(-983.531 -1696.797)" fill="#232f33"/>
      <path id="Trazado_26956" data-name="Trazado 26956" d="M1083.167,1699.127c0,1.286-17.833,2.33-39.83,2.33s-39.83-1.044-39.83-2.33,17.833-2.33,39.83-2.33S1083.167,1697.839,1083.167,1699.127Z" transform="translate(-1003.507 -1696.797)" fill="#232f33"/>
    </g>
    <path id="Trazado_26957" data-name="Trazado 26957" d="M898.566,1559.015h161.315s-13.223-16.959-35.985-14.536c-11.052-19.383-29.3-22.614-43.6-14.538-17.932-21-48.621-11.307-53.87,14.133C906.239,1546.093,898.566,1559.015,898.566,1559.015Z" transform="translate(9.8 4.999)" fill="#fcfcae"/>
    <path id="Trazado_26958" data-name="Trazado 26958" d="M1087.489,1604.846h209.33s-11.052-28.591-37.677-27.97c-16.578-36.358-49.647-24.859-58.985-11.809-26.417-22.374-59.517-6.837-63.312,18.024C1112.956,1579.985,1097.69,1585.578,1087.489,1604.846Z" transform="translate(98.945 21.026)" fill="#fcfcae"/>
    <path id="Trazado_26959" data-name="Trazado 26959" d="M1043.821,1669.581c-13.194-6.344-28.158,8.534-42.573,6.012-13.624-2.383-19.916-17.8-29.118-28.145-9.763-10.977-25.328-17.016-39.644-13.8s-26.265,16.416-26.5,31.119c-.125,7.936,2.748,16.542-1.214,23.413-3.387,5.874-10.5,8.161-16.514,11.271s-12.025,9.248-10.1,15.752l187.11.187C1063.447,1705.327,1063.734,1679.156,1043.821,1669.581Z" transform="translate(0 58.935)" fill="#93931b"/>
    <path id="Trazado_26960" data-name="Trazado 26960" d="M1272.263,1702.491c-7.751-4.008-16.915-6.953-21.279-14.523-5.1-8.853-1.4-19.942-1.565-30.167-.3-18.946-15.694-35.957-34.141-40.1s-38.5,3.642-51.079,17.786c-11.857,13.334-19.966,33.193-37.518,36.264-18.573,3.25-37.856-15.921-54.856-7.746-25.656,12.337-25.285,46.057-27.637,59.021l241.086-.241C1287.757,1714.406,1280.013,1706.5,1272.263,1702.491Z" transform="translate(78.514 51.296)" fill="#93931b"/>
    <g id="Grupo_17120" data-name="Grupo 17120" transform="translate(908.334 1682.293)">
      <path id="Trazado_26961" data-name="Trazado 26961" d="M1034.784,1705.734a158.921,158.921,0,0,1-24.729-39.2c-2.954-6.685-5.49-13.947-4.416-21.18a2.52,2.52,0,0,1,.615-1.525c.723-.674,1.885-.347,2.785.062,12.23,5.578,19.009,18.719,23.763,31.317,3.543,9.386,6.489,19.751,3.468,29.318" transform="translate(-848.128 -1618.331)" fill="#b8d6cc"/>
      <path id="Trazado_26962" data-name="Trazado 26962" d="M958.608,1718.259c-26.357-16.478-49.55-40.344-58.247-70.236-1.769-6.079-2.875-12.815-.283-18.591a5.207,5.207,0,0,1,2.273-2.726c1.342-.637,2.926-.227,4.335.244,17.621,5.9,31.651,19.967,40.893,36.121s14.2,34.383,18.3,52.544" transform="translate(-898.544 -1626.38)" fill="#91bdad"/>
      <path id="Trazado_26963" data-name="Trazado 26963" d="M950.654,1705.752c-7.873-13.02-5.692-29.524-3.25-44.552.3-1.872.673-3.874,2.009-5.215,1.725-1.732,4.545-1.8,6.882-1.1,6.731,2.024,10.725,8.837,13.562,15.281A140.493,140.493,0,0,1,980,1704.648" transform="translate(-876.552 -1613.125)" fill="#91bdad"/>
    </g>
    <path id="Trazado_26964" data-name="Trazado 26964" d="M1160.471,1711.286c-1.261-33.956,15.044-68.093,42.223-88.4,1.372-1.024,2.9-2.059,4.61-2.019,3.784.085,5.34,4.879,5.6,8.665a87.017,87.017,0,0,1-10.881,48.214c-9.8,17.427-25.347,30.925-41.941,42.033" transform="translate(133.198 53.313)" fill="#91bdad"/>
    <path id="Trazado_26965" data-name="Trazado 26965" d="M1070.6,1693.631c-1.189-7.387,6-14.362,13.46-14.481s14.231,5.229,17.625,11.894a7.658,7.658,0,0,1,14.651,2.627" transform="translate(90.914 80.812)" fill="#b8d6cc"/>
    <g id="Grupo_17196" data-name="Grupo 17196" transform="translate(946.666 1507.884)">
      <g id="Grupo_17151" data-name="Grupo 17151">
        <g id="Grupo_17127" data-name="Grupo 17127" transform="translate(89.19 141.554)">
          <path id="Trazado_26966" data-name="Trazado 26966" d="M985.184,1628.835h47.5l-7.172-14.488a18.5,18.5,0,0,0-33.152,0Z" transform="translate(-985.184 -1604.057)" fill="none" stroke="#fff" stroke-linecap="round" stroke-linejoin="round" stroke-width="0.748"/>
          <ellipse id="Elipse_1004" data-name="Elipse 1004" cx="23.748" cy="4.033" rx="23.748" ry="4.033" transform="translate(0.001 20.746)" fill="#191d28"/>
          <g id="Grupo_17121" data-name="Grupo 17121" transform="translate(21.462 11.391)">
            <circle id="Elipse_1005" data-name="Elipse 1005" cx="6.743" cy="6.743" r="6.743" transform="matrix(0.574, -0.819, 0.819, 0.574, 0, 11.821)" fill="#990e0e"/>
            <path id="Trazado_26967" data-name="Trazado 26967" d="M1007.12,1612.851a2.671,2.671,0,0,0-.578,1.647l-.552-2.589-.623.132.533,2.5a2.889,2.889,0,0,0-1.044-.707,1.236,1.236,0,1,0-.709,1.752,2.491,2.491,0,0,0,1.98.021l.187.876.623-.134-.278-1.3a2.638,2.638,0,1,0,.462-2.19Z" transform="translate(-998.42 -1611.797)" fill="#648558"/>
          </g>
          <g id="Grupo_17122" data-name="Grupo 17122" transform="translate(33.897 14.668)">
            <path id="Trazado_26968" data-name="Trazado 26968" d="M1021.642,1623.982a6.743,6.743,0,1,1-5.8-7.57A6.742,6.742,0,0,1,1021.642,1623.982Z" transform="translate(-1008.214 -1612.924)" fill="#b91010"/>
            <path id="Trazado_26969" data-name="Trazado 26969" d="M1015.917,1615.374a2.657,2.657,0,0,0-1.1,1.357l.349-2.625-.631-.084-.335,2.53a2.92,2.92,0,0,0-.745-1.016,1.236,1.236,0,1,0-1.257,1.411,2.489,2.489,0,0,0,1.859.684l-.118.888.631.084.175-1.323a2.636,2.636,0,1,0,1.17-1.907Z" transform="translate(-1006.765 -1614.023)" fill="#648558"/>
          </g>
          <g id="Grupo_17123" data-name="Grupo 17123" transform="translate(23.748 16.387)">
            <circle id="Elipse_1006" data-name="Elipse 1006" cx="6.743" cy="6.743" r="6.743" transform="translate(0 3.476)" fill="#dc3d3d"/>
            <path id="Trazado_26970" data-name="Trazado 26970" d="M1008.219,1616.349a2.673,2.673,0,0,0-.91,1.49v-2.648h-.636v2.554a2.9,2.9,0,0,0-.873-.91,1.237,1.237,0,1,0-1.06,1.565,2.5,2.5,0,0,0,1.933.434v.9h.636v-1.335a2.638,2.638,0,1,0,.91-2.044Z" transform="translate(-1000.25 -1615.191)" fill="#648558"/>
          </g>
          <g id="Grupo_17124" data-name="Grupo 17124" transform="translate(11.588 17.582)">
            <circle id="Elipse_1007" data-name="Elipse 1007" cx="6.743" cy="6.743" r="6.743" transform="translate(0 6.99) rotate(-27.063)" fill="#990e0e"/>
            <path id="Trazado_26971" data-name="Trazado 26971" d="M1003.152,1617.537a2.655,2.655,0,0,0-1.278,1.188l.714-2.549-.612-.172-.69,2.459a2.9,2.9,0,0,0-.593-1.111,1.236,1.236,0,1,0-1.444,1.22,2.492,2.492,0,0,0,1.744.939l-.241.863.612.171.361-1.285a2.638,2.638,0,1,0,1.428-1.722Z" transform="translate(-990.452 -1616.003)" fill="#648558"/>
          </g>
          <g id="Grupo_17125" data-name="Grupo 17125" transform="translate(0.428 14.609)">
            <path id="Trazado_26972" data-name="Trazado 26972" d="M998.7,1621.233a6.742,6.742,0,1,1-8.342-4.617A6.742,6.742,0,0,1,998.7,1621.233Z" transform="translate(-985.474 -1612.866)" fill="#990e0e"/>
            <path id="Trazado_26973" data-name="Trazado 26973" d="M990.574,1615.165a2.664,2.664,0,0,0-.464,1.684l-.731-2.545-.612.175.705,2.454a2.922,2.922,0,0,0-1.089-.633,1.236,1.236,0,1,0-.586,1.8,2.5,2.5,0,0,0,1.977-.116l.247.859.612-.175-.37-1.283a2.638,2.638,0,1,0,.311-2.217Z" transform="translate(-985.152 -1613.983)" fill="#648558"/>
          </g>
          <g id="Grupo_17126" data-name="Grupo 17126" transform="translate(7.172 14.609)">
            <path id="Trazado_26974" data-name="Trazado 26974" d="M1003.28,1621.233a6.742,6.742,0,1,1-8.343-4.617A6.742,6.742,0,0,1,1003.28,1621.233Z" transform="translate(-990.056 -1612.866)" fill="#b91010"/>
            <path id="Trazado_26975" data-name="Trazado 26975" d="M995.156,1615.165a2.673,2.673,0,0,0-.464,1.684l-.732-2.545-.611.175.7,2.454a2.933,2.933,0,0,0-1.089-.633,1.236,1.236,0,1,0-.587,1.8,2.5,2.5,0,0,0,1.977-.116l.247.859.612-.175-.368-1.283a2.636,2.636,0,1,0,.309-2.217Z" transform="translate(-989.734 -1613.983)" fill="#648558"/>
          </g>
          <path id="Trazado_26976" data-name="Trazado 26976" d="M1008.932,1624.925c-13.116,0-23.748-1.8-23.748-4.033l4.885,39.449c0,1.949,8.446,3.528,18.863,3.528s18.863-1.579,18.863-3.528l4.885-39.449C1032.681,1623.12,1022.048,1624.925,1008.932,1624.925Z" transform="translate(-985.184 -1596.114)" fill="#fff"/>
        </g>
        <path id="Trazado_26977" data-name="Trazado 26977" d="M995.449,1575.019l17.161,70.845a51.918,51.918,0,0,1,1.369,15.3l-3.4,57.279H987.637l-.5-62.763-24.249-80.053Z" transform="translate(-906.517 -1476.205)" fill="#36687a"/>
        <path id="Trazado_26978" data-name="Trazado 26978" d="M1002.327,1603.409l-6.878-28.39-32.566.608,15.989,52.784a5.473,5.473,0,0,0,10.377.306A110.605,110.605,0,0,1,1002.327,1603.409Z" transform="translate(-906.517 -1476.205)" fill="#27525e"/>
        <path id="Trazado_26979" data-name="Trazado 26979" d="M987.839,1575.019l-2.281,71.2a49.705,49.705,0,0,1-2.81,14.957l-18.61,52.731-23.6-5.427,16.789-59.354-2.52-74.106Z" transform="translate(-917.059 -1476.205)" fill="#36687a"/>
        <g id="Grupo_17128" data-name="Grupo 17128" transform="translate(28.911 98.814)">
          <path id="Trazado_26980" data-name="Trazado 26980" d="M972.621,1603.608c-2.274,4.511-6.186,9.182-10.761,11.183a11.184,11.184,0,0,1-9.959-.325,5.394,5.394,0,0,1-2.8-3.533c-1.507-5.185,1.37-13.9,4.552-21.058l-.322-9.471c-3.4,6.273-11.277,22.326-8.535,31.777a9.789,9.789,0,0,0,5.075,6.281,16.151,16.151,0,0,0,7.347,1.821,15.961,15.961,0,0,0,6.437-1.386c6.3-2.758,11.408-9.323,13.891-15.288Z" transform="translate(-944.229 -1572.478)" fill="#4c8d9e"/>
          <path id="Trazado_26981" data-name="Trazado 26981" d="M968.665,1596.169h-4.928c-.212.421-.443.84-.681,1.262l4.229,1.6A31.321,31.321,0,0,0,968.665,1596.169Z" transform="translate(-935.346 -1565.039)" fill="#4c8d9e"/>
          <path id="Trazado_26982" data-name="Trazado 26982" d="M989.425,1580.845l-.024.04,1.437,5.883c4.576,5.276,8.082,14.822,8.13,21.159.018,2.42-.514,3.612-.974,3.9a5.987,5.987,0,0,1-5.306.5c-3.256-1.11-6.42-4.439-8.6-8.925h-3.936c2.589,6.186,6.785,10.752,11.382,12.318a10.489,10.489,0,0,0,3.394.586,9.318,9.318,0,0,0,4.956-1.431c1.8-1.114,2.7-3.459,2.671-6.974C1002.493,1600.033,997.349,1585.584,989.425,1580.845Z" transform="translate(-927.281 -1572.27)" fill="#4c8d9e"/>
          <path id="Trazado_26983" data-name="Trazado 26983" d="M986.458,1580.845l-.024.04,1.437,5.883a27.5,27.5,0,0,1,2.92,4.176,29.971,29.971,0,0,0-.278-6.619A17.45,17.45,0,0,0,986.458,1580.845Z" transform="translate(-924.314 -1572.27)" fill="#4c8d9e"/>
          <path id="Trazado_26984" data-name="Trazado 26984" d="M984.085,1596.169h-3.936c.241.574.5,1.129.765,1.674l5.076,1.6A24.69,24.69,0,0,1,984.085,1596.169Z" transform="translate(-927.281 -1565.039)" fill="#4c8d9e"/>
          <path id="Trazado_26985" data-name="Trazado 26985" d="M978.918,1575.019H960.006A37.807,37.807,0,0,1,963.2,1594c5.954,1.5,2.381,12.271,1.912,12.15h28.475c.47.121,2.3-10.647,7.437-12.15a37.807,37.807,0,0,0-3.2-18.979Z" transform="translate(-936.785 -1575.019)" fill="#4c8d9e"/>
        </g>
        <path id="Trazado_26986" data-name="Trazado 26986" d="M973.972,1523.832l-2.27-.567s-.693-5.924-.693-9.389,2.395-4.033,5.734-3.278c2.27-4.348,8.634-2.73,9.642-.295,5.923-1.784,9.389,2.564,8.444,6.219s-5.168,2.2-5.168,2.2Z" transform="translate(-902.682 -1507.884)" fill="#232f33"/>
        <g id="Grupo_17134" data-name="Grupo 17134" transform="translate(91.463 91.337)">
          <path id="Trazado_26987" data-name="Trazado 26987" d="M1015.145,1620.706l-.069-2.14c1.861-2.223-1.573-5.374-2.87-6.437l-6.6-42.191H986.728l16.6,42.574-.144,4.6a4.8,4.8,0,0,0-.929,4.866,2.473,2.473,0,0,0,2.387,1.815h7.507A2.993,2.993,0,0,0,1015.145,1620.706Z" transform="translate(-986.728 -1569.939)" fill="#ff9ea0"/>
          <path id="Trazado_26988" data-name="Trazado 26988" d="M1007.421,1581.551l-1.816-11.612H986.728l4.691,12.028a62.826,62.826,0,0,1,11.385,3.32A3.434,3.434,0,0,0,1007.421,1581.551Z" transform="translate(-986.728 -1569.939)" fill="#d46e6c"/>
          <g id="Grupo_17129" data-name="Grupo 17129" transform="translate(20.591 46.059)">
            <path id="Trazado_26989" data-name="Trazado 26989" d="M1008.474,1604.163h-6.291a1.465,1.465,0,1,1,0-2.93h2.847v.726h-2.847a.74.74,0,1,0,0,1.479h6.291Z" transform="translate(-1000.718 -1601.232)" fill="#d46e6c"/>
          </g>
          <g id="Grupo_17130" data-name="Grupo 17130" transform="translate(16.459 46.814)">
            <rect id="Rectángulo_4291" data-name="Rectángulo 4291" width="4.556" height="0.724" fill="#d46e6c"/>
          </g>
          <g id="Grupo_17131" data-name="Grupo 17131" transform="translate(17.699 47.027)">
            <path id="Trazado_26990" data-name="Trazado 26990" d="M999.474,1608.3a7.474,7.474,0,0,1-.013-6.406l.661.3a6.87,6.87,0,0,0-.013,5.758Z" transform="translate(-998.753 -1601.89)" fill="#d46e6c"/>
          </g>
          <g id="Grupo_17132" data-name="Grupo 17132" transform="translate(21.112 48.473)">
            <path id="Trazado_26991" data-name="Trazado 26991" d="M1001.792,1607.832a7.366,7.366,0,0,1-.511-4.96l.7.166a6.748,6.748,0,0,0,.44,4.445Z" transform="translate(-1001.072 -1602.872)" fill="#d46e6c"/>
          </g>
          <g id="Grupo_17133" data-name="Grupo 17133" transform="translate(24.524 48.546)">
            <path id="Trazado_26992" data-name="Trazado 26992" d="M1004.108,1607.808a7.361,7.361,0,0,1-.527-4.887l.707.16a6.755,6.755,0,0,0,.455,4.377Z" transform="translate(-1003.39 -1602.922)" fill="#d46e6c"/>
          </g>
        </g>
        <path id="Trazado_26993" data-name="Trazado 26993" d="M985.826,1531.579s9.006,2.686,11.276,11.005,8.947,34.911,8.947,34.911,3.025,2.52,1.386,7.436h-21.61Z" transform="translate(-895.691 -1496.703)" fill="#faf1e2"/>
        <path id="Trazado_26994" data-name="Trazado 26994" d="M993.655,1557.961c.964-10.25-1.342-16.859-1.342-16.859l-6.486,13.6v25.738h9.839C995.312,1574.269,994.647,1564.574,993.655,1557.961Z" transform="translate(-895.691 -1492.209)" fill="#ddd5ca"/>
        <path id="Trazado_26995" data-name="Trazado 26995" d="M1009.383,1570.411c-.372-2.227-.315-4-2.548-3.764a83.363,83.363,0,0,1-17.949,0c-2.233-.238-2.629,1.453-3,3.68s-.371,4.174,2.123,4.444a91.538,91.538,0,0,0,19.709,0C1010.21,1574.5,1009.757,1572.633,1009.383,1570.411Z" transform="translate(-895.748 -1480.166)" fill="#ddd5ca"/>
        <path id="Trazado_26996" data-name="Trazado 26996" d="M994.379,1529.963l10.686,4.348a9.624,9.624,0,0,1,5.9,10.256l-6.642,47.139a5.106,5.106,0,0,1,.923,5.609c-1.538,3.076-8.3,2.614-22.759,2.614H951.73c-5.69,0-.923-8.223-.923-8.223l5.571-52.948a10.85,10.85,0,0,1,8.931-9.552l10.569-1.837Z" transform="translate(-913.097 -1498.689)" fill="#faf1e2"/>
        <path id="Trazado_26997" data-name="Trazado 26997" d="M961.676,1545.558,954,1552.776l-3.193,30.347s-1.99,3.437-1.86,5.867C965.051,1573.386,961.676,1545.558,961.676,1545.558Z" transform="translate(-913.096 -1490.106)" fill="#ddd5ca"/>
        <path id="Trazado_26998" data-name="Trazado 26998" d="M972.871,1528.466c-8.786,2.1-17.986,6.008-22.522,16.974s-14.747,38.439-14.747,38.439h21.972l11.432-33.273Z" transform="translate(-919.389 -1498.172)" fill="#faf1e2"/>
        <path id="Trazado_26999" data-name="Trazado 26999" d="M975.5,1519.774s5.294-1.26,5.356-5.293c3.844,2.016,5.988,0,5.988,0s1.2,1.953,4.6,1.133l-2.395,6.239s.947,4.159-.945,6.238a6.823,6.823,0,0,1-4.632,2.08l-1.422,4.529,3.7,1.344s-1.612,7.361-7.221,7.172-9.074-3.4-11.279-9.767l3.655-.5Z" transform="translate(-904.46 -1504.771)" fill="#ff9ea0"/>
        <path id="Trazado_27000" data-name="Trazado 27000" d="M980.8,1527.141c-2.992.315-7.025-2.52-7.4-6.238-2.458,7.939,5.166,13.359,5.166,13.359Z" transform="translate(-901.788 -1501.74)" fill="#d46e6c"/>
        <g id="Grupo_17135" data-name="Grupo 17135" transform="translate(77.62 12.468)">
          <path id="Trazado_27001" data-name="Trazado 27001" d="M978.7,1517.74c-.135.689-.543,1.189-.913,1.117s-.558-.689-.424-1.379.543-1.189.913-1.117S978.836,1517.05,978.7,1517.74Z" transform="translate(-977.323 -1516.354)" fill="#191d28"/>
          <path id="Trazado_27002" data-name="Trazado 27002" d="M982.077,1518.4c-.134.69-.543,1.189-.911,1.119s-.559-.69-.424-1.379.543-1.189.911-1.117S982.212,1517.71,982.077,1518.4Z" transform="translate(-975.73 -1516.043)" fill="#191d28"/>
        </g>
        <path id="Trazado_27003" data-name="Trazado 27003" d="M980.5,1517.207l-.6,2.256a1.222,1.222,0,0,1,.506,1.216c-.207.709-1.458.222-1.458.222" transform="translate(-898.939 -1503.484)" fill="none" stroke="#ad403d" stroke-miterlimit="10" stroke-width="0.492"/>
        <path id="Trazado_27004" data-name="Trazado 27004" d="M982.2,1521.291l-5.717-2.237s-.818,4.853,1.607,5.388S982.2,1521.291,982.2,1521.291Z" transform="translate(-900.164 -1502.613)" fill="#fff"/>
        <path id="Trazado_27005" data-name="Trazado 27005" d="M980.985,1516.4s1.386-.252,1.922.63" transform="translate(-897.975 -1503.882)" fill="none" stroke="#6a4a28" stroke-miterlimit="10" stroke-width="0.683"/>
        <path id="Trazado_27006" data-name="Trazado 27006" d="M977.367,1515.553a3.059,3.059,0,0,1,2.847.851" transform="translate(-899.682 -1504.299)" fill="none" stroke="#6a4a28" stroke-miterlimit="10" stroke-width="0.683"/>
        <path id="Trazado_27007" data-name="Trazado 27007" d="M974.624,1517.725a2.16,2.16,0,1,1-3.313-.595A2.407,2.407,0,0,1,974.624,1517.725Z" transform="translate(-902.834 -1503.726)" fill="#ff9ea0"/>
        <g id="Grupo_17136" data-name="Grupo 17136" transform="translate(60.489 28.902)">
          <path id="Trazado_27008" data-name="Trazado 27008" d="M979.432,1539.365c-.3,0-.606-.012-.923-.04-8.5-.729-11.079-6.357-12.826-11.576l.687-.23c1.674,5,4.135,10.393,12.2,11.085,7.746.681,9.5-7.611,9.568-7.963l.709.141C988.832,1530.873,987.042,1539.365,979.432,1539.365Z" transform="translate(-965.684 -1527.52)" fill="#ddd5ca"/>
        </g>
        <g id="Grupo_17143" data-name="Grupo 17143" transform="translate(0 139.168)">
          <path id="Trazado_27009" data-name="Trazado 27009" d="M924.587,1627.214h47.5l-7.171-14.488a18.5,18.5,0,0,0-33.153,0Z" transform="translate(-924.587 -1602.436)" fill="none" stroke="#191d28" stroke-linecap="round" stroke-linejoin="round" stroke-width="0.748"/>
          <ellipse id="Elipse_1008" data-name="Elipse 1008" cx="23.748" cy="4.033" rx="23.748" ry="4.033" transform="translate(0 20.745)" fill="#191d28"/>
          <g id="Grupo_17137" data-name="Grupo 17137" transform="translate(24.109 11.391)">
            <path id="Trazado_27010" data-name="Trazado 27010" d="M954.3,1617.842a6.742,6.742,0,1,1-8-5.187A6.742,6.742,0,0,1,954.3,1617.842Z" transform="translate(-940.967 -1609.076)" fill="#990e0e"/>
            <path id="Trazado_27011" data-name="Trazado 27011" d="M946.524,1611.23a2.663,2.663,0,0,0-.578,1.647l-.553-2.589-.623.133.533,2.5a2.9,2.9,0,0,0-1.042-.706,1.236,1.236,0,1,0-.711,1.752,2.494,2.494,0,0,0,1.981.021l.187.876.623-.134-.278-1.3a2.637,2.637,0,1,0,.462-2.19Z" transform="translate(-940.47 -1610.176)" fill="#648558"/>
          </g>
          <g id="Grupo_17138" data-name="Grupo 17138" transform="translate(33.896 14.668)">
            <path id="Trazado_27012" data-name="Trazado 27012" d="M961.043,1622.361a6.742,6.742,0,1,1-5.8-7.57A6.741,6.741,0,0,1,961.043,1622.361Z" transform="translate(-947.617 -1611.303)" fill="#b91010"/>
            <path id="Trazado_27013" data-name="Trazado 27013" d="M955.321,1613.753a2.66,2.66,0,0,0-1.1,1.357l.347-2.624-.631-.084-.336,2.53a2.884,2.884,0,0,0-.745-1.016,1.236,1.236,0,1,0-1.257,1.411,2.491,2.491,0,0,0,1.859.684l-.118.888.631.084.175-1.323a2.639,2.639,0,1,0,1.172-1.908Z" transform="translate(-946.168 -1612.402)" fill="#648558"/>
          </g>
          <g id="Grupo_17139" data-name="Grupo 17139" transform="translate(23.748 16.387)">
            <circle id="Elipse_1009" data-name="Elipse 1009" cx="6.743" cy="6.743" r="6.743" transform="translate(0 3.476)" fill="#dc3d3d"/>
            <path id="Trazado_27014" data-name="Trazado 27014" d="M947.623,1614.728a2.664,2.664,0,0,0-.91,1.49v-2.648h-.637v2.552a2.891,2.891,0,0,0-.871-.908,1.237,1.237,0,1,0-1.061,1.565,2.5,2.5,0,0,0,1.933.434v.895h.637v-1.335a2.638,2.638,0,1,0,.91-2.044Z" transform="translate(-939.652 -1613.57)" fill="#648558"/>
          </g>
          <g id="Grupo_17140" data-name="Grupo 17140" transform="translate(13.18 17.582)">
            <circle id="Elipse_1010" data-name="Elipse 1010" cx="6.743" cy="6.743" r="6.743" transform="translate(0 4.012) rotate(-6.665)" fill="#990e0e"/>
            <path id="Trazado_27015" data-name="Trazado 27015" d="M942.555,1615.916a2.66,2.66,0,0,0-1.279,1.188l.715-2.549-.614-.172-.689,2.458a2.879,2.879,0,0,0-.595-1.11,1.236,1.236,0,1,0-1.442,1.22,2.49,2.49,0,0,0,1.743.939l-.241.862.614.171.359-1.285a2.64,2.64,0,1,0,1.429-1.722Z" transform="translate(-931.447 -1614.382)" fill="#648558"/>
          </g>
          <g id="Grupo_17141" data-name="Grupo 17141" transform="translate(0.426 14.608)">
            <path id="Trazado_27016" data-name="Trazado 27016" d="M938.1,1619.612a6.743,6.743,0,1,1-8.344-4.617A6.743,6.743,0,0,1,938.1,1619.612Z" transform="translate(-924.877 -1611.243)" fill="#990e0e"/>
            <path id="Trazado_27017" data-name="Trazado 27017" d="M929.976,1613.544a2.66,2.66,0,0,0-.462,1.684l-.731-2.545-.612.175.705,2.454a2.919,2.919,0,0,0-1.089-.633,1.237,1.237,0,1,0-.587,1.8,2.5,2.5,0,0,0,1.978-.116l.246.859.612-.177-.368-1.282a2.638,2.638,0,1,0,.309-2.217Z" transform="translate(-924.555 -1612.361)" fill="#648558"/>
          </g>
          <g id="Grupo_17142" data-name="Grupo 17142" transform="translate(7.17 14.608)">
            <path id="Trazado_27018" data-name="Trazado 27018" d="M942.684,1619.612a6.743,6.743,0,1,1-8.342-4.617A6.743,6.743,0,0,1,942.684,1619.612Z" transform="translate(-929.458 -1611.243)" fill="#b91010"/>
            <path id="Trazado_27019" data-name="Trazado 27019" d="M934.558,1613.544a2.659,2.659,0,0,0-.462,1.684l-.732-2.545-.612.175.705,2.454a2.919,2.919,0,0,0-1.089-.633,1.236,1.236,0,1,0-.586,1.8,2.5,2.5,0,0,0,1.977-.116l.247.859.612-.177-.369-1.282a2.638,2.638,0,1,0,.309-2.217Z" transform="translate(-929.136 -1612.361)" fill="#648558"/>
          </g>
          <path id="Trazado_27020" data-name="Trazado 27020" d="M948.335,1623.3c-13.116,0-23.748-1.8-23.748-4.033l4.885,39.449c0,1.949,8.445,3.528,18.863,3.528s18.862-1.579,18.862-3.528l4.885-39.449C972.082,1621.5,961.45,1623.3,948.335,1623.3Z" transform="translate(-924.587 -1594.493)" fill="#6c707e"/>
        </g>
        <g id="Grupo_17150" data-name="Grupo 17150" transform="translate(0 139.168)">
          <path id="Trazado_27021" data-name="Trazado 27021" d="M924.587,1627.214h47.5l-7.171-14.488a18.5,18.5,0,0,0-33.153,0Z" transform="translate(-924.587 -1602.436)" fill="none" stroke="#fff" stroke-linecap="round" stroke-linejoin="round" stroke-width="0.748"/>
          <ellipse id="Elipse_1011" data-name="Elipse 1011" cx="23.748" cy="4.033" rx="23.748" ry="4.033" transform="translate(0 20.745)" fill="#191d28"/>
          <g id="Grupo_17144" data-name="Grupo 17144" transform="translate(24.109 11.391)">
            <path id="Trazado_27022" data-name="Trazado 27022" d="M954.3,1617.842a6.742,6.742,0,1,1-8-5.187A6.742,6.742,0,0,1,954.3,1617.842Z" transform="translate(-940.967 -1609.076)" fill="#990e0e"/>
            <path id="Trazado_27023" data-name="Trazado 27023" d="M946.524,1611.23a2.663,2.663,0,0,0-.578,1.647l-.553-2.589-.623.133.533,2.5a2.9,2.9,0,0,0-1.042-.706,1.236,1.236,0,1,0-.711,1.752,2.494,2.494,0,0,0,1.981.021l.187.876.623-.134-.278-1.3a2.637,2.637,0,1,0,.462-2.19Z" transform="translate(-940.47 -1610.176)" fill="#648558"/>
          </g>
          <g id="Grupo_17145" data-name="Grupo 17145" transform="translate(33.896 14.668)">
            <path id="Trazado_27024" data-name="Trazado 27024" d="M961.043,1622.361a6.742,6.742,0,1,1-5.8-7.57A6.741,6.741,0,0,1,961.043,1622.361Z" transform="translate(-947.617 -1611.303)" fill="#b91010"/>
            <path id="Trazado_27025" data-name="Trazado 27025" d="M955.321,1613.753a2.66,2.66,0,0,0-1.1,1.357l.347-2.624-.631-.084-.336,2.53a2.884,2.884,0,0,0-.745-1.016,1.236,1.236,0,1,0-1.257,1.411,2.491,2.491,0,0,0,1.859.684l-.118.888.631.084.175-1.323a2.639,2.639,0,1,0,1.172-1.908Z" transform="translate(-946.168 -1612.402)" fill="#648558"/>
          </g>
          <g id="Grupo_17146" data-name="Grupo 17146" transform="translate(23.748 16.387)">
            <circle id="Elipse_1012" data-name="Elipse 1012" cx="6.743" cy="6.743" r="6.743" transform="translate(0 3.476)" fill="#dc3d3d"/>
            <path id="Trazado_27026" data-name="Trazado 27026" d="M947.623,1614.728a2.664,2.664,0,0,0-.91,1.49v-2.648h-.637v2.552a2.891,2.891,0,0,0-.871-.908,1.237,1.237,0,1,0-1.061,1.565,2.5,2.5,0,0,0,1.933.434v.895h.637v-1.335a2.638,2.638,0,1,0,.91-2.044Z" transform="translate(-939.652 -1613.57)" fill="#648558"/>
          </g>
          <g id="Grupo_17147" data-name="Grupo 17147" transform="translate(13.18 17.582)">
            <circle id="Elipse_1013" data-name="Elipse 1013" cx="6.743" cy="6.743" r="6.743" transform="translate(0 4.012) rotate(-6.665)" fill="#990e0e"/>
            <path id="Trazado_27027" data-name="Trazado 27027" d="M942.555,1615.916a2.66,2.66,0,0,0-1.279,1.188l.715-2.549-.614-.172-.689,2.458a2.879,2.879,0,0,0-.595-1.11,1.236,1.236,0,1,0-1.442,1.22,2.49,2.49,0,0,0,1.743.939l-.241.862.614.171.359-1.285a2.64,2.64,0,1,0,1.429-1.722Z" transform="translate(-931.447 -1614.382)" fill="#648558"/>
          </g>
          <g id="Grupo_17148" data-name="Grupo 17148" transform="translate(0.426 14.608)">
            <path id="Trazado_27028" data-name="Trazado 27028" d="M938.1,1619.612a6.743,6.743,0,1,1-8.344-4.617A6.743,6.743,0,0,1,938.1,1619.612Z" transform="translate(-924.877 -1611.243)" fill="#990e0e"/>
            <path id="Trazado_27029" data-name="Trazado 27029" d="M929.976,1613.544a2.66,2.66,0,0,0-.462,1.684l-.731-2.545-.612.175.705,2.454a2.919,2.919,0,0,0-1.089-.633,1.237,1.237,0,1,0-.587,1.8,2.5,2.5,0,0,0,1.978-.116l.246.859.612-.177-.368-1.282a2.638,2.638,0,1,0,.309-2.217Z" transform="translate(-924.555 -1612.361)" fill="#648558"/>
          </g>
          <g id="Grupo_17149" data-name="Grupo 17149" transform="translate(7.17 14.608)">
            <path id="Trazado_27030" data-name="Trazado 27030" d="M942.684,1619.612a6.743,6.743,0,1,1-8.342-4.617A6.743,6.743,0,0,1,942.684,1619.612Z" transform="translate(-929.458 -1611.243)" fill="#b91010"/>
            <path id="Trazado_27031" data-name="Trazado 27031" d="M934.558,1613.544a2.659,2.659,0,0,0-.462,1.684l-.732-2.545-.612.175.705,2.454a2.919,2.919,0,0,0-1.089-.633,1.236,1.236,0,1,0-.586,1.8,2.5,2.5,0,0,0,1.977-.116l.247.859.612-.177-.369-1.282a2.638,2.638,0,1,0,.309-2.217Z" transform="translate(-929.136 -1612.361)" fill="#648558"/>
          </g>
          <path id="Trazado_27032" data-name="Trazado 27032" d="M948.335,1623.3c-13.116,0-23.748-1.8-23.748-4.033l4.885,39.449c0,1.949,8.445,3.528,18.863,3.528s18.862-1.579,18.862-3.528l4.885-39.449C972.082,1621.5,961.45,1623.3,948.335,1623.3Z" transform="translate(-924.587 -1594.493)" fill="#fff"/>
        </g>
        <path id="Trazado_27033" data-name="Trazado 27033" d="M955.229,1568.683l-5.47,43.355a21.267,21.267,0,0,1,.863,8.146,4.017,4.017,0,0,1-3.986,3.6h-5.222a4.6,4.6,0,0,1-4.586-3.952c-.168-1.307.055-2.523,1.3-2.885,0,0-.787-3.325.992-4.507a2.475,2.475,0,0,0,1.186-2.315l-4.7-41.448Z" transform="translate(-919.389 -1479.195)" fill="#ff9ea0"/>
        <path id="Trazado_27034" data-name="Trazado 27034" d="M945.038,1578.87a89.243,89.243,0,0,0,9.592-5.436l.6-4.751H935.6l.6,5.255A6.224,6.224,0,0,0,945.038,1578.87Z" transform="translate(-919.389 -1479.195)" fill="#ff9ea0"/>
        <path id="Trazado_27035" data-name="Trazado 27035" d="M959.934,1568.536c.015-2.424.415-4.355-2.061-4.094a90.847,90.847,0,0,1-19.536,0c-2.385-.261-3.135,1.579-3.964,4s-1.2,4.543,1.469,4.837a99.532,99.532,0,0,0,21.449,0C960.058,1572.987,959.92,1570.955,959.934,1568.536Z" transform="translate(-920.256 -1481.208)" fill="#ddd5ca"/>
        <path id="Trazado_27036" data-name="Trazado 27036" d="M978.3,1670.037h28.491l-2.355,28.748s11.7,4.218,16.991,9.711a1.933,1.933,0,0,1-1.413,3.257H979.478Z" transform="translate(-899.241 -1431.37)" fill="#ea9f26"/>
        <path id="Trazado_27037" data-name="Trazado 27037" d="M943.077,1661.473l27.55,7.259-9.6,27.2s10.238,7.059,13.956,13.719a1.932,1.932,0,0,1-2.2,2.789l-39.2-10.328Z" transform="translate(-920.342 -1435.411)" fill="#ea9f26"/>
      </g>
      <g id="Grupo_17171" data-name="Grupo 17171" transform="translate(273.015 20.535)">
        <path id="Trazado_27038" data-name="Trazado 27038" d="M1131.393,1680.684l-.337,11.51-10.334,5.63s-6.806,1.344-6.806,4.452h27.979c2.1,0,1.176-6.553-.5-9.829l1.718-11.763Z" transform="translate(-1108.266 -1446.881)" fill="#ff9ea0"/>
        <path id="Trazado_27039" data-name="Trazado 27039" d="M1142.226,1690.39c-7.636,1.952-11.916.2-13.71-.946l-7.793,4.246s-6.806,1.344-6.806,4.453h27.979C1143.609,1698.143,1143.308,1693.777,1142.226,1690.39Z" transform="translate(-1108.266 -1442.748)" fill="#ea9f26"/>
        <path id="Trazado_27040" data-name="Trazado 27040" d="M1161.355,1680.684l1.839,11.51-10.335,5.63s-6.806,1.344-6.806,4.452h27.98c2.1,0,1.176-6.553-.505-9.829l-.455-11.763Z" transform="translate(-1093.102 -1446.881)" fill="#ff9ea0"/>
        <path id="Trazado_27041" data-name="Trazado 27041" d="M1174.362,1690.39c-7.636,1.952-11.916.2-13.709-.946l-7.8,4.246s-6.806,1.344-6.806,4.453h27.98C1175.747,1698.143,1175.445,1693.777,1174.362,1690.39Z" transform="translate(-1093.102 -1442.748)" fill="#ea9f26"/>
        <g id="Grupo_17152" data-name="Grupo 17152" transform="translate(18.925 92.815)">
          <path id="Trazado_27042" data-name="Trazado 27042" d="M1125.96,1584.895l-3.025,142.5h20.5s.792-5.4,1.008-11.534a56.723,56.723,0,0,1,1.384-10.89c1.95-8.359,2.438-15.677,1.975-20.151a27.953,27.953,0,0,1,.823-9.92,76.91,76.91,0,0,0,2.024-22.842,38.192,38.192,0,0,1,0-4.59l3.709-62.572Z" transform="translate(-1122.935 -1584.895)" fill="#36687a"/>
          <path id="Trazado_27043" data-name="Trazado 27043" d="M1123,1679.656l-.065,3.025h20.5s.171-1.169.375-3.025Z" transform="translate(-1122.935 -1540.181)" fill="#7793e2"/>
        </g>
        <g id="Grupo_17153" data-name="Grupo 17153" transform="translate(42.136 92.815)">
          <path id="Trazado_27044" data-name="Trazado 27044" d="M1138.7,1584.895l20.89,142.5h20.5s-.115-5.4-.929-11.534a55.472,55.472,0,0,1-.443-10.889c.548-8.36-.194-15.678-1.407-20.153a27.939,27.939,0,0,1-.842-9.92,77.046,77.046,0,0,0-1.81-22.842,40.089,40.089,0,0,1-.77-4.59l-6.791-62.572Z" transform="translate(-1138.705 -1584.895)" fill="#36687a"/>
          <path id="Trazado_27045" data-name="Trazado 27045" d="M1152.6,1679.656l.443,3.025h20.5s-.027-1.169-.134-3.025Z" transform="translate(-1132.15 -1540.181)" fill="#7793e2"/>
        </g>
        <g id="Grupo_17156" data-name="Grupo 17156" transform="translate(58.351 95.034)">
          <g id="Grupo_17154" data-name="Grupo 17154" transform="translate(1.827 0)">
            <rect id="Rectángulo_4292" data-name="Rectángulo 4292" width="0.669" height="138.007" transform="translate(0 0.071) rotate(-6.119)" fill="#27525e"/>
          </g>
          <g id="Grupo_17155" data-name="Grupo 17155" transform="translate(0 0)">
            <rect id="Rectángulo_4293" data-name="Rectángulo 4293" width="0.669" height="138.007" transform="translate(0 0.071) rotate(-6.119)" fill="#27525e"/>
          </g>
        </g>
        <path id="Trazado_27046" data-name="Trazado 27046" d="M1125.6,1584.895l-1.888,89.025c6.847-10.365,16.026-20.29,22-26.32a18.371,18.371,0,0,0,5.277-11.846l3.014-50.86Z" transform="translate(-1103.646 -1492.08)" fill="#27525e"/>
        <path id="Trazado_27047" data-name="Trazado 27047" d="M1126.521,1554.757l-14.3,26.755a8.264,8.264,0,0,0,5.34,11.928l8.964,2.175,13.632-31.2Z" transform="translate(-1109.53 -1506.301)" fill="#ff9ea0"/>
        <path id="Trazado_27048" data-name="Trazado 27048" d="M1122.719,1554.757l-3.427,6.408c.7,4.38,3.039,13.488,10.589,18.057l6.47-14.807Z" transform="translate(-1105.728 -1506.301)" fill="#b5302c"/>
        <path id="Trazado_27049" data-name="Trazado 27049" d="M1144.849,1522.731s4.538-2.016,8.319,0,2.835,5.608,5.041,7.688,3.655,2.71,4.475,5.609-.253,4.726,1.638,6.9,4.474,4.064,4.978,8.411-2.08,7.814-.315,10.839h-38.314s-1.4-5.125,1.891-8c2.52-2.2.252-7.309,2.9-10.839a23.759,23.759,0,0,1,1.765-11.217s-1.576-3.088-.505-5.8S1140.059,1522.48,1144.849,1522.731Z" transform="translate(-1100.499 -1521.835)" fill="#232f33"/>
        <path id="Trazado_27050" data-name="Trazado 27050" d="M1119.9,1559.457a47.225,47.225,0,0,1,9.746-9.514c6.638-5.02,17.551-8.718,16.968-8.718h11.767s19.779,6.9,30.688,18.751l-12.539,20.85,2.941,27.531h-54.7l5.378-34.2C1130.139,1574.093,1119.54,1564.435,1119.9,1559.457Z" transform="translate(-1105.445 -1512.686)" fill="#faf1e2"/>
        <path id="Trazado_27051" data-name="Trazado 27051" d="M1157.378,1568.78l1.47,6.036,12.539-20.851-2.623.931Z" transform="translate(-1087.758 -1506.674)" fill="#7a6d4c"/>
        <g id="Grupo_17157" data-name="Grupo 17157" transform="translate(44.95 37.761)">
          <rect id="Rectángulo_4294" data-name="Rectángulo 4294" width="0.67" height="22.874" fill="#ddd5ca"/>
        </g>
        <path id="Trazado_27052" data-name="Trazado 27052" d="M1126.979,1584.895l-6.088,36.134a8.352,8.352,0,0,0,8.236,9.741h35.1a7.962,7.962,0,0,0,7.945-7.437l2.535-38.438Z" transform="translate(-1105.03 -1492.08)" fill="#a37038"/>
        <path id="Trazado_27053" data-name="Trazado 27053" d="M1121.96,1611.366c14.193-16.164,37.691-7.374,51.746-19.822l.439-6.65H1126.42Z" transform="translate(-1104.47 -1492.08)" fill="#976935"/>
        <path id="Trazado_27054" data-name="Trazado 27054" d="M1168.763,1554.6s10.923,18.548,13.771,29.116c2.832,10.5-1.4,18.545-10,16.676a97.548,97.548,0,0,1-12.256-3.257l-1.008-12.1,6.679-.125-8.569-16.428S1159.774,1557.975,1168.763,1554.6Z" transform="translate(-1087.758 -1506.376)" fill="#ff9ea0"/>
        <path id="Trazado_27055" data-name="Trazado 27055" d="M1166.18,1577.966a11.514,11.514,0,0,1,.511,6.533,5.448,5.448,0,0,1-6.829,3.933l-1.082-.3-.561-13.063,2.655-.284A5.123,5.123,0,0,1,1166.18,1577.966Z" transform="translate(-1087.361 -1496.867)" fill="#26304a"/>
        <path id="Trazado_27056" data-name="Trazado 27056" d="M1165.947,1580.458l3.8-.14a1.993,1.993,0,0,0,1.292-3.443l-13.665-12.845Z" transform="translate(-1087.758 -1501.925)" fill="#d46e6c"/>
        <path id="Trazado_27057" data-name="Trazado 27057" d="M1141.973,1525.527a9.5,9.5,0,0,0,7.121,7.182v5.8s.318,7.237,3.044,11.189a1.481,1.481,0,0,1-.836,2.259,16.467,16.467,0,0,0-8.269,4.89,22.254,22.254,0,0,0-5.281-5.3,1.41,1.41,0,0,1-.257-2.068,10.8,10.8,0,0,0,2.777-6.938s-3.214-1.008-3.908-3.97a8.741,8.741,0,0,1,.315-4.348l-.4-4.223A17.7,17.7,0,0,0,1141.973,1525.527Z" transform="translate(-1097.748 -1520.093)" fill="#ff9ea0"/>
        <ellipse id="Elipse_1014" data-name="Elipse 1014" cx="0.58" cy="0.929" rx="0.58" ry="0.929" transform="translate(40.013 11.672)" fill="#191d28"/>
        <path id="Trazado_27058" data-name="Trazado 27058" d="M1141.377,1530.7c0,.512-.26.929-.58.929s-.581-.417-.581-.929.26-.93.581-.93S1141.377,1530.182,1141.377,1530.7Z" transform="translate(-1095.856 -1518.093)" fill="#191d28"/>
        <path id="Trazado_27059" data-name="Trazado 27059" d="M1139.049,1530l-.281,2.252a.938.938,0,0,0,.932,1.055h.659" transform="translate(-1096.543 -1517.982)" fill="none" stroke="#ad403d" stroke-miterlimit="10" stroke-width="0.492"/>
        <g id="Grupo_17158" data-name="Grupo 17158" transform="translate(39.399 10.618)">
          <path id="Trazado_27060" data-name="Trazado 27060" d="M1139.846,1529.315a3.4,3.4,0,0,1,2.657,0" transform="translate(-1135.429 -1529.049)" fill="none" stroke="#191d28" stroke-miterlimit="10" stroke-width="0.492"/>
          <path id="Trazado_27061" data-name="Trazado 27061" d="M1139.5,1529.315a3.4,3.4,0,0,0-2.657,0" transform="translate(-1136.845 -1529.049)" fill="none" stroke="#191d28" stroke-miterlimit="10" stroke-width="0.492"/>
        </g>
        <path id="Trazado_27062" data-name="Trazado 27062" d="M1139.4,1537.763a9.428,9.428,0,0,1-1.35,4.889,4.942,4.942,0,0,0,2.925,2.546c3.151.851,5.419-5.923,5.293-9.546C1144.757,1537.227,1141.323,1538.488,1139.4,1537.763Z" transform="translate(-1096.877 -1515.315)" fill="#d46e6c"/>
        <path id="Trazado_27063" data-name="Trazado 27063" d="M1147.5,1533.081c-.612,1.328-1.878,2.049-2.826,1.61s-1.22-1.868-.606-3.2,1.878-2.047,2.826-1.61S1148.117,1531.754,1147.5,1533.081Z" transform="translate(-1094.191 -1518.097)" fill="#ff9ea0"/>
        <path id="Trazado_27064" data-name="Trazado 27064" d="M1138.5,1533.673a8.808,8.808,0,0,0,5.605-1.051" transform="translate(-1096.665 -1516.745)" fill="none" stroke="#ad403d" stroke-miterlimit="10" stroke-width="0.492"/>
        <path id="Trazado_27065" data-name="Trazado 27065" d="M1146.2,1533.346a.724.724,0,1,1-.724-.724A.725.725,0,0,1,1146.2,1533.346Z" transform="translate(-1093.716 -1516.745)" fill="#fff"/>
        <g id="Grupo_17168" data-name="Grupo 17168" transform="translate(0 41.496)">
          <g id="Grupo_17159" data-name="Grupo 17159" transform="translate(48.824 2.483)">
            <path id="Trazado_27066" data-name="Trazado 27066" d="M1161.236,1551.9c2.785,1.057,2.289,5.774.776,7.371,2.1,1.679.791,5.362-2.515,7.225,2.852,1.849-4.645,8.887-4.645,8.887l-11.6-.826s1.308-12.372,5.489-11.013c.5-4.611,3.743-8.7,6.114-7.243C1155.459,1553.722,1158.8,1550.975,1161.236,1551.9Z" transform="translate(-1143.249 -1551.715)" fill="#aab367"/>
            <line id="Línea_105" data-name="Línea 105" x1="12.601" y2="23.045" transform="translate(5.387 0.183)" fill="none" stroke="#ece0c3" stroke-miterlimit="10" stroke-width="0.219"/>
          </g>
          <g id="Grupo_17160" data-name="Grupo 17160" transform="translate(22.383 2.483)">
            <path id="Trazado_27067" data-name="Trazado 27067" d="M1127.284,1551.9c-2.783,1.057-2.287,5.774-.776,7.371-2.1,1.679-.789,5.362,2.517,7.225-2.853,1.849,4.644,8.887,4.644,8.887l11.6-.826s-1.307-12.372-5.487-11.013c-.5-4.611-3.743-8.7-6.116-7.243C1133.063,1553.722,1129.722,1550.975,1127.284,1551.9Z" transform="translate(-1125.284 -1551.715)" fill="#475e3f"/>
            <line id="Línea_106" data-name="Línea 106" x2="12.601" y2="23.045" transform="translate(2.001 0.183)" fill="none" stroke="#aab367" stroke-miterlimit="10" stroke-width="0.219"/>
          </g>
          <g id="Grupo_17162" data-name="Grupo 17162" transform="translate(0 0)">
            <ellipse id="Elipse_1015" data-name="Elipse 1015" cx="10.335" cy="19.708" rx="10.335" ry="19.708" transform="translate(0 9.427) rotate(-27.134)" fill="#648558"/>
            <g id="Grupo_17161" data-name="Grupo 17161" transform="translate(5.377 4.093)">
              <path id="Trazado_27068" data-name="Trazado 27068" d="M1135.592,1586.092a4.2,4.2,0,0,1-.227-.48,2.18,2.18,0,0,1-.149-.6,2.5,2.5,0,0,0-.177-.708,3.6,3.6,0,0,1-.179-.559,3.718,3.718,0,0,0-.2-.623.6.6,0,0,0-.552-.427c-.112-.013-.144-.016-.214-.172a4.379,4.379,0,0,0-.271-.536,4.3,4.3,0,0,1-.247-.486,1.129,1.129,0,0,1-.026-.658,1.554,1.554,0,0,0-.057-.9.7.7,0,0,0-.55-.455.289.289,0,0,1-.259-.212,1.1,1.1,0,0,1-.081-.583,1.551,1.551,0,0,0-.118-.78.756.756,0,0,0-.561-.467.357.357,0,0,1-.29-.234,2.735,2.735,0,0,1-.193-.533,3.339,3.339,0,0,0-.222-.606,1,1,0,0,1-.093-.542,1.449,1.449,0,0,0-.135-.737c-.131-.275-.2-.4-.265-.54s-.128-.249-.247-.5l-.224-.473c-.071-.152-.131-.281-.275-.576a2.217,2.217,0,0,1-.184-.509,2.637,2.637,0,0,0-.218-.6,2.82,2.82,0,0,1-.2-.5,3.148,3.148,0,0,0-.23-.577c-.135-.27-.2-.4-.275-.529s-.133-.246-.258-.49a1.491,1.491,0,0,0-.421-.525,1.1,1.1,0,0,1-.318-.391,1.57,1.57,0,0,0-.427-.531,1.131,1.131,0,0,1-.325-.4,1.152,1.152,0,0,1-.146-.479,1.58,1.58,0,0,0-.2-.633,1.028,1.028,0,0,1-.137-.466,1.447,1.447,0,0,0-.188-.634,1.975,1.975,0,0,0-.4-.529,1.591,1.591,0,0,1-.325-.428,1.3,1.3,0,0,0-.553-.534.892.892,0,0,1-.4-.372c-.084-.153-.046-.225.038-.381a.731.731,0,0,0,.037-.786,2.709,2.709,0,0,0-.38-.524,2.3,2.3,0,0,1-.325-.45.265.265,0,0,1,.006-.327.668.668,0,0,0,0-.731,1.526,1.526,0,0,0-.991-.543c-.3-.082-.62-.168-.717-.336-.047-.082-.057-.1.157-.274.172-.137.493-.393.25-.79a1.777,1.777,0,0,0-.542-.552,1.393,1.393,0,0,1-.43-.431,1.8,1.8,0,0,0-.573-.564,1.346,1.346,0,0,1-.449-.433c-.063-.107-.063-.107.04-.207a.506.506,0,0,0,.106-.72,2.757,2.757,0,0,1-.234-.439,3.154,3.154,0,0,0-.274-.5,3.035,3.035,0,0,0-.437-.535,2.515,2.515,0,0,1-.383-.466,3.011,3.011,0,0,0-.453-.543c-.066-.065-.13-.128-.2-.2-.2-.019-.39-.031-.581-.034v0a3.03,3.03,0,0,0,.459.554,2.5,2.5,0,0,1,.391.465,3.078,3.078,0,0,0,.441.54,2.6,2.6,0,0,1,.38.461,2.7,2.7,0,0,1,.24.442,3.083,3.083,0,0,0,.266.5.353.353,0,0,1,.037.077.456.456,0,0,1-.075.082.542.542,0,0,0-.113.758,1.755,1.755,0,0,0,.578.573,1.362,1.362,0,0,1,.445.427,1.816,1.816,0,0,0,.547.562,1.33,1.33,0,0,1,.444.468c-.006.034-.11.116-.168.162-.179.143-.515.411-.266.846a1.5,1.5,0,0,0,.988.547c.306.081.621.168.721.337.078.131.056.174-.009.3a.7.7,0,0,0,0,.754,2.634,2.634,0,0,0,.381.526,2.252,2.252,0,0,1,.322.446c.074.131.05.19-.038.353a.762.762,0,0,0-.038.811,1.323,1.323,0,0,0,.561.542.876.876,0,0,1,.387.364,2.037,2.037,0,0,0,.4.531,1.527,1.527,0,0,1,.324.424.979.979,0,0,1,.135.461,1.461,1.461,0,0,0,.188.636,1.134,1.134,0,0,1,.146.475,1.608,1.608,0,0,0,.2.635,1.576,1.576,0,0,0,.43.532,1.172,1.172,0,0,1,.321.4,1.5,1.5,0,0,0,.425.527,1.09,1.09,0,0,1,.312.387c.126.249.194.377.262.5s.138.253.269.515a2.759,2.759,0,0,1,.2.508,3.235,3.235,0,0,0,.226.572,2.247,2.247,0,0,1,.186.508,2.7,2.7,0,0,0,.215.6c.143.29.2.419.274.568l.225.477c.121.252.187.381.252.506s.131.259.259.527a.988.988,0,0,1,.091.534,1.462,1.462,0,0,0,.137.745,2.808,2.808,0,0,1,.194.533,3.207,3.207,0,0,0,.219.6.781.781,0,0,0,.575.475.321.321,0,0,1,.272.219,1.111,1.111,0,0,1,.079.574,1.534,1.534,0,0,0,.121.791.721.721,0,0,0,.567.464.263.263,0,0,1,.242.2,1.149,1.149,0,0,1,.022.652,1.561,1.561,0,0,0,.06.9,4.51,4.51,0,0,0,.271.53,4.008,4.008,0,0,1,.247.49.627.627,0,0,0,.574.437c.107.013.131.015.188.153a3.6,3.6,0,0,1,.18.559,3.877,3.877,0,0,0,.2.622,2.124,2.124,0,0,1,.146.6,2.567,2.567,0,0,0,.18.715,4.941,4.941,0,0,0,.246.521,4.159,4.159,0,0,1,.218.464c.1-.14.2-.286.3-.436C1135.669,1586.235,1135.63,1586.162,1135.592,1586.092Z" transform="translate(-1111.598 -1552.809)" fill="#aab367"/>
              <path id="Trazado_27069" data-name="Trazado 27069" d="M1128.83,1585.964c-.127-.146-.135-.178-.144-.2a.954.954,0,0,0-.226-.374,7.4,7.4,0,0,0-1.1-.865,8.041,8.041,0,0,1-.939-.723c-.122-.135-.134-.168-.146-.2a1.034,1.034,0,0,0-.224-.344c-.057-.069-.08-.1-.084-.1a.585.585,0,0,0-.182-.433c-.043-.052-.062-.083-.068-.088a.519.519,0,0,0-.153-.48,2.752,2.752,0,0,0-.446-.456,2.324,2.324,0,0,1-.371-.377,1.52,1.52,0,0,1-.2-.313,2.17,2.17,0,0,0-.234-.381,2.048,2.048,0,0,0-.655-.52,1.75,1.75,0,0,1-.493-.371c-.06-.084-.063-.113-.059-.143a.579.579,0,0,0-.132-.508c-.027-.037-.031-.056-.009-.054a.461.461,0,0,0,.026-.627.422.422,0,0,1-.1-.271.9.9,0,0,0-.168-.5,1.409,1.409,0,0,0-.77-.487,1.1,1.1,0,0,1-.506-.274,4.021,4.021,0,0,1-.209-.37c-.049-.1-.1-.194-.225-.406a.607.607,0,0,1,.112-.135.577.577,0,0,0,.175-.746c-.116-.206-.166-.307-.218-.412s-.1-.211-.215-.413a.941.941,0,0,0-.653-.43c-.185-.052-.293-.085-.35-.19a.649.649,0,0,1-.09-.338,1.123,1.123,0,0,0-.143-.537,1.03,1.03,0,0,0-.395-.432.561.561,0,0,1-.235-.255,3.56,3.56,0,0,1-.177-.4c-.043-.107-.086-.218-.183-.42a1.2,1.2,0,0,0-.313-.421.727.727,0,0,1-.2-.277.591.591,0,0,1,.028-.417,1.029,1.029,0,0,0,0-.758.6.6,0,0,0-.547-.378c-.118-.013-.131-.015-.165-.094a2.248,2.248,0,0,0-.213-.406,1.707,1.707,0,0,1-.177-.341,1.065,1.065,0,0,1-.066-.439,1.506,1.506,0,0,0-.1-.618,1.872,1.872,0,0,1-.115-.437,2.374,2.374,0,0,0-.138-.527.419.419,0,0,0-.608-.266h-.007a2.193,2.193,0,0,0-.165-.38,1.3,1.3,0,0,1-.132-1.013,2.21,2.21,0,0,0-.015-.91.451.451,0,0,0-.247-.3.307.307,0,0,0-.238.013,2.742,2.742,0,0,1-.03-.54,2.65,2.65,0,0,0-.071-.783c-.022-.072-.08-.265-.258-.308a.27.27,0,0,0-.15.008c-.027-.13-.043-.234-.056-.339a4.671,4.671,0,0,0-.1-.531,3.814,3.814,0,0,1-.072-.643,3.988,3.988,0,0,0-.09-.76l-.1-.38c-.032-.128-.059-.227-.119-.486-.068-.3-.09-.4-.126-.577l-.072-.331c-.044-.2-.068-.358-.09-.509-.078.456-.134.929-.171,1.419l.024.1c.062.266.087.367.121.5l.094.375a3.653,3.653,0,0,1,.078.677,4.106,4.106,0,0,0,.085.726,4.284,4.284,0,0,1,.09.487,4.437,4.437,0,0,0,.1.535.368.368,0,0,0,.234.3.243.243,0,0,0,.169-.013,2.981,2.981,0,0,1,.027.534,2.591,2.591,0,0,0,.065.748.417.417,0,0,0,.225.29.314.314,0,0,0,.259-.022,2.234,2.234,0,0,1-.016.673,2.144,2.144,0,0,0,.01.864,2.166,2.166,0,0,0,.172.411,2,2,0,0,1,.141.333.435.435,0,0,0,.215.268.443.443,0,0,0,.362-.012l.035-.011,0,.017a1.839,1.839,0,0,1,.113.44,2.38,2.38,0,0,0,.14.528,1.08,1.08,0,0,1,.069.453,1.474,1.474,0,0,0,.1.606,2.127,2.127,0,0,0,.215.417,1.918,1.918,0,0,1,.178.339.57.57,0,0,0,.525.365c.121.013.146.016.19.116a.627.627,0,0,1-.025.452.986.986,0,0,0,0,.727,1.165,1.165,0,0,0,.308.42.751.751,0,0,1,.21.284,3.8,3.8,0,0,1,.168.387,4.223,4.223,0,0,0,.2.439,1,1,0,0,0,.386.426.613.613,0,0,1,.247.268.68.68,0,0,1,.093.35,1.092,1.092,0,0,0,.144.531.889.889,0,0,0,.624.408c.2.056.312.093.38.216.107.193.157.294.206.392s.106.219.231.438c.031.052.037.065-.106.211a.538.538,0,0,0-.165.7c.106.175.153.266.2.355s.1.2.23.406a1.351,1.351,0,0,0,.733.456,1.119,1.119,0,0,1,.543.3.451.451,0,0,1,.1.283.867.867,0,0,0,.172.5c.032.05.037.072.009.088a.436.436,0,0,0-.021.6c.075.106.071.127.063.162a.562.562,0,0,0,.137.5,2.042,2.042,0,0,0,.624.49,1.765,1.765,0,0,1,.522.4,1.73,1.73,0,0,1,.193.313,1.993,1.993,0,0,0,.243.389,2.683,2.683,0,0,0,.437.446,2.464,2.464,0,0,1,.381.387c.048.063.068.1.072.1-.042.157,0,.281.155.475.065.081.084.118.087.119-.013.141.034.244.188.427a.681.681,0,0,1,.146.211.948.948,0,0,0,.23.341,7.666,7.666,0,0,0,1.016.792,7.857,7.857,0,0,1,1.01.785l.016.021c.275.149.551.284.823.409C1128.912,1586.06,1128.878,1586.02,1128.83,1585.964Z" transform="translate(-1113.73 -1550.721)" fill="#aab367"/>
              <path id="Trazado_27070" data-name="Trazado 27070" d="M1131.013,1588.029c.178.035.358.065.534.088a.59.59,0,0,1-.12-.306,1.089,1.089,0,0,0-.209-.549c-.093-.145-.082-.174-.057-.243a.663.663,0,0,0-.1-.656,1.011,1.011,0,0,1-.171-.414,1.479,1.479,0,0,0-.227-.565,1.76,1.76,0,0,0-.755-.6,1.432,1.432,0,0,1-.581-.436c-.149-.243-.213-.362-.278-.483s-.133-.246-.281-.492c-.062-.1-.053-.11.044-.228a.611.611,0,0,0,.087-.781c-.149-.255-.214-.378-.281-.507s-.132-.256-.277-.508a1.414,1.414,0,0,0-.678-.562,1.018,1.018,0,0,1-.483-.375,1.034,1.034,0,0,1-.156-.434,1.489,1.489,0,0,0-.21-.593,1.864,1.864,0,0,0-.456-.54,1.367,1.367,0,0,1-.356-.417c-.138-.246-.2-.37-.256-.5s-.124-.259-.265-.514a2.191,2.191,0,0,0-.394-.527,1.786,1.786,0,0,1-.322-.433.4.4,0,0,1-.007-.4.859.859,0,0,0-.04-.773,1.148,1.148,0,0,0-.6-.527.7.7,0,0,1-.389-.324,3.842,3.842,0,0,0-.319-.514,3.45,3.45,0,0,1-.285-.465.921.921,0,0,1-.121-.465,1.412,1.412,0,0,0-.172-.659,2.119,2.119,0,0,1-.188-.494,2.607,2.607,0,0,0-.224-.586.926.926,0,0,0-.648-.487c-.174-.053-.278-.085-.361-.249a3.876,3.876,0,0,0-.3-.508,3.342,3.342,0,0,1-.268-.46.647.647,0,0,1,.022-.52,1.083,1.083,0,0,0-.006-.864.854.854,0,0,0-.6-.48c-.152-.044-.236-.069-.312-.231a.875.875,0,0,1-.062-.526,1.3,1.3,0,0,0-.1-.771.777.777,0,0,0-.583-.468c-.141-.038-.206-.056-.277-.212a2.688,2.688,0,0,1-.181-.517,3.122,3.122,0,0,0-.2-.592,1.159,1.159,0,0,1-.093-.552,1.593,1.593,0,0,0-.134-.749c-.112-.249-.172-.378-.231-.5s-.124-.262-.246-.536c-.128-.292-.184-.421-.247-.57l-.211-.489a2.778,2.778,0,0,1-.177-.543,3.324,3.324,0,0,0-.2-.618,3.74,3.74,0,0,1-.19-.543,4.219,4.219,0,0,0-.209-.6c-.107-.255-.168-.385-.222-.51s-.119-.262-.236-.537a1.284,1.284,0,0,0-.333-.5.79.79,0,0,1-.221-.346,1.244,1.244,0,0,0-.316-.495.756.756,0,0,1-.208-.337,2.578,2.578,0,0,1-.152-.586,3.343,3.343,0,0,0-.13-.526c-.11.187-.216.383-.315.586l0,.013a3.089,3.089,0,0,0,.175.675,1.186,1.186,0,0,0,.313.495.813.813,0,0,1,.214.341,1.23,1.23,0,0,0,.327.5.839.839,0,0,1,.23.35c.118.283.177.412.239.549s.113.251.219.5a3.918,3.918,0,0,1,.19.543,4.123,4.123,0,0,0,.21.6,2.77,2.77,0,0,1,.177.545,3.341,3.341,0,0,0,.2.618l.209.484c.063.15.121.281.249.575s.186.409.252.548c.057.119.118.246.227.49a1.15,1.15,0,0,1,.094.561,1.6,1.6,0,0,0,.133.74,2.82,2.82,0,0,1,.179.518,3.1,3.1,0,0,0,.206.593.758.758,0,0,0,.57.458.349.349,0,0,1,.294.227.876.876,0,0,1,.063.536,1.3,1.3,0,0,0,.1.761.818.818,0,0,0,.589.47.416.416,0,0,1,.327.246.656.656,0,0,1-.019.537,1.069,1.069,0,0,0,0,.848,3.486,3.486,0,0,0,.3.515,3.633,3.633,0,0,1,.266.456.9.9,0,0,0,.631.477c.174.053.29.087.378.262a2.07,2.07,0,0,1,.188.5,2.5,2.5,0,0,0,.225.586.957.957,0,0,1,.121.474,1.371,1.371,0,0,0,.172.654,3.992,3.992,0,0,0,.32.517,3.779,3.779,0,0,1,.287.464,1.143,1.143,0,0,0,.592.518.719.719,0,0,1,.4.332.429.429,0,0,1,.009.418.842.842,0,0,0,.04.758,2.2,2.2,0,0,0,.393.526,1.809,1.809,0,0,1,.325.436c.134.241.193.365.252.489s.124.262.269.522a1.839,1.839,0,0,0,.455.537,1.348,1.348,0,0,1,.359.422,1.078,1.078,0,0,1,.158.438,1.468,1.468,0,0,0,.212.59,1.419,1.419,0,0,0,.67.552,1.012,1.012,0,0,1,.489.386c.141.243.206.368.269.49s.139.262.29.526c.074.126.056.149-.044.271a.574.574,0,0,0-.081.746c.143.234.206.355.269.471s.134.252.291.506a1.793,1.793,0,0,0,.754.6,1.39,1.39,0,0,1,.581.44,1.048,1.048,0,0,1,.169.42,1.439,1.439,0,0,0,.23.564c.1.16.085.2.059.268a.634.634,0,0,0,.1.639.636.636,0,0,1,.14.347A.865.865,0,0,0,1131.013,1588.029Z" transform="translate(-1113.384 -1551.855)" fill="#aab367"/>
              <path id="Trazado_27071" data-name="Trazado 27071" d="M1135.781,1583.519a13.283,13.283,0,0,0,.3-1.513l0-.016c-.021-.1-.063-.3-.256-.318a.19.19,0,0,0-.042,0c-.027-.174-.038-.366-.049-.555a4.359,4.359,0,0,0-.094-.787c-.021-.081-.068-.274-.244-.315a.243.243,0,0,0-.138.007c-.044-.165-.066-.287-.087-.407a4.182,4.182,0,0,0-.129-.564,2.451,2.451,0,0,1-.075-.636,2.846,2.846,0,0,0-.09-.726c-.075-.247-.112-.353-.152-.473-.032-.1-.068-.2-.131-.4l-.115-.362c-.046-.147-.079-.255-.171-.529a2.5,2.5,0,0,1-.109-.471,2.811,2.811,0,0,0-.128-.546,2.691,2.691,0,0,1-.118-.449,3.1,3.1,0,0,0-.137-.518c-.084-.231-.125-.333-.171-.445-.038-.093-.079-.193-.151-.386a.738.738,0,0,0-.318-.418c-.059-.038-.1-.063-.156-.213a.8.8,0,0,0-.331-.426.406.406,0,0,1-.178-.234,1.136,1.136,0,0,1-.091-.442,1.52,1.52,0,0,0-.125-.586.958.958,0,0,1-.08-.424,1.384,1.384,0,0,0-.116-.584,1.084,1.084,0,0,0-.316-.425.679.679,0,0,1-.209-.278.727.727,0,0,0-.49-.409.318.318,0,0,1-.246-.193c-.057-.115-.01-.225.077-.411a.816.816,0,0,0,.074-.761,1.457,1.457,0,0,0-.306-.422,1.126,1.126,0,0,1-.231-.316c-.049-.091-.025-.15.059-.306a.677.677,0,0,0,.059-.692c-.161-.292-.543-.3-.914-.318-.235-.009-.556-.021-.614-.125-.026-.047.056-.127.228-.268.191-.158.512-.421.31-.764a1.136,1.136,0,0,0-.5-.428.738.738,0,0,1-.342-.278,1.21,1.21,0,0,0-.543-.446.963.963,0,0,1-.4-.312.679.679,0,0,1,.122-.1c.124-.085.453-.31.218-.668a1.4,1.4,0,0,1-.163-.313,1.616,1.616,0,0,0-.214-.408,1.933,1.933,0,0,0-.4-.422,1.473,1.473,0,0,1-.328-.338,2.031,2.031,0,0,0-.433-.437,1.62,1.62,0,0,1-.355-.356,3.228,3.228,0,0,0-.349-.415,2.9,2.9,0,0,1-.311-.363c-.146-.2-.224-.3-.306-.4-.071-.088-.144-.181-.274-.355a4.026,4.026,0,0,0-.352-.412,3.756,3.756,0,0,1-.318-.371,3.027,3.027,0,0,0-.459-.462,2.781,2.781,0,0,1-.362-.352.247.247,0,0,0,.091-.127.4.4,0,0,0-.118-.372,3.931,3.931,0,0,0-.621-.546l-.118-.09a.206.206,0,0,0,.1-.089c.053-.075.082-.2-.065-.354a8.9,8.9,0,0,0-.948-.779c-.194-.147-.4-.3-.579-.447h0c-.278-.135-.556-.26-.831-.371a.371.371,0,0,0,.1.319,8.256,8.256,0,0,0,1.033.857c.127.1.255.193.374.285a.233.233,0,0,0-.056.058c-.083.107-.065.238.056.39a3.88,3.88,0,0,0,.652.578,4.478,4.478,0,0,1,.483.4.255.255,0,0,0-.074.11.432.432,0,0,0,.112.393,3.042,3.042,0,0,0,.469.475,2.611,2.611,0,0,1,.395.392,4.092,4.092,0,0,0,.349.408,3.538,3.538,0,0,1,.318.374c.132.178.21.274.284.365s.153.193.293.384a3.123,3.123,0,0,0,.35.412,2.844,2.844,0,0,1,.306.362,2.067,2.067,0,0,0,.439.446,1.565,1.565,0,0,1,.344.344,2.005,2.005,0,0,0,.412.43,1.444,1.444,0,0,1,.319.328,1.243,1.243,0,0,1,.163.311,1.011,1.011,0,0,0,.224.368.6.6,0,0,1-.11.087.5.5,0,0,0-.234.712,1.233,1.233,0,0,0,.562.465.816.816,0,0,1,.363.28,1.171,1.171,0,0,0,.517.444.808.808,0,0,1,.325.243.969.969,0,0,1-.21.206c-.206.168-.549.45-.336.832.179.327.609.341.989.355.162.006.5.018.536.085s.026.1-.06.265a.713.713,0,0,0-.06.726,1.555,1.555,0,0,0,.309.424,1.016,1.016,0,0,1,.225.309c.046.089.01.181-.078.368a.876.876,0,0,0-.075.8.756.756,0,0,0,.506.421c.119.04.172.058.227.174a1.13,1.13,0,0,0,.322.428.614.614,0,0,1,.2.268.909.909,0,0,1,.08.411,1.379,1.379,0,0,0,.116.593,1.119,1.119,0,0,1,.088.431,1.556,1.556,0,0,0,.125.592.844.844,0,0,0,.339.431.373.373,0,0,1,.168.222.782.782,0,0,0,.327.421c.059.038.091.059.144.2.075.2.116.3.156.4s.084.2.163.427a2.58,2.58,0,0,1,.119.45,3.226,3.226,0,0,0,.134.51,2.345,2.345,0,0,1,.109.468,2.884,2.884,0,0,0,.127.546c.09.269.124.375.169.519l.115.365c.065.2.1.309.134.406.038.116.074.22.146.458a2.344,2.344,0,0,1,.071.612,2.827,2.827,0,0,0,.1.75,3.748,3.748,0,0,1,.116.511,4.417,4.417,0,0,0,.128.564c.025.084.084.284.266.322a.274.274,0,0,0,.11,0,5.285,5.285,0,0,1,.053.567,4.232,4.232,0,0,0,.1.831c.027.1.081.311.278.324h.01c.025.2.041.437.057.674C1135.75,1583.157,1135.764,1583.344,1135.781,1583.519Z" transform="translate(-1110.576 -1552.585)" fill="#aab367"/>
              <path id="Trazado_27072" data-name="Trazado 27072" d="M1134.513,1588.153a.687.687,0,0,1-.386-.343,1.81,1.81,0,0,1-.188-.534,2.273,2.273,0,0,0-.226-.643,1.9,1.9,0,0,0-.42-.564,1.487,1.487,0,0,1-.333-.444c-.14-.269-.2-.407-.263-.547s-.127-.287-.271-.565a2.471,2.471,0,0,0-.381-.564,2.072,2.072,0,0,1-.322-.473.672.672,0,0,1-.05-.508,1.131,1.131,0,0,0-.09-.8,1.157,1.157,0,0,0-.571-.545.732.732,0,0,1-.383-.353,4.788,4.788,0,0,0-.331-.558,4.482,4.482,0,0,1-.3-.509,1.191,1.191,0,0,1-.149-.52,1.6,1.6,0,0,0-.194-.683,2.57,2.57,0,0,1-.212-.539,3.075,3.075,0,0,0-.243-.617,1.057,1.057,0,0,0-.648-.531.636.636,0,0,1-.413-.321,4.716,4.716,0,0,0-.331-.556,4.3,4.3,0,0,1-.3-.508.575.575,0,0,1,.009-.512,1.009,1.009,0,0,0-.018-.862,1.077,1.077,0,0,0-.627-.536.651.651,0,0,1-.4-.327.744.744,0,0,1-.073-.514,1.2,1.2,0,0,0-.121-.771,1.077,1.077,0,0,0-.621-.538.653.653,0,0,1-.4-.328,2.652,2.652,0,0,1-.215-.536,3.073,3.073,0,0,0-.246-.612.877.877,0,0,1-.1-.517,1.305,1.305,0,0,0-.148-.743c-.142-.277-.218-.413-.291-.55s-.147-.268-.285-.54-.209-.411-.278-.549-.138-.278-.28-.553a2.4,2.4,0,0,1-.206-.534,2.75,2.75,0,0,0-.243-.622,3.093,3.093,0,0,1-.224-.538,3.613,3.613,0,0,0-.253-.6c-.143-.281-.218-.417-.294-.555s-.146-.265-.282-.533a1.711,1.711,0,0,0-.431-.558,1.346,1.346,0,0,1-.333-.433,1.757,1.757,0,0,0-.427-.558,1.338,1.338,0,0,1-.331-.433,1.537,1.537,0,0,1-.168-.53,1.951,1.951,0,0,0-.212-.665,1.41,1.41,0,0,1-.163-.529,1.86,1.86,0,0,0-.21-.67,2.219,2.219,0,0,0-.39-.559,1.764,1.764,0,0,1-.321-.461,1.259,1.259,0,0,0-.517-.549.8.8,0,0,1-.35-.37.657.657,0,0,1-.015-.534,1.043,1.043,0,0,0-.049-.836,3.054,3.054,0,0,0-.356-.553,2.553,2.553,0,0,1-.311-.486.647.647,0,0,1-.05-.5,1.046,1.046,0,0,0-.091-.782.806.806,0,0,0-.484-.393c-.083.036-.166.07-.247.112-.133.068-.258.143-.383.22.06.012.12.02.178.028.281.037.446.066.54.245a.607.607,0,0,1,.049.484,1.09,1.09,0,0,0,.09.793,2.951,2.951,0,0,0,.358.558,2.7,2.7,0,0,1,.311.483.624.624,0,0,1,.013.515,1.085,1.085,0,0,0,.047.849,1.248,1.248,0,0,0,.51.549.821.821,0,0,1,.358.373,2.165,2.165,0,0,0,.39.561,1.792,1.792,0,0,1,.321.461,1.357,1.357,0,0,1,.165.528,1.838,1.838,0,0,0,.209.668,1.509,1.509,0,0,1,.168.531,1.982,1.982,0,0,0,.212.664,1.748,1.748,0,0,0,.425.559,1.292,1.292,0,0,1,.333.432,1.705,1.705,0,0,0,.43.559,1.3,1.3,0,0,1,.334.433c.14.272.215.409.288.543s.147.27.289.545a3.239,3.239,0,0,1,.227.539,3.625,3.625,0,0,0,.25.6,2.368,2.368,0,0,1,.209.537,2.9,2.9,0,0,0,.24.62c.141.274.209.411.278.549s.138.278.279.554.216.414.29.55.147.268.287.54a.865.865,0,0,1,.1.517,1.309,1.309,0,0,0,.147.741,2.589,2.589,0,0,1,.215.537,3.241,3.241,0,0,0,.247.612,1.083,1.083,0,0,0,.621.536.645.645,0,0,1,.4.328.75.75,0,0,1,.075.515,1.181,1.181,0,0,0,.119.771,1.092,1.092,0,0,0,.627.536.645.645,0,0,1,.4.327.579.579,0,0,1-.009.518,1,1,0,0,0,.019.857,4.478,4.478,0,0,0,.33.553,4.313,4.313,0,0,1,.3.512,1.075,1.075,0,0,0,.651.533.62.62,0,0,1,.409.318,2.494,2.494,0,0,1,.212.536,2.863,2.863,0,0,0,.246.619,1.2,1.2,0,0,1,.146.52,1.615,1.615,0,0,0,.2.684,5.082,5.082,0,0,0,.33.554,4.409,4.409,0,0,1,.3.514,1.163,1.163,0,0,0,.574.545.71.71,0,0,1,.377.35.69.69,0,0,1,.05.52,1.094,1.094,0,0,0,.093.795,2.585,2.585,0,0,0,.38.561,2,2,0,0,1,.322.474c.137.268.2.406.26.543s.128.288.274.571a1.9,1.9,0,0,0,.419.559,1.44,1.44,0,0,1,.333.446,1.842,1.842,0,0,1,.187.533,2.241,2.241,0,0,0,.23.646,1.049,1.049,0,0,0,.421.453c.091-.041.184-.078.274-.124s.146-.084.218-.126C1134.6,1588.194,1134.554,1588.172,1134.513,1588.153Z" transform="translate(-1112.628 -1552.646)" fill="#aab367"/>
            </g>
          </g>
          <g id="Grupo_17164" data-name="Grupo 17164" transform="translate(29.055 5.976)">
            <circle id="Elipse_1016" data-name="Elipse 1016" cx="14.376" cy="14.376" r="14.376" transform="matrix(0.792, -0.61, 0.61, 0.792, 0, 17.545)" fill="#648558"/>
            <g id="Grupo_17163" data-name="Grupo 17163" transform="translate(9.034 5.812)">
              <path id="Trazado_27073" data-name="Trazado 27073" d="M1139.23,1584.031a9.07,9.07,0,0,1-.626-1.045l-.085-.156a2.748,2.748,0,0,0-.444-.563,2.025,2.025,0,0,1-.431-.577,4.216,4.216,0,0,1-.2-.789,6.549,6.549,0,0,0-.144-.64,5.029,5.029,0,0,1-.138-.811c-.023-.212-.05-.427-.091-.637a7.21,7.21,0,0,1-.1-.876c-.011-.19-.025-.383-.047-.578a2.307,2.307,0,0,0-.271-.76,1.185,1.185,0,0,1-.047-1.335,2.516,2.516,0,0,0,.226-.83,5.9,5.9,0,0,1,.106-.812c.037-.212.075-.427.1-.646a1.782,1.782,0,0,0-.217-.889,1.379,1.379,0,0,1-.178-.664c.035-.2.06-.411.087-.62a7.57,7.57,0,0,1,.141-.887,4.559,4.559,0,0,1,.284-.765,6.2,6.2,0,0,0,.259-.657,2.237,2.237,0,0,1,.374-.627,2.934,2.934,0,0,0,.412-.681,4.7,4.7,0,0,1,.374-.711,6.357,6.357,0,0,0,.328-.592,1.884,1.884,0,0,0,.084-.956,1.412,1.412,0,0,1,.041-.685,1.866,1.866,0,0,1,.515-.5,2.424,2.424,0,0,0,.589-.562,4.247,4.247,0,0,0,.343-.683,2.931,2.931,0,0,1,.349-.667c.124-.156.241-.324.359-.489a6.625,6.625,0,0,1,.546-.707,1.505,1.505,0,0,1,.623-.3,2.042,2.042,0,0,0,.727-.349,2.741,2.741,0,0,0,.5-.639,1.868,1.868,0,0,1,.442-.552,1.2,1.2,0,0,1,.658-.1,1.68,1.68,0,0,0,.8-.121,2.682,2.682,0,0,0,.592-.444c.036-.033.069-.059.1-.089-.35.022-.7.069-1.042.116a1.438,1.438,0,0,1-.249.03c-.39.06-.772.143-1.154.235a2.434,2.434,0,0,0-.537.654,2.343,2.343,0,0,1-.4.522,1.676,1.676,0,0,1-.561.255,1.849,1.849,0,0,0-.824.433,6.818,6.818,0,0,0-.595.764c-.112.159-.224.318-.342.466a3.349,3.349,0,0,0-.422.789,3.668,3.668,0,0,1-.3.6,2.065,2.065,0,0,1-.471.437,2.239,2.239,0,0,0-.654.659,1.723,1.723,0,0,0-.109.992,1.56,1.56,0,0,1-.034.684,6.086,6.086,0,0,1-.3.542,5.077,5.077,0,0,0-.415.795,2.547,2.547,0,0,1-.344.553,2.683,2.683,0,0,0-.453.789,5.843,5.843,0,0,1-.238.6,5.156,5.156,0,0,0-.315.858,7.9,7.9,0,0,0-.153.949c-.025.2-.049.4-.082.592a1.721,1.721,0,0,0,.212.964,1.471,1.471,0,0,1,.178.625c-.022.208-.057.408-.093.608a6.345,6.345,0,0,0-.114.889,2.117,2.117,0,0,1-.187.645,2.216,2.216,0,0,0-.222.894,2.151,2.151,0,0,0,.282.874,1.931,1.931,0,0,1,.221.592c.021.187.034.371.046.553a7.21,7.21,0,0,0,.1.942c.038.2.062.4.085.6a5.438,5.438,0,0,0,.155.9c.056.193.094.393.132.592a4.618,4.618,0,0,0,.23.886,2.328,2.328,0,0,0,.527.727,2.443,2.443,0,0,1,.373.464l.084.156c.144.267.29.52.446.768.262.19.534.368.811.542A1.6,1.6,0,0,0,1139.23,1584.031Z" transform="translate(-1135.956 -1558.037)" fill="#aab367"/>
              <path id="Trazado_27074" data-name="Trazado 27074" d="M1152.344,1578.339a3.262,3.262,0,0,0,.227-.852,3.516,3.516,0,0,1,.152-.649,3.5,3.5,0,0,0,.179-.848,3.533,3.533,0,0,1,.119-.648,5.094,5.094,0,0,1,.233-.583,4.936,4.936,0,0,0,.306-.83c.093-.384.156-.762.216-1.128l.06-.36a2.346,2.346,0,0,1,.25-.62,2.418,2.418,0,0,0,.309-.846c.053-.5.106-1.016.124-1.528.007-.194.024-.39.041-.583a8.25,8.25,0,0,0,.041-.957,4.388,4.388,0,0,1,.046-.665,3.992,3.992,0,0,0,.036-.9c-.049-.436-.135-.87-.219-1.289l-.046-.231a4.072,4.072,0,0,0-.309-.864,4.561,4.561,0,0,1-.225-.568,1.833,1.833,0,0,0-.525-.755,1.6,1.6,0,0,1-.375-.475,2.658,2.658,0,0,1-.132-.624,2.438,2.438,0,0,0-.222-.864,1.066,1.066,0,0,1-.1-.331c-.18-.146-.353-.3-.54-.434.009.065.021.125.028.194a2.334,2.334,0,0,0,.2.837,2.05,2.05,0,0,1,.168.686,2.873,2.873,0,0,0,.165.751,1.974,1.974,0,0,0,.478.634,1.474,1.474,0,0,1,.4.548,4.824,4.824,0,0,0,.249.633,3.581,3.581,0,0,1,.274.755l.046.231c.084.409.168.833.214,1.245a3.532,3.532,0,0,1-.036.776,5.027,5.027,0,0,0-.048.746,7.775,7.775,0,0,1-.04.892c-.018.2-.035.406-.043.609-.018.494-.071,1-.121,1.49a2.049,2.049,0,0,1-.252.656,2.73,2.73,0,0,0-.3.774l-.062.365c-.062.371-.121.723-.209,1.088a4.289,4.289,0,0,1-.275.737,6.134,6.134,0,0,0-.255.642,4.236,4.236,0,0,0-.14.742,3.023,3.023,0,0,1-.146.721,3.883,3.883,0,0,0-.181.752,2.884,2.884,0,0,1-.184.714,4.01,4.01,0,0,0-.235.742,2.9,2.9,0,0,1-.239.711,5.361,5.361,0,0,0-.3.689,3.632,3.632,0,0,1-.327.715,3.859,3.859,0,0,1-.545.6,4.965,4.965,0,0,0-.484.508,2.2,2.2,0,0,1-.58.456,2.98,2.98,0,0,0-.6.452c-.1.108-.2.216-.3.325a8.458,8.458,0,0,1-.711.723,4.054,4.054,0,0,0-.493.54,2.778,2.778,0,0,1-.53.547,1.809,1.809,0,0,1-.686.219,2.5,2.5,0,0,0-.7.2,1.5,1.5,0,0,1-.67.094,2.195,2.195,0,0,0-.705.077,1.059,1.059,0,0,0-.247.14,14.33,14.33,0,0,0,3.369-.415,3.955,3.955,0,0,0,.514-.539,3.689,3.689,0,0,1,.431-.475,9.248,9.248,0,0,0,.755-.765c.1-.106.193-.213.293-.319a2.625,2.625,0,0,1,.5-.371,2.682,2.682,0,0,0,.706-.571,4.742,4.742,0,0,1,.434-.455,4.123,4.123,0,0,0,.618-.687,4.177,4.177,0,0,0,.384-.821,4.636,4.636,0,0,1,.266-.617,3.321,3.321,0,0,0,.292-.846A3.508,3.508,0,0,1,1152.344,1578.339Z" transform="translate(-1132.359 -1557.153)" fill="#aab367"/>
              <path id="Trazado_27075" data-name="Trazado 27075" d="M1139.961,1585.281a3.581,3.581,0,0,1-.089-.839,6.561,6.561,0,0,0-.051-.739,2.507,2.507,0,0,1,.063-.729,3.682,3.682,0,0,0,.085-.851c-.009-.173-.024-.35-.037-.531-.026-.328-.053-.667-.05-1.011a4.111,4.111,0,0,0-.088-.762,3.354,3.354,0,0,1-.084-.795,2.425,2.425,0,0,1,.209-.692,3.1,3.1,0,0,0,.253-.846,2.211,2.211,0,0,1,.243-.671,2.8,2.8,0,0,0,.3-.835,1.992,1.992,0,0,0-.153-.9,1.587,1.587,0,0,1-.132-.711,4.353,4.353,0,0,0,.04-.8,3.571,3.571,0,0,1,.044-.785,1.432,1.432,0,0,1,.431-.556,1.827,1.827,0,0,0,.587-.824c.059-.244.1-.49.14-.733a7.5,7.5,0,0,1,.159-.795,4.913,4.913,0,0,1,.292-.743,6.167,6.167,0,0,0,.283-.707,1.787,1.787,0,0,0-.106-1.029,1.4,1.4,0,0,1-.1-.695,1.685,1.685,0,0,1,.454-.577,2.14,2.14,0,0,0,.547-.715c.126-.322.266-.627.4-.927.075-.165.149-.328.221-.492a3.4,3.4,0,0,0,.212-.84,2.589,2.589,0,0,1,.178-.7,4.955,4.955,0,0,1,.471-.727c.135-.188.27-.372.381-.564a5.344,5.344,0,0,1,.546-.746c.128-.156.253-.309.365-.468a6.457,6.457,0,0,1,.732-.834l.25-.258a3.42,3.42,0,0,0,.464-.689l.022-.038c-.174-.023-.346-.026-.518-.044a2.264,2.264,0,0,1-.293.418c-.078.084-.159.167-.241.25a6.661,6.661,0,0,0-.786.9c-.1.147-.222.29-.341.437a6.024,6.024,0,0,0-.6.816,5.42,5.42,0,0,1-.352.517,5.658,5.658,0,0,0-.515.807,2.937,2.937,0,0,0-.23.857,2.919,2.919,0,0,1-.172.708c-.071.16-.144.321-.218.483-.143.309-.285.624-.415.957a1.741,1.741,0,0,1-.427.527,2.122,2.122,0,0,0-.584.784,1.705,1.705,0,0,0,.1,1.026,1.476,1.476,0,0,1,.109.717,5.872,5.872,0,0,1-.26.642,5.493,5.493,0,0,0-.321.823,8.472,8.472,0,0,0-.169.851c-.038.229-.077.462-.133.693a1.489,1.489,0,0,1-.44.565,1.748,1.748,0,0,0-.583.832,4.081,4.081,0,0,0-.054.9,4.008,4.008,0,0,1-.032.7,2,2,0,0,0,.15.972,1.606,1.606,0,0,1,.133.662,2.362,2.362,0,0,1-.25.674,2.6,2.6,0,0,0-.293.851,2.7,2.7,0,0,1-.216.7,2.8,2.8,0,0,0-.247.864,3.722,3.722,0,0,0,.09.923,3.516,3.516,0,0,1,.081.661c0,.37.024.721.05,1.061.015.175.028.346.037.515a3.388,3.388,0,0,1-.077.727,2.885,2.885,0,0,0-.066.9,6.541,6.541,0,0,1,.046.682,4.252,4.252,0,0,0,.1.938c.208.1.424.175.636.26A2.018,2.018,0,0,1,1139.961,1585.281Z" transform="translate(-1134.407 -1558.019)" fill="#aab367"/>
              <path id="Trazado_27076" data-name="Trazado 27076" d="M1141.5,1586.281l.031-.133a1.513,1.513,0,0,1,.277-.6,2.043,2.043,0,0,0,.359-.785,2.425,2.425,0,0,1,.241-.645,2.99,2.99,0,0,0,.284-.765,2.863,2.863,0,0,0,.091-.815,2.323,2.323,0,0,1,.075-.683,2.386,2.386,0,0,0,.066-.837,1.868,1.868,0,0,1,.052-.67,2.363,2.363,0,0,0,.068-.836,1.875,1.875,0,0,1,.052-.67,2.631,2.631,0,0,0,.081-.825,2.106,2.106,0,0,1,.065-.677,3.089,3.089,0,0,1,.228-.656,3.612,3.612,0,0,0,.263-.756.964.964,0,0,1,.33-.539,1.5,1.5,0,0,0,.475-.8,2.858,2.858,0,0,0,.09-.817,2.3,2.3,0,0,1,.075-.68,1.913,1.913,0,0,0,.025-.87,1.4,1.4,0,0,1,.016-.655.749.749,0,0,1,.4-.486,1.238,1.238,0,0,0,.431-1.8.75.75,0,0,1-.138-.615,2.108,2.108,0,0,1,.25-.631,2.676,2.676,0,0,0,.3-.771c.087-.356.137-.531.188-.708s.106-.364.2-.733.127-.551.164-.736.075-.36.162-.718a1.172,1.172,0,0,1,.3-.571,1.709,1.709,0,0,0,.409-.792,1.655,1.655,0,0,0-.012-.9,1.158,1.158,0,0,1-.012-.643,4.572,4.572,0,0,0,.127-.779,3.876,3.876,0,0,1,.112-.7,1.112,1.112,0,0,1,.309-.559,1.614,1.614,0,0,0,.431-.793c.022-.088.041-.163.062-.229-.126-.034-.247-.079-.375-.11-.025-.007-.05-.009-.077-.015-.021.072-.043.152-.065.245a1.1,1.1,0,0,1-.309.561,1.61,1.61,0,0,0-.431.793,4.349,4.349,0,0,0-.125.777,4.022,4.022,0,0,1-.113.7,1.677,1.677,0,0,0,.012.9,1.145,1.145,0,0,1,.012.643,1.183,1.183,0,0,1-.3.571,1.71,1.71,0,0,0-.41.792c-.089.366-.127.55-.165.736s-.075.361-.161.718-.137.532-.188.708-.106.363-.2.733a2.057,2.057,0,0,1-.25.632,2.669,2.669,0,0,0-.3.77,1.245,1.245,0,0,0,.188,1,.716.716,0,0,1-.263,1.1,1.255,1.255,0,0,0-.621.8,1.934,1.934,0,0,0-.025.87,1.383,1.383,0,0,1-.016.655,2.848,2.848,0,0,0-.09.815,2.36,2.36,0,0,1-.075.682.963.963,0,0,1-.33.539,1.492,1.492,0,0,0-.475.8,3.081,3.081,0,0,1-.228.657,3.578,3.578,0,0,0-.263.758,2.608,2.608,0,0,0-.08.824,2.111,2.111,0,0,1-.065.677,2.4,2.4,0,0,0-.068.836,1.866,1.866,0,0,1-.052.67,2.36,2.36,0,0,0-.066.837,1.854,1.854,0,0,1-.053.671,2.872,2.872,0,0,0-.091.817,2.258,2.258,0,0,1-.075.681,2.456,2.456,0,0,1-.24.643,3,3,0,0,0-.286.765,1.525,1.525,0,0,1-.277.6,2.021,2.021,0,0,0-.359.784c-.013.053-.019.084-.03.13.088.024.172.056.26.078C1141.371,1586.261,1141.435,1586.266,1141.5,1586.281Z" transform="translate(-1133.554 -1557.921)" fill="#aab367"/>
              <path id="Trazado_27077" data-name="Trazado 27077" d="M1149.035,1558.757c.246.153.5.312.567.554.032.113.071.233.108.355a7.308,7.308,0,0,1,.288,1.138,4.607,4.607,0,0,1,.007.824c-.012.246-.022.5-.009.748a2.369,2.369,0,0,1-.128.71,3.289,3.289,0,0,0-.158.858,5.155,5.155,0,0,1-.093.779,6.7,6.7,0,0,0-.1.758,1.794,1.794,0,0,0,.275.9,1.475,1.475,0,0,1,.23.693,2.109,2.109,0,0,1-.259.671,2.743,2.743,0,0,0-.321.848,4.194,4.194,0,0,0-.007.8,3.48,3.48,0,0,1-.01.776c-.043.237-.068.481-.093.727a8.023,8.023,0,0,1-.115.84,2.014,2.014,0,0,1-.333.637,2.527,2.527,0,0,0-.412.81l-.125.528c-.077.334-.152.664-.241.989s-.187.621-.287.924c-.062.188-.124.377-.181.565a3.716,3.716,0,0,1-.336.7,4.256,4.256,0,0,0-.348.711,1.853,1.853,0,0,0,.049,1.026,1.434,1.434,0,0,1,.062.7,1.4,1.4,0,0,1-.539.493,1.7,1.7,0,0,0-.689.67,3.185,3.185,0,0,0-.2.848,2.344,2.344,0,0,1-.166.7,5.153,5.153,0,0,0-.287.752,3.752,3.752,0,0,1-.283.714,1.637,1.637,0,0,1-.578.492,2.1,2.1,0,0,0-.626.521,3.967,3.967,0,0,1-.633.665c-.133.119-.264.235-.383.364a5.749,5.749,0,0,0-.408.5c-.088.121-.169.227-.25.318.182.028.364.053.545.075.022-.029.047-.056.069-.087a5.261,5.261,0,0,1,.368-.455c.11-.116.23-.224.352-.333a4.288,4.288,0,0,0,.711-.754,1.691,1.691,0,0,1,.483-.381,2.082,2.082,0,0,0,.746-.67,4.189,4.189,0,0,0,.33-.82,5.108,5.108,0,0,1,.256-.677,2.8,2.8,0,0,0,.219-.864,2.758,2.758,0,0,1,.162-.7,1.423,1.423,0,0,1,.5-.444,1.712,1.712,0,0,0,.734-.739,1.744,1.744,0,0,0-.038-1.017,1.544,1.544,0,0,1-.065-.726,3.9,3.9,0,0,1,.306-.621,4.035,4.035,0,0,0,.381-.808c.057-.185.119-.37.18-.555.1-.314.206-.627.3-.951s.168-.671.246-1.011l.124-.524a2.142,2.142,0,0,1,.335-.634,2.4,2.4,0,0,0,.412-.829,8.375,8.375,0,0,0,.124-.9c.024-.233.047-.462.087-.687a3.861,3.861,0,0,0,.021-.9,3.545,3.545,0,0,1,0-.7,2.329,2.329,0,0,1,.266-.675,2.5,2.5,0,0,0,.315-.864,1.8,1.8,0,0,0-.281-.983,1.5,1.5,0,0,1-.222-.63,6.876,6.876,0,0,1,.1-.7,5.6,5.6,0,0,0,.1-.866,2.946,2.946,0,0,1,.138-.718,2.824,2.824,0,0,0,.147-.882,6.811,6.811,0,0,1,.009-.7,5.075,5.075,0,0,0-.012-.923,7.656,7.656,0,0,0-.306-1.22c-.037-.119-.073-.234-.1-.344a1.054,1.054,0,0,0-.065-.141c-.42-.182-.848-.347-1.289-.492A3.074,3.074,0,0,0,1149.035,1558.757Z" transform="translate(-1133.094 -1557.812)" fill="#aab367"/>
            </g>
          </g>
          <path id="Trazado_27078" data-name="Trazado 27078" d="M1140.52,1567.115a5.129,5.129,0,1,1-5.129-5.131A5.13,5.13,0,0,1,1140.52,1567.115Z" transform="translate(-1100.553 -1544.386)" fill="#b91010"/>
          <path id="Trazado_27079" data-name="Trazado 27079" d="M1135.461,1567.115a5.129,5.129,0,1,1-5.129-5.131A5.13,5.13,0,0,1,1135.461,1567.115Z" transform="translate(-1102.94 -1544.386)" fill="#d7bc2e"/>
          <path id="Trazado_27080" data-name="Trazado 27080" d="M1161.462,1566.884a5.136,5.136,0,1,1-5.137-5.137A5.136,5.136,0,0,1,1161.462,1566.884Z" transform="translate(-1090.678 -1544.498)" fill="#b91010"/>
          <g id="Grupo_17167" data-name="Grupo 17167" transform="translate(7.511 23.753)">
            <rect id="Rectángulo_4295" data-name="Rectángulo 4295" width="65.211" height="28.231" fill="#d29755"/>
            <rect id="Rectángulo_4296" data-name="Rectángulo 4296" width="15.3" height="28.231" transform="translate(49.911)" fill="#b37c3e"/>
            <g id="Grupo_17165" data-name="Grupo 17165" transform="translate(0 3.647)">
              <rect id="Rectángulo_4297" data-name="Rectángulo 4297" width="65.211" height="1.703" fill="#b37c3e"/>
              <rect id="Rectángulo_4298" data-name="Rectángulo 4298" width="65.211" height="1.703" transform="translate(0 4.809)" fill="#b37c3e"/>
              <rect id="Rectángulo_4299" data-name="Rectángulo 4299" width="65.211" height="1.703" transform="translate(0 9.617)" fill="#b37c3e"/>
              <rect id="Rectángulo_4300" data-name="Rectángulo 4300" width="65.211" height="1.703" transform="translate(0 14.426)" fill="#b37c3e"/>
              <rect id="Rectángulo_4301" data-name="Rectángulo 4301" width="65.211" height="1.703" transform="translate(0 19.235)" fill="#b37c3e"/>
            </g>
            <g id="Grupo_17166" data-name="Grupo 17166" transform="translate(49.911 3.647)">
              <rect id="Rectángulo_4302" data-name="Rectángulo 4302" width="15.3" height="1.703" fill="#825b2f"/>
              <rect id="Rectángulo_4303" data-name="Rectángulo 4303" width="15.3" height="1.703" transform="translate(0 4.809)" fill="#825b2f"/>
              <rect id="Rectángulo_4304" data-name="Rectángulo 4304" width="15.3" height="1.703" transform="translate(0 9.617)" fill="#825b2f"/>
              <rect id="Rectángulo_4305" data-name="Rectángulo 4305" width="15.3" height="1.703" transform="translate(0 14.426)" fill="#825b2f"/>
              <rect id="Rectángulo_4306" data-name="Rectángulo 4306" width="15.3" height="1.703" transform="translate(0 19.235)" fill="#825b2f"/>
            </g>
          </g>
        </g>
        <g id="Grupo_17169" data-name="Grupo 17169" transform="translate(66.855 76.413)">
          <path id="Trazado_27081" data-name="Trazado 27081" d="M1161.5,1574.806c3.621,2.176,4.143,8.3,1.311,11.2a2.322,2.322,0,0,1-1.754.648l-3.552-.14a1.894,1.894,0,0,1-1.819-1.831l-.189-5.745a1.34,1.34,0,0,1,1.186-1.375l4.651-.536s-3.987-1.129-3.13-2.893C1158.528,1573.47,1159.592,1573.659,1161.5,1574.806Z" transform="translate(-1155.499 -1573.751)" fill="#475b95"/>
          <line id="Línea_107" data-name="Línea 107" y1="0.362" x2="7.619" transform="translate(0.017 6.033)" fill="none" stroke="#26304a" stroke-miterlimit="10" stroke-width="0.492"/>
          <line id="Línea_108" data-name="Línea 108" y1="0.362" x2="7.619" transform="translate(0.181 8.21)" fill="none" stroke="#26304a" stroke-miterlimit="10" stroke-width="0.492"/>
          <line id="Línea_109" data-name="Línea 109" y1="0.362" x2="7.619" transform="translate(0.292 10.243)" fill="none" stroke="#26304a" stroke-miterlimit="10" stroke-width="0.492"/>
        </g>
        <g id="Grupo_17170" data-name="Grupo 17170" transform="translate(5.324 76.413)">
          <path id="Trazado_27082" data-name="Trazado 27082" d="M1116.819,1574.806c-3.621,2.176-4.143,8.3-1.313,11.2a2.326,2.326,0,0,0,1.756.648l3.552-.14a1.9,1.9,0,0,0,1.819-1.831l.188-5.745a1.34,1.34,0,0,0-1.186-1.375l-4.651-.536s3.987-1.129,3.131-2.893C1119.793,1573.47,1118.729,1573.659,1116.819,1574.806Z" transform="translate(-1113.694 -1573.751)" fill="#475b95"/>
          <line id="Línea_110" data-name="Línea 110" x1="7.619" y1="0.362" transform="translate(1.492 6.033)" fill="none" stroke="#26304a" stroke-miterlimit="10" stroke-width="0.492"/>
          <line id="Línea_111" data-name="Línea 111" x1="7.619" y1="0.362" transform="translate(1.328 8.21)" fill="none" stroke="#26304a" stroke-miterlimit="10" stroke-width="0.492"/>
          <line id="Línea_112" data-name="Línea 112" x1="7.619" y1="0.362" transform="translate(1.216 10.243)" fill="none" stroke="#26304a" stroke-miterlimit="10" stroke-width="0.492"/>
        </g>
      </g>
      <g id="Grupo_17195" data-name="Grupo 17195" transform="translate(128.939 3.697)">
        <path id="Trazado_27083" data-name="Trazado 27083" d="M1089.084,1559.275l10.028-10.557,7.5,6.764-7.121,18.022Z" transform="translate(-975.908 -1492.313)" fill="#ff9ea0"/>
        <path id="Trazado_27084" data-name="Trazado 27084" d="M1102.32,1560.889l2.137-5.408-7.5-6.765-3.309,3.484,4.566,8.89A2.256,2.256,0,0,0,1102.32,1560.889Z" transform="translate(-973.753 -1492.313)" fill="#d46e6c"/>
        <g id="Grupo_17172" data-name="Grupo 17172" transform="translate(3.978 257.361)">
          <path id="Trazado_27085" data-name="Trazado 27085" d="M1051.442,1693.036v-7.786h-18.568c-.5,4.4-2.941,7.327-10.335,8.335s-7.646,10.99-7.646,10.99h22.237c.43-1.568,1.427-2.667,2.592-2.667s2.162,1.1,2.592,2.667h10.053C1052.871,1696.791,1051.442,1693.036,1051.442,1693.036Z" transform="translate(-1014.893 -1685.25)" fill="#edb224"/>
          <path id="Trazado_27086" data-name="Trazado 27086" d="M1014.893,1699.643h22.237c.43-1.568,1.427-2.667,2.592-2.667s2.162,1.1,2.592,2.667h10.053c.094-1.453.121-2.764.1-3.939h-36.913A17.631,17.631,0,0,0,1014.893,1699.643Z" transform="translate(-1014.893 -1680.317)" fill="#cc961d"/>
        </g>
        <g id="Grupo_17173" data-name="Grupo 17173" transform="translate(70.278 257.361)">
          <path id="Trazado_27087" data-name="Trazado 27087" d="M1061.954,1693.036l.736-7.786h18.569c.089,4.4,2.248,7.327,9.547,8.335s6.606,10.99,6.606,10.99h-22.237c-.281-1.568-1.175-2.667-2.339-2.667s-2.265,1.1-2.844,2.667h-10.054C1060.171,1696.791,1061.954,1693.036,1061.954,1693.036Z" transform="translate(-1059.938 -1685.25)" fill="#edb224"/>
          <path id="Trazado_27088" data-name="Trazado 27088" d="M1097.411,1699.643h-22.237c-.281-1.568-1.175-2.667-2.339-2.667s-2.265,1.1-2.844,2.667h-10.054c.044-1.453.141-2.764.271-3.939h36.913A17.093,17.093,0,0,1,1097.411,1699.643Z" transform="translate(-1059.938 -1680.317)" fill="#cc961d"/>
        </g>
        <path id="Trazado_27089" data-name="Trazado 27089" d="M1081.665,1536.779a42.586,42.586,0,0,0-13.7-2.262l-7.951.127-7.951-.127a42.577,42.577,0,0,0-13.7,2.262,9.09,9.09,0,0,0-6.079,9.12l2.938,53.651h49.593l2.936-53.651A9.089,9.089,0,0,0,1081.665,1536.779Z" transform="translate(-1002.719 -1499.013)" fill="#faf1e2"/>
        <path id="Trazado_27090" data-name="Trazado 27090" d="M1037.66,1555.439l-3.81,17.01-.7-13.788Z" transform="translate(-1002.3 -1489.141)" fill="#ddd5ca"/>
        <path id="Trazado_27091" data-name="Trazado 27091" d="M1065.242,1555.582l5.028,15.28.717-13.1Z" transform="translate(-987.157 -1489.073)" fill="#ddd5ca"/>
        <g id="Grupo_17174" data-name="Grupo 17174" transform="translate(0 37.61)">
          <path id="Trazado_27092" data-name="Trazado 27092" d="M1031.549,1572.816l11.656,8.914-3.643,10.523-16.585-10.145Z" transform="translate(-1007.1 -1518.552)" fill="#d46e6c"/>
          <path id="Trazado_27093" data-name="Trazado 27093" d="M1048.294,1535.948c-9.817,2.977-13.768,6.339-18.976,16.254-3.455,6.575-11.16,22.278-15.956,32.11a11.542,11.542,0,0,0,3.334,14.212l15.9,12.24,10.923-15.376-8.822-6.637,12.855-24.115Z" transform="translate(-1012.19 -1535.948)" fill="#faf1e2"/>
          <line id="Línea_113" data-name="Línea 113" x1="9.326" y1="6.554" transform="translate(13.179 46.248)" fill="#faf1e2"/>
          <path id="Trazado_27094" data-name="Trazado 27094" d="M1025.768,1564.744a34.76,34.76,0,0,1,2.184,7.814" transform="translate(-1005.783 -1522.361)" fill="#faf1e2"/>
          <path id="Trazado_27095" data-name="Trazado 27095" d="M1027.505,1592.71l10.923-15.376-4.152-3.124-11.3,15.014Z" transform="translate(-1007.1 -1517.894)" fill="#ddd5ca"/>
        </g>
        <path id="Trazado_27096" data-name="Trazado 27096" d="M1062.561,1535.156c10.249,2.462,16.171,5.362,21.212,13.932s13.36,21.3,13.36,21.3l4.466-4.714,12.409,13.576-8.781,11.932a11.916,11.916,0,0,1-18.927-.026l-19.793-25.935Z" transform="translate(-988.422 -1498.712)" fill="#faf1e2"/>
        <path id="Trazado_27097" data-name="Trazado 27097" d="M1099.3,1573.907l3.268-4.442-12.409-13.575-3.339,3.525Z" transform="translate(-976.978 -1488.928)" fill="#ddd5ca"/>
        <path id="Trazado_27098" data-name="Trazado 27098" d="M1085.654,1575.851a9.029,9.029,0,0,1-5.5-7.524L1078.4,1551.9h-37.809l-1.748,16.427a9.029,9.029,0,0,1-5.5,7.524l.689,23.436h50.932Z" transform="translate(-1002.209 -1490.811)" fill="#36687a"/>
        <g id="Grupo_17175" data-name="Grupo 17175" transform="translate(46.986 35.497)">
          <path id="Trazado_27099" data-name="Trazado 27099" d="M1054.417,1544.546a10.245,10.245,0,0,1-7.368-3.165,9.836,9.836,0,0,1-2.934-6.869l.67.016a9.161,9.161,0,0,0,2.742,6.385,9.491,9.491,0,0,0,13.78,0,9.152,9.152,0,0,0,2.74-6.384l.67-.016a9.846,9.846,0,0,1-2.931,6.869A10.251,10.251,0,0,1,1054.417,1544.546Z" transform="translate(-1044.113 -1534.512)" fill="#ddd5ca"/>
        </g>
        <g id="Grupo_17180" data-name="Grupo 17180" transform="translate(40.752 34.609)">
          <g id="Grupo_17177" data-name="Grupo 17177">
            <g id="Grupo_17176" data-name="Grupo 17176">
              <path id="Trazado_27100" data-name="Trazado 27100" d="M1045.347,1558.57h-5.461V1534.8l5.461-.9Z" transform="translate(-1039.873 -1533.909)" fill="#36687a"/>
              <path id="Trazado_27101" data-name="Trazado 27101" d="M1039.89,1550.664h5.46s.358,4.813-2.73,4.813S1039.89,1550.664,1039.89,1550.664Z" transform="translate(-1039.877 -1526.003)" fill="none" stroke="#7793e2" stroke-miterlimit="10" stroke-width="0.492"/>
            </g>
            <path id="Trazado_27102" data-name="Trazado 27102" d="M1044.088,1554.257a1.7,1.7,0,1,1-1.7-1.7A1.7,1.7,0,0,1,1044.088,1554.257Z" transform="translate(-1039.496 -1525.11)" fill="#26304a"/>
          </g>
          <g id="Grupo_17179" data-name="Grupo 17179" transform="translate(27.591)">
            <g id="Grupo_17178" data-name="Grupo 17178">
              <path id="Trazado_27103" data-name="Trazado 27103" d="M1058.631,1558.57h5.461V1534.8l-5.461-.9Z" transform="translate(-1058.62 -1533.909)" fill="#36687a"/>
              <path id="Trazado_27104" data-name="Trazado 27104" d="M1064.1,1550.664h-5.461s-.357,4.813,2.731,4.813S1064.1,1550.664,1064.1,1550.664Z" transform="translate(-1058.623 -1526.003)" fill="none" stroke="#7793e2" stroke-miterlimit="10" stroke-width="0.492"/>
            </g>
            <path id="Trazado_27105" data-name="Trazado 27105" d="M1059.231,1554.257a1.7,1.7,0,1,0,1.7-1.7A1.7,1.7,0,0,0,1059.231,1554.257Z" transform="translate(-1058.337 -1525.11)" fill="#26304a"/>
          </g>
        </g>
        <path id="Trazado_27106" data-name="Trazado 27106" d="M1041.432,1559.435h28.5s-.352,17.14-14.249,17.14S1041.432,1559.435,1041.432,1559.435Z" transform="translate(-998.392 -1487.255)" fill="none" stroke="#7793e2" stroke-miterlimit="10" stroke-width="0.492"/>
        <path id="Trazado_27107" data-name="Trazado 27107" d="M1067.259,1609.05h-5.041l-11.766,126.032h-27.475l15.948-150.986h50.932l14.836,69.2a124.929,124.929,0,0,1,1.23,33.172l-4.692,48.616h-24.49l2.016-64.781Z" transform="translate(-1007.1 -1475.619)" fill="#36687a"/>
        <g id="Grupo_17181" data-name="Grupo 17181" transform="translate(29.953 114.191)" opacity="0.46" style="mix-blend-mode: multiply;isolation: isolate">
          <path id="Trazado_27108" data-name="Trazado 27108" d="M1071.532,1587.978h-7.125c.652,4.12,2.551,11.358,9.869,12.8Z" transform="translate(-1017.505 -1587.978)" fill="#36687a"/>
          <path id="Trazado_27109" data-name="Trazado 27109" d="M1042.264,1587.978h-8.456l-1.267,12.489C1038.873,1598.5,1041.652,1591.855,1042.264,1587.978Z" transform="translate(-1032.541 -1587.978)" fill="#36687a"/>
        </g>
        <g id="Grupo_17182" data-name="Grupo 17182" transform="translate(15.877 254.169)">
          <path id="Trazado_27110" data-name="Trazado 27110" d="M1059.67,1683.081l-.165,5.293h24.489l.511-5.293Z" transform="translate(-1005.741 -1683.081)" fill="#7793e2"/>
          <path id="Trazado_27111" data-name="Trazado 27111" d="M1050.986,1683.081h-27.428l-.581,5.293h27.475Z" transform="translate(-1022.977 -1683.081)" fill="#7793e2"/>
        </g>
        <line id="Línea_114" data-name="Línea 114" x2="49.152" transform="translate(32.714 108.477)" fill="none" stroke="#7793e2" stroke-miterlimit="10" stroke-width="0.492"/>
        <g id="Grupo_17183" data-name="Grupo 17183" transform="translate(31.221 114.19)">
          <line id="Línea_115" data-name="Línea 115" x2="52.761" fill="none" stroke="#7793e2" stroke-miterlimit="10" stroke-width="0.492"/>
          <line id="Línea_116" data-name="Línea 116" y2="18.926" transform="translate(26.826)" fill="none" stroke="#7793e2" stroke-miterlimit="10" stroke-width="0.492"/>
          <path id="Trazado_27112" data-name="Trazado 27112" d="M1055.471,1587.978v9.073a7.332,7.332,0,0,1-3.843,6.45h0" transform="translate(-1024.802 -1587.977)" fill="none" stroke="#7793e2" stroke-miterlimit="10" stroke-width="0.492"/>
        </g>
        <g id="Grupo_17184" data-name="Grupo 17184" transform="translate(118.146)">
          <rect id="Rectángulo_4307" data-name="Rectángulo 4307" width="3.801" height="254.086" transform="translate(18.083 22.601)" fill="#475b95"/>
          <path id="Trazado_27113" data-name="Trazado 27113" d="M1131.531,1510.395v16.344a5.809,5.809,0,0,1-5.809,5.809h-1.192a1.765,1.765,0,0,1-1.765-1.765v-20.388h-.9v20.388a1.765,1.765,0,0,1-1.765,1.765h-5.446a1.765,1.765,0,0,1-1.765-1.765v-20.388h-.9v20.388a1.765,1.765,0,0,1-1.764,1.765h-5.448a1.764,1.764,0,0,1-1.765-1.765v-20.388h-.9v20.388a1.765,1.765,0,0,1-1.765,1.765h-1.192a5.809,5.809,0,0,1-5.81-5.809v-16.344h-.9v16.344a6.706,6.706,0,0,0,6.706,6.706h7.88a2.657,2.657,0,0,1,2.657,2.657v7.72h5.481v-7.72a2.656,2.656,0,0,1,2.656-2.657h7.88a6.706,6.706,0,0,0,6.706-6.706v-16.344Z" transform="translate(-1092.46 -1510.395)" fill="#26304a"/>
        </g>
        <g id="Grupo_17189" data-name="Grupo 17189" transform="translate(39.247 1.14)">
          <g id="Grupo_17185" data-name="Grupo 17185" transform="translate(9.473 12.372)">
            <path id="Trazado_27114" data-name="Trazado 27114" d="M1045.291,1519.576l.147,4.442h2.153v-4.442Z" transform="translate(-1045.291 -1519.576)" fill="#191d28"/>
            <path id="Trazado_27115" data-name="Trazado 27115" d="M1057.674,1519.576l-.147,4.442h-2.153v-4.442Z" transform="translate(-1040.534 -1519.576)" fill="#191d28"/>
          </g>
          <path id="Trazado_27116" data-name="Trazado 27116" d="M1060.112,1537.573a1.319,1.319,0,0,1-1.161-1.235l-.484-8.557h-9.83l-.483,8.557a1.32,1.32,0,0,1-1.163,1.235l-1.042.122a7.607,7.607,0,0,0,15.207,0Z" transform="translate(-1035.509 -1503.332)" fill="#ff9ea0"/>
          <path id="Trazado_27117" data-name="Trazado 27117" d="M1058.024,1534.306l-.369-6.525h-9.83l-.158,2.8a6.693,6.693,0,0,0,6.741,4.554A7.639,7.639,0,0,0,1058.024,1534.306Z" transform="translate(-1034.697 -1503.332)" fill="#d46e6c"/>
          <path id="Trazado_27118" data-name="Trazado 27118" d="M1053.485,1518.9h-7.395v6.89c0,5.041,2.532,8.528,7.395,8.528s7.393-3.487,7.393-8.528v-6.89Z" transform="translate(-1035.441 -1507.52)" fill="#ff9ea0"/>
          <g id="Grupo_17186" data-name="Grupo 17186" transform="translate(7.454 15.541)">
            <path id="Trazado_27119" data-name="Trazado 27119" d="M1047.691,1522.915a2.029,2.029,0,1,1-3.058-.885A2.282,2.282,0,0,1,1047.691,1522.915Z" transform="translate(-1043.919 -1521.728)" fill="#ff9ea0"/>
            <path id="Trazado_27120" data-name="Trazado 27120" d="M1055.924,1522.915a2.03,2.03,0,1,0,3.06-.885A2.284,2.284,0,0,0,1055.924,1522.915Z" transform="translate(-1038.518 -1521.728)" fill="#ff9ea0"/>
          </g>
          <path id="Rectángulo_4308" data-name="Rectángulo 4308" d="M5.823,0h5.495A5.823,5.823,0,0,1,17.14,5.823v6.36a0,0,0,0,1,0,0H0a0,0,0,0,1,0,0V5.823A5.823,5.823,0,0,1,5.823,0Z" transform="translate(9.473)" fill="#a37038"/>
          <path id="Trazado_27121" data-name="Trazado 27121" d="M1045.291,1517.258v2.3h17.141v-2.3a78.365,78.365,0,0,0-17.141,0Z" transform="translate(-1035.818 -1508.518)" fill="#fff"/>
          <g id="Grupo_17187" data-name="Grupo 17187" transform="translate(14.184 14.594)">
            <path id="Trazado_27122" data-name="Trazado 27122" d="M1050.13,1522.352c0,.7-.368,1.269-.82,1.269s-.818-.568-.818-1.269.367-1.267.818-1.267S1050.13,1521.651,1050.13,1522.352Z" transform="translate(-1048.492 -1521.085)" fill="#191d28"/>
            <path id="Trazado_27123" data-name="Trazado 27123" d="M1054.261,1522.352c0,.7-.366,1.269-.818,1.269s-.82-.568-.82-1.269.366-1.267.82-1.267S1054.261,1521.651,1054.261,1522.352Z" transform="translate(-1046.543 -1521.085)" fill="#191d28"/>
          </g>
          <g id="Grupo_17188" data-name="Grupo 17188" transform="translate(13.572 13.549)">
            <path id="Trazado_27124" data-name="Trazado 27124" d="M1052.382,1520.543a4.951,4.951,0,0,1,2.605,0" transform="translate(-1046.044 -1520.375)" fill="none" stroke="#191d28" stroke-miterlimit="10" stroke-width="0.492"/>
            <path id="Trazado_27125" data-name="Trazado 27125" d="M1050.681,1520.543a4.952,4.952,0,0,0-2.605,0" transform="translate(-1048.076 -1520.375)" fill="none" stroke="#191d28" stroke-miterlimit="10" stroke-width="0.492"/>
          </g>
          <path id="Trazado_27126" data-name="Trazado 27126" d="M1049.161,1525.007h5.749a4.33,4.33,0,0,0-5.749,0Z" transform="translate(-1033.992 -1505.156)" fill="#191d28"/>
          <path id="Trazado_27127" data-name="Trazado 27127" d="M1050.172,1524.657h2.773s-.047,3.218-1.323,3.218S1050.172,1524.657,1050.172,1524.657Z" transform="translate(-1033.515 -1504.806)" fill="#efeae0"/>
          <path id="Trazado_27128" data-name="Trazado 27128" d="M1050.729,1521.573v2.68a.767.767,0,0,0,.864.761l.962-.122" transform="translate(-1033.252 -1506.261)" fill="none" stroke="#ad403d" stroke-miterlimit="10" stroke-width="0.492"/>
          <path id="Trazado_27129" data-name="Trazado 27129" d="M1038.855,1520.593h36.087s-6.722-2.773-18.064-2.773S1038.855,1520.593,1038.855,1520.593Z" transform="translate(-1038.855 -1508.032)" fill="#a37038"/>
        </g>
        <path id="Trazado_27130" data-name="Trazado 27130" d="M1111.932,1537.857h-3.644a4.83,4.83,0,0,0-4.673,3.606l-1.765,6.728-7.751,7.877,9.83,9.137,3.107-9.09a5.4,5.4,0,0,1,3.722-2.964l1.448-.318a3.9,3.9,0,0,0,3.064-3.809V1541.2A3.34,3.34,0,0,0,1111.932,1537.857Z" transform="translate(-973.541 -1497.437)" fill="#edb224"/>
        <g id="Grupo_17190" data-name="Grupo 17190" transform="translate(133.581 40.42)">
          <path id="Trazado_27131" data-name="Trazado 27131" d="M1105.049,1546.4h-.611a1.491,1.491,0,0,1-1.491-1.489v-3.874h.724v3.874a.766.766,0,0,0,.767.765h.611a.587.587,0,0,0,.586-.586v-7.228h.724v7.228A1.312,1.312,0,0,1,1105.049,1546.4Z" transform="translate(-1102.947 -1537.857)" fill="#cc961d"/>
        </g>
        <g id="Grupo_17191" data-name="Grupo 17191" transform="translate(134.709 48.596)">
          <rect id="Rectángulo_4309" data-name="Rectángulo 4309" width="0.724" height="6.122" fill="#cc961d"/>
        </g>
        <g id="Grupo_17192" data-name="Grupo 17192" transform="translate(136.63 43.718)">
          <rect id="Rectángulo_4310" data-name="Rectángulo 4310" width="5.101" height="0.724" fill="#cc961d"/>
        </g>
        <g id="Grupo_17193" data-name="Grupo 17193" transform="translate(136.63 47.077)">
          <rect id="Rectángulo_4311" data-name="Rectángulo 4311" width="5.101" height="0.724" fill="#cc961d"/>
        </g>
        <g id="Grupo_17194" data-name="Grupo 17194" transform="translate(135.071 50.436)">
          <rect id="Rectángulo_4312" data-name="Rectángulo 4312" width="6.66" height="0.724" fill="#cc961d"/>
        </g>
      </g>
    </g>
  </g>
</svg>
